<svg viewBox="0 0 100 100" xmlns="http://www.w3.org/2000/svg" xmlns:xlink="http://www.w3.org/1999/xlink"><defs><path id="a" d="M50 0H0v100h100V0z"/></defs><g fill="none" fill-rule="evenodd"><mask id="b" fill="#fff"><use xlink:href="#a"/></mask><path d="M18.76 100C8.415 100 0 91.602 0 81.282V18.715C0 8.395 8.414 0 18.76 0h62.486C91.59 0 100 8.394 100 18.715v62.567C100 91.602 91.591 100 81.246 100H18.76" fill="#FFFFFE" mask="url(#b)"/><path fill="#CB2129" d="M22.611 15.486h19.91l7.678 29.81 7.623-29.81H77.72v48.992H65.321V27.115l-9.553 37.363H44.545L35.01 27.115v37.363h-12.4V15.486"/><path d="M27.482 81.307h2.437c.824 0 1.403-.146 1.742-.437.337-.293.506-.685.506-1.177 0-.457-.168-.825-.501-1.103-.334-.278-.92-.416-1.757-.416h-2.427v3.133zm0-6.077h2.078c.746 0 1.265-.129 1.557-.385.292-.257.438-.628.438-1.113 0-.45-.146-.802-.438-1.055-.292-.253-.8-.38-1.525-.38h-2.11v2.933zm-4.821-6.067h8.946c1.492 0 2.636.37 3.435 1.108.798.739 1.197 1.653 1.197 2.743 0 .915-.285 1.699-.854 2.353-.38.436-.936.78-1.667 1.034 1.111.268 1.929.727 2.453 1.377.524.65.786 1.468.786 2.453 0 .802-.187 1.523-.56 2.163a4.119 4.119 0 0 1-1.53 1.52c-.4.231-1.005.4-1.814.505-1.076.141-1.79.212-2.142.212h-8.25V69.163zm20.935 0h12.808v3.302h-8.019v2.46h7.439v3.154h-7.439v3.049h8.252v3.503H43.596V69.163m19.594 0h14.53v3.82h-4.874V84.63h-4.78V72.983h-4.874v-3.82" fill="#0E2344"/></g></svg>