<svg xmlns="http://www.w3.org/2000/svg" viewBox="0 0 159 99"><g fill="none" fill-rule="evenodd"><g stroke="#9AFC89"><path stroke-width="2" d="M53.557 9.29c.955-4.39 4.787-7.745 9.482-7.91 5.55-.193 10.21 4.152 10.4 9.706a10.067 10.067 0 0 1-7.9 10.182c3.32 3.022 4.31 8.018 2.11 12.167a10.063 10.063 0 0 1-13.61 4.16 10.069 10.069 0 0 1-4.87-11.933c-4.28 1.368-9.1-.273-11.59-4.257-2.95-4.713-1.51-10.92 3.2-13.866 4.19-2.62 9.56-1.78 12.77 1.75z"/><path d="M49.6 31.308l-2.046 2.194a1 1 0 0 1-1.413.05l-4.38-4.092c-.4-.38-.42-1.01-.05-1.42l2.05-2.193"/><path stroke-width="2" d="M45.41 32.87L7.218 73.824l-2.926-2.728L42.484 30.14"/><path d="M4.234 57.963l-3.796 4.07 6.582 6.14 8.866-9.51-6.582-6.137-3.748 4.02 3.657 3.41-1.322 1.417z"/></g><g stroke="#9AFC89" transform="rotate(6 27.77 665.47)"><path d="M22 35v3a1 1 0 0 1-1 1h-6a1 1 0 0 1-1-1v-3"/><path stroke-width="2" d="M20 39v56h-4V39"/><path d="M8.826 91H6V78h2.826v4.064h3V78H16v13h-4.174v-3.936h-3V91z"/><circle cx="18" cy="18" r="18" stroke-width="2"/></g><path stroke="#9AFC89" d="M103.317 30.453c-2.008-1.81-4.465-2.355-5.487-1.22-1.022 1.135-.222 3.52 1.787 5.33 2.01 1.808 4.466 2.354 5.487 1.22 1.022-1.135.222-3.522-1.787-5.33z"/><path stroke="#9AFC89" stroke-width="2" d="M142.186 83.06a16.66 16.66 0 0 0 11.92-5.943 16.64 16.64 0 0 0 3.893-11.413c-.03-.512-.07-1.022-.14-1.53M144.58 50c-5.785-1.15-12.003.81-16.062 5.646-4.05 4.826-4.903 11.27-2.787 16.758"/><path fill="#9AFC89" d="M132.777 67.514l2.94-3.505 6.367 3.03-4.106-5.73 2.94-3.51 8.597 7.21-1.83 2.18-6.56-5.51 5.148 7.18-1.658 1.97-7.966-3.82 6.55 5.5-1.83 2.18-8.6-7.218m21.09-8.575l2.59 1.67c-1.6.022-3.06-.73-4-2.49 1.47-.12 2.96.48 4.01 2.19l-2.61-1.37zm-2.73-3.44l2.83 1.09c-1.53.373-3.09-.057-4.37-1.6 1.38-.443 3.07-.15 4.44 1.32 0 .004-2.91-.815-2.91-.815zm-2.76-3.1l2.88.914c-1.5.47-3.07.14-4.44-1.33 1.35-.53 3.09-.34 4.54 1.05l-2.99-.64zm9.83 4.68s-.84 2.78-.85 2.775c-.57-1.902.09-3.39 1.2-4.304.68 1.86.23 3.38-.9 4.45l.53-2.92zm-3.2-4.53s.11 3.034.1 3.03c-1.11-1.67-1-3.384-.25-4.63 1.2 1.602 1.25 3.224.53 4.626l-.4-3.02zm-3.64-2.955l.76 2.884c-1.4-1.44-1.7-3.11-1.21-4.39 1.46 1.367 1.91 2.89 1.49 4.315l-1.05-2.807zm-4.82-.78l2.43 1.926c-1.61-.12-2.99-1.04-3.79-2.87 1.49.01 3.07.8 3.98 2.59l-2.63-1.65zm10.99 13.98c-.22-1.65-.57-2.47-2.26-5.524-1.7-3.06-4.36-5.24-6.03-6.56-.02-.03 2.6 1.34 5.12 4.6 3.78 4.89 3.74 7.66 3.74 7.66l-.58-.19zm-21.38 17.27l2.09 2.26c-.25-1.58-1.25-2.89-3.15-3.51.14 1.47.99 2.84 2.86 3.574l-1.8-2.325zm-3.86-2.09l1.56 2.604c.1-1.57-.59-3.03-2.33-4.02-.2 1.44.38 3.05 2.07 4.14l-1.31-2.723zm-3.53-2.18l1.4 2.68c.2-1.55-.4-3.05-2.08-4.132-.29 1.42.2 3.11 1.82 4.29l-1.15-2.83zm6.31 8.87l2.59-1.31c-1.97-.23-3.32.68-4.03 1.94 1.95.35 3.37-.35 4.23-1.65l-2.78 1.03zm-5.03-2.37s3.01-.416 3-.42c-1.84-.8-3.51-.39-4.6.566 1.79.9 3.4.67 4.65-.28l-3.04.13zm-3.54-3.07s2.97.256 2.97.254c-1.67-1.123-3.36-1.126-4.53-.425 1.59 1.21 3.17 1.39 4.5.72l-2.947-.54zm-1.6-4.6l2.32 2.066c-.4-1.56-1.55-2.76-3.48-3.22.27 1.46 1.32 2.89 3.24 3.47l-2.088-2.3zm15.67 8.4c-1.66.07-2.53-.132-5.83-1.27-3.31-1.135-5.92-3.382-7.51-4.8-.03-.014 1.77 2.337 5.42 4.253 5.47 2.876 8.2 2.352 8.2 2.352l-.29-.53z"/><g stroke="#9AFC89" transform="rotate(-50 90.795 -94.078)"><path d="M1.133 5.1v3.398m0-8.498v3.4m0 7.364v3.4m0 2.266v3.398m0 2.266v3.4m0 1.7v3.4"/><rect width="2.266" height="4.532" y="1.7" rx="1.133"/><rect width="2.266" height="4.532" y="7.365" rx="1.133"/><rect width="2.266" height="4.532" y="13.03" rx="1.133"/><rect width="2.266" height="4.532" y="18.695" rx="1.133"/><rect width="2.266" height="4.532" y="24.36" rx="1.133"/></g></g></svg>