<svg xmlns="http://www.w3.org/2000/svg" width="21" height="17"><g fill="none" fill-rule="evenodd"><path d="M-2-2h25.53v21H-2z"/><g fill-rule="nonzero"><path fill="#000" d="M4.292 16.372v-1.047c0-.4-.245-.663-.663-.663-.21 0-.438.07-.595.296-.122-.192-.296-.296-.558-.296a.561.561 0 0 0-.488.244v-.21H1.62v1.676h.367v-.925c0-.297.156-.436.4-.436.244 0 .366.158.366.437v.925h.367v-.925c0-.297.174-.436.4-.436.245 0 .367.158.367.437v.925h.402zm5.426-1.675h-.593v-.507h-.367v.507h-.33v.33h.33v.77c0 .383.157.61.576.61a.974.974 0 0 0 .454-.122l-.105-.314a.575.575 0 0 1-.314.088c-.176 0-.245-.105-.245-.28v-.75h.593v-.33zm3.106-.035c-.21 0-.35.104-.437.244v-.21h-.366v1.676h.367v-.942c0-.28.122-.437.35-.437.07 0 .156.018.226.035l.105-.35c-.07-.016-.175-.016-.244-.016zm-4.694.174c-.174-.122-.42-.174-.68-.174-.42 0-.698.21-.698.54 0 .28.21.437.576.49l.174.017c.192.034.297.086.297.174 0 .122-.14.21-.385.21s-.436-.088-.56-.176l-.173.28c.192.14.454.21.715.21.49 0 .768-.228.768-.542 0-.297-.227-.454-.576-.506l-.175-.018c-.157-.017-.28-.052-.28-.157 0-.122.123-.192.315-.192.21 0 .418.088.523.14l.157-.297zm9.736-.174c-.21 0-.35.104-.436.244v-.21h-.367v1.676h.367v-.942c0-.28.122-.437.35-.437.068 0 .156.018.225.035l.105-.35c-.07-.016-.174-.016-.244-.016zm-4.676.872c0 .507.35.873.89.873.244 0 .42-.052.593-.192l-.174-.297a.708.708 0 0 1-.438.158c-.296 0-.506-.21-.506-.542 0-.314.21-.523.506-.54.157 0 .297.052.437.156l.173-.296c-.174-.14-.35-.192-.593-.192-.54 0-.89.366-.89.872zm3.385 0v-.837h-.367v.21a.627.627 0 0 0-.523-.245c-.47 0-.838.366-.838.872 0 .507.367.873.838.873.244 0 .42-.087.523-.244v.21h.367v-.84zm-1.344 0c0-.296.193-.54.507-.54.297 0 .506.226.506.54 0 .297-.21.542-.506.542-.314-.018-.506-.245-.506-.542zm-4.378-.872c-.49 0-.838.35-.838.872 0 .524.35.873.855.873.244 0 .488-.07.68-.227l-.175-.262a.833.833 0 0 1-.488.175c-.227 0-.454-.105-.506-.4h1.24v-.14c.017-.542-.297-.89-.768-.89zm0 .314c.227 0 .384.14.42.4h-.874c.035-.226.192-.4.454-.4zm9.09.558v-1.5h-.366v.872a.63.63 0 0 0-.524-.244c-.47 0-.837.366-.837.872 0 .507.366.873.837.873.245 0 .42-.087.524-.244v.21h.366v-.84zm-1.343 0c0-.296.19-.54.505-.54.296 0 .506.226.506.54 0 .297-.21.542-.505.542-.314-.018-.506-.245-.506-.542zm-12.25 0v-.837h-.366v.21a.628.628 0 0 0-.523-.245c-.47 0-.837.366-.837.872 0 .507.367.873.838.873.245 0 .42-.087.524-.244v.21h.366v-.84zm-1.36 0c0-.296.19-.54.506-.54.296 0 .505.226.505.54 0 .297-.208.542-.504.542-.315-.018-.506-.245-.506-.542z"/><path fill="#FF5F00" d="M8.008 1.972h5.496v9.88H8.008z"/><path fill="#EB001B" d="M8.357 6.912c0-2.008.942-3.788 2.39-4.94A6.237 6.237 0 0 0 6.874.628a6.277 6.277 0 0 0-6.28 6.284 6.277 6.277 0 0 0 6.28 6.283c1.465 0 2.81-.506 3.873-1.344a6.269 6.269 0 0 1-2.39-4.938z"/><path fill="#F79E1B" d="M20.92 6.912a6.279 6.279 0 0 1-6.282 6.283 6.235 6.235 0 0 1-3.873-1.344 6.243 6.243 0 0 0 2.39-4.938 6.301 6.301 0 0 0-2.39-4.94A6.234 6.234 0 0 1 14.638.628c3.472 0 6.28 2.827 6.28 6.284z"/></g></g></svg>