<svg xmlns="http://www.w3.org/2000/svg" width="39" height="17"><g fill="none" fill-rule="evenodd"><path fill="#FF8C00" d="M20.628 14.074c.273 0 .4-.124.4-.307 0-.194-.143-.31-.404-.31h-.4v.617h.404zm-.035-.87c.226 0 .34-.117.34-.3 0-.178-.114-.27-.35-.27h-.36v.57h.37zm-.746-.832h.812c.396 0 .657.175.657.505 0 .19-.1.354-.28.432v.003a.462.462 0 0 1 .373.466c0 .364-.296.56-.723.56h-.84V12.37zm2.947-.046c.26 0 .552.09.74.287l-.18.264a.797.797 0 0 0-.544-.225c-.397 0-.684.3-.684.7 0 .4.287.707.695.707a.88.88 0 0 0 .608-.265l.152.276c-.18.19-.478.315-.786.315-.622 0-1.054-.44-1.054-1.03 0-.582.436-1.03 1.054-1.03m2.158-.341h.307v-.393h-.307v.394zm-.654 0h.31v-.393h-.31v.394zm.97 1.15c-.01-.338-.22-.517-.477-.517-.29 0-.52.19-.575.517h1.053zm-.47-.808c.557 0 .853.415.853.92 0 .05-.008.106-.016.16h-1.43c.018.424.322.653.676.653.21 0 .423-.09.58-.23l.158.276c-.19.174-.49.28-.76.28-.62 0-1.047-.447-1.047-1.03 0-.626.428-1.03.988-1.03zm2.281.046h1.72v1.967h-.38v-1.645h-.963v1.644h-.377V12.37m3.223 1.69c.312 0 .568-.254.568-.7 0-.428-.228-.704-.555-.704-.295 0-.568.21-.568.707 0 .35.195.696.556.696m-.92-1.688h.35v.175c0 .082-.013.148-.013.148h.008c.124-.237.373-.37.66-.37.534 0 .864.42.864 1.03 0 .626-.373 1.03-.89 1.03a.718.718 0 0 1-.61-.334h-.01s.017.07.017.172v.894h-.378v-2.744m3.27 1.688c.37 0 .677-.296.677-.708 0-.408-.308-.7-.678-.7-.373 0-.676.292-.676.7 0 .412.303.707.676.707m-.004-1.734c.588 0 1.062.43 1.062 1.026 0 .598-.474 1.033-1.058 1.033-.587 0-1.06-.435-1.06-1.033 0-.595.473-1.026 1.056-1.026m1.44.047h.362v1.64h.726v-1.64h.366v1.64h.727v-1.64h.36v1.64h.28v.793h-.346v-.466h-2.477V12.37m4.533.764c-.012-.338-.222-.517-.48-.517-.29 0-.52.19-.574.517h1.054zm-.47-.808c.555 0 .85.415.85.92 0 .05-.007.106-.015.16h-1.43c.02.424.322.653.676.653.21 0 .423-.09.578-.23l.16.276c-.19.174-.49.28-.763.28-.618 0-1.046-.447-1.046-1.03 0-.626.427-1.03.987-1.03z"/><path fill="#0023A0" d="M24.163 10.585c-.054.045-.118.036-.163-.02l-.437-.58c-.4-.535-.908-.87-1.853-.87-1.78 0-2.898-1.282-2.898-3.316 0-2.043 1.117-3.324 2.898-3.324 1.78 0 2.89 1.28 2.89 3.323 0 1.035-.364 2.088-.973 2.45-.11.065-.11.092 0 .128.527.19.772.418 1.054.78l.41.555c.045.054.036.118-.018.163l-.91.71zm-2.453-2.78c.88 0 1.408-.762 1.408-2.006 0-1.272-.527-2.007-1.408-2.007-.863 0-1.417.735-1.417 2.006 0 1.243.554 2.006 1.417 2.006zm5.37 1.091c0 .073-.046.118-.118.118h-1.236c-.072 0-.118-.045-.118-.118V2.694c0-.072.046-.118.118-.118h1.236c.072 0 .118.046.118.118v6.202m8.413-1.834c-.163.626-.3 1.225-.418 1.843-.01.072-.054.11-.127.11h-1.663c-.072 0-.118-.038-.127-.11-.1-.527-.2-1.008-.327-1.508l-.28-1.18a18.097 18.097 0 0 1-.182-.935c-.018-.127-.127-.127-.146 0-.054.318-.127.69-.18.935l-.283 1.18c-.12.5-.22.98-.328 1.508-.01.072-.055.11-.127.11h-1.663c-.073 0-.118-.038-.127-.11a27.633 27.633 0 0 0-.418-1.843l-1.118-4.36c-.028-.07.018-.126.1-.126h1.253c.073 0 .118.036.136.1l.617 2.45c.155.62.282 1.41.336 2 .01.117.146.126.164 0 .082-.582.227-1.38.4-2l.663-2.45c.018-.064.064-.1.127-.1h1.036c.064 0 .11.036.127.1l.673 2.45c.172.62.317 1.418.4 2 .008.126.145.117.154 0 .045-.59.18-1.38.336-2l.618-2.45c.02-.064.064-.1.137-.1h1.254c.083 0 .128.055.1.127l-1.117 4.36m3.489 1.833c0 .073-.045.118-.118.118H37.63c-.074 0-.12-.045-.12-.118V2.694c0-.072.046-.118.12-.118h1.234c.073 0 .118.046.118.118v6.202"/><path fill="#FF8C00" d="M11.38 11.9a.442.442 0 0 0-.354.15c-.198.243-.11.673.194.938a.795.795 0 0 0 .51.185c.192 0 .35-.07.45-.2.176-.238.074-.573-.26-.855a.85.85 0 0 0-.54-.217m1.664-1.226c-.148-.043-.258-.01-.312.088-.083.15-.022.45.144.708.17.263.312.396.426.396.04 0 .074-.016.102-.047.063-.074.084-.226.057-.42-.026-.195-.146-.6-.416-.726m3.297 5.962c.153.19-.08.38-.252.228-1.727-1.53-3.18-1.963-4.617-2.023-.762-.03-1.52.042-2.313.112-.158.014-.318.028-.48.04-.07.007-.14.012-.21.017-.28.03-.564.045-.85.045-1.353 0-2.63-.33-3.794-.984a7.191 7.191 0 0 1-2.76-2.72A7.411 7.411 0 0 1 .064 7.582a7.55 7.55 0 0 1 .996-3.785A7.323 7.323 0 0 1 3.79 1.05 7.395 7.395 0 0 1 7.516.054c1.38 0 2.673.33 3.838.984a7.263 7.263 0 0 1 2.77 2.73 7.444 7.444 0 0 1 1.006 3.778 7.718 7.718 0 0 1-.269 2.032l-.006-.004c-.133.43-.383 1.035-.846 1.813-.05.082-.078.02-.085-.026-.162-1.144-.664-2.013-1.548-2.575l-.045-.027c-.145-.09-.3-.17-.465-.243a4.839 4.839 0 0 0-.683-.24c-.15-.04-.484-.022-.363-.142.05-.05.774-.06 1.606-.008.017 0 .033.002.05.003a6.69 6.69 0 0 0 .022-.537c0-1.427-.473-2.592-1.446-3.56-.974-.966-2.113-1.437-3.482-1.437-1.4 0-2.538.47-3.474 1.44-.942.974-1.4 2.13-1.4 3.53s.47 2.55 1.44 3.516c.967.966 2.09 1.436 3.434 1.436.065 0 .13-.002.192-.004 0-.016-.002-.032-.004-.048-.077-.986-.093-1.805.11-1.475a8.309 8.309 0 0 0 1.003 1.324l.04.04c.954.97 1.895 1.208 2.894 1.453l.064.016c.164.04.33.08.496.125 1.188.317 2.475.828 3.977 2.688"/></g></svg>