<svg id="Layer_1" data-name="Layer 1" xmlns="http://www.w3.org/2000/svg" viewBox="0 0 340.5262 264.8868"><defs><style>.cls-1{fill:#010101;}.cls-2{fill:#f26522;}.cls-3{fill:#e51b24;}.cls-4{fill:#f99f1c;}</style></defs><title>Mastercard</title><g id="_Group_" data-name="&lt;Group&gt;"><path id="_Compound_Path_" data-name="&lt;Compound Path&gt;" class="cls-1" d="M61.94,263.3835V245.8477c0-6.6047-4.204-11.0465-10.9853-11.1078a10.8336,10.8336,0,0,0-9.8224,4.9724,10.25,10.25,0,0,0-9.237-4.9724,9.2427,9.2427,0,0,0-8.1829,4.1494V235.44H17.6309v27.943h6.1424V247.8953c0-4.8568,2.687-7.428,6.8361-7.428,4.0338,0,6.0809,2.6324,6.0809,7.3667v15.5494h6.1357V247.8953c0-4.8568,2.809-7.428,6.8428-7.428,4.1492,0,6.1353,2.6324,6.1353,7.3667v15.5494Zm90.8417-27.943h-9.9378v-8.4754h-6.1353V235.44h-5.6732v5.5574h5.6732v12.74c0,6.4893,2.51,10.3459,9.7,10.3459a14.2379,14.2379,0,0,0,7.598-2.163l-1.7483-5.2035a11.2158,11.2158,0,0,1-5.38,1.578c-3.0407,0-4.0338-1.8705-4.0338-4.6731V240.9979h9.9378Zm51.8522-.7006a8.2413,8.2413,0,0,0-7.3667,4.095V235.44h-6.0195v27.943h6.0739V247.7184c0-4.6187,1.9932-7.19,5.9655-7.19a9.9746,9.9746,0,0,1,3.8025.7006l1.87-5.7274a13.081,13.081,0,0,0-4.326-.7618M126.24,237.6647a20.8429,20.8429,0,0,0-11.3938-2.9248c-7.074,0-11.6313,3.3942-11.6313,8.9448,0,4.5575,3.3873,7.3667,9.6385,8.2442l2.87.4081c3.3263.4693,4.9044,1.34,4.9044,2.9182,0,2.163-2.2174,3.3942-6.367,3.3942a14.896,14.896,0,0,1-9.2981-2.9248l-2.8638,4.7341A20.167,20.167,0,0,0,114.2,264.084c8.0671,0,12.7473-3.7955,12.7473-9.1148,0-4.911-3.6871-7.4823-9.768-8.36l-2.8634-.4148c-2.6259-.3471-4.7346-.8708-4.7346-2.7413,0-2.0474,1.9862-3.2786,5.32-3.2786a17.9975,17.9975,0,0,1,8.7131,2.4011ZM289.0953,234.74a8.2379,8.2379,0,0,0-7.36,4.095V235.44h-6.02v27.943H281.79V247.7184c0-4.6187,1.9928-7.19,5.9655-7.19a9.9952,9.9952,0,0,1,3.8021.7006l1.8641-5.7274a13.0237,13.0237,0,0,0-4.3264-.7618M210.77,249.4121c0,8.4754,5.9041,14.672,14.9032,14.672a14.6028,14.6028,0,0,0,10.0537-3.333l-2.9182-4.911a12.2754,12.2754,0,0,1-7.3057,2.5167c-4.8566-.0612-8.4208-3.5644-8.4208-8.9448,0-5.3737,3.5642-8.8835,8.4208-8.9448a12.2754,12.2754,0,0,1,7.3057,2.5167l2.9182-4.911a14.6353,14.6353,0,0,0-10.0537-3.3332c-8.9991,0-14.9032,6.1968-14.9032,14.6722m56.9334,0V235.44h-6.0814v3.3944a10.5819,10.5819,0,0,0-8.8223-4.095c-7.8359,0-13.9712,6.1424-13.9712,14.6722,0,8.5367,6.1353,14.672,13.9712,14.672a10.5961,10.5961,0,0,0,8.8223-4.0879v3.3873h6.0814Zm-22.6237,0c0-4.9112,3.2171-8.9448,8.4819-8.9448,5.0268,0,8.4142,3.8567,8.4142,8.9448s-3.3873,8.9448-8.4142,8.9448c-5.2647,0-8.4819-4.0338-8.4819-8.9448M171.7186,234.74c-8.1829,0-13.91,5.9655-13.91,14.6722,0,8.8835,5.9655,14.672,14.3253,14.672a16.9956,16.9956,0,0,0,11.4544-3.9179L180.609,255.67a13.31,13.31,0,0,1-8.1285,2.9182c-3.9179,0-7.4821-1.8093-8.36-6.8361H184.874c.061-.7618.1154-1.5237.1154-2.34-.0544-8.7067-5.4349-14.6722-13.2708-14.6722m-.1154,5.4349c3.9179,0,6.4276,2.4555,7.074,6.7817H164.1821c.6394-4.0338,3.0947-6.7817,7.4211-6.7817m152.5093,9.2372v-25.195h-6.0809v14.6178a10.583,10.583,0,0,0-8.8223-4.095c-7.8359,0-13.9716,6.1424-13.9716,14.6722,0,8.5367,6.1357,14.672,13.9716,14.672a10.5972,10.5972,0,0,0,8.8223-4.0879v3.3873h6.0809Zm-22.6237,0c0-4.9112,3.2175-8.9448,8.4756-8.9448,5.0264,0,8.4208,3.8567,8.4208,8.9448s-3.3944,8.9448-8.4208,8.9448c-5.2581,0-8.4756-4.0338-8.4756-8.9448m-205.2936,0V235.44H90.121v3.3944a10.6057,10.6057,0,0,0-8.8293-4.095c-7.8359,0-13.9716,6.1424-13.9716,14.6722,0,8.5367,6.1357,14.672,13.9716,14.672a10.62,10.62,0,0,0,8.8293-4.0879v3.3873h6.0743Zm-22.617,0c0-4.9112,3.21-8.9448,8.4752-8.9448,5.0268,0,8.4142,3.8567,8.4142,8.9448s-3.3873,8.9448-8.4142,8.9448c-5.2647,0-8.4752-4.0338-8.4752-8.9448m260.6693,9.9241a2.7487,2.7487,0,0,1,1.1023.2178,2.8584,2.8584,0,0,1,.8976.5918,2.9582,2.9582,0,0,1,.6053.8843,2.76,2.76,0,0,1,.218,1.0815,2.7028,2.7028,0,0,1-.218,1.0747,2.8792,2.8792,0,0,1-.6053.8843,3,3,0,0,1-.8976.5985,2.7487,2.7487,0,0,1-1.1023.2178,2.8,2.8,0,0,1-1.1222-.2178,2.844,2.844,0,0,1-.898-.5985,2.775,2.775,0,0,1-.6053-.8843,2.71,2.71,0,0,1-.2175-1.0747,2.7671,2.7671,0,0,1,.2175-1.0815,2.8481,2.8481,0,0,1,.6053-.8843,2.7167,2.7167,0,0,1,.898-.5918,2.8,2.8,0,0,1,1.1222-.2178m0,4.9384a2.025,2.025,0,0,0,.837-.17,2.1191,2.1191,0,0,0,.68-.4627,2.1652,2.1652,0,0,0,0-3.0608,2.2342,2.2342,0,0,0-.68-.4625,2.1333,2.1333,0,0,0-.837-.1634,2.2329,2.2329,0,0,0-.8569.1634,2.1646,2.1646,0,0,0-.6871,3.5233,2.0744,2.0744,0,0,0,.6871.4627,2.119,2.119,0,0,0,.8569.17m.1636-3.4623a1.2149,1.2149,0,0,1,.7685.2178.7546.7546,0,0,1,.2653.6053.7178.7178,0,0,1-.2109.5306,1.0567,1.0567,0,0,1-.612.2516l.8432.9727h-.66l-.7822-.9659h-.2516v.9659H333.22v-2.578Zm-.6394.4828v.6871h.6323a.6558.6558,0,0,0,.3471-.0816.3.3,0,0,0,.1291-.2653.2883.2883,0,0,0-.1291-.2584.6557.6557,0,0,0-.3471-.0818Z"/><rect id="_Path_" data-name="&lt;Path&gt;" class="cls-2" x="124.2199" y="22.5012" width="92.0798" height="165.4675"/><path id="_Path_2" data-name="&lt;Path&gt;" class="cls-3" d="M130.07,105.2349a105.0577,105.0577,0,0,1,40.1935-82.7337,105.235,105.235,0,1,0,0,165.4677,105.0578,105.0578,0,0,1-40.1935-82.734"/><path id="_Compound_Path_2" data-name="&lt;Compound Path&gt;" class="cls-4" d="M340.5262,105.2283A105.2251,105.2251,0,0,1,170.27,187.962a105.2567,105.2567,0,0,0,0-165.4677,105.2316,105.2316,0,0,1,170.2564,82.734m-10.04,65.2114v-3.3873h1.3671v-.6871h-3.4824v.6871h1.3671V170.44Zm6.7548,0v-4.0811h-1.0682l-1.2243,2.8092-1.2243-2.8092h-1.0678V170.44h.7481v-3.0812l1.15,2.66h.7822l1.15-2.6664v3.088Z"/></g></svg>