<?xml version="1.0" encoding="utf-8"?>
<!-- Generator: Adobe Illustrator 21.1.0, SVG Export Plug-In . SVG Version: 6.00 Build 0)  -->
<svg version="1.1" id="Layer_1" xmlns="http://www.w3.org/2000/svg" xmlns:xlink="http://www.w3.org/1999/xlink" x="0px" y="0px"
	 viewBox="0 0 640 384.3" style="enable-background:new 0 0 640 384.3;" xml:space="preserve">
<style type="text/css">
	.payments-st0{fill:#2F67B2;}
	.payments-st1{fill:none;stroke:#2F67B2;stroke-width:0.3097;}
	.payments-st2{fill:#CB2026;}
	.payments-st3{fill:#231F20;}
	.payments-st4{fill:#FFFFFF;}
</style>
<g id="layer1" transform="translate(-457.20465,-631.07671)">
	<path id="path618" class="payments-st0" d="M777.2,965.3c38.7-35.2,62.7-85.6,62.7-142.2c0-56-23.9-107-62.7-141.7
		c-33.6-30.6-79-49.4-128.4-49.4c-106,0-191.6,85.6-191.6,191.6s85.6,191.6,191.6,191.6C698.2,1014.7,743.6,995.9,777.2,965.3"/>
	<path id="path620" class="payments-st0" d="M777.2,965.3c38.7-35.2,62.7-85.6,62.7-142.2c0-56-23.9-107-62.7-141.7"/>
	<path id="path622" class="payments-st1" d="M777.2,965.3c38.7-35.2,62.7-85.6,62.7-142.2c0-56-23.9-107-62.7-141.7"/>
	<path id="path624" class="payments-st2" d="M906.1,631.6c-49.4,0-94.8,18.9-128.9,49.4c-6.6,6.1-13.2,13.2-19.4,20.4h38.7
		c5.6,6.6,10.2,13.2,14.3,20.4H743c-4.1,6.6-7.6,13.2-11.2,20.4H822c3.1,6.6,5.6,13.2,8.2,20.4h-106c-2,6.6-4.1,13.2-5.6,20.4h117.2
		c3.1,13.2,4.1,26.5,4.1,40.8c0,21.4-3.6,41.8-10.2,60.6h-106c2,7.1,5.1,13.8,8.2,20.4h90.2c-3.6,7.1-6.6,13.8-11.2,20.4h-67.8
		c4.1,7.1,9.2,13.8,14.3,20.4h38.7c-6.1,7.1-12.7,13.8-19.4,20.4c33.6,30.6,79,49.4,128.9,49.4c105.5,0,191.1-85.6,191.1-191.6
		C1097.2,717.7,1011.6,631.6,906.1,631.6"/>
	<path id="path626" class="payments-st3" d="M1076.8,929.6h1c0.5,0,0.5,0,0.5,0c0.5,0,0.5-0.5,0.5-0.5l-0.5-0.5h-0.5h-1V929.6L1076.8,929.6z
		 M1076.8,932.7h-1v-5.6h2c0.5,0,1,0,1.5,0.5s0.5,1,0.5,1.5s-0.5,1-1,1.5l1,2.5h-1.5l-0.5-2h-1V932.7L1076.8,932.7z M1077.8,934.7
		c2.5,0,5.1-2,5.1-4.6c0-2.5-2-4.6-5.1-4.6c-2.5,0-4.6,2-4.6,4.6S1075.3,934.7,1077.8,934.7z M1071.7,929.6c0-3.6,3.1-6.1,6.1-6.1
		c3.6,0,6.1,2.5,6.1,6.1s-3.1,6.1-6.1,6.1C1074.2,936.3,1071.7,933.2,1071.7,929.6"/>
	<path id="path628" class="payments-st3" d="M618.7,876.6h-23.9l14.3-74.9l-32.6,74.4h-19.9l-4.1-74.4l-15.8,74.4h-21.9l18.3-96.8h37.7
		l0.5,60.1l26-60.1h40.3L618.7,876.6"/>
	<path id="path630" class="payments-st3" d="M885.2,875.6c-6.6,2-11.7,2.5-17.3,2.5c-12.2,0-18.9-6.1-18.9-17.3c0-2,0-4.6,0.5-7.1l1.5-7.6
		l1-6.1l11.2-60.1h23.4l-3.4,18.3h12.2l-3.6,19.4h-12.2l-6.1,33.1c-0.5,1.5-0.5,2.5-0.5,3.1c0,4.1,2,6.1,8.2,6.1
		c3.1,0,4.6,0,6.6-0.5L885.2,875.6"/>
	<path id="path632" class="payments-st3" d="M790.4,822.6c0,10.2,5.6,16.8,18.3,21.9c9.7,4.1,11.2,5.1,11.2,8.7c0,5.1-4.1,7.1-13.8,7.1
		c-7.1,0-13.8-1-21.4-3.1l-3.1,18.3h1l4.6,1c1.5,0,3.6,0.5,6.1,0.5c5.6,0.5,10.2,0.5,13.2,0.5c25.5,0,37.2-8.2,37.2-26.5
		c0-10.7-5.1-17.3-16.8-21.9c-10.2-4.1-11.2-5.1-11.2-8.7c0-4.1,4.1-6.6,11.7-6.6c4.6,0,11.2,0.5,17.3,1l3.6-18.3
		c-6.1-1-15.8-1.5-20.9-1.5C799.6,795.6,790.4,807.9,790.4,822.6"/>
	<path id="path634" class="payments-st3" d="M679.9,841.5c-2.5-0.5-3.6-0.5-5.6-0.5c-13.2,0-20.4,4.1-20.4,12.2c0,5.1,3.6,8.2,8.7,8.2
		C672.2,860.8,679.4,852.7,679.9,841.5L679.9,841.5z M696.2,876.6h-19.9l0.5-8.2c-6.1,6.6-14.3,9.7-25,9.7
		c-13.2,0-21.9-8.7-21.9-21.4c0-19.4,15.3-30.6,41.8-30.6c3.1,0,6.1,0,9.7,0.5c1-2.5,1-3.6,1-5.1c0-5.1-4.1-7.1-15.3-7.1
		c-6.6,0-14.3,1-19.9,2l-3.1,1l-2,0.5l3.6-17.8c11.7-3.1,19.9-4.1,28.5-4.1c20.4,0,31.1,8.2,31.1,22.9c0,4.1-0.5,6.6-2,15.8l-5.1,28
		l-1,5.1l-0.5,4.1l-0.5,2.5V876.6"/>
	<path id="path636" class="payments-st3" d="M762.9,827.7c0-1.5,0.5-3.1,0.5-4.1c0-6.6-4.1-10.2-11.2-10.2c-7.6,0-13.2,5.1-15.3,14.3
		L762.9,827.7L762.9,827.7z M774.1,874.6c-8.2,2-16.3,3.1-24.5,3.1c-27,0-40.3-12.2-40.3-35.2c0-27,17.8-46.9,41.8-46.9
		c19.9,0,32.1,11.2,32.1,28.5c0,5.6-1,11.7-3.1,19.4h-47.4c-0.5,1-0.5,1.5-0.5,2.5c0,9.2,7.1,13.8,20.9,13.8c8.7,0,16.3-1.5,25-5.1
		L774.1,874.6"/>
	<path id="path638" class="payments-st3" d="M1004.4,831.3c0-8.2-3.6-16.3-13.2-16.3c-12.2,0-19.9,14.3-19.9,27c0,10.7,5.1,17.8,13.8,17.8
		c5.1,0,16.3-7.1,18.3-19.4C1003.9,837.9,1004.4,834.9,1004.4,831.3z M1028.4,840.5c-3.6,26.5-21.9,37.7-46.4,37.7
		c-27,0-37.7-16.3-37.7-36.2c0-28,18.3-46.9,46.9-46.9c25,0,37.7,15.8,37.7,35.7C1028.9,835.9,1028.9,835.9,1028.4,840.5"/>
	<path id="path640" class="payments-st4" d="M1036.5,864.4h1h0.5l0.5-0.5c0,0,0-0.5-0.5-0.5c0,0-0.5,0-1,0h-0.5V864.4L1036.5,864.4z
		 M1036.5,867.5h-1V862h2c0.5,0,1,0,1.5,0.5s0.5,1,0.5,1.5s-0.5,1-1,1.5l1,2.5h-1.5l-1-2h-1v1.5L1036.5,867.5L1036.5,867.5z
		 M1037.6,869.5c2.5,0,4.6-2,4.6-4.6c0-2.5-2-4.6-4.6-4.6c-2.5,0-4.6,2-4.6,4.6C1032.5,867.5,1035,869.5,1037.6,869.5z
		 M1030.9,864.4c0-3.6,3.1-6.1,6.1-6.1c3.6,0,6.1,2.5,6.1,6.1s-3.1,6.1-6.1,6.1C1034,871,1030.9,868,1030.9,864.4"/>
	<path id="path642" class="payments-st4" d="M624.8,871h-23.9l14.3-74.4L582.6,871h-21.5l-4.1-74.4L542.7,871h-21.3l18.3-96.8h37.2l1.5,60.1
		l26.5-60.1h38.7L624.8,871"/>
	<path id="path644" class="payments-st4" d="M890.8,870c-6.6,2-11.7,2.5-17.3,2.5c-12.2,0-18.9-6.1-18.9-17.3c0-2,0.5-4.6,0.5-7.1l1.5-7.6
		l1-6.1l11.2-60.1h23.4l-3.6,18.3h12.2l-3.6,19.4h-12l-6.1,33.1c-0.5,1.5-0.5,2.5-0.5,3.1c0,4.1,2.5,5.6,8.2,5.6
		c2.5,0,4.6,0,6.1-0.5L890.8,870"/>
	<path id="path646" class="payments-st3" d="M952.5,814.5L952,812l5.1-12.2c-1,0-1.5,0-1.5,0c-1.5-0.5-2-0.5-2-0.5c-0.5,0-1.5,0-2,0
		c-8.2,0-13.2,3.6-20.9,12.7l2.5-14.3h-25l-14.3,79h23.4c3.1-17.8,4.6-28.5,6.6-37.2c3.1-14.3,13.8-20.9,21.4-19.4
		c1,0,1.5,0,2.5,0.5l1.5,0.5L952.5,814.5"/>
	<path id="path648" class="payments-st4" d="M960.6,792.6c-2-1-2-1-2.5-1c-1-0.5-2-0.5-2-0.5c-1,0-1.5,0-2.5,0c-7.6,0-13.2,3.6-20.9,12.7
		l2-12.2h-21.5l-14.3,79h23.9c8.7-48.4,12.2-56.6,23.4-56.6c1,0,1.5,0,3.1,0l3.1,0.5L960.6,792.6"/>
	<path id="path650" class="payments-st4" d="M796.6,817c0,10.2,5.6,16.8,18.3,21.9c9.7,4.1,11.2,5.1,11.2,8.7c0,5.1-4.1,7.1-13.8,7.1
		c-7.6,0-13.8-1-21.4-3.1l-3.6,18.3h1l4.1,1c1.5,0.5,3.6,0.5,6.6,0.5c5.6,0.5,10.2,0.5,13.2,0.5c25.5,0,37.2-8.2,37.2-26.5
		c0-10.7-4.6-17.3-17.3-21.9c-10.2-4.1-11.2-5.1-11.2-8.7c0-4.1,4.1-6.6,11.7-6.6c4.6,0,11.2,0.5,17.3,1l3.6-18.3
		c-6.1-1-15.8-1.5-21.4-1.5C805.7,790,796.6,802.3,796.6,817"/>
	<path id="path652" class="payments-st4" d="M685,835.9c-2.5-0.5-3.6-0.5-5.6-0.5c-13.2,0-20.4,4.1-20.4,12.2c0,5.1,3.1,8.2,8.7,8.2
		C677.3,855.2,684.5,847.1,685,835.9L685,835.9z M702.3,871h-19.9l0.5-8.2c-6.1,6.6-14.3,9.7-25,9.7c-12.7,0-21.4-8.7-21.4-21.4
		c0-19.4,15.3-30.6,41.8-30.6c2.5,0,6.1,0,9.7,0.5c0.5-2.5,1-3.6,1-5.1c0-5.1-4.1-7.1-15.3-7.1c-6.6,0-14.8,1-19.9,2l-3.6,1l-2,0.5
		l3.1-17.8c11.7-3.1,19.9-4.1,28.5-4.1c20.4,0,31.1,8.2,31.1,22.9c0,4.1-0.5,6.6-1.5,15.8l-5.1,28l-1,5.1l-0.5,4.1l-0.5,2.5V871"/>
	<path id="path654" class="payments-st4" d="M768,822.1c0-1.5,0-3.1,0-4.1c0-6.6-4.1-10.2-11.2-10.2c-7.6,0-13.2,5.1-15.3,14.3L768,822.1
		L768,822.1z M780.2,869c-8.2,2-15.8,3.1-24.5,3.1c-27,0-40.8-12.2-40.8-35.2c0-27,17.8-46.9,41.8-46.9c19.9,0,32.1,11.2,32.1,28.5
		c0,5.6-1,11.7-3.1,19.4h-47.4c-0.5,1-0.5,1.5-0.5,2.5c0,9.2,7.1,13.8,20.9,13.8c8.7,0,16.3-1.5,25-5.1L780.2,869"/>
	<path id="path656" class="payments-st4" d="M1010,825.2c0-8.2-3.6-16.3-13.2-16.3c-12.2,0-19.9,14.3-19.9,27c0,10.7,5.1,17.8,13.8,17.8
		c5.1,0,16.3-7.1,18.3-19.4C1009.5,831.3,1010,828.2,1010,825.2z M1035,834.9c-3.6,26.5-21.9,37.7-46.4,37.7
		c-27,0-37.7-16.3-37.7-36.2c0-28,18.3-46.9,46.9-46.9c25,0,37.7,15.8,37.7,35.7C1035.5,830.3,1035.5,830.3,1035,834.9"/>
</g>
</svg>
