<?xml version="1.0" encoding="utf-8"?>
<!-- Generator: Adobe Illustrator 21.1.0, SVG Export Plug-In . SVG Version: 6.00 Build 0)  -->
<svg version="1.1" id="Layer_1" xmlns="http://www.w3.org/2000/svg" xmlns:xlink="http://www.w3.org/1999/xlink" x="0px" y="0px"
	 viewBox="0 0 1248 383.4" style="enable-background:new 0 0 1248 383.4;" xml:space="preserve">
<style type="text/css">
	.payments-st0{fill:#32599A;}
	.payments-st1{fill:#E3A330;}
</style>
<g>
	<g>
		<polygon class="payments-st0" points="439.3,378.1 502.3,7 603.3,7 540.1,378.1 		"/>
		<g>
			<path class="payments-st0" d="M906.3,16.1c-20-7.5-51.3-15.6-90.5-15.6c-99.7,0-170,50.3-170.6,122.5c-0.6,53.3,50.2,83.1,88.5,100.8
				c39.3,18.2,52.5,29.8,52.4,46c-0.3,24.9-31.4,36.2-60.4,36.2c-40.4,0-61.8-5.6-95-19.5l-13-5.9l-14.2,83.1
				c23.6,10.4,67.2,19.3,112.5,19.8c106.1,0,175-49.7,175.8-126.8c0.4-42.2-26.5-74.3-84.7-100.8c-35.3-17.2-56.9-28.6-56.7-46
				c0-15.4,18.3-31.9,57.8-31.9c33-0.5,56.9,6.7,75.5,14.2l9.1,4.3L906.3,16.1z"/>
			<path class="payments-st0" d="M1165.2,7.4h-78c-24.2,0-42.3,6.6-52.9,30.8L884.4,378.2h106c0,0,17.3-45.7,21.2-55.8
				c11.6,0,114.5,0.2,129.3,0.2c3,13,12.3,55.6,12.3,55.6h93.7L1165.2,7.4z M1040.7,246.6c8.4-21.4,40.2-103.8,40.2-103.8
				c-0.6,1,8.3-21.5,13.4-35.4l6.8,32c0,0,19.3,88.6,23.4,107.2H1040.7z"/>
			<path class="payments-st0" d="M354.6,7.3l-98.9,253.1l-10.6-51.4c-18.4-59.3-75.7-123.6-139.8-155.7l90.4,324.6l106.8-0.1L461.5,7.3H354.6
				z"/>
			<path class="payments-st1" d="M164.1,7H1.2L0,14.8c126.6,30.7,210.4,105,245.2,194.2L209.8,38.4C203.7,14.9,186,7.9,164.1,7"/>
		</g>
	</g>
</g>
</svg>
