<?xml version="1.0" encoding="utf-8"?>
<!-- Generator: Adobe Illustrator 19.1.0, SVG Export Plug-In . SVG Version: 6.00 Build 0)  -->
<svg version="1.1" id="Layer_1" xmlns="http://www.w3.org/2000/svg" xmlns:xlink="http://www.w3.org/1999/xlink" x="0px" y="0px"
	 width="640px" height="385.3px" viewBox="-439 203.9 640 385.3" style="enable-background:new -439 203.9 640 385.3;"
	 xml:space="preserve">
<style type="text/css">
	.payments-st0{display:none;}
	.payments-st1{display:inline;fill:#FFFFFF;}
	.payments-st2{fill:#002856;}
	.payments-st3{fill:#CF0A2C;}
	.payments-st4{fill:#007078;}
</style>
<g id="Bg" class="payments-st0">
	<path class="payments-st1" d="M-34,455h-170c-8.2,0-15-6.8-15-15v-87c0-8.2,6.8-15,15-15h170c8.2,0,15,6.8,15,15v87
		C-19,448.2-25.8,455-34,455z"/>
</g>
<g id="Logo">
	<g>
		<g>
			<path class="payments-st2" d="M-402,239.9v-13.7c11,0.9,23.7,1.4,40.2,1.4c3.2-7.8,5-15.5,5.9-23.7c4.6,1.4,12.8,3.2,16,3.7
				c3.2,0.5,4.1,1.4,0,4.1c-0.9,0.9-2.3,2.7-8.7,15.5c28.3,0,51.1-0.5,67.1-1.4v13.7c-17.3-1.4-42.9-1.8-72.6-1.4
				c-5,10.5-12.8,21.9-22.4,33.3v42c0,6.8,0,13.2,0.9,26.5h-13.7c0.5-13.2,0.9-20.1,0.9-26.5v-28.8c-5,5-10,9.6-15.1,14.2
				c-4.1-5-7.8-7.8-11-9.1c9.6-5.9,18.3-13.2,26-21.5c-0.5-5-0.9-9.1-1.4-11c4.1,0.9,7.3,0.9,10,0.9c5-6.4,9.1-13.2,12.8-20.1
				C-381,238.6-392,239-402,239.9z M-288.4,273.2v13.7c-8.2-0.9-18.3-1.4-32.9-1.4v37c17.8,0,29.7-0.5,40.2-1.4v13.7
				c-11.4-0.9-24.7-1.4-45.2-1.4s-34.2,0.5-45.2,1.4v-13.7c10,0.9,21.5,1.4,38.3,1.4v-37c-13.2,0.5-22.4,0.9-30.1,1.8v-14.2
				c8.2,0.9,16.9,1.4,30.1,1.4c0-15.1-0.5-24.7-1.4-28.3c4.6,0.9,9.6,1.4,15.1,1.4c2.3,0,2.7,0.9,0.5,2.3c-1.4,0.9-1.8,3.7-1.8,5.5
				v19.2C-306.6,274.6-296.6,274.2-288.4,273.2z"/>
			<path class="payments-st2" d="M-246.8,265c-5,0.9-9.1,2.3-11.9,2.7c0-2.7-1.8-9.1-3.7-11.9c6.4-2.3,20.1-25.1,27.8-50.2
				c4.6,2.7,10.5,5,13.7,5.5c2.7,0.5,2.7,2.7,0.5,3.7c-4.6,1.8-7.8,5.9-26.9,40.2l20.1-3.2c5-9.1,6.8-12.8,8.2-18.7
				c5.9,3.7,9.6,5,13.7,6.4c2.3,0.5,2.3,2.7-0.5,3.7c-0.9,0.5-2.3,0.9-4.6,4.1c7.3,0,11-0.5,21-2.3c-0.5-11.9-0.5-25.6-0.9-38.8
				c4.6,0.9,10.5,1.4,14.6,1.4c2.3,0,3.2,1.4,1.4,3.7c-0.9,0.9-2.3,5-2.7,7.8c-0.5,6.4-0.5,17.3-0.9,24.2c16.4-3.7,33.3-7.8,42-10
				l2.3,11.4c-9.6,1.4-27.4,4.6-43.8,8.2c0.5,5.9,0.9,11.4,1.8,16.9c17.3-3.7,35.1-7.8,44.3-10l2.3,11.4c-9.6,1.4-27.8,5-45.2,8.2
				c1.8,8.7,4.1,16.4,7.3,22.8c6.8-6.4,14.2-15.1,17.8-21.5c4.6,3.7,10.5,7.3,11.9,7.8c1.8,0.9,1.8,2.7,0,2.7
				c-2.3,0-9.1,5.9-15.1,12.8c-1.8,2.3-5,5-8.7,8.7c4.1,5.5,8.7,9.6,14.2,13.2c5,3.7,6.4,3.2,8.2-13.7c3.7,5.5,9.1,8.2,13.2,8.7
				c-7.3,23.3-10.5,26-20.5,20.5c-11.4-5.9-17.8-11.9-24.2-21.5c-9.6,7.8-21.9,16-34.2,21.9c-1.8-3.7-5-7.8-9.1-11
				c11.4-3.2,16.9-5.9,37-21.5c-4.1-7.8-7.3-16.9-9.6-27.4c-9.6,2.3-14.6,3.2-21.9,5.5l-2.3-11.9c7.8-1.4,12.3-1.8,22.4-3.7
				c-0.5-5-1.4-10.5-1.4-16.4c-8.7,2.3-12.8,3.2-19.6,5.5l-2.7-11.4c-4.6,5.9-12.3,17.8-28.3,42c10.5-0.9,21.5-2.7,29.7-5
				c-0.9,3.7-0.9,6.4,0,10.5l-27.8,4.6c-10,1.8-13.2,2.3-16,3.7c0-4.1-1.8-10.5-4.1-13.7c6.8-2.7,12.3-7.3,25.1-28.3L-246.8,265z
				 M-209.4,320.3c-27.8,5.9-38.3,9.6-47,14.2c-0.9-5-1.4-8.2-4.6-15.1c8.7,0,21-2.3,51.1-10.5C-210.8,312-210.3,317.1-209.4,320.3z
				 M-156.4,233.5c-2.7-4.6-5.9-10-10.5-15.5l11.9-5.9c4.1,5.9,7.8,11,10.5,14.6L-156.4,233.5z"/>
			<path class="payments-st2" d="M-90.7,274.6v-12.8c9.6,0.5,27.8,0.9,41.5,0.9v-21c-25.1,0-41.1,0.5-55.7,1.4v-13.2
				c14.2,0.9,31,1.4,55.7,1.4c0-12.3-0.5-20.5-1.4-23.3c5.9,1.4,10.5,1.4,15.5,0.9c3.2-0.5,3.7,1.4,0.9,3.2c-1.8,0.9-2.3,2.3-2.3,5
				v14.2c25.6,0,42.5-0.5,57.1-1.4v13.2c-14.6-0.9-31.5-1.4-57.1-1.4v21c13.2,0,29.7-0.9,38.8-1.4c-8.7,24.2-21,38.3-35.1,50.7
				c14.2,7.8,33.8,11.9,55.2,11.4c-3.2,5-5.9,11.9-6.8,17.3c-21-3.7-41.1-10.5-58.4-21.5c-13.7,8.7-37.9,19.2-57.5,24.2
				c-2.3-4.6-6.4-10-10.5-14.6c21-0.9,44.3-9.6,58-16.9c-10-9.1-20.1-22.8-26-37.9C-82.5,274.2-86.6,274.2-90.7,274.6z M-42.8,304.7
				c12.3-10,21.9-21.5,26-32H-66C-60.1,285.1-52.4,296.1-42.8,304.7z"/>
			<path class="payments-st2" d="M46.2,285.6c-1.8-3.7-5-7.3-9.1-9.6c7.3-9.1,16.4-24.7,21.9-37c4.6-10,8.7-23.3,11-31c5,2.7,10,4.1,13.2,5
				c3.2,0.5,3.7,1.8,0.5,4.6c-0.9,0.5-5.9,8.7-10,16.9V344H59.9c0.9-8.7,1.8-21.5,1.8-32.4v-53.4C54.9,271,51.3,277.4,46.2,285.6z
				 M153.5,327.1c0,12.3-2.3,14.2-26.9,16.9c-0.5-3.7-2.7-10.5-6.4-16c16.4,1.8,21-0.9,21-6.4v-68.5c-27.8,0-44.7,0.5-54.8,1.4
				v-14.6c9.1,0.9,26.9,1.4,54.8,1.4c0-12.3-0.9-28.3-1.4-33.3c5,0.9,11,1.4,13.2,1.4c3.2,0,3.7,0.9,2.3,2.7
				c-0.9,0.9-1.4,8.2-1.4,11.4v17.8c9.1,0,15.5-0.5,22.4-1.4V255c-6.4-0.9-12.8-1.4-22.4-1.4v73.5H153.5z M110.2,301.5
				c-3.2-11-9.1-22.4-14.2-29.2l13.2-5.9c4.6,8.7,10.5,20.5,14.2,28.8L110.2,301.5z"/>
		</g>
		<g>
			<path class="payments-st2" d="M-402.5,433c-4.1,0-7.8-0.9-11-3.2c-3.2-1.8-5.5-4.6-7.3-8.2c-1.8-3.7-2.7-7.8-2.7-12.3
				c0-3.7,0-8.2,1.4-13.2c0.9-5.5,2.7-10,5-14.2c2.3-4.1,5.5-7.8,8.7-10c4.6-3.7,10-5,16-5c6.4,0,11.4,2.3,15.1,6.4
				c3.7,4.1,5.5,10,5.9,17.3c0,3.2,0,7.3-0.9,11.9c-0.9,5-2.3,9.1-4.1,13.2c-1.8,4.1-4.6,7.8-7.3,10.5
				C-389.2,430.7-395.2,433-402.5,433z M-379.7,391.9c0-5.9-0.9-10.5-3.2-13.7c-2.3-3.2-5.5-5-10-5c-4.1,0-7.8,0.9-10.5,3.2
				c-3.2,2.3-5.9,5.5-7.8,10s-3.2,10-3.7,16.9v2.7c0,5.9,0.9,10.5,3.2,13.7c2.3,3.2,5.5,5,10,5c5.5,0,10.5-1.8,14.2-5.9
				c3.7-4.1,5.9-10,7.3-17.8C-380.1,397.9-379.7,394.7-379.7,391.9z"/>
			<path class="payments-st2" d="M-350,383.7l-1.4,5.9c4.6-4.6,9.1-7.3,14.6-6.8c4.6,0,7.8,1.8,10,4.6c2.3,2.7,3.2,7.3,2.3,12.8l-5.5,31.5
				h-8.2l5.5-31.5c0-1.4,0-2.7,0-4.1c-0.5-4.1-2.7-6.4-7.3-6.4c-5,0-9.1,2.3-12.8,7.8l-5.9,34.2h-8.2l8.2-48.4L-350,383.7z"/>
			<path class="payments-st2" d="M-308,432.1h-8.2l11.9-68.5h8.2L-308,432.1z"/>
			<path class="payments-st2" d="M-286.1,432.1h-8.2l8.2-48.4h8.2L-286.1,432.1z M-279.7,365.9c1.4,0,2.3,0.5,3.2,1.4
				c0.9,0.9,1.4,1.8,1.4,3.7c0,1.4-0.5,2.7-1.4,3.7c-0.9,0.9-1.8,1.4-3.2,1.4c-1.4,0-2.7-0.5-3.7-1.4c-0.9-0.9-1.4-1.8-1.4-3.2
				c0-1.4,0.5-2.7,1.4-3.7C-282,366.8-281.1,366.4-279.7,365.9z"/>
			<path class="payments-st2" d="M-256.9,383.7l-1.4,5.9c4.6-4.6,9.1-7.3,14.6-6.8c4.6,0,7.8,1.8,10,4.6c2.3,3.2,3.2,7.3,2.3,12.8l-5.5,31.5
				h-8.2l5.5-31.5c0-1.4,0-2.7,0-4.1c-0.5-4.1-2.7-6.4-7.3-6.4c-5,0-9.1,2.3-12.8,7.8l-5.5,34.7h-8.2l8.2-48.4L-256.9,383.7z"/>
			<path class="payments-st2" d="M-203,433c-5.9,0-10.5-2.3-14.2-6.8c-3.2-4.1-5-10-4.1-16.4v-1.8c0.5-4.6,1.8-9.1,4.1-13.2
				c2.3-4.1,5-6.8,8.7-9.1c3.2-1.8,6.8-2.7,11-2.7c5,0,8.7,1.8,11.9,5c2.7,3.2,4.6,7.3,4.6,12.8c0,1.8,0,3.7,0,5.9l-0.5,3.7H-213
				c-0.5,4.6,0,8.2,2.3,11c1.8,3.2,5,4.6,8.7,4.6c4.6,0,9.1-1.8,13.2-6.4l4.6,4.1c-1.8,2.7-4.6,5-7.8,6.8
				C-195.2,432.1-198.9,433-203,433z M-197.5,389.7c-3.2,0-6.4,0.9-8.7,3.2c-2.3,2.3-4.6,5.9-5.9,10.5h23.3v-0.9
				c0.5-3.7,0-6.8-1.8-9.1C-192,391-194.8,389.7-197.5,389.7z"/>
			<path class="payments-st2" d="M-140,406.5l-4.6,25.6h-8.2l11.4-65.3h21.5c6.8,0,11.9,1.8,15.5,5.5s5,8.2,4.6,14.2
				c-0.5,6.4-3.2,11-7.3,14.6c-4.6,3.7-10,5.5-17.3,5.5H-140z M-138.6,399.7h14.6c4.6,0,8.2-1.4,11.4-3.7c2.7-2.3,4.6-5.5,5-9.6
				c0.5-3.7-0.5-6.8-2.3-9.1c-1.8-2.3-5-3.7-8.7-3.7h-15.5L-138.6,399.7z"/>
			<path class="payments-st2" d="M-68.8,432.1c0-0.9-0.5-1.8-0.5-2.7v-2.7c-4.6,4.1-9.1,5.9-14.2,5.9c-4.1,0-7.8-1.4-10.5-4.1
				c-2.7-2.7-3.7-5.9-3.7-10c0.5-5,2.7-9.1,6.8-11.9c4.1-2.7,9.6-4.1,16.4-4.1h8.2l0.5-3.7c0.5-2.7-0.5-5-1.8-6.8
				c-1.4-1.8-3.7-2.7-6.4-2.7s-5,0.5-7.3,1.8c-2.3,1.4-3.7,3.2-4.1,5.5h-8.2c0.5-2.7,1.4-5.5,3.2-7.3c1.8-2.3,4.6-3.7,7.3-5
				c3.2-1.4,6.4-1.8,9.6-1.8c5,0,9.1,1.8,11.9,4.6c2.7,2.7,4.1,6.8,3.7,11.9l-4.1,23.7v3.7c0,1.8,0,3.2,0.5,5v0.9
				C-61.5,432.1-68.8,432.1-68.8,432.1z M-81.1,425.7c2.7,0,5-0.5,7.3-1.8c2.3-1.4,4.1-3.2,5.9-5.5l1.8-10H-72
				c-5,0-9.1,0.9-11.9,2.3c-2.7,1.8-4.1,3.7-4.6,6.8c-0.5,2.3,0.5,4.1,1.4,5.5C-85.7,424.8-83.9,425.7-81.1,425.7z"/>
			<path class="payments-st2" d="M-32.7,419.8l17.3-36.1h9.1l-29.2,56.1c-4.1,7.8-9.1,11.9-15.5,11.4c-0.9,0-2.7-0.5-5-0.9l0.9-6.8h2.3
				c2.7,0,4.6-0.5,6.8-1.8c1.8-1.4,3.7-3.2,5-5.9l2.7-5.5l-8.2-47h8.2L-32.7,419.8z"/>
			<path class="payments-st2" d="M8.4,383.7l-0.9,5.5c4.1-4.1,9.1-6.4,14.6-6.4c3.2,0,5.5,0.9,7.8,2.3s3.7,3.2,4.6,5.5c4.6-5.5,10-7.8,16-7.8
				c5,0,8.2,1.8,10.5,5c2.3,3.2,3.2,7.3,2.7,12.8l-5.5,31.5h-8.2l5.5-32c0-1.4,0-2.7,0-4.1c-0.5-4.1-3.2-5.9-7.8-6.4
				c-2.7,0-5.5,0.9-8.2,2.7c-2.3,1.8-4.1,4.6-4.6,7.3l-5.5,32h-8.2l5.5-32c0.5-3.2,0-5.9-1.4-7.8c-1.4-1.8-3.7-2.7-6.4-2.7
				c-5,0-9.1,2.3-11.9,6.8l-5.9,35.1h-8.2l8.2-48.4L8.4,383.7z"/>
			<path class="payments-st2" d="M91,433c-5.9,0-10.5-2.3-14.2-6.8c-3.2-4.1-5-10-4.1-16.4v-1.8c0.5-4.6,1.8-9.1,4.1-13.2
				c2.3-4.1,5-6.8,8.7-9.1c3.2-1.8,6.8-2.7,11-2.7c5,0,8.7,1.8,11.9,5c2.7,3.2,4.6,7.3,4.6,12.8c0,1.8,0,3.7,0,5.9l-0.5,3.7H80.9
				c-0.5,4.6,0,8.2,2.3,11c1.8,3.2,5,4.6,8.7,4.6c4.6,0,9.1-1.8,13.2-6.4l4.6,4.1c-1.8,2.7-4.6,5-7.8,6.8
				C98.7,432.1,95.1,433,91,433z M96.5,389.7c-3.2,0-6.4,0.9-8.7,3.2c-2.3,2.3-4.6,5.9-5.9,10.5h23.3v-0.9c0.5-3.7,0-6.8-1.8-9.1
				C101.5,391,99.2,389.7,96.5,389.7z"/>
			<path class="payments-st2" d="M133.9,383.7l-1.4,5.9c4.6-4.6,9.1-7.3,14.6-6.8c4.6,0,7.8,1.8,10,4.6c2.3,3.2,3.2,7.3,2.3,12.8l-5.5,31.5
				h-8.2l5.5-31.5c0-1.4,0-2.7,0-4.1c-0.5-4.1-2.7-6.4-7.3-6.4c-5,0-9.1,2.3-12.8,7.8l-5.9,34.2H117l8.2-48.4L133.9,383.7z"/>
			<path class="payments-st2" d="M188.2,371.8l-2.3,11.9h8.7l-0.9,6.4H185l-5,30.1c0,0.9,0,1.4,0,2.3c0,2.3,1.4,3.7,3.7,3.7
				c0.9,0,2.3,0,4.1-0.5l-0.5,6.8c-1.8,0.5-4.1,0.9-5.9,0.9c-3.2,0-5.5-1.4-7.3-3.7c-1.8-2.3-2.3-5.5-1.8-9.1l5-29.7h-8.7l0.9-6.4
				h8.7l2.3-11.9h7.8V371.8z"/>
		</g>
		<path class="payments-st3" d="M-190.2,589.1H-413c-14.2,0-26-11.9-26-26v-53.4c0-14.2,11.9-26,26-26h222.3c14.2,0,26,11.9,26,26v53.4
			C-164.6,577.3-176.1,589.1-190.2,589.1z"/>
		<path class="payments-st2" d="M-23.6,589.1h-222.3c-14.2,0-26-11.9-26-26v-53.4c0-14.2,11.9-26,26-26h222.3c14.2,0,26,11.9,26,26v53.4
			C2.4,577.3-9.4,589.1-23.6,589.1z"/>
		<path class="payments-st4" d="M175,589.1H-47.3c-14.2,0-26-11.9-26-26v-53.4c0-14.2,11.9-26,26-26H175c14.2,0,26,11.9,26,26v53.4
			C200.5,577.3,189.1,589.1,175,589.1z"/>
	</g>
</g>
</svg>
