<?xml version="1.0" encoding="utf-8"?>
<!-- Generator: Adobe Illustrator 19.1.0, SVG Export Plug-In . SVG Version: 6.00 Build 0)  -->
<svg version="1.1"
	 id="svg15931" inkscape:version="0.48.3.1 r9886" sodipodi:docname="New document 22" xmlns:inkscape="http://www.inkscape.org/namespaces/inkscape" xmlns:cc="http://creativecommons.org/ns#" xmlns:dc="http://purl.org/dc/elements/1.1/" xmlns:svg="http://www.w3.org/2000/svg" xmlns:rdf="http://www.w3.org/1999/02/22-rdf-syntax-ns#" xmlns:sodipodi="http://sodipodi.sourceforge.net/DTD/sodipodi-0.dtd"
	 xmlns="http://www.w3.org/2000/svg" xmlns:xlink="http://www.w3.org/1999/xlink" x="0px" y="0px" width="640px" height="192.1px"
	 viewBox="-468.3 396.6 640 192.1" style="enable-background:new -468.3 396.6 640 192.1;" xml:space="preserve">
<style type="text/css">
	.payments-st0{fill:#F7931A;}
	.payments-st1{fill:#FFFFFF;}
	.payments-st2{fill:#4D4D4D;}
</style>
<sodipodi:namedview  fit-margin-right="0" inkscape:pageopacity="0.0" inkscape:document-units="px" inkscape:pageshadow="2" inkscape:window-x="36" inkscape:current-layer="layer1" inkscape:window-y="331" fit-margin-bottom="0" inkscape:window-maximized="0" inkscape:window-width="483" inkscape:window-height="421" showgrid="false" inkscape:cy="-153.92585" fit-margin-left="0" fit-margin-top="0" bordercolor="#666666" pagecolor="#ffffff" inkscape:zoom="0.35" borderopacity="1.0" inkscape:cx="471.62349" id="base">
	</sodipodi:namedview>
<g id="layer1" transform="translate(96.623487,-332.00233)" inkscape:label="Layer 1" inkscape:groupmode="layer">
	<g id="g8298" transform="translate(-530.21048,195.47933)">
		<g id="g8300">
			<g id="g8302">
				<g id="g8304">

						<circle id="circle8306" sodipodi:rx="15.994" sodipodi:cy="152.519" sodipodi:ry="15.994" sodipodi:cx="449.58099" class="payments-st0" cx="32" cy="599.8" r="66.7">
					</circle>
					<g id="g8308">
						<g id="g8310">
							<path id="path8312" inkscape:connector-curvature="0" class="payments-st1" d="M61.5,590.2c1.4-9-5.5-13.6-14.7-16.8l3-12l-7.4-1.8
								l-3,11.7c-1.8-0.5-3.9-0.9-6-1.4l3-11.7l-7.4-1.8l-3,12c-1.6-0.5-3.2-0.7-4.6-1.2l0,0l-10.1-2.5l-1.8,7.8
								c0,0,5.5,1.2,5.3,1.4c3,0.7,3.5,2.8,3.5,4.4L14.8,592c0.2,0,0.5,0.2,0.7,0.2c-0.2,0-0.5-0.2-0.7-0.2l-4.8,19.3
								c-0.5,0.9-1.4,2.3-3.5,1.8l-5.3-1.4l-3.7,8.3l9.4,2.3c1.8,0.5,3.5,0.9,5.3,1.4l-3,12.2l7.4,1.8l3-12c2.1,0.5,3.9,1.2,5.8,1.6
								l-3,12l7.4,1.8l3-12.2c12.4,2.3,21.9,1.4,25.8-9.9c3.2-9.2-0.2-14.3-6.7-17.7C56.9,599.8,60.5,596.8,61.5,590.2L61.5,590.2z
								 M44.7,613.6c-2.3,9.2-17.5,4.1-22.5,3l3.9-16.1C31.1,601.7,47,604.2,44.7,613.6L44.7,613.6z M47,590.2
								c-2.1,8.3-14.7,4.1-18.9,3l3.7-14.7C35.7,579.6,49,581.4,47,590.2z"/>
						</g>
					</g>
				</g>
			</g>
			<g id="g8314">
				<path id="path8316" inkscape:connector-curvature="0" class="payments-st2" d="M160.8,573.4c5.5,0,10.1,0.9,14,3c3.9,1.8,7.1,4.6,9.9,7.8
					c2.5,3.2,4.6,7.1,5.8,11.5c1.2,4.4,1.8,9.2,1.8,14.3c0,7.8-1.4,15.2-4.4,22.1c-3,6.9-6.7,12.9-11.7,18.2
					c-5.1,5.1-10.8,9.2-17.5,12.2c-6.7,3-14,4.4-21.9,4.4c-0.9,0-2.8,0-5.3,0c-2.5,0-5.5-0.2-8.7-0.7c-3.2-0.5-6.7-1.2-10.4-2.1
					s-7.1-2.1-10.4-3.7l29.2-122.8l26.2-4.1L147,577c2.3-0.9,4.6-1.8,6.7-2.3C156,573.6,158.3,573.4,160.8,573.4L160.8,573.4z
					 M139,645.8c3.9,0,7.6-0.9,11-3c3.5-1.8,6.4-4.4,9-7.6c2.5-3.2,4.6-6.9,6-10.8c1.4-4.1,2.3-8.3,2.3-12.7c0-5.5-0.9-9.7-2.8-12.7
					c-1.8-3-5.1-4.6-9.9-4.6c-1.6,0-3.7,0.2-6.2,0.9c-2.5,0.7-4.8,1.8-6.9,3.5l-11,46.2c0.7,0,1.4,0.2,1.8,0.2
					c0.5,0,1.2,0.2,1.6,0.2c0.7,0,1.2,0,2.1,0C136.7,645.8,137.6,645.8,139,645.8L139,645.8z"/>
				<path id="path8318" inkscape:connector-curvature="0" class="payments-st2" d="M219.5,664.2h-25.1l21.2-89h25.3L219.5,664.2L219.5,664.2z
					 M231.7,564.4c-3.5,0-6.7-1.2-9.4-3.2c-2.8-2.1-4.1-5.3-4.1-9.7c0-2.3,0.5-4.6,1.4-6.7c0.9-2.1,2.3-3.9,3.9-5.5
					c1.6-1.6,3.5-2.8,5.5-3.7c2.1-0.9,4.4-1.4,6.7-1.4c3.5,0,6.7,1.2,9.4,3.2c2.8,2.1,4.1,5.3,4.1,9.7c0,2.3-0.5,4.6-1.4,6.7
					c-0.9,2.1-2.3,3.9-3.9,5.5s-3.5,2.8-5.5,3.7S234,564.4,231.7,564.4L231.7,564.4z"/>
				<path id="path8320" inkscape:connector-curvature="0" class="payments-st2" d="M262.8,553.1L289,549l-6.4,26.2h28.1l-5.1,20.7h-27.8
					l-7.4,31.1c-0.7,2.5-1.2,5.1-1.2,7.4c-0.2,2.3,0.2,4.1,0.9,5.8s1.8,3,3.7,3.7c1.8,0.9,4.1,1.4,7.6,1.4c2.8,0,5.3-0.2,7.8-0.7
					c2.5-0.5,5.1-1.2,7.6-2.1l1.8,19.3c-3.5,1.2-7.1,2.3-11,3.2c-3.9,0.9-8.7,1.4-14,1.4c-7.8,0-13.8-1.2-18.2-3.5s-7.4-5.5-9.2-9.4
					c-1.8-3.9-2.5-8.5-2.3-13.8c0.2-5.3,0.9-10.6,2.3-16.3L262.8,553.1L262.8,553.1z"/>
				<path id="path8322" inkscape:connector-curvature="0" class="payments-st2" d="M309.5,628.6c0-7.6,1.2-15,3.7-21.6
					c2.5-6.7,6-12.7,10.6-17.7c4.6-5.1,10.1-9,16.8-12c6.7-3,14-4.4,22.1-4.4c5.1,0,9.7,0.5,13.6,1.4c3.9,0.9,7.6,2.3,10.8,3.9
					l-8.7,19.6c-2.3-0.9-4.6-1.6-6.9-2.5c-2.5-0.7-5.3-1.2-9-1.2c-8.3,0-15,3-19.8,8.5c-4.8,5.8-7.4,13.6-7.4,23.2
					c0,5.8,1.2,10.4,3.7,14c2.5,3.5,7.1,5.3,13.8,5.3c3.2,0,6.4-0.2,9.4-0.9c3-0.7,5.8-1.6,8.1-2.5l1.8,20
					c-3.2,1.2-6.7,2.3-10.6,3.2c-3.9,0.9-8.5,1.4-13.8,1.4c-6.9,0-12.9-0.9-17.7-3c-4.8-2.1-8.7-4.8-12-8.3
					c-3.2-3.5-5.5-7.6-6.9-12.2C310.1,638.5,309.5,633.6,309.5,628.6L309.5,628.6z"/>
				<path id="path8324" inkscape:connector-curvature="0" class="payments-st2" d="M420.6,666.5c-6,0-11.3-0.9-15.6-2.8
					c-4.4-1.8-8.1-4.4-10.8-7.6c-3-3.2-5.1-7.1-6.4-11.5c-1.4-4.4-2.1-9.4-2.1-14.7c0-6.7,1.2-13.6,3.2-20.2
					c2.3-6.7,5.5-12.9,9.7-18.2c4.4-5.5,9.4-9.9,15.6-13.3c6.2-3.5,13.3-5.1,21.4-5.1c5.8,0,11,0.9,15.4,2.8c4.4,1.8,8.1,4.4,11,7.6
					c2.8,3.2,5.1,7.1,6.4,11.5c1.4,4.4,2.3,9.4,2.3,14.7c0,6.7-1.2,13.6-3.2,20.2s-5.3,12.9-9.4,18.2c-4.1,5.5-9.4,9.9-15.6,13.3
					C436.2,664.9,428.9,666.5,420.6,666.5L420.6,666.5z M433.2,594.1c-3.7,0-6.9,1.2-9.9,3.2c-2.8,2.1-5.3,4.8-7.1,8.1
					s-3.5,6.9-4.4,10.8c-0.9,3.9-1.4,7.6-1.4,11c0,5.8,0.9,10.1,2.8,13.1c1.8,3.2,5.1,4.8,9.9,4.8c3.7,0,6.9-1.2,9.9-3.2
					c2.8-2.1,5.1-4.8,7.1-8.1c1.8-3.2,3.5-6.9,4.4-10.8c0.9-3.9,1.4-7.6,1.4-11c0-5.5-0.9-10.1-2.8-13.1
					C441.3,595.7,437.8,594.1,433.2,594.1L433.2,594.1z"/>
				<path id="path8326" inkscape:connector-curvature="0" class="payments-st2" d="M497.9,664.2h-25.1l21.2-89h25.3L497.9,664.2L497.9,664.2z
					 M510.1,564.4c-3.5,0-6.7-1.2-9.4-3.2c-2.8-2.1-4.1-5.3-4.1-9.7c0-2.3,0.5-4.6,1.4-6.7c0.9-2.1,2.3-3.9,3.9-5.5
					c1.6-1.6,3.5-2.8,5.5-3.7c2.1-0.9,4.4-1.4,6.7-1.4c3.5,0,6.7,1.2,9.4,3.2c2.8,2.1,4.1,5.3,4.1,9.7c0,2.3-0.5,4.6-1.4,6.7
					c-0.9,2.1-2.3,3.9-3.7,5.5c-1.6,1.6-3.5,2.8-5.5,3.7C514.7,563.9,512.6,564.4,510.1,564.4L510.1,564.4z"/>
				<path id="path8328" inkscape:connector-curvature="0" class="payments-st2" d="M537.2,579.3c1.8-0.5,3.9-1.2,6.4-1.8
					c2.3-0.7,4.8-1.4,7.8-2.1c2.8-0.7,6-1.2,9.7-1.6c3.5-0.5,7.6-0.7,12.2-0.7c13.1,0,22.3,3.9,27.4,11.5c5.1,7.6,6,18.2,2.5,31.5
					l-11.5,48.1h-25.1l11-46.9c0.7-3,1.2-5.8,1.6-8.5s0.5-5.1,0-7.4c-0.5-2.1-1.4-3.7-3.2-5.1c-1.6-1.4-4.1-1.8-7.6-1.8
					c-3.2,0-6.7,0.5-9.9,0.9l-16.3,68.8H517L537.2,579.3L537.2,579.3z"/>
			</g>
		</g>
		<g id="g8330">
			<path id="path8332" inkscape:connector-curvature="0" class="payments-st2" d="M234.9,715.5l-4.8,9h-5.3c3.7-6.7,7.4-12.9,11-18.6
				c3.5-5.8,7.1-11,10.6-16.1h4.8c0.5,2.5,0.9,5.1,1.4,7.6c0.5,2.5,0.9,5.3,1.2,8.1c0.5,2.8,0.7,5.8,1.2,9c0.5,3.2,0.7,6.4,1.2,10.1
				h-4.8c-0.2-1.6-0.2-3-0.5-4.6s-0.2-3-0.5-4.4L234.9,715.5L234.9,715.5z M249.6,711.6c-0.2-2.8-0.7-5.3-0.9-8.1
				c-0.5-2.8-0.7-5.5-1.2-8.3c-1.2,1.6-2.5,3.9-4.4,6.7c-1.8,2.8-3.7,6-6,9.7H249.6L249.6,711.6z"/>
			<path id="path8334" inkscape:connector-curvature="0" class="payments-st2" d="M273.6,725.2c-2.1,0-4.1-0.2-5.8-0.9s-3-1.6-4.1-2.8
				s-1.8-2.5-2.5-4.1c-0.5-1.6-0.9-3.5-0.9-5.5c0-3,0.5-6,1.4-8.5c0.9-2.8,2.3-5.1,4.1-7.4c1.8-2.1,3.9-3.7,6.4-5.1
				c2.5-1.2,5.3-1.8,8.3-1.8c2.5,0,4.6,0.2,6.2,0.7c1.6,0.5,2.8,1.2,3.2,1.6l-2.1,3.9c-0.7-0.5-1.8-0.9-3.2-1.4
				c-1.4-0.5-3-0.7-4.6-0.7c-2.3,0-4.4,0.5-6.2,1.6c-1.8,1.2-3.5,2.5-4.6,4.1c-1.4,1.6-2.3,3.7-3,5.8c-0.7,2.1-0.9,4.4-0.9,6.4
				c0,6.4,2.8,9.7,8.5,9.7c1.2,0,2.3,0,3.2-0.2c0.9-0.2,1.8-0.5,2.5-0.7c0.7-0.2,1.4-0.5,1.8-0.7c0.5-0.2,1.2-0.5,1.6-0.7l0.7,4.1
				c-0.5,0.2-0.9,0.5-1.6,0.7c-0.7,0.2-1.4,0.5-2.3,0.7c-0.9,0.2-1.8,0.5-3,0.7C276.1,725,275,725.2,273.6,725.2L273.6,725.2z"/>
			<path id="path8336" inkscape:connector-curvature="0" class="payments-st2" d="M301.9,725.2c-2.1,0-4.1-0.2-5.8-0.9s-3-1.6-4.1-2.8
				s-1.8-2.5-2.5-4.1c-0.5-1.6-0.9-3.5-0.9-5.5c0-3,0.5-6,1.4-8.5c0.9-2.8,2.3-5.1,4.1-7.4c1.8-2.1,3.9-3.7,6.4-5.1
				c2.5-1.2,5.3-1.8,8.3-1.8c2.5,0,4.6,0.2,6.2,0.7s2.8,1.2,3.2,1.6l-2.1,3.9c-0.7-0.5-1.8-0.9-3.2-1.4c-1.4-0.5-3-0.7-4.6-0.7
				c-2.3,0-4.4,0.5-6.2,1.6c-1.8,1.2-3.5,2.5-4.6,4.1c-1.4,1.6-2.3,3.7-3,5.8c-0.7,2.1-0.9,4.4-0.9,6.4c0,6.4,2.8,9.7,8.5,9.7
				c1.2,0,2.3,0,3.2-0.2c0.9-0.2,1.8-0.5,2.5-0.7c0.7-0.2,1.4-0.5,1.8-0.7c0.5-0.2,1.2-0.5,1.6-0.7l0.7,4.1
				c-0.5,0.2-0.9,0.5-1.6,0.7c-0.7,0.2-1.4,0.5-2.3,0.7s-1.8,0.5-3,0.7C304.2,725,303,725.2,301.9,725.2L301.9,725.2z"/>
			<path id="path8338" inkscape:connector-curvature="0" class="payments-st2" d="M315.2,724.3l8.3-34.7H344l-0.9,4.1h-15.6l-2.5,10.6h14
				l-0.9,3.9h-13.8l-3,12.2H338l-0.9,4.1h-21.9V724.3z"/>
			<path id="path8340" inkscape:connector-curvature="0" class="payments-st2" d="M358.5,689.3c4.1,0,7.1,0.7,9.2,2.3c2.1,1.6,3,3.7,3,6.7
				c0,2.3-0.5,4.1-1.4,6c-0.9,1.6-2.1,3-3.7,4.1s-3.5,1.8-5.8,2.3c-2.3,0.5-4.6,0.7-7.4,0.7H349l-3.2,12.9H341l8.3-34.3
				c1.4-0.2,3-0.5,4.4-0.7C355.7,689.3,357.1,689.3,358.5,689.3L358.5,689.3z M358,693.5c-2.3,0-3.9,0-4.4,0.2l-3.2,13.8h3.2
				c1.4,0,2.8-0.2,4.4-0.5c1.4-0.2,2.8-0.7,3.9-1.4c1.2-0.7,2.1-1.6,3-2.5c0.7-1.2,1.2-2.5,1.2-4.4c0-1.8-0.7-3.2-2.1-4.1
				C362.4,693.9,360.3,693.5,358,693.5z"/>
			<path id="path8342" inkscape:connector-curvature="0" class="payments-st2" d="M400.3,689.8l-0.9,4.1h-10.6l-7.4,30.6h-4.8l7.4-30.6h-10.6
				l0.9-4.1H400.3z"/>
			<path id="path8344" inkscape:connector-curvature="0" class="payments-st2" d="M396,724.3l8.3-34.7h20.5l-0.9,4.1h-15.6l-2.5,10.6h14
				l-0.9,3.9h-13.8l-3,12.2h16.8l-0.9,4.1H396V724.3z"/>
			<path id="path8346" inkscape:connector-curvature="0" class="payments-st2" d="M439.2,689.3c5.1,0,9,1.2,11.5,3.7s3.9,5.8,3.9,9.9
				c0,2.8-0.5,5.5-1.4,8.3c-0.9,2.8-2.3,5.1-4.1,7.1c-1.8,2.1-4.4,3.7-7.4,4.8s-6.4,1.8-10.6,1.8c-1.4,0-3,0-4.6-0.2
				c-1.6-0.2-3-0.5-4.4-0.7l8.1-33.8c1.4-0.2,3-0.5,4.4-0.7C436.2,689.3,437.8,689.3,439.2,689.3L439.2,689.3z M438.8,693.5
				c-2.5,0-3.9,0-4.6,0.2l-6.4,26.7c0.2,0,0.7,0.2,1.4,0.2c0.7,0,1.6,0,3.2,0c2.5,0,5.1-0.5,7.1-1.4c2.1-0.9,3.9-2.1,5.3-3.7
				s2.5-3.5,3.5-5.8c0.7-2.3,1.2-4.6,1.2-7.1c0-3-0.9-5.3-2.5-6.9C445.2,694.1,442.4,693.5,438.8,693.5L438.8,693.5z"/>
			<path id="path8348" inkscape:connector-curvature="0" class="payments-st2" d="M491.9,724.3h-4.8l3.9-16.1h-16.1l-3.9,16.1h-4.8l8.3-34.7
				h4.8l-3.5,14.5h16.1l3.5-14.5h4.8L491.9,724.3L491.9,724.3z"/>
			<path id="path8350" inkscape:connector-curvature="0" class="payments-st2" d="M499.5,724.3l8.3-34.7h20.5l-0.9,4.1h-15.6l-2.5,10.6h14
				l-0.9,3.9h-13.8l-3,12.2h16.8l-0.9,4.1h-21.9V724.3z"/>
			<path id="path8352" inkscape:connector-curvature="0" class="payments-st2" d="M543,689.3c3.7,0,6.7,0.7,8.7,2.3c2.1,1.6,3.2,3.7,3.2,6.7
				c0,3-0.9,5.5-2.5,7.4c-1.6,2.1-4.1,3.5-7.1,4.4c0.5,0.7,0.9,1.6,1.4,2.8c0.5,1.2,1.2,2.3,1.6,3.7c0.5,1.4,1.2,2.8,1.6,4.1
				c0.5,1.4,0.9,2.8,1.4,4.1h-5.1c-0.5-1.4-0.9-2.5-1.4-3.9c-0.5-1.4-0.9-2.5-1.6-3.7c-0.5-1.2-1.2-2.3-1.6-3.5
				c-0.5-1.2-0.9-2.1-1.4-2.8c-0.5,0-0.9,0-1.4,0c-0.5,0-0.9,0-1.4,0h-3.9l-3.2,13.6h-4.8l8.3-34.3c1.4-0.2,3-0.5,4.4-0.7
				C540,689.3,541.6,689.3,543,689.3L543,689.3z M542.3,693.5c-2.3,0-3.9,0-4.4,0.2l-3.2,13.1h3c1.4,0,2.8,0,4.1-0.2
				c1.4-0.2,2.8-0.7,3.9-1.2c1.2-0.7,2.1-1.4,3-2.5c0.7-1.2,1.2-2.5,1.2-4.1c0-1.8-0.7-3.2-2.1-3.9
				C546.4,693.9,544.6,693.5,542.3,693.5L542.3,693.5z"/>
			<path id="path8354" inkscape:connector-curvature="0" class="payments-st2" d="M555.4,724.3l8.3-34.7h20.5l-0.9,4.1h-15.6l-2.5,10.6h14
				l-0.9,3.9h-13.8l-3,12.2h16.8l-0.9,4.1h-21.9V724.3z"/>
		</g>
	</g>
</g>
</svg>
