<?xml version="1.0" encoding="utf-8"?>
<!-- Generator: Adobe Illustrator 19.1.0, SVG Export Plug-In . SVG Version: 6.00 Build 0)  -->
<svg version="1.1" id="Layer_1" xmlns="http://www.w3.org/2000/svg" xmlns:xlink="http://www.w3.org/1999/xlink" x="0px" y="0px"
	 width="640px" height="187.9px" viewBox="-439 302.5 640 187.9" style="enable-background:new -439 302.5 640 187.9;"
	 xml:space="preserve">
<style type="text/css">
	.payments-st0{display:none;}
	.payments-st1{display:inline;fill:#FFFFFF;}
	.payments-st2{fill:#636467;}
	.payments-st3{fill:#EB652A;}
	.payments-st4{fill:#243885;}
	.payments-st5{fill:#F6A723;}
	.payments-st6{fill:none;}
</style>
<g id="Bg" class="payments-st0">
	<path class="payments-st1" d="M-34,455h-170c-8.2,0-15-6.8-15-15v-87c0-8.2,6.8-15,15-15h170c8.2,0,15,6.8,15,15v87
		C-19,448.2-25.8,455-34,455z"/>
</g>
<g id="Logo">
	<g>
		<g>
			<path class="payments-st2" d="M-204.2,340.6c-14.9,0-26.3,12.2-26.3,28.2v0.4c0,16.4,11.8,27.8,27.8,27.8c9.1,0,16.4-3.4,22.1-10.3
				l0.4-0.4l-8-6.9h-0.8c-4.6,4.2-8.4,6.1-13.7,6.1c-7.6,0-13-4.6-14.5-12.2h38.5v-0.8c0-1.1,0-2.3,0-3
				C-178.7,355.1-186.7,340.6-204.2,340.6z M-204.6,351.7c8,0,11.8,6.5,12.6,12.6H-218C-216.4,356.6-211.1,351.7-204.6,351.7z"/>
			<path class="payments-st2" d="M-141.3,340.6c-6.5,0-11.8,2.7-16,8v-6.9h-13.3v54.1h13.3v-30.5c0-7.6,4.6-12.6,11.4-12.6
				s10.7,4.2,10.7,12.2v30.5h13.3v-34.3C-121.9,348.6-129.2,340.6-141.3,340.6z"/>
			<path class="payments-st2" d="M-95.6,327.3h-13.3v14.5h-9.9v11.4h9.9v27.1c0,10.7,5.3,16,15.6,16c4.2,0,7.6-0.8,11.1-2.7h0.4v-11.1
				l-0.8,0.4c-2.3,1.1-4.6,1.9-7.2,1.9c-4.2,0-6.1-1.9-6.1-6.1v-25.5h14.1v-11.4H-96v-14.5H-95.6z"/>
			<path class="payments-st2" d="M-43,340.6c-7.6,0-13.3,3.8-17.2,11.1v-9.9h-13v54.1h13.3v-20.6c0-13,6.5-20.2,17.5-20.2h1.1V341h-0.4
				C-42.2,340.6-42.6,340.6-43,340.6z"/>
			<path class="payments-st2" d="M-10.2,340.6c-16,0-29,12.2-29,28.2v0.4c0,15.6,12.6,27.8,28.6,27.8c16.4,0,29-12.2,29-28.2v-0.4
				C18.4,352.8,5.8,340.6-10.2,340.6z M-25.9,368.4c0-9.5,6.5-16.4,15.2-16.4c8.8,0,15.6,7.2,15.6,16.4v0.4c0,9.5-6.5,16-15.6,16
				C-19,385.2-25.9,378-25.9,368.4L-25.9,368.4z"/>
			<path class="payments-st3" d="M56.9,340.6c-7.2,0-13,3-17.5,8.8v-7.6H26V418h13.3v-29.4c4.6,5.7,10.3,8.4,17.5,8.4
				c12.6,0,25.2-9.5,25.2-27.8v-0.4C81.6,350.1,69.1,340.6,56.9,340.6z M68.3,368.4L68.3,368.4c0,9.5-6.1,16.4-14.5,16.4
				s-14.9-6.9-14.9-16.4v-0.4c0-9.1,6.5-16.4,14.9-16.4C62.2,352,68.3,359.3,68.3,368.4z"/>
			<path class="payments-st3" d="M111.8,341c-9.1,0-15.2,1.9-20.2,4.2l-0.4,0.4l3.4,10.7l0.4-0.4c4.6-1.9,9.1-3.4,14.9-3.4
				c8.4,0,12.6,3.8,12.6,11.1v0.8c-3.4-1.1-7.6-1.9-13.7-1.9c-14.1,0-22.5,6.5-22.5,17.5v0.4c0,11.4,9.9,16.8,19.4,16.8
				c6.9,0,12.6-2.3,16.8-6.9v5.7h13v-32c0-7.2-1.9-13-5.7-16.8C125.9,342.9,119.8,341,111.8,341z M109.5,386.7c-6.1,0-9.9-3-9.9-7.2
				v-0.4c0-5.3,4.6-8.4,11.8-8.4c5,0,9.1,1.1,11.4,1.9v3C122.8,382.2,117.1,386.7,109.5,386.7z"/>
			<path class="payments-st3" d="M180.7,341.8l-13.3,38.1l-14.5-38.1h-14.1l22.1,53.4l-3,7.6c-1.9,3.8-3.8,5.3-6.9,5.3
				c-2.3,0-4.6-0.8-6.9-1.9l-0.4-0.4l-4.6,9.9l0.4,0.4c4.2,2.3,8,3.4,13,3.4c8.4,0,13.3-3.4,17.5-13.3l0,0l25.2-64.4H180.7z"/>
		</g>
		<path class="payments-st2" d="M-304.5,302.9c-19.1,0-35.8,11.4-43.5,27.4l0,0l-16.8,35.8c-5.3,8.8-14.9,14.9-25.9,14.9
			c-16.4,0-29.7-13.3-29.7-29.7c0-16.4,13.3-29.7,29.7-29.7c5,0,9.1,1.1,13.3,3l6.9-17.5c-6.1-3-13-4.6-20.2-4.6
			c-26.7,0-48.4,21.7-48.4,48.4c0,26.7,21.7,48.4,48.4,48.4c16.8,0,31.6-8.8,40-21.7c0.8-1.9,1.9-3.4,3-5.3l16.4-34.7
			c5-9.9,14.9-16.8,26.7-16.8c16.4,0,29.7,13.3,29.7,29.7c0,16.4-13.3,29.7-29.7,29.7c-5.7,0-11.1-1.5-15.6-4.6l-6.9,17.2
			c6.9,3.4,14.5,5.7,22.5,5.7c26.7,0,48.4-21.7,48.4-48.4S-277.8,302.9-304.5,302.9z"/>
		<g>
			<path class="payments-st2" d="M-88.7,437h1.9v1.9h-1.9V437z M-88.7,441.6h1.9v11.8h-1.9V441.6z"/>
			<path class="payments-st2" d="M-83.4,441.6h1.9v1.9c0.8-1.1,1.9-2.3,4.2-2.3c3,0,4.6,1.9,4.6,5v7.2h-1.9v-6.9c0-2.3-1.1-3.4-3.4-3.4
				c-1.9,0-3.4,1.5-3.4,3.8v6.9h-1.9C-83.4,453.8-83.4,441.6-83.4,441.6z"/>
			<path class="payments-st2" d="M-64.7,450L-64.7,450c0-2.7,1.9-3.8,5-3.8c1.5,0,2.7,0.4,3.8,0.4v-0.4c0-2.3-1.1-3.4-3.4-3.4
				c-1.5,0-2.7,0.4-3.4,0.8l-0.4-1.5c1.1-0.8,2.7-1.1,4.2-1.1s3,0.4,3.8,1.1s1.1,1.9,1.1,3.4v7.2h-1.5v-1.9
				c-0.8,1.1-2.3,1.9-4.2,1.9C-62.4,453.8-64.7,452.3-64.7,450z M-56,448.9v-1.1c-0.8-0.4-1.9-0.4-3.4-0.4c-2.3,0-3.4,1.1-3.4,2.3
				l0,0c0,1.5,1.5,2.3,3,2.3C-57.5,452.3-56,450.8-56,448.9z"/>
			<path class="payments-st2" d="M-52.2,451.9l0.8-1.1c1.1,1.1,2.7,1.5,4.2,1.5s2.3-0.8,2.3-1.9l0,0c0-1.1-1.5-1.5-3-2.3
				c-1.9-0.4-3.8-1.1-3.8-3.4l0,0c0-1.9,1.5-3.4,4.2-3.4c1.5,0,3,0.4,4.2,1.1l-0.8,1.5c-1.1-0.8-2.3-1.1-3.4-1.1
				c-1.5,0-2.3,0.8-2.3,1.9l0,0c0,1.1,1.5,1.5,3,1.9c1.9,0.4,3.8,1.1,3.8,3.4l0,0c0,2.3-1.9,3.4-4.2,3.4
				C-48.7,453.4-50.6,453.1-52.2,451.9z"/>
			<path class="payments-st2" d="M-41.5,451.9l0.8-1.1c1.1,1.1,2.7,1.5,4.2,1.5s2.3-0.8,2.3-1.9l0,0c0-1.1-1.5-1.5-3-2.3
				c-1.9-0.4-3.8-1.1-3.8-3.4l0,0c0-1.9,1.5-3.4,4.2-3.4c1.5,0,3,0.4,4.2,1.1l-0.8,1.5c-1.1-0.8-2.3-1.1-3.4-1.1
				c-1.5,0-2.3,0.8-2.3,1.9l0,0c0,1.1,1.5,1.5,3,1.9c1.9,0.4,3.8,1.1,3.8,3.4l0,0c0,2.3-1.9,3.4-4.2,3.4
				C-38.4,453.4-40.3,453.1-41.5,451.9z"/>
			<path class="payments-st2" d="M-30.4,447.3L-30.4,447.3c0-3.4,2.7-6.1,6.1-6.1s6.1,2.7,6.1,6.1l0,0c0,3.4-2.7,6.1-6.1,6.1
				C-27.8,453.8-30.4,450.8-30.4,447.3z M-19.8,447.3L-19.8,447.3c0-2.7-1.9-4.6-4.6-4.6s-4.2,2.3-4.2,4.6l0,0
				c0,2.7,1.9,4.6,4.6,4.6C-21.7,451.9-19.8,450-19.8,447.3z"/>
			<path class="payments-st2" d="M-16.3,447.3L-16.3,447.3c0-3.4,2.7-6.1,6.1-6.1c2.3,0,3.8,0.8,5,2.3l-1.1,1.1c-0.8-1.1-1.9-1.9-3.4-1.9
				c-2.3,0-4.2,1.9-4.2,4.6l0,0c0,2.7,1.9,4.6,4.2,4.6c1.5,0,2.7-0.8,3.8-1.9l1.1,1.1c-1.1,1.5-2.7,2.3-5,2.3
				C-13.7,453.8-16.3,450.8-16.3,447.3z"/>
			<path class="payments-st2" d="M-3,437h1.9v1.9H-3V437z M-3,441.6h1.9v11.8H-3V441.6z"/>
			<path class="payments-st2" d="M1.6,450L1.6,450c0-2.7,1.9-3.8,5-3.8c1.5,0,2.7,0.4,3.8,0.4v-0.4c0-2.3-1.1-3.4-3.4-3.4
				c-1.5,0-2.7,0.4-3.4,0.8L3.1,442c1.1-0.8,2.7-1.1,4.2-1.1c1.5,0,3,0.4,3.8,1.1c0.8,0.8,1.1,1.9,1.1,3.4v7.2h-1.5v-1.9
				c-0.8,1.1-2.3,1.9-4.2,1.9C3.5,453.8,1.6,452.3,1.6,450z M10.4,448.9v-1.1c-0.8-0.4-1.9-0.4-3.4-0.4c-2.3,0-3.4,1.1-3.4,2.3l0,0
				c0,1.5,1.5,2.3,3,2.3C8.5,452.3,10.4,450.8,10.4,448.9z"/>
			<path class="payments-st2" d="M15.3,450.4v-7.2h-1.5v-1.5h1.5v-3.4h1.9v3.4H21v1.5h-3.8v6.9c0,1.5,0.8,1.9,1.9,1.9c0.8,0,1.1,0,1.9-0.4
				v1.5c-0.8,0.4-1.1,0.4-2.3,0.4C16.8,453.4,15.3,452.7,15.3,450.4z"/>
			<path class="payments-st2" d="M23.7,437h1.9v1.9h-1.9V437z M23.7,441.6h1.9v11.8h-1.9V441.6z"/>
			<path class="payments-st2" d="M28.3,447.3L28.3,447.3c0-3.4,2.7-6.1,6.1-6.1c3.4,0,6.1,2.7,6.1,6.1l0,0c0,3.4-2.7,6.1-6.1,6.1
				C30.6,453.8,28.3,450.8,28.3,447.3z M38.6,447.3L38.6,447.3c0-2.7-1.9-4.6-4.6-4.6s-4.2,2.3-4.2,4.6l0,0c0,2.7,1.9,4.6,4.6,4.6
				S38.6,450,38.6,447.3z"/>
			<path class="payments-st2" d="M43.1,441.6H45v1.9c0.8-1.1,1.9-2.3,4.2-2.3c3,0,4.6,1.9,4.6,5v7.2h-1.9v-6.9c0-2.3-1.1-3.4-3.4-3.4
				c-1.9,0-3.4,1.5-3.4,3.8v6.9h-1.9L43.1,441.6L43.1,441.6z"/>
			<path class="payments-st2" d="M61.8,441.6h1.9l3,9.5l3-9.5h1.5l3,9.5l3-9.5h1.9l-4.2,12.2h-1.5l-3-9.5l-3,9.5H66L61.8,441.6z"/>
			<path class="payments-st2" d="M82,437h1.9v1.9H82V437z M82,441.6h1.9v11.8H82V441.6z"/>
			<path class="payments-st2" d="M88.1,450.4v-7.2h-1.5v-1.5h1.5v-3.4H90v3.4h3.8v1.5H90v6.9c0,1.5,0.8,1.9,1.9,1.9c0.8,0,1.1,0,1.9-0.4v1.5
				c-0.8,0.4-1.1,0.4-2.3,0.4C89.3,453.4,88.1,452.7,88.1,450.4z"/>
			<path class="payments-st2" d="M96.1,436.7H98v6.9c0.8-1.1,1.9-2.3,4.2-2.3c3,0,4.6,1.9,4.6,5v7.2h-1.9v-6.9c0-2.3-1.1-3.4-3.4-3.4
				c-1.9,0-3.4,1.5-3.4,3.8v6.9h-1.9L96.1,436.7L96.1,436.7z"/>
		</g>
		<g>
			<g>
				<polygon class="payments-st4" points="147.2,453.8 140.7,453.8 144.9,428.3 151.4,428.3 				"/>
				<path class="payments-st4" d="M135,428.3l-6.5,17.5l-0.8-3.8l0,0l-2.3-11.4c0,0-0.4-2.3-3-2.3h-10.7v0.4c0,0,3,0.8,6.9,3l5.7,22.1h6.9
					l10.7-25.5C141.9,428.3,135,428.3,135,428.3z"/>
				<path class="payments-st4" d="M187.2,453.8h6.1l-5.3-25.5h-5.3c-2.3,0-3,1.9-3,1.9l-9.9,23.6h6.9l1.5-3.8h8.4L187.2,453.8z M180,444.7
					l3.4-9.5l1.9,9.5H180z"/>
				<path class="payments-st4" d="M170.5,434.4l0.8-5.3c0,0-3-1.1-6.1-1.1c-3.4,0-11.1,1.5-11.1,8.4c0,6.5,9.1,6.9,9.1,10.3
					c0,3.4-8.4,2.7-11.1,0.8l-1.1,5.7c0,0,3,1.5,7.6,1.5s11.4-2.3,11.4-8.8c0-6.5-9.1-7.2-9.1-10.3
					C160.9,432.5,167.4,432.9,170.5,434.4z"/>
			</g>
			<path class="payments-st5" d="M127.8,442l-2.3-11.4c0,0-0.4-2.3-3-2.3h-10.7v0.4c0,0,5,1.1,9.9,5C126.2,437.4,127.8,442,127.8,442z"/>
		</g>
		<rect x="104.1" y="393.6" class="payments-st6" width="96.8" height="96.8"/>
		<polygon class="payments-st3" points="-369.7,305.9 -393.3,363.1 -374.6,363.1 -351,305.9 		"/>
		<polygon class="payments-st3" points="-331.2,357.8 -354.4,414.6 -335.8,414.6 -312.5,357.8 		"/>
	</g>
</g>
</svg>
