<?xml version="1.0" encoding="utf-8"?>
<!-- Generator: Adobe Illustrator 19.1.0, SVG Export Plug-In . SVG Version: 6.00 Build 0)  -->
<svg version="1.1" id="Layer_1" xmlns="http://www.w3.org/2000/svg" xmlns:xlink="http://www.w3.org/1999/xlink" x="0px" y="0px"
	 width="640px" height="382.9px" viewBox="-257 -153.5 640 382.9" style="enable-background:new -257 -153.5 640 382.9;"
	 xml:space="preserve">
<g id="layer1" transform="translate(-457.20465,-631.07671)">
	<path id="path618" style="fill:#0066CB;" d="M520.2,811c38.7-35,62.9-85.7,62.9-141.9c0-56.3-24.2-106.9-62.9-141.9
		c-33.9-30.8-79.1-49.5-128.4-49.5c-105.9,0-191.6,85.7-191.6,191.4c0,105.8,85.7,191.5,191.6,191.5
		C441.1,860.5,486.3,841.8,520.2,811"/>
	<path id="path620" style="fill:#0066CB;" d="M520.2,811c38.7-35,62.9-85.7,62.9-141.9c0-56.3-24.2-106.9-62.9-141.9"/>
	<path id="path622" style="fill:none;stroke:#0066CB;stroke-width:0.3097;" d="M520.2,811c38.7-35,62.9-85.7,62.9-141.9
		c0-56.3-24.2-106.9-62.9-141.9"/>
	<path id="path624" style="fill:#CC0001;" d="M648.9,477.6c-49.5,0-94.8,18.7-128.7,49.5c-6.8,6.3-13.4,13.1-19.4,20.3h38.7
		c5.4,6.4,10.3,13.2,14.5,20.3h-67.8c-4,6.5-7.7,13.3-11.1,20.3h90c3.1,6.6,5.7,13.3,8,20.3H467.2c-2.3,6.6-4.3,13.3-5.7,20.3h117.3
		c2.8,13.1,4.3,26.6,4.3,40.5c0,21.3-3.4,41.7-10,60.8H467.3c2.3,7,4.8,13.7,8,20.3h90c-3.4,7-6.8,13.8-11.1,20.3h-67.8
		c4.3,7.1,9.4,13.8,14.5,20.3h38.7c-6,7.2-12.5,14-19.4,20.3c33.9,30.8,79.1,49.5,128.7,49.5c105.6,0,191.3-85.7,191.3-191.5
		C840.2,563.3,754.5,477.6,648.9,477.6"/>
	<path id="path626" style="fill:#231F20;" d="M820,775.4h0.9c0.3,0,0.6,0,0.6-0.1c0.3-0.2,0.6-0.4,0.6-0.6c0-0.2-0.3-0.5-0.6-0.6
		c0-0.1-0.6-0.1-0.6-0.1H820V775.4L820,775.4z M820,778.5h-1.1v-5.4h2.3c0.6,0,0.9,0,1.4,0.3c0.3,0.3,0.6,0.8,0.6,1.4
		c0,0.6-0.3,1.2-0.9,1.4l0.9,2.4h-1.4l-0.6-2.2H820L820,778.5L820,778.5z M820.8,780.5c2.6,0,4.8-2.1,4.8-4.7c0-2.6-2.3-4.7-4.8-4.7
		c-2.6,0-4.6,2.1-4.6,4.7C816.3,778.4,818.3,780.5,820.8,780.5z M814.6,775.8c0-3.4,2.8-6.2,6.3-6.2c3.4,0,6.3,2.8,6.3,6.2
		c0,3.4-2.8,6.2-6.3,6.2C817.4,782,814.6,779.2,814.6,775.8"/>
	<path id="path628" style="fill:#231F20;" d="M361.9,722.3h-24.2l14.2-74.6l-32.7,74.6h-19.9l-4-74.2l-15.9,74.2h-21.9l18.5-97.1
		h37.9l0.6,60.1l26.2-60.1h40.1L361.9,722.3"/>
	<path id="path630" style="fill:#231F20;" d="M628.1,721.4c-6.5,1.8-11.7,2.6-17.1,2.6c-12.2,0-18.8-6.1-18.8-17.3
		c0-2.2,0-4.6,0.6-7.1l1.4-7.7l1.1-6.2l11.1-60.3h23.6l-3.4,18.1h12.2l-3.4,19.2h-12.2l-6.3,32.9c-0.3,1.5-0.3,2.5-0.3,3.3
		c0,4.1,2.3,5.9,8,5.9c2.8,0,4.8-0.2,6.5-0.7L628.1,721.4"/>
	<path id="path632" style="fill:#231F20;" d="M533.6,668.3c0,10,5.4,16.8,18.2,22c9.7,4,11.4,5.1,11.4,8.7c0,4.9-4.3,7.1-13.9,7.1
		c-7.1,0-14-1-21.6-3.1l-3.1,18.2l0.9,0.2l4.6,0.8c1.4,0.2,3.4,0.5,6.3,0.7c5.7,0.4,10.2,0.7,13.4,0.7c25.3,0,37-8.4,37-26.4
		c0-10.8-4.8-17.2-16.8-22c-10.2-4-11.4-4.9-11.4-8.6c0-4.3,4-6.5,11.7-6.5c4.8,0,11.4,0.5,17.4,1.2l3.4-18.3
		c-6.3-0.9-15.7-1.6-21.1-1.6C542.7,641.6,533.3,653.8,533.6,668.3"/>
	<path id="path634" style="fill:#231F20;" d="M422.8,687.2c-2.6-0.3-3.7-0.3-5.4-0.3c-13.4,0-20.2,4-20.2,12c0,4.9,3.4,8.1,8.5,8.1
		C415.4,706.9,422.6,698.8,422.8,687.2L422.8,687.2z M439.1,722.3h-19.9l0.6-8.2c-6.3,6.5-14.2,9.6-25.1,9.6
		c-13.1,0-21.9-8.8-21.9-21.5c0-19.2,15.4-30.4,41.8-30.4c2.8,0,6.3,0.2,9.7,0.6c0.9-2.6,1.1-3.7,1.1-5.1c0-5.2-4.3-7.2-15.4-7.2
		c-6.8,0-14.5,0.9-19.9,2.2L387,663l-2.3,0.5l3.4-17.7c12-3,19.6-4.2,28.5-4.2c20.5,0,31.3,8,31.3,23.2c0,3.9-0.3,6.8-2,15.6
		l-4.8,28l-0.9,5l-0.6,4l-0.6,2.8L439.1,722.3"/>
	<path id="path636" style="fill:#231F20;" d="M505.7,673.6c0-1.6,0.3-3,0.3-4c0-6.4-4.3-10.2-11.4-10.2c-7.7,0-13.1,5.1-15.1,14.2
		L505.7,673.6L505.7,673.6z M517.4,720.6c-8.3,2.2-16.2,3.2-24.5,3.2c-26.8,0-40.4-12.1-40.4-35.3c0-27.1,17.7-47.1,41.6-47.1
		c19.6,0,32.2,11.2,32.2,28.7c0,5.8-0.9,11.5-3.1,19.5h-47.3c-0.3,1.2-0.3,1.8-0.3,2.5c0,9.1,7.1,13.8,21.1,13.8
		c8.5,0,16.2-1.5,24.8-5L517.4,720.6"/>
	<path id="path638" style="fill:#231F20;" d="M747.4,677.1c0-8.2-3.4-16.1-13.1-16.1c-12.2,0-19.6,14.4-19.6,27.1
		c0,10.7,5.1,17.9,13.7,17.7c5.1,0,16.2-7,18.2-19.3C747.1,683.7,747.4,680.5,747.4,677.1z M771.6,686.6
		c-3.4,26.2-21.9,37.9-46.4,37.9c-26.8,0-37.6-16.3-37.6-36.4c0-28,18.2-46.9,46.7-46.9c24.8,0,37.9,15.6,37.9,35.6
		C772.2,681.6,772.2,682,771.6,686.6"/>
	<path id="path640" style="fill:#FFFFFF;" d="M779.6,710.2h0.9c0,0,0.3,0,0.6-0.1c0.3-0.1,0.3-0.4,0.3-0.6c0-0.2,0-0.4-0.3-0.5
		c0-0.1-0.6-0.1-0.9-0.1h-0.6V710.2L779.6,710.2z M779.6,713.3h-1.1v-5.4h2.3c0.3,0,0.9,0,1.4,0.3c0.3,0.3,0.6,0.8,0.6,1.4
		c0,0.6-0.3,1.2-0.9,1.4l0.9,2.4h-1.4l-0.9-2.1h-0.8V713.3L779.6,713.3z M780.4,715.3c2.6,0,4.6-2.1,4.6-4.7c0-2.6-2-4.7-4.6-4.7
		c-2.6,0-4.8,2.1-4.8,4.7C775.6,713.2,777.9,715.3,780.4,715.3z M774.2,710.5c0-3.4,2.8-6.1,6.3-6.1c3.4,0,6.3,2.8,6.3,6.1
		c0,3.4-2.8,6.2-6.3,6.2C777,716.7,774.2,714,774.2,710.5"/>
	<path id="path642" style="fill:#FFFFFF;" d="M367.9,716.7H344l14.2-74.6l-32.7,74.6h-21.6l-4-74.2l-14.2,74.2H264l18.5-97.1h37.3
		l1.7,60.1l26.5-60.1h38.7L367.9,716.7"/>
	<path id="path644" style="fill:#FFFFFF;" d="M634.1,715.8c-6.5,1.8-11.7,2.6-17.1,2.6c-12.2,0-18.8-6.1-18.8-17.3
		c0-2.2,0.3-4.6,0.6-7.1l1.4-7.7l1.1-6.3l11.1-60.3h23.6l-3.4,18.1h12.2l-3.4,19.2h-12.2l-6.3,32.9c-0.3,1.4-0.3,2.5-0.3,3.3
		c0,4.1,2.6,5.8,8.3,5.8c2.6,0,4.6-0.2,6.3-0.7L634.1,715.8"/>
	<path id="path646" style="fill:#231F20;" d="M695.3,660.5l-0.6-2.5l4.8-12.4c-1.1-0.1-1.7-0.2-1.7-0.2c-1.4-0.3-2-0.4-2.3-0.4
		c-0.6-0.2-1.4-0.2-2.3-0.2c-8,0-13.4,3.5-20.8,12.8l2.6-14h-24.8l-14.5,78.8h23.6c3.1-18.1,4.6-28.4,6.5-36.9
		c3.1-14.2,13.7-20.6,21.4-19.2c0.9,0.2,1.4,0.2,2.6,0.6l1.4,0.5L695.3,660.5"/>
	<path id="path648" style="fill:#FFFFFF;" d="M703.5,638.5c-2-0.8-2.3-0.8-2.6-0.9c-1.1-0.3-2-0.4-2-0.5c-0.9-0.1-1.7-0.2-2.6-0.2
		c-7.7,0-13.4,3.5-20.8,12.8l2.3-12h-21.6l-14.5,78.9h23.9c8.5-48.3,12.2-56.7,23.6-56.7c0.9,0,1.7,0.1,2.8,0.2l2.8,0.6L703.5,638.5
		"/>
	<path id="path650" style="fill:#FFFFFF;" d="M539.6,662.8c0,10,5.7,16.8,18.5,22c9.7,3.9,11.1,5.1,11.1,8.7c0,4.9-4.3,7.1-13.7,7.1
		c-7.4,0-14-1-21.6-3.1l-3.4,18.2l1.1,0.2l4.3,0.8c1.4,0.3,3.7,0.5,6.5,0.7c5.7,0.4,10,0.7,13.1,0.7c25.6,0,37.3-8.3,37.3-26.3
		c0-10.8-4.8-17.2-17.1-22c-10-4-11.1-4.9-11.1-8.6c0-4.2,4-6.4,11.7-6.4c4.8,0,11.1,0.4,17.4,1.2l3.4-18.3
		c-6.3-0.9-15.7-1.6-21.3-1.6C549,636,539.6,648.2,539.6,662.8"/>
	<path id="path652" style="fill:#FFFFFF;" d="M428,681.6c-2.6-0.3-3.7-0.3-5.4-0.3c-13.4,0-20.2,4-20.2,12c0,4.9,3.1,8.1,8.5,8.1
		C420.6,701.3,427.4,693.2,428,681.6L428,681.6z M445.3,716.7h-19.9l0.6-8.2c-6,6.5-14.2,9.5-25.1,9.5c-12.8,0-21.6-8.8-21.6-21.5
		c0-19.2,15.4-30.4,41.8-30.4c2.6,0,6,0.2,9.7,0.6c0.6-2.6,0.9-3.7,0.9-5.1c0-5.2-4.3-7.2-15.4-7.2c-6.8,0-14.5,0.8-19.6,2.2
		l-3.4,0.9l-2,0.5l3.1-17.8c12-3,19.6-4.2,28.5-4.2c20.5,0,31.3,8,31.3,23.1c0,3.9-0.3,6.8-1.7,15.6l-5.1,28l-0.9,5l-0.6,4l-0.3,2.7
		L445.3,716.7"/>
	<path id="path654" style="fill:#FFFFFF;" d="M510.8,668.1c0-1.7,0-3,0-4c0-6.4-4-10.2-11.1-10.2c-7.7,0-13.1,5-15.4,14.2
		L510.8,668.1L510.8,668.1z M523.3,715.1c-8,2.1-15.9,3.2-24.2,3.2c-26.8,0-40.7-12.1-40.7-35.4c0-27.1,17.6-47,41.6-47
		c19.6,0,32.2,11.2,32.2,28.7c0,5.8-0.9,11.5-2.9,19.5H482c-0.3,1.2-0.3,1.8-0.3,2.5c0,9.1,7.1,13.8,20.8,13.8
		c8.5,0,16.2-1.6,24.8-5L523.3,715.1"/>
	<path id="path656" style="fill:#FFFFFF;" d="M753.1,670.8c0-8.2-3.4-16.1-13.1-16.1c-12.2,0-19.6,14.4-19.6,27.1
		c0,10.7,5.1,17.9,13.7,17.8c5.1,0,16.2-7,18.2-19.3C752.8,677.4,753.1,674.3,753.1,670.8z M777.9,681
		c-3.7,26.2-21.9,37.9-46.4,37.9c-27,0-37.9-16.4-37.9-36.4c0-28,18.5-46.9,47-46.9c24.8,0,37.9,15.6,37.9,35.6
		C778.4,676.1,778.4,676.4,777.9,681"/>
</g>
</svg>
