<?xml version="1.0" encoding="utf-8"?>
<!-- Generator: Adobe Illustrator 19.1.0, SVG Export Plug-In . SVG Version: 6.00 Build 0)  -->
<svg version="1.1" id="Layer_1" xmlns="http://www.w3.org/2000/svg" xmlns:xlink="http://www.w3.org/1999/xlink" x="0px" y="0px"
	 width="640px" height="383.2px" viewBox="-325 205.9 640 383.2" style="enable-background:new -325 205.9 640 383.2;"
	 xml:space="preserve">
<g id="layer1">
	<g id="g10305">
		<path id="path2268" style="fill:#FF9900;" d="M315,397.5c0,105.8-85.7,191.6-191.5,191.6C17.7,589.1-68,503.4-68.1,397.6
			c0,0,0-0.1,0-0.1c0-105.8,85.7-191.6,191.5-191.6C229.2,205.9,315,291.6,315,397.5C315,397.4,315,397.5,315,397.5z"/>
		<path id="path1350" style="fill:#CC0000;" d="M-134.7,206C-239.9,206.6-325,292.2-325,397.5c0,105.7,85.8,191.5,191.5,191.5
			c49.6,0,94.9-18.9,128.9-49.9c0,0,0,0,0,0h0c7-6.4,13.5-13.2,19.4-20.5h-39.2c-5.2-6.3-10-12.9-14.3-19.7h67.7
			c4.1-6.6,7.8-13.4,11.1-20.5h-90c-3.1-6.6-5.7-13.3-8-20.1h106c6.4-19.1,9.9-39.5,9.9-60.7c0-14.1-1.5-27.8-4.4-41H-63.4
			c1.5-6.8,3.3-13.5,5.5-20.1H48.1c-2.4-7-5.1-13.9-8.3-20.5h-89.6c3.2-6.9,6.9-13.6,11-20.1h67.6c-4.5-7.2-9.5-14-14.9-20.5h-37.7
			c5.8-6.9,12.2-13.3,19.2-19.3c-34-31-79.3-49.9-128.9-49.9C-133.9,206-134.3,206-134.7,206z"/>
		<path id="use9412" style="fill:#FCB340;" d="M295.8,497.6c1,0,2.1,0.3,3,0.8c1,0.5,1.8,1.3,2.3,2.3c0.6,1,0.8,2,0.8,3.1
			c0,1.1-0.3,2.1-0.8,3.1c-0.5,1-1.3,1.8-2.3,2.3c-1,0.5-2,0.8-3.1,0.8s-2.1-0.3-3.1-0.8c-1-0.5-1.7-1.3-2.3-2.3
			c-0.5-1-0.8-2-0.8-3.1c0-1.1,0.3-2.1,0.8-3.1c0.6-1,1.3-1.8,2.3-2.3C293.7,497.9,294.7,497.6,295.8,497.6 M295.8,498.7
			c-0.9,0-1.7,0.2-2.5,0.7c-0.8,0.4-1.5,1.1-1.9,1.9c-0.5,0.8-0.7,1.7-0.7,2.6c0,0.9,0.2,1.8,0.7,2.6c0.5,0.8,1.1,1.5,1.9,1.9
			c0.8,0.5,1.7,0.7,2.6,0.7c0.9,0,1.8-0.2,2.6-0.7c0.8-0.5,1.5-1.1,1.9-1.9c0.5-0.8,0.7-1.7,0.7-2.6c0-0.9-0.2-1.8-0.7-2.6
			c-0.5-0.8-1.1-1.5-1.9-1.9C297.5,498.9,296.7,498.7,295.8,498.7 M293.1,507.2v-6.7h2.3c0.8,0,1.3,0.1,1.7,0.2
			c0.4,0.1,0.6,0.3,0.8,0.6c0.2,0.3,0.3,0.6,0.3,1c0,0.5-0.2,0.9-0.5,1.3c-0.3,0.4-0.8,0.6-1.4,0.6c0.2,0.1,0.4,0.2,0.6,0.4
			c0.3,0.3,0.6,0.7,1,1.3l0.8,1.3h-1.3l-0.6-1c-0.5-0.8-0.8-1.3-1.1-1.6c-0.2-0.1-0.5-0.2-0.9-0.2h-0.6v2.8L293.1,507.2
			 M294.1,503.5h1.3c0.6,0,1-0.1,1.3-0.3c0.2-0.2,0.3-0.4,0.3-0.7c0-0.2-0.1-0.4-0.2-0.5c-0.1-0.2-0.3-0.3-0.5-0.4
			c-0.2-0.1-0.6-0.1-1.1-0.1h-1.2L294.1,503.5"/>
	</g>
	<g id="g16480">
		<g id="g13802" transform="translate(-13.74405,15.9939)">
			<path id="path13804" style="fill:#000066;" d="M-56.2,436.5l2.6-17.3c-1.4,0-3.4,0.6-5.3,0.6c-7.1,0-8-3.8-7.4-6.6l7-34.9h10.8
				l2.2-19.7h-10.2l2.1-11.9h-21.3c-0.4,0.4-12,67.1-12,75.2c0,12,6.7,17.4,16.2,17.3C-64,439.1-58.2,437-56.2,436.5z"/>
			<path id="path13806" style="fill:#000066;" d="M-49.7,403.4c0,28.8,19,35.7,35.2,35.7c15,0,22.8-3.5,22.8-3.5l3.6-19.7
				c0,0-12.6,5.1-22.9,5.1c-21.9,0-18.1-16.3-18.1-16.3l42.1,0.1c0,0,2.7-13.2,2.7-18.6c0-13.4-7.3-29.9-29.7-29.9
				C-34.5,356.3-49.7,378.4-49.7,403.4z M-13.9,374.6c11.5,0,9.4,12.9,9.4,14h-22.6C-27.2,387.2-25.1,374.6-13.9,374.6z"/>
			<path id="path13808" style="fill:#000066;" d="M115.2,436.5l3.7-22.2c0,0-10,5-16.9,5c-14.5,0-20.3-11-20.3-22.9
				c0-24.1,12.4-37.3,26.3-37.3c10.4,0,18.7,5.8,18.7,5.8l3.3-21.6c0,0-9.8-7.1-20.4-7.2c-31.9-0.1-50.1,22.1-50.1,60.4
				c0,25.4,13.5,42.7,37.8,42.7C104.2,439.2,115.2,436.5,115.2,436.5z"/>
			<path id="path13810" style="fill:#000066;" d="M-168.3,356.7c-14,0-24.7,4.5-24.7,4.5l-3,17.6c0,0,8.8-3.6,22.2-3.6
				c7.6,0,13.1,0.9,13.1,7c0,3.7-0.7,5.1-0.7,5.1s-6-0.5-8.8-0.5c-19.9,0-36.2,7.5-36.2,30.2c0,17.9,12.2,22,19.7,22
				c14.4,0,20.1-9.1,20.4-9.1l-0.2,7.5c0,0,18,0,18,0l8-56.2C-140.3,357.4-161.1,356.7-168.3,356.7z M-165.2,402.3
				c0.4,3.4-0.9,19.6-13.2,19.6c-6.3,0-8-4.8-8-7.7c0-5.6,3-12.3,18-12.3C-164.9,401.9-165.8,402.2-165.2,402.3z"/>
			<path id="path13812" style="fill:#000066;" d="M-121.2,438.6c4.6,0,30.9,1.2,30.9-25.9c0-25.3-24.3-20.3-24.3-30.5
				c0-5.1,4-6.7,11.2-6.7c2.9,0,13.9,0.9,13.9,0.9l2.6-18c0,0-7.2-1.6-18.8-1.6c-15.1,0-30.4,6-30.4,26.6c0,23.4,25.5,21,25.5,30.8
				c0,6.6-7.1,7.1-12.6,7.1c-9.5,0-18.1-3.3-18.1-3.1l-2.7,17.8C-143.6,436.2-138.3,438.6-121.2,438.6z"/>
			<path id="path13814" style="fill:#000066;" d="M283.4,340.3l-3.7,27.5c0,0-7.7-10.6-19.7-10.6c-22.6,0-34.3,22.5-34.3,48.4
				c0,16.7,8.3,33.1,25.3,33.1c12.2,0,19-8.5,19-8.5l-0.9,7.3H289l15.6-97L283.4,340.3z M274.7,393.7c0,10.8-5.3,25.2-16.4,25.2
				c-7.3,0-10.8-6.2-10.8-15.8c0-15.8,7.1-26.2,16.1-26.2C270.9,376.8,274.7,381.8,274.7,393.7z"/>
			<path id="path13816" style="fill:#000066;" d="M-278.7,437.5l12.4-73.2l1.8,73.2h14l26.2-73.2l-11.6,73.2h20.9l16.1-97.1
				l-33.2-0.3l-19.7,59.5l-0.5-59.2h-30.4l-16.3,97.1L-278.7,437.5L-278.7,437.5z"/>
			<path id="path13818" style="fill:#000066;" d="M35.5,437.7c5.9-33.8,8.1-60.4,25.4-54.9c2.5-13.1,8.4-24.4,11.1-30
				c0,0-0.9-1.3-6.2-1.3c-9.1,0-21.3,18.5-21.3,18.5l1.8-11.5h-19l-12.7,79L35.5,437.7L35.5,437.7z"/>
			<g id="use14699" transform="translate(845.3001,0)">
				<path id="path13810_1_" style="fill:#000066;" d="M-687.4,356.7c-14,0-24.7,4.5-24.7,4.5l-3,17.6c0,0,8.9-3.6,22.2-3.6
					c7.6,0,13.1,0.9,13.1,7c0,3.7-0.7,5.1-0.7,5.1s-6-0.5-8.8-0.5c-19.9,0-36.2,7.5-36.2,30.2c0,17.9,12.2,22,19.7,22
					c14.4,0,20.1-9.1,20.4-9.1l-0.2,7.5h18l8-56.2C-659.4,357.4-680.2,356.7-687.4,356.7z M-684.3,402.3c0.4,3.4-0.9,19.6-13.2,19.6
					c-6.3,0-8-4.8-8-7.7c0-5.6,3-12.3,18-12.3C-684,401.9-684.9,402.2-684.3,402.3z"/>
			</g>
			<path id="use14701" style="fill:#000066;" d="M206.6,437.7c3.3-24.8,9.3-59.7,25.4-54.9c2.5-13.1,0.1-13-5.3-13
				c-9.1,0-11.2,0.3-11.2,0.3l1.8-11.5h-19l-12.7,79L206.6,437.7L206.6,437.7z"/>
		</g>
		<g id="g10289">
			<path id="path4157" style="fill:#FFFFFF;" d="M-64.6,446.3l2.6-17.3c-1.4,0-3.4,0.6-5.3,0.6c-7.1,0-7.9-3.8-7.4-6.6l5.7-35.4
				h10.8l2.6-19.2h-10.2l2.1-11.9h-20.4c-0.4,0.4-12,67.1-12,75.2c0,12,6.7,17.4,16.2,17.3C-72.4,448.9-66.6,446.8-64.6,446.3z"/>
			<path id="path4155" style="fill:#FFFFFF;" d="M-58.1,413.2c0,28.8,19,35.7,35.2,35.7c15,0,21.5-3.3,21.5-3.3l3.6-19.7
				c0,0-11.4,5-21.7,5c-21.9,0-18.1-16.3-18.1-16.3H4c0,0,2.7-13.2,2.7-18.6c0-13.4-6.7-29.8-29.1-29.8
				C-42.9,366.2-58.1,388.2-58.1,413.2z M-22.4,384.4c11.5,0,9.4,12.9,9.4,14h-22.6C-35.6,397.1-33.5,384.4-22.4,384.4z"/>
			<path id="path4151" style="fill:#FFFFFF;" d="M106.8,446.3l3.6-22.2c0,0-10,5-16.9,5c-14.5,0-20.3-11-20.3-22.9
				c0-24.1,12.4-37.3,26.3-37.3c10.4,0,18.7,5.8,18.7,5.8l3.3-21.6c0,0-12.4-5-23-5c-23.5,0-46.4,20.4-46.4,58.8
				c0,25.4,12.4,42.2,36.7,42.2C95.8,449.1,106.8,446.3,106.8,446.3z"/>
			<path id="path4149" style="fill:#FFFFFF;" d="M-176.8,366.5c-14,0-24.7,4.5-24.7,4.5l-3,17.6c0,0,8.8-3.6,22.2-3.6
				c7.6,0,13.1,0.9,13.1,7c0,3.7-0.7,5.1-0.7,5.1s-6-0.5-8.8-0.5c-17.6,0-36.2,7.5-36.2,30.2c0,17.9,12.2,22,19.7,22
				c14.4,0,20.6-9.3,20.9-9.4l-0.7,7.8h18l8-56.2C-148.7,367.2-169.5,366.5-176.8,366.5z M-172.4,412.2c0.4,3.4-2.2,19.5-14.4,19.5
				c-6.3,0-8-4.8-8-7.7c0-5.6,3-12.3,18-12.3C-173.3,411.7-173,412.1-172.4,412.2z"/>
			<path id="path4145" style="fill:#FFFFFF;" d="M-129.7,448.4c4.6,0,30.9,1.2,30.9-25.9c0-25.3-24.3-20.3-24.3-30.5
				c0-5.1,4-6.7,11.2-6.7c2.9,0,13.9,0.9,13.9,0.9l2.6-18c0,0-7.2-1.6-18.8-1.6c-15.1,0-30.4,6-30.4,26.6c0,23.3,25.5,21,25.5,30.8
				c0,6.6-7.1,7.1-12.6,7.1c-9.5,0-18.1-3.3-18.1-3.1l-2.7,17.8C-152.1,446-146.8,448.4-129.7,448.4z"/>
			<path id="path4139" style="fill:#FFFFFF;" d="M275.7,350.3l-4.4,27.3c0,0-7.7-10.6-19.7-10.6c-18.7,0-34.3,22.5-34.3,48.4
				c0,16.7,8.3,33.1,25.3,33.1c12.2,0,19-8.5,19-8.5l-0.9,7.3h19.8l15.6-97L275.7,350.3z M266.2,403.5c0,10.8-5.3,25.2-16.4,25.2
				c-7.3,0-10.8-6.2-10.8-15.8c0-15.8,7.1-26.2,16.1-26.2C262.5,386.6,266.2,391.7,266.2,403.5z"/>
			<path id="path4133" style="fill:#FFFFFF;" d="M-287.2,447.3l12.4-73.2l1.8,73.2h14.1l26.2-73.2l-11.6,73.2h20.9l16.1-97.1h-32.3
				l-20.1,59.6l-1-59.6h-29.8l-16.3,97.1C-306.8,447.3-287.2,447.3-287.2,447.3z"/>
			<path id="path4131" style="fill:#FFFFFF;" d="M27,447.5c5.9-33.8,7-61.2,21.2-56.1c2.5-13.1,4.9-18.1,7.6-23.6
				c0,0-1.3-0.3-3.9-0.3c-9.1,0-15.9,12.5-15.9,12.5l1.8-11.5h-19l-12.7,79H27z"/>
			<g id="use8523" transform="translate(847.0062,0)">
				<path id="path4149_1_" style="fill:#FFFFFF;" d="M-693.2,366.5c-14,0-24.7,4.5-24.7,4.5l-3,17.6c0,0,8.8-3.6,22.2-3.6
					c7.6,0,13.1,0.9,13.1,7c0,3.7-0.7,5.1-0.7,5.1s-6-0.5-8.8-0.5c-17.6,0-36.2,7.5-36.2,30.2c0,17.9,12.2,22,19.7,22
					c14.4,0,20.6-9.3,20.9-9.4l-0.7,7.8c0,0,18,0,18,0l8-56.2C-665.2,367.2-686,366.5-693.2,366.5z M-688.8,412.2
					c0.4,3.4-2.2,19.5-14.4,19.5c-6.3,0-8-4.8-8-7.7c0-5.6,3-12.3,18-12.3C-689.8,411.7-689.4,412.1-688.8,412.2z"/>
			</g>
			<g id="use8525" transform="translate(442.2857,0)">
				<path id="path4131_1_" style="fill:#FFFFFF;" d="M-244,447.5c5.9-33.8,7-61.2,21.2-56.1c2.5-13.1,4.9-18.1,7.6-23.6
					c0,0-1.3-0.3-3.9-0.3c-9.1,0-15.9,12.5-15.9,12.5l1.8-11.5h-19l-12.7,79H-244z"/>
			</g>
			<path id="text9407" style="fill:#FFFFFF;" d="M295.7,435.3c1,0,2.1,0.3,3,0.8c1,0.5,1.8,1.3,2.3,2.3c0.6,1,0.8,2,0.8,3.1
				c0,1.1-0.3,2.1-0.8,3.1c-0.5,1-1.3,1.8-2.3,2.3c-1,0.5-2,0.8-3.1,0.8c-1.1,0-2.1-0.3-3.1-0.8c-1-0.5-1.7-1.3-2.3-2.3
				c-0.6-1-0.8-2-0.8-3.1c0-1.1,0.3-2.1,0.8-3.1c0.6-1,1.3-1.8,2.3-2.3C293.6,435.5,294.7,435.3,295.7,435.3 M295.7,436.3
				c-0.9,0-1.7,0.2-2.5,0.7c-0.8,0.4-1.5,1.1-1.9,1.9c-0.5,0.8-0.7,1.7-0.7,2.6c0,0.9,0.2,1.8,0.7,2.6c0.5,0.8,1.1,1.5,1.9,1.9
				c0.8,0.4,1.7,0.7,2.6,0.7c0.9,0,1.8-0.2,2.6-0.7c0.8-0.5,1.5-1.1,1.9-1.9c0.5-0.8,0.7-1.7,0.7-2.6c0-0.9-0.2-1.8-0.7-2.6
				c-0.5-0.8-1.1-1.5-1.9-1.9C297.4,436.5,296.6,436.3,295.7,436.3 M293,444.9v-6.7h2.3c0.8,0,1.4,0.1,1.7,0.2
				c0.4,0.1,0.6,0.3,0.8,0.6c0.2,0.3,0.3,0.6,0.3,1c0,0.5-0.2,0.9-0.5,1.3c-0.3,0.4-0.8,0.6-1.4,0.6c0.2,0.1,0.4,0.2,0.6,0.4
				c0.3,0.3,0.6,0.7,1,1.3l0.8,1.3h-1.3l-0.6-1c-0.5-0.8-0.8-1.3-1.1-1.6c-0.2-0.2-0.5-0.2-0.9-0.2h-0.6v2.8L293,444.9 M294.1,441.1
				h1.3c0.6,0,1-0.1,1.3-0.3c0.2-0.2,0.3-0.4,0.3-0.7c0-0.2-0.1-0.4-0.2-0.5c-0.1-0.2-0.3-0.3-0.5-0.4c-0.2-0.1-0.5-0.1-1.1-0.1
				h-1.2L294.1,441.1"/>
		</g>
	</g>
</g>
</svg>
