<?xml version="1.0" encoding="utf-8"?>
<!-- Generator: Adobe Illustrator 19.1.0, SVG Export Plug-In . SVG Version: 6.00 Build 0)  -->
<svg version="1.1"
	 id="svg2" xmlns:dc="http://purl.org/dc/elements/1.1/" xmlns:svg="http://www.w3.org/2000/svg" xmlns:cc="http://creativecommons.org/ns#" xmlns:rdf="http://www.w3.org/1999/02/22-rdf-syntax-ns#"
	 xmlns="http://www.w3.org/2000/svg" xmlns:xlink="http://www.w3.org/1999/xlink" x="0px" y="0px" width="640px" height="218.9px"
	 viewBox="-400.6 579.4 640 218.9" style="enable-background:new -400.6 579.4 640 218.9;" xml:space="preserve">
<style type="text/css">
	.payments-st0{fill:#862165;}
</style>
<g id="layer1" transform="translate(-99.432492,-280.31876)">
	<g id="g2993" transform="matrix(1.25,0,0,-1.25,83.302741,453.98105)">
		<g id="g2995">
			<g>
				<g id="g2997" transform="matrix(1.3813839,0,0,1.3813839,-5.5315154,-5.218628)">
					<g id="g3003" transform="translate(137.0908,89.1885)">
						<path id="path3005" class="payments-st0" d="M-89.6-350.7c8.3,0,15.2,6.8,15.2,15.2s-6.8,15.2-15.2,15.2s-15.2-6.8-15.2-15.2
							C-104.8-344-97.9-350.7-89.6-350.7 M-206.1-358.9c-0.7-1.7-5.6-15.7-17.5-30.2v61.9l-31.9-6.3v-112.1h31.9v34.6
							c9.2-13.8,13.8-34.6,13.8-34.6h38.1c-3.8,15.7-20.3,44.7-20.3,44.7c14.7,18.8,21.3,38.8,22.4,42.2
							C-169.6-358.9-206.1-358.9-206.1-358.9z M-122.3-357.8c-28.5-1-43-13.8-43-39.1v-48.7h31.2v39.8c0,15.2,1.9,21.7,20,22.4v25.3
							C-117.3-357.6-122.3-357.8-122.3-357.8 M-308.9-371.3c-3.9,0.3-12.9,0.8-12.9,8.9c0,9.7,12.9,9.7,17.8,9.7
							c8.6,0,19.6-2.5,27.5-4.9c0,0,4.5-1.5,8.2-3.2l0.4-0.1v0.4v26.6l-0.4,0.1c-9.3,3.3-20.2,6.4-40.3,6.4
							c-34.8,0-47.2-20.3-47.2-37.6c0-10,4.3-33.5,44.1-36.3c3.3-0.1,12.4-0.7,12.4-9.2c0-7-7.4-11-19.6-11
							c-13.5,0-26.6,3.5-34.6,6.7v-27.7c12-3.1,25.3-4.7,41.2-4.7c33.9,0,49.3,19.2,49.3,38.1C-263.2-387.3-280.3-373.2-308.9-371.3
							 M-105-445.7h30.9v86.5H-105V-445.7z M-16-332.7v-112.8h30.9v118.4C14.9-327.3-16-332.7-16-332.7z M-61.1-332.7l30.9,5.6
							v-118.4h-30.9C-61.1-445.7-61.1-332.7-61.1-332.7z"/>
					</g>
				</g>
			</g>
		</g>
	</g>
</g>
</svg>
