<?xml version="1.0" encoding="utf-8"?>
<!-- Generator: Adobe Illustrator 21.1.0, SVG Export Plug-In . SVG Version: 6.00 Build 0)  -->
<svg version="1.1" id="Layer_1" xmlns="http://www.w3.org/2000/svg" xmlns:xlink="http://www.w3.org/1999/xlink" x="0px" y="0px"
	 viewBox="0 0 2250.1 383.1" style="enable-background:new 0 0 2250.1 383.1;" xml:space="preserve">
<style type="text/css">
	.payments-st0{fill:#8DC640;}
</style>
<g>
	<path class="payments-st0" d="M1984.4,162.6c-12.1,8.4-29.6,12.6-53.5,12.6h-10.4h-13.4l18.2-98.4h9.2h8.2c19.9,0,34.4,3.2,44.4,9.7
		c7.8,5.1,17.1,15.2,17.1,34.3C2004.3,143.8,1993.6,156.2,1984.4,162.6 M566.6,286.1H382.7l11.9-64.3h115.4l13.1-72.5H408.8l11-63.7
		h183.6L566.6,286.1z M2083.5,30.4c-27-18.5-68-27.9-121.6-27.9h-140.5l-52.2,283.6h-184.1l11.8-64.3h110.9l13.2-72.3l-110.8,0.2
		l11.9-64.1h114.2l15.2-83.1h-232l-49.6,269h-85.1l49.9-269h-121.3l-49.6,269h-82.9l50-269h-121.2l-52.4,283.6H872l11.7-64.3H995
		l13.1-71.9l-111.2-0.1l11.8-64.2h115.5l15.1-83.1H316.6l-41.1,224.7l-82-224.8H67.7L0,369.3h120.1l41-230.9l79.5,230.9h430.6
		l52.3-283.6h67.4l-52.4,283.6h1132.9l32.8-179.1l53.2,179.1h120.2L2022.6,223l12.6-2.7c27.7-5.9,49.4-18.7,64.4-37.9
		c15.1-19.3,22.7-44.1,22.7-73.9C2122.3,73.8,2109.7,48.2,2083.5,30.4"/>
	<path class="payments-st0" d="M2182.6,325.9l16.4-0.9c3.5-0.2,6.2-0.7,8.1-1.5c1.9-0.8,3.4-2,4.3-3.7c0.9-1.6,1.4-3.4,1.3-5.2
		c-0.1-2.7-1.3-4.9-3.3-6.6c-2.1-1.7-5.2-2.3-9.5-2.1l-18.2,0.9L2182.6,325.9z M2176.5,358.5l-2.9-57.7l25.6-1.3
		c5.1-0.3,9,0.1,11.8,1c2.7,0.9,5,2.6,6.7,5.2c1.7,2.5,2.7,5.4,2.8,8.5c0.2,4.1-0.9,7.6-3.4,10.6c-2.5,2.9-6.5,4.9-12,6
		c2.1,0.9,3.7,1.7,4.7,2.6c2.3,1.9,4.6,4.4,6.7,7.4l10.8,15.2l-9.5,0.5l-8.2-11.6c-2.4-3.4-4.4-5.9-5.9-7.7c-1.5-1.8-2.9-3-4.1-3.6
		c-1.1-0.7-2.4-1.1-3.5-1.4c-0.9-0.1-2.3-0.2-4.3,0l-8.8,0.4l1.3,25.6L2176.5,358.5z"/>
	<path class="payments-st0" d="M2151.5,330.6c-0.6-11.9,3.5-23.4,11.5-32.2c8-8.9,19-14.1,31-14.7c24.6-1.3,45.7,17.7,46.9,42.4
		c0,0.8,0.1,1.6,0.1,2.3c0,23.6-18.6,43.5-42.5,44.7C2173.8,374.2,2152.8,355.2,2151.5,330.6 M2193.4,274.4
		c-14.4,0.8-27.6,7-37.2,17.7c-9.6,10.7-14.6,24.5-13.8,38.9c1.6,29.7,26.9,52.6,56.6,51.1c29.6-1.5,52.6-26.9,51.1-56.6v0
		C2248.5,295.8,2223.2,272.9,2193.4,274.4"/>
</g>
</svg>
