<?xml version="1.0" encoding="utf-8"?>
<!-- Generator: Adobe Illustrator 21.1.0, SVG Export Plug-In . SVG Version: 6.00 Build 0)  -->
<svg version="1.1" id="Layer_1" xmlns="http://www.w3.org/2000/svg" xmlns:xlink="http://www.w3.org/1999/xlink" x="0px" y="0px"
	 viewBox="0 0 816.3 383.4" style="enable-background:new 0 0 816.3 383.4;" xml:space="preserve">
<style type="text/css">
	.payments-st0{fill:#64912b;}
	.payments-st1{fill:#8DBA4A;}
	.payments-st2{fill:#FFFFFF;}
	.payments-st3{fill:#E9661E;}
</style>
<g id="Layer_3">
	<g>
		<path class="payments-st0" d="M53.1,377.8c-26.3,0-47.7-21.4-47.7-47.7V54.5c0-26.3,21.4-47.7,47.7-47.7h710.2c26.3,0,47.7,21.4,47.7,47.7
			v275.6c0,26.3-21.4,47.7-47.7,47.7H53.1z"/>
		<path class="payments-st1" d="M763.3,12c23.3,0,42.3,19,42.3,42.3v275.6c0,23.3-19,42.3-42.3,42.3H53.1c-23.3,0-42.3-19-42.3-42.3V54.5
			c0-23.3,19-42.3,42.3-42.3h710.2 M763.3,1.4H53.1C23.7,1.4,0,25.1,0,54.5v275.6c0,29.3,23.7,53.1,53.1,53.1h710.2
			c29.3,0,53.1-23.7,53.1-53.1V54.5C816.2,25.1,792.5,1.4,763.3,1.4L763.3,1.4z"/>
	</g>
</g>
<g id="Layer_1_copy">
	<g>
		<g>
			<path class="payments-st2" d="M663.9,287.2c-0.4,1.9-0.8,4-1,5.9c-1.5,8.5-3.2,17.2-4.7,25.8c-0.8,4.1-1.5,8.2-2.3,12.2
				c-0.1,1-0.3,0.9-1.1,1c-0.3,0-0.6,0-0.9,0c-94.9,0-189.9,0-284.8,0c-1.9,0-1.9,0-1.5-1.9c1.8-9.7,3.6-19.4,5.4-29.1
				c1.5-8.5,3.2-17.1,4.7-25.6c0.9-4.8,1.8-9.6,2.7-14.4c0-0.1,0-0.4,0.1-0.5c0.1-0.5,0-0.8-0.5-0.6c-0.3,0-0.4,0-0.6,0
				c-4.8,0-9.7,0-14.5,0c-0.3,0-0.4,0-0.6,0c-0.4,0-0.6,0.1-0.8,0.6c-0.3,1.4-0.5,2.8-0.8,4.2c-1.3,7.1-2.7,14.2-4,21.3
				c-1.4,7.5-2.8,15-4.2,22.6c-1.1,6.4-2.3,12.8-3.6,19.1c-0.3,1.1-0.4,2.3-0.6,3.3c-0.3,1-0.3,1-1.3,1c-0.1,0-0.4,0-0.5,0
				c-35.5,0-71,0-106.5,0c-1.8,0-1.5,0.3-2-1.5c-3.2-9.3-6.4-18.5-9.6-27.8c-2-5.9-4.1-11.7-6.1-17.7c-1.1-3.4-2.3-6.8-3.6-10.2
				c-0.1-0.3-0.1-0.6-0.5-0.9c-0.3,0.4-0.3,0.9-0.4,1.4c-1,6-2.2,12-3.2,17.9c-1.3,7-2.4,13.9-3.7,20.9c-1,5.6-2,11.2-3.1,17
				c-0.1,1-0.3,1-1.3,1c-6.1,0-12.4,0-18.5,0c-3.2,0-6.2,0-9.4,0c-0.3,0-0.5,0-0.8,0c-0.6,0-0.8-0.1-0.6-0.8c0.1-1,0.4-2.2,0.6-3.2
				c1.9-9.9,3.7-20,5.6-30c1.8-9.3,3.4-18.6,5.1-28.1c1.8-9.7,3.6-19.4,5.4-29.1c0.1-0.5,0.3-1.1,0.3-1.7c0.1-0.4,0.3-0.6,0.8-0.6
				c0.3,0,0.5,0,0.8,0c9.7,0,19.5,0,29.2,0c0.1,0,0.3,0,0.4,0c1,0,1,0,1.4,1c0.8,2.2,1.7,4.5,2.4,6.6c4.7,13,9.6,26.1,14.3,39.2
				c1.1,3.1,2.2,6.1,3.3,9.1c0.1,0.3,0.1,0.5,0.4,0.6c0.3-0.3,0.3-0.6,0.3-0.9c2.2-11.9,4.3-23.8,6.5-35.7
				c1.1-6.2,2.3-12.5,3.4-18.7c0-0.3,0.1-0.4,0.1-0.6c0-0.4,0.3-0.6,0.8-0.6c0.3,0,0.5,0,0.8,0c60.5,0,120.8,0,181.2,0
				c1.7,0,1.4,0.1,1.1,1.4c-1.1,6.2-2.3,12.6-3.4,18.9c-0.1,0.9-0.3,0.9-1.1,0.9c-2.8,0-5.5,0-8.3,0c-6.1,0-12.4,0-18.5,0
				c-0.3,0-0.5,0-0.8,0c-0.8,0-0.9,0.1-1,0.9c-0.3,1.7-0.6,3.2-0.9,4.8c-0.6,3.2-1.1,6.4-1.8,9.7c0,0.1-0.1,0.4-0.1,0.5
				c0,0.4,0.1,0.5,0.4,0.5c0.4,0,0.6,0,1,0c8.4,0,17,0,25.4,0c1.5,0,1.4-0.1,1.1,1.4c-0.9,5.4-1.9,10.6-2.9,15.9c-0.3,1-0.3,1-1.3,1
				c-8.5,0-17.1,0-25.6,0c-1.4,0-1.5-0.3-1.9,1.5c-0.8,4.6-1.7,9.1-2.4,13.6c0,0.1,0,0.4-0.1,0.5c0,0.4,0.1,0.6,0.5,0.6
				c0.3,0,0.5,0,0.8,0c14.8,0,29.6,0,44.4,0c1.7,0,1.3,0,1.5-1.4c0.6-2.9,1.1-6,1.7-8.9c1.3-7.1,2.6-14.2,4-21.3
				c1.4-7.5,2.8-15,4.2-22.6c1-5.6,2-11.2,3.1-16.8c0-0.1,0.1-0.4,0.1-0.5c0.1-0.8,0.1-0.8,1-0.8c1,0,2.2,0,3.2,0c8.4,0,17,0,25.4,0
				c1.4,0,1.4,0,1.1,1.4c-2,11.2-4.2,22.3-6.2,33.5c-1.8,9.7-3.6,19.4-5.4,28.9c-0.3,1.3-0.5,2.4-0.6,3.7c-0.1,0.8,0,0.8,0.8,0.9
				c0.3,0,0.6,0,0.9,0c5.9,0,11.7,0,17.7,0c0.1,0,0.3,0,0.4,0c1.1,0,1.3,0,1.4-1.1c0.5-3.1,1.1-6.1,1.7-9.2c1.1-6,2.2-12,3.3-18.1
				c1.4-7.5,2.8-15,4.2-22.6c1-5.6,2-11.1,3.1-16.7c0.1-0.9,0.3-0.9,1.1-0.9c4.3,0,8.8,0,13.1,0c5.1,0,10.1,0,15.2,0
				c0.3,0,0.5,0,0.8,0c0.8,0,0.8,0.1,0.6,0.9c-0.6,3.6-1.4,7.3-2,10.8c-1.3,6.6-2.4,13.4-3.7,20c-1.1,6-2.2,12-3.3,18
				c-1.1,5.9-2.2,11.9-3.3,17.7c0,0.1,0,0.3,0,0.4c0,0.4,0,0.6,0.5,0.6c0.3,0,0.4,0,0.6,0c6.4,0,12.8,0,19.3,0c0.1,0,0.3,0,0.3,0
				c0.9,0,0.9,0,1.1-1c0.5-2.9,1-5.9,1.7-8.8c1.4-7.5,2.8-15,4.2-22.6c1.4-7.9,2.9-15.8,4.3-23.6c0.8-3.8,1.4-7.8,2.2-11.6
				c0.1-0.9,0.1-0.9,1-0.9c0.3,0,0.5,0,0.8,0c18.6,0,37.2,0,55.9,0c0.3,0,0.6,0,0.9,0c0.6,0,0.6,0.1,0.6,0.8c-0.3,1.8-0.6,3.6-1,5.2
				c-0.9,4.7-1.7,9.3-2.6,14c-0.3,1.1-0.3,1.1-1.4,1.1c-8.8,0-17.6,0-26.5,0c-1.7,0-1.4-0.1-1.7,1.4c-0.9,4.6-1.7,9.2-2.6,13.8
				c0,0.3,0,0.4,0,0.6c0,0.3,0.1,0.4,0.4,0.4c0.4,0,0.6,0,1,0c8.5,0,17,0,25.5,0c1.3,0,1.3,0,1,1.3c-1,5.4-1.9,10.7-2.9,15.9
				c-0.3,1.1-0.1,1.3-1.4,1.3c-8.5,0-17.1,0-25.6,0c-1.8,0-1.4,0-1.7,1.4c-0.9,4.5-1.7,8.9-2.4,13.3c0,0.3-0.1,0.5-0.1,0.6
				c-0.1,0.8,0,0.8,0.6,0.9c0.3,0,0.5,0,0.8,0c14.5,0,29.2,0,43.7,0c1.7,0,1.5,0.1,1.8-1.5c1-5.6,2-11.2,3.1-16.8
				c1.3-6.8,2.4-13.5,3.7-20.3c1.1-6.1,2.3-12.2,3.3-18.4c0.9-4.7,1.8-9.6,2.7-14.3c0.1-0.8,0.3-0.9,1-0.9c1.3,0,2.6,0,3.7,0
				c11.5,0,23-0.1,34.4,0c7.1,0.1,14.3,1,21,3.6c3.7,1.4,7,3.3,9.8,6c3.3,3.2,5.4,7,6.2,11.6c0.3,1.5,0.4,2.9,0.5,4.5
				c0.1,3.3-0.1,6.5-0.9,9.7c-1.1,5-3.4,9.3-7.1,12.9c-3.3,3.2-7.4,5.4-11.9,6.6c-1.4,0.4-2.8,0.6-4.1,1c-0.3,0-0.5,0.1-0.8,0.1
				c-0.4,0.1-0.4,0.3-0.4,0.6c0.1,0.3,0.1,0.4,0.3,0.6c4.3,11.6,8.7,23.2,13.1,34.8c0,0,0,0.1,0.1,0.1c0.4,1,0.4,1-0.8,1
				c-9.4,0-18.9,0-28.4,0c-1.1,0-1.1,0-1.4-1.1c-2.6-8.5-5.1-17.1-7.7-25.5c-1.7-5.7-3.4-11.5-5.1-17.1c-0.1-0.4-0.3-0.6-0.4-1
				C664.1,287.2,664.1,287.2,663.9,287.2z M300,310.9c7.4,0,14.8,0,22.2,0c1.3,0,1.3,0,1.4-1.1c0.9-5,1.8-9.9,2.8-14.9
				c2-11.2,4.1-22.6,6.2-33.8c0.3-1,0.1-1.1-0.9-1.1h-0.1c-14.8,0-29.6,0-44.4,0c-1.1,0-1.1,0-1.4,1.1c-0.8,4.6-1.5,9.1-2.4,13.6
				c-0.3,1.4-0.3,1.4,1.1,1.4c8.7,0,17.5,0,26.1,0c0.3,0,0.6,0,0.9,0c0.4,0,0.5,0.1,0.5,0.5c0,0.1,0,0.4-0.1,0.5
				c-1,5.6-2,11.1-3.1,16.7c-0.1,0.8-0.3,0.8-1,0.9c-1,0-2.2,0-3.2,0c-8,0-16.1,0-24.1,0c-1.1,0-1.1,0-1.3,0.9
				c-0.9,4.7-1.8,9.4-2.7,14.2c-0.3,1.3-0.3,1.3,1,1.3C285.2,310.9,292.6,310.9,300,310.9z M670.1,282.6c0.9,0,1.8,0,2.7,0
				c3.3-0.1,6.5-0.5,9.4-1.9s5.1-3.4,6.4-6.6c0.8-1.9,0.9-4,0.9-6c-0.1-4.2-2.2-7.3-6-8.9c-1.9-0.9-3.8-1.1-5.9-1.4
				c-2.3-0.3-4.5-0.3-6.8-0.3c-1.7,0-1.4,0-1.7,1.4c-0.9,4.7-1.8,9.3-2.6,14c-0.5,2.8-1,5.6-1.5,8.3c-0.3,1.1-0.1,1.1,0.9,1.1
				C667.4,282.6,668.7,282.6,670.1,282.6z"/>
			<path class="payments-st2" d="M738.4,332c-6.6,0.3-13.6-5.4-13.6-13.8c0-7.7,6.1-13.6,13.8-13.6c8,0,13.9,6.9,13.6,14.2
				C751.9,325.9,745.8,332.4,738.4,332z M738.4,329.7c6.2,0.3,11.4-5.5,11.4-11.1c0.1-6-4.8-11.6-11.4-11.6
				c-6.1,0-11.4,5.2-11.4,11.4C727.1,325.2,732.8,329.9,738.4,329.7z"/>
			<g>
				<path class="payments-st2" d="M733.8,310.8c1-0.1,2.6-0.3,4.2-0.3c2.2,0,3.7,0.4,4.7,1.1c0.9,0.6,1.3,1.8,1.3,3.1c0,1.9-1.3,3.3-2.8,3.8
					v0.1c1,0.4,1.8,1.4,2.2,2.9c0.5,1.9,0.9,3.7,1.1,4.2h-2.8c-0.3-0.5-0.6-1.7-1-3.6c-0.4-2-1.1-2.6-2.7-2.7h-1.4v6.2h-2.8V310.8
					L733.8,310.8z M736.5,317.4h1.7c1.9,0,3.1-1,3.1-2.6c0-1.7-1.1-2.4-2.9-2.4c-0.9,0-1.4,0.1-1.7,0.1v4.8H736.5z"/>
			</g>
		</g>
	</g>
	<g>
		<path d="M197.3,66.7c4.6-1.3,9.2-2.8,13.9-3.8c42.7-8.5,75.1,20.7,80.7,53.6c3.1,17.9,0.5,34.7-9.7,49.7
			c-11.1,16.3-26.3,26.9-46.4,29.8c-17.3,2.6-33.4-0.4-48-9.9c-16.7-11.1-27.4-26.4-30.2-46.8c-0.8-5.2-1-10.6-1-15.8
			c0-28.8,0-57.6,0-86.3c0-1.4,0-2.8,0-4.3c-0.1-2.8,1-4.1,4-4.1c10.6,0,21.3,0.1,31.9,0c2.9,0,3.8,1.4,3.8,4.2
			c-0.1,9.2,0,18.4,0,27.5C196.4,62.4,195.8,64.5,197.3,66.7z M252.4,129.6c0.9-15.6-10.8-28.8-27.2-29.3
			c-14.8-0.5-27.7,13-27.7,28.4c-0.1,17.9,15.3,28.8,27.2,29.1C238.9,158.1,253.8,143.7,252.4,129.6z"/>
		<path d="M489.3,125.6c9.1-12.4,17.2-23.6,25.4-34.8c5.4-7.4,10.8-14.8,16.2-22.3c2.2-3.2,4.7-4.3,8.7-4.3
			c10.6,0.3,21.3,0.1,31.9,0.1c1.8,0,3.7-0.5,5.6,1.1c-1.3,3.4-4.1,5.9-6.2,8.7c-10.5,14.2-21,28.1-31.5,42.2
			c-3.1,4.2-3.1,4.2-0.1,8.2c8.9,11.9,18,23.8,26.9,35.7c7.4,9.8,14.7,19.6,22.1,29.3c0.8,1.1,2.2,2.2,1.1,3.7c-0.8,1.1-2.2,1-3.3,1
			c-12.2,0-24.5,0-36.7,0c-2.8,0-4.5-1.4-6-3.4c-8.4-11.7-17-23.5-25.5-35.2c-0.4-0.5-0.6-1-1-1.5c-2.6-3.2-3.4-3.2-6,0.3
			c-8.8,11.7-17.7,23.5-26.3,35.3c-2.4,3.3-5,4.8-9.2,4.7c-6.9-0.3-13.9,0-20.8-0.1c-4-0.1-4.2-0.4-4.5-4.2c-0.1-1.3,0-2.4,0-3.7
			c0-50,0-100.1,0-150.1c0-7.7,0-7.7,7.7-7.7c8.5,0,17.2,0,25.8,0c6.1,0,6.1,0.1,6.1,6.1c0,27.5,0,55.1,0,82.8
			C489.3,119.8,489.3,122.1,489.3,125.6z"/>
		<path d="M302.5,128.3c-1.8-36.2,32.8-69.4,70.1-66.4c31.2-1.9,66.3,27.3,65.9,67.3c-0.4,40.6-32.1,67.8-68.9,68
			C332.5,197.2,300,163.9,302.5,128.3z M343.2,129.2c0,8.2,1,11.6,5.9,18.1c8.4,11.1,23.8,13.1,34.6,6.9
			c13.6-7.8,18.7-26.8,9.3-41.1c-6.5-9.8-15.6-13.9-26-12.5C352,102.7,341.8,116.3,343.2,129.2z"/>
		<path d="M720.9,102.8c0,8.9,0,18,0,26.9c0.1,22.1-9.3,39.4-26.1,52.9c-22.8,18.4-56.2,19.1-80.1,2.7c-14.8-10.2-24.7-24.1-28.4-42
			c-1-4.7-1.7-9.6-1.7-14.5c0-19,0-38,0-57c0-1.3,0-2.4,0-3.7c-0.1-2.9,1.4-4,4.2-3.8c3.1,0.1,6.1,0,9.2,0c6.8,0,13.5,0,20.3,0
			c5.7,0,5.9,0.1,5.9,5.9c0,18.4,0,36.7,0,55.1c0,12.4,4.8,22.2,15.4,28.8c9.3,5.9,22.6,4.3,30.7-3.1c7.5-6.9,11.4-15,11.1-25.4
			c-0.3-17.7-0.1-35.6-0.1-53.3c0-1.4,0-2.8,0-4.3c0-2.6,1.1-3.7,3.7-3.7c4.8,0,9.8,0,14.7,0c5.4,0,10.6-0.1,15.9,0
			c4.8,0.1,5.1,0.3,5.1,5.4C721.1,80.7,720.9,91.8,720.9,102.8z"/>
		<path class="payments-st3" d="M53.3,129.1C53.2,111.9,66.4,98.7,82,98.8c15,0.3,28.9,11,29.1,30.1c0.1,18.5-14.2,29.6-27.7,30.2
			C68.4,159.8,53.1,147.3,53.3,129.1z"/>
	</g>
	<g>
		<path class="payments-st2" d="M83.7,272.3l-4.6,21.8h0.1c2.8-3.3,7.1-5.4,11.7-5.4c8,0,11.6,6.5,11.6,13.3c0,12.4-8.2,26.7-25.3,26.7
			c-9.1,0-13.6-4-13.6-10.7c0-2.3,0.4-4.7,0.9-7l7.8-38.6H83.7L83.7,272.3z M75.8,311.7c-0.1,1.3-0.5,2.6-0.4,4.2
			c0.1,2.7,1.7,4.2,4.3,4.2c6.5,0,11.2-9.1,11.2-15.8c0-3.7-1.5-6.5-5-6.5c-4.1,0-8,4.1-9.4,10.8L75.8,311.7z"/>
		<path class="payments-st2" d="M119.1,289.6l2.3,16.6c0.5,4,0.9,6.6,1.3,9.1h0.1c0.9-2.3,1.7-4.7,3.3-8.9l7-16.8H145l-13.6,27.4
			c-5.1,10.2-9.6,17.1-14.7,21.9c-4.5,4.2-9.8,6.1-12.2,6.5l-2.6-9.6c1.8-0.5,4.3-1.5,6.5-3.1c2.6-1.8,4.7-4.1,6.1-6.6
			c0.4-0.5,0.4-1,0.3-1.9l-7.5-34.6C107.3,289.6,119.1,289.6,119.1,289.6z"/>
	</g>
</g>
</svg>
