<?xml version="1.0" encoding="utf-8"?>
<!-- Generator: Adobe Illustrator 19.1.0, SVG Export Plug-In . SVG Version: 6.00 Build 0)  -->
<svg version="1.1" id="Layer_1" xmlns="http://www.w3.org/2000/svg" xmlns:xlink="http://www.w3.org/1999/xlink" x="0px" y="0px"
	 width="640px" height="637.4px" viewBox="-525.3 78.7 640 637.4" style="enable-background:new -525.3 78.7 640 637.4;"
	 xml:space="preserve">
<g>
	<path style="fill:#0073B8;" d="M-206.2,78.7c50.2,0,97.8,11.6,139.6,32.2c6.4,3.2,13.5,6.4,19.9,10.3l-29.6,26.4l-44.4-45.7
		l-74,66.9l-44.4-48.2l-138.3,124.8l88.8,97.8l-34.7,30.9l87.5,97.8l-34.7,30.9l124.8,138.9l74-68.2l64.3,73.3
		c-12.9,9.6-26.4,19.3-41.8,27.7c-46.3,26.4-100.3,41.8-156.9,41.8c-175.6,0-319-143.4-319-318.4
		C-525.3,222.2-381.8,78.7-206.2,78.7L-206.2,78.7z"/>
	<polygon style="fill:#0073B8;" points="-264.7,377.2 -188.8,309 -120.7,384.9 -196.6,453.1 	"/>
	<polygon style="fill:#0073B8;" points="-210.7,508.4 -134.8,440.2 -66.6,516.1 -142.5,584.3 	"/>
	<polygon style="fill:#0073B8;" points="-318.8,247.9 -242.9,179.7 -174.7,255.6 -250.6,323.8 	"/>
	<polygon style="fill:#0073B8;" points="-179.8,211.2 -122.6,159.8 -71.8,217 -128.4,267.8 	"/>
	<polygon style="fill:#0073B8;" points="-78.9,445.4 -21.6,394.6 29.2,451.2 -27.4,502.6 	"/>
	<polygon style="fill:#0073B8;" points="-28.7,560.5 27.9,509 79.4,566.3 22.8,617.1 	"/>
	<polygon style="fill:#0073B8;" points="-5.5,297.4 31.8,263.3 66.5,301.3 28.6,335.4 	"/>
	<polygon style="fill:#0073B8;" points="-54.4,184.9 -16.5,150.8 17.6,188.7 -20.3,222.8 	"/>
	<polygon style="fill:#0073B8;" points="42.7,410 80.7,375.9 114.8,413.9 76.8,447.9 	"/>
	<polygon style="fill:#0073B8;" points="-127.1,325.7 -70.5,274.3 -19,330.9 -76.3,382.3 	"/>
</g>
</svg>
