<?xml version="1.0" encoding="utf-8"?>
<!-- Generator: Adobe Illustrator 19.1.0, SVG Export Plug-In . SVG Version: 6.00 Build 0)  -->
<svg version="1.1" id="Layer_1" xmlns="http://www.w3.org/2000/svg" xmlns:xlink="http://www.w3.org/1999/xlink" x="0px" y="0px"
	 width="640px" height="670.9px" viewBox="-498.9 61.6 640 670.9" style="enable-background:new -498.9 61.6 640 670.9;"
	 xml:space="preserve">
<path id="sign_1_" style="fill:#F8991D;" d="M8,511.1c-6.1-2.5-7.1,5.1-5.1,10.1c3.6,11.2,8.1,20.3,11.7,21.8
	c3.6,2,7.1-2.5,4.6-14.2C18.1,523.8,14,513.7,8,511.1z M-42.3,531.9L-42.3,531.9c-0.5,0-0.5,0-0.5-0.5h-0.5h-0.5c-0.5,0-0.5,0-1-0.5
	c-4.1-0.5-8.1,0-11.2,2c-7.6,5.1-8.6,16.7-2.5,25.9c3,4.1,6.6,7.1,10.7,8.6c0,0,0,0,0.5,0h0.5h0.5c0,0,0,0,0.5,0c0.5,0,0.5,0,1,0
	c4.1,1,8.1,0,11.2-2c7.6-5.1,8.6-16.7,2.5-25.4C-34.2,536.5-38.2,533.4-42.3,531.9z M135.3,712.1c-18.3-37-50.7-64.4-85.8-85.2
	c-12.2-7.1-25.9-12.2-37.5-16.2c-27.4-9.1-54.3-11.2-85.2-16.2c-25.4-4.1-45.2-14.7-66.5-28.9c-11.2-7.6-20.3-18.3-27.9-28.9
	c-1.5-2-8.6-10.7-7.6-13.7c0,0-5.1,19.8,5.1,47.7c-90.3-4.6-169.5-54.8-206-115.2c-66.5-111.6-43.1-246.6,45.7-306.5
	c89.3-59.4,224.3-17.3,296.8,90.3C12,306.6,23.7,385.3,3.9,449.7c0,0.5-0.5,1-0.5,1.5C-34.7,422.8-70.2,437-70.2,437
	c38.6-4.1,69,26.9,69,26.9c4.6,4.1,8.6,8.6,12.7,13.2c1,1,2,2.5,2.5,3.6c10.1,13.7,16.2,28.9,19.3,44.7
	c76.6-97.4,89.3-231.9,21.3-336.4C-31.6,55.5-215.8,21.5-356.9,112.8c-140,91.3-184.2,273-97.9,406.4
	c71,109.6,237.5,143.1,332.9,113.2c36-11.2,159.8-22.3,245.6,79.7c0,0,7.6,8.6,11.7,18.3c0,0,1,3.6,4.6,1.5
	C140.9,731.3,143.4,728.3,135.3,712.1z"/>
</svg>
