<?xml version="1.0" encoding="utf-8"?>
<!-- Generator: Adobe Illustrator 19.1.0, SVG Export Plug-In . SVG Version: 6.00 Build 0)  -->
<svg version="1.1" id="Layer_1" xmlns="http://www.w3.org/2000/svg" xmlns:xlink="http://www.w3.org/1999/xlink" x="0px" y="0px"
	 width="640px" height="292.6px" viewBox="-454.6 250.7 640 292.6" style="enable-background:new -454.6 250.7 640 292.6;"
	 xml:space="preserve">
<style type="text/css">
	.payments-st0{fill:#E41E2C;}
	.payments-st1{fill:url(#SVGID_1_);}
	.payments-st2{fill:none;}
	.payments-st3{fill:#FFFFFF;}
	.payments-st4{font-family:'AdobeHeitiStd-Regular-GBpc-EUC-H';}
	.payments-st5{font-size:135.3143px;}
</style>
<g id="Layer_2">
</g>
<g id="Layer_3">
	<path class="payments-st0" d="M159.8,543.3H-429c-13.9,0-25.6-11.7-25.6-25.6V276.3c0-13.9,11.7-25.6,25.6-25.6h588.8
		c13.9,0,25.6,11.7,25.6,25.6v241.4C185.4,531.6,173.7,543.3,159.8,543.3z"/>
</g>
<g id="Layer_1_1_">

		<linearGradient id="SVGID_1_" gradientUnits="userSpaceOnUse" x1="-134.6" y1="532.2857" x2="-134.6" y2="265.3143" gradientTransform="matrix(1 0 0 -1 0 795.8)">
		<stop  offset="0" style="stop-color:#FFFFFF;stop-opacity:0.8"/>
		<stop  offset="0.531" style="stop-color:#EE516F;stop-opacity:0.7"/>
		<stop  offset="0.7301" style="stop-color:#E83D50;stop-opacity:0.8273"/>
		<stop  offset="0.9114" style="stop-color:#E52936;stop-opacity:0.9434"/>
		<stop  offset="1" style="stop-color:#E3202D"/>
	</linearGradient>
	<path class="payments-st1" d="M158,530.5h-585.1c-8,0-14.6-6.6-14.6-14.6V278.1c0-8,6.6-14.6,14.6-14.6H158c8,0,14.6,6.6,14.6,14.6v237.7
		C172.6,523.9,166,530.5,158,530.5z"/>
</g>
<g id="Layer_4">
	<rect x="-406.3" y="345.1" class="payments-st2" width="543.1" height="176.3"/>
	<text transform="matrix(1 0 0 1 -406.24 453.4948)" class="payments-st3 payments-st4 payments-st5">银行转账</text>
</g>
</svg>
