<?xml version="1.0" encoding="utf-8"?>
<!-- Generator: Adobe Illustrator 21.1.0, SVG Export Plug-In . SVG Version: 6.00 Build 0)  -->
<svg version="1.1" id="Слой_1" xmlns="http://www.w3.org/2000/svg" xmlns:xlink="http://www.w3.org/1999/xlink" x="0px" y="0px"
	 viewBox="0 0 2559.4 637.4" style="enable-background:new 0 0 2559.4 637.4;" xml:space="preserve">
<style type="text/css">
	.payments-st0{fill-rule:evenodd;clip-rule:evenodd;fill:#4E79B8;}
	.payments-st1{fill:#4E79B8;}
</style>
<g>
	<path class="payments-st0" d="M2237,1.2c49.9,0,97.1,11.6,139.2,32.2c6.6,3.1,13.2,6.6,19.8,10.4L2366.7,70l-43.9-45.4l-74.1,66.1l-44-48.1
		l-138.1,124.5l88.5,97.6l-34.8,30.6l87.2,97.7l-34.6,30.5l124.6,138.7l74-68.1l64,73c-12.7,9.9-26.6,19.2-41.8,27.8
		c-46.3,26.4-99.7,41.5-156.6,41.5c-174.9,0-317.6-142.7-317.6-317.6C1919.4,143.9,2062.1,1.2,2237,1.2L2237,1.2z"/>
	<polygon class="payments-st0" points="2179.1,298.7 2254.7,230.7 2322.7,306.3 2247.1,374.2 2179.1,298.7 	"/>
	<polygon class="payments-st0" points="2232.8,429.2 2308.4,361.2 2376.4,436.8 2300.8,504.8 2232.8,429.2 	"/>
	<polygon class="payments-st0" points="2125.1,169.8 2200.6,101.8 2268.6,177.3 2193.1,245.3 2125.1,169.8 	"/>
	<polygon class="payments-st0" points="2263.7,133.2 2320.3,82.2 2371.3,138.8 2314.7,189.8 2263.7,133.2 	"/>
	<polygon class="payments-st0" points="2364.3,366.8 2421,315.7 2472,372.4 2415.3,423.4 2364.3,366.8 	"/>
	<polygon class="payments-st0" points="2414.1,481.2 2470.8,430.1 2521.8,486.8 2465.1,537.8 2414.1,481.2 	"/>
	<polygon class="payments-st0" points="2437,218.9 2474.7,184.9 2508.7,222.7 2471,256.7 2437,218.9 	"/>
	<polygon class="payments-st0" points="2388.7,106.7 2426.5,72.7 2460.5,110.5 2422.7,144.5 2388.7,106.7 	"/>
	<polygon class="payments-st0" points="2485.2,331.1 2523,297.1 2557,334.9 2519.2,368.9 2485.2,331.1 	"/>
	<polygon class="payments-st0" points="2315.9,247.1 2372.5,196.1 2423.5,252.7 2366.9,303.7 2315.9,247.1 	"/>
</g>
<g>
	<path class="payments-st1" d="M149.3,262.5h-2.6L98.6,444.6H59.2L0,185.8h40.9l40.9,193.1h2.6l47.5-193.1h32.5L215,378.9h2.5l37.2-193.1
		h42.7l-59.2,258.9H199L149.3,262.5z"/>
	<path class="payments-st1" d="M459.3,404.5v27.7c-16.4,9.5-38.3,16.8-64.6,16.8c-61.3,0-86.5-38-86.5-95.7c0-55.5,28.1-95.7,82.9-95.7
		c45.6,0,73.7,29.6,73.7,89.1v13.5h-119c0,43.8,17.9,63.2,55.5,63.2C421,423.5,439.3,416.5,459.3,404.5z M346.5,335.8h83.6
		c-1.8-38.3-20.4-53.7-40.2-53.7C367.7,282.2,350.5,299.3,346.5,335.8z"/>
	<path class="payments-st1" d="M536,271.2c11-5.8,29.6-13.5,49.3-13.5c45.3,0,69.7,31.4,69.7,89.8c0,68.3-32.8,101.5-85.8,101.5
		c-19.4,0-49.3-6.2-71.2-17.9V176.3l38-9.1V271.2z M535.6,417.6c11.7,5.1,24.5,5.8,33.6,5.8c27,0,47.5-16.8,47.5-75.9
		c0-46.4-16.8-61.3-41.3-61.3c-14.6,0-25.2,4-39.8,12V417.6z"/>
	<path class="payments-st1" d="M821.1,389.9h1.8l78.1-204.1h45.3v258.9h-39.4V257h-3.3l-74.5,187.7h-23.4l-74.5-183.3H728v183.3h-32.9V185.8
		h44.2L821.1,389.9z"/>
	<path class="payments-st1" d="M986.5,353.4c0-63.9,35.1-95.7,83.2-95.7c48.2,0,83.2,31.8,83.2,95.7c0,62.4-33.2,95.7-83.2,95.7
		S986.5,415.8,986.5,353.4z M1114.7,353.4c0-49.3-20.1-70.1-44.9-70.1c-24.1,0-44.9,20.8-44.9,70.1c0,50,19,70.1,44.9,70.1
		C1095.7,423.5,1114.7,403.4,1114.7,353.4z"/>
	<path class="payments-st1" d="M1187.7,284.7c16.4-9.9,51.1-27,93.1-27c43.8,0,60.2,17.2,60.2,54.8v132.2h-38V320.9c0-28.8-14.2-34-32.8-34
		c-14.6,0-33.2,6.6-44.6,13.1v144.6h-38V284.7z"/>
	<path class="payments-st1" d="M1526.1,404.5v27.7c-16.4,9.5-38.3,16.8-64.6,16.8c-61.3,0-86.5-38-86.5-95.7c0-55.5,28.1-95.7,82.9-95.7
		c45.6,0,73.8,29.6,73.8,89.1v13.5h-119c0,43.8,17.9,63.2,55.5,63.2C1487.8,423.5,1506,416.5,1526.1,404.5z M1413.3,335.8h83.6
		c-1.8-38.3-20.4-53.7-40.2-53.7C1434.5,282.2,1417.3,299.3,1413.3,335.8z"/>
	<path class="payments-st1" d="M1673.6,263.9h39.1l-66.1,182.5c-18.3,50.4-40.5,76.7-82.5,76.7v-29.9c24.8,0,40.1-19.7,48.9-46.7l-70.1-182.5
		h40.2l46.7,134.3h2.2L1673.6,263.9z"/>
</g>
</svg>
