<?xml version="1.0" encoding="utf-8"?>
<!-- Generator: Adobe Illustrator 21.1.0, SVG Export Plug-In . SVG Version: 6.00 Build 0)  -->
<svg version="1.1" id="Слой_1" xmlns="http://www.w3.org/2000/svg" xmlns:xlink="http://www.w3.org/1999/xlink" x="0px" y="0px"
	 viewBox="0 0 1305 634.9" style="enable-background:new 0 0 1305 634.9;" xml:space="preserve">
<style type="text/css">
	.payments-st0{fill:#F4C944;}
	.payments-st1{fill:#BD9D34;}
	.payments-st2{fill:#201600;}
	.payments-st3{fill:#FF0000;}
	.payments-st4{display:none;}
	.payments-st5{display:inline;}
	.payments-st6{clip-path:url(#SVGID_2_);}
	.payments-st7{clip-path:url(#SVGID_4_);fill:#DF9D25;}
	.payments-st8{clip-path:url(#SVGID_4_);fill:#303280;}
</style>
<g>
	<path class="payments-st0" d="M991.7,374.3c0-23.1,1.9-37.8,49.8-73.6c39.7-29.6,166.8-130.8,166.8-130.8v168.9h96.7v243.1h-283.1
		c-16.6,0-30.2-13.6-30.2-30.2L991.7,374.3z"/>
	<g>
		<g>
			<polygon class="payments-st1" points="1208.3,338.8 1208.3,436.7 1030.7,557.7 1255.3,484.6 1255.3,338.8 			"/>
			<path class="payments-st2" d="M1127.2,333.8c10.4-12.4,25.6-16.7,33.9-9.8c8.3,7,6.7,22.7-3.7,35.1c-10.4,12.4-25.6,16.7-33.9,9.8
				C1115.1,361.8,1116.8,346.1,1127.2,333.8"/>
		</g>
	</g>
</g>
<g>
	<path class="payments-st3" d="M66.7,130l-35.3,79.3H5.7l38.8-84.8c-18.2-9.3-30.4-26-30.4-57c0-43.4,27.5-65.1,60.2-65.1h33.3v206.8H85.2
		V130H66.7z M85.2,21.2H73.4c-17.9,0-35.3,11.9-35.3,46.3c0,33.3,15.9,44,35.3,44h11.9V21.2z"/>
	<path d="M214.8,63.5v145.8h-22.3v-65.4H159v65.4h-22.6V63.5H159v61.9h33.6V63.5H214.8z M330.8,237.9h-20.2v-28.6h-62.5v28.6h-20.2
		v-47.1h9c13.3-31,14.8-76.1,14.8-114.8V63.5h67.7v127.3h11.6V237.9z M297,81.7h-25.2v2.6c0,30.7-1.4,75.5-13.6,106.4H297V81.7z
		 M393,211.3c-30.1,0-48.6-24-48.6-68.8c0-46.9,13-81,44-81c24.3,0,40.2,18.2,40.2,67.7v12.4h-60.7c0,33,9.3,50.3,27.2,50.3
		c12.7,0,22.9-5.8,28.6-9.8l5.2,17.3C419.6,206.7,407.5,211.3,393,211.3z M368.1,123.1h37.3c0-24.9-4.1-43.1-17.1-43.1
		C374.5,80,369.6,97,368.1,123.1z M474.3,136.7v72.6h-22.6V63.5h22.6v67.4l35-67.4h22.9L496,132l41.4,77.2h-24.6L474.3,136.7z
		 M540.2,136.4c0-45.7,17.6-74.9,51.8-74.9c13,0,20.5,3.5,26.9,7.5l-3.2,21.4c-6.1-5.2-14.8-10.1-24-10.1c-16.2,0-27.8,18.2-27.8,55
		c0,36.4,8.7,57.3,26.9,57.3c11,0,19.4-4.3,24.6-9l5.2,16.8c-7.8,6.6-17.1,11-30.4,11C559,211.3,540.2,186.1,540.2,136.4z"/>
	<path d="M155.2,581.9h-135l-3.1,52.5H0v-70.6h9.3c15.4-12.8,22.9-48.1,27.3-93.1c4.4-46.8,5.7-116.4,7.1-204.2h110.3v297.3h21.6
		v70.6h-17.2L155.2,581.9z M131.9,284.6H63.5c-1.3,79.8-3.5,140.7-7.1,186.1c-4,47.2-11,78.5-22.9,93.1h98.4V284.6z"/>
	<path d="M266.9,568.2c29.5,0,45-23.8,45-23.8l6.6,16.7c0,0-16.8,25.1-52,25.1c-47.2,0-68.8-42.8-68.8-115.5
		c0-72.8,27.3-115.6,64.8-115.6c38.4,0,63.1,40.1,56,119.1H217.9C218.8,535.1,234.7,568.2,266.9,568.2z M218.4,457.9h80.7
		c3.5-59.1-14.1-85.5-36.6-85.5C239.1,372.4,220.1,402.4,218.4,457.9z"/>
	<path d="M454.3,474.7h-75.9v107.2h-20.7V359.6h20.7v98.3h75.9v-98.3h20.7v222.3h-20.7V474.7z"/>
	<path d="M524.1,359.6h20.7v82.5h16.3c42.3,0,69.7,22.9,69.7,69.2c0,47.2-29.1,70.6-71,70.6h-35.7V359.6z M544.8,458.4v107.2H558
		c31.3,0,52.5-15.4,52.5-53.8c0-37.5-18.5-53.4-50.3-53.4H544.8z"/>
	<path d="M686.8,376.8v205.1h-20.3V359.6h93.9v17.2H686.8z"/>
	<path d="M895.9,427.1c0-11.5,0.9-21.2,1.8-30.4h-1.3c-3.1,9.7-7.1,19-11.9,28.7l-72.3,156.6h-17.6V359.6h19.4V514
		c0,11.9-0.9,21.6-1.8,31.3h1.3c3.1-10.1,7.5-19.8,11.9-29.5l72.3-156.1h18.1v222.3h-19.8V427.1z"/>
</g>
<g class="payments-st4">
	<g class="payments-st5">
		<defs>
			<rect id="SVGID_1_" x="-852.1" y="-597.3" width="2920.9" height="1825.6"/>
		</defs>
		<clipPath id="SVGID_2_">
			<use xlink:href="#SVGID_1_"  style="overflow:visible;"/>
		</clipPath>
		<g class="payments-st6">
			<defs>
				<rect id="SVGID_3_" x="-852.1" y="-597.3" width="2920.9" height="1825.6"/>
			</defs>
			<clipPath id="SVGID_4_">
				<use xlink:href="#SVGID_3_"  style="overflow:visible;"/>
			</clipPath>
			<path class="payments-st7" d="M242,439.1c-0.1-0.1-0.2-0.1-0.3-0.1c-0.2,0-0.3-0.1-0.4-0.1c-0.3-0.1-0.4-0.2-0.6-0.2c-0.2,0-0.3,0-0.3-0.1
				c-0.3-0.1-0.6-0.1-0.9-0.3c-3.6-0.7-7.2-0.1-10.3,1.8c-6.7,4.7-7.8,15.2-2.3,23.5c2.6,3.8,6.1,6.4,9.9,7.8c0,0,0,0,0.2,0.2
				c0,0,0.3,0.1,0.4,0.1c0.2,0,0.3,0,0.5,0.1c0.1,0,0.2,0.1,0.3,0.1c0.3,0.1,0.6,0.2,0.9,0.2c3.6,0.6,7.2,0.1,10.2-1.8
				c6.8-4.7,7.9-15.1,2.3-23.5C249.3,443.2,245.7,440.5,242,439.1 M403.2,603.8c-16.5-33.9-45.9-58.8-77.8-77.8
				c-11-6.7-23.4-11.4-34.4-14.9c-25-8.1-49.2-10.1-77.4-14.8c-22.9-4-41-13.4-60.4-26.7c-10.1-6.9-18.4-16.4-25.3-26.6
				c-1.2-2-7.7-9.9-7.1-12.7c0,0-4.4,18.1,4.5,43.6c-82.1-3.7-153.9-49.4-186.8-104.9C-122.3,267-101,143.4-20.1,88.7
				c80.8-54.6,204-16.1,270,82.5c41.4,61.9,52,133.9,34.2,192.4c-0.1,0.4-0.3,0.8-0.4,1.3c-35-25.6-67-12.5-67-12.5
				c35.1-3.6,62.9,24.5,62.9,24.5c4.1,3.6,8,7.7,11.6,12.1c0.8,1.2,1.6,2.2,2.4,3.4c9.2,12.6,15,26.6,17.4,40.7
				c69.8-89,81.2-212.1,19.6-307.8C251.8,3.3,84.3-27.8-43.8,55.6c-128,83.5-168.2,249.9-89.5,371.9
				c64.7,100.3,216.1,130.9,303.1,103.2c32.8-10.4,145.3-20.3,223.5,72.7c0,0,6.8,7.8,10.5,16.6c0,0,1.1,3.1,4,1.6
				C408.5,621.3,410.6,618.8,403.2,603.8 M287.4,419.9c5.8,2.3,9.3,11.7,10.3,16.3c2.2,10.3-1.3,14.7-4.3,12.8
				c-3.2-1.6-7.4-9.5-10.7-19.9C281.2,424.5,281.7,417.7,287.4,419.9"/>
			<path class="payments-st8" d="M546.8,213.7c-27.8,0-44.6-24.3-44.6-59.5c0-35.4,16.5-58.8,44.6-58.8c27.8,0,44.8,23.4,44.8,58.8
				C591.6,189.4,574.9,213.7,546.8,213.7 M623.2,152.6c0-50-29.9-83.1-76.2-83.1c-46.5,0-76.6,34.2-76.6,84.7
				c0,42.2,18.9,68.9,55.4,82.1l89.6,32.8l5.9-26.9l-42.2-14.4C605.8,216.6,623.2,190.3,623.2,152.6"/>
			<polygon class="payments-st8" points="664.3,235.4 664.3,72.6 695.6,72.6 695.6,206.5 695.6,235.4 			"/>
			<polygon class="payments-st8" points="909.3,235.4 879.6,235.4 843.5,117 807.4,235.4 777.9,235.4 732.4,76.8 765,71 795.6,187.5
				829.6,72.6 860.9,72.6 894.9,187.5 924.6,72.6 956,72.6 			"/>
			<polygon class="payments-st8" points="992.3,235.4 992.3,72.6 1023.7,72.6 1023.7,206.5 1023.7,235.4 			"/>
			<polygon class="payments-st8" points="645.7,494.5 616,494.5 580,376 543.9,494.5 514.4,494.5 468.9,335.9 501.4,330 532.1,446.6
				566,331.7 597.4,331.7 631.4,446.6 661.1,331.7 692.4,331.7 			"/>
			<path class="payments-st8" d="M753.5,427.7l22.2-62.8l22.2,62.8H753.5z M793.6,331h-33.3l-61.1,163.6h30.9l14.8-41.3h61.5l15.6,43
				l31.1-5.6L793.6,331z"/>
			<polygon class="payments-st8" points="887.2,494.5 887.2,331.7 918.6,331.7 918.6,466.9 972.8,466.9 977.1,494.5 			"/>
			<polygon class="payments-st8" points="1011.5,494.5 1011.5,331.7 1042.9,331.7 1042.9,466.9 1097.1,466.9 1101.4,494.5 			"/>
			<polygon class="payments-st8" points="1135.8,494.5 1135.8,331.7 1230.3,331.7 1230.3,358.1 1166.7,358.1 1166.7,396.3 1215.7,396.3
				1220,423.2 1166.7,423.2 1166.7,468.1 1232.7,468.1 1232.7,494.5 			"/>
			<polygon class="payments-st8" points="1339.1,358.8 1339.1,494.5 1307.7,494.5 1307.7,358.8 1259.3,358.8 1259.3,331.7 1385.7,331.7
				1390.2,358.8 			"/>
		</g>
	</g>
</g>
</svg>
