<svg xmlns="http://www.w3.org/2000/svg" width="640" height="196.2" viewBox="33.5 298.9 640 196.2"><g><g><path fill="#0057a0" d="M259 492.3l32.4-190.1h51.8l-32.4 190.1zm239.7-185.5c-10.3-3.9-26.4-8-46.4-8-51.2 0-87.3 25.8-87.6 62.7-.3 27.3 25.7 42.6 45.4 51.6 20.2 9.3 26.9 15.3 26.9 23.6-.1 12.7-16.1 18.6-31 18.6-20.7 0-31.8-2.9-48.8-10l-6.7-3-7.3 42.6c12.1 5.3 34.5 9.9 57.7 10.1 54.5 0 89.8-25.5 90.2-64.9.2-21.6-13.6-38.1-43.5-51.7-18.1-8.8-29.2-14.7-29.1-23.6 0-7.9 9.4-16.4 29.7-16.4 16.9-.3 29.2 3.4 38.8 7.3l4.6 2.2 7.1-41.1m132.9-4.5h-40c-12.4 0-21.7 3.4-27.1 15.8l-77 174.2h54.4s8.9-23.4 10.9-28.6c5.9 0 58.8.1 66.4.1 1.5 6.7 6.3 28.5 6.3 28.5h48.1l-42-190m-63.9 122.6c4.3-11 20.6-53.1 20.6-53.1-.3.5 4.3-11 6.9-18.1l3.5 16.4s9.9 45.4 12 54.9l-43-.1zM215.5 302.3l-50.7 129.6-5.4-26.3c-9.4-30.4-38.9-63.3-71.8-79.7L134 492.1l54.8-.1 81.6-189.7h-54.9"/><path d="M117.7 302.2H34.2l-.7 4c65 15.7 108 53.8 125.9 99.5l-18.2-87.4c-3.1-12.1-12.2-15.7-23.5-16.1" fill="#faa61a"/></g></g></svg>