<svg id="svg15931" xmlns="http://www.w3.org/2000/svg" width="640" height="192.1" viewBox="-468.3 396.6 640 192.1"><style>.st2{fill:#4d4d4d}</style><g id="layer1" transform="translate(96.623 -332.002)"><g id="g8298" transform="translate(-530.21 195.48)"><g id="g8300"><g id="g8302"><g id="g8304"><circle id="circle8306" cx="32" cy="599.8" r="66.7" fill="#f7931a"/><g id="g8308"><g id="g8310"><path id="path8312" d="M61.5 590.2c1.4-9-5.5-13.6-14.7-16.8l3-12-7.4-1.8-3 11.7c-1.8-.5-3.9-.9-6-1.4l3-11.7-7.4-1.8-3 12c-1.6-.5-3.2-.7-4.6-1.2l-10.1-2.5-1.8 7.8s5.5 1.2 5.3 1.4c3 .7 3.5 2.8 3.5 4.4L14.8 592c.2 0 .5.2.7.2-.2 0-.5-.2-.7-.2L10 611.3c-.5.9-1.4 2.3-3.5 1.8l-5.3-1.4-3.7 8.3 9.4 2.3c1.8.5 3.5.9 5.3 1.4l-3 12.2 7.4 1.8 3-12c2.1.5 3.9 1.2 5.8 1.6l-3 12 7.4 1.8 3-12.2c12.4 2.3 21.9 1.4 25.8-9.9 3.2-9.2-.2-14.3-6.7-17.7 5-1.5 8.6-4.5 9.6-11.1zm-16.8 23.4c-2.3 9.2-17.5 4.1-22.5 3l3.9-16.1c5 1.2 20.9 3.7 18.6 13.1zm2.3-23.4c-2.1 8.3-14.7 4.1-18.9 3l3.7-14.7c3.9 1.1 17.2 2.9 15.2 11.7z" fill="#fff"/></g></g></g></g><g id="g8314"><path id="path8316" class="st2" d="M160.8 573.4c5.5 0 10.1.9 14 3 3.9 1.8 7.1 4.6 9.9 7.8 2.5 3.2 4.6 7.1 5.8 11.5 1.2 4.4 1.8 9.2 1.8 14.3 0 7.8-1.4 15.2-4.4 22.1-3 6.9-6.7 12.9-11.7 18.2-5.1 5.1-10.8 9.2-17.5 12.2-6.7 3-14 4.4-21.9 4.4h-5.3c-2.5 0-5.5-.2-8.7-.7-3.2-.5-6.7-1.2-10.4-2.1s-7.1-2.1-10.4-3.7l29.2-122.8 26.2-4.1L147 577c2.3-.9 4.6-1.8 6.7-2.3 2.3-1.1 4.6-1.3 7.1-1.3zM139 645.8c3.9 0 7.6-.9 11-3 3.5-1.8 6.4-4.4 9-7.6 2.5-3.2 4.6-6.9 6-10.8 1.4-4.1 2.3-8.3 2.3-12.7 0-5.5-.9-9.7-2.8-12.7-1.8-3-5.1-4.6-9.9-4.6-1.6 0-3.7.2-6.2.9s-4.8 1.8-6.9 3.5l-11 46.2c.7 0 1.4.2 1.8.2.5 0 1.2.2 1.6.2h2.1c.7.4 1.6.4 3 .4z"/><path id="path8318" class="st2" d="M219.5 664.2h-25.1l21.2-89h25.3l-21.4 89zm12.2-99.8c-3.5 0-6.7-1.2-9.4-3.2-2.8-2.1-4.1-5.3-4.1-9.7 0-2.3.5-4.6 1.4-6.7.9-2.1 2.3-3.9 3.9-5.5s3.5-2.8 5.5-3.7c2.1-.9 4.4-1.4 6.7-1.4 3.5 0 6.7 1.2 9.4 3.2 2.8 2.1 4.1 5.3 4.1 9.7 0 2.3-.5 4.6-1.4 6.7-.9 2.1-2.3 3.9-3.9 5.5s-3.5 2.8-5.5 3.7-4.4 1.4-6.7 1.4z"/><path id="path8320" class="st2" d="M262.8 553.1L289 549l-6.4 26.2h28.1l-5.1 20.7h-27.8l-7.4 31.1c-.7 2.5-1.2 5.1-1.2 7.4-.2 2.3.2 4.1.9 5.8s1.8 3 3.7 3.7c1.8.9 4.1 1.4 7.6 1.4 2.8 0 5.3-.2 7.8-.7 2.5-.5 5.1-1.2 7.6-2.1l1.8 19.3c-3.5 1.2-7.1 2.3-11 3.2-3.9.9-8.7 1.4-14 1.4-7.8 0-13.8-1.2-18.2-3.5s-7.4-5.5-9.2-9.4c-1.8-3.9-2.5-8.5-2.3-13.8.2-5.3.9-10.6 2.3-16.3l16.6-70.3z"/><path id="path8322" class="st2" d="M309.5 628.6c0-7.6 1.2-15 3.7-21.6 2.5-6.7 6-12.7 10.6-17.7 4.6-5.1 10.1-9 16.8-12 6.7-3 14-4.4 22.1-4.4 5.1 0 9.7.5 13.6 1.4 3.9.9 7.6 2.3 10.8 3.9l-8.7 19.6c-2.3-.9-4.6-1.6-6.9-2.5-2.5-.7-5.3-1.2-9-1.2-8.3 0-15 3-19.8 8.5-4.8 5.8-7.4 13.6-7.4 23.2 0 5.8 1.2 10.4 3.7 14 2.5 3.5 7.1 5.3 13.8 5.3 3.2 0 6.4-.2 9.4-.9s5.8-1.6 8.1-2.5l1.8 20c-3.2 1.2-6.7 2.3-10.6 3.2-3.9.9-8.5 1.4-13.8 1.4-6.9 0-12.9-.9-17.7-3-4.8-2.1-8.7-4.8-12-8.3-3.2-3.5-5.5-7.6-6.9-12.2-1-4.3-1.6-9.2-1.6-14.2z"/><path id="path8324" class="st2" d="M420.6 666.5c-6 0-11.3-.9-15.6-2.8-4.4-1.8-8.1-4.4-10.8-7.6-3-3.2-5.1-7.1-6.4-11.5-1.4-4.4-2.1-9.4-2.1-14.7 0-6.7 1.2-13.6 3.2-20.2 2.3-6.7 5.5-12.9 9.7-18.2 4.4-5.5 9.4-9.9 15.6-13.3 6.2-3.5 13.3-5.1 21.4-5.1 5.8 0 11 .9 15.4 2.8 4.4 1.8 8.1 4.4 11 7.6 2.8 3.2 5.1 7.1 6.4 11.5 1.4 4.4 2.3 9.4 2.3 14.7 0 6.7-1.2 13.6-3.2 20.2s-5.3 12.9-9.4 18.2c-4.1 5.5-9.4 9.9-15.6 13.3-6.3 3.5-13.6 5.1-21.9 5.1zm12.6-72.4c-3.7 0-6.9 1.2-9.9 3.2-2.8 2.1-5.3 4.8-7.1 8.1s-3.5 6.9-4.4 10.8c-.9 3.9-1.4 7.6-1.4 11 0 5.8.9 10.1 2.8 13.1 1.8 3.2 5.1 4.8 9.9 4.8 3.7 0 6.9-1.2 9.9-3.2 2.8-2.1 5.1-4.8 7.1-8.1 1.8-3.2 3.5-6.9 4.4-10.8.9-3.9 1.4-7.6 1.4-11 0-5.5-.9-10.1-2.8-13.1-1.8-3.2-5.3-4.8-9.9-4.8z"/><path id="path8326" class="st2" d="M497.9 664.2h-25.1l21.2-89h25.3l-21.4 89zm12.2-99.8c-3.5 0-6.7-1.2-9.4-3.2-2.8-2.1-4.1-5.3-4.1-9.7 0-2.3.5-4.6 1.4-6.7.9-2.1 2.3-3.9 3.9-5.5s3.5-2.8 5.5-3.7c2.1-.9 4.4-1.4 6.7-1.4 3.5 0 6.7 1.2 9.4 3.2 2.8 2.1 4.1 5.3 4.1 9.7 0 2.3-.5 4.6-1.4 6.7-.9 2.1-2.3 3.9-3.7 5.5-1.6 1.6-3.5 2.8-5.5 3.7-2.3.9-4.4 1.4-6.9 1.4z"/><path id="path8328" class="st2" d="M537.2 579.3c1.8-.5 3.9-1.2 6.4-1.8 2.3-.7 4.8-1.4 7.8-2.1 2.8-.7 6-1.2 9.7-1.6 3.5-.5 7.6-.7 12.2-.7 13.1 0 22.3 3.9 27.4 11.5 5.1 7.6 6 18.2 2.5 31.5l-11.5 48.1h-25.1l11-46.9c.7-3 1.2-5.8 1.6-8.5s.5-5.1 0-7.4c-.5-2.1-1.4-3.7-3.2-5.1-1.6-1.4-4.1-1.8-7.6-1.8-3.2 0-6.7.5-9.9.9l-16.3 68.8H517l20.2-84.9z"/></g></g><g id="g8330"><path id="path8332" class="st2" d="M234.9 715.5l-4.8 9h-5.3c3.7-6.7 7.4-12.9 11-18.6 3.5-5.8 7.1-11 10.6-16.1h4.8c.5 2.5.9 5.1 1.4 7.6.5 2.5.9 5.3 1.2 8.1.5 2.8.7 5.8 1.2 9s.7 6.4 1.2 10.1h-4.8c-.2-1.6-.2-3-.5-4.6s-.2-3-.5-4.4l-15.5-.1zm14.7-3.9c-.2-2.8-.7-5.3-.9-8.1-.5-2.8-.7-5.5-1.2-8.3-1.2 1.6-2.5 3.9-4.4 6.7-1.8 2.8-3.7 6-6 9.7h12.5z"/><path id="path8334" class="st2" d="M273.6 725.2c-2.1 0-4.1-.2-5.8-.9s-3-1.6-4.1-2.8-1.8-2.5-2.5-4.1c-.5-1.6-.9-3.5-.9-5.5 0-3 .5-6 1.4-8.5.9-2.8 2.3-5.1 4.1-7.4 1.8-2.1 3.9-3.7 6.4-5.1 2.5-1.2 5.3-1.8 8.3-1.8 2.5 0 4.6.2 6.2.7 1.6.5 2.8 1.2 3.2 1.6l-2.1 3.9c-.7-.5-1.8-.9-3.2-1.4-1.4-.5-3-.7-4.6-.7-2.3 0-4.4.5-6.2 1.6-1.8 1.2-3.5 2.5-4.6 4.1-1.4 1.6-2.3 3.7-3 5.8-.7 2.1-.9 4.4-.9 6.4 0 6.4 2.8 9.7 8.5 9.7 1.2 0 2.3 0 3.2-.2.9-.2 1.8-.5 2.5-.7.7-.2 1.4-.5 1.8-.7.5-.2 1.2-.5 1.6-.7l.7 4.1c-.5.2-.9.5-1.6.7-.7.2-1.4.5-2.3.7-.9.2-1.8.5-3 .7-.6.3-1.7.5-3.1.5z"/><path id="path8336" class="st2" d="M301.9 725.2c-2.1 0-4.1-.2-5.8-.9s-3-1.6-4.1-2.8-1.8-2.5-2.5-4.1c-.5-1.6-.9-3.5-.9-5.5 0-3 .5-6 1.4-8.5.9-2.8 2.3-5.1 4.1-7.4 1.8-2.1 3.9-3.7 6.4-5.1 2.5-1.2 5.3-1.8 8.3-1.8 2.5 0 4.6.2 6.2.7s2.8 1.2 3.2 1.6l-2.1 3.9c-.7-.5-1.8-.9-3.2-1.4-1.4-.5-3-.7-4.6-.7-2.3 0-4.4.5-6.2 1.6-1.8 1.2-3.5 2.5-4.6 4.1-1.4 1.6-2.3 3.7-3 5.8-.7 2.1-.9 4.4-.9 6.4 0 6.4 2.8 9.7 8.5 9.7 1.2 0 2.3 0 3.2-.2.9-.2 1.8-.5 2.5-.7.7-.2 1.4-.5 1.8-.7.5-.2 1.2-.5 1.6-.7l.7 4.1c-.5.2-.9.5-1.6.7-.7.2-1.4.5-2.3.7s-1.8.5-3 .7c-.8.3-2 .5-3.1.5z"/><path id="path8338" class="st2" d="M315.2 724.3l8.3-34.7H344l-.9 4.1h-15.6l-2.5 10.6h14l-.9 3.9h-13.8l-3 12.2H338l-.9 4.1h-21.9v-.2z"/><path id="path8340" class="st2" d="M358.5 689.3c4.1 0 7.1.7 9.2 2.3 2.1 1.6 3 3.7 3 6.7 0 2.3-.5 4.1-1.4 6-.9 1.6-2.1 3-3.7 4.1s-3.5 1.8-5.8 2.3c-2.3.5-4.6.7-7.4.7H349l-3.2 12.9H341l8.3-34.3c1.4-.2 3-.5 4.4-.7h4.8zm-.5 4.2c-2.3 0-3.9 0-4.4.2l-3.2 13.8h3.2c1.4 0 2.8-.2 4.4-.5 1.4-.2 2.8-.7 3.9-1.4 1.2-.7 2.1-1.6 3-2.5.7-1.2 1.2-2.5 1.2-4.4 0-1.8-.7-3.2-2.1-4.1-1.6-.7-3.7-1.1-6-1.1z"/><path id="path8342" class="st2" d="M400.3 689.8l-.9 4.1h-10.6l-7.4 30.6h-4.8l7.4-30.6h-10.6l.9-4.1h26z"/><path id="path8344" class="st2" d="M396 724.3l8.3-34.7h20.5l-.9 4.1h-15.6l-2.5 10.6h14l-.9 3.9h-13.8l-3 12.2h16.8l-.9 4.1h-22v-.2z"/><path id="path8346" class="st2" d="M439.2 689.3c5.1 0 9 1.2 11.5 3.7s3.9 5.8 3.9 9.9c0 2.8-.5 5.5-1.4 8.3-.9 2.8-2.3 5.1-4.1 7.1-1.8 2.1-4.4 3.7-7.4 4.8s-6.4 1.8-10.6 1.8c-1.4 0-3 0-4.6-.2-1.6-.2-3-.5-4.4-.7l8.1-33.8c1.4-.2 3-.5 4.4-.7 1.6-.2 3.2-.2 4.6-.2zm-.4 4.2c-2.5 0-3.9 0-4.6.2l-6.4 26.7c.2 0 .7.2 1.4.2h3.2c2.5 0 5.1-.5 7.1-1.4 2.1-.9 3.9-2.1 5.3-3.7s2.5-3.5 3.5-5.8c.7-2.3 1.2-4.6 1.2-7.1 0-3-.9-5.3-2.5-6.9-1.8-1.6-4.6-2.2-8.2-2.2z"/><path id="path8348" class="st2" d="M491.9 724.3h-4.8l3.9-16.1h-16.1l-3.9 16.1h-4.8l8.3-34.7h4.8l-3.5 14.5h16.1l3.5-14.5h4.8l-8.3 34.7z"/><path id="path8350" class="st2" d="M499.5 724.3l8.3-34.7h20.5l-.9 4.1h-15.6l-2.5 10.6h14l-.9 3.9h-13.8l-3 12.2h16.8l-.9 4.1h-21.9v-.2z"/><path id="path8352" class="st2" d="M543 689.3c3.7 0 6.7.7 8.7 2.3 2.1 1.6 3.2 3.7 3.2 6.7s-.9 5.5-2.5 7.4c-1.6 2.1-4.1 3.5-7.1 4.4.5.7.9 1.6 1.4 2.8.5 1.2 1.2 2.3 1.6 3.7.5 1.4 1.2 2.8 1.6 4.1.5 1.4.9 2.8 1.4 4.1h-5.1c-.5-1.4-.9-2.5-1.4-3.9-.5-1.4-.9-2.5-1.6-3.7-.5-1.2-1.2-2.3-1.6-3.5-.5-1.2-.9-2.1-1.4-2.8h-6.7l-3.2 13.6h-4.8l8.3-34.3c1.4-.2 3-.5 4.4-.7 1.8-.2 3.4-.2 4.8-.2zm-.7 4.2c-2.3 0-3.9 0-4.4.2l-3.2 13.1h3c1.4 0 2.8 0 4.1-.2 1.4-.2 2.8-.7 3.9-1.2 1.2-.7 2.1-1.4 3-2.5.7-1.2 1.2-2.5 1.2-4.1 0-1.8-.7-3.2-2.1-3.9-1.4-1-3.2-1.4-5.5-1.4z"/><path id="path8354" class="st2" d="M555.4 724.3l8.3-34.7h20.5l-.9 4.1h-15.6l-2.5 10.6h14l-.9 3.9h-13.8l-3 12.2h16.8l-.9 4.1h-21.9v-.2z"/></g></g></g></svg>