<svg xmlns="http://www.w3.org/2000/svg" width="660" height="657.4" viewBox="0 0 393.323 164.943"><defs><style>.cls-2{fill:#033564}</style></defs><g id="Layer_2" data-name="Layer 2"><g id="Layer_1-2" data-name="Layer 1"><path id="_Compound_Path_" data-name="&lt;Compound Path&gt;" d="M152.288 0C68.1 0 0 39.892 0 89.413c0 20.978 12.32 40.236 33.195 55.712C22.928 132.4 17.111 118.3 17.111 103.169c0-51.24 66.733-92.853 148.865-92.853 53.045 0 99.587 17.195 125.937 43.332C268.3 22.009 214.572 0 152.288 0z" fill="#8cc23c"/><path id="_Compound_Path_2" data-name="&lt;Compound Path&gt;" class="cls-2" d="M138.896 114.687q9.287 0 14.953-3.914 6.569-4.325 6.57-12.563 0-15.24-9.969-28.218a61.39 61.39 0 0 0-49.844-24.098q-26.964 0-44.293 17.507a57.838 57.838 0 0 0-17.332 42.223q0 24.924 18.125 41.915 18.123 16.992 45.313 16.992a94.141 94.141 0 0 0 27.867-4.12q15.856-4.735 23.11-13.8 4.078-4.943 4.078-9.886 0-12.976-14.5-12.976-3.175 0-16.312 5.458-13.143 5.46-22.43 5.458-11.104 0-18.805-5.149a19.687 19.687 0 0 1-8.836-14.83zM84.521 78.54q6.568-5.455 16.312-5.458a24.496 24.496 0 0 1 16.2 5.561 19.825 19.825 0 0 1 7.363 14.212H76.138A24.344 24.344 0 0 1 84.52 78.54z"/><path id="_Compound_Path_3" data-name="&lt;Compound Path&gt;" class="cls-2" d="M180.807 147.23q16.764 17.098 44.407 17.095 16.535 0 27.64-4.943 15.405-7 15.407-17.095a14.372 14.372 0 0 0-3.965-10.196 13.507 13.507 0 0 0-10.309-4.222 32.332 32.332 0 0 0-10.875 2.472 40.238 40.238 0 0 1-14.273 2.471q-13.143 0-20.39-8.238-6.347-7.415-6.345-19.773 0-11.74 6.118-19.567 6.796-8.65 19.257-8.65a41.55 41.55 0 0 1 14.614 2.574q6.908 2.578 11.215 2.574a15.092 15.092 0 0 0 10.875-4.119 13.432 13.432 0 0 0 4.305-10.092q0-11.533-14.954-17.302-11.103-4.118-26.054-4.119-28.547 0-45.766 16.58-17.22 16.582-17.219 42.738 0 25.334 16.313 41.812z"/><path id="_Compound_Path_4" data-name="&lt;Compound Path&gt;" class="cls-2" d="M286.385 147.436q17.672 17.509 45.086 17.507 27.639 0 45.086-17.301 16.764-16.886 16.766-42.224 0-25.536-16.992-42.635-16.993-17.094-44.86-17.095-27.416 0-44.747 17.198-17.332 17.2-17.332 42.532 0 25.132 16.992 42.018zm26.508-61.379q6.568-8.853 18.578-8.856 11.778 0 18.352 9.062 5.889 7.83 5.89 18.95 0 11.537-5.664 19.155-6.574 9.065-18.578 9.062-11.783 0-18.352-9.063-5.894-7.825-5.89-19.154 0-11.325 5.664-19.155z"/></g></g></svg>