<svg xmlns="http://www.w3.org/2000/svg" width="640" height="383.2" viewBox="-325 205.9 640 383.2"><g><g><path d="M315 397.5c0 105.8-85.7 191.6-191.5 191.6S-68 503.4-68.1 397.6v-.1c0-105.8 85.7-191.6 191.5-191.6S315 291.6 315 397.5c0-.1 0 0 0 0z" fill="#f90"/><path d="M-134.7 206c-105.2.6-190.3 86.2-190.3 191.5 0 105.7 85.8 191.5 191.5 191.5 49.6 0 94.9-18.9 128.9-49.9 7-6.4 13.5-13.2 19.4-20.5h-39.2c-5.2-6.3-10-12.9-14.3-19.7H29c4.1-6.6 7.8-13.4 11.1-20.5h-90c-3.1-6.6-5.7-13.3-8-20.1h106c6.4-19.1 9.9-39.5 9.9-60.7 0-14.1-1.5-27.8-4.4-41h-117c1.5-6.8 3.3-13.5 5.5-20.1h106c-2.4-7-5.1-13.9-8.3-20.5h-89.6c3.2-6.9 6.9-13.6 11-20.1h67.6c-4.5-7.2-9.5-14-14.9-20.5h-37.7c5.8-6.9 12.2-13.3 19.2-19.3-34-31-79.3-49.9-128.9-49.9-.4-.2-.8-.2-1.2-.2z" fill="#c00"/><path d="M295.8 497.6c1 0 2.1.3 3 .8 1 .5 1.8 1.3 2.3 2.3.6 1 .8 2 .8 3.1s-.3 2.1-.8 3.1-1.3 1.8-2.3 2.3c-1 .5-2 .8-3.1.8s-2.1-.3-3.1-.8-1.7-1.3-2.3-2.3c-.5-1-.8-2-.8-3.1s.3-2.1.8-3.1c.6-1 1.3-1.8 2.3-2.3 1.1-.5 2.1-.8 3.2-.8m0 1.1c-.9 0-1.7.2-2.5.7-.8.4-1.5 1.1-1.9 1.9-.5.8-.7 1.7-.7 2.6 0 .9.2 1.8.7 2.6.5.8 1.1 1.5 1.9 1.9.8.5 1.7.7 2.6.7.9 0 1.8-.2 2.6-.7.8-.5 1.5-1.1 1.9-1.9.5-.8.7-1.7.7-2.6 0-.9-.2-1.8-.7-2.6-.5-.8-1.1-1.5-1.9-1.9-1-.5-1.8-.7-2.7-.7m-2.7 8.5v-6.7h2.3c.8 0 1.3.1 1.7.2.4.1.6.3.8.6.2.3.3.6.3 1 0 .5-.2.9-.5 1.3s-.8.6-1.4.6c.2.1.4.2.6.4.3.3.6.7 1 1.3l.8 1.3h-1.3l-.6-1c-.5-.8-.8-1.3-1.1-1.6-.2-.1-.5-.2-.9-.2h-.6v2.8h-1.1m1-3.7h1.3c.6 0 1-.1 1.3-.3.2-.2.3-.4.3-.7 0-.2-.1-.4-.2-.5-.1-.2-.3-.3-.5-.4-.2-.1-.6-.1-1.1-.1H294l.1 2" fill="#fcb340"/></g><g><g><path d="M-69.944 452.494l2.6-17.3c-1.4 0-3.4.6-5.3.6-7.1 0-8-3.8-7.4-6.6l7-34.9h10.8l2.2-19.7h-10.2l2.1-11.9h-21.3c-.4.4-12 67.1-12 75.2 0 12 6.7 17.4 16.2 17.3 7.5-.1 13.3-2.2 15.3-2.7zm6.5-33.1c0 28.8 19 35.7 35.2 35.7 15 0 22.8-3.5 22.8-3.5l3.6-19.7s-12.6 5.1-22.9 5.1c-21.9 0-18.1-16.3-18.1-16.3l42.1.1s2.7-13.2 2.7-18.6c0-13.4-7.3-29.9-29.7-29.9-20.5 0-35.7 22.1-35.7 47.1zm35.8-28.8c11.5 0 9.4 12.9 9.4 14h-22.6c-.1-1.4 2-14 13.2-14zm129.1 61.9l3.7-22.2s-10 5-16.9 5c-14.5 0-20.3-11-20.3-22.9 0-24.1 12.4-37.3 26.3-37.3 10.4 0 18.7 5.8 18.7 5.8l3.3-21.6s-9.8-7.1-20.4-7.2c-31.9-.1-50.1 22.1-50.1 60.4 0 25.4 13.5 42.7 37.8 42.7 6.9 0 17.9-2.7 17.9-2.7zm-283.5-79.8c-14 0-24.7 4.5-24.7 4.5l-3 17.6s8.8-3.6 22.2-3.6c7.6 0 13.1.9 13.1 7 0 3.7-.7 5.1-.7 5.1s-6-.5-8.8-.5c-19.9 0-36.2 7.5-36.2 30.2 0 17.9 12.2 22 19.7 22 14.4 0 20.1-9.1 20.4-9.1l-.2 7.5h18l8-56.2c.2-23.8-20.6-24.5-27.8-24.5zm3.1 45.6c.4 3.4-.9 19.6-13.2 19.6-6.3 0-8-4.8-8-7.7 0-5.6 3-12.3 18-12.3 3.5 0 2.6.3 3.2.4zm44 36.3c4.6 0 30.9 1.2 30.9-25.9 0-25.3-24.3-20.3-24.3-30.5 0-5.1 4-6.7 11.2-6.7 2.9 0 13.9.9 13.9.9l2.6-18s-7.2-1.6-18.8-1.6c-15.1 0-30.4 6-30.4 26.6 0 23.4 25.5 21 25.5 30.8 0 6.6-7.1 7.1-12.6 7.1-9.5 0-18.1-3.3-18.1-3.1l-2.7 17.8c.4.2 5.7 2.6 22.8 2.6zm404.6-98.3l-3.7 27.5s-7.7-10.6-19.7-10.6c-22.6 0-34.3 22.5-34.3 48.4 0 16.7 8.3 33.1 25.3 33.1 12.2 0 19-8.5 19-8.5l-.9 7.3h19.9l15.6-97-21.2-.2zm-8.7 53.4c0 10.8-5.3 25.2-16.4 25.2-7.3 0-10.8-6.2-10.8-15.8 0-15.8 7.1-26.2 16.1-26.2 7.3-.1 11.1 4.9 11.1 16.8zm-553.4 43.8l12.4-73.2 1.8 73.2h14l26.2-73.2-11.6 73.2h20.9l16.1-97.1-33.2-.3-19.7 59.5-.5-59.2h-30.4l-16.3 97.1h20.3z" fill="#006"/><path d="M21.756 453.694c5.9-33.8 8.1-60.4 25.4-54.9 2.5-13.1 8.4-24.4 11.1-30 0 0-.9-1.3-6.2-1.3-9.1 0-21.3 18.5-21.3 18.5l1.8-11.5h-19l-12.7 79 20.9.2z" fill="#006"/><g><path d="M144.156 372.694c-14 0-24.7 4.5-24.7 4.5l-3 17.6s8.9-3.6 22.2-3.6c7.6 0 13.1.9 13.1 7 0 3.7-.7 5.1-.7 5.1s-6-.5-8.8-.5c-19.9 0-36.2 7.5-36.2 30.2 0 17.9 12.2 22 19.7 22 14.4 0 20.1-9.1 20.4-9.1l-.2 7.5h18l8-56.2c.2-23.8-20.6-24.5-27.8-24.5zm3.1 45.6c.4 3.4-.9 19.6-13.2 19.6-6.3 0-8-4.8-8-7.7 0-5.6 3-12.3 18-12.3 3.5 0 2.6.3 3.2.4z" fill="#006"/></g><path d="M192.856 453.694c3.3-24.8 9.3-59.7 25.4-54.9 2.5-13.1.1-13-5.3-13-9.1 0-11.2.3-11.2.3l1.8-11.5h-19l-12.7 79 21 .1z" fill="#006"/></g><g><path d="M-64.6 446.3L-62 429c-1.4 0-3.4.6-5.3.6-7.1 0-7.9-3.8-7.4-6.6l5.7-35.4h10.8l2.6-19.2h-10.2l2.1-11.9h-20.4c-.4.4-12 67.1-12 75.2 0 12 6.7 17.4 16.2 17.3 7.5-.1 13.3-2.2 15.3-2.7zm6.5-33.1c0 28.8 19 35.7 35.2 35.7 15 0 21.5-3.3 21.5-3.3l3.6-19.7s-11.4 5-21.7 5c-21.9 0-18.1-16.3-18.1-16.3H4s2.7-13.2 2.7-18.6c0-13.4-6.7-29.8-29.1-29.8-20.5 0-35.7 22-35.7 47zm35.7-28.8c11.5 0 9.4 12.9 9.4 14h-22.6c0-1.3 2.1-14 13.2-14zm129.2 61.9l3.6-22.2s-10 5-16.9 5c-14.5 0-20.3-11-20.3-22.9 0-24.1 12.4-37.3 26.3-37.3 10.4 0 18.7 5.8 18.7 5.8l3.3-21.6s-12.4-5-23-5c-23.5 0-46.4 20.4-46.4 58.8 0 25.4 12.4 42.2 36.7 42.2 7 0 18-2.8 18-2.8zm-283.6-79.8c-14 0-24.7 4.5-24.7 4.5l-3 17.6s8.8-3.6 22.2-3.6c7.6 0 13.1.9 13.1 7 0 3.7-.7 5.1-.7 5.1s-6-.5-8.8-.5c-17.6 0-36.2 7.5-36.2 30.2 0 17.9 12.2 22 19.7 22 14.4 0 20.6-9.3 20.9-9.4l-.7 7.8h18l8-56.2c.3-23.8-20.5-24.5-27.8-24.5zm4.4 45.7c.4 3.4-2.2 19.5-14.4 19.5-6.3 0-8-4.8-8-7.7 0-5.6 3-12.3 18-12.3 3.5 0 3.8.4 4.4.5zm42.7 36.2c4.6 0 30.9 1.2 30.9-25.9 0-25.3-24.3-20.3-24.3-30.5 0-5.1 4-6.7 11.2-6.7 2.9 0 13.9.9 13.9.9l2.6-18s-7.2-1.6-18.8-1.6c-15.1 0-30.4 6-30.4 26.6 0 23.3 25.5 21 25.5 30.8 0 6.6-7.1 7.1-12.6 7.1-9.5 0-18.1-3.3-18.1-3.1l-2.7 17.8c.4.2 5.7 2.6 22.8 2.6zm405.4-98.1l-4.4 27.3s-7.7-10.6-19.7-10.6c-18.7 0-34.3 22.5-34.3 48.4 0 16.7 8.3 33.1 25.3 33.1 12.2 0 19-8.5 19-8.5l-.9 7.3h19.8l15.6-97h-20.4zm-9.5 53.2c0 10.8-5.3 25.2-16.4 25.2-7.3 0-10.8-6.2-10.8-15.8 0-15.8 7.1-26.2 16.1-26.2 7.4-.1 11.1 5 11.1 16.8zm-553.4 43.8l12.4-73.2 1.8 73.2h14.1l26.2-73.2-11.6 73.2h20.9l16.1-97.1h-32.3l-20.1 59.6-1-59.6h-29.8l-16.3 97.1h19.6zm314.2.2c5.9-33.8 7-61.2 21.2-56.1 2.5-13.1 4.9-18.1 7.6-23.6 0 0-1.3-.3-3.9-.3C42.8 367.5 36 380 36 380l1.8-11.5h-19l-12.7 79H27z" fill="#fff"/><g><path d="M153.806 366.5c-14 0-24.7 4.5-24.7 4.5l-3 17.6s8.8-3.6 22.2-3.6c7.6 0 13.1.9 13.1 7 0 3.7-.7 5.1-.7 5.1s-6-.5-8.8-.5c-17.6 0-36.2 7.5-36.2 30.2 0 17.9 12.2 22 19.7 22 14.4 0 20.6-9.3 20.9-9.4l-.7 7.8h18l8-56.2c.2-23.8-20.6-24.5-27.8-24.5zm4.4 45.7c.4 3.4-2.2 19.5-14.4 19.5-6.3 0-8-4.8-8-7.7 0-5.6 3-12.3 18-12.3 3.4 0 3.8.4 4.4.5z" fill="#fff"/></g><g><path d="M198.286 447.5c5.9-33.8 7-61.2 21.2-56.1 2.5-13.1 4.9-18.1 7.6-23.6 0 0-1.3-.3-3.9-.3-9.1 0-15.9 12.5-15.9 12.5l1.8-11.5h-19l-12.7 79h20.9z" fill="#fff"/></g><path d="M295.7 435.3c1 0 2.1.3 3 .8 1 .5 1.8 1.3 2.3 2.3.6 1 .8 2 .8 3.1s-.3 2.1-.8 3.1-1.3 1.8-2.3 2.3c-1 .5-2 .8-3.1.8s-2.1-.3-3.1-.8-1.7-1.3-2.3-2.3c-.6-1-.8-2-.8-3.1s.3-2.1.8-3.1c.6-1 1.3-1.8 2.3-2.3 1.1-.6 2.2-.8 3.2-.8m0 1c-.9 0-1.7.2-2.5.7-.8.4-1.5 1.1-1.9 1.9-.5.8-.7 1.7-.7 2.6 0 .9.2 1.8.7 2.6.5.8 1.1 1.5 1.9 1.9.8.4 1.7.7 2.6.7.9 0 1.8-.2 2.6-.7.8-.5 1.5-1.1 1.9-1.9.5-.8.7-1.7.7-2.6 0-.9-.2-1.8-.7-2.6-.5-.8-1.1-1.5-1.9-1.9-1-.5-1.8-.7-2.7-.7m-2.7 8.6v-6.7h2.3c.8 0 1.4.1 1.7.2.4.1.6.3.8.6.2.3.3.6.3 1 0 .5-.2.9-.5 1.3s-.8.6-1.4.6c.2.1.4.2.6.4.3.3.6.7 1 1.3l.8 1.3h-1.3l-.6-1c-.5-.8-.8-1.3-1.1-1.6-.2-.2-.5-.2-.9-.2h-.6v2.8H293m1.1-3.8h1.3c.6 0 1-.1 1.3-.3.2-.2.3-.4.3-.7 0-.2-.1-.4-.2-.5-.1-.2-.3-.3-.5-.4-.2-.1-.5-.1-1.1-.1H294l.1 2" fill="#fff"/></g></g></g></svg>