<svg xmlns="http://www.w3.org/2000/svg" width="640" height="382.9" viewBox="-257 -153.5 640 382.9"><g><path d="M62.995 179.923c38.7-35 62.9-85.7 62.9-141.9 0-56.3-24.2-106.9-62.9-141.9-33.9-30.8-79.1-49.5-128.4-49.5-105.9 0-191.6 85.7-191.6 191.4 0 105.8 85.7 191.5 191.6 191.5 49.3-.1 94.5-18.8 128.4-49.6" fill="#0066cb"/><path d="M62.995 179.923c38.7-35 62.9-85.7 62.9-141.9 0-56.3-24.2-106.9-62.9-141.9" fill="#0066cb"/><path d="M62.995 179.923c38.7-35 62.9-85.7 62.9-141.9 0-56.3-24.2-106.9-62.9-141.9" fill="none" stroke="#0066cb" stroke-width=".31"/><path d="M191.695-153.477c-49.5 0-94.8 18.7-128.7 49.5-6.8 6.3-13.4 13.1-19.4 20.3h38.7c5.4 6.4 10.3 13.2 14.5 20.3h-67.8c-4 6.5-7.7 13.3-11.1 20.3h90c3.1 6.6 5.7 13.3 8 20.3H9.995c-2.3 6.6-4.3 13.3-5.7 20.3h117.3c2.8 13.1 4.3 26.6 4.3 40.5 0 21.3-3.4 41.7-10 60.8h-105.8c2.3 7 4.8 13.7 8 20.3h90c-3.4 7-6.8 13.8-11.1 20.3h-67.8c4.3 7.1 9.4 13.8 14.5 20.3h38.7c-6 7.2-12.5 14-19.4 20.3 33.9 30.8 79.1 49.5 128.7 49.5 105.6 0 191.3-85.7 191.3-191.5s-85.7-191.5-191.3-191.5" fill="#cc0001"/><path d="M362.795 144.323h.9c.3 0 .6 0 .6-.1.3-.2.6-.4.6-.6 0-.2-.3-.5-.6-.6 0-.1-.6-.1-.6-.1h-.9v1.4zm0 3.1h-1.1v-5.4h2.3c.6 0 .9 0 1.4.3.3.3.6.8.6 1.4 0 .6-.3 1.2-.9 1.4l.9 2.4h-1.4l-.6-2.2h-1.2v2.1zm.8 2c2.6 0 4.8-2.1 4.8-4.7s-2.3-4.7-4.8-4.7c-2.6 0-4.6 2.1-4.6 4.7.1 2.6 2.1 4.7 4.6 4.7zm-6.2-4.7c0-3.4 2.8-6.2 6.3-6.2 3.4 0 6.3 2.8 6.3 6.2 0 3.4-2.8 6.2-6.3 6.2s-6.3-2.8-6.3-6.2m-452.7-53.5h-24.2l14.2-74.6-32.7 74.6h-19.9l-4-74.2-15.9 74.2h-21.9l18.5-97.1h37.9l.6 60.1 26.2-60.1h40.1l-18.9 97.1m266.2-.9c-6.5 1.8-11.7 2.6-17.1 2.6-12.2 0-18.8-6.1-18.8-17.3 0-2.2 0-4.6.6-7.1l1.4-7.7 1.1-6.2 11.1-60.3h23.6l-3.4 18.1h12.2l-3.4 19.2h-12.2l-6.3 32.9c-.3 1.5-.3 2.5-.3 3.3 0 4.1 2.3 5.9 8 5.9 2.8 0 4.8-.2 6.5-.7l-3 17.3m-94.5-53.1c0 10 5.4 16.8 18.2 22 9.7 4 11.4 5.1 11.4 8.7 0 4.9-4.3 7.1-13.9 7.1-7.1 0-14-1-21.6-3.1l-3.1 18.2.9.2 4.6.8c1.4.2 3.4.5 6.3.7 5.7.4 10.2.7 13.4.7 25.3 0 37-8.4 37-26.4 0-10.8-4.8-17.2-16.8-22-10.2-4-11.4-4.9-11.4-8.6 0-4.3 4-6.5 11.7-6.5 4.8 0 11.4.5 17.4 1.2l3.4-18.3c-6.3-.9-15.7-1.6-21.1-1.6-27.3.2-36.7 12.4-36.4 26.9m-110.8 18.9c-2.6-.3-3.7-.3-5.4-.3-13.4 0-20.2 4-20.2 12 0 4.9 3.4 8.1 8.5 8.1 9.7-.1 16.9-8.2 17.1-19.8zm16.3 35.1h-19.9l.6-8.2c-6.3 6.5-14.2 9.6-25.1 9.6-13.1 0-21.9-8.8-21.9-21.5 0-19.2 15.4-30.4 41.8-30.4 2.8 0 6.3.2 9.7.6.9-2.6 1.1-3.7 1.1-5.1 0-5.2-4.3-7.2-15.4-7.2-6.8 0-14.5.9-19.9 2.2l-3.1.7-2.3.5 3.4-17.7c12-3 19.6-4.2 28.5-4.2 20.5 0 31.3 8 31.3 23.2 0 3.9-.3 6.8-2 15.6l-4.8 28-.9 5-.6 4-.6 2.8.1 2.1m66.6-48.7c0-1.6.3-3 .3-4 0-6.4-4.3-10.2-11.4-10.2-7.7 0-13.1 5.1-15.1 14.2h26.2zm11.7 47c-8.3 2.2-16.2 3.2-24.5 3.2-26.8 0-40.4-12.1-40.4-35.3 0-27.1 17.7-47.1 41.6-47.1 19.6 0 32.2 11.2 32.2 28.7 0 5.8-.9 11.5-3.1 19.5h-47.3c-.3 1.2-.3 1.8-.3 2.5 0 9.1 7.1 13.8 21.1 13.8 8.5 0 16.2-1.5 24.8-5l-4.1 19.7m230-43.5c0-8.2-3.4-16.1-13.1-16.1-12.2 0-19.6 14.4-19.6 27.1 0 10.7 5.1 17.9 13.7 17.7 5.1 0 16.2-7 18.2-19.3.5-2.8.8-6 .8-9.4zm24.2 9.5c-3.4 26.2-21.9 37.9-46.4 37.9-26.8 0-37.6-16.3-37.6-36.4 0-28 18.2-46.9 46.7-46.9 24.8 0 37.9 15.6 37.9 35.6 0 4.8 0 5.2-.6 9.8" fill="#231f20"/><path d="M322.395 79.123h.9s.3 0 .6-.1.3-.4.3-.6c0-.2 0-.4-.3-.5 0-.1-.6-.1-.9-.1h-.6v1.3zm0 3.1h-1.1v-5.4h2.3c.3 0 .9 0 1.4.3.3.3.6.8.6 1.4 0 .6-.3 1.2-.9 1.4l.9 2.4h-1.4l-.9-2.1h-.8v2h-.1zm.8 2c2.6 0 4.6-2.1 4.6-4.7s-2-4.7-4.6-4.7c-2.6 0-4.8 2.1-4.8 4.7s2.3 4.7 4.8 4.7zm-6.2-4.8c0-3.4 2.8-6.1 6.3-6.1 3.4 0 6.3 2.8 6.3 6.1 0 3.4-2.8 6.2-6.3 6.2s-6.3-2.7-6.3-6.2m-406.3 6.2h-23.9l14.2-74.6-32.7 74.6h-21.6l-4-74.2-14.2 74.2h-21.7l18.5-97.1h37.3l1.7 60.1 26.5-60.1h38.7l-18.8 97.1m266.2-.9c-6.5 1.8-11.7 2.6-17.1 2.6-12.2 0-18.8-6.1-18.8-17.3 0-2.2.3-4.6.6-7.1l1.4-7.7 1.1-6.3 11.1-60.3h23.6l-3.4 18.1h12.2l-3.4 19.2h-12.2l-6.3 32.9c-.3 1.4-.3 2.5-.3 3.3 0 4.1 2.6 5.8 8.3 5.8 2.6 0 4.6-.2 6.3-.7l-3.1 17.5" fill="#fff"/><path d="M238.095 29.423l-.6-2.5 4.8-12.4c-1.1-.1-1.7-.2-1.7-.2-1.4-.3-2-.4-2.3-.4-.6-.2-1.4-.2-2.3-.2-8 0-13.4 3.5-20.8 12.8l2.6-14h-24.8l-14.5 78.8h23.6c3.1-18.1 4.6-28.4 6.5-36.9 3.1-14.2 13.7-20.6 21.4-19.2.9.2 1.4.2 2.6.6l1.4.5 4.1-6.9" fill="#231f20"/><path d="M246.295 7.423c-2-.8-2.3-.8-2.6-.9-1.1-.3-2-.4-2-.5-.9-.1-1.7-.2-2.6-.2-7.7 0-13.4 3.5-20.8 12.8l2.3-12h-21.6l-14.5 78.9h23.9c8.5-48.3 12.2-56.7 23.6-56.7.9 0 1.7.1 2.8.2l2.8.6 8.7-22.2m-163.9 24.3c0 10 5.7 16.8 18.5 22 9.7 3.9 11.1 5.1 11.1 8.7 0 4.9-4.3 7.1-13.7 7.1-7.4 0-14-1-21.6-3.1l-3.4 18.2 1.1.2 4.3.8c1.4.3 3.7.5 6.5.7 5.7.4 10 .7 13.1.7 25.6 0 37.3-8.3 37.3-26.3 0-10.8-4.8-17.2-17.1-22-10-4-11.1-4.9-11.1-8.6 0-4.2 4-6.4 11.7-6.4 4.8 0 11.1.4 17.4 1.2l3.4-18.3c-6.3-.9-15.7-1.6-21.3-1.6-26.8-.1-36.2 12.1-36.2 26.7m-111.6 18.8c-2.6-.3-3.7-.3-5.4-.3-13.4 0-20.2 4-20.2 12 0 4.9 3.1 8.1 8.5 8.1 9.7-.1 16.5-8.2 17.1-19.8zm17.3 35.1h-19.9l.6-8.2c-6 6.5-14.2 9.5-25.1 9.5-12.8 0-21.6-8.8-21.6-21.5 0-19.2 15.4-30.4 41.8-30.4 2.6 0 6 .2 9.7.6.6-2.6.9-3.7.9-5.1 0-5.2-4.3-7.2-15.4-7.2-6.8 0-14.5.8-19.6 2.2l-3.4.9-2 .5 3.1-17.8c12-3 19.6-4.2 28.5-4.2 20.5 0 31.3 8 31.3 23.1 0 3.9-.3 6.8-1.7 15.6l-5.1 28-.9 5-.6 4-.3 2.7-.3 2.3m65.5-48.6v-4c0-6.4-4-10.2-11.1-10.2-7.7 0-13.1 5-15.4 14.2h26.5zm12.5 47c-8 2.1-15.9 3.2-24.2 3.2-26.8 0-40.7-12.1-40.7-35.4 0-27.1 17.6-47 41.6-47 19.6 0 32.2 11.2 32.2 28.7 0 5.8-.9 11.5-2.9 19.5h-47.3c-.3 1.2-.3 1.8-.3 2.5 0 9.1 7.1 13.8 20.8 13.8 8.5 0 16.2-1.6 24.8-5l-4 19.7m229.8-44.3c0-8.2-3.4-16.1-13.1-16.1-12.2 0-19.6 14.4-19.6 27.1 0 10.7 5.1 17.9 13.7 17.8 5.1 0 16.2-7 18.2-19.3.5-2.9.8-6 .8-9.5zm24.8 10.2c-3.7 26.2-21.9 37.9-46.4 37.9-27 0-37.9-16.4-37.9-36.4 0-28 18.5-46.9 47-46.9 24.8 0 37.9 15.6 37.9 35.6-.1 4.9-.1 5.2-.6 9.8" fill="#fff"/></g></svg>