<svg xmlns="http://www.w3.org/2000/svg" width="640" height="110.5" viewBox="187.4 700.1 640 110.5"><g><g><path d="M751.599 746.006c-2.8 1.9-7.4 2.9-13.4 2.9h-2.9l4-21.6h2.2c5 0 8.6.7 10.9 2.2 2.2 1.4 3.5 3.9 3.5 7.1 0 4.2-1.4 7.3-4.3 9.4m-402.5 34.3h-45.6l2.2-12h33.5l5.1-28h-33.5l1.9-10.6h45.6l-9.2 50.6zm434.2-71.9c-8.2-5.6-20.3-8.3-36.2-8.3h-42.4l-14.9 80.4h-45.6l2.2-12h33.8l5-28h-33.8l2.1-10.6h33.8l5.6-29.8h-73.6l-14.1 76.2h-17.7l14.2-76.2h-40.8l-14.1 76.2h-17.1l14.2-76.2h-41l-14.9 80.4h-46.2l2.2-12h33.8l5.1-28h-33.7l2.1-10.6h35.9l5.4-29.8h-214.3l-10.6 57.3c-1.1-5.3-19.5-57.1-19.5-57.1h-40.5l-20.3 110.2h40.5s9-51.8 9.2-56.9l20.5 56.9h126.5l14.9-80.4h12.7l-14.9 80.4h327.4l7.4-39.9 12 39.9h40.9l-16-42.3c8.6-1.8 15.3-5.8 20.2-11.8 4.7-6.1 7.1-13.6 7.1-23-.3-11.1-4.3-19.3-12.5-25" fill="#8dc63f"/><path d="M799.599 789.406c0-7.4 6-13.2 13.2-13.2s13.2 6 13.2 13.2c0 7.2-6 13.2-13.2 13.2s-13.2-6-13.2-13.2m-1.4 0c0 8.1 6.5 14.6 14.6 14.6s14.6-6.5 14.6-14.6-6.5-14.6-14.6-14.6-14.6 6.5-14.6 14.6" fill="#8a9299"/><path d="M810.299 788.406h1.3c.6 0 1 0 1.5-.1.6 0 1-.1 1.4-.3.4-.1.7-.4 1-.7.1-.3.3-.7.3-1.1s-.1-.8-.3-1.1c-.3-.3-.7-.4-1-.6-.4-.1-.8-.1-1.4-.3h-2.8v4.2zm-3.9-6.4h7.5c1.1 0 2.1.1 2.9.4.8.3 1.7.7 2.2 1.3.6.6.8 1.4.8 2.5 0 .8-.4 1.7-1.1 2.2-.7.7-1.7 1.1-2.9 1.3.6 0 1 .1 1.3.6.4.3.6.7.8 1l3.2 5.8h-4.3l-2.4-4.7c-.3-.6-.6-1-1-1.3-.4-.1-1-.4-1.8-.4h-1.3v6.3h-3.9v-14.9z" fill="#848b92"/></g></g></svg>