<svg viewBox="0 0 640 752" xmlns="http://www.w3.org/2000/svg"><defs><style>.cls-1{fill:#253b80}</style></defs><g id="Layer_2" data-name="Layer 2" transform="translate(.874 .01) scale(3.71301)"><g id="Layer_1-2" data-name="Layer 1"><path class="cls-1" d="M48.679 195.318l3.503-22.256-7.805-.181H7.108l25.9-164.225a2.17 2.17 0 0 1 .724-1.287 2.115 2.115 0 0 1 1.38-.509h62.842c20.862 0 35.26 4.342 42.776 12.91a29.434 29.434 0 0 1 6.854 12.843c1.138 4.85 1.159 10.646.046 17.714l-.08.516v4.529l3.524 1.996a24.72 24.72 0 0 1 7.135 5.44 25.33 25.33 0 0 1 5.789 12.984c.85 5.326.57 11.664-.824 18.839a66.341 66.341 0 0 1-7.718 21.324 43.86 43.86 0 0 1-12.227 13.4 49.602 49.602 0 0 1-16.467 7.43 82.121 82.121 0 0 1-20.58 2.378h-4.892a14.71 14.71 0 0 0-14.545 12.414l-.368 2.003-6.19 39.226-.282 1.44a1.239 1.239 0 0 1-.388.837 1.036 1.036 0 0 1-.643.235z"/><path d="M154.41 51.365q-.281 1.799-.643 3.685c-8.288 42.549-36.64 57.247-72.85 57.247H62.48a8.954 8.954 0 0 0-8.85 7.584l-9.44 59.867-2.673 16.97a4.717 4.717 0 0 0 4.656 5.453h32.7a7.87 7.87 0 0 0 7.771-6.632l.322-1.662 6.157-39.071.395-2.144a7.864 7.864 0 0 1 7.772-6.646h4.89c31.682 0 56.484-12.863 63.733-50.085 3.028-15.55 1.46-28.534-6.552-37.665a31.267 31.267 0 0 0-8.951-6.9z" fill="#179bd7"/><path d="M145.741 47.908q-1.9-.553-3.912-1.005-2.02-.442-4.147-.783a102.397 102.397 0 0 0-16.253-1.186H72.174a7.854 7.854 0 0 0-7.765 6.646l-10.478 66.365-.301 1.936a8.954 8.954 0 0 1 8.85-7.584h18.437c36.21 0 64.563-14.705 72.85-57.247.248-1.26.456-2.486.643-3.685a44.175 44.175 0 0 0-6.813-2.874 60.316 60.316 0 0 0-1.856-.583z" fill="#222d65"/><path class="cls-1" d="M64.41 51.58a7.856 7.856 0 0 1 7.764-6.64h49.255a102.397 102.397 0 0 1 16.253 1.186q2.13.342 4.147.784 2.01.452 3.912 1.005c.63.187 1.253.381 1.863.576a44.842 44.842 0 0 1 6.813 2.874c2.465-15.724-.02-26.43-8.522-36.124C136.523 4.569 119.606 0 97.96 0H35.119a8.981 8.981 0 0 0-8.877 7.59L.067 173.505a5.4 5.4 0 0 0 5.326 6.244H44.19l9.741-61.803z"/></g></g></svg>