<svg xmlns="http://www.w3.org/2000/svg" width="640" height="292.6" viewBox="-454.6 250.7 640 292.6"><path d="M159.8 543.3H-429c-13.9 0-25.6-11.7-25.6-25.6V276.3c0-13.9 11.7-25.6 25.6-25.6h588.8c13.9 0 25.6 11.7 25.6 25.6v241.4c0 13.9-11.7 25.6-25.6 25.6z" fill="#e41e2c"/><g><linearGradient id="a" x1="-134.6" x2="-134.6" y1="532.286" y2="265.314" gradientUnits="userSpaceOnUse" gradientTransform="matrix(1 0 0 -1 0 795.8)"><stop offset="0" stop-color="#FFF" stop-opacity=".8"/><stop offset=".531" stop-color="#EE516F" stop-opacity=".7"/><stop offset=".73" stop-color="#E83D50" stop-opacity=".827"/><stop offset=".911" stop-color="#E52936" stop-opacity=".943"/><stop offset="1" stop-color="#E3202D"/></linearGradient><path d="M158 530.5h-585.1c-8 0-14.6-6.6-14.6-14.6V278.1c0-8 6.6-14.6 14.6-14.6H158c8 0 14.6 6.6 14.6 14.6v237.7c0 8.1-6.6 14.7-14.6 14.7z" fill="url(#a)"/></g><g><path d="M-406.3 345.1h543.1v176.3h-543.1z" fill="none"/><text transform="translate(-406.24 453.495)" font-size="135.314" font-family="AdobeHeitiStd-Regular-GBpc-EUC-H" fill="#fff">银行转账</text></g></svg>