<svg width="32" height="32" xmlns="http://www.w3.org/2000/svg"><g fill="none" fill-rule="evenodd"><g><path d="M0 0h32v32H0z"/><path d="M24.75 16.15c0-1.337.813-2.507 2-3.001V9.75H5.25v3.399a3.252 3.252 0 0 1 0 6.002v3.599h21.5v-3.599a3.252 3.252 0 0 1-2-3.001zm3.5 2.45v4.9a.75.75 0 0 1-.75.75h-23a.75.75 0 0 1-.75-.75v-4.9a.75.75 0 0 1 .6-.735 1.75 1.75 0 0 0 0-3.43.75.75 0 0 1-.6-.735V9a.75.75 0 0 1 .75-.75h23a.75.75 0 0 1 .75.75v4.7a.75.75 0 0 1-.6.735 1.75 1.75 0 0 0 0 3.43.75.75 0 0 1 .6.735zm-16.875-1.5v-1.7a.375.375 0 1 0-.75 0v1.7a.375.375 0 1 0 .75 0zm0-3.4V12a.375.375 0 1 0-.75 0v1.7a.375.375 0 1 0 .75 0zm0 6.8v-1.7a.375.375 0 1 0-.75 0v1.7a.375.375 0 1 0 .75 0zm3.125-7.125h8a.375.375 0 1 0 0-.75h-8a.375.375 0 1 0 0 .75zm0 3h8a.375.375 0 1 0 0-.75h-8a.375.375 0 1 0 0 .75zm0 3h8a.375.375 0 1 0 0-.75h-8a.375.375 0 1 0 0 .75z" fill="#062347" fill-rule="nonzero"/></g></g></svg>