<svg xmlns="http://www.w3.org/2000/svg" xmlns:xlink="http://www.w3.org/1999/xlink" width="640" height="675.89" viewBox="28.05 118.16 640 675.89"><g><g><g><path d="M307.71 237.14c-46.99 8.6-88.79 31.8-120.58 64.79h119.48c-6.8-8.8-10.8-19.8-10.8-31.7.1-12.59 4.5-24.09 11.9-33.09zm201.16 64.69c-31.8-32.99-73.59-56.19-120.58-64.79 7.4 9 11.8 20.5 11.8 33.09 0 11.9-4 22.9-10.8 31.7h119.58zm153.58 41.3l-104.68 36.99c-10.7-29.4-27.5-55.99-48.79-78.09V489.8c0 135.08-129.88 181.97-155.88 188.87 90.69-2 167.97-58.09 200.97-137.18 34.29 18.5 68.29 36.79 98.08 52.89C599.46 709.67 482.98 789.76 348 789.76S96.54 709.67 43.85 594.39c26.5-14.3 61.39-33.19 97.98-52.99 32.89 79.19 110.28 135.28 200.97 137.28-25.9-6.9-155.78-53.89-155.78-188.87V302.03c-21.3 22.2-38.09 48.69-48.79 78.19L33.55 343.23C79.94 214.45 203.32 122.46 348 122.46s268.06 91.89 314.45 220.67z" fill="#008348"/><path d="M348 122.46c144.68 0 268.06 91.89 314.35 220.67l-104.68 36.99c-10.7-29.4-27.5-55.99-48.79-78.09V489.8C508.87 624.88 379 671.78 353 678.68c90.69-2 167.97-58.09 200.97-137.18 34.29 18.5 68.29 36.79 98.08 52.89C599.46 709.67 482.98 789.76 348 789.76S96.54 709.67 43.85 594.39c26.5-14.3 61.39-33.19 97.98-52.99 32.89 79.19 110.28 135.28 200.97 137.28-25.9-6.9-155.78-53.89-155.78-188.87V302.03c-21.3 22.2-38.09 48.69-48.79 78.19L33.55 343.23C79.94 214.45 203.32 122.46 348 122.46m41.29 179.37h119.48c-31.8-32.99-73.59-56.19-120.58-64.79 7.4 9 11.8 20.5 11.8 33.09.1 11.91-3.9 22.91-10.7 31.7m-81.58-64.69c-46.99 8.6-88.79 31.8-120.58 64.79h119.48c-6.8-8.8-10.8-19.8-10.8-31.7.1-12.59 4.5-24.09 11.9-33.09M348 118.16c-70.99 0-138.98 21.7-196.57 62.89a335.252 335.252 0 0 0-72.89 70.79c-20.9 27.4-37.39 57.69-48.99 89.99l-1.5 4 4.1 1.4 104.68 36.99 4 1.4 1.5-4c9.2-25.3 22.7-48.29 40.39-68.49V489.7c0 31.8 7.1 61.29 21.2 87.59 11.6 21.7 27.9 41.29 48.59 58.29 20.2 16.6 40.99 28.1 57.49 35.49-72.79-12.8-135.18-61.89-164.07-131.38l-1.8-4.4-4.2 2.3c-36.59 19.8-71.49 38.69-97.98 52.99l-3.6 1.9 1.7 3.7c26.6 58.19 68.99 107.58 122.68 142.78 55.09 35.99 119.18 55.09 185.27 55.09s130.18-19.1 185.27-55.09c53.69-35.19 96.18-84.49 122.78-142.68l1.7-3.7-3.6-1.9c-29.8-16-63.79-34.39-98.08-52.89l-4.2-2.3-1.8 4.4c-29 69.49-91.39 118.48-164.07 131.28 16.5-7.4 37.39-18.9 57.59-35.49 20.6-17 36.99-36.59 48.59-58.29 14.1-26.3 21.2-55.79 21.2-87.59V313.13c17.6 20.2 31.2 43.19 40.39 68.49l1.5 4 4-1.4 104.68-36.99 4.1-1.4-1.5-4.1c-11.6-32.29-28.1-62.49-48.99-89.99-20.7-27.1-45.19-50.89-72.89-70.69-57.69-41.19-125.68-62.89-196.67-62.89zm49.29 179.37c4.7-8.3 7.1-17.7 7.1-27.4 0-9.4-2.3-18.5-6.7-26.7 37.89 8.7 72.29 27.3 100.68 54.09l-101.08.01zm-199.57 0c28.3-26.8 62.79-45.29 100.58-54.09-4.4 8.2-6.7 17.3-6.7 26.7 0 9.7 2.4 19.1 7.1 27.4H197.72v-.01z" fill="#fff"/></g><g fill="#fff"><path d="M466.78 434.31c4.1-5.4 6.4-11 6.5-15.5h-16.7c0 2.7-3.2 5-7 5h-35.59c-3.9 0-7.1-2.2-7-5.1h-17.1c.1 4.5 2.5 10.3 6.7 15.7m-.2-.1c7.1 9.3 19.6 17.7 35.29 17.7s28-8.4 35.09-17.7m-14.49-20.49c0 1.2 1 2.1 2.1 2.1h25.4c1.2 0 2.1-.9 2.1-2.1s-.9-2.1-2.1-2.1h-25.4c-1.2 0-2.1 1-2.1 2.1z"/><path d="M431.19 385.72v35.39h3.5v-35.19c-1-.1-2-.2-3.1-.2h-.4zm23.09 18.4v5h25.5l2.7-11.2-4.1.9-1.4 7.2h-3.6v-6.1l-3.1.7v5.4h-4.4v-4.5l-3.5.8v3.7h-4.4v-2.7zm19.1-13.9v-21l-14.4 6.4 12.4 5.4v9.6z"/><path d="M405.59 353.83s.7 0 .5.5c-12.4 21.5 3.2 40.59 3.2 40.59 3.4-6.9 10.2-12.2 22.3-11.9 4.4.1 8.2.8 11.7 2.4 0 0 6.9 2.2 14.8 8.1 0 0-8.2-17-4.4-33.79 4.8-21.1 16.2-27.7 21.4-31.7.3-.2.5-.5.5-.8 0-.5-.4-1-1-1-.2 0-.3 0-.5.1-27.4 10.5-69.69 25.9-69.69 25.9s-1.21.9 1.19 1.6zm27.6-31.1c1.8 0 3.2-.9 3.2-2.1 0-1.1-1.4-2.1-3.2-2.1-1.8 0-3.2.9-3.2 2.1s1.4 2.1 3.2 2.1zm47.49 94.99h-.5c-3.9 0-7.1 4.5-7.1 10 0 2.1.4 4.4 1.1 6-1.2.1-2.2.3-3.1.6-7.2 2.4-5.6 10.5-5.6 10.5-7-.9-15.3 5.1-15.3 5.1s7.2-1.3 14.7 2.6c0 0 1.8-4.1 4.8-5.4 0 0-3-6.8 2.2-7.4 1.3-.2 0 0 0 0 2-.1 1.9.6 1.9.6-3.7.5-3.2 3.7-3.2 3.7.4 1.9 2.1 3.3 4.1 3.3.8 0 1.6-.2 2.3-.7 3.3-2.8 2.9-7.4 2.2-10.7-.1-.5-.2-1-.3-1.6-.7-3.2-1.6-7.2-1.2-9.1.4-2.3.3-4.5.3-4.5s.1-1.6 1.1-1.3c0 0-.8 2.4 1.7 2.8 1.2 0 2.1-1 2.1-2.2 0-1.4-1-2.3-2.2-2.3zm-69.49-3.9c0-1.2-1-2.1-2.1-2.1h-25.4c-1.2 0-2.1.9-2.1 2.1s.9 2.1 2.1 2.1h25.4c1.1 0 2.1-.9 2.1-2.1zm-2.1-4.7v-5l-3.7-.8v2.7h-4.4v-3.7l-3.5-.8v4.5h-4.4v-5.4l-3.1-.7v6.1h-3.6l-1.4-7.2-4.1-.9 2.7 11.2zm-16.3-66.79c15 5.1 18.6 5.2 21.6 1.2l-.6-6c-1.9-.3-3 .2-4 .7s-.8.9-.8-.5 2.3-2 9.2-2.3c6.8-.2 13 2.4 13 2.4v1.6l3.5-1.3v-12.3s-2.3-.7-7.2-1.5c-9.2-1.6-12.7 1.2-17 3.7s-3.3 7.1-3.3 10.2c0 3 2.6 2.5 4.9 4.1 1.8 1.3-.3 1.5-4.3-.2-3.6-1.5-2.8-5-2.8-5s-3.2.2-5.7-.5c-2.6-.7-15.6-4.5-20.1.5-4 4.4-2.8 7-2.8 9.1.01.2 2.11-8.7 16.4-3.9zm94.79 47.49c-.2 0-.5 0-.7.1l-31.2 6.9c-.1 0-.2 0-.3.1-1 .3-1.5 1.1-1.5 2 0 1.2.9 2.1 2.1 2.1.3 0 .6-.1.8-.1l30.9-6.9c1.1-.1 2-1 2-2.1.1-1.2-.9-2.1-2.1-2.1zm-80.29 11.2c1.2 0 2.1-1 2.1-2.1 0-.9-.6-1.7-1.5-2l-.3-.1-31.2-6.9c-.2-.1-.4-.1-.7-.1-1.2 0-2.1 1-2.1 2.1s.9 2.1 2 2.1l30.9 6.9c.3.1.5.1.8.1zm-14.2-10.1v-18.9l-14.39 6.4 12.39 5.4v6.6z"/></g><path d="M204.02 507C224.12 496 348 429.21 348 429.21S467.98 494 491.98 506.9c0 5.8-4.6 66.69-60.09 111.78-43.8 35.5-83.89 44.6-83.89 44.6s-39.89-8.9-83.59-44.49c-55.59-45.2-60.39-106.09-60.39-111.79z" fill="#fff"/><g><g><g><defs><path id="a" d="M204.02 507C224.12 496 348 429.21 348 429.21S467.98 494 491.98 506.9c0 5.8-2.5 69.09-57.99 114.08-43.79 35.49-81.89 43.79-85.99 42.29.5 4.8-41.29-6.3-85.09-41.89-55.49-45.29-58.89-108.68-58.89-114.38z"/></defs><clipPath id="b"><use xlink:href="#a" overflow="visible"/></clipPath><path d="M261.21 621.38l24.2-17.1v16.2l15.6-9v19.6l37.39-26.8h19l37.39 26.8v-19.7l15.6 9v-16.2s21.4 13.7 23.6 16.1c-.4 2.5-75.99 47.09-86.09 46.69-34.19-7.99-86.69-45.59-86.69-45.59z" clip-path="url(#b)" fill="#008348"/></g></g></g><path d="M317.7 546.7h60.59v54.89H362v-27.9c-.1-7.3-6.7-13.2-14-13.2-7.4 0-13.9 6-14 13.2v27.9h-16.3V546.7zm-2.59-16.2v13.6h-29.7v-13.6zm0-22.4v19.8h-29.7v-19.8h6.8v7.5h4.5v-7.5h2.5v-6.2h-19.3l6.8-5.9-6.8-5.8h21.4v17.9h2.5v7.5h4.6v-7.5zm-29.7 93.49v-13.6h29.7v13.6zm29.7-54.89v38.69h-29.7V546.7zm95.48-16.2v13.6h-29.7v-13.6zm0-22.4v19.8h-29.7v-19.8h6.7v7.5h4.6v-7.5h2.4v-6.2H375.3l6.89-5.9-6.89-5.8h21.49v17.9h2.4v7.5h4.6v-7.5zm-29.7 93.49v-13.6h29.7v13.6zm29.7-54.89v38.69h-29.7V546.7zm-32.29-9.4v6.8h-60.6v-13.6h10v6.8h7.1v-6.8h9.4v6.8h7.6v-6.8h9.4v6.8h7v-6.8h10.1zm-90.19 66.99h46.29l-30.59 21.29v-18.99l-15.7 9zm73.49 0h46.19v11.3l-15.6-9v18.99zm-28.5-131.58h6.8v7.5h4.6v-7.5h2.4v-6.2h-19.3l6.9-5.9-6.9-5.9h21.5v18h2.4v7.5h4.6v-7.5h6.7v27.89h-29.7zm29.7 30.39v24.8h-29.7v-24.8z" fill="#008348"/><path d="M359.4 573.69v27.9h-22.8v-27.9c.1-5.7 5.3-10.7 11.4-10.7 6 .1 11.3 5 11.4 10.7z" fill="#008348"/><path d="M337.8 641.58v4.9h20.3v-4.9h-20.3zm0-10.5v4.9h20.3v-4.9h-20.3zm0-10.6v4.9h20.3v-4.9h-20.3zm0-10.59v4.9h20.3v-4.9h-20.3z" fill="#fff"/><path d="M356.7 598.99h-17.5v-25.2c.1-4.1 4-8 8.8-8 4.7 0 8.7 3.9 8.8 8v25.2h-.1z" fill="#008348"/><g><g><g><defs><path id="c" d="M356.7 598.99h-17.5v-25.2c.1-4.1 4-8 8.8-8 4.7 0 8.7 3.9 8.8 8v25.2h-.1z"/></defs><clipPath id="d"><use xlink:href="#c" overflow="visible"/></clipPath><path d="M344.1 565.79v2.9h2.9v-2.9h-2.9zm4.9 0v2.9h2.9v-2.9H349zm-7 7.9v-2.9h-3.8v2.9h3.8zm2.1-2.9v2.9h2.9v-2.9h-2.9zm4.9 0v2.9h2.9v-2.9H349zm4.9 0v2.9h4.2v-2.9h-4.2zm-11.9 28.8v-3.5h-4v3.5h4zm2.1-3.5v3.5h2.9v-3.5h-2.9zm4.9 0v3.5h2.9v-3.5H349zm4.9 0v3.5h4.2v-3.5h-4.2zm-11.9-2.2v-2.9h-3.8v2.9h3.8zm2.1-2.9v2.9h2.9v-2.9h-2.9zm4.9 0v2.9h2.9v-2.9H349zm4.9 0v2.9h4.2v-2.9h-4.2zm-11.9-2.2v-2.9h-3.8v2.9h3.8zm2.1-2.8v2.9h2.9v-2.9h-2.9zm4.9 0v2.9h2.9v-2.9H349zm4.9 0v2.9h4.2v-2.9h-4.2zm-11.9-2.2v-2.9h-3.8v2.9h3.8zm2.1-2.9v2.9h2.9v-2.9h-2.9zm4.9 0v2.9h2.9v-2.9H349zm4.9 0v2.9h4.2v-2.9h-4.2zm-11.9-2.2v-2.9h-3.8v2.9h3.8zm2.1-2.8v2.9h2.9v-2.9h-2.9zm4.9 0v2.9h2.9v-2.9H349zm4.9 0v2.9h4.2v-2.9h-4.2z" clip-path="url(#d)" fill="#fff"/></g></g></g><path d="M297.21 559.59v16h6.1v-16.1c0-1.7-1.4-3-3.1-3-1.6 0-3 1.3-3 3.1zm95.48 0v16h6.1v-16.1c0-1.7-1.4-3-3.1-3s-3 1.3-3 3.1z" fill="#fff"/><g><path d="M230.52 429.31v-.3.3zm29.49 11.9s-1.1 2.3-1.9 3.7c-.8 1.4-2.2 3.5-2.2 3.5s3.1.5 5.7-.7c2.3-1.1 4.4-3.7 4.4-3.7s-2-.4-3.1-.9c-1.3-.5-2.9-1.9-2.9-1.9zm-4.4-12.7s-3.6-1.7-8.3-5.7c-6.2-5.2-14-14.4-17.5-28.7-5.3-21.9 5.4-39.19 5.4-39.19s-2.8-.5-4.6-1c-1.4-.4-3.5-1.2-3.5-1.2s-.5.8-1.8 2.6c2.9 2.4 3.5 5.8 2.1 9.2-3.4 8.3-5.4 19-3 30.8 1.9 9.1 4.2 14.3 9.9 21.6 1.6 2.4 3.2 4.2 4.6 5.8.5.6.9 1.1 1.4 1.6 2.1 2.5 3.4 5.7-.5 9.5 0 0 1.1 1.6 1.9 2.5 0 0 2.8.2 4.5 1.9 2.2 2.3 1.6 4.4 1.6 4.4-1.2-2.3-3.5-3.9-6.2-3.9-3.8 0-6.8 3.1-6.8 6.8 0 2.3 1.1 4.3 2.9 5.6 11.2 7.8 18.1-6.3 21.2-13.5 2.9-6.91-3.3-9.11-3.3-9.11z" fill="#fff"/><path d="M264.21 449.51c-3.8 2.6-9.8 1.5-9.8 1.5s6.3 4.1 13.8 1.1c5.5-2.2 8.1-7.7 8.1-7.7h-7.7c.1 0-2.2 3.6-4.4 5.1zm3.6-98.88l14.3 37.89 1.9-3.1-13.4-35.79zm-6.7 2.1l16.3 43.09 1.9-3-15.4-40.89zm32.5 17.59l-9.5-25.59-2.8 1 10.4 27.59zm-39.4-16.09l18.5 48.99 2-3-17.6-46.49z" fill="#fff"/><path d="M230.32 350.83s7.8 3.9 26.4 0c18-3.8 35.19-15.2 49.29-12 1-1.7 2.8-2.9 4.9-2.9 2.6 0 4.8 1.8 5.4 4.2.2.9-.4 1.1-.4 1.1-.5-1.9-2.2-3.3-4.2-3.3-2.3 0-4.2 1.9-4.2 4.2 0 .2 0 .5.1.7 8.4.9 11.4 4.5 11.4 4.5 5.9-6.1 2.5-15.6-10.3-19.1-12.7-3.6-22.8 1.5-41.59 2-18.5.5-31.5-5.8-31.5-5.8s2.6 15.4-5.3 26.4zm79.59 3.4s-2.7-1.1-4.4-.8c-1.8.3-4 2.4-4 2.4l-6.8 9.9 1.8 4.8-33.19 52.19-.7 1.1-.4-1.1-2.3-6.2-4.3 6.2-1.9 2.7s5.4 1.3 6.8 4.2c1.6 3.2 2.6 6.9.9 9.2 1.1.8 3.2 2.3 3.2 2.3l9.5-18.3 35.79-68.59z" fill="#fff"/><path fill="#fff" d="M274.71 348.13l12.3 32.59 1.9-3-11.5-30.59zm37.1 7.4l-34.99 67.29-9.6 18.5h18s2.8-7.8 6.7-18.5c7.7-21.4 19.7-54.19 21.6-58.29 2.68-5.6-1.71-9-1.71-9z"/><g><path d="M232.12 418.52c-5.9-7.6-8.4-13.2-10.3-22.6-1.5-7.5-1.4-14.5-.3-20.8.1-.5.2-.9.3-1.3-.4-2.3-1-4.9-2.6-6.5-.5 1.4-5.5 16.5-3.5 28.6 2.1 13 15.9 28.4 15.8 28.2.4-.8 1.4-3.6.6-5.6z" fill="#fff"/></g><path fill="#fff" d="M246.82 355.23l21.09 55.59 1.9-3-19.89-52.89zm66.09-8.9c-6.1-2.8-10.2-.2-11.3 2.3-1 2.3 0 4.6 0 4.6s.8-1 2.4-1.7 4.8-.5 7.3.8c2.3 1.2 4.1 3.2 4.7 4.8.6 1.6.8 2.8.8 2.8s2.4-.8 3.4-3.2c1.09-2.3.19-7-7.3-10.4z"/><g><path d="M239.52 428.01c-.2-.5-.6-1-1.1-1.7-.3-.4-.6-.7-.8-1l-.3-.4-1-1.1c-.3-.3-1.8-2.2-1.8-2.2s-.9 2.4-1.8 3.6c-1.4 1.9-2.1 2.7-2.2 3.8v.2c.2 2.3 2.2 4.2 4.5 4.2 1 0 1.9-.5 2.7-1.2l.5-.6.4-.4c.2-.2.3-.4.5-.6.3-.5.4-1.1.4-1.7.1-.3 0-.6 0-.9z" fill="#fff"/></g><path fill="#fff" d="M239.62 355.43l23.69 62.59 1.9-3-22.39-59.59zm-11.6-5.3c2.9-4.6 3.8-6.3 5-13 1.9-10.1-.6-14.7-.6-14.7-3.5 1.4-14.5 20-14.5 20 0 .5 4.5 5.1 10.1 7.7zm-4.9 18.49c.5-1.8 1.1-3.4 1.8-5 .9-2.2.6-4.2-.7-5.7-.9-1-2.6-1.1-3.3-1.1-2.1 0-3.8 1.8-3.8 4.1v.6c.8 3.2 3.9 2.1 6 7.1z"/></g><g><path d="M373.4 312.63c-7.4 4.4-16.1 7-25.4 7s-18-2.6-25.4-7H197.82V489.7c0 140.28 148.58 179.07 150.18 179.07 1.7 0 150.18-38.79 150.18-179.07V312.63H373.4zM348 220.65c27.3 0 49.49 22.2 49.49 49.49 0 14.8-6.5 28-16.7 37.09h122.78V489.7c0 143.78-151.68 184.57-155.58 184.57-3.8 0-155.58-40.79-155.58-184.57V307.23h122.78c-10.3-9.1-16.7-22.3-16.7-37.09.02-27.3 22.21-49.49 49.51-49.49z" fill="#fff"/><path d="M348 675.78c-2.1 0-41.49-10.3-80.09-38.59-35.09-25.7-76.89-72.19-76.89-147.38V305.83H311.7c-9.3-9.5-14.6-22.3-14.6-35.69 0-28.1 22.8-50.89 50.89-50.89s50.89 22.8 50.89 50.89c0 13.4-5.3 26.2-14.6 35.69h120.68V489.8c0 75.19-41.79 121.68-76.89 147.38-38.58 28.2-77.97 38.6-80.07 38.6zM193.82 308.73V489.8c0 73.69 40.89 119.28 75.19 144.58 37.49 27.7 75.69 38.19 78.99 38.49 3.2-.3 41.39-10.8 78.99-38.49 34.29-25.3 75.19-70.99 75.19-144.58V308.73H376.9l2.9-2.5c10.3-9.1 16.3-22.3 16.3-35.99 0-26.5-21.6-48.09-48.09-48.09-26.5 0-48.09 21.6-48.09 48.09 0 13.8 5.9 26.9 16.3 35.99l2.9 2.5h-125.3z" fill="#008348"/></g><path d="M392.39 270.14c0 24.5-19.8 44.29-44.29 44.29-24.5 0-44.29-19.8-44.29-44.29s19.8-44.29 44.29-44.29c24.4 0 44.29 19.79 44.29 44.29zm-2.7 0c0-9.3-3.1-18-8.3-24.9-.2.2-.4.4-.6.7 3.9 5.3 10.1 20.1 7 36.79 1.2-3.99 1.9-8.19 1.9-12.59zm-9.99-27c-4.4-5.1-9.9-9.2-16.3-11.7-.3 2.4-.3 5-.6 7.4-.4 3.7-1 8.1-2.3 11.1 6.2.7 11.4 2.1 14.5 4 .7-3.2 2.1-8.6 4.7-10.8zm-18.8-12.59c-4.1-1.3-8.4-2-12.9-2-6 0-11.7 1.3-16.9 3.6.2 1.9 3.2 9.6 9.1 17.9 5.9-.7 12-.7 17.6-.3 2.3-4.61 2.5-13.81 3.1-19.2zm-32.2 2.69c-5.2 2.7-9.7 6.5-13.3 11.1 2.1 1.7 6 5.6 8.6 9.7 4-1.7 8.5-2.8 13.2-3.6-4.3-6.3-7.7-13.2-8.5-17.2zm-14.89 13.3c-4.6 6.7-7.4 14.8-7.4 23.6 0 8.2 2.4 15.9 6.5 22.3-8.6-18.6-2.1-39.7.9-45.9zm22.79 63.59c3.6 1 7.5 1.6 11.5 1.6 3.9 0 7.6-.5 11.2-1.5.1-1.5-.2-4.1-1.6-6.9-6.6.6-13.5.4-19.7-.4-1.8 3.1-2.2 5.1-1.4 7.2zm25.4-.8c6.2-2.2 11.7-5.8 16.2-10.5-.4-.4-.8-.8-1.3-1.1-4.2 2.8-10 4.4-16.4 5.3 1 2.4 1.4 4.6 1.5 6.3zm12.4-52.49c-6.8-5-33.99-7.4-50.39.1-1 .4-2.2 5-3 10.9 12.9-4.3 45.59-5 56.69-1.2-.7-4.9-1.8-8.7-3.3-9.8zm3.9 27.5c-15.5 6.4-44.19 5.4-58.09.7.3 4.3 1.1 8 2.7 10 4.7 6.1 38.69 9.5 52.49.5 1.5-1 2.5-5.6 2.9-11.2zm-58.3-2.2c13.3 5 43.59 6 58.39-.8.1-3.8 0-7.8-.4-11.5-8-4.2-45.39-3.8-57.39 1.1-.4 3.6-.6 7.5-.6 11.2zm59.8 14.39c11.3-19.8 4.2-40.29-.4-47.79-1.1 2.9-1.8 6.6-2 7.5 4.3 7.2 5.3 31.2 1.2 39.29.5.41.9.71 1.2 1zm-61.8-.39c.5-.3.9-.5 1.3-.7l.5-.2c-4.4-9-2-33.89 2-39.59-1.7-2.7-4-5.3-5.9-7.1-3.19 7.19-9.39 29.59 2.1 47.59zm3.4 1.29c-1.1.5-2.2 1.1-3.3 1.6 4.3 4.5 9.6 8 15.5 10.1-.3-2.1.3-4.3 1.6-6.6-6.3-1.1-11.4-2.9-13.8-5.1z" fill="#008348"/><g><path d="M45.75 494.6c6.1-.2 12-.3 18.1-.3s12.1.1 18.2.3v-2.4c-5.2-.2-8.8-1.5-10.3-3.1-2.9-3.2-2.9-10.9-2.9-23.8v-12.6c0-6.2.1-11.9.6-17-5.7.2-11 .3-16 .3-2.7 0-5.3 0-7.8-.1v2.4c6.5.3 10.3 2 11.4 5 1.3 3.5 1.4 10.9 1.4 21.9v8.2c0 8.2-.3 13.3-2.4 15.8-1.6 1.9-5.2 3.1-10.4 3.1v2.3h.1z" fill="#008348"/><path d="M69.54 435.71c-.5 5.1-.6 10.8-.6 17v12.6c0 12.9 0 20.6 2.9 23.8 1.4 1.6 5.1 2.9 10.3 3.1v2.4c-6.1-.2-12.1-.3-18.2-.3s-12 .1-18.1.3v-2.4c5.2 0 8.8-1.3 10.4-3.1 2.1-2.5 2.4-7.7 2.4-15.8v-8.2c0-11-.1-18.4-1.4-21.9-1.1-2.9-4.9-4.6-11.4-5v-2.4c2.4.1 5.1.1 7.8.1 4.91 0 10.2-.1 15.9-.2m3.2-3l-3.3.1c-5.8.2-11 .3-15.9.3-2.7 0-5.3 0-7.7-.1l-3-.1v8.1l2.7.1c5 .3 8.2 1.4 8.8 3.1 1.2 3.1 1.3 10.3 1.3 20.9v8.2c0 6.3-.1 12.1-1.7 14-.8.9-3.5 2.1-8.2 2.1h-2.9v8.3l3-.1c6.1-.2 12-.3 18-.3s12.1.1 18.1.3l3 .1v-8.2l-2.8-.1c-4.8-.2-7.5-1.4-8.2-2.2-2.1-2.4-2.1-10.5-2.1-21.8v-12.6c0-6.5.1-11.9.6-16.7l.3-3.4z" fill="#fff"/></g><g><path d="M111.64 461.81c8.2-3.4 12.2-8.2 12.2-14 0-7.8-6.8-13.5-18.5-13.5-11.5 0-19 6.1-19 15 0 6.2 3.9 11 12 15.9-9.1 4.1-13.5 8.9-13.5 15.8 0 8.8 7.3 14.7 20 14.7 13.1 0 20.8-6.7 20.8-16.2.09-6.2-4.6-11.7-14-17.7zm-10.8 5l5.3 3.5c5.1 3.3 8.1 8.1 8.1 12.9 0 5.9-3.4 9.8-7.7 9.8-5.7 0-10.5-5.4-10.5-13.1 0-5.1 1.7-9.6 4.8-13.1zm8.9-6.3l-5.3-3.7c-4.8-3.4-7.2-7.2-7.2-11 0-4.7 3.5-8.5 7.7-8.5 4.6 0 8.2 4.6 8.2 11.5-.1 3.9-1.2 7.8-3.4 11.7z" fill="#008348"/><path d="M105.44 434.31c11.6 0 18.5 5.6 18.5 13.5 0 5.8-4 10.6-12.2 14 9.4 6 14.1 11.5 14.1 17.8 0 9.5-7.8 16.2-20.8 16.2-12.6 0-20-5.8-20-14.7 0-6.9 4.4-11.7 13.5-15.8-8.1-5-12-9.8-12-15.9-.1-9 7.3-15.1 18.9-15.1m4.3 26.2c2.2-4 3.3-7.8 3.3-11.6 0-6.9-3.5-11.5-8.2-11.5-4.2 0-7.7 3.8-7.7 8.5 0 3.8 2.4 7.6 7.2 11l5.4 3.6m-3.1 32.39c4.3 0 7.7-3.9 7.7-9.8 0-4.8-3-9.6-8.1-12.9l-5.3-3.5c-3.1 3.5-4.8 8-4.8 13.1-.1 7.71 4.7 13.1 10.5 13.1m-1.2-61.49c-13.1 0-21.8 7.2-21.8 17.9 0 5.9 2.9 10.8 9.2 15.6-5.5 3.2-10.8 8.1-10.8 16.2 0 10.7 9 17.5 22.9 17.5 14.2 0 23.7-7.7 23.7-19.1 0-6.2-3.5-11.6-11.3-17.4 7.7-4.5 9.4-10.2 9.4-14.4-.01-9.7-8.6-16.3-21.3-16.3zm3.1 24.8l-2.5-1.8c-2.7-1.9-6-5-6-8.6 0-3.1 2.1-5.6 4.8-5.6 3.1 0 5.3 3.6 5.3 8.7 0 2.4-.5 4.8-1.6 7.3zm-1.9 33.79c-4.4 0-7.7-4.4-7.7-10.2 0-3.4.9-6.5 2.6-9.2l3.1 2c4.3 2.7 6.8 6.6 6.8 10.5-.1 4.11-2 6.9-4.8 6.9z" fill="#fff"/></g><g><path d="M575.36 495.7c6.2-11.5 10.4-19.4 12.6-23.4l19.6-35.09-1-1.3c-6.8.2-13.5.3-20 .3s-12.7-.1-18.9-.3c-1.1 5-2.7 11.1-4.6 18.6l2 .8c1.6-3.4 3-5.9 4.9-7.5 2.1-1.9 5.7-2 11-2h18.2l-30.3 50.09h6.5v-.2z" fill="#008348"/><path d="M606.56 435.81l1 1.3-19.6 35.19c-2.3 4-6.5 11.9-12.6 23.4h-6.5l30.3-50.09h-18.2c-5.3 0-8.9.2-11 2-1.8 1.6-3.3 4.1-4.9 7.5l-2-.8c1.9-7.5 3.5-13.7 4.6-18.6 6.1.2 12.4.3 18.9.3 6.5.1 13.2 0 20-.2m-41.09-2.9l-.5 2.3c-1 4.7-2.5 10.4-4.4 17.6l-.2.9-.6 2.5 2.4.9 2 .8 2.5.9 1.1-2.4c1.2-2.6 2.6-5.2 4.2-6.6 1.4-1.2 4.8-1.3 9.1-1.3h13.1l-27.7 45.69-2.7 4.4h13.3l.8-1.5c6.7-12.7 10.5-19.6 12.6-23.4l19.6-35.09.9-1.6-1.1-1.5-1-1.3-.9-1.2h-1.5c-6.7.2-13.4.3-19.9.3s-12.7-.1-18.8-.3l-2.3-.1z" fill="#fff"/></g><g><path d="M609.26 469.61c3.5-1.9 7.2-2.9 11.3-2.9 9.3 0 14.4 5.1 14.4 13.5 0 7.4-3.9 12.5-9.2 12.5-4.7 0-8-3.5-8-8.5 0-1.1.2-2.3.5-3.5-1.7-1.4-3.5-2-5.5-2-4 0-6.4 2.4-6.4 6.2 0 6.4 6.2 11 16.8 11 13.6 0 22.7-8.3 22.7-19.8 0-10.4-8.3-18.1-22.7-18.1-3.2 0-6.6.5-9.9 1.4l1.9-13.7c2.1-.1 4.2-.1 6.4-.1 6.1 0 12.3.2 18.6.5l3.8-14.3-1.9-.6c-2.4 4.5-4.6 4.8-9.1 4.8h-20.4l-4.1 33.49.8.11z" fill="#008348"/><path d="M642.15 431.01l1.9.6-3.8 14.3c-6.3-.3-12.6-.5-18.6-.5-2.2 0-4.3 0-6.4.1l-1.9 13.7c3.4-.9 6.7-1.4 9.9-1.4 14.3 0 22.7 7.7 22.7 18.1 0 11.5-9.1 19.8-22.7 19.8-10.6 0-16.8-4.6-16.8-11 0-3.8 2.4-6.2 6.4-6.2 2 0 3.8.6 5.5 2-.3 1.3-.5 2.4-.5 3.5 0 5.1 3.3 8.5 8 8.5 5.3 0 9.2-5.1 9.2-12.5 0-8.4-5.1-13.5-14.4-13.5-4.1 0-7.8.9-11.3 2.9l-.8-.3 4.1-33.49h20.4c4.4.19 6.7-.11 9.1-4.61m-1.5-3.4l-1.1 2.1c-1.7 3.1-2.6 3.3-6.5 3.3h-22.9l-.3 2.5-4.1 33.49-.3 2.1 2 .9.8.3 1.3.6 1.3-.7c3-1.7 6.2-2.5 9.9-2.5 5.3 0 11.5 1.8 11.5 10.6 0 5.6-2.6 9.6-6.3 9.6-3.2 0-5.1-2.2-5.1-5.6 0-.8.1-1.8.4-2.8l.5-1.8-1.4-1.2c-2.1-1.8-4.5-2.7-7.3-2.7-5.6 0-9.3 3.6-9.3 9 0 8.4 7.7 13.8 19.7 13.8 15 0 25.5-9.3 25.5-22.7 0-12.6-10.3-21-25.5-21-2.1 0-4.3.2-6.5.6l1-7.2h3.9c6 0 12.2.2 18.5.5l2.3.1.6-2.3 3.8-14.3.7-2.7-2.6-.8-1.9-.6-2.6-.59z" fill="#fff"/></g></g><g fill="#fff"><path d="M127.73 290.44c-1.2 1.7-2.5 3.4-3.6 5.1-1.2 1.7-2.3 3.4-3.5 5.2-1.1 1.7-2.2 3.5-3.3 5.3l3.9 2.6c3.7 2.6 7.1 4.8 10.1 6.7s5.9 3.7 8.8 5.5c-.6.7-1.2 1.5-1.9 2.4-.6.9-1.3 1.9-2.1 3s-1.5 2.1-2.1 3c-.6.9-1.1 1.8-1.6 2.6-2.7-2.1-5.4-4.2-8.3-6.3-2.9-2.1-6.1-4.4-9.9-7l-9.2-6.3c-3.7-2.6-7.1-4.8-10.1-6.7s-6-3.8-9-5.6c.6-.7 1.3-1.5 2-2.3.7-.9 1.4-1.8 2.2-3 .8-1.1 1.4-2.2 2-3.1.6-.9 1-1.8 1.5-2.7 2.8 2.2 5.6 4.4 8.4 6.4s6.1 4.3 9.9 6.9c.8-1.1 1.8-2.5 3-4.2 1.2-1.6 2.6-3.7 4.2-6.1 1.7-2.4 3-4.4 4.1-6 1-1.5 2-3 2.8-4.3-3.7-2.6-7.1-4.8-10-6.7s-5.9-3.7-9-5.6c.6-.7 1.3-1.5 2-2.3.7-.9 1.4-1.8 2.2-3 .8-1.1 1.4-2.2 2-3.1s1-1.8 1.5-2.7c2.8 2.2 5.6 4.3 8.5 6.4 2.8 2.1 6.2 4.4 9.9 7l9.2 6.3c3.7 2.6 7.1 4.8 10.1 6.7s5.9 3.7 8.8 5.5c-.6.7-1.2 1.5-1.9 2.4-.6.9-1.3 1.9-2.1 3s-1.5 2.1-2.1 3-1.1 1.8-1.6 2.6c-2.7-2.1-5.4-4.2-8.3-6.3-2.8-2.1-6.1-4.4-9.9-7l-3.9-2.6c-1.2 1.9-2.5 3.6-3.7 5.3zm21.7-52.5c-2.4-2.6-4.9-5.1-7.5-7.6.8-.5 1.6-1.1 2.5-1.8s1.8-1.5 2.8-2.4 1.9-1.8 2.7-2.6 1.4-1.5 2.1-2.2c2.2 2.8 4.5 5.5 6.7 8.2 2.3 2.7 4.9 5.7 8 9.1l7.5 8.3c3 3.4 5.8 6.3 8.2 8.9 2.4 2.6 4.9 5 7.3 7.4-.8.5-1.6 1.2-2.4 1.9-.8.7-1.7 1.6-2.8 2.5-1 .9-1.9 1.7-2.7 2.5-.8.7-1.5 1.4-2.2 2.2-2.1-2.7-4.3-5.4-6.6-8.1s-4.9-5.7-8-9.1l-7.5-8.3c-2.9-3.4-5.6-6.4-8.1-8.9zm38.7-31.09c-1.9-3-3.8-6-5.8-9 .9-.4 1.8-.8 2.8-1.3s2.1-1 3.3-1.7c2-1.2 4.1-2.4 6.3-3.8s4.3-2.7 6.3-3.8c2.1-1.2 4.2-2.1 6.2-2.7 2-.6 3.9-.8 5.7-.6 1.8.1 3.4.7 4.9 1.7s2.8 2.5 3.9 4.4c1.1 1.9 1.7 3.9 1.7 5.7 0 1.9-.3 3.6-1 5.2-.6 1.6-1.5 3-2.6 4.3s-2.1 2.4-3.1 3.2l.1.1c1.1-.6 2.5-1.1 4.3-1.4 1.7-.4 3.5-.5 5.4-.3s3.7.8 5.5 1.7c1.8 1 3.3 2.5 4.5 4.7 1.5 2.6 2.3 5 2.4 7.4.1 2.3-.3 4.5-1.2 6.5s-2.2 3.8-3.9 5.4c-1.7 1.6-3.7 3-5.8 4.2-1.9 1.1-3.7 2.1-5.3 3-1.7.9-3.4 1.8-5.2 2.9-1.3.7-2.6 1.5-3.9 2.3-1.4.8-2.4 1.4-3.2 2-1.5-3.1-3-6.2-4.7-9.3-1.6-3.1-3.6-6.7-5.8-10.6l-5.5-9.7c-2.41-4-4.51-7.5-6.3-10.5zm21.59-12.4c-.8-.9-1.8-1.5-2.8-1.9s-2.2-.5-3.4-.4-2.5.5-4 1.4c-1 .6-1.8 1-2.2 1.3l-1.2.9c.9 1.8 1.9 3.6 2.8 5.5 1 1.8 1.8 3.4 2.5 4.6.7 1.3 1.4 2.5 2.1 3.7.7 1.2 1.4 2.3 2.1 3.6l3.4-2c1-.6 1.9-1.3 2.6-2.3.8-.9 1.3-2 1.6-3.2s.4-2.5.2-3.9-.7-2.9-1.6-4.4c-.5-1-1.3-2-2.1-2.9zm9.4 19.6c-2.4-.8-5.1-.4-7.9 1.3-.7.4-1.2.7-1.7 1s-.9.6-1.3.8c.6 1 1.1 2 1.7 3.1.6 1.1 1.3 2.4 2.1 3.8.7 1.1 1.3 2.3 2 3.5s1.4 2.3 2 3.5c.7 1.1 1.3 2.2 1.8 3.1.6.9 1 1.7 1.4 2.3.7-.3 1.3-.6 1.9-1 .6-.3 1.3-.7 2.1-1.1 1-.6 1.9-1.4 2.6-2.4.7-1 1.2-2.1 1.4-3.3s.2-2.6 0-4c-.3-1.4-.8-2.9-1.7-4.5-1.8-3.2-4-5.3-6.4-6.1zm33.69-38.7c-1.1-3.4-2.2-6.7-3.4-10.1 2.4-.6 4.7-1.2 7.1-1.8 2.3-.6 4.7-1.2 7.1-1.9 3.9-1.1 7.3-2.2 10.3-3.1 3-1 5-1.6 6-2 0 .9.2 2 .6 3.4.2.8.5 1.5.7 1.9.2.5.4 1 .7 1.5-1.6.3-3.3.7-5.1 1.1l-5.4 1.2c-1.7.4-3.3.8-4.7 1.1-1.4.3-2.4.6-2.9.8.6 3 1.3 5.9 2.1 8.7.8 2.8 1.6 5.7 2.5 8.6 3.4-1 6.5-2 9.2-2.9 2.7-.9 5.6-1.9 8.5-2.9.1.9.2 1.7.3 2.1.1.5.2 1 .4 1.5.1.4.3.8.5 1.3.2.4.5 1 .8 1.9-6.1 1.3-12.2 2.8-18.1 4.5.5 1.7 1 3.4 1.4 5.1.5 1.7.9 3.4 1.4 5.1 1 3.4 2 6.7 3.1 9.8 3-.9 6-1.8 8.9-2.8 3-1 5.9-2.2 8.8-3.4.1.6.1 1.2.2 1.6.1.5.3 1.2.5 2s.5 1.5.7 1.9c.2.5.4.8.6 1.1-1.4.4-3.2.8-5.3 1.4-2.1.6-4.9 1.4-8.6 2.4-3.2.9-5.8 1.7-7.8 2.3-1.9.6-3.5 1-4.7 1.4-1.2.3-2.1.6-2.7.8s-1.1.4-1.5.6c-.8-3.3-1.6-6.7-2.5-10.1-.9-3.4-2-7.3-3.2-11.7l-3.1-10.7c-1.1-4.4-2.3-8.3-3.4-11.7zm76.29 5l.2 3.4c.2 4.5.5 8.6.7 12.1.3 3.5.6 7 1 10.4-.9-.1-1.9-.1-3 0s-2.3.1-3.7.2c-1.4.1-2.6.1-3.7.2s-2.1.2-3 .3c.1-3.4.1-6.9 0-10.4s-.2-7.6-.4-12.1l-.6-11.3c-.2-4.5-.5-8.6-.7-12.1-.3-3.5-.6-7.1-1-10.6.9.1 1.9.1 3 .1h3.7c1.5-.1 3.2-.2 5-.4 1.9-.2 4.2-.4 7-.5 2.1-.1 3.9-.1 5.3-.1 1.5 0 2.8.1 3.8.3 1.1.2 2 .4 2.8.7.8.3 1.6.7 2.3 1.2 1.7 1.1 3.1 2.6 4.1 4.3s1.6 3.8 1.7 6.3c.2 4-.8 7.3-2.8 9.9-2.1 2.6-5.1 4.5-9.2 5.8 2.8 4.5 5.9 9 9.1 13.5 3.2 4.5 6.4 8.9 9.7 13.3-1.3-.1-2.5 0-3.7 0-1.2.1-2.4.1-3.7.2-1.3.1-2.5.1-3.7.2-1.2.1-2.5.2-3.7.3l-15.9-25.2h-.6zm11.3-21.39c-.6-1.4-1.4-2.4-2.4-3.1s-2.4-1.1-4-1.3c-1.6-.1-3.6-.2-5.8-.1.2 7.4.4 14.9.8 22.3.3 0 .6.1.9.1h.9c3.6-.2 6.3-1.3 8.2-3.3 1.8-2 2.6-5 2.5-8.9-.2-2.4-.5-4.3-1.1-5.7zm50.99-.5c.5-2.5.9-4.8 1.3-6.7 1.4.6 2.6 1 3.5 1.3.9.2 2.1.4 3.7.5 4.3 7.8 8.5 15.5 12.7 23.1 4.2 7.6 8.5 15.3 12.9 23.2l1.7-6.9 1.8-7.8c.6-2.6 1.2-5.2 1.8-7.7.6-2.5 1.1-4.9 1.6-7 .5-2.1.9-4 1.2-5.5.3-1.6.4-2.6.5-3.2 1.4.6 2.6 1 3.5 1.3.9.2 2.1.4 3.7.5-1.4 4.8-2.7 9.1-3.8 13-1.1 3.9-2.1 7.5-3 11l-2.7 10.2c-.8 3.4-1.7 7-2.6 10.8l-2.3 9.6c-1-.4-2.1-.7-3.2-.9-1.2-.3-2.2-.5-3.2-.6-7.9-15.4-16.5-31-25.7-46.89-.4 1.5-.8 3.1-1.2 4.6-.4 1.5-.8 3.1-1.2 4.7l-2.2 9.3c-.8 3.2-1.4 5.9-1.9 8.2-.5 2.2-.9 4.1-1.2 5.7-.3 1.6-.6 2.8-.7 3.8-.2 1-.3 1.8-.4 2.4-.6-.3-1.2-.5-1.9-.6-.6-.2-1.3-.3-1.8-.4-1.2-.3-2.5-.5-3.7-.7.2-.4.7-1.9 1.5-4.5s1.7-5.7 2.8-9.4c1.1-3.7 2.2-7.7 3.4-12.1 1.2-4.4 2.3-8.6 3.2-12.6.7-4.01 1.4-7.11 1.9-9.71zm80.99 30.19c1.5-3.2 3-6.4 4.4-9.7.8.5 1.6 1.1 2.6 1.6.9.6 2 1.2 3.2 1.8 1.2.6 2.3 1.1 3.3 1.6 1 .4 2 .8 2.8 1.1-1.8 3.1-3.6 6.2-5.3 9.3-1.7 3.1-3.6 6.7-5.6 10.7l-5.1 10c-2.1 4.1-3.8 7.7-5.3 10.9s-2.9 6.4-4.3 9.5c-.8-.5-1.7-1-2.6-1.5-1-.5-2.1-1.1-3.3-1.7-1.2-.6-2.3-1.2-3.3-1.7s-1.9-.9-2.8-1.2c1.7-2.9 3.4-5.9 5.1-9s3.6-6.7 5.6-10.7l5.1-10c2.3-4.2 4-7.8 5.5-11zm49.69 89.59c-.9-.9-1.9-1.8-2.8-2.5-.9-.8-1.8-1.5-2.7-2.2-.9-.7-1.8-1.5-2.7-2.2-.9-.8-1.8-1.5-2.8-2.1 1-2.6 2.1-5.3 3.1-8.1 1.1-2.7 2.1-5.5 3.1-8.3-1.3-1.2-2.6-2.3-4-3.4-1.3-1.1-2.7-2.3-4-3.4l-3.3-2.7c-1.1-.9-2.2-1.8-3.4-2.6-2.6 1.5-5.2 3-7.7 4.5-2.5 1.6-4.9 3.1-7.2 4.7-.4-.5-.9-1-1.4-1.4l-1.5-1.2c-.5-.4-1-.8-1.5-1.3-.5-.4-1.1-.8-1.7-1.2 1.4-.7 3.3-1.6 5.8-2.9 2.4-1.2 5.2-2.7 8.2-4.3s6.3-3.3 9.8-5.2c3.5-1.8 7-3.7 10.5-5.6 3.5-1.9 7-3.8 10.4-5.7s6.6-3.6 9.5-5.2c.4.4.7.8 1 1.2s.7.7 1.1 1.1c.4.3.8.6 1.3.9.4.3.9.5 1.4.8-1.6 4.7-3.3 9.7-5.2 15.1-1.8 5.4-3.6 10.7-5.3 15.9s-3.3 10.2-4.7 15c-1.3 4.8-2.5 8.9-3.3 12.3zm3.7-50.09c-3.2 1.6-6.3 3.3-9.3 4.9-3 1.7-6 3.4-9.1 5.2l11.6 9.6c1.2-3.3 2.4-6.6 3.5-9.8 1.2-3.21 2.3-6.5 3.3-9.9zm50.59 37.39c2.1-1.5 3.9-2.9 5.5-4 .6 1.4 1.2 2.5 1.7 3.3.5.8 1.3 1.7 2.4 2.8-2.2 8.6-4.3 17.2-6.4 25.6-2.1 8.4-4.2 17-6.2 25.8l5.9-4 6.6-4.4c2.2-1.5 4.4-3 6.6-4.4 2.1-1.5 4.1-2.8 5.9-4.1 1.8-1.2 3.3-2.3 4.6-3.3s2.1-1.6 2.5-2c.6 1.4 1.2 2.5 1.7 3.3.5.8 1.3 1.7 2.4 2.8-4.3 2.5-8.2 4.9-11.6 7-3.4 2.1-6.7 4.1-9.7 6-3 1.9-6 3.8-8.9 5.7-2.9 1.9-6 4-9.3 6.2l-8.2 5.5c-.5-1-1.1-1.9-1.7-2.9-.7-1-1.3-1.9-1.9-2.6 4.6-16.7 9-33.99 13-51.89-1.4.8-2.7 1.7-4 2.5-1.3.9-2.7 1.7-4 2.7l-7.9 5.3c-2.7 1.8-5 3.4-6.9 4.7-1.9 1.3-3.5 2.4-4.8 3.3s-2.3 1.7-3.1 2.3-1.5 1.1-1.9 1.5c-.3-.6-.6-1.2-1-1.7s-.7-1.1-1.1-1.6c-.7-1-1.4-2.1-2.2-3 .4-.2 1.8-.9 4.1-2.3s5.1-3 8.4-5c3.3-2 6.9-4.2 10.7-6.6s7.5-4.8 10.9-7.1c3.21-2.01 5.8-3.81 7.9-5.41z"/></g><g><g fill="#fff"><path d="M138.23 608.09l7.8-6.9c1.5 1.9 2.9 3.8 4.4 5.7 1.4 1.9 2.9 3.8 4.4 5.7 2.5 3.1 4.8 5.8 6.8 8.1s3.4 3.9 4.2 4.7c-.8.4-1.7 1-2.8 1.9-.7.5-1.2 1-1.5 1.3s-.7.7-1.1 1.2c-.9-1.3-1.9-2.7-3-4.2s-2.2-3-3.2-4.4-2-2.7-2.8-3.8-1.5-1.9-1.8-2.4c-2.4 1.7-4.8 3.5-7 5.3-2.3 1.8-4.5 3.7-6.8 5.5 2.3 2.7 4.3 5.1 6.2 7.2 1.9 2.1 3.8 4.3 5.9 6.6-.8.5-1.4.8-1.8 1.1l-1.2.9c-.3.3-.7.6-1 .9-.3.4-.8.8-1.4 1.5-3.5-5.1-7.2-9.9-11-14.6-1.3 1.1-2.7 2.2-4 3.2-1.3 1.1-2.7 2.1-4 3.2-2.7 2.2-5.3 4.4-7.6 6.6 1.9 2.4 3.9 4.7 6 7s4.2 4.5 6.5 6.7c-.5.3-1 .6-1.4.8-.4.3-.9.7-1.6 1.2s-1.2 1-1.5 1.3-.6.7-.8 1c-.9-1.2-2-2.6-3.3-4.2-1.3-1.7-3.2-3.9-5.5-6.8-2.1-2.5-3.8-4.6-5.1-6.2-1.3-1.5-2.3-2.8-3-3.7-.8-.9-1.4-1.6-1.8-2.1s-.8-.8-1.1-1.1c2.7-2 5.4-4 8.2-6.1 2.7-2.1 5.8-4.6 9.3-7.4l8.5-6.9c3.2-3 6.3-5.5 8.9-7.8zm28.3 33.59c2.1-2.8 4.1-5.6 6.2-8.5.6.7 1.4 1.4 2.2 2.1.8.7 1.7 1.5 2.8 2.4 1.4 1.1 3 2.3 4.8 3.6s4.1 3 6.9 5.2c3.6 2.9 6.6 5.8 9.1 8.9 2.4 3 4.1 6.2 5 9.4.9 3.3.9 6.7 0 10.2-.9 3.6-3 7.3-6.2 11.3-2.8 3.5-5.9 6.2-9.3 8.1-3.4 1.9-6.9 3-10.5 3.4s-7.1.1-10.6-1-6.7-2.8-9.7-5.2c-3.1-2.5-5.8-4.7-8-6.5s-4.1-3.4-5.7-4.7c-1-.8-2-1.6-2.8-2.3s-1.7-1.3-2.4-1.7c2.3-2.5 4.5-5 6.8-7.7 2.3-2.6 4.8-5.7 7.6-9.2l6.9-8.6 6.9-9.2zm-8.5 30.1l-3 3.8c-1 1.2-1.9 2.3-2.6 3.4-.8 1-1.3 1.7-1.5 2 .6.5 1.3 1.2 2.2 1.9.8.7 1.9 1.6 3.2 2.7 4.7 3.8 9.8 5.2 15.2 4.2s10.7-4.8 15.9-11.3c2.1-2.6 3.6-5.2 4.6-7.8s1.4-5.1 1.3-7.6c-.1-2.5-.7-4.8-1.9-7-1.1-2.2-2.8-4.2-5-5.9-1.5-1.2-2.8-2.2-3.8-2.9l-3-2.1c-.2.3-.8.9-1.6 1.9s-1.7 2.1-2.8 3.4l-3 3.8-2.5 3.1-9 11.2-2.7 3.2zm62.19 8.69c1.5-3.1 3-6.3 4.5-9.4.8.5 1.6 1.1 2.5 1.7s2 1.2 3.1 1.8c1.2.6 2.3 1.2 3.3 1.6 1 .4 1.9.8 2.8 1.2l-5.4 9c-1.7 3-3.6 6.5-5.8 10.4l-5.2 9.7c-2.1 3.9-3.9 7.5-5.5 10.6-1.5 3.1-3 6.2-4.4 9.2-.8-.5-1.6-1-2.6-1.6-.9-.5-2-1.1-3.2-1.7-1.2-.6-2.3-1.2-3.2-1.7s-1.9-.9-2.7-1.3c1.8-2.8 3.5-5.8 5.2-8.8s3.6-6.5 5.8-10.4l5.2-9.7c2.3-3.9 4.1-7.5 5.6-10.6zm28.2 10.8c.7-2.4 1.3-4.6 1.8-6.5 1.4.7 2.5 1.2 3.3 1.5.9.3 2.1.5 3.6.7 3.6 8 7.2 15.8 10.8 23.6 3.6 7.7 7.2 15.6 11 23.6l2.1-6.7 2.4-7.5c.8-2.5 1.6-5 2.3-7.4.7-2.4 1.4-4.7 2.1-6.8.6-2.1 1.1-3.8 1.5-5.4.4-1.5.6-2.5.7-3.1 1.4.7 2.5 1.2 3.3 1.5.9.3 2.1.5 3.6.7-1.7 4.6-3.3 8.7-4.6 12.5-1.3 3.7-2.6 7.2-3.8 10.5-1.2 3.3-2.3 6.6-3.3 9.8-1.1 3.2-2.2 6.7-3.3 10.4l-2.9 9.2c-1-.4-2-.8-3.1-1.2s-2.1-.6-3-.8c-6.7-15.6-13.9-31.6-21.8-47.79-.5 1.5-1 2.9-1.5 4.4l-1.5 4.5-2.8 8.9c-1 3.1-1.8 5.7-2.4 7.9-.7 2.2-1.2 4-1.6 5.5-.4 1.5-.8 2.7-1 3.7-.3 1-.4 1.7-.6 2.3-.6-.3-1.2-.5-1.8-.7l-1.8-.6c-1.2-.4-2.4-.7-3.6-1 .2-.4.8-1.8 1.8-4.3.9-2.5 2.1-5.5 3.4-9 1.3-3.6 2.7-7.4 4.2-11.6 1.5-4.2 2.8-8.2 4.1-12.1.8-3.31 1.7-6.31 2.4-8.71zm61.19 20.6c.2-3.5.3-7 .3-10.5.9.2 1.9.4 3 .5 1.1.2 2.3.3 3.6.4 2.3.2 4.7.3 7.3.4 2.5.1 4.9.2 7.3.4s4.6.6 6.5 1.3c1.9.6 3.6 1.5 5 2.6s2.4 2.5 3 4.1.9 3.6.7 5.8c-.2 2.2-.8 4-1.8 5.6-1 1.5-2.3 2.7-3.7 3.7-1.4.9-2.9 1.6-4.5 2.1s-3 .8-4.3.9v.2c1.2.2 2.6.6 4.3 1.2 1.6.6 3.1 1.6 4.5 2.8s2.6 2.7 3.5 4.4c.9 1.8 1.3 3.9 1.1 6.3-.2 2.9-1 5.3-2.2 7.3s-2.7 3.5-4.6 4.6c-1.8 1.1-3.9 1.9-6.2 2.2-2.3.3-4.6.4-7 .2-2.1-.2-4.1-.4-6-.6-1.8-.2-3.8-.4-5.8-.5-1.4-.1-2.9-.2-4.5-.4-1.5-.1-2.7-.2-3.7-.1.5-3.3 1-6.7 1.4-10.1.4-3.4.8-7.4 1.1-11.8l.9-10.9c.4-4.7.6-8.7.8-12.1zm21.19 22.9c-1.5-2-3.9-3.1-7.1-3.4-.8-.1-1.4-.1-1.9-.1s-1 0-1.5-.1c-.1 1.1-.2 2.3-.3 3.5-.1 1.2-.3 2.6-.4 4.3l-.3 3.9c-.1 1.3-.2 2.7-.3 3.9-.1 1.3-.2 2.5-.2 3.5-.1 1.1-.1 2-.2 2.7l2.1.3c.6.1 1.4.2 2.3.2 1.2.1 2.3-.1 3.4-.5s2.1-1 3-1.9 1.6-2 2.2-3.3 1-2.8 1.1-4.6c.2-3.5-.4-6.4-1.9-8.4zm3.2-21.1c-.2-1.2-.6-2.2-1.2-3.1s-1.5-1.6-2.5-2.2-2.4-1-4-1.1c-1.2-.1-2-.1-2.5-.2-.5 0-1 0-1.5.1-.3 2-.5 4-.7 6s-.4 3.7-.5 5.1c-.1 1.4-.2 2.8-.3 4.1-.1 1.3-.2 2.7-.3 4.1l3.6.3c1.1.1 2.3 0 3.4-.4 1.1-.3 2.2-.9 3.1-1.7s1.7-1.8 2.3-3c.6-1.2 1-2.7 1.2-4.4.1-1.2.1-2.4-.1-3.6zm48.79 43.39c-3.1-.3-5.8-1.1-8.2-2.5-2.4-1.4-4.5-3.3-6.1-5.7s-2.7-5.6-3.3-9.3c-.3-2.1-.6-4-.8-5.7-.2-1.7-.4-3.2-.6-4.7l-.6-4.2c-.2-1.3-.4-2.7-.6-4.2-.6-4.3-1.2-7.8-1.6-10.4-.4-2.7-.8-4.6-1.1-5.9 1.1-.1 2.2-.1 3.3-.2 1.1-.1 2.2-.2 3.3-.4 1.1-.2 2.1-.4 3.3-.6 1.1-.2 2.2-.5 3.2-.8.2 5.2.6 10.1 1.2 14.5.5 4.5 1.2 9 1.8 13.6.7 4.8 1.6 8.7 2.8 11.6 1.1 2.9 2.5 5 4.1 6.4s3.4 2.3 5.5 2.5c2 .2 4.4.2 7-.2 3.2-.5 5.6-1.6 7.1-3.5 1.6-1.9 2.6-4.2 3.2-7 .5-2.8.7-5.9.4-9.4s-.7-7.1-1.3-10.8c-.5-3.7-1.1-7.3-1.8-10.9-.6-3.6-1.3-7.3-2.1-10.9h2.2c.7 0 1.3-.1 1.9-.2.7-.1 1.4-.2 2-.4s1.3-.4 2-.6c.1 1.2.2 2.8.4 4.8s.4 4.3.7 6.9c.3 2.6.6 5.5 1 8.6s.8 6.4 1.3 9.9c1.4 9.3.4 16.2-3 20.8s-9 7.5-16.7 8.6c-3.6.5-6.8.6-9.9.3zm61-40.49l1.2 3.1c1.6 4.2 3.1 7.8 4.4 11 1.4 3.2 2.7 6.3 4.1 9.3-.9.2-1.8.5-2.8.9s-2.1.8-3.4 1.3-2.4.9-3.4 1.3-1.9.8-2.7 1.2c-1-3.2-2.1-6.4-3.2-9.7-1.2-3.3-2.5-7-4.1-11.2l-4-10.2c-1.6-4.2-3.1-7.8-4.4-11l-4.2-9.6c.9-.2 1.9-.5 2.9-.8s2.2-.7 3.4-1.2c1.4-.5 2.9-1.2 4.6-2s3.8-1.7 6.4-2.7c1.9-.7 3.6-1.3 4.9-1.7 1.4-.4 2.6-.7 3.7-.9s2-.2 2.9-.2 1.7.2 2.5.4c1.9.5 3.7 1.4 5.2 2.7s2.7 3.1 3.6 5.3c1.4 3.7 1.6 7 .5 10.1s-3.4 5.8-6.8 8.2c4.1 3.3 8.3 6.6 12.7 9.7 4.4 3.2 8.8 6.3 13.2 9.4-1.2.3-2.3.7-3.4 1.2-1.1.4-2.2.9-3.4 1.3-1.2.4-2.3.9-3.4 1.3s-2.3.9-3.4 1.5l-22.6-18.5-1 .5zm3.79-23.4c-1-1.1-2-1.9-3.2-2.2s-2.6-.3-4.1.1c-1.6.4-3.4 1-5.4 1.8 2.5 6.9 5.1 13.7 7.7 20.5.3-.1.6-.1.9-.2.3-.1.6-.2.8-.3 3.3-1.3 5.5-3.2 6.6-5.6 1.1-2.5.9-5.5-.5-9.1-.9-2.2-1.8-3.9-2.8-5zm56.4-36.09c-3 .2-6 1.4-9.1 3.5-2 1.4-3.8 3.2-5.2 5.4-1.4 2.2-2.4 4.8-2.8 7.6s-.2 5.8.6 9.1 2.4 6.7 4.8 10.2c1.8 2.7 3.9 4.9 6.1 6.7 2.3 1.8 4.7 3 7.2 3.8 2.5.7 5.1.9 7.7.5 2.6-.4 5.2-1.5 7.8-3.3.6-.4 1.2-.9 1.9-1.4.7-.6 1.3-1.1 2-1.7.6-.6 1.2-1.1 1.7-1.7.5-.5.8-1 .9-1.4-.3-.6-.7-1.3-1.2-2.1s-1.1-1.7-1.8-2.7c-2.4-3.6-4.3-6.2-5.6-7.8-1.3-1.6-2.2-2.7-2.6-3.3.5-.2 1.1-.5 1.9-1 .8-.4 1.9-1.1 3.2-2.1 1.6-1.1 2.8-1.9 3.5-2.5.7-.6 1.3-1.1 1.7-1.5.2.4.5 1 .9 1.9.5.8 1 1.8 1.7 2.9.7 1.1 1.4 2.2 2.2 3.4s1.5 2.3 2.3 3.4l1.5 2.2c.8 1.1 1.5 2.1 2.1 3.1.7.9 1.2 1.6 1.5 1.9-2.4 2.8-4.9 5.5-7.6 8.1-2.7 2.5-5.5 4.8-8.4 6.8-3.8 2.6-7.7 4.5-11.6 5.7-3.9 1.2-7.7 1.6-11.3 1.3-3.6-.4-7.1-1.4-10.2-3.3-3.2-1.8-5.9-4.5-8.2-7.9-2.9-4.2-4.7-8.4-5.4-12.5-.8-4.1-.6-8.1.4-11.9s2.9-7.4 5.5-10.7c2.7-3.4 5.9-6.4 9.9-9 3.4-2.3 6.5-3.9 9.5-4.9 2.9-1 6-1.7 9.3-2 .4 1.4.9 2.8 1.3 4.1.4 1.3.9 2.7 1.5 4l-.9.6c-2.91-1.3-5.8-1.7-8.7-1.5zm55.69-23.1c-1.4 1.5-2.8 3-4.1 4.5-1.4 1.5-2.7 3.1-4 4.6l-3.9 4.8 3.4 3c3.3 3 6.4 5.5 9 7.8 2.7 2.2 5.3 4.3 8 6.4-.7.6-1.4 1.3-2.1 2.1-.7.8-1.5 1.7-2.4 2.7s-1.7 1.9-2.4 2.7-1.3 1.6-1.9 2.3c-2.4-2.4-4.8-4.7-7.3-7.1-2.5-2.4-5.5-5-8.8-8l-8.2-7.3c-3.3-3-6.4-5.5-9-7.8l-8.1-6.6c.7-.6 1.4-1.3 2.2-2 .8-.8 1.6-1.6 2.5-2.6.9-1 1.7-1.9 2.3-2.8.7-.9 1.2-1.7 1.8-2.4 2.4 2.5 4.9 4.9 7.4 7.3 2.5 2.3 5.4 5 8.8 7.9 1-1 2.1-2.2 3.4-3.7 1.3-1.5 2.9-3.3 4.9-5.4 1.9-2.2 3.5-4 4.7-5.3 1.2-1.4 2.3-2.7 3.3-3.9-3.3-3-6.3-5.5-9-7.7-2.6-2.2-5.3-4.3-8.1-6.5.7-.6 1.4-1.3 2.2-2 .8-.8 1.6-1.6 2.5-2.6s1.7-1.9 2.3-2.8c.6-.9 1.2-1.7 1.8-2.4 2.5 2.5 5 4.9 7.5 7.3 2.5 2.4 5.5 5 8.8 8l8.2 7.3c3.3 3 6.4 5.5 9 7.8 2.7 2.2 5.3 4.3 8 6.4-.7.6-1.4 1.3-2.1 2.1-.7.8-1.5 1.7-2.4 2.7s-1.7 1.9-2.4 2.7-1.3 1.6-1.9 2.3c-2.4-2.4-4.8-4.7-7.3-7.1-2.5-2.4-5.5-5-8.8-8l-3.4-3c-1.6 1.3-3 2.8-4.4 4.3z"/></g></g><path d="M449.08 434.21c.9.7 1.5 1.7 1.5 2.9 0 2-1.6 3.7-3.7 3.7-2 0-3.6-1.6-3.6-3.7 0-1.2.6-2.3 1.5-2.9.6-.4 1.4-.7 2.2-.7s1.5.3 2.1.7m-13.99 0c.9.7 1.5 1.7 1.5 2.9 0 2-1.6 3.7-3.7 3.7-2 0-3.6-1.6-3.6-3.7 0-1.2.6-2.3 1.5-2.9.6-.4 1.4-.7 2.2-.7.7 0 1.5.2 2.1.7m-14 0c.9.7 1.5 1.7 1.5 2.9 0 2-1.6 3.7-3.7 3.7-2 0-3.6-1.6-3.6-3.7 0-1.2.6-2.3 1.5-2.9.6-.4 1.4-.7 2.2-.7.7 0 1.5.3 2.1.7" fill="#008348"/></g></svg>