<svg xmlns="http://www.w3.org/2000/svg" xmlns:xlink="http://www.w3.org/1999/xlink" width="642.11" height="653.01" viewBox="-314.81 141.34 642.11 653.01"><g transform="translate(-330.946 -277.008)"><path d="M369.14 1044.91c-2.61 7.66-10.91 26.45-31 26.45-22.85 0-30.78-24.73-31.16-25.77l-.68-2.34s19.68 1.64 30.52 1.64c10.81 0 29.34-1.07 32.34-1.64l-.02 1.66z"/><path d="M429.11 1032.72l4.69.59c-5.59 14.62-15.64 31-35.33 31-19.21 0-28.68-11.12-32.64-18.55l-3.35-2.05c-.01.01 33.07-1.06 66.63-10.99m-181.24 0l-4.69.59c5.57 14.62 15.66 31 35.41 31 19.1 0 29.39-11.7 33.63-18.55l2.28-2.05c0 .01-33.02-1.06-66.63-10.99"/><radialGradient id="a" cx="1025.12" cy="1333.447" r="25.941" gradientTransform="matrix(.8503 0 0 .6321 -533.505 212.91)" gradientUnits="userSpaceOnUse"><stop offset="0" stop-color="#ffe500"/><stop offset=".5" stop-color="#ffe500"/><stop offset="1" stop-color="#e15007"/></radialGradient><path d="M354.18 1046.47c-3.12 4.46-5.21 4.23-8.89 4.23-1.91 0-4.65 1.54-4.63 4.37.08 2.23 1.9 4.04 4.89 4.04 6.8 0 12-9.42 13.38-13.44 0 0 3.99-.16 5.15-.28 0 0-7.13 21.32-25.69 21.32-18.58 0-26.16-21.06-26.16-21.06s15.67.95 24.6.95c8.96 0 14.66-.08 17.35-.13" fill="url(#a)"/><radialGradient id="b" cx="957.74" cy="1187.205" r="27.212" gradientTransform="matrix(.8568 0 0 .7704 -542.992 133.557)" gradientUnits="userSpaceOnUse"><stop offset="0" stop-color="#ffe500"/><stop offset=".5" stop-color="#ffe500"/><stop offset="1" stop-color="#e15007"/></radialGradient><path d="M250.39 1037.08c12.08 3.2 20.71 5.91 41.05 8.37 0 0-.65 2.06-5.07 1.89-1.69-.11-1.92-.53-2.5-.63-1.31-.24-3.2 1.09-3.01 3.29.2 1.55 1.5 3.48 6.02 3.48s9.77-3.67 12.43-7.11c0 0 2.7.63 5.5.77 0 0-8.69 12.14-25.77 12.14-18.75 0-25.74-16.83-28.65-22.2" fill="url(#b)"/><path d="M336.6 937.16c64.76 0 136.5-39.75 186.87-97.05 5.48-6.2 14.67-17.97 36.55-17.97 21.91 0 51.04 19.97 47.63 56.32-2.54 26.47-40.38 86.2-105.16 122.94-64.77 36.89-124.43 44.78-165.88 44.78-41.48 0-101.1-7.89-165.9-44.78-64.78-36.74-102.6-96.47-105.13-122.94-3.41-36.35 25.72-56.32 47.59-56.32 21.93 0 31.15 11.77 36.62 17.97 50.29 57.3 122.07 97.05 186.81 97.05z" fill="#ffe500" stroke="#000" stroke-width="2.098" stroke-miterlimit="3.863"/><path d="M336.05 945.97c-65.16 0-139.31-38.45-193.92-100.65-5.56-6.32-12.63-14.44-29.47-14.44-9.84 0-20.99 5.27-28.38 13.41-5.57 6.05-11.81 16.72-10.31 33.07 2.17 22.34 37.57 80.16 100.68 116.07 50.85 28.94 105.16 43.56 161.4 43.56 56.29 0 110.6-14.62 161.47-43.55 63.09-35.91 98.55-93.73 100.63-116.07 1.56-16.35-4.73-27.02-10.22-33.07-7.43-8.15-18.61-13.41-28.4-13.41-16.91 0-23.98 8.13-29.49 14.44-54.58 62.19-128.82 100.64-193.99 100.64z" fill="#da020e"/><path d="M616.36 621.61l.23-15.1c4.65 3.56 13.4 3.61 18.52-1.85 2.33-2.49 3.66-6.34 3.46-10.29-.22-4.47-2.25-9.11-5.59-12.39-18.9-18.48-35.7-36.92-35.7-36.92-1.74-2.74-4.45-4.73-6.02-5.4-2.31-1.11-10.54-4.86-16.81 4.66-5.66 8.63-4.82 20.8-3.73 25.24l17.73 24.16c6.07 7.69 23.17 24.07 27.91 27.89M237.49 465c22.31-7.5 42.72-13.69 70.22-16.13l4.17-2.34c-15.35-12.11-30.6-20.38-45.78-20.38-9.53 0-28.93 6.48-33.26 40.71l4.65-1.86zm198.27 0c-22.32-7.5-42.71-13.69-70.18-16.13l-4.22-2.34c15.41-12.11 30.62-20.38 45.83-20.38 9.54 0 28.86 6.48 33.28 40.71l-4.71-1.86z"/><path d="M311.39 447.74c11.23-21.58 21.49-29.39 27.23-29.39 7.09 0 15.45 11.28 22.01 25.88l1.38 3.31-5.77-.45c-3.78-.71-14.56-.85-18.68-.85-4.22 0-13.33 0-18.81.51l-7.36.99z"/><path d="M222.87 934.14l-16.25 29.38c-4.91 8.83-9.96 14.43-18.26 9.68-8.16-4.62-6.27-11.31-1.26-20.43l16.3-29.42-13.15-7.29-17.22 31.09c-9.48 17.11 2.45 27.73 11.79 32.87 9.97 5.52 24.49 9.63 33.89-7.36l17.34-31.23-13.18-7.29zm209.01 60.53l-5.48-16.86 16.31-5.27-2.26-7.01-16.33 5.29-4.64-14.41 16.69-5.48-2.25-6.94-30.56 9.94 16.98 52.22 33.69-10.92-2.22-6.97-19.93 6.41zm34.91-67.57l-18.6 10.72 27.54 47.76 18.53-10.71c19.15-11.04 20.97-27.77 13.43-41.19-9.08-15.92-24.06-16.29-40.9-6.58m28.11 14.53c6.98 12.22 5.56 21.14-5.18 27.29l-5.12 2.98-20.22-34.94 5.5-3.19c12.9-7.41 20.22-.81 25.02 7.86m-148.81 22.38l1 7.16 15.38-2.18 6.65 47.21 14.3-1.98-6.63-47.18 15.15-2.1-1.04-7.26-44.81 6.33zm-13.02.45l-14.4-.79-2.88 54.85 14.41.77 2.87-54.83zm-43.71-6.7l-10.03 37.48-18.77-45.21-11.67-3.14-14.22 53.07 12.72 3.37 10.11-37.79 19.05 45.59 11.42 3.08 14.17-53.08-12.78-3.37zm-75.77-346.31v257.26l123.01 79.04 123-79.04.18-256.87c-3.94-3.47-12.12-11.09-18.53-15.07H231.38c-5.31 3.73-15.95 12.71-17.79 14.68z" fill="#ffe500"/><g><g><defs><path id="c" d="M213.59 611.45v257.26l123.01 79.04 123-79.04.18-256.87c-3.94-3.47-12.12-11.09-18.53-15.07H231.38c-5.31 3.73-15.95 12.71-17.79 14.68z"/></defs><clipPath id="d"><use xlink:href="#c" overflow="visible"/></clipPath><g clip-path="url(#d)"><path fill="none" stroke="#b54005" stroke-width="10" stroke-miterlimit="3.863" d="M213.59 506.96v361.75l123.01 79.04 123-79.04.18-361.36"/></g></g></g><linearGradient id="e" gradientUnits="userSpaceOnUse" x1="992.409" y1="689.628" x2="992.409" y2="811.998" gradientTransform="translate(-661.892 4)"><stop offset="0" stop-color="#8f0904"/><stop offset=".25" stop-color="#b40509"/><stop offset="1" stop-color="#da020e"/></linearGradient><path d="M385.76 796.03v-9.56s-2.54-3.93-8.84-3.93c-6.28 0-10.04 1.89-10.04 3.47 0 2.59 5.63 10.02 18.88 10.02m-49.6-84.64l9.51-16.6 7.45 16.6h12.34c-7.42 6.97-10.46 17.51-10.46 24.54v7.66c0 3.25-1.64 8.64-1.64 8.64s10.71 8.16 12.36 9.58c.69.54 1.44.87.94 2.29-.85 2.39-8.13 5.67-8.87 6.29-1.65 1.46-2.08 2.34-1.65 3.78.52 1.39 1.88 1.65 4.67.66 2.82-.91 8.65-3.97 13.54-6.06 4.87-2.12 11.4-1.58 11.4-1.58v-9.37h-18.43v-29.77l-3.25-5.25 8.13-14.48 8.17 14.57-3.22 5.16v15.55h9.39v-15.55l-3.24-5.16 8.15-14.46 8.12 14.46-3.21 5.16v15.55h9.45v-15.55l-3.35-5.16 8.18-14.46 8.15 14.46-3.25 5.16.16 29.73h-18.58v13.75c4.21 3.96 8.19 12.92 8.19 18.19 0 5.4-3.52 7.69-3.52 7.69 1.18 4.24.95 6.01.45 9.85-.45 3.9-5.32 9.99-5.32 9.99v71.06c0 4.83-11.18 4.35-11.18.23v-69.69c-6.33-6.92-23.55-12.36-23.55-12.36-6.32 6.32-10.2 17.29-10.2 17.29 2.74 1.92 7.01 0 8.62-1.86 1.58-1.86 4.83-2.35 6.7-1.17 1.84 1.17 2.29 1.62 1.66 4.36-.72 2.89-1.87 7.51-1.87 10.73 0 3.31 3.72 2.57 6.5 2.82 5.61.49 6.54 6.76 6.07 10.27-.46 3.52-2.1 10.99-2.1 15.63 0 4.6.25 9.24.7 11.87.48 2.54 1.4 5.35 1.14 8.63-.28 4.42-3 5.12-5.81 2.29-2.78-2.79-41.69-44.27-41.69-44.27-2.59 8.44 8.18 22.83 11.66 27.27 3.5 4.44 3.27 7.71.21 10.75-3 3.01-8.84 4.62-9.98 7.45-1.19 2.74 2.79 11.19 10.97 21.67 8.15 10.46-9.36 17.48-19.81 19.57-10.52 2.07-10.52-5.16-9.79-9.11.69-3.92.69-6.31.44-9.75-.23-3.51-3.45-8.37-7.92-14.2-4.42-5.85-4.42-11.17-2.58-24.73 1.86-13.52 1.42-22.15 1.42-22.15s-4.66.19-11.43 0c-6.73-.26-12.31-4.16-12.79-20.49-.47-16.28-.85-55.16-1.96-59.24-1.08-4.03-5.44-4.77-7.28-5.31-1.91-.48-2-3.23-.16-4.21 4.86-2.37 10.7-8.34 8.54-12.05-2.18-3.72-10.75-2.95-16.48-.15-5.75 2.78-11.81 8.89-13.37 10.55-1.51 1.65-2.82 1.65-2.65-.13.19-1.9-1.06-10.8-1.8-13.88-.82-3.11-3.6-8.99-4.54-10.54-.92-1.56 0-2.17 1.57-1.56 1.51.62 4.96 2.06 8.21 2.92 3.27.99 6.39-.62 7.88-3.67 1.55-3.15 4.59-9.8 6.14-12.77 1.53-2.93 3.99-2.28 6.02-1.83 2.01.48 3.88 1.72 5.73 2.46 1.85.77 3.39.62 4.05-.32.63-.9 1.4-1.23 2.51-3.56 1.09-2.32 2.44-1.22 2.61-.29 5.56 33.42 20.04 34.96 20.04 34.96-2.18 5.57-7.28 14.44-8.48 16.68-1.31 2.09-1.79 5.07-2.11 7.39-.25 2.3.8 24.38 2.35 32.47 1.57 8.1 6.52 4.95 8.13 2.47 1.49-2.47 6.34-12.74 6.34-12.74s1.2-2.8 1.2-5.12c0-2.34-4.02-7.41-4.95-9-.96-1.61-4.35-4.69-4.35-12.47 0-7.75 6.98-13.13 9.5-15.17 2.49-2.04 2.49-4.86 2.15-6.56-1.09-6-7.46-18.61-10.52-23.45-3.14-4.82-9.19-13.97-9.19-13.97h12.58l8.1-16.82 8.81 16.89 9.23.05zm-2.04 50.95c4.1-6.78 5.82-13.83 5.82-13.83h-11.87c.01 0 1.91 7.22 6.05 13.83m-12.36-34.19c.48 3.47 3.06 4.8 5.03 3.78 1.96-1.08 1.62-3.89.16-6.14-1.39-2.2-4.28-4.66-5.16-4.3-.91.38-.34 4.61-.03 6.66m23.52-6.66c-.85-.37-3.89 2.09-5.34 4.3-1.39 2.25-1.75 5.06.23 6.14 1.93 1.01 4.42-.34 5.04-3.78.34-2.05 1.01-6.28.07-6.66" fill="url(#e)"/><path d="M223.24 675.59v15.49h226.95v-15.49h-16.74v2.5H239.98v-2.5h-16.74zm.01-69.6h226.9v61.71h-226.9v-61.71z" fill="#da020e"/><path d="M262.24 649.78l17.38 4.27 9.38-26.14v-6.62l-26.76 28.49zm143.22 15.41v-8.05h-16.4v-6.76h13.4v-29.84h-12.35l-4.22-8.21-4.12 8.21h-12.39v29.84h13.46v6.76h-32.26v-6.76H364v-29.84h-12.37l-4.18-8.21-4.22 8.21H330.9v29.84h13.48v6.76h-32.93v-6.76h13.45v-29.84h-12.39l-4.14-8.21-4.25 8.21h-12.34v29.84h13.49v6.76l-26.05.08-25.92-6.05 5.19 14.02h146.97z" fill="#ffe500"/><radialGradient id="f" cx="950.963" cy="485.867" r="32.718" gradientTransform="matrix(.8145 0 0 .7755 -507.992 71.5)" gradientUnits="userSpaceOnUse"><stop offset="0" stop-color="#ffe500"/><stop offset=".5" stop-color="#ffe500"/><stop offset="1" stop-color="#e15007"/></radialGradient><path d="M238.78 462.57c21.9-7.33 38.46-13.04 65.44-15.44-12.43-8.63-23.47-15.93-36.15-15.93-6.67 0-12.38 2.55-13.69 7.21-1.22 4.24 2.12 6.09 3.31 5.8 1.24-.32 2.13-.69 1.83-1.84-.32-1.22.62-4.31 4.86-4.31 4.31 0 5.94 3.99 5.94 6.74s-4.35 7.32-12.35 7.32c-7.84 0-11.87-5.23-11.56-10.06-3.8 5.55-6.01 11.15-7.63 20.51" fill="url(#f)"/><path d="M86.15 593.71l17.79-24.16c1.02-4.44 1.84-16.6-3.85-25.23-6.22-9.53-14.41-5.77-16.81-4.66-1.52.68-4.28 2.65-5.98 5.4 0 0-17.1 18.83-35.93 37.36-2.66 2.64-5.59 7.47-5.83 11.94-.23 3.97 1.37 7.95 3.67 10.44 5.15 5.48 14.14 5.27 18.74 1.7l.32 15.1c4.74-3.81 21.82-20.19 27.88-27.89"/><path d="M336.6 558.55c101.29 0 158.92 95.07 171.5 111.76 22.34 29.82 49.69 54.03 81.39 46.03 46.56-11.91 44.14-80.88 44.14-80.88-11.24-8.09-30.38-18.27-65.28-67.75-34.18-48.5-111.53-120.34-231.74-120.34-120.24 0-197.57 71.84-231.67 120.34-34.94 49.47-54.15 59.66-65.27 67.75 0 0-2.51 68.96 44.08 80.88 31.68 8 59.01-16.21 81.39-46.03 12.52-16.69 70.19-111.76 171.46-111.76z" fill="#ffe500" stroke="#000" stroke-width="2.098" stroke-miterlimit="3.863"/><path d="M336.6 549.53c97.65 0 155.73 82.83 176.73 112.72 27.79 37.1 51.33 51.11 73.93 45.36 32.67-8.32 36.73-53.29 37.17-66.9v-.54l-.37-.28c-11.52-7.98-30.79-21.21-63.08-66.98-19.26-27.33-92.38-116.58-224.39-116.58-131.96 0-205.15 89.25-224.4 116.58-32.02 45.48-52.16 59.35-62.95 66.75l-.46.37.05.48c.44 13.64 4.51 58.84 37.1 67.1 22.63 5.75 46.21-8.25 73.93-45.36 21-29.89 79.13-112.72 176.74-112.72" fill="#da020e"/><path d="M283.55 480.33c-17.92 3.79-29.72 17-25.85 34.91 2.25 9.67 10.88 27.47 38.18 21.67 7.58-1.44 11.67-4.46 15.64-8.25l-4.97-5.71c-1.87 2.08-4.67 5.12-10.95 6.43-13.21 2.79-21.06-7.9-23.02-17.12-2.91-13.67 5.06-23.08 14.05-25.03 6.43-1.42 10.32.33 12.79 1.29h.08l1.67-7c-4.34-1.76-9.54-2.91-17.62-1.19m149.85 78.79c10.25 6.17 21.43 5.12 26.66-3.54 3.8-6.05 3.84-11.08-.73-20.08-1.18-2.55-2.72-4.38-3.76-6.7-2.02-3.77-3.89-6.85-2.15-9.76 1.92-3.16 6.36-3.42 10.38-.96 4.21 2.55 5.96 6.76 6.85 9.64l6.61-2.85c-2.03-5.43-5.04-10.3-11.91-14.37-11.75-7.08-21.3-5.21-25.28 1.42-4.03 6.66-2.89 12.21.15 17.9 0 0 1.88 3.23 2.97 5.43 2.66 4.44 5.76 10.05 3.58 13.55-2.63 4.42-7.17 5.38-11.58 2.63-5.66-3.57-6.98-7.72-8.16-11.77l-7.27 3.11c1.6 5.57 5.36 11.35 13.64 16.35m-78.24-81.67l-.41 22.38-21.52-.31.32-22.46-14.43-.27-.96 54.91 14.45.31.46-25.18 21.56.39-.41 25.13 14.43.22.94-54.91-14.43-.21zm206.67 174.37c.1.14 8.47 4.27 17.76-4.08 7.77-6.98 5.16-16.56-2.95-25.54l-14.96-16.63-40.8 36.77 9.64 10.7 16.24-14.57 4.69 5.29-10.28 23.2 12.31 9.84 8.35-24.98zm7.28-27.05c3.82 4.24 3.89 9.28-.56 13.19-4.32 3.99-9.85 3.07-14.04-1.54l-2.44-2.73 13.81-12.48 3.23 3.56zm-63.67-14.03l13.67-11.34 10.96 13.04 5.67-4.73-11.02-13.1 11.56-9.74 11.29 13.45 5.6-4.67-20.62-24.58-42.04 35.3 22.71 27.1 5.67-4.71-13.45-16.02zm-15.76-82.51l-4.9 5.38 11.52 10.41-31.92 35.41 10.77 9.68 31.88-35.42 11.37 10.24 4.88-5.38-33.6-30.32zm-94 3.48l5.81-16.75 16.17 5.58 2.4-6.97-16.2-5.57 4.93-14.34 16.67 5.71 2.34-6.93-30.36-10.45L379.6 534l33.46 11.45 2.38-6.93-19.76-6.81zM221.82 504.8l20.62 32.87-45.92-17.14-10.22 6.42 29.12 46.65 11.09-6.98-20.76-33.21 46.39 17.22 10.02-6.28-29.17-46.62-11.17 7.07zm-64.23 49.68l-9.39 10.07 26.32 52.34 6.43-6.87-7.15-13.92 12.71-13.67 14.41 6.11 10.59-11.34-53.92-22.72zm22.19 24.92l-9.53 10.24-9.8-18.83 19.33 8.59zm-53.21 8.29l-10.22 12.17 19.1 39.49-40.95-13.41-8.81 10.44 42.08 35.33 6.39-7.59-29.75-25.03 39.86 12.98 4.2-4.97-19.01-38.08 29.87 25.04 9.32-11.03-42.08-35.34z" fill="#ffe500"/><radialGradient id="g" cx="645.499" cy="404.185" r="18.953" gradientTransform="matrix(1.0879 -1.9053 1.676 .957 -1306.787 1426.61)" gradientUnits="userSpaceOnUse"><stop offset="0" stop-color="#ffe500"/><stop offset=".5" stop-color="#ffe500"/><stop offset="1" stop-color="#e15007"/></radialGradient><path d="M62.29 615.67l-.05-12.11c20.67-18.98 30.41-38.05 30.41-38.05s-7.6-2.86-11-7.19c-1.68-2.4-2.33-5.69-2.05-7.89.66-4.13 3.88-6.23 4.97-6.7 2.38-1.02 6.79-3.35 11.71 3.42 5.24 7.32 3.86 21.22 3.14 24.42.01 0-9.62 16.78-37.13 44.1" fill="url(#g)"/><linearGradient id="h" gradientUnits="userSpaceOnUse" x1="719.142" y1="572.11" x2="729.25" y2="583.222" gradientTransform="translate(-661.892 4)"><stop offset="0" stop-color="#ffe500"/><stop offset=".5" stop-color="#ffe500"/><stop offset="1" stop-color="#e15007"/></linearGradient><path d="M85.16 567.72c-2.79 4.86-9.82 16.6-27.6 33.27-2.95 2.77-10.32 5.12-14.5.43-1.56-1.82-2.6-4.37-2.44-7.33.2-3.43 2.26-7.41 4.32-9.17 3.58-3.03 18.86-18.45 29.72-30.58.3 2.21 2.2 5.91 2.2 5.91 1.51 2.07 3.34 5.04 8.3 7.47" fill="url(#h)"/><linearGradient id="i" gradientUnits="userSpaceOnUse" x1="777.841" y1="816.393" x2="847.664" y2="896.532" gradientTransform="translate(-661.892 4)"><stop offset="0" stop-color="#740703"/><stop offset="1" stop-color="#da020e" stop-opacity="0"/></linearGradient><path d="M336.05 945.97c-65.16 0-139.31-38.45-193.92-100.65-5.56-6.32-12.63-14.44-29.47-14.44-9.84 0-20.99 5.27-28.38 13.41-5.57 6.05-11.81 16.72-10.31 33.07 2.17 22.34 37.57 80.16 100.68 116.07 50.85 28.94 105.16 43.56 161.4 43.56" fill="url(#i)"/><linearGradient id="j" gradientUnits="userSpaceOnUse" x1="495.098" y1="816.392" x2="564.921" y2="896.532" gradientTransform="matrix(-1 0 0 1 1051.25 4)"><stop offset="0" stop-color="#740703"/><stop offset="1" stop-color="#da020e" stop-opacity="0"/></linearGradient><path d="M336.05 945.97c65.16 0 139.31-38.45 193.92-100.65 5.56-6.32 12.63-14.44 29.47-14.44 9.84 0 20.99 5.27 28.38 13.41 5.57 6.05 11.81 16.72 10.31 33.07-2.17 22.34-37.57 80.16-100.68 116.07-50.85 28.94-105.16 43.56-161.4 43.56" fill="url(#j)"/><linearGradient id="k" gradientUnits="userSpaceOnUse" x1="1274.123" y1="686.58" x2="1236.336" y2="651.024" gradientTransform="translate(-661.892 4)"><stop offset="0" stop-color="#740703"/><stop offset="1" stop-color="#da020e" stop-opacity="0"/></linearGradient><path d="M513.33 662.25c27.79 37.1 51.33 51.11 73.93 45.36 32.67-8.32 36.73-53.29 37.17-66.9v-.54l-.37-.28c-11.52-7.98-30.79-21.21-63.08-66.98" fill="url(#k)"/><linearGradient id="l" gradientUnits="userSpaceOnUse" x1="987.266" y1="690.374" x2="947.256" y2="648.151" gradientTransform="matrix(-1 0 0 1 1051.784 4)"><stop offset="0" stop-color="#740703"/><stop offset="1" stop-color="#da020e" stop-opacity="0"/></linearGradient><path d="M159.96 662.25c-27.79 37.1-51.33 51.11-73.93 45.36-32.67-8.32-36.73-53.29-37.17-66.9v-.54l.37-.28c11.52-7.98 30.79-21.21 63.08-66.98" fill="url(#l)"/><radialGradient id="m" cx="603.036" cy="485.867" r="32.718" gradientTransform="matrix(-.8145 0 0 .7755 897.884 71.5)" gradientUnits="userSpaceOnUse"><stop offset="0" stop-color="#ffe500"/><stop offset=".5" stop-color="#ffe500"/><stop offset="1" stop-color="#e15007"/></radialGradient><path d="M434.51 462.57c-21.9-7.33-38.46-13.04-65.44-15.44 12.43-8.63 23.47-15.93 36.15-15.93 6.67 0 12.38 2.55 13.69 7.21 1.22 4.24-2.12 6.09-3.31 5.8-1.24-.32-2.13-.69-1.83-1.84.32-1.22-.62-4.31-4.86-4.31-4.31 0-5.94 3.99-5.94 6.74s4.35 7.32 12.35 7.32c7.84 0 11.87-5.23 11.56-10.06 3.8 5.55 6.01 11.15 7.63 20.51" fill="url(#m)"/><radialGradient id="n" cx="986.074" cy="426.091" r="18.37" gradientTransform="matrix(1.096 0 0 1.0476 -744.085 -10.476)" gradientUnits="userSpaceOnUse"><stop offset="0" stop-color="#ffe500"/><stop offset=".5" stop-color="#ffe500"/><stop offset="1" stop-color="#e15007"/></radialGradient><path d="M337.63 433.82c-.69 4.19-5.5 8.2-10.38 8.2-4.88 0-6.34-.79-6.34-.79-.74 1.15-1.39 2.04-2.16 3.28 4.42-.17 14.69-.46 18.8-.46 4.1 0 15.49.59 17.94.77-3.96-9.28-11.59-22.12-16.87-22.12-.18 0-.41-.02-.69-.02-1.23 0-5.51 3.71-7.8 6.96-3.01 4.28 7.5 4.18 7.5 4.18z" fill="url(#n)"/><radialGradient id="o" cx="581.448" cy="276.673" r="18.953" gradientTransform="matrix(-1.0879 -1.9053 -1.676 .957 1696.679 1426.61)" gradientUnits="userSpaceOnUse"><stop offset="0" stop-color="#ffe500"/><stop offset=".5" stop-color="#ffe500"/><stop offset="1" stop-color="#e15007"/></radialGradient><path d="M611 615.67l.05-12.11c-20.67-18.98-30.41-38.05-30.41-38.05s7.6-2.86 11-7.19c1.68-2.4 2.33-5.69 2.05-7.89-.66-4.13-3.88-6.23-4.97-6.7-2.38-1.02-6.79-3.35-11.71 3.42-5.24 7.32-3.86 21.22-3.14 24.42-.01 0 9.62 16.78 37.13 44.1" fill="url(#o)"/><linearGradient id="p" gradientUnits="userSpaceOnUse" x1="435.745" y1="572.111" x2="445.853" y2="583.222" gradientTransform="matrix(-1 0 0 1 1051.784 4)"><stop offset="0" stop-color="#ffe500"/><stop offset=".5" stop-color="#ffe500"/><stop offset="1" stop-color="#e15007"/></linearGradient><path d="M588.13 567.72c2.79 4.86 9.82 16.6 27.6 33.27 2.95 2.77 10.32 5.12 14.5.43 1.56-1.82 2.6-4.37 2.44-7.33-.2-3.43-2.26-7.41-4.32-9.17-3.58-3.03-18.86-18.45-29.72-30.58-.3 2.21-2.2 5.91-2.2 5.91-1.51 2.07-3.34 5.04-8.3 7.47" fill="url(#p)"/><path d="M213.59 611.45v257.26l123.01 79.04 123-79.04.18-256.87c-3.94-3.47-12.12-11.09-18.53-15.07H231.38c-5.31 3.73-15.95 12.71-17.79 14.68z" fill="none" stroke="#000" stroke-width="2.098" stroke-miterlimit="3.863"/><radialGradient id="q" cx="624.491" cy="1187.205" r="27.202" gradientTransform="matrix(-.8568 0 0 .7704 934.634 133.557)" gradientUnits="userSpaceOnUse"><stop offset="0" stop-color="#ffe500"/><stop offset=".5" stop-color="#ffe500"/><stop offset="1" stop-color="#e15007"/></radialGradient><path d="M426.78 1037.08c-12.08 3.2-20.71 5.91-41.05 8.37 0 0 .65 2.06 5.07 1.89 1.69-.11 1.92-.53 2.5-.63 1.31-.24 3.2 1.09 3.01 3.29-.2 1.55-1.5 3.48-6.02 3.48s-9.77-3.67-12.43-7.11c0 0-2.7.63-5.5.77 0 0 8.69 12.14 25.77 12.14 18.76 0 25.75-16.83 28.65-22.2" fill="url(#q)"/><path d="M17.19 773.01c0-31.04 25.18-56.28 56.26-56.28s56.25 25.24 56.25 56.28c0 31.09-25.17 56.28-56.25 56.28-31.07-.01-56.26-25.19-56.26-56.28z" fill="#ffe500" stroke="#000" stroke-width="2.098" stroke-miterlimit="3.863"/><radialGradient id="r" cx="735.439" cy="759.354" r="41.68" gradientTransform="matrix(1.0407 0 0 1.0237 -691.926 -6.43)" gradientUnits="userSpaceOnUse"><stop offset="0" stop-color="#da030e" stop-opacity="0"/><stop offset=".875" stop-color="#da020e" stop-opacity="0"/><stop offset="1" stop-color="#da020e"/></radialGradient><path d="M30.07 770.92c0-23.53 19.42-42.67 43.38-42.67 23.97 0 43.37 19.14 43.37 42.67 0 23.57-19.41 42.67-43.37 42.67-23.96-.01-43.38-19.1-43.38-42.67z" fill="url(#r)"/><path d="M85.4 811.68c-2.47.79-3.54-.94-4.66-2.18-4.38-5.04-5.5-18.45-5.5-20.22 0-1.78.66-3.74 1.91-3.78 10.56-.2 18.1-3.26 25.02-9.01 6.91-5.65 9.91-12.13 10.52-13.28.6-1.28 2.04-1.05 2.3.72.29 1.48.85 4.14.85 7.02 0 19.32-13.03 35.1-30.44 40.73m-11.15 1.75c-.3 0-.64.04-.92.04-7.78 0-16.35-2.97-21.42-5.86-5.26-2.86-7.23-16.35-7.23-23.17 0-22.2 9.11-35.42 10.59-38.02 1.44-2.63 4.7-2.91 7.08-2.27 2.47.71 3.35 1.14 6.19 1.98 1.48.48 4.49 1.1 6.75 1.5 2.26.54 4.69 1.01 3.23 5.23-1.44 4.22-6.36 14.37-6.86 26.4-.48 10.89.97 21.7 3.43 28.35 1.61 4.29 1.61 5.9-.84 5.82m-32.14-50.69c-2.08-1.1-4.57-6.45-5.41-8.02-.57-1.12-.57-4.34.25-5.71 3.47-6.08 8.4-11.71 14.75-14.64.78-.34 1.86-.4 1.86 1.46 0 1 .54 2.55.56 3.54 0 1 .42 3.04-.84 4.64-1.33 1.62-7 11.68-8.46 17.32-.24 1.26-.62 2.59-2.71 1.41m-1.17 35.63c-5.89-5.81-10.08-16.35-10.08-27.43 0-4.31.64-8.43 1.78-12.34 0 0 1.05-1.76 1.97-.27.7 1.1 1.67 2.2 2.46 3.67.88 1.46 5.43 4.93 5.05 7.75-1.59 10.38-.16 24.16.33 26.48.43 2.3-.2 3.28-1.51 2.14m18.59-67.62c4.36-1.44 9.01-2.26 13.8-2.26 7.29 0 14.36 1.33 20.27 5.09 1.52.99 1.95 2.14 1.95 3.85 0 5.57-8.7 7.43-14.46 7.43-5.8 0-12.93-2.29-17.97-3.89-5.03-1.57-6.12-4.48-6.12-5.8-.01-1.28.96-3.91 2.53-4.42m39.29 6.18l2.83 2.29c4.06 3.7 7.72 7.93 9.85 12.99 2.66 6.38-5.59 16.04-8.02 18.27-10.93 10.27-17.78 10.07-21.66 10.63-3.88.57-6.39-1.86-6.29-4.78.25-8.54 6.33-23.26 8.07-26.03 1.12-1.78 3.05-2.89 3.05-2.89 4.06-1.12 8-2.82 10.04-5.14 2.01-2.34 2.13-5.34 2.13-5.34m-25.07-11.21c-26.14 0-47.3 21.17-47.3 47.29 0 26.14 21.16 47.3 47.3 47.3 26.12 0 47.33-21.16 47.33-47.3 0-26.12-21.21-47.29-47.33-47.29" fill="#da020e"/><path d="M544.68 772.9c0-31.04 25.19-56.18 56.26-56.18 31.09 0 56.26 25.15 56.26 56.18 0 31.09-25.17 56.28-56.26 56.28-31.08 0-56.26-25.19-56.26-56.28z" fill="#ffe500" stroke="#000" stroke-width="2.098" stroke-miterlimit="3.863"/><path d="M633.88 798.18c-1.23 1.22-1.93.16-1.41-2.12.43-2.26 1.86-16.09.27-26.46-.39-2.82 4.19-6.27 5.03-7.75.84-1.45 1.8-2.59 2.48-3.65.94-1.54 1.94.18 1.94.18 1.21 3.96 1.79 8.1 1.79 12.39-.01 11.12-4.26 21.61-10.1 27.41m-3.81-37c-1.46-5.62-7.18-15.73-8.47-17.34-1.3-1.55-.89-3.62-.87-4.62 0-.99.57-2.57.57-3.59 0-1.78 1.08-1.75 1.85-1.41 6.38 2.93 11.28 8.48 14.79 14.62.78 1.4.8 4.6.22 5.69-.82 1.57-3.3 6.93-5.42 8.06-2.12 1.16-2.43-.19-2.67-1.41m-7.1 46.27c-5.08 2.84-13.65 5.84-21.46 5.84h-.9c-2.4.06-2.46-1.61-.81-5.89 2.39-6.59 3.88-17.45 3.38-28.31-.49-12.09-5.35-22.12-6.86-26.37-1.46-4.21.98-4.73 3.26-5.2 2.27-.45 5.27-1.11 6.76-1.58 2.8-.85 3.7-1.28 6.17-1.98 2.4-.62 5.64-.31 7.11 2.26 1.44 2.63 10.57 15.93 10.57 38.08-.01 6.78-2 20.25-7.22 23.15m-33.49 4.06c-17.46-5.66-30.46-21.44-30.46-40.74 0-2.84.56-5.48.79-7.01.34-1.77 1.67-2.07 2.34-.76.61 1.19 3.65 7.66 10.52 13.33 6.97 5.7 14.43 8.82 25.06 9.04 1.29.06 1.89 1.96 1.89 3.78 0 1.8-1.09 15.18-5.45 20.18-1.16 1.27-2.28 3.03-4.69 2.18m-26.09-59.44c2.08-5.06 5.76-9.36 9.82-12.98 0 0 2.01-1.7 2.79-2.29 0 0 .16 3.03 2.18 5.29 2.01 2.29 5.91 4.08 9.97 5.15 0 0 1.91 1.16 3.05 2.94 1.8 2.69 7.83 17.39 8.1 25.99.07 2.93-2.41 5.36-6.3 4.8-3.89-.52-10.72-.4-21.65-10.61-2.4-2.25-10.66-11.89-7.96-18.29m17.85-18.65c5.99-3.78 12.97-5.11 20.27-5.11 4.83 0 9.42.82 13.81 2.27 1.62.5 2.57 3.11 2.57 4.42 0 1.29-1.07 4.23-6.13 5.81-5.05 1.55-12.15 3.88-17.94 3.88-5.82 0-14.5-1.89-14.5-7.43 0-1.68.42-2.9 1.92-3.84m19.81-7.82c-26.11 0-47.28 21.18-47.28 47.23 0 26.2 21.17 47.3 47.28 47.3 26.15 0 47.33-21.1 47.33-47.3 0-26.05-21.17-47.23-47.33-47.23" fill="#da020e"/><radialGradient id="s" cx="1014.553" cy="759.24" r="41.68" gradientTransform="matrix(1.0407 0 0 1.0237 -454.27 -6.524)" gradientUnits="userSpaceOnUse"><stop offset="0" stop-color="#da030e" stop-opacity="0"/><stop offset=".875" stop-color="#da020e" stop-opacity="0"/><stop offset="1" stop-color="#da020e"/></radialGradient><path d="M558.2 770.71c0-23.53 19.42-42.67 43.38-42.67 23.97 0 43.37 19.14 43.37 42.67 0 23.57-19.4 42.67-43.37 42.67-23.96-.01-43.38-19.1-43.38-42.67z" fill="url(#s)"/></g><g><path d="M190.82 757.74v9.49h-2.9v-21.02h7.51c3.51 0 7.17 1.09 7.17 5.25 0 2.53-1.5 4.47-3.96 5.05v.07c2.53.61 2.9 1.94 3.21 4.3.31 2.08.55 4.33 1.3 6.31h-3.11c-.27-1.26-.61-2.63-.75-3.86-.24-1.88-.24-3.62-1.19-4.67-.85-.96-2.01-.89-3.17-.96h-4.09v.04h-.02zm-.07-2.5h4.81c3.24-.14 3.96-1.6 3.96-3.28s-.72-3.11-3.96-3.28h-4.81v6.56z"/><g><g><path d="M178.98 756.98c0 8.94 7.27 16.21 16.21 16.21s16.21-7.27 16.21-16.21-7.27-16.21-16.21-16.21c-8.95.01-16.21 7.27-16.21 16.21zm2.18 0c0-7.75 6.31-14.02 14.02-14.02s14.02 6.31 14.02 14.02S202.89 771 195.18 771c-7.71.01-14.02-6.27-14.02-14.02z"/></g></g></g></svg>