<svg xmlns="http://www.w3.org/2000/svg" viewBox="0 0 11 11"><g fill="#959FAA"><g fill="MAIN_COLOR"><path d="M5.412 11a5.53 5.53 0 0 1-3.897-1.605 5.44 5.44 0 0 1 0-7.734c2.15-2.13 5.657-2.13 7.81 0a5.447 5.447 0 0 1 0 7.737A5.604 5.604 0 0 1 5.41 11zm3.213-8.647a4.57 4.57 0 0 0-3.213-1.315c-1.16 0-2.32.443-3.213 1.315A4.464 4.464 0 0 0 2.2 8.717a4.575 4.575 0 0 0 6.425 0 4.47 4.47 0 0 0 0-6.364z"/><path d="M7.368 6.356H5.133a.495.495 0 0 1-.49-.49V3.074c0-.265.224-.49.49-.49.265 0 .49.225.49.49V5.38h1.745c.265 0 .49.223.49.49a.495.495 0 0 1-.49.487z"/></g></g></svg>