<?xml version="1.0" encoding="utf-8"?>
<!-- Generator: Adobe Illustrator 19.1.0, SVG Export Plug-In . SVG Version: 6.00 Build 0)  -->
<svg version="1.1" id="Layer_1" xmlns="http://www.w3.org/2000/svg" xmlns:xlink="http://www.w3.org/1999/xlink" x="0px" y="0px"
	 width="640px" height="480px" viewBox="0 0 640 480" style="enable-background:new 0 0 640 480;" xml:space="preserve">
<rect style="fill:#DD2E26;" width="640" height="480"/>
<path id="s" style="fill:#FFDE00;" d="M106.7,69.3l37.6,115.8l-98.5-71.6h121.7L69,185.1L106.7,69.3z"/>
<path id="s_1_" style="fill:#FFDE00;" d="M221.7,49.7l-3.6,40.4l-20.9-34.8l37.3,15.9L195,80.3L221.7,49.7z"/>
<path id="s_2_" style="fill:#FFDE00;" d="M271.3,97.1l-19,35.9l-5.7-40.2l28.3,29.1l-40-7L271.3,97.1z"/>
<path id="s_3_" style="fill:#FFDE00;" d="M276,168.7l-32,25l11.1-39l13.9,38.1l-33.7-22.7L276,168.7z"/>
<path id="s_4_" style="fill:#FFDE00;" d="M220.9,198.7l-1.9,40.5l-22.3-33.9l38,14.3l-39.1,10.7L220.9,198.7z"/>
</svg>
