<svg xmlns="http://www.w3.org/2000/svg" width="640" height="612.4" viewBox="-575 91.2 640 612.4"><g><g><path d="M60.9 669.7C33 682.7 1.7 686.6-28.6 681c-20-3.4-39.6-9-58.4-16.7-4.4-2-9.5-1.8-13.6.7-134.9 71.9-301.5 41.1-401.9-74.2-39.5-44.7-64-100.6-70.2-159.9-9.8-76.9 11.9-154.5 60-215.2 48.8-65.1 121.4-108.2 202-119.9 118.1-18.1 220.1 15.6 300.7 105C43.1 258.7 70 336 64.2 414.3c-1.8 52-18.8 102.3-48.8 144.8C1.7 578 3.6 594.4 9.7 613.6c6.6 26.1 25.8 47.1 51.2 56.1zM-176.8 396l-2.4-1.3c0-26.5.1-53.1 0-79.6 1.2-11-6.8-21-17.8-22.2-.7-.1-1.3-.1-2-.1-10.4-.8-19.4 6.9-20.3 17.2-.1 1.3-.1 2.7.1 4-.1 56.7-.1 113.5.1 170.2-.7 10.8 7.4 20.2 18.3 20.9.6 0 1.2.1 1.7 0 11-.1 19.9-9 19.8-20v-1.2c.2-8.8.1-17.5.1-26.3-.2-4 2.3-7.7 6.1-8.9 3.9-1.4 5.3 2.4 7.1 4.8 10.5 14 21 28 31.6 41.9 6.5 9.9 19.7 12.7 29.6 6.2.6-.4 1.2-.8 1.7-1.2 9.3-7.5 10.9-21.1 3.4-30.5-.2-.2-.3-.4-.5-.6-10.1-14.3-20.7-28.2-31.4-42-4.5-5.8-5.9-9.5 1.1-15.1 8.6-6.7 16.2-14.5 22.7-23.2 5.2-6.5 5.7-15.5 1.5-22.7-3.8-7.3-11.7-11.7-19.9-10.9-7.7.8-14.8 4.7-19.6 10.8-10.6 9.8-20.7 19.9-31 29.8zm-227.2-.1l-2.4-1.2c0-26.6.1-53.1 0-79.7 1.2-11-6.8-21-17.8-22.2-11-1.2-21 6.8-22.2 17.8-.1 1.3-.2 2.7 0 4-.1 56.1 0 112.2.1 168.3-1.2 11 6.7 20.9 17.7 22.1 11 1.2 20.9-6.7 22.1-17.7.2-1.4.2-2.9 0-4.3.1-8.1.3-16.1-.1-24.2-.1-4.4 2.7-8.2 6.9-9.5 4.1-2 5.1 2.6 6.8 4.8 10.6 13.9 21 28 31.7 41.9 6.6 9.6 19.7 12.1 29.3 5.5.2-.1.3-.2.5-.3 9.8-6.9 12.2-20.5 5.2-30.4-.5-.7-1.1-1.4-1.7-2.1-9.5-13.5-19.1-26.9-29.6-39.5-6.5-7.8-6.9-12.7 1.7-19.2 8.6-6.1 16-13.8 21.8-22.6 6.1-9.8 3.2-22.7-6.6-28.8-3.2-2-6.9-3.1-10.7-3.2-8.2 0-15.9 3.7-21.1 10-10.6 10.1-21 20.4-31.6 30.5zm151.1 33.7c.1-17.9.2-35.7.1-53.6 1.1-11-6.9-20.9-17.9-22-11-1.1-20.9 6.9-22 17.9-.1 1.3-.1 2.5 0 3.8-.1 35.7-.1 71.5.1 107.2-1.3 11 6.6 20.9 17.6 22.2 11 1.3 20.9-6.6 22.2-17.6.2-1.4.2-2.8 0-4.2 0-17.9-.1-35.8-.1-53.7zm199 9.7c10.6-.1 19.2-8.7 19.1-19.4-.1-10.6-8.7-19.2-19.4-19.1-10.5.1-19 8.5-19.1 19.1.4 10.5 8.8 19 19.4 19.4z" fill="#383838"/><path d="M-176.8 396c10.3-9.9 20.4-20 30.8-29.6 4.8-6.1 11.9-10.1 19.6-10.8 8.2-.7 16.1 3.6 19.9 10.9 4.3 7.1 3.7 16.2-1.5 22.7-6.5 8.7-14.1 16.5-22.7 23.2-6.9 5.6-5.6 9.3-1.1 15.1 10.8 13.8 21.3 27.7 31.4 42 7.8 9.1 6.8 22.7-2.2 30.6-.2.2-.4.4-.6.5-9.2 7.4-22.7 6-30.1-3.3-.4-.6-.9-1.1-1.2-1.7-10.6-13.9-21.1-27.9-31.6-41.9-1.8-2.4-3.2-6.2-7.1-4.8-3.8 1.2-6.3 4.9-6.1 8.9 0 8.8.1 17.5-.1 26.3.7 11-7.6 20.5-18.6 21.2h-1.2c-10.8.2-19.8-8.4-20-19.2v-1.7c-.2-56.7-.2-113.5-.1-170.2-1.4-10.3 5.9-19.8 16.2-21.2 1.3-.2 2.7-.2 4-.1 11.1.1 20 9.2 19.9 20.3 0 .7 0 1.3-.1 2 .1 26.5 0 53.1 0 79.6l2.5 1.2zm-227.2-.1c10.5-10.2 21-20.4 31.7-30.4 5.2-6.3 12.9-10 21.1-10 11.5.3 20.7 9.8 20.4 21.4-.1 3.8-1.2 7.5-3.2 10.7-5.8 8.8-13.1 16.5-21.8 22.6-8.6 6.4-8.2 11.4-1.7 19.2 10.5 12.6 20.2 26 29.6 39.5 8.1 8.9 7.4 22.7-1.5 30.8-.7.6-1.3 1.1-2.1 1.7-9.4 6.8-22.6 4.7-29.4-4.7-.1-.2-.2-.3-.3-.5-10.7-13.9-21.1-28-31.7-41.9-1.7-2.2-2.7-6.8-6.8-4.8-4.2 1.3-7 5.2-6.9 9.5.4 8 .2 16.1.1 24.2 1.2 11-6.8 20.9-17.8 22s-20.9-6.8-22-17.8c-.2-1.4-.2-2.9 0-4.3-.1-56.1-.2-112.2-.1-168.3-1-11.1 7.1-20.8 18.2-21.8s20.8 7.1 21.8 18.2c.1 1.3.1 2.7 0 4 .1 26.6 0 53.1 0 79.7l2.4 1zm151.1 33.7c0 17.9.1 35.7 0 53.6 1.1 11-7 20.8-18 21.9-11 1.1-20.8-7-21.9-18-.1-1.4-.1-2.8 0-4.2-.1-35.7-.2-71.5-.1-107.2-1-11.1 7.2-20.8 18.3-21.8 11.1-1 20.8 7.2 21.8 18.3.1 1.3.1 2.5 0 3.8.1 17.9 0 35.8-.1 53.6z" fill="#85c300"/><path d="M-53.9 439.3c-10.6.1-19.3-8.5-19.4-19.1-.1-10.6 8.5-19.3 19.1-19.4 10.5-.1 19.2 8.4 19.4 18.9-.3 10.5-8.6 19.1-19.1 19.6z" fill="#4dc1ff"/></g></g></svg>