<svg width="640" height="640" xmlns="http://www.w3.org/2000/svg"><g fill="none" fill-rule="evenodd"><g><g><g><path d="M0 0h640v640H0z"/><path d="M357 223.82c12.46 2.655 22.01 7.39 30.17 15.03 10.5 9.915 16.255 21.915 18.785 39.155 1.71 11.24 1.01 15.66-2.975 19.325-3.73 3.41-10.625 3.535-14.8.315-3.035-2.275-3.985-4.675-4.68-11.18-.82-8.655-2.34-14.715-4.935-20.335-5.565-11.935-15.37-18.125-31.94-20.145-7.78-.95-10.12-1.83-12.65-4.8-4.62-5.495-2.845-14.4 3.54-17.685 2.405-1.2 3.415-1.325 8.73-1.01 3.295.19 8.165.76 10.755 1.33zm-13.47-47.685c38.395 5.62 68.12 23.43 87.605 52.355 10.945 16.295 17.775 35.43 20.115 55.955.82 7.515.82 21.22-.065 23.495-.825 2.145-3.48 5.05-5.755 6.25-2.465 1.265-7.715 1.135-10.625-.38-4.87-2.465-6.325-6.38-6.325-16.99 0-16.355-4.24-33.6-11.575-46.99-8.35-15.285-20.495-27.915-35.295-36.695-12.715-7.58-31.5-13.2-48.64-14.59-6.2-.505-9.615-1.77-11.955-4.485-3.605-4.105-3.985-9.665-.95-14.275 3.285-5.1 8.345-5.925 23.465-3.65zM194.57 137.17c2.215.76 5.63 2.525 7.59 3.79 12.015 7.96 45.475 50.715 56.42 72.06 6.26 12.19 8.35 21.22 6.39 27.915-2.025 7.2-5.375 10.99-20.37 23.05-6.01 4.86-11.64 9.85-12.525 11.18-2.275 3.285-4.11 9.725-4.11 14.275.065 10.545 6.895 29.685 15.875 44.4 6.955 11.43 19.415 26.08 31.75 37.325 14.485 13.265 27.26 22.295 41.685 29.43 18.535 9.22 29.855 11.555 38.14 7.705 2.085-.95 4.3-2.21 4.995-2.78.63-.57 5.505-6.505 10.815-13.075 10.245-12.885 12.585-14.97 19.61-17.37 8.92-3.03 18.025-2.21 27.2 2.465 6.96 3.6 22.14 13.01 31.94 19.83 12.905 9.03 40.48 31.515 44.215 36 6.575 8.085 7.715 18.44 3.29 29.875-4.68 12.06-22.895 34.67-35.61 44.335-11.51 8.715-19.67 12.06-30.425 12.565-8.855.44-12.525-.315-23.845-4.99-88.8-36.565-159.705-91.13-216-166.1-29.41-39.155-51.805-79.765-67.11-121.89-8.92-24.565-9.36-35.24-2.025-47.81 3.165-5.305 16.635-18.44 26.44-25.765 16.32-12.125 23.845-16.61 29.855-17.875 4.11-.885 11.26-.19 15.81 1.455zm144.595-6.82c21.76 2.715 39.34 7.955 58.635 17.37 18.975 9.285 31.12 18.065 47.185 34.04 15.055 15.095 23.405 26.525 32.26 44.27 12.335 24.755 19.355 54.19 20.555 86.585.445 11.05.125 13.515-2.405 16.675-4.805 6.125-15.37 5.115-18.975-1.77-1.14-2.275-1.455-4.23-1.835-13.075-.635-13.58-1.58-22.355-3.48-32.84-7.465-41.115-27.2-73.955-58.7-97.515-26.25-19.705-53.385-29.305-88.93-31.39-12.02-.695-14.105-1.135-16.825-3.22-5.06-3.98-5.315-13.325-.445-17.685 2.975-2.715 5.06-3.095 15.37-2.78 5.385.195 13.29.83 17.59 1.335zM320 0c176.73 0 320 143.27 320 320S496.73 640 320 640 0 496.73 0 320 143.27 0 320 0z" fill="#7F4DA0"/></g></g></g></g></svg>