<svg xmlns="http://www.w3.org/2000/svg" width="640" height="636.6" viewBox="-601 78.6 640 636.6"><g><g><linearGradient id="a" gradientUnits="userSpaceOnUse" x1="-280.95" y1="79.05" x2="-280.95" y2="717.37" gradientTransform="matrix(1 0 0 -1 0 796)"><stop offset="0" stop-color="#2bb826"/><stop offset="1" stop-color="#61fd7d"/></linearGradient><path d="M-281.8 78.6C-458.2 78.6-601 221.4-601 397.8c0 60.5 16.8 119.3 48.7 169.7l8.4 11.8-31.9 117.6 120.9-31.9 11.8 6.7c48.7 28.6 105.8 43.7 162.9 43.7C-103.7 715.3 39 572.5 39 396.1 39 310.4 5.5 231.5-55 171c-60.5-58.8-141.1-92.4-226.8-92.4z" fill="url(#a)"/></g><path d="M-107.1 478.4c-10.1-5-57.1-28.6-65.5-31.9-8.4-3.4-15.1-5-21.8 5-6.7 10.1-25.2 31.9-30.2 37-5 6.7-11.8 6.7-20.2 1.7-10.1-5-40.3-15.1-77.3-47-28.6-25.2-47-57.1-53.8-67.2-5-10.1 0-15.1 5-20.2 5-5 10.1-11.8 15.1-16.8s6.7-10.1 10.1-16.8c3.4-6.7 1.7-11.8 0-16.8s-21.8-52.1-30.2-70.6S-391 218-397.7 218h-18.5c-6.7 0-16.8 1.7-25.2 11.8-8.4 10.1-33.6 33.6-33.6 80.6s33.6 92.4 38.6 99.1c5 6.7 67.2 102.5 164.6 144.5 23.5 10.1 40.3 15.1 55.4 20.2 23.5 6.7 43.7 6.7 60.5 3.4 18.5-3.4 57.1-23.5 65.5-45.4 8.4-21.8 8.4-42 5-45.4-4.9-1.7-11.6-3.3-21.7-8.4z" fill="#fff"/></g></svg>