<svg xmlns="http://www.w3.org/2000/svg" width="640" height="768.5" viewBox="-499.2 12.5 640 768.5"><g><path d="M-179.205 731.023c38.7-35.2 62.7-85.6 62.7-142.2 0-56-23.9-107-62.7-141.7-33.6-30.6-79-49.4-128.4-49.4-106 0-191.6 85.6-191.6 191.6s85.6 191.6 191.6 191.6c49.4-.5 94.8-19.3 128.4-49.9" fill="#2f67b2"/><path d="M-179.205 731.023c38.7-35.2 62.7-85.6 62.7-142.2 0-56-23.9-107-62.7-141.7" fill="#2f67b2"/><path d="M-179.205 731.023c38.7-35.2 62.7-85.6 62.7-142.2 0-56-23.9-107-62.7-141.7" fill="none" stroke="#2f67b2" stroke-width=".31"/><path d="M-50.305 397.323c-49.4 0-94.8 18.9-128.9 49.4-6.6 6.1-13.2 13.2-19.4 20.4h38.7c5.6 6.6 10.2 13.2 14.3 20.4h-67.8c-4.1 6.6-7.6 13.2-11.2 20.4h90.2c3.1 6.6 5.6 13.2 8.2 20.4h-106c-2 6.6-4.1 13.2-5.6 20.4h117.2c3.1 13.2 4.1 26.5 4.1 40.8 0 21.4-3.6 41.8-10.2 60.6h-106c2 7.1 5.1 13.8 8.2 20.4h90.2c-3.6 7.1-6.6 13.8-11.2 20.4h-67.8c4.1 7.1 9.2 13.8 14.3 20.4h38.7c-6.1 7.1-12.7 13.8-19.4 20.4 33.6 30.6 79 49.4 128.9 49.4 105.5 0 191.1-85.6 191.1-191.6.5-106.1-85.1-192.2-190.6-192.2" fill="#cb2026"/><path d="M120.395 695.323h1.5c.5 0 .5-.5.5-.5l-.5-.5h-1.5v1zm0 3.1h-1v-5.6h2c.5 0 1 0 1.5.5s.5 1 .5 1.5-.5 1-1 1.5l1 2.5h-1.5l-.5-2h-1v1.6zm1 2c2.5 0 5.1-2 5.1-4.6 0-2.5-2-4.6-5.1-4.6-2.5 0-4.6 2-4.6 4.6 0 2.6 2.1 4.6 4.6 4.6zm-6.1-5.1c0-3.6 3.1-6.1 6.1-6.1 3.6 0 6.1 2.5 6.1 6.1 0 3.6-3.1 6.1-6.1 6.1-3.6.6-6.1-2.5-6.1-6.1m-453-53h-23.9l14.3-74.9-32.6 74.4h-19.9l-4.1-74.4-15.8 74.4h-21.9l18.3-96.8h37.7l.5 60.1 26-60.1h40.3l-18.9 97.3m266.5-1c-6.6 2-11.7 2.5-17.3 2.5-12.2 0-18.9-6.1-18.9-17.3 0-2 0-4.6.5-7.1l1.5-7.6 1-6.1 11.2-60.1h23.4l-3.4 18.3h12.2l-3.6 19.4h-12.2l-6.1 33.1c-.5 1.5-.5 2.5-.5 3.1 0 4.1 2 6.1 8.2 6.1 3.1 0 4.6 0 6.6-.5l-2.6 16.2m-94.8-53c0 10.2 5.6 16.8 18.3 21.9 9.7 4.1 11.2 5.1 11.2 8.7 0 5.1-4.1 7.1-13.8 7.1-7.1 0-13.8-1-21.4-3.1l-3.1 18.3h1l4.6 1c1.5 0 3.6.5 6.1.5 5.6.5 10.2.5 13.2.5 25.5 0 37.2-8.2 37.2-26.5 0-10.7-5.1-17.3-16.8-21.9-10.2-4.1-11.2-5.1-11.2-8.7 0-4.1 4.1-6.6 11.7-6.6 4.6 0 11.2.5 17.3 1l3.6-18.3c-6.1-1-15.8-1.5-20.9-1.5-27.8.6-37 12.9-37 27.6m-110.5 18.9c-2.5-.5-3.6-.5-5.6-.5-13.2 0-20.4 4.1-20.4 12.2 0 5.1 3.6 8.2 8.7 8.2 9.6-.6 16.8-8.7 17.3-19.9zm16.3 35.1h-19.9l.5-8.2c-6.1 6.6-14.3 9.7-25 9.7-13.2 0-21.9-8.7-21.9-21.4 0-19.4 15.3-30.6 41.8-30.6 3.1 0 6.1 0 9.7.5 1-2.5 1-3.6 1-5.1 0-5.1-4.1-7.1-15.3-7.1-6.6 0-14.3 1-19.9 2l-3.1 1-2 .5 3.6-17.8c11.7-3.1 19.9-4.1 28.5-4.1 20.4 0 31.1 8.2 31.1 22.9 0 4.1-.5 6.6-2 15.8l-5.1 28-1 5.1-.5 4.1-.5 2.5v2.2m66.7-48.9c0-1.5.5-3.1.5-4.1 0-6.6-4.1-10.2-11.2-10.2-7.6 0-13.2 5.1-15.3 14.3h26zm11.2 46.9c-8.2 2-16.3 3.1-24.5 3.1-27 0-40.3-12.2-40.3-35.2 0-27 17.8-46.9 41.8-46.9 19.9 0 32.1 11.2 32.1 28.5 0 5.6-1 11.7-3.1 19.4h-47.4c-.5 1-.5 1.5-.5 2.5 0 9.2 7.1 13.8 20.9 13.8 8.7 0 16.3-1.5 25-5.1l-4 19.9m230.3-43.3c0-8.2-3.6-16.3-13.2-16.3-12.2 0-19.9 14.3-19.9 27 0 10.7 5.1 17.8 13.8 17.8 5.1 0 16.3-7.1 18.3-19.4.5-2.5 1-5.5 1-9.1zm24 9.2c-3.6 26.5-21.9 37.7-46.4 37.7-27 0-37.7-16.3-37.7-36.2 0-28 18.3-46.9 46.9-46.9 25 0 37.7 15.8 37.7 35.7 0 5.1 0 5.1-.5 9.7" fill="#231f20"/><path d="M80.095 630.123h1.5l.5-.5s0-.5-.5-.5h-1.5v1zm0 3.1h-1v-5.6h2c.5 0 1 0 1.5.5s.5 1 .5 1.5-.5 1-1 1.5l1 2.5h-1.5l-1-2h-1v1.5h.5zm1.1 2c2.5 0 4.6-2 4.6-4.6 0-2.5-2-4.6-4.6-4.6-2.5 0-4.6 2-4.6 4.6-.5 2.6 2 4.6 4.6 4.6zm-6.7-5.1c0-3.6 3.1-6.1 6.1-6.1 3.6 0 6.1 2.5 6.1 6.1 0 3.6-3.1 6.1-6.1 6.1-3 .5-6.1-2.5-6.1-6.1m-406.1 6.6h-23.9l14.3-74.4-32.6 74.4h-21.5l-4.1-74.4-14.3 74.4h-21.3l18.3-96.8h37.2l1.5 60.1 26.5-60.1h38.7l-18.8 96.8m266-1c-6.6 2-11.7 2.5-17.3 2.5-12.2 0-18.9-6.1-18.9-17.3 0-2 .5-4.6.5-7.1l1.5-7.6 1-6.1 11.2-60.1h23.4l-3.6 18.3h12.2l-3.6 19.4h-12l-6.1 33.1c-.5 1.5-.5 2.5-.5 3.1 0 4.1 2.5 5.6 8.2 5.6 2.5 0 4.6 0 6.1-.5l-2.1 16.7" fill="#fff"/><path d="M-3.905 580.223l-.5-2.5 5.1-12.2h-1.5c-1.5-.5-2-.5-2-.5h-2c-8.2 0-13.2 3.6-20.9 12.7l2.5-14.3h-25l-14.3 79h23.4c3.1-17.8 4.6-28.5 6.6-37.2 3.1-14.3 13.8-20.9 21.4-19.4 1 0 1.5 0 2.5.5l1.5.5 3.2-6.6" fill="#231f20"/><path d="M4.195 558.323c-2-1-2-1-2.5-1-1-.5-2-.5-2-.5h-2.5c-7.6 0-13.2 3.6-20.9 12.7l2-12.2h-21.5l-14.3 79h23.9c8.7-48.4 12.2-56.6 23.4-56.6h3.1l3.1.5 8.2-21.9m-164 24.4c0 10.2 5.6 16.8 18.3 21.9 9.7 4.1 11.2 5.1 11.2 8.7 0 5.1-4.1 7.1-13.8 7.1-7.6 0-13.8-1-21.4-3.1l-3.6 18.3h1l4.1 1c1.5.5 3.6.5 6.6.5 5.6.5 10.2.5 13.2.5 25.5 0 37.2-8.2 37.2-26.5 0-10.7-4.6-17.3-17.3-21.9-10.2-4.1-11.2-5.1-11.2-8.7 0-4.1 4.1-6.6 11.7-6.6 4.6 0 11.2.5 17.3 1l3.6-18.3c-6.1-1-15.8-1.5-21.4-1.5-26.4.6-35.5 12.9-35.5 27.6m-111.6 18.9c-2.5-.5-3.6-.5-5.6-.5-13.2 0-20.4 4.1-20.4 12.2 0 5.1 3.1 8.2 8.7 8.2 9.6-.6 16.8-8.7 17.3-19.9zm17.3 35.1h-19.9l.5-8.2c-6.1 6.6-14.3 9.7-25 9.7-12.7 0-21.4-8.7-21.4-21.4 0-19.4 15.3-30.6 41.8-30.6 2.5 0 6.1 0 9.7.5.5-2.5 1-3.6 1-5.1 0-5.1-4.1-7.1-15.3-7.1-6.6 0-14.8 1-19.9 2l-3.6 1-2 .5 3.1-17.8c11.7-3.1 19.9-4.1 28.5-4.1 20.4 0 31.1 8.2 31.1 22.9 0 4.1-.5 6.6-1.5 15.8l-5.1 28-1 5.1-.5 4.1-.5 2.5v2.2m65.7-48.9v-4.1c0-6.6-4.1-10.2-11.2-10.2-7.6 0-13.2 5.1-15.3 14.3h26.5zm12.2 46.9c-8.2 2-15.8 3.1-24.5 3.1-27 0-40.8-12.2-40.8-35.2 0-27 17.8-46.9 41.8-46.9 19.9 0 32.1 11.2 32.1 28.5 0 5.6-1 11.7-3.1 19.4h-47.4c-.5 1-.5 1.5-.5 2.5 0 9.2 7.1 13.8 20.9 13.8 8.7 0 16.3-1.5 25-5.1l-3.5 19.9m229.8-43.8c0-8.2-3.6-16.3-13.2-16.3-12.2 0-19.9 14.3-19.9 27 0 10.7 5.1 17.8 13.8 17.8 5.1 0 16.3-7.1 18.3-19.4.5-3 1-6.1 1-9.1zm25 9.7c-3.6 26.5-21.9 37.7-46.4 37.7-27 0-37.7-16.3-37.7-36.2 0-28 18.3-46.9 46.9-46.9 25 0 37.7 15.8 37.7 35.7 0 5.1 0 5.1-.5 9.7" fill="#fff"/></g><g><g><path d="M140.8 204c0 105.5-85.6 191.6-191.6 191.6S-242.4 310-242.4 204-156.8 12.4-50.8 12.4 140.8 98.1 140.8 204z" fill="#f8991d"/><path d="M-309.1 12.5c-105 .5-190.1 86.1-190.1 191.5s85.6 191.6 191.6 191.6c49.4 0 94.8-18.9 128.9-49.9 7.1-6.1 13.2-13.2 19.4-20.4h-39.2c-5.1-6.1-10.2-12.7-14.3-19.9h67.8c4.1-6.6 7.6-13.2 11.2-20.4H-224c-3.1-6.6-5.6-13.2-8.2-19.9h106c6.6-18.9 9.7-39.2 9.7-60.6 0-14.3-1.5-28-4.6-40.8h-117.2c1.5-6.6 3.1-13.8 5.6-19.9h106c-2.5-7.1-5.1-13.8-8.2-20.4H-224c3.1-7.1 7.1-13.8 11.2-19.9h67.8c-4.6-7.1-9.7-13.8-14.8-20.4h-37.7c5.6-6.6 12.2-13.2 19.4-19.4-34.6-32.6-80-51.5-129.4-51.5-.6.3-1.1.3-1.6.3z" fill="#cb2026"/><path d="M121.4 303.9c1 0 2 .5 3.1 1 1 .5 1.5 1.5 2.5 2.5.5 1 1 2 1 3.1 0 1-.5 2-1 3.1-.5 1-1.5 1.5-2.5 2.5-1 .5-2 1-3.1 1-1 0-2-.5-3.1-1-1-.5-1.5-1.5-2.5-2.5-.5-1-1-2-1-3.1s.5-2 1-3.1c.5-1 1.5-1.5 2.5-2.5 1.1-.5 2.1-1 3.1-1m0 1c-1 0-1.5 0-2.5.5s-1.5 1-2 2-.5 1.5-.5 2.5 0 1.5.5 2.5 1 1.5 2 2 1.5.5 2.5.5 1.5 0 2.5-.5 1.5-1 2-2 .5-1.5.5-2.5 0-1.5-.5-2.5-1-1.5-2-2c-.4 0-1.4-.5-2.5-.5m-2.5 8.7V307h4c.5 0 .5.5 1 .5 0 .5.5.5.5 1s0 1-.5 1c-.5.5-1 .5-1.5.5 0 0 .5 0 .5.5.5.5.5.5 1 1.5l1 1.5h-1.5l-.5-1c-.5-1-1-1.5-1-1.5h-1.5v3.1l-1.5-.5m1-3.6h1.5c.5 0 1 0 1-.5l.5-.5v-.5l-.5-.5h-2l-.5 2" fill="#fcb341"/></g><g><g><path d="M-244.144 259.094l2.5-17.3c-1.5 0-3.6.5-5.1.5-7.1 0-8.2-3.6-7.6-6.6l7.1-34.6h10.7l2-19.9h-10.2l2-11.7h-20.9c-.5.5-12.2 67.3-12.2 74.9 0 12.2 6.6 17.3 16.3 17.3 7.8-.1 13.4-2.1 15.4-2.6zm6.6-33.2c0 29 18.9 35.7 35.2 35.7 14.8 0 22.9-3.6 22.9-3.6l3.6-19.9s-12.7 5.1-22.9 5.1c-21.9 0-17.8-16.3-17.8-16.3h42.3s2.5-13.2 2.5-18.3c0-13.2-7.1-30.1-29.6-30.1-21.4 0-36.2 22.5-36.2 47.4zm35.7-29c11.7 0 9.2 12.7 9.2 13.8h-22.4c0-1.1 2-13.8 13.2-13.8zm128.9 62.2l3.6-22.4s-10.2 5.1-16.8 5.1c-14.3 0-20.4-11.2-20.4-22.9 0-23.9 12.2-37.2 26.5-37.2 10.2 0 18.9 5.6 18.9 5.6l3.6-21.4s-9.7-7.1-20.4-7.1c-32.1 0-49.9 21.9-49.9 60.6 0 25.5 13.8 42.8 37.7 42.8 6.5-.6 17.2-3.1 17.2-3.1zm-283.3-80c-13.8 0-24.5 4.6-24.5 4.6l-3 17.3s8.7-3.6 22.4-3.6c7.6 0 13.2 1 13.2 7.1 0 3.6-.5 5.1-.5 5.1s-6.1-.5-8.7-.5c-19.9 0-36.2 7.6-36.2 30.1 0 17.8 12.2 21.9 19.9 21.9 14.3 0 19.9-9.2 20.4-9.2v7.6h17.8l8.2-56c-1-23.4-21.8-24.4-29-24.4zm3.1 45.3c.5 3.6-1 19.9-13.2 19.9-6.1 0-8.2-4.6-8.2-7.6 0-5.6 3.1-12.2 17.8-12.2 4.1-.1 3.1-.1 3.6-.1zm43.8 36.7c4.6 0 31.1 1 31.1-26 0-25.5-24.5-20.4-24.5-30.6 0-5.1 4.1-6.6 11.2-6.6 3.1 0 13.8 1 13.8 1l2.5-17.8s-7.1-1.5-18.9-1.5c-15.3 0-30.6 6.1-30.6 26.5 0 23.4 25.5 20.9 25.5 30.6 0 6.6-7.1 7.1-12.7 7.1-9.7 0-17.8-3.1-18.3-3.1l-2.5 17.8c1 0 6.6 2.6 23.4 2.6zm404.6-98.3l-3.6 27.5s-7.6-10.7-19.9-10.7c-22.4 0-34.1 22.4-34.1 48.4 0 16.8 8.2 33.1 25.5 33.1 12.2 0 18.9-8.7 18.9-8.7l-1 7.1h19.9l15.8-96.8h-21.5zm-8.7 53.5c0 10.7-5.1 25-16.3 25-7.1 0-10.7-6.1-10.7-15.8 0-15.8 7.1-26 16.3-26 7.1-.1 10.7 4.5 10.7 16.8zm-553.3 43.8l12.2-73.4 2 73.4h14.3l26-73.4-11.7 73.4h20.9l16.3-96.8h-33.1l-19.9 59.6-.5-59.1h-30.6l-16.3 96.8h20.4v-.5z" fill="#21205f"/><path d="M-152.444 260.094c6.1-33.6 8.2-60.1 25.5-55 2.5-13.2 8.7-24.5 11.2-30.1 0 0-1-1-6.1-1-9.2 0-21.4 18.3-21.4 18.3l2-11.2h-18.9l-12.7 79h20.4z" fill="#21205f"/><g><path d="M-30.144 179.094c-13.8 0-24.5 4.6-24.5 4.6l-3.1 17.3s8.7-3.6 22.4-3.6c7.6 0 13.2 1 13.2 7.1 0 3.6-.5 5.1-.5 5.1s-6.1-.5-8.7-.5c-19.9 0-36.2 7.6-36.2 30.1 0 17.8 12.2 21.9 19.9 21.9 14.3 0 19.9-9.2 20.4-9.2v7.6h17.8l8.2-56c-.9-23.4-21.7-24.4-28.9-24.4zm3.1 45.3c.5 3.6-1 19.9-13.2 19.9-6.1 0-8.2-4.6-8.2-7.6 0-5.6 3.1-12.2 17.8-12.2 4.1-.1 3.1-.1 3.6-.1z" fill="#21205f"/></g><path d="M18.756 260.094c3.1-25 9.2-59.6 25.5-55 2.5-13.2 0-13.2-5.1-13.2-9.2 0-11.2.5-11.2.5l2-11.2h-18.8l-12.7 79h20.3v-.1z" fill="#21205f"/></g><g><path d="M-238.8 252.5l2.5-17.3c-1.5 0-3.6.5-5.1.5-7.1 0-7.6-3.6-7.6-6.6l5.6-35.2h10.7l2.5-19.4h-10.2l2-11.7h-20.4c-.5.5-12.2 67.3-12.2 74.9 0 12.2 6.6 17.3 16.3 17.3 8.3 0 13.9-2 15.9-2.5zm6.6-32.7c0 29 18.9 35.7 35.2 35.7 14.8 0 21.4-3.6 21.4-3.6l3.6-19.9s-11.2 5.1-21.4 5.1c-21.9 0-17.8-16.3-17.8-16.3h41.3s2.5-13.2 2.5-18.3c0-13.2-6.6-29.6-29-29.6-21-.4-35.8 22-35.8 46.9zm35.7-29c11.7 0 9.2 12.7 9.2 13.8h-22.4c-.1-1.1 2-13.8 13.2-13.8zm128.9 61.7L-64 230s-10.2 5.1-16.8 5.1c-14.3 0-20.4-11.2-20.4-22.9 0-23.9 12.2-37.2 26.5-37.2 10.2 0 18.9 5.6 18.9 5.6l3.6-21.4s-12.2-5.1-22.9-5.1c-23.4 0-46.4 20.4-46.4 58.6 0 25.5 12.2 42.3 36.7 42.3 6.5.5 17.2-2.5 17.2-2.5zM-350.9 173c-13.8 0-24.5 4.6-24.5 4.6l-3.1 17.3s8.7-3.6 22.4-3.6c7.6 0 13.2 1 13.2 7.1 0 3.6-.5 5.1-.5 5.1s-6.1-.5-8.7-.5c-17.8 0-36.2 7.6-36.2 30.1 0 17.8 12.2 21.9 19.9 21.9 14.3 0 20.4-9.2 20.9-9.2l-.5 7.6h16.8l8.2-56c.1-23.9-20.8-24.4-27.9-24.4zm4.1 45.8c.5 3.6-2 19.4-14.3 19.4-6.1 0-8.2-4.6-8.2-7.6 0-5.6 3.1-12.2 17.8-12.2 4.2-.1 4.2-.1 4.7.4zM-304 255c4.6 0 31.1 1 31.1-26 0-25.5-24.5-20.4-24.5-30.6 0-5.1 4.1-6.6 11.2-6.6 3.1 0 13.8 1 13.8 1l2.5-17.8s-7.1-1.5-18.9-1.5c-15.3 0-30.6 6.1-30.6 26.5 0 23.4 25.5 20.9 25.5 30.6 0 6.6-7.1 7.1-12.7 7.1-9.7 0-17.8-3.1-18.3-3.1l-2.5 17.8c1 .1 6.6 2.6 23.4 2.6zm405.6-98.3L97 184.2s-7.6-10.7-19.9-10.7c-18.9 0-34.1 22.4-34.1 48.4 0 16.8 8.2 33.1 25.5 33.1 12.2 0 18.9-8.7 18.9-8.7l-1 7.1h19.9l15.8-96.8h-20.5zm-9.7 53.5c0 10.7-5.1 25-16.3 25-7.1 0-10.7-6.1-10.7-15.8 0-15.8 7.1-26 16.3-26 7.1-.6 10.7 4.5 10.7 16.8zm-553.4 43.3l12.7-72.9 2 73.4h13.8l26-73.4-11.7 73.4h20.9l16.3-96.8h-32.1l-20.4 59.1-1-59.6h-29.6l-16.3 96.8h19.4zm314.4.5c6.1-33.6 7.1-61.1 21.4-56 2.5-13.2 5.1-18.3 7.6-23.4 0 0-1-.5-4.1-.5-9.2 0-15.8 12.2-15.8 12.2l2-11.2h-18.9l-13.2 79h21z" fill="#fff"/><g><path d="M-20.194 173c-13.8 0-24.5 4.6-24.5 4.6l-3.1 17.3s8.7-3.6 22.4-3.6c7.6 0 13.2 1 13.2 7.1 0 3.6-.5 5.1-.5 5.1s-6.1-.5-8.7-.5c-17.8 0-36.2 7.6-36.2 30.1 0 17.8 12.2 21.9 19.9 21.9 14.3 0 20.4-9.2 20.9-9.2l-.5 7.6h17.8l8.2-56c-.9-23.9-21.8-24.4-28.9-24.4zm4.1 45.8c.5 3.6-2 19.4-14.3 19.4-6.1 0-8.2-4.6-8.2-7.6 0-5.6 3.1-12.2 17.8-12.2 3.7-.1 4.2-.1 4.7.4z" fill="#fff"/></g><g><path d="M24.086 254c6.1-33.6 7.1-61.1 21.4-56 2.5-13.2 5.1-18.3 7.6-23.4 0 0-1-.5-4.1-.5-9.2 0-15.8 12.2-15.8 12.2l2-11.2h-18.9l-12.7 79h20.5z" fill="#fff"/></g><path d="M121.4 241.8c1 0 2 .5 3.1 1 1 .5 1.5 1.5 2.5 2 .5 1 1 2 1 3.1 0 1-.5 2-1 3.1-.5 1-1.5 1.5-2 2.5-1 .5-2 1-3.1 1-1 0-2-.5-3.1-1-1-.5-1.5-1.5-2-2.5s-1-2-1-3.1c0-1 .5-2 1-3.1.5-1 1.5-1.5 2.5-2 .1-1 1.1-1 2.1-1m0 1c-1 0-1.5 0-2.5.5s-1.5 1-2 2-.5 1.5-.5 2.5 0 1.5.5 2.5 1 1.5 2 2 1.5.5 2.5.5 1.5 0 2.5-.5 1.5-1 2-2 .5-1.5.5-2.5 0-1.5-.5-2.5-1-1.5-2-2c-.9-.5-1.4-.5-2.5-.5m-2.5 8.6v-6.6h4c.5 0 .5.5 1 .5 0 .5.5.5.5 1s0 1-.5 1c-.5.5-1 .5-1.5.5 0 0 .5 0 .5.5.5.5.5.5 1 1.5l1 1.5h-1.5l-.5-1c-.5-1-1-1.5-1-1.5h-1.5v3.1l-1.5-.5m1-4h1.5c.5 0 1 0 1-.5l.5-.5v-.5l-.5-.5h-2l-.5 2" fill="#fff"/></g></g></g></svg>