<svg xmlns="http://www.w3.org/2000/svg" width="640" height="605.3" viewBox="-26.4 -14.7 640 605.3"><g fill="#575757"><path d="M576 109.6L434.8 47.5 293.6-14.7 152.4 47.5 11.2 109.6h-.1v72.2H576zM66.7 446.2c-8.4 0-15.2 6.8-15.2 15.2s6.8 15.2 15.2 15.2h89.6c8.4 0 15.2-6.8 15.2-15.2s-6.8-15.2-15.2-15.2h-5.1V229.5h5.1c8.4 0 15.2-6.8 15.2-15.2s-6.8-15.2-15.2-15.2H66.7c-8.4 0-15.2 6.8-15.2 15.2s6.8 15.2 15.2 15.2h5.1v216.7h-5.1zm182.1 0c-8.4 0-15.2 6.8-15.2 15.2s6.8 15.2 15.2 15.2h89.6c8.4 0 15.2-6.8 15.2-15.2s-6.8-15.2-15.2-15.2h-5.1V229.5h5.1c8.4 0 15.2-6.8 15.2-15.2s-6.8-15.2-15.2-15.2h-89.6c-8.4 0-15.2 6.8-15.2 15.2s6.8 15.2 15.2 15.2h5.1v216.7h-5.1zm184.9 0c-8.4 0-15.2 6.8-15.2 15.2s6.8 15.2 15.2 15.2h89.6c8.4 0 15.2-6.8 15.2-15.2s-6.8-15.2-15.2-15.2h-5.1V229.5h5.1c8.4 0 15.2-6.8 15.2-15.2s-6.8-15.2-15.2-15.2h-89.6c-8.4 0-15.2 6.8-15.2 15.2s6.8 15.2 15.2 15.2h5.1v216.7h-5.1zM11.1 508.3v8.7c0 8 6.5 14.4 14.4 14.4h536c8 0 14.4-6.5 14.4-14.4v-8.7c0-8-6.5-14.4-14.4-14.4h-536c-7.9 0-14.4 6.4-14.4 14.4zm588 40.5H-12c-8 0-14.4 6.5-14.4 14.4v13c0 8 6.5 14.4 14.4 14.4h611.1c8 0 14.4-6.5 14.4-14.4v-13c.1-8-6.4-14.4-14.4-14.4z"/></g></svg>