<svg id="Layer_1" xmlns="http://www.w3.org/2000/svg" width="640" height="385.3" viewBox="-439 203.9 640 385.3"><style>.st2{fill:#002856}</style><g id="Logo"><g><g><path class="st2" d="M-402 239.9v-13.7c11 .9 23.7 1.4 40.2 1.4 3.2-7.8 5-15.5 5.9-23.7 4.6 1.4 12.8 3.2 16 3.7 3.2.5 4.1 1.4 0 4.1-.9.9-2.3 2.7-8.7 15.5 28.3 0 51.1-.5 67.1-1.4v13.7c-17.3-1.4-42.9-1.8-72.6-1.4-5 10.5-12.8 21.9-22.4 33.3v42c0 6.8 0 13.2.9 26.5h-13.7c.5-13.2.9-20.1.9-26.5v-28.8c-5 5-10 9.6-15.1 14.2-4.1-5-7.8-7.8-11-9.1 9.6-5.9 18.3-13.2 26-21.5-.5-5-.9-9.1-1.4-11 4.1.9 7.3.9 10 .9 5-6.4 9.1-13.2 12.8-20.1-13.9.6-24.9 1-34.9 1.9zm113.6 33.3v13.7c-8.2-.9-18.3-1.4-32.9-1.4v37c17.8 0 29.7-.5 40.2-1.4v13.7c-11.4-.9-24.7-1.4-45.2-1.4s-34.2.5-45.2 1.4v-13.7c10 .9 21.5 1.4 38.3 1.4v-37c-13.2.5-22.4.9-30.1 1.8v-14.2c8.2.9 16.9 1.4 30.1 1.4 0-15.1-.5-24.7-1.4-28.3 4.6.9 9.6 1.4 15.1 1.4 2.3 0 2.7.9.5 2.3-1.4.9-1.8 3.7-1.8 5.5v19.2c14.2 0 24.2-.4 32.4-1.4zm41.6-8.2c-5 .9-9.1 2.3-11.9 2.7 0-2.7-1.8-9.1-3.7-11.9 6.4-2.3 20.1-25.1 27.8-50.2 4.6 2.7 10.5 5 13.7 5.5 2.7.5 2.7 2.7.5 3.7-4.6 1.8-7.8 5.9-26.9 40.2l20.1-3.2c5-9.1 6.8-12.8 8.2-18.7 5.9 3.7 9.6 5 13.7 6.4 2.3.5 2.3 2.7-.5 3.7-.9.5-2.3.9-4.6 4.1 7.3 0 11-.5 21-2.3-.5-11.9-.5-25.6-.9-38.8 4.6.9 10.5 1.4 14.6 1.4 2.3 0 3.2 1.4 1.4 3.7-.9.9-2.3 5-2.7 7.8-.5 6.4-.5 17.3-.9 24.2 16.4-3.7 33.3-7.8 42-10l2.3 11.4c-9.6 1.4-27.4 4.6-43.8 8.2.5 5.9.9 11.4 1.8 16.9 17.3-3.7 35.1-7.8 44.3-10l2.3 11.4c-9.6 1.4-27.8 5-45.2 8.2 1.8 8.7 4.1 16.4 7.3 22.8 6.8-6.4 14.2-15.1 17.8-21.5 4.6 3.7 10.5 7.3 11.9 7.8 1.8.9 1.8 2.7 0 2.7-2.3 0-9.1 5.9-15.1 12.8-1.8 2.3-5 5-8.7 8.7 4.1 5.5 8.7 9.6 14.2 13.2 5 3.7 6.4 3.2 8.2-13.7 3.7 5.5 9.1 8.2 13.2 8.7-7.3 23.3-10.5 26-20.5 20.5-11.4-5.9-17.8-11.9-24.2-21.5-9.6 7.8-21.9 16-34.2 21.9-1.8-3.7-5-7.8-9.1-11 11.4-3.2 16.9-5.9 37-21.5-4.1-7.8-7.3-16.9-9.6-27.4-9.6 2.3-14.6 3.2-21.9 5.5l-2.3-11.9c7.8-1.4 12.3-1.8 22.4-3.7-.5-5-1.4-10.5-1.4-16.4-8.7 2.3-12.8 3.2-19.6 5.5l-2.7-11.4c-4.6 5.9-12.3 17.8-28.3 42 10.5-.9 21.5-2.7 29.7-5-.9 3.7-.9 6.4 0 10.5l-27.8 4.6c-10 1.8-13.2 2.3-16 3.7 0-4.1-1.8-10.5-4.1-13.7 6.8-2.7 12.3-7.3 25.1-28.3l-13.9 1.7zm37.4 55.3c-27.8 5.9-38.3 9.6-47 14.2-.9-5-1.4-8.2-4.6-15.1 8.7 0 21-2.3 51.1-10.5-.9 3.1-.4 8.2.5 11.4zm53-86.8c-2.7-4.6-5.9-10-10.5-15.5l11.9-5.9c4.1 5.9 7.8 11 10.5 14.6l-11.9 6.8zm65.7 41.1v-12.8c9.6.5 27.8.9 41.5.9v-21c-25.1 0-41.1.5-55.7 1.4v-13.2c14.2.9 31 1.4 55.7 1.4 0-12.3-.5-20.5-1.4-23.3 5.9 1.4 10.5 1.4 15.5.9 3.2-.5 3.7 1.4.9 3.2-1.8.9-2.3 2.3-2.3 5v14.2c25.6 0 42.5-.5 57.1-1.4v13.2c-14.6-.9-31.5-1.4-57.1-1.4v21c13.2 0 29.7-.9 38.8-1.4-8.7 24.2-21 38.3-35.1 50.7 14.2 7.8 33.8 11.9 55.2 11.4-3.2 5-5.9 11.9-6.8 17.3-21-3.7-41.1-10.5-58.4-21.5-13.7 8.7-37.9 19.2-57.5 24.2-2.3-4.6-6.4-10-10.5-14.6 21-.9 44.3-9.6 58-16.9-10-9.1-20.1-22.8-26-37.9-3.7.2-7.8.2-11.9.6zm47.9 30.1c12.3-10 21.9-21.5 26-32H-66c5.9 12.4 13.6 23.4 23.2 32zm89-19.1c-1.8-3.7-5-7.3-9.1-9.6 7.3-9.1 16.4-24.7 21.9-37 4.6-10 8.7-23.3 11-31 5 2.7 10 4.1 13.2 5 3.2.5 3.7 1.8.5 4.6-.9.5-5.9 8.7-10 16.9V344H59.9c.9-8.7 1.8-21.5 1.8-32.4v-53.4c-6.8 12.8-10.4 19.2-15.5 27.4zm107.3 41.5c0 12.3-2.3 14.2-26.9 16.9-.5-3.7-2.7-10.5-6.4-16 16.4 1.8 21-.9 21-6.4v-68.5c-27.8 0-44.7.5-54.8 1.4v-14.6c9.1.9 26.9 1.4 54.8 1.4 0-12.3-.9-28.3-1.4-33.3 5 .9 11 1.4 13.2 1.4 3.2 0 3.7.9 2.3 2.7-.9.9-1.4 8.2-1.4 11.4v17.8c9.1 0 15.5-.5 22.4-1.4V255c-6.4-.9-12.8-1.4-22.4-1.4v73.5h-.4zm-43.3-25.6c-3.2-11-9.1-22.4-14.2-29.2l13.2-5.9c4.6 8.7 10.5 20.5 14.2 28.8l-13.2 6.3z"/></g><g><path class="st2" d="M-402.5 433c-4.1 0-7.8-.9-11-3.2-3.2-1.8-5.5-4.6-7.3-8.2-1.8-3.7-2.7-7.8-2.7-12.3 0-3.7 0-8.2 1.4-13.2.9-5.5 2.7-10 5-14.2 2.3-4.1 5.5-7.8 8.7-10 4.6-3.7 10-5 16-5 6.4 0 11.4 2.3 15.1 6.4 3.7 4.1 5.5 10 5.9 17.3 0 3.2 0 7.3-.9 11.9-.9 5-2.3 9.1-4.1 13.2-1.8 4.1-4.6 7.8-7.3 10.5-5.5 4.5-11.5 6.8-18.8 6.8zm22.8-41.1c0-5.9-.9-10.5-3.2-13.7-2.3-3.2-5.5-5-10-5-4.1 0-7.8.9-10.5 3.2-3.2 2.3-5.9 5.5-7.8 10s-3.2 10-3.7 16.9v2.7c0 5.9.9 10.5 3.2 13.7 2.3 3.2 5.5 5 10 5 5.5 0 10.5-1.8 14.2-5.9 3.7-4.1 5.9-10 7.3-17.8.1-3.1.5-6.3.5-9.1zm29.7-8.2l-1.4 5.9c4.6-4.6 9.1-7.3 14.6-6.8 4.6 0 7.8 1.8 10 4.6 2.3 2.7 3.2 7.3 2.3 12.8l-5.5 31.5h-8.2l5.5-31.5v-4.1c-.5-4.1-2.7-6.4-7.3-6.4-5 0-9.1 2.3-12.8 7.8l-5.9 34.2h-8.2l8.2-48.4 8.7.4zm42 48.4h-8.2l11.9-68.5h8.2l-11.9 68.5zm21.9 0h-8.2l8.2-48.4h8.2l-8.2 48.4zm6.4-66.2c1.4 0 2.3.5 3.2 1.4.9.9 1.4 1.8 1.4 3.7 0 1.4-.5 2.7-1.4 3.7-.9.9-1.8 1.4-3.2 1.4-1.4 0-2.7-.5-3.7-1.4-.9-.9-1.4-1.8-1.4-3.2 0-1.4.5-2.7 1.4-3.7 1.4-1 2.3-1.4 3.7-1.9zm22.8 17.8l-1.4 5.9c4.6-4.6 9.1-7.3 14.6-6.8 4.6 0 7.8 1.8 10 4.6 2.3 3.2 3.2 7.3 2.3 12.8l-5.5 31.5h-8.2l5.5-31.5v-4.1c-.5-4.1-2.7-6.4-7.3-6.4-5 0-9.1 2.3-12.8 7.8l-5.5 34.7h-8.2l8.2-48.4 8.3-.1zM-203 433c-5.9 0-10.5-2.3-14.2-6.8-3.2-4.1-5-10-4.1-16.4V408c.5-4.6 1.8-9.1 4.1-13.2s5-6.8 8.7-9.1c3.2-1.8 6.8-2.7 11-2.7 5 0 8.7 1.8 11.9 5 2.7 3.2 4.6 7.3 4.6 12.8v5.9l-.5 3.7H-213c-.5 4.6 0 8.2 2.3 11 1.8 3.2 5 4.6 8.7 4.6 4.6 0 9.1-1.8 13.2-6.4l4.6 4.1c-1.8 2.7-4.6 5-7.8 6.8-3.2 1.6-6.9 2.5-11 2.5zm5.5-43.3c-3.2 0-6.4.9-8.7 3.2-2.3 2.3-4.6 5.9-5.9 10.5h23.3v-.9c.5-3.7 0-6.8-1.8-9.1-1.4-2.4-4.2-3.7-6.9-3.7zm57.5 16.8l-4.6 25.6h-8.2l11.4-65.3h21.5c6.8 0 11.9 1.8 15.5 5.5s5 8.2 4.6 14.2c-.5 6.4-3.2 11-7.3 14.6-4.6 3.7-10 5.5-17.3 5.5H-140zm1.4-6.8h14.6c4.6 0 8.2-1.4 11.4-3.7 2.7-2.3 4.6-5.5 5-9.6.5-3.7-.5-6.8-2.3-9.1-1.8-2.3-5-3.7-8.7-3.7h-15.5l-4.5 26.1zm69.8 32.4c0-.9-.5-1.8-.5-2.7v-2.7c-4.6 4.1-9.1 5.9-14.2 5.9-4.1 0-7.8-1.4-10.5-4.1-2.7-2.7-3.7-5.9-3.7-10 .5-5 2.7-9.1 6.8-11.9 4.1-2.7 9.6-4.1 16.4-4.1h8.2l.5-3.7c.5-2.7-.5-5-1.8-6.8-1.4-1.8-3.7-2.7-6.4-2.7s-5 .5-7.3 1.8c-2.3 1.4-3.7 3.2-4.1 5.5h-8.2c.5-2.7 1.4-5.5 3.2-7.3 1.8-2.3 4.6-3.7 7.3-5 3.2-1.4 6.4-1.8 9.6-1.8 5 0 9.1 1.8 11.9 4.6 2.7 2.7 4.1 6.8 3.7 11.9l-4.1 23.7v3.7c0 1.8 0 3.2.5 5v.9c0-.2-7.3-.2-7.3-.2zm-12.3-6.4c2.7 0 5-.5 7.3-1.8 2.3-1.4 4.1-3.2 5.9-5.5l1.8-10H-72c-5 0-9.1.9-11.9 2.3-2.7 1.8-4.1 3.7-4.6 6.8-.5 2.3.5 4.1 1.4 5.5 1.4 1.8 3.2 2.7 6 2.7zm48.4-5.9l17.3-36.1h9.1l-29.2 56.1c-4.1 7.8-9.1 11.9-15.5 11.4-.9 0-2.7-.5-5-.9l.9-6.8h2.3c2.7 0 4.6-.5 6.8-1.8 1.8-1.4 3.7-3.2 5-5.9l2.7-5.5-8.2-47h8.2l5.6 36.5zm41.1-36.1l-.9 5.5c4.1-4.1 9.1-6.4 14.6-6.4 3.2 0 5.5.9 7.8 2.3s3.7 3.2 4.6 5.5c4.6-5.5 10-7.8 16-7.8 5 0 8.2 1.8 10.5 5 2.3 3.2 3.2 7.3 2.7 12.8l-5.5 31.5H50l5.5-32V396c-.5-4.1-3.2-5.9-7.8-6.4-2.7 0-5.5.9-8.2 2.7-2.3 1.8-4.1 4.6-4.6 7.3l-5.5 32h-8.2l5.5-32c.5-3.2 0-5.9-1.4-7.8-1.4-1.8-3.7-2.7-6.4-2.7-5 0-9.1 2.3-11.9 6.8L1.1 431h-8.2l8.2-48.4 7.3 1.1zM91 433c-5.9 0-10.5-2.3-14.2-6.8-3.2-4.1-5-10-4.1-16.4V408c.5-4.6 1.8-9.1 4.1-13.2s5-6.8 8.7-9.1c3.2-1.8 6.8-2.7 11-2.7 5 0 8.7 1.8 11.9 5 2.7 3.2 4.6 7.3 4.6 12.8v5.9l-.5 3.7H80.9c-.5 4.6 0 8.2 2.3 11 1.8 3.2 5 4.6 8.7 4.6 4.6 0 9.1-1.8 13.2-6.4l4.6 4.1c-1.8 2.7-4.6 5-7.8 6.8-3.2 1.6-6.8 2.5-10.9 2.5zm5.5-43.3c-3.2 0-6.4.9-8.7 3.2-2.3 2.3-4.6 5.9-5.9 10.5h23.3v-.9c.5-3.7 0-6.8-1.8-9.1-1.9-2.4-4.2-3.7-6.9-3.7zm37.4-6l-1.4 5.9c4.6-4.6 9.1-7.3 14.6-6.8 4.6 0 7.8 1.8 10 4.6 2.3 3.2 3.2 7.3 2.3 12.8l-5.5 31.5h-8.2l5.5-31.5v-4.1c-.5-4.1-2.7-6.4-7.3-6.4-5 0-9.1 2.3-12.8 7.8l-5.9 34.2H117l8.2-48.4 8.7.4zm54.3-11.9l-2.3 11.9h8.7l-.9 6.4H185l-5 30.1v2.3c0 2.3 1.4 3.7 3.7 3.7.9 0 2.3 0 4.1-.5l-.5 6.8c-1.8.5-4.1.9-5.9.9-3.2 0-5.5-1.4-7.3-3.7-1.8-2.3-2.3-5.5-1.8-9.1l5-29.7h-8.7l.9-6.4h8.7l2.3-11.9h7.8v-.8z"/></g><path d="M-190.2 589.1H-413c-14.2 0-26-11.9-26-26v-53.4c0-14.2 11.9-26 26-26h222.3c14.2 0 26 11.9 26 26v53.4c.1 14.2-11.4 26-25.5 26z" fill="#cf0a2c"/><path class="st2" d="M-23.6 589.1h-222.3c-14.2 0-26-11.9-26-26v-53.4c0-14.2 11.9-26 26-26h222.3c14.2 0 26 11.9 26 26v53.4c0 14.2-11.8 26-26 26z"/><path d="M175 589.1H-47.3c-14.2 0-26-11.9-26-26v-53.4c0-14.2 11.9-26 26-26H175c14.2 0 26 11.9 26 26v53.4c-.5 14.2-11.9 26-26 26z" fill="#007078"/></g></g></svg>