<?xml version="1.0" encoding="UTF-8"?>
<svg width="32px" height="32px" viewBox="0 0 32 32" version="1.1" xmlns="http://www.w3.org/2000/svg" xmlns:xlink="http://www.w3.org/1999/xlink">
    <!-- Generator: Sketch 48.2 (47327) - http://www.bohemiancoding.com/sketch -->
    <title>cards@2x</title>
    <desc>Created with Sketch.</desc>
    <defs>
        <linearGradient x1="0%" y1="49.9704871%" x2="100.000231%" y2="49.9704871%" id="linearGradient-1">
            <stop stop-color="#1A1E5A" offset="0%"></stop>
            <stop stop-color="#122D98" offset="100%"></stop>
        </linearGradient>
        <linearGradient x1="0.00814783704%" y1="50%" x2="100%" y2="50%" id="linearGradient-2">
            <stop stop-color="#00B4E6" offset="30%"></stop>
            <stop stop-color="#088CCB" offset="100%"></stop>
        </linearGradient>
    </defs>
    <g id="Page-1" stroke="none" stroke-width="1" fill="none" fill-rule="evenodd">
        <g id="Group-57-Copy" transform="translate(0.000000, 1.000000)">
            <g id="Group-12" transform="translate(5.000000, 2.000000)">
                <g id="Group-8" transform="translate(3.000000, 9.000000)" fill-rule="nonzero">
                    <path d="M5.99209658,4.29675325 C5.99209658,2.99444156 6.62049095,1.83500779 7.59879276,1.08461818 C6.87748893,0.531387013 5.96606841,0.2 4.97419718,0.2 C2.63731187,0.2 0.742857143,2.03422338 0.742857143,4.29675325 C0.742857143,6.55932987 2.63731187,8.39355325 4.97419718,8.39355325 C5.96606841,8.39355325 6.87748893,8.06221299 7.59879276,7.50888831 C6.62049095,6.75854545 5.99209658,5.59901818 5.99209658,4.29675325" id="Shape" fill="#ED2026"></path>
                    <path d="M5.99209658,4.29675325 C5.99209658,5.59901818 6.62049095,6.75854545 7.59879276,7.50893506 C8.57719115,6.75854545 9.20558551,5.59901818 9.20558551,4.29675325 C9.20558551,2.99444156 8.57719115,1.83500779 7.59879276,1.08461818 C6.62049095,1.83500779 5.99209658,2.99444156 5.99209658,4.29675325" id="Shape" fill="#F26A21"></path>
                    <path d="M10.2234366,0.200046753 C9.23166197,0.200046753 8.32019316,0.531246753 7.59888934,1.08461818 C8.57719115,1.83500779 9.20558551,2.99448831 9.20558551,4.29675325 C9.20558551,5.59901818 8.57719115,6.75854545 7.59888934,7.50893506 C8.32019316,8.06211948 9.23166197,8.39336623 10.2234366,8.39336623 C12.5603219,8.39336623 14.4548249,6.55932987 14.4548249,4.29675325 C14.4548249,2.03422338 12.5603219,0.200046753 10.2234366,0.200046753" id="Shape" fill="#F99F1D"></path>
                </g>
                <g id="visa-logo" fill="url(#linearGradient-1)" fill-rule="nonzero">
                    <path d="M7.28888889,0.105795918 L4.77333333,6.05681633 L3.13777778,6.05681633 L1.90222222,1.31363265 C1.83111111,1.02269388 1.76,0.916897959 1.53777778,0.793469388 C1.15555556,0.590693878 0.542222222,0.396734694 0,0.282122449 L0.0355555556,0.105795918 L2.67555556,0.105795918 C3.01333333,0.105795918 3.31555556,0.326204082 3.38666667,0.714122449 L4.03555556,4.1524898 L5.66222222,0.105795918 L7.28888889,0.105795918 Z M13.7155556,4.11722449 C13.7244444,2.54791837 11.5288889,2.4597551 11.5377778,1.76326531 C11.5466667,1.55167347 11.7511111,1.32244898 12.1955556,1.26073469 C12.4177778,1.23428571 13.0311111,1.20783673 13.7244444,1.52522449 L14,0.264489796 C13.6266667,0.132244898 13.1466667,0 12.5511111,0 C11.0222222,0 9.93777778,0.811102041 9.92888889,1.96604082 C9.92,2.82122449 10.7022222,3.29730612 11.2888889,3.5882449 C11.8933333,3.87918367 12.0977778,4.06432653 12.0977778,4.32881633 C12.0888889,4.72555102 11.6177778,4.90187755 11.1733333,4.91069388 C10.3911111,4.9195102 9.93777778,4.69910204 9.58222222,4.53159184 L9.29777778,5.83640816 C9.66222222,6.00391837 10.3288889,6.14497959 11.0222222,6.15379592 C12.6488889,6.15379592 13.7066667,5.3515102 13.7155556,4.11722449 L13.7155556,4.11722449 Z M17.7688889,6.05681633 L19.2,6.05681633 L17.9466667,0.105795918 L16.6222222,0.105795918 C16.3288889,0.105795918 16.0711111,0.273306122 15.9644444,0.537795918 L13.6355556,6.048 L15.2622222,6.048 L15.5822222,5.15755102 L17.5733333,5.15755102 L17.7688889,6.05681633 Z M16.0355556,3.94971429 L16.8533333,1.71918367 L17.3244444,3.94971429 L16.0355556,3.94971429 Z M9.50222222,0.105795918 L8.22222222,6.05681633 L6.67555556,6.05681633 L7.95555556,0.105795918 L9.50222222,0.105795918 Z" id="Shape"></path>
                </g>
                <g id="mir-logo" transform="translate(2.000000, 21.000000)">
                    <g id="g5" fill="#4DB45E">
                        <path d="M5.38936959,1.86168412e-16 L5.38936959,0.00262008734 C5.3868974,0.00262008734 4.60815822,1.86168412e-16 4.40049444,0.788646288 C4.21013597,1.51179039 3.6736712,3.50829694 3.65883807,3.56331878 L3.5105068,3.56331878 C3.5105068,3.56331878 2.96168109,1.52227074 2.76885043,0.786026201 C2.56118665,-0.00262008734 1.77997528,1.86168412e-16 1.77997528,1.86168412e-16 L0,-5.73604106e-08 L0,6 L1.77997528,6 L1.77997528,2.43668122 L1.85414091,2.43668122 L1.92830655,2.43668122 L2.96662546,6 L4.20271941,6 L5.24103832,2.43930131 L5.38936959,2.43930131 L5.38936959,6 L7.16934487,6 L7.16934487,-5.73604106e-08 L5.38936959,1.86168412e-16 Z" id="path7"></path>
                    </g>
                    <g id="g9" transform="translate(7.935723, 0.000000)" fill="#4DB45E">
                        <path d="M3.95550062,0 C3.95550062,0 3.43386897,0.0497816594 3.18912237,0.628820961 L1.92830655,3.56331878 L1.77997528,3.56331878 L1.77997528,0 L0,0 L0,6 L1.68108776,6 C1.68108776,6 2.22744129,5.94759825 2.47218789,5.37117904 L3.70828183,2.43668122 L3.8566131,2.43668122 L3.8566131,6 L5.63658838,6 L5.63658838,0 L3.95550062,0 Z" id="path11"></path>
                    </g>
                    <g id="g13" transform="translate(14.363412, 2.724891)" fill="#4DB45E">
                        <path d="M0,0 L0,3.27510917 L1.77997528,3.27510917 L1.77997528,1.36244541 L3.70828183,1.36244541 C4.54882571,1.36244541 5.26081582,0.793886463 5.52533993,0 L0,0 Z" id="path15"></path>
                    </g>
                    <g id="g17" transform="translate(14.091471, 0.000000)" fill="url(#linearGradient-2)">
                        <path d="M3.9802225,0 L0.022249691,0 C0.220024722,1.14235808 1.02843016,2.05938865 2.07416564,2.3580786 C2.31149567,2.42620087 2.56118665,2.4628821 2.81829419,2.4628821 L5.86897404,2.4628821 C5.89616811,2.32663755 5.90852905,2.18777293 5.90852905,2.04366812 C5.90852905,0.91441048 5.04573548,0 3.9802225,0 Z" id="path24"></path>
                    </g>
                </g>
            </g>
            <rect id="Rectangle-2" x="0" y="0" width="32" height="32"></rect>
        </g>
    </g>
</svg>