<svg viewBox="0 0 640 408" xmlns="http://www.w3.org/2000/svg"><path d="M470.409 205.367l-11.442 18.237s-16.092 18.595 3.932 37.905c20.026 19.31 59.003-.358 59.003-.358 35.401-19.667 58.287-59.002 53.638-102.985-5.006-48.989-45.056-88.324-94.404-92.973-45.055-3.933-85.105 20.74-103.7 57.929l-56.499 121.58c-3.933 6.079-7.509 12.158-10.37 18.595-30.395 45.413-81.888 75.808-140.889 75.808-97.264 0-175.576-82.602-168.782-181.296C6.975 75.921 71.699 9.41 152.871 1.542c30.753-2.86 60.074 2.503 85.821 14.305 36.116 17.521 49.705 61.862 29.68 96.548l-1.788 3.218-27.892 47.559-6.794 11.443c-16.092 27.534-45.414 44.699-77.596 44.699h-21.456l66.512-118.005 5.005-8.939c5.364-9.298.358-21.098-10.011-23.959a98.12 98.12 0 0 0-25.032-3.218c-60.075 0-108.349 50.778-104.416 111.568 3.576 53.638 48.275 96.548 101.913 97.622 39.693.714 74.378-20.384 92.973-52.208l58.644-125.156C347.399 36.229 412.122-4.537 485.07 1.185c81.172 6.794 146.969 71.518 154.12 152.69 8.94 100.124-70.087 186.661-168.423 184.874-45.414-.716-59.36-25.39-59.718-26.105l-22.17 43.626c-16.091 31.467-48.275 51.135-83.318 51.135h-18.952l92.973-179.867c11.085-21.097 32.898-34.329 56.499-34.329.715 0 28.965 1.431 34.328 12.158z" fill="#63d8c5"/></svg>