<svg viewBox="0 0 640 640" xmlns="http://www.w3.org/2000/svg"><g data-name="Layer 2"><g data-name="Layer 1"><path d="M252.054 397.93c-19.854 87.412-20.143 161.517-13.888 239.747H39.459c46.278-98.866 109.161-176.313 212.6-239.741zM-.495 25.289c92.426 50.985 170.427 109.23 224.68 205.557-78.622-2.913-149.2-30.754-224.68-1.957zm637.817 556.67c-90.59-52.142-166.68-106.617-221.244-209.972 79.954 24.113 149.366 19.23 221.244 19.509zm-76.874 58.106H336.99c-26.737-69.31-14.121-137.138-.252-224.652 58.34 97.673 131.187 158.473 223.71 224.652zM403.653.042h183.803c-46.083 88.641-102.446 158.24-191.917 205.04C398.997 134.98 418.85 71.91 403.644.042zM206.18 322.702C118.58 378.255 56.306 442.052.903 531.932v-220.06c64.067-6.26 128.176-10.347 205.278 10.83zm431.486-211.737v181.612c-29.435 13.24-125.902 13.24-209.328-2.735 89.886-53.512 151.408-111.562 209.328-178.868zm-334.036 77.47A648.76 648.76 0 0 0 125.887 2.595h189.516c7.443 59.212 8.468 116.372-11.772 185.84z" fill="#ebc90c"/></g></g></svg>