<svg xmlns="http://www.w3.org/2000/svg" width="640" height="218.9" viewBox="-400.6 579.4 640 218.9"><g><g><g><g><g><g><path d="M58.96 631.745c14.331 0 26.246-11.741 26.246-26.246s-11.742-26.246-26.246-26.246-26.247 11.741-26.247 26.246c0 14.677 11.915 26.246 26.247 26.246m-201.164 14.16c-1.21 2.935-9.67 27.11-30.218 52.147V591.167l-55.083 10.879v193.566h55.083v-59.745c15.886 23.829 23.829 59.745 23.829 59.745h65.788c-6.561-27.11-35.053-77.185-35.053-77.185 25.383-32.462 36.78-66.997 38.68-72.868 0 .345-63.026.345-63.026.345zm144.7-1.9c-49.212 1.727-74.25 23.829-74.25 67.515v84.092h53.874v-68.724c0-26.246 3.28-37.47 34.535-38.679v-43.686c-5.526-.863-14.16-.518-14.16-.518m-322.207 23.31c-6.734-.517-22.275-1.38-22.275-15.367 0-16.75 22.275-16.75 30.736-16.75 14.85 0 33.844 4.318 47.485 8.462 0 0 7.77 2.59 14.159 5.525l.69.173v-46.622l-.69-.172c-16.059-5.699-34.88-11.052-69.587-11.052-60.09 0-81.502 35.053-81.502 64.926 0 17.267 7.425 57.845 76.149 62.68 5.698.172 21.411 1.209 21.411 15.886 0 12.087-12.777 18.994-33.844 18.994-23.31 0-45.93-6.044-59.744-11.57v47.831c20.72 5.353 43.686 8.116 71.14 8.116 58.537 0 85.129-33.153 85.129-65.789-.346-37.642-29.873-61.99-79.257-65.27m352.08 128.469h53.356V646.422H32.368v149.363zm153.679-195.12v194.774h53.356V590.994c0 .346-53.356 9.67-53.356 9.67zm-77.876 0l53.356-9.67v204.444h-53.356V600.664z" fill="#862165"/></g></g></g></g></g></g></svg>