<svg id="Layer_1" xmlns="http://www.w3.org/2000/svg" width="640" height="299.2" viewBox="-477.1 248.2 640 299.2"><style>.st2{fill:#fff}</style><g id="Layer_3"><g><linearGradient id="SVGID_1_" gradientUnits="userSpaceOnUse" x1="-157.065" y1="252.698" x2="-157.065" y2="543.607" gradientTransform="matrix(1 0 0 -1 0 796)"><stop offset="0" stop-color="#537b21"/><stop offset="1" stop-color="#73a433"/></linearGradient><path d="M-435.5 543.3c-20.6 0-37.4-16.8-37.4-37.4V289.8c0-20.6 16.8-37.4 37.4-37.4h556.9c20.6 0 37.4 16.8 37.4 37.4v216.1c0 20.6-16.8 37.4-37.4 37.4h-556.9z" fill="url(#SVGID_1_)"/><path d="M121.4 256.5c18.3 0 33.2 14.9 33.2 33.2v216.1c0 18.3-14.9 33.2-33.2 33.2h-556.9c-18.3 0-33.2-14.9-33.2-33.2v-216c0-18.3 14.9-33.2 33.2-33.2h556.9m0-8.4h-556.9c-23 0-41.6 18.6-41.6 41.6v216.1c0 23 18.6 41.6 41.6 41.6h556.9c23 0 41.6-18.6 41.6-41.6V289.8c-.1-23-18.7-41.6-41.6-41.6z" fill="#8dba4a"/></g></g><g id="Layer_1_copy"><g><g><path class="st2" d="M43.5 472.3c-.3 1.5-.6 3.1-.8 4.6-1.2 6.7-2.5 13.5-3.7 20.2l-1.8 9.6c-.1.8-.2.7-.9.8h-224c-1.5 0-1.5 0-1.2-1.5l4.2-22.8c1.2-6.7 2.5-13.4 3.7-20.1.7-3.8 1.4-7.5 2.1-11.3 0-.1 0-.3.1-.4.1-.4 0-.6-.4-.5h-12.4c-.3 0-.5.1-.6.5l-.6 3.3c-1 5.6-2.1 11.1-3.1 16.7l-3.3 17.7c-.9 5-1.8 10-2.8 15-.2.9-.3 1.8-.5 2.6s-.2.8-1 .8h-83.9c-1.4 0-1.2.2-1.6-1.2-2.5-7.3-5-14.5-7.5-21.8-1.6-4.6-3.2-9.2-4.8-13.9-.9-2.7-1.8-5.3-2.8-8-.1-.2-.1-.5-.4-.7-.2.3-.2.7-.3 1.1-.8 4.7-1.7 9.4-2.5 14-1 5.5-1.9 10.9-2.9 16.4-.8 4.4-1.6 8.8-2.4 13.3-.1.8-.2.8-1 .8h-22.5c-.5 0-.6-.1-.5-.6.1-.8.3-1.7.5-2.5 1.5-7.8 2.9-15.7 4.4-23.5 1.4-7.3 2.7-14.6 4-22l4.2-22.8c.1-.4.2-.9.2-1.3.1-.3.2-.5.6-.5h23.8c.8 0 .8 0 1.1.8.6 1.7 1.3 3.5 1.9 5.2 3.7 10.2 7.5 20.5 11.2 30.7.9 2.4 1.7 4.8 2.6 7.1.1.2.1.4.3.5.2-.2.2-.5.2-.7 1.7-9.3 3.4-18.7 5.1-28l2.7-14.7c0-.2.1-.3.1-.5 0-.3.2-.5.6-.5h142.7c1.3 0 1.1.1.9 1.1-.9 4.9-1.8 9.9-2.7 14.8-.1.7-.2.7-.9.7h-21.6c-.6 0-.7.1-.8.7-.2 1.3-.5 2.5-.7 3.8-.5 2.5-.9 5-1.4 7.6 0 .1-.1.3-.1.4 0 .3.1.4.3.4h20.7c1.2 0 1.1-.1.9 1.1-.7 4.2-1.5 8.3-2.3 12.5-.2.8-.2.8-1 .8h-20.1c-1.1 0-1.2-.2-1.5 1.2-.6 3.6-1.3 7.1-1.9 10.7 0 .1 0 .3-.1.4 0 .3.1.5.4.5h35.4c1.3 0 1 0 1.2-1.1.5-2.3.9-4.7 1.3-7 1-5.6 2-11.1 3.1-16.7l3.3-17.7 2.4-13.2c0-.1.1-.3.1-.4.1-.6.1-.6.8-.6h22.4c1.1 0 1.1 0 .9 1.1-1.6 8.8-3.3 17.5-4.9 26.3-1.4 7.6-2.8 15.2-4.2 22.7-.2 1-.4 1.9-.5 2.9-.1.6 0 .6.6.7h14.9c.9 0 1 0 1.1-.9.4-2.4.9-4.8 1.3-7.2.9-4.7 1.7-9.4 2.6-14.2l3.3-17.7c.8-4.4 1.6-8.7 2.4-13.1.1-.7.2-.7.9-.7h22.8c.6 0 .6.1.5.7-.5 2.8-1.1 5.7-1.6 8.5-1 5.2-1.9 10.5-2.9 15.7-.9 4.7-1.7 9.4-2.6 14.1-.9 4.6-1.7 9.3-2.6 13.9v.3c0 .3 0 .5.4.5h15.8c.7 0 .7 0 .9-.8.4-2.3.8-4.6 1.3-6.9l3.3-17.7c1.1-6.2 2.3-12.4 3.4-18.5.6-3 1.1-6.1 1.7-9.1.1-.7.1-.7.8-.7h45.1c.5 0 .5.1.5.6-.2 1.4-.5 2.8-.8 4.1-.7 3.7-1.3 7.3-2 11-.2.9-.2.9-1.1.9h-20.8c-1.3 0-1.1-.1-1.3 1.1-.7 3.6-1.3 7.2-2 10.8v.5c0 .2.1.3.3.3H6c1 0 1 0 .8 1-.8 4.2-1.5 8.4-2.3 12.5-.2.9-.1 1-1.1 1h-20.1c-1.4 0-1.1 0-1.3 1.1-.7 3.5-1.3 7-1.9 10.4 0 .2-.1.4-.1.5-.1.6 0 .6.5.7h34.9c1.3 0 1.2.1 1.4-1.2l2.4-13.2c1-5.3 1.9-10.6 2.9-15.9.9-4.8 1.8-9.6 2.6-14.4.7-3.7 1.4-7.5 2.1-11.2.1-.6.2-.7.8-.7h2.9c9 0 18-.1 27 0 5.6.1 11.2.8 16.5 2.8 2.9 1.1 5.5 2.6 7.7 4.7 2.6 2.5 4.2 5.5 4.9 9.1.2 1.2.3 2.3.4 3.5.1 2.6-.1 5.1-.7 7.6-.9 3.9-2.7 7.3-5.6 10.1-2.6 2.5-5.8 4.2-9.3 5.2-1.1.3-2.2.5-3.2.8-.2 0-.4.1-.6.1-.3.1-.3.2-.3.5.1.2.1.3.2.5 3.4 9.1 6.8 18.2 10.3 27.3 0 0 0 .1.1.1.3.8.3.8-.6.8H55c-.9 0-.9 0-1.1-.9-2-6.7-4-13.4-6-20-1.3-4.5-2.7-9-4-13.4-.1-.3-.2-.5-.3-.8 0 .3 0 .3-.1.3zm-285.4 18.6h17.4c1 0 1 0 1.1-.9.7-3.9 1.4-7.8 2.2-11.7 1.6-8.8 3.2-17.7 4.9-26.5.2-.8.1-.9-.7-.9h-34.9c-.9 0-.9 0-1.1.9-.6 3.6-1.2 7.1-1.9 10.7-.2 1.1-.2 1.1.9 1.1h21.2c.3 0 .4.1.4.4 0 .1 0 .3-.1.4-.8 4.4-1.6 8.7-2.4 13.1-.1.6-.2.6-.8.7h-21.4c-.9 0-.9 0-1 .7l-2.1 11.1c-.2 1-.2 1 .8 1 5.9-.1 11.7-.1 17.5-.1zm290.2-22.2h2.1c2.6-.1 5.1-.4 7.4-1.5 2.3-1.1 4-2.7 5-5.2.6-1.5.7-3.1.7-4.7-.1-3.3-1.7-5.7-4.7-7-1.5-.7-3-.9-4.6-1.1-1.8-.2-3.5-.2-5.3-.2-1.3 0-1.1 0-1.3 1.1-.7 3.7-1.4 7.3-2 11-.4 2.2-.8 4.4-1.2 6.5-.2.9-.1.9.7.9 1.1.2 2.1.2 3.2.2zm53.6 38.7c-5.2.2-10.7-4.2-10.7-10.8 0-6 4.8-10.7 10.8-10.7 6.3 0 10.9 5.4 10.7 11.1-.2 5.6-5 10.7-10.8 10.4zm0-1.8c4.9.2 8.9-4.3 8.9-8.7.1-4.7-3.8-9.1-8.9-9.1-4.8 0-8.9 4.1-8.9 8.9 0 5.4 4.5 9.1 8.9 8.9z"/><g><path class="st2" d="M98.3 490.8c.8-.1 2-.2 3.3-.2 1.7 0 2.9.3 3.7.9.7.5 1 1.4 1 2.4 0 1.5-1 2.6-2.2 3v.1c.8.3 1.4 1.1 1.7 2.3.4 1.5.7 2.9.9 3.3h-2.2c-.2-.4-.5-1.3-.8-2.8-.3-1.6-.9-2-2.1-2.1h-1.1v4.9h-2.2v-11.8zm2.1 5.2h1.3c1.5 0 2.4-.8 2.4-2 0-1.3-.9-1.9-2.3-1.9-.7 0-1.1.1-1.3.1v3.8z"/></g></g></g><g><path d="M-322.4 299.4c3.6-1 7.2-2.2 10.9-3 33.5-6.7 58.9 16.2 63.3 42 2.4 14 .4 27.2-7.6 39-8.7 12.8-20.6 21.1-36.4 23.4-13.6 2-26.2-.3-37.6-7.8-13.1-8.7-21.5-20.7-23.7-36.7-.6-4.1-.8-8.3-.8-12.4v-71.1c-.1-2.2.8-3.2 3.1-3.2 8.3 0 16.7.1 25 0 2.3 0 3 1.1 3 3.3-.1 7.2 0 14.4 0 21.6.1 1.5-.4 3.2.8 4.9zm43.2 49.3c.7-12.2-8.5-22.6-21.3-23-11.6-.4-21.7 10.2-21.7 22.3-.1 14 12 22.6 21.3 22.8 11.1.3 22.8-11 21.7-22.1zm185.8-3.1c7.1-9.7 13.5-18.5 19.9-27.3 4.2-5.8 8.5-11.6 12.7-17.5 1.7-2.5 3.7-3.4 6.8-3.4 8.3.2 16.7.1 25 .1 1.4 0 2.9-.4 4.4.9-1 2.7-3.2 4.6-4.9 6.8-8.2 11.1-16.5 22-24.7 33.1-2.4 3.3-2.4 3.3-.1 6.4 7 9.3 14.1 18.7 21.1 28 5.8 7.7 11.5 15.4 17.3 23 .6.9 1.7 1.7.9 2.9-.6.9-1.7.8-2.6.8h-28.8c-2.2 0-3.5-1.1-4.7-2.7-6.6-9.2-13.3-18.4-20-27.6-.3-.4-.5-.8-.8-1.2-2-2.5-2.7-2.5-4.7.2-6.9 9.2-13.9 18.4-20.6 27.7-1.9 2.6-3.9 3.8-7.2 3.7-5.4-.2-10.9 0-16.3-.1-3.1-.1-3.3-.3-3.5-3.3-.1-1 0-1.9 0-2.9V275.5c0-6 0-6 6-6H-98c4.8 0 4.8.1 4.8 4.8v64.9c-.2 1.8-.2 3.6-.2 6.4zm-146.5 2.1c-1.4-28.4 25.7-54.4 55-52.1 24.5-1.5 52 21.4 51.7 52.8-.3 31.8-25.2 53.2-54 53.3-29.2 0-54.7-26.1-52.7-54zm31.9.7c0 6.4.8 9.1 4.6 14.2 6.6 8.7 18.7 10.3 27.1 5.4 10.7-6.1 14.7-21 7.3-32.2-5.1-7.7-12.2-10.9-20.4-9.8-11.7 1.6-19.7 12.3-18.6 22.4zm296.2-20.7v21.1c.1 17.3-7.3 30.9-20.5 41.5-17.9 14.4-44.1 15-62.8 2.1-11.6-8-19.4-18.9-22.3-32.9-.8-3.7-1.3-7.5-1.3-11.4v-47.6c-.1-2.3 1.1-3.1 3.3-3 2.4.1 4.8 0 7.2 0H7.7c4.5 0 4.6.1 4.6 4.6v43.2c0 9.7 3.8 17.4 12.1 22.6 7.3 4.6 17.7 3.4 24.1-2.4 5.9-5.4 8.9-11.8 8.7-19.9-.2-13.9-.1-27.9-.1-41.8v-3.4c0-2 .9-2.9 2.9-2.9h11.5c4.2 0 8.3-.1 12.5 0 3.8.1 4 .2 4 4.2.3 8.7.2 17.4.2 26z"/><path d="M-435.3 348.3c-.1-13.5 10.3-23.8 22.5-23.7 11.8.2 22.7 8.6 22.8 23.6.1 14.5-11.1 23.2-21.7 23.7-11.8.5-23.8-9.3-23.6-23.6z" fill="#e9661e"/></g><g><path class="st2" d="M-411.5 460.6l-3.6 17.1h.1c2.2-2.6 5.6-4.2 9.2-4.2 6.3 0 9.1 5.1 9.1 10.4 0 9.7-6.4 20.9-19.8 20.9-7.1 0-10.7-3.1-10.7-8.4 0-1.8.3-3.7.7-5.5l6.1-30.3h8.9zm-6.2 30.9c-.1 1-.4 2-.3 3.3.1 2.1 1.3 3.3 3.4 3.3 5.1 0 8.8-7.1 8.8-12.4 0-2.9-1.2-5.1-3.9-5.1-3.2 0-6.3 3.2-7.4 8.5l-.6 2.4zm34-17.3l1.8 13c.4 3.1.7 5.2 1 7.1h.1c.7-1.8 1.3-3.7 2.6-7l5.5-13.2h9.3l-10.7 21.5c-4 8-7.5 13.4-11.5 17.2-3.5 3.3-7.7 4.8-9.6 5.1l-2-7.5c1.4-.4 3.4-1.2 5.1-2.4 2-1.4 3.7-3.2 4.8-5.2.3-.4.3-.8.2-1.5l-5.9-27.1h9.3z"/></g></g></svg>