<svg xmlns="http://www.w3.org/2000/svg" width="660" height="657.4" viewBox="0 0 82.936 120.7"><defs><style>.cls-1{fill:#e3001b}</style></defs><g id="Layer_2" data-name="Layer 2"><g id="Layer_1-2" data-name="Layer 1"><path id="path2513" class="cls-1" d="M8.275 39.462a23.697 23.697 0 0 1 4.542-1.514 29.284 29.284 0 0 1 57.312.01 21.107 21.107 0 0 1 10.702 5.18 42.093 42.093 0 0 0-.293-7.319A39.266 39.266 0 0 0 2.19 37.674a55.64 55.64 0 0 0-.095 5.658 24.918 24.918 0 0 1 6.179-3.87"/><path id="path2515" class="cls-1" d="M64.4 42.438H17.325a17.123 17.123 0 0 0-7.03 1.609 19.423 19.423 0 0 0-5.776 3.718Q.14 53.031 0 63.165v36.799q.156 10.155 4.518 15.39a19.21 19.21 0 0 0 5.777 3.752 17.483 17.483 0 0 0 7.03 1.594H64.4q18.238-.163 18.537-19.965V62.394Q82.646 42.587 64.4 42.438"/></g></g></svg>