<svg xmlns="http://www.w3.org/2000/svg" width="640" height="670.9" viewBox="-498.9 61.6 640 670.9"><path d="M8 511.1c-6.1-2.5-7.1 5.1-5.1 10.1 3.6 11.2 8.1 20.3 11.7 21.8 3.6 2 7.1-2.5 4.6-14.2-1.1-5-5.2-15.1-11.2-17.7zm-50.3 20.8c-.5 0-.5 0-.5-.5h-1c-.5 0-.5 0-1-.5-4.1-.5-8.1 0-11.2 2-7.6 5.1-8.6 16.7-2.5 25.9 3 4.1 6.6 7.1 10.7 8.6h3c4.1 1 8.1 0 11.2-2 7.6-5.1 8.6-16.7 2.5-25.4-3.1-3.5-7.1-6.6-11.2-8.1zm177.6 180.2c-18.3-37-50.7-64.4-85.8-85.2-12.2-7.1-25.9-12.2-37.5-16.2-27.4-9.1-54.3-11.2-85.2-16.2-25.4-4.1-45.2-14.7-66.5-28.9-11.2-7.6-20.3-18.3-27.9-28.9-1.5-2-8.6-10.7-7.6-13.7 0 0-5.1 19.8 5.1 47.7-90.3-4.6-169.5-54.8-206-115.2-66.5-111.6-43.1-246.6 45.7-306.5 89.3-59.4 224.3-17.3 296.8 90.3 45.6 67.3 57.3 146 37.5 210.4 0 .5-.5 1-.5 1.5-38.1-28.4-73.6-14.2-73.6-14.2 38.6-4.1 69 26.9 69 26.9 4.6 4.1 8.6 8.6 12.7 13.2 1 1 2 2.5 2.5 3.6 10.1 13.7 16.2 28.9 19.3 44.7C109.9 428 122.6 293.5 54.6 189-31.6 55.5-215.8 21.5-356.9 112.8c-140 91.3-184.2 273-97.9 406.4 71 109.6 237.5 143.1 332.9 113.2 36-11.2 159.8-22.3 245.6 79.7 0 0 7.6 8.6 11.7 18.3 0 0 1 3.6 4.6 1.5.9-.6 3.4-3.6-4.7-19.8z" fill="#f8991d"/></svg>