<svg id="Layer_1" viewBox="0 0 640 200" xmlns="http://www.w3.org/2000/svg"><style>.st0{fill:#62ce02}</style><g><g transform="translate(-3.853 -.257) scale(.1366)"><circle class="st0" cx="406.8" cy="1315.2" r="140.1"/><circle class="st0" cx="880.8" cy="1315.2" r="140.1"/><path class="st0" d="M1169.1 466H997.5V365.6c0-195.5-158.5-354-354-354s-354 158.5-354 354V466H116.2c-49.9 0-86.8 46.3-75.8 94.9L160 1086.1c8 35.4 39.5 60.5 75.8 60.5h818.5c36.5 0 68.1-25.4 75.9-61.1L1245 560.3c10.6-48.5-26.3-94.3-75.9-94.3zM415.7 356.2c0-126 102.2-228.2 228.3-228.2s228.3 102.2 228.3 228.3V466H415.7V356.2zM795 687.3c0 5.4-4.4 9.8-9.8 9.8h-73.3c-5.4 0-9.8 4.4-9.8 9.8v253.2c0 5.4-4.4 9.8-9.8 9.8h-99.8c-5.4 0-9.8-4.4-9.8-9.8V707c0-5.4-4.4-9.8-9.8-9.8h-73.3c-5.4 0-9.8-4.4-9.8-9.8v-65.9c0-5.4 4.4-9.8 9.8-9.8h285.7c5.4 0 9.8 4.4 9.8 9.8v65.8z"/></g><path d="M1940.9 467.9h-545.8c-10.9 0-19.7 8.8-19.7 19.7v125.9c0 10.9 8.8 19.7 19.7 19.7h139.5c10.9 0 19.7 8.8 19.7 19.7V1127c0 10.9 8.8 19.7 19.7 19.7h188c10.9 0 19.7-8.8 19.7-19.7V652.8c0-10.9 8.8-19.7 19.7-19.7h139.5c10.9 0 19.7-8.8 19.7-19.7V487.6c0-10.9-8.8-19.7-19.7-19.7zm2125.7 678.6H3905c-11 0-20-9-20-20V479.7c0-11 9-20 20-20h161.6c11 0 20 9 20 20v646.9c0 11-9 19.9-20 19.9zM2343.9 646.7l-241.5.5c-57 .1-103.1 46.3-103.1 103.3v361.7c0 19 15.4 34.4 34.4 34.4h132.8c19 0 34.4-15.4 34.4-34.4V878.7c0-48.9 39.6-88.5 88.5-88.5h54.5c10.9 0 19.7-8.8 19.7-19.7V666.4c0-10.9-8.8-19.7-19.7-19.7zm2166.4 30.8L4432.4 868l-73.8-189.7c-7.3-18.9-25.5-31.3-45.8-31.3l-155.1-.2c-14 0-23.5 14.1-18.3 27l184.6 457.3-71.6 174c-5.3 12.9 4.2 27.1 18.2 27.2l112.5.1c19.7 0 37.5-11.7 45.3-29.8L4697 674.3c5.5-13-4-27.4-18.1-27.4h-123c-20 0-38 12.1-45.6 30.6zm-1799-1v262.2c0 19-15.4 34.4-34.4 34.4h-7.9c-19 0-34.4-15.4-34.4-34.4V676.5c0-16.3-13.2-29.5-29.5-29.5h-137.7c-19 0-34.4 15.4-34.4 34.4v347.1c0 65.2 52.8 118 118 118h83.6v-.2h76.7v.2h83.6c65.2 0 118-52.8 118-118V681.4c0-19-15.4-34.4-34.4-34.4h-137.7c-16.3 0-29.5 13.2-29.5 29.5zm675.8 71.9c-2.3 10-11.9 16.5-22 15-41-6.1-138.8-17.9-148.6 7.5C3204 803 3448.6 847 3423 1019.4c-24.9 168-248.3 158.6-412 113.2-7.8-2.2-13.4-8.8-14.3-16.8l-2.8-24.4c-2.4-21.3-2.3-42.8.3-64l1.4-11.1c1.4-11.3 12.1-19.1 23.3-16.9 51.3 10.1 180 32.5 182.5 2.3 4.6-56.4-219-74.1-201.3-231.4C3017 620 3267 614.4 3383.9 640.9c9.2 2.1 15.6 10.5 15.2 19.9l-.5 13.1c-.8 20-3.4 39.9-8 59.3l-3.5 15.2zm249.2 409.7c-64-6.6-111.2-66.8-111.2-133.4V783.5h-40.3c-10.9 0-19.7-8.8-19.7-19.7v-82.2c0-19 15.4-34.4 34.4-34.4h25.6v-64.7c0-16.9 12.3-31.3 29-34l149.9-24.1c12-1.9 22.8 7.3 22.8 19.4v103.4h50.5c19 0 34.4 15.4 34.4 34.4v82.2c0 10.9-8.8 19.7-19.7 19.7h-65.2V985c0 15.3 12.4 27.8 27.8 27.8h18.3c9.7 0 17.9 7 19.4 16.6l4.8 30.4c2 12.8 3.2 25.7 3.6 38.7l1 27.5c.4 10-9 16.7-16.9 19.8 0-.1-50.4 22.4-148.5 12.3z" transform="translate(-3.853 -.257) scale(.1366)"/></g></svg>