<svg xmlns="http://www.w3.org/2000/svg" width="640" height="637.4" viewBox="-525.3 78.7 640 637.4"><g fill="#0073b8"><path d="M-206.2 78.7c50.2 0 97.8 11.6 139.6 32.2 6.4 3.2 13.5 6.4 19.9 10.3l-29.6 26.4-44.4-45.7-74 66.9-44.4-48.2-138.3 124.8 88.8 97.8-34.7 30.9 87.5 97.8-34.7 30.9 124.8 138.9 74-68.2 64.3 73.3c-12.9 9.6-26.4 19.3-41.8 27.7-46.3 26.4-100.3 41.8-156.9 41.8-175.6 0-319-143.4-319-318.4-.2-175.7 143.3-319.2 318.9-319.2z"/><path d="M-264.7 377.2l75.9-68.2 68.1 75.9-75.9 68.2zm54 131.2l75.9-68.2 68.2 75.9-75.9 68.2zm-108.1-260.5l75.9-68.2 68.2 75.9-75.9 68.2zm139-36.7l57.2-51.4 50.8 57.2-56.6 50.8zm100.9 234.2l57.3-50.8 50.8 56.6-56.6 51.4zm50.2 115.1L27.9 509l51.5 57.3-56.6 50.8zm23.2-263.1l37.3-34.1 34.7 38-37.9 34.1zm-48.9-112.5l37.9-34.1 34.1 37.9-37.9 34.1zM42.7 410l38-34.1 34.1 38-38 34zm-169.8-84.3l56.6-51.4 51.5 56.6-57.3 51.4z"/></g></svg>