<svg xmlns="http://www.w3.org/2000/svg" width="63" height="17" xmlns:xlink="http://www.w3.org/1999/xlink"><use fill="#BAC1C8" xlink:href="#a" transform="translate(.04 .024)"/><use fill="#BAC1C8" xlink:href="#b" transform="translate(.04 9.24)"/><use fill="#BAC1C8" xlink:href="#c" transform="translate(6.26 9.25)"/><use fill="#BAC1C8" xlink:href="#d" transform="translate(6.87 .096)"/><use fill="#BAC1C8" xlink:href="#e" transform="translate(14.17 9.36)"/><use fill="#BAC1C8" xlink:href="#f" transform="translate(14.57 .156)"/><use fill="#BAC1C8" xlink:href="#g" transform="translate(23.07 9.36)"/><use fill="#BAC1C8" xlink:href="#h" transform="translate(23.79 .168)"/><use fill="#BAC1C8" xlink:href="#i" transform="translate(29.77 .168)"/><use fill="#BAC1C8" xlink:href="#j" transform="translate(32.25 9.347)"/><use fill="#BAC1C8" xlink:href="#k" transform="translate(34.41 9.227)"/><use fill="#BAC1C8" xlink:href="#l" transform="translate(34.93 .168)"/><use fill="#BAC1C8" xlink:href="#m" transform="translate(37.18 .168)"/><use fill="#BAC1C8" xlink:href="#n" transform="translate(39.71 9.227)"/><use fill="#BAC1C8" xlink:href="#o" transform="translate(44.11 .024)"/><use fill="#BAC1C8" xlink:href="#j" transform="translate(45.45 9.347)"/><use fill="#BAC1C8" xlink:href="#p" transform="translate(47.52 9.25)"/><use fill="#BAC1C8" xlink:href="#q" transform="translate(55.85 9.347)"/><defs><path id="a" d="M6.488 7.15c-.747.265-1.542.397-2.55.397C1.815 7.547 0 6.143 0 4.007 0 1.62 1.672 0 4.175 0c.937 0 1.684.18 2.3.456l-.402 1.128c-.202-.18-.866-.588-1.97-.588C2.374.996 1.4 2.088 1.4 3.768c0 1.775 1.233 2.843 2.597 2.843.486 0 .83-.047 1.115-.143.048-.396.048-1.14.048-1.512 0-.48 0-.864-.048-1.212h1.4c-.024.42-.024.924-.024 1.428 0 .54 0 1.393.024 1.97l-.024.01"/><path id="b" d="M0 3.983C0 1.513 1.79 0 4.01 0c.936 0 1.553.108 2.134.384L5.717 1.56c-.19-.264-.807-.6-1.696-.6-1.517 0-2.597 1.032-2.597 2.796 0 1.68 1.127 2.783 2.598 2.783.69 0 1.234-.145 1.768-.493l.392.936c-.7.396-1.4.54-2.373.54C1.65 7.523 0 6.083 0 3.983"/><path id="c" fill-rule="evenodd" d="M0 3.875C0 1.535 1.66 0 3.83 0c2.28 0 3.82 1.452 3.82 3.66 0 2.35-1.684 3.863-3.82 3.863C1.555 7.523 0 6.07 0 3.875zm1.46-.12c0 1.668.912 2.808 2.37 2.808 1.424 0 2.373-1.128 2.373-2.807C6.203 2.064 5.23.96 3.83.96c-1.48 0-2.37 1.128-2.37 2.796z"/><path id="d" fill-rule="evenodd" d="M3.25 0h1.257c.747 2.076 1.922 5.11 2.918 7.38h-1.53l-.076-.214a20.485 20.485 0 0 0-.372-.978c-.11-.28-.226-.568-.324-.85H2.16l-.02.052c-.15.394-.31.816-.48 1.16-.032.083-.07.17-.108.26a7.304 7.304 0 0 0-.224.57H0C.854 5.58 2.313 2.183 3.25 0zm-.496 3.83c-.076.175-.15.35-.216.513h2.29a47.645 47.645 0 0 1-1.08-3c-.165.464-.37.968-.59 1.506l-.145.354c-.078.202-.17.415-.26.625z"/><path id="e" d="M6.95 7.295c0-1.932-.06-3.947-.154-5.675-.118.348-.26.732-.427 1.2-.51 1.403-1.15 3.24-1.614 4.475h-1.22c-.63-1.86-1.39-4.14-1.875-5.675-.177 1.704-.355 3.78-.426 5.675H0C.356 4.8.534 2.472.63 0h1.66c.343 1.212.818 2.532 1.268 3.803.273.768.522 1.44.724 2.112C4.958 4.21 5.776 1.848 6.417 0h1.59c0 2.1.177 4.895.39 7.295H6.952"/><path id="f" d="M6.962 7.307c0-1.932-.06-3.947-.154-5.687-.13.348-.273.744-.45 1.212-.487 1.38-1.14 3.24-1.602 4.475h-1.22c-.63-1.86-1.39-4.14-1.875-5.687-.19 1.716-.38 3.79-.426 5.687H0C.356 4.81.534 2.484.63 0h1.66c.343 1.2.818 2.532 1.268 3.792.26.767.51 1.45.724 2.123C4.958 4.2 5.776 1.835 6.405 0h1.6c0 2.088.18 4.895.393 7.307H6.962"/><path id="g" d="M6.974 7.295c0-1.932-.06-3.947-.154-5.675-.13.348-.273.732-.45 1.2-.5 1.403-1.14 3.24-1.602 4.475H3.535c-.64-1.86-1.364-4.14-1.863-5.675-.19 1.704-.38 3.78-.45 5.675H0C.356 4.8.522 2.472.617 0H2.29c.343 1.212.806 2.532 1.256 3.803.273.768.522 1.44.736 2.112C4.958 4.21 5.764 1.848 6.405 0h1.59c0 2.1.177 4.895.39 7.295h-1.41"/><path id="h" fill-rule="evenodd" d="M3.69 3.36c.746-.216 1.327-.888 1.327-1.584C5.017.672 3.985 0 2.217 0H0c.07 1.428.07 2.292.07 3.744 0 1.367 0 2.195-.07 3.55h2.242c2.064 0 3.084-.767 3.084-2.183.01-.875-.63-1.522-1.637-1.75zM1.375.96c.19-.048.474-.048.688-.048 1.186 0 1.66.384 1.66 1.044 0 .696-.545 1.08-1.696 1.08h-.676A29.614 29.614 0 0 1 1.376.96zm-.012 5.375h.724c1.447 0 1.92-.432 1.92-1.188 0-.768-.616-1.164-1.944-1.164H1.34c0 .816 0 1.548.024 2.352z"/><path id="i" d="M1.352 5.447c0 .288.012.564.012.864 1.09 0 2.49 0 3.238-.047l-.38 1.032H0C.07 5.94.07 5.11.07 3.744.07 2.28.07 1.428 0 0h1.4c-.012.492-.012.936-.024 1.308-.012.708-.048 1.536-.048 2.436 0 .647.012 1.163.024 1.703"/><path id="j" d="M0 7.307C.07 6 .07 5.135.07 3.78.07 2.292.07 1.452 0 0h1.4c-.072 1.44-.072 2.292-.072 3.78 0 1.355 0 2.22.072 3.527H0"/><path id="k" d="M4.472 1.488c-.32-.276-.83-.54-1.554-.54-.878 0-1.317.384-1.317.9 0 .432.203.744 1.14 1.152.225.096.486.216.723.324C4.578 3.84 5.03 4.39 5.03 5.387c0 1.416-1.14 2.148-2.658 2.148-.89 0-1.684-.144-2.372-.468L.403 6c.546.36 1.258.61 1.945.61.985 0 1.33-.467 1.33-1.03 0-.53-.357-.865-1.092-1.2a27.22 27.22 0 0 0-.842-.385C.747 3.528.26 2.975.26 2.04.26.876 1.318 0 2.93 0c.89 0 1.53.144 1.97.384l-.43 1.104"/><path id="l" d="M0 7.295C.07 5.94.07 5.11.07 3.744.07 2.28.07 1.428 0 0h1.4c0 .348-.012.684-.012.972-.012.924-.048 1.656-.048 2.772 0 1.03.024 1.75.048 2.627 0 .277.012.6.012.937H0"/><path id="m" d="M6.25 0c-.047 1.428-.047 2.292-.047 3.744 0 1.367 0 2.195.048 3.55H4.994C3.69 5.255 2.23 3.06 1.198 1.61c0 2.447 0 3.755.07 5.687H0C.07 5.94.07 5.11.07 3.744.07 2.28.07 1.428 0 0h1.46a105.42 105.42 0 0 1 3.617 5.22c0-2.16 0-3.504-.072-5.22H6.25"/><path id="n" d="M4.46 1.488c-.332-.276-.83-.54-1.554-.54-.878 0-1.328.384-1.328.9 0 .432.213.744 1.15 1.152.237.096.486.216.724.324 1.103.515 1.565 1.067 1.565 2.063 0 1.416-1.138 2.148-2.645 2.148C1.46 7.535.688 7.39 0 7.067L.403 6c.546.36 1.234.61 1.945.61.985 0 1.33-.467 1.33-1.03 0-.53-.357-.865-1.092-1.2a27.22 27.22 0 0 0-.842-.385C.747 3.528.26 2.975.26 2.04.26.876 1.318 0 2.93 0c.89 0 1.53.144 1.97.384l-.44 1.104"/><path id="o" d="M6.5 7.15c-.747.265-1.554.397-2.55.397C1.827 7.547 0 6.143 0 4.007 0 1.62 1.684 0 4.2 0c.924 0 1.683.18 2.3.456L6.097 1.56C5.787 1.248 4.97.984 4.163.984c-1.79 0-2.752 1.092-2.752 2.772 0 1.775 1.223 2.843 2.6 2.843.485 0 .817-.05 1.09-.145.048-.396.048-1.14.048-1.512 0-.48 0-.864-.048-1.21l1.412-.002c-.024.42-.024.925-.024 1.43 0 .54 0 1.39.024 1.967L6.5 7.15"/><path id="p" fill-rule="evenodd" d="M0 3.875C0 1.535 1.65 0 3.82 0c2.288 0 3.83 1.452 3.83 3.66 0 2.35-1.672 3.863-3.83 3.863C1.54 7.523 0 6.07 0 3.875zm1.447-.12c0 1.668.95 2.808 2.372 2.808 1.434 0 2.383-1.128 2.395-2.807C6.215 2.064 5.23.96 3.82.96c-1.46 0-2.373 1.128-2.373 2.796z"/><path id="q" d="M6.19 0c-.046 1.44-.046 2.292-.046 3.78 0 1.355 0 2.22.047 3.527H4.983c-1.353-2.04-2.8-4.235-3.83-5.675 0 2.447 0 3.79.07 5.675H0v-.204C.012 6.467.07 4.99.07 3.78.07 2.292.025.732 0 0h1.423C2.847 1.92 4.175 3.923 5.04 5.243c0-2.11 0-3.515-.07-5.243h1.22"/></defs></svg>