<svg xmlns="http://www.w3.org/2000/svg" width="21" height="22" xmlns:xlink="http://www.w3.org/1999/xlink"><g opacity=".95" fill="#BAC1C8"><use xlink:href="#a" transform="translate(9.64)"/><use xlink:href="#b" transform="translate(.98 2.767)"/><use xlink:href="#c" transform="translate(0 18.666)"/><use xlink:href="#d" transform="translate(16.39 18.738)"/><use xlink:href="#e" transform="translate(10 18.673)"/><use xlink:href="#f" transform="translate(6.38 18.738)"/><use xlink:href="#g" transform="translate(13.13 18.738)"/><use xlink:href="#h" transform="translate(19.09 18.738)"/><use xlink:href="#i" transform="translate(3.19 18.738)"/></g><defs><path id="a" fill-rule="evenodd" d="M0 0h9.697c.798 0 1.473.634 1.473 1.384v14.47c0 .75-.675 1.385-1.473 1.385H0V0zm0 14.645v-1.672h.982c2.087 0 3.99-.52 5.34-1.384l-2.7.172c-.246 0-.492-.058-.676-.23-.184-.174-.246-.404-.246-.635v-.058c.062-.404.43-.75.86-.75h6.32c.37 0 .615.173.8.403.183.23.245.52.183.808L9.82 14.82c-.123.518-.736.864-1.29.75l-.306-.06a1.08 1.08 0 0 1-.798-.517c-.184-.288-.184-.576-.06-.864l.367-1.096c-1.718 1.038-4.112 1.672-6.69 1.672-.368 0-.736 0-1.043-.057zM0 3.978v-1.21h1.043c2.333 0 4.42.46 6.138 1.326a.84.84 0 0 1 .37.518.72.72 0 0 1-.246.577l-.062.114c-.307.23-.675.23-.92.058-1.35-.865-3.253-1.44-5.34-1.44-.368 0-.675.056-.982.056z"/><path id="b" fill-rule="evenodd" d="M8.654 0v1.21c-3.62.29-6.384 2.193-6.384 4.5s2.763 4.15 6.384 4.497v1.672C3.804 11.59 0 9.052 0 5.94 0 2.882 3.805.345 8.654 0z"/><path id="c" fill-rule="evenodd" d="M3.25 1.57H1.288v.405H2.76c-.06.23-.307.46-.43.576-.245.117-.49.174-.798.174C.366 2.61.122 1.11 1.102.59c.37-.172.8-.172 1.167 0 .43.29-.124.232.797.232-.062-.29-.43-.577-.737-.692-.43-.173-.92-.173-1.29 0-.674.23-1.226.98-.98 1.845.184.692.92 1.268 1.84 1.153a1.458 1.458 0 0 0 1.228-.923c.062-.173.184-.46.123-.634z"/><path id="d" fill-rule="evenodd" d="M.798 1.384V.692c.307-.058.736 0 .675.346 0 .346-.368.346-.675.346zM0 2.998h.798v-.922s.49.807.614.922h.92c0-.058-.675-.865-.736-.98.06-.058.184-.058.368-.23a.91.91 0 0 0 .245-.404C2.454.807 2.21.058 1.29 0H0v2.998z"/><path id="e" fill-rule="evenodd" d="M3.253 1.968c-1.105 0-.737-.058-.982.173-.183.23-.49.347-.797.23-.86-.23-.86-1.383 0-1.556.368-.115.614 0 .798.173.308.29-.122.23 1.044.23C3.254 1.046 3.13.815 3.07.7 2.76.237 2.147-.05 1.472.006.675.065 0 .757 0 1.564c.06.807.614 1.44 1.412 1.557a1.738 1.738 0 0 0 1.657-.633c.06-.116.183-.346.183-.52z"/><path id="f" fill-rule="evenodd" d="M0 2.998h.43V.46c.06.06.675 1.616.798 1.904 0 .115.184.576.245.634h.307c.123-.288.368-.922.552-1.268.062-.23.184-.462.246-.635L2.823.46V3h.43V0h-.675a52.197 52.197 0 0 0-.675 1.73c-.062.057-.246.52-.307.576L.676 0H0v2.998z"/><path id="g" fill-rule="evenodd" d="M1.534 1.038c.062.057.307.865.307.922H1.23l.306-.922zM0 2.998h.86l.183-.403h1.044l.122.403h.92c-.06-.058-.614-1.384-.614-1.5A3.81 3.81 0 0 1 2.21.75C2.147.634 1.902.058 1.84 0h-.613L.615 1.5C.552 1.67 0 2.94 0 2.997z"/><path id="h" fill-rule="evenodd" d="M1.718 1.153h-.98v-.46h.98V0H0v2.998h1.718v-.634h-.98v-.52h.98v-.69z"/><path id="i" fill-rule="evenodd" d="M1.473.577c.06.115.43 1.095.43 1.153h-.86c-.06-.058.37-1.096.43-1.153zM0 2.997h.49l.37-.864h1.227c.06.173.122.29.184.462 0 .115.124.345.185.403h.49c0-.058-.55-1.326-.613-1.5C2.272 1.327 1.72.06 1.657 0h-.43L0 2.998z"/></defs></svg>