<svg xmlns="http://www.w3.org/2000/svg" width="54" height="22" xmlns:xlink="http://www.w3.org/1999/xlink"><g opacity=".75"><use fill="#BAC1C8" xlink:href="#a" transform="translate(4.95 10.45)"/><use fill="#BAC1C8" xlink:href="#b"/><use fill="#939AA2" xlink:href="#c" transform="translate(14.3 8.25)"/><use fill="#858D95" xlink:href="#d" transform="translate(7.15 3.3)"/><use fill="#858D95" xlink:href="#e" transform="translate(8.25 4.4)"/><use fill="#858D95" xlink:href="#f" transform="translate(9.9 5.5)"/><use fill="#858D95" xlink:href="#g" transform="translate(11.55 6.6)"/><use fill="#858D95" xlink:href="#h" transform="translate(12.65 7.7)"/><use fill="#939AA2" xlink:href="#i" transform="translate(2.2 8.25)"/><use fill="#858D95" xlink:href="#j" transform="translate(8.25 3.3)"/><use fill="#858D95" xlink:href="#k" transform="translate(7.15 4.4)"/><use fill="#858D95" xlink:href="#l" transform="translate(6.05 5.5)"/><use fill="#858D95" xlink:href="#m" transform="translate(4.95 6.6)"/><use fill="#858D95" xlink:href="#n" transform="translate(3.85 7.7)"/><use fill="#FFF" xlink:href="#o" transform="translate(20.35 13.2)"/><use fill="#939AA2" xlink:href="#p" transform="translate(23.65 15.4)"/><use fill="#FFF" xlink:href="#q" transform="translate(26.4 13.2)"/><use fill="#939AA2" xlink:href="#r" transform="translate(32.45 15.4)"/><use fill="#FFF" xlink:href="#s" transform="translate(34.65 13.2)"/><use fill="#939AA2" xlink:href="#t" transform="translate(41.8 15.4)"/><use fill="#FFF" xlink:href="#u" transform="translate(45.1 13.2)"/></g><defs><path id="a" fill-rule="evenodd" d="M4.34 10.085L0 4.907v6.306h48.17V0H12.475L4.34 10.085z"/><path id="b" fill-rule="evenodd" d="M17.69 8.845L8.843 0 0 8.845l8.844 8.844 8.845-8.845"/><path id="c" fill-rule="evenodd" d="M.546 1.092A.547.547 0 1 1 .547-.001a.547.547 0 0 1-.001 1.093"/><path id="d" d="M2.107-.203A8.14 8.14 0 0 0-.286 5.574h.573c0-2.098.85-3.996 2.225-5.37l-.405-.407zM-.286 5.574c0 2.256.914 4.3 2.393 5.777l.405-.404A7.575 7.575 0 0 1 .286 5.574h-.573z"/><path id="e" d="M1.724-.158a6.633 6.633 0 0 0-1.947 4.7h.446A6.18 6.18 0 0 1 2.04.158l-.316-.316zm-1.947 4.7c0 1.836.745 3.498 1.947 4.7l.316-.315A6.178 6.178 0 0 1 .223 4.542h-.446z"/><path id="f" d="M1.308-.135a5.1 5.1 0 0 0-1.5 3.618h.383A4.707 4.707 0 0 1 1.58.135l-.27-.27zm-1.5 3.618a5.1 5.1 0 0 0 1.5 3.618l.27-.27A4.713 4.713 0 0 1 .19 3.484h-.38z"/><path id="g" d="M.902-.112A3.61 3.61 0 0 0-.158 2.45h.317c0-.913.37-1.74.967-2.338L.902-.112zM-.158 2.45c0 1 .405 1.907 1.06 2.563l.225-.225A3.303 3.303 0 0 1 .16 2.45h-.32z"/><path id="h" d="M.488-.09c-.38.38-.615.905-.615 1.484h.254c0-.51.206-.97.54-1.304l-.18-.18zm-.615 1.484c0 .58.235 1.106.615 1.485l.18-.18a1.837 1.837 0 0 1-.54-1.306h-.255z"/><path id="i" fill-rule="evenodd" d="M.546 1.092a.545.545 0 0 0 .545-.546.546.546 0 1 0-.545.546"/><path id="j" d="M-.203.203a7.57 7.57 0 0 1 2.225 5.37h.573A8.15 8.15 0 0 0 .203-.203l-.406.406zm2.225 5.37c0 2.1-.85 3.998-2.225 5.373l.406.405a8.147 8.147 0 0 0 2.392-5.776h-.573z"/><path id="k" d="M-.158.158a6.176 6.176 0 0 1 1.816 4.384h.446a6.627 6.627 0 0 0-1.946-4.7l-.316.316zm1.816 4.384A6.177 6.177 0 0 1-.158 8.927l.316.316a6.626 6.626 0 0 0 1.946-4.7h-.446z"/><path id="l" d="M-.135.135a4.719 4.719 0 0 1 1.387 3.348h.382a5.1 5.1 0 0 0-1.5-3.618l-.27.27zm1.387 3.348c0 1.308-.53 2.492-1.387 3.348l.27.27a5.098 5.098 0 0 0 1.5-3.617H1.25z"/><path id="m" d="M-.112.112A3.3 3.3 0 0 1 .856 2.45h.318c0-1-.406-1.907-1.062-2.562l-.224.224zM.856 2.45c0 .913-.37 1.74-.968 2.338l.224.225A3.615 3.615 0 0 0 1.174 2.45H.856z"/><path id="n" d="M-.09.09c.334.334.54.795.54 1.304h.255C.705.814.47.29.09-.09l-.18.18zm.54 1.304c0 .51-.206.972-.54 1.305l.18.18c.38-.38.615-.906.615-1.486H.45z"/><path id="o" fill-rule="evenodd" d="M0 5.818h1.467V0H0v5.818z"/><path id="p" fill-rule="evenodd" d="M.75 1.484c-.41 0-.75-.34-.75-.742C0 .342.332 0 .733 0c.41 0 .75.34.75.742 0 .4-.34.742-.732.742"/><path id="q" fill-rule="evenodd" d="M2.218 0c.614 0 .81.017 1.135.11.656.19 1.11.734 1.11 1.34 0 .487-.3.93-.786 1.17.828.255 1.228.74 1.228 1.51 0 .733-.418 1.312-1.143 1.56-.273.093-.58.136-1.09.136L0 5.818V0h2.218zm-.742 2.312h.545c.71 0 .983-.18.983-.64 0-.444-.28-.632-.955-.632h-.572v1.272zm0 2.448h.716c.913 0 1.22-.18 1.22-.7 0-.537-.307-.7-1.288-.7h-.648v1.4z"/><path id="r" fill-rule="evenodd" d="M.75 1.484A.755.755 0 0 1 0 .742C0 .342.332 0 .734 0c.41 0 .75.34.75.742 0 .4-.34.742-.733.742"/><path id="s" fill-rule="evenodd" d="M6.612 5.818h-1.56l-.48-1.152h-2.6l-.436 1.152H0L2.346 0h1.68l2.586 5.818zM2.355 3.65h1.79L3.21 1.4l-.853 2.25z"/><path id="t" fill-rule="evenodd" d="M0 .742C0 .342.333 0 .734 0c.41 0 .75.34.75.742 0 .4-.34.742-.734.742-.41 0-.75-.34-.75-.742z"/><path id="u" fill-rule="evenodd" d="M4.17 1.647l-.1-.05c-.7-.35-1.263-.513-1.775-.513-.53 0-.87.188-.87.47 0 .247.298.46.947.69l.46.17c1.118.402 1.604.956 1.604 1.835 0 1.03-.912 1.722-2.278 1.722-.495 0-.946-.094-1.535-.316-.34-.136-.367-.144-.52-.247V4.154c.426.264.648.392.938.503.367.154.717.222 1.076.222.57 0 .88-.18.88-.53 0-.288-.198-.45-.787-.655l-.316-.112c-.452-.16-.69-.264-.964-.418-.222-.12-.4-.264-.546-.427C.144 2.466 0 2.065 0 1.655 0 .657.87 0 2.2 0c.65 0 1.23.13 1.97.453v1.194"/></defs></svg>