<svg xmlns="http://www.w3.org/2000/svg" width="79" height="26" xmlns:xlink="http://www.w3.org/1999/xlink"><use fill="#BAC1C8" xlink:href="#a" transform="translate(.46 9.16)"/><use fill="#BAC1C8" xlink:href="#b" transform="translate(6.12 9.16)"/><use fill="#C1C8CE" xlink:href="#c" transform="translate(14.56 8.68)"/><use fill="#BAC1C8" xlink:href="#d" transform="translate(24.3 9.04)"/><use fill="#BAC1C8" xlink:href="#e" transform="translate(33.38 8.98)"/><use fill="#BAC1C8" xlink:href="#f" transform="translate(39.36 8.96)"/><use fill="#BAC1C8" xlink:href="#g" transform="translate(48.19 8.88)"/><use fill="#BAC1C8" xlink:href="#h" transform="translate(52.78 8.96)"/><use fill="#BAC1C8" xlink:href="#i" transform="translate(60.14 8.96)"/><use fill="#D2D9DF" xlink:href="#j" transform="translate(63.76 .13)"/><use fill="#FFFFFE" xlink:href="#k" transform="translate(66.32 8.47)"/><use fill="#FFFFFE" xlink:href="#l" transform="translate(67.62 5.57)"/><use fill="#FFFFFE" xlink:href="#m" transform="translate(71.62 5.55)"/><use fill="#DCE3E9" xlink:href="#n" transform="translate(24.66 21.35)"/><use fill="#DCE3E9" xlink:href="#o" transform="translate(25.59 22.27)"/><use fill="#DCE3E9" xlink:href="#p" transform="translate(27.85 22.39)"/><use fill="#DCE3E9" xlink:href="#q" transform="translate(29.69 22.34)"/><use fill="#DCE3E9" xlink:href="#r" transform="translate(32.2 22.17)"/><use fill="#DCE3E9" xlink:href="#s" transform="translate(34.86 22.25)"/><use fill="#DCE3E9" xlink:href="#t" transform="translate(36.6 22.29)"/><use fill="#DCE3E9" xlink:href="#u" transform="translate(38.72 22.36)"/><use fill="#DCE3E9" xlink:href="#v" transform="translate(41.86 22.17)"/><use fill="#DCE3E9" xlink:href="#w" transform="translate(43.5 22.32)"/><use fill="#DCE3E9" xlink:href="#x" transform="translate(45.45 22.16)"/><use fill="#DCE3E9" xlink:href="#y" transform="translate(47.11 22.18)"/><use fill="#DCE3E9" xlink:href="#z" transform="translate(49.21 22.29)"/><use fill="#DCE3E9" xlink:href="#A" transform="translate(51.33 22.36)"/><use fill="#DCE3E9" xlink:href="#B" transform="translate(53.4 22.16)"/><use fill="#DCE3E9" xlink:href="#C" transform="translate(54.8 22.34)"/><use fill="#DCE3E9" xlink:href="#D" transform="translate(57.52 21)"/><use fill="#DCE3E9" xlink:href="#E" transform="translate(59.48 21.21)"/><use fill="#DCE3E9" xlink:href="#F" transform="translate(60.48 21.16)"/><use fill="#DCE3E9" xlink:href="#G" transform="translate(61.37 21.21)"/><use fill="#DCE3E9" xlink:href="#H" transform="translate(62.34 21.08)"/><use fill="#DCE3E9" xlink:href="#I" transform="translate(64.7 22.34)"/><use fill="#DCE3E9" xlink:href="#J" transform="translate(67.22 21.08)"/><defs><path id="a" fill-rule="evenodd" d="M0 12.172h.28c.996 0 1.676-.194 2.04-.583.364-.39.546-1.232.546-2.526V.13L3.958 0v9.064c0 1.55-.256 2.618-.766 3.206-.51.588-1.403.883-2.68.883H.328L0 12.173"/><path id="b" fill-rule="evenodd" d="M6.46 8.16c-.4.584-.856 1.02-1.373 1.31a3.482 3.482 0 0 1-1.736.434c-1.057 0-1.88-.322-2.468-.966C.294 8.294 0 7.39 0 6.226V.13L1.074 0v5.694c0 1.108.21 1.936.63 2.483.42.548 1.05.822 1.89.822.77 0 1.442-.286 2.012-.855.57-.57.854-1.26.854-2.068V.13L7.533 0v9.652l-1.073.13V8.16"/><path id="c" fill-rule="evenodd" d="M1.643 3.8c0 .702.275 1.295.826 1.777.55.483 1.236.724 2.057.724.822 0 1.505-.24 2.05-.718.544-.48.816-1.074.816-1.783 0-.66-.277-1.224-.83-1.69-.555-.467-1.233-.7-2.036-.7-.802 0-1.484.23-2.044.695-.56.464-.84 1.028-.84 1.694zm4.76 3.042c.71.318 1.26.758 1.653 1.32.392.564.588 1.2.588 1.91 0 1.04-.412 1.91-1.237 2.614-.825.703-1.86 1.055-3.104 1.055-.89 0-1.703-.202-2.44-.606-.738-.405-1.36-.987-1.863-1.746l.97-.625c.405.628.89 1.106 1.457 1.432.566.327 1.192.49 1.876.49.896 0 1.66-.253 2.287-.76.63-.508.943-1.125.943-1.853 0-.772-.314-1.426-.943-1.965C5.962 7.57 5.2 7.3 4.303 7.3c-.367 0-.75.05-1.152.15-.4.098-.826.25-1.274.456l.458-1.204C1.754 6.372 1.31 5.957 1 5.456A3.062 3.062 0 0 1 .53 3.8c0-.96.375-1.765 1.125-2.42C2.407.73 3.332.4 4.434.4a11.547 11.547 0 0 1 1.167.076c.05.006.1.01.15.014.05.003.128.005.233.005.343 0 .73-.036 1.158-.108C7.57.317 8.16.187 8.906 0l-.243.737c-.068.206-.152.344-.25.416-.1.07-.24.107-.422.107-.106 0-.392-.034-.858-.103-.1-.012-.175-.02-.224-.028.522.298.92.673 1.19 1.124.27.45.406.966.406 1.545 0 .665-.182 1.26-.546 1.787-.364.526-.882.944-1.554 1.255z"/><path id="d" fill-rule="evenodd" d="M1.11 6.506c0 .704.24 1.29.715 1.76.476.47 1.078.705 1.806.705.73 0 1.316-.226 1.76-.68.446-.455.668-1.05.668-1.784 0-.728-.222-1.32-.667-1.778-.444-.457-1.025-.686-1.74-.686-.74 0-1.35.233-1.825.7-.476.467-.714 1.055-.714 1.764zM6.06 8.82c-.342.393-.728.69-1.157.888-.43.2-.895.3-1.4.3-.97 0-1.796-.342-2.478-1.023A3.374 3.374 0 0 1 0 6.505c0-.963.342-1.788 1.027-2.473A3.373 3.373 0 0 1 3.5 3.006c.486 0 .95.095 1.39.284.443.19.832.466 1.168.827V2.912c0-.66-.166-1.146-.5-1.46C5.227 1.137 4.712.98 4.015.98c-.41 0-.856.06-1.335.177-.48.12-1.028.31-1.644.57l.42-1.242A9.54 9.54 0 0 1 2.828.12C3.276.04 3.708 0 4.126 0c1.04 0 1.8.243 2.282.728.482.486.724 1.25.724 2.297v6.748l-1.074.234V8.82z"/><path id="e" fill-rule="evenodd" d="M0 9.96V.308l1.064-.13V2.24C1.45 1.494 1.92.934 2.478.56 3.035.187 3.68 0 4.415 0h.262l-.44 1.055c-1.082.106-1.882.58-2.398 1.42-.518.84-.776 2.093-.776 3.76V9.83L0 9.96"/><path id="f" fill-rule="evenodd" d="M3.134 2.257V3.94h.488c.26 0 .47-.077.63-.233a.809.809 0 0 0 .24-.608c0-.26-.076-.466-.23-.617-.153-.15-.366-.226-.64-.226h-.488zM3.12 5.822v1.896h.566c.297 0 .528-.08.693-.244.164-.162.247-.395.247-.697 0-.297-.084-.53-.25-.7-.17-.17-.4-.255-.69-.255H3.12zM0 10.052V0h4.67c.895 0 1.608.235 2.136.704.528.47.792 1.102.792 1.9 0 .48-.108.9-.325 1.255-.217.355-.554.673-1.012.95.53.237.924.555 1.186.956.262.4.393.884.393 1.45 0 .85-.295 1.534-.882 2.055-.587.523-1.37.783-2.345.783H0z"/><path id="g" fill-rule="evenodd" d="M0 10.322V.22L3.183 0v10.046L0 10.322"/><path id="h" fill-rule="evenodd" d="M0 10.053V0h5.582l.594 2.68H3.19v.928h1.897V6.21H3.19v1.006h3.177l-.622 2.837H0"/><path id="i" fill-rule="evenodd" d="M3.07 0H0v10.216l3.077-.22V5.214L6 10.054h3.077V6.16A7.881 7.881 0 0 1 6 4.702 7.929 7.929 0 0 1 3.07 0z"/><path id="j" fill-rule="evenodd" d="M7.244 14.49a7.246 7.246 0 0 1 0-14.49 7.245 7.245 0 1 1-.001 14.489z"/><path id="k" fill-rule="evenodd" d="M.406 0a.406.406 0 0 0 0 .812A.405.405 0 0 0 .81.406.404.404 0 0 0 .407 0"/><path id="l" fill-rule="evenodd" d="M.442 2.193L2.826.775a.944.944 0 0 0-.383-.283 1.373 1.373 0 0 0-.53-.096C1.5.396 1.148.54.86.824a1.421 1.421 0 0 0-.432 1.05c0 .067 0 .124.004.172.002.05.005.098.01.147zm2.904 1.065a2.73 2.73 0 0 1-.707.39 2.137 2.137 0 0 1-.726.126c-.55 0-1.006-.18-1.37-.543C.183 2.87 0 2.42 0 1.883S.183.896.548.538C.914.178 1.368 0 1.914 0c.344 0 .645.074.903.223.26.148.46.363.604.644L.588 2.54a1.468 1.468 0 0 0 1.327.813c.23 0 .455-.047.68-.143a3.49 3.49 0 0 0 .752-.472v.52z"/><path id="m" fill-rule="evenodd" d="M0 3.247l.304-.29c.13.15.273.26.43.336.157.076.325.113.504.113a.796.796 0 0 0 .548-.187.62.62 0 0 0 .212-.486c0-.177-.05-.316-.155-.417-.104-.1-.29-.185-.556-.25-.452-.114-.76-.248-.926-.403-.164-.154-.247-.368-.247-.642A.93.93 0 0 1 .45.294C.672.098.956 0 1.3 0a1.62 1.62 0 0 1 1.082.407L2.13.74a1.57 1.57 0 0 0-.42-.27C1.57.41 1.432.38 1.295.38c-.227 0-.41.055-.547.17a.573.573 0 0 0-.208.458c0 .286.25.488.747.61.104.022.182.042.234.06.308.086.537.213.69.38.154.168.23.376.23.623 0 .327-.116.597-.35.81-.233.216-.527.323-.88.323-.25 0-.477-.048-.68-.143a1.484 1.484 0 0 1-.53-.423"/><path id="n" fill-rule="evenodd" d="M.528 3.592c0 .042-.02.077-.057.106a.195.195 0 0 1-.12.042c-.04 0-.087-.02-.143-.064-.056-.042-.09-.08-.1-.118a2.63 2.63 0 0 1-.09-.676v-.697c0-.457.065-.783.194-.98h.03c.068 0 .13.012.183.037.07.03.105.077.105.136 0 .067-.022.17-.065.306C.42 1.82.397 1.924.397 2c0 .393.004.682.013.865.003.076.024.197.063.364.037.153.055.275.055.362zM.393.312a.466.466 0 0 1-.165.035C.2.346.155.32.093.268.03.216 0 .176 0 .148 0 .134.015.105.044.063.074.02.094 0 .106 0c.05 0 .107.01.17.03.078.025.117.056.117.092v.19z"/><path id="o" fill-rule="evenodd" d="M1.927.473c0 .293-.076.562-.228.808-.176.282-.4.423-.677.423H.748c-.03 0-.12-.046-.266-.14C.162 1.36 0 .99 0 .457 0 .24.125.13.376.13.393.13.414.15.44.183s.038.06.038.076A.66.66 0 0 1 .45.415.65.65 0 0 0 .423.57c0 .156.04.326.122.512.1.223.214.334.347.334.01 0 .02.003.023.01.004.007.01.01.02.01.08 0 .182-.08.303-.24.11-.143.178-.26.203-.353.043-.155.064-.31.064-.468a.767.767 0 0 0-.02-.143L1.448.09c.073-.052.128-.077.164-.077a.06.06 0 0 1 .028.008c.01.007.017.01.023.01l.008-.022L1.686 0c.16 0 .24.158.24.473"/><path id="p" fill-rule="evenodd" d="M1 .866A.241.241 0 0 0 .98.78.235.235 0 0 1 .955.693C.955.67.963.64.978.598A.266.266 0 0 0 1 .503C1 .455.968.408.9.36A.372.372 0 0 0 .718.293c-.104 0-.204.094-.3.283a.99.99 0 0 0-.126.43c0 .05.032.104.097.157.063.054.123.08.176.08.073 0 .164-.044.273-.133.107-.09.16-.17.16-.244zm.652 1.302c0 .19-.053.324-.16.397-.09.06-.236.09-.436.09-.05 0-.224-.025-.52-.073v-.14C.557 2.44.68 2.44.9 2.44a.842.842 0 0 0 .2-.046c.095-.03.147-.056.155-.078a.793.793 0 0 0 .02-.228 1.42 1.42 0 0 1-.088-.377 1.261 1.261 0 0 0-.093-.38.576.576 0 0 1-.456.204.633.633 0 0 1-.43-.184C.067 1.228 0 1.093 0 .947 0 .8.035.635.106.452c.08-.205.17-.34.274-.4C.437.016.576 0 .8 0c.044 0 .12.024.225.072.106.048.172.09.2.122.062.076.093.192.093.347v.073c.06.03.1.094.12.19.005.03.01.11.017.237.002.08.008.205.016.37.006.072.03.173.07.306.04.132.06.232.067.3.005.045.01.072.012.08.005.03.016.055.032.072z"/><path id="q" fill-rule="evenodd" d="M1.276.364c-.003-.01-.01-.023-.02-.043A2.352 2.352 0 0 0 .817.284c-.09 0-.182.053-.276.16-.094.104-.14.202-.14.292 0 .4.124.6.374.6.036 0 .095-.028.176-.084a.739.739 0 0 0 .156-.126.579.579 0 0 0 .13-.342c.006-.054.01-.18.01-.376.018-.01.028-.023.028-.042zm.905 1.153c0 .144-.097.216-.29.216-.012 0-.03-.01-.052-.03l-.034-.03a1.39 1.39 0 0 1-.215-.16l-.136-.21-.32.193a.778.778 0 0 1-.36.093.203.203 0 0 1-.064-.018.239.239 0 0 0-.063-.017.114.114 0 0 0-.04.01c-.02.004-.032.007-.04.007-.167 0-.305-.083-.415-.25A.848.848 0 0 1 0 .841C0 .398.187.143.562.075.638.026.772 0 .964 0a1.3 1.3 0 0 1 .41.068c.174.06.277.14.308.24.017.05.028.125.034.222.005.098.014.176.025.235.018.093.05.207.098.342.065.183.116.275.152.275a.067.067 0 0 0 .028-.01c.012-.004.02-.007.027-.007.023 0 .05.02.085.06.034.04.05.07.05.092z"/><path id="r" fill-rule="evenodd" d="M1.597.17c-.186.01-.374.098-.566.26a1.832 1.832 0 0 0-.404.49c-.034.066-.062.15-.085.25a2.638 2.638 0 0 1-.058.26c-.02.092-.035.16-.047.205-.022.088-.066.13-.13.13a.35.35 0 0 1-.2-.072C.036 1.643 0 1.59 0 1.53l.008-.372A1.75 1.75 0 0 0 0 .82L.017.604C.023.52.065.478.144.478c.03 0 .072.01.124.033a.267.267 0 0 1 .104.07A2.47 2.47 0 0 1 .647.303L.685.32C.693.27.71.233.74.208.745.2.785.177.858.13a.56.56 0 0 1 .173-.088c.01 0 .015.003.018.01.003.004.008.007.017.007.01 0 .026-.01.044-.03.018-.02.033-.03.044-.03.008 0 .013.005.015.015 0 .01.006.015.018.015l.017-.01-.01-.012.02-.007c.15.003.24.014.275.034.01.017.033.038.067.063.006.026.02.05.042.072"/><path id="s" fill-rule="evenodd" d="M1.466.22c0 .087-.048.13-.143.13a.749.749 0 0 1-.2-.04A.724.724 0 0 0 .92.265c-.235 0-.39.1-.464.298a1.544 1.544 0 0 0-.093.299c0 .18.08.325.24.437.142.1.307.15.496.15.01 0 .023-.004.04-.01a.076.076 0 0 1 .035-.012c.028 0 .062.016.1.047.04.03.06.06.06.09 0 .072-.053.108-.16.108a.108.108 0 0 0-.05.022.115.115 0 0 1-.056.02c-.14 0-.298-.04-.478-.126C.4 1.5.273 1.402.205 1.292a3.814 3.814 0 0 0-.173-.32A.147.147 0 0 0 .017.91.273.273 0 0 1 0 .84C0 .596.054.405.16.265.28.108.456.03.69.03A.692.692 0 0 0 .804.015.697.697 0 0 1 .92 0c.09 0 .197.018.318.055.152.045.228.1.228.165"/><path id="t" fill-rule="evenodd" d="M1.505.735a.48.48 0 0 0-.144-.34.446.446 0 0 0-.333-.15.24.24 0 0 0-.178.068L.756.406C.672.44.587.473.5.506.444.545.417.634.417.775c0 .41.106.616.317.616.167 0 .336-.07.51-.206.173-.14.26-.288.26-.45zm.41.05c0 .215-.11.415-.332.6-.22.187-.44.28-.658.28h-.13A.74.74 0 0 1 .24 1.41.812.812 0 0 1 0 .84C0 .834.018.775.055.665.05.627.045.604.045.596.046.51.102.388.212.232.32.078.418 0 .5 0c.016 0 .04.015.075.044C.61.074.637.09.66.09.684.09.72.073.77.043A.286.286 0 0 1 .867 0c.14 0 .233.01.275.034l.06.038a.11.11 0 0 0 .045-.015.099.099 0 0 1 .044-.015l.126.072c.332.203.498.427.498.672z"/><path id="u" fill-rule="evenodd" d="M1.69.693c0 .22-.032.406-.097.558-.01.055-.03.136-.055.246-.025.11-.066.165-.122.165-.014 0-.03-.01-.05-.035-.017-.024-.032-.036-.044-.036-.008 0-.014 0-.018.005a.02.02 0 0 1-.015.007c-.015 0-.028-.02-.04-.055-.014-.037-.03-.055-.046-.055h-.03c.065-.25.098-.526.098-.83 0-.23-.03-.364-.093-.4-.083 0-.187.065-.314.194A1.205 1.205 0 0 0 .64.756C.6.844.562.96.528 1.106l-.084.36c-.023.082-.066.123-.13.123a.361.361 0 0 1-.208-.075C.036 1.465 0 1.41 0 1.345 0 .674.02.28.064.164.084.115.144.09.244.09.302.09.355.112.4.162A.25.25 0 0 1 .473.32c.04-.038.1-.095.182-.168.082-.073.152-.11.21-.11l.018.005V.05l.013.01A.168.168 0 0 0 .942.027C.962.008.98 0 .997 0c.12 0 .198.01.23.034.018.025.035.038.05.038a.054.054 0 0 0 .02-.004h-.004l.017-.01c.113 0 .207.082.283.242a.902.902 0 0 1 .097.393"/><path id="v" fill-rule="evenodd" d="M1.598.17c-.186.01-.375.098-.567.26a1.832 1.832 0 0 0-.404.49 1.04 1.04 0 0 0-.085.25 2.638 2.638 0 0 1-.058.26c-.02.092-.035.16-.047.205-.022.088-.066.13-.13.13a.35.35 0 0 1-.2-.072C.036 1.643 0 1.59 0 1.53l.008-.372A1.75 1.75 0 0 0 0 .82L.017.604C.023.52.065.478.144.478c.03 0 .072.01.124.033a.267.267 0 0 1 .104.07A2.47 2.47 0 0 1 .647.303L.685.32C.693.27.71.233.74.208.745.2.785.177.858.13a.56.56 0 0 1 .173-.088c.01 0 .015.003.018.01.003.004.008.007.017.007.01 0 .026-.01.044-.03.018-.02.032-.03.044-.03.008 0 .013.005.015.015 0 .01.006.015.018.015l.016-.01L1.196.01 1.213 0c.15.003.24.014.275.034.01.017.034.038.067.063.006.026.02.05.043.072"/><path id="w" fill-rule="evenodd" d="M1.263.408c0-.066-.073-.1-.22-.1a.559.559 0 0 0-.355.155.729.729 0 0 0-.236.327.647.647 0 0 0 .186-.005C.686.78.723.78.748.78c.068 0 .17-.047.308-.14.138-.092.207-.17.207-.23zm.377.036c0 .152-.114.304-.343.456-.21.14-.397.21-.557.21-.03 0-.13-.016-.31-.04l-.003-.005-.01.025c0 .06.044.128.128.205.085.078.2.128.342.15.085.01.213.026.385.05a4.4 4.4 0 0 0 .25.04v.126c-.066 0-.162.008-.29.024a2.504 2.504 0 0 1-.29.023c-.214 0-.42-.08-.62-.24C.106 1.297 0 1.107 0 .897 0 .748.06.586.184.416a.923.923 0 0 1 .4-.34C.715.026.86 0 1.023 0c.007 0 .02.004.037.013a.113.113 0 0 0 .043.012.064.064 0 0 0 .027-.008.082.082 0 0 1 .032-.01c.01 0 .062.026.152.073.133.07.207.114.224.13a.282.282 0 0 1 .102.234z"/><path id="x" fill-rule="evenodd" d="M1.2.203c0 .076-.04.114-.118.114-.04 0-.1-.01-.18-.025a.965.965 0 0 0-.18-.026C.6.266.508.293.45.346a.88.88 0 0 0 .154.599c.05.078.152.2.304.367.108.118.16.2.16.248 0 .17-.24.253-.717.253a.571.571 0 0 1-.183-.057A.57.57 0 0 1 0 1.66v-.05c.14-.025.235-.038.283-.038.06 0 .124-.008.195-.025.095-.023.143-.055.143-.098 0-.028-.05-.103-.15-.224A2.357 2.357 0 0 1 .193.828 1.256 1.256 0 0 1 .042.245c0-.073.044-.128.13-.165L.398.013l.03.03C.48.012.6 0 .787 0c.064 0 .144.02.24.055C1.142.1 1.2.15 1.2.203"/><path id="y" fill-rule="evenodd" d="M1.356.566a.382.382 0 0 0-.057-.18c-.04-.066-.084-.1-.135-.1-.28 0-.46.248-.535.74l-.068.483c.023-.004.037 0 .042.01.006.01.013.015.022.018.122-.098.202-.148.242-.148.01 0 .04-.026.09-.08.146-.17.238-.28.275-.334a.726.726 0 0 0 .123-.41zm.402.004c0 .663-.41 1.075-1.234 1.24a6.49 6.49 0 0 0-.063.945c0 .03-.023.076-.07.135a.476.476 0 0 1-.39-.131v-.444c0-.12.027-.48.08-1.086C.092 1.038.1.845.11.65.146.34.217.187.32.187c.02 0 .052.012.094.036a.221.221 0 0 0 .093.036C.524.246.56.21.617.152.713.052.902 0 1.183 0c.01 0 .02.01.034.027.014.02.027.028.038.028.014 0 .03-.01.047-.026l.03.03c.09.024.183.094.28.208.097.114.146.215.146.302z"/><path id="z" fill-rule="evenodd" d="M1.504.735a.482.482 0 0 0-.143-.34.446.446 0 0 0-.333-.15.239.239 0 0 0-.178.068L.755.406C.672.44.586.473.5.506.444.545.417.634.417.775c0 .41.106.616.317.616.166 0 .336-.07.51-.206.173-.14.26-.288.26-.45zm.41.05c0 .215-.11.415-.332.6-.22.187-.44.28-.657.28h-.13A.74.74 0 0 1 .24 1.41.812.812 0 0 1 0 .84C0 .834.018.775.055.665.05.627.045.604.045.596.046.51.102.388.212.232.32.078.418 0 .5 0c.015 0 .04.015.075.044.033.03.06.046.085.046C.683.09.72.073.77.043A.286.286 0 0 1 .867 0c.14 0 .233.01.275.034l.06.038c.01 0 .026-.005.044-.015a.106.106 0 0 1 .045-.015l.125.072c.333.203.5.427.5.672z"/><path id="A" fill-rule="evenodd" d="M1.69.693c0 .22-.032.406-.097.558-.01.055-.03.136-.055.246-.025.11-.066.165-.122.165-.014 0-.03-.01-.05-.035-.017-.024-.032-.036-.044-.036-.008 0-.014 0-.018.005a.02.02 0 0 1-.015.007c-.015 0-.028-.02-.04-.055-.014-.037-.03-.055-.046-.055h-.03c.065-.25.098-.526.098-.83 0-.23-.03-.364-.093-.4-.083 0-.187.065-.314.194A1.205 1.205 0 0 0 .64.756C.6.844.562.96.528 1.106l-.084.36c-.023.082-.066.123-.13.123a.361.361 0 0 1-.208-.075C.036 1.465 0 1.41 0 1.345 0 .674.02.28.063.164.083.115.143.09.245.09.3.09.353.112.4.162A.25.25 0 0 1 .473.32c.04-.038.1-.095.182-.168.082-.073.152-.11.21-.11l.018.005V.05l.013.01A.168.168 0 0 0 .942.027C.962.008.98 0 .997 0c.12 0 .198.01.23.034.018.025.035.038.05.038a.054.054 0 0 0 .02-.004h-.004l.017-.01c.113 0 .207.082.283.242a.902.902 0 0 1 .097.393"/><path id="B" fill-rule="evenodd" d="M1.2.203c0 .076-.04.114-.118.114-.04 0-.1-.01-.18-.025a.965.965 0 0 0-.18-.026C.6.266.508.293.45.346a.88.88 0 0 0 .154.599c.05.078.152.2.305.367.106.118.16.2.16.248 0 .17-.24.253-.72.253a.571.571 0 0 1-.183-.057A.58.58 0 0 1 0 1.66v-.05c.14-.025.235-.038.283-.038.06 0 .124-.008.195-.025.095-.023.143-.055.143-.098 0-.028-.05-.103-.15-.224A2.357 2.357 0 0 1 .193.828 1.256 1.256 0 0 1 .042.245c0-.073.044-.128.13-.165L.398.013l.03.03C.48.012.6 0 .787 0c.064 0 .144.02.24.055C1.142.1 1.2.15 1.2.203"/><path id="C" fill-rule="evenodd" d="M1.276.364c-.002-.01-.01-.023-.02-.043A2.352 2.352 0 0 0 .817.284c-.09 0-.182.053-.276.16-.094.104-.14.202-.14.292 0 .4.124.6.374.6.036 0 .095-.028.177-.084a.755.755 0 0 0 .155-.126.579.579 0 0 0 .13-.342c.006-.054.01-.18.01-.376.018-.01.028-.023.028-.042zm.905 1.153c0 .144-.096.216-.29.216-.012 0-.03-.01-.052-.03l-.034-.03a1.39 1.39 0 0 1-.215-.16l-.136-.21c-.197.12-.305.185-.32.193a.778.778 0 0 1-.36.093.203.203 0 0 1-.064-.018.239.239 0 0 0-.063-.017.114.114 0 0 0-.04.01c-.02.004-.032.007-.04.007-.167 0-.305-.083-.415-.25A.848.848 0 0 1 0 .841C0 .398.187.143.562.075.638.026.772 0 .964 0c.138 0 .274.023.41.068.174.06.277.14.308.24.017.05.028.125.034.222.005.098.014.176.025.235.018.093.05.207.098.342.065.183.116.275.152.275a.067.067 0 0 0 .028-.01c.013-.004.022-.007.027-.007.023 0 .05.02.085.06.034.04.05.07.05.092z"/><path id="D" fill-rule="evenodd" d="M1.67 1.863c0 .02-.02.11-.056.27a.758.758 0 0 0-.093.24c-.03.12-.068.2-.113.243-.096.09-.217.167-.363.232-.158.07-.297.106-.42.106-.258 0-.387-.1-.387-.3v-.03a.822.822 0 0 0 .148.055c.036 0 .09-.003.16-.007s.124-.006.16-.006c.02 0 .043-.01.07-.026.204-.133.336-.242.396-.323.082-.112.123-.276.123-.493 0-.06-.033-.123-.1-.185-.065-.063-.13-.094-.19-.094-.173 0-.34.172-.504.513l-.073.167a.152.152 0 0 1-.144.093c-.034 0-.09-.024-.167-.072C.04 2.2 0 2.162 0 2.134c0-.226.005-.5.016-.82C.02 1.13.056.874.12.54.123.514.126.488.126.466V.29C.127.098.18 0 .285 0c.068 0 .13.01.187.034.077.028.115.07.115.126a.872.872 0 0 1-.04.237l-.06.237a4.826 4.826 0 0 0-.063.752l.025.025c.262-.086.455-.13.58-.13.126 0 .265.066.415.2.15.13.226.26.226.383"/><path id="E" fill-rule="evenodd" d="M.668.308c0 .085-.047.127-.14.127C.466.435.378.39.262.302.146.214.09.142.09.085.09.062.1.035.117 0c.065.014.15.025.254.034C.57.17.668.26.668.308zm-.19 1.188c0 .034-.003.082-.01.146a5.6 5.6 0 0 0-.007.397v.268c0 .202-.022.34-.067.413a.139.139 0 0 0-.052.018.11.11 0 0 1-.054.017c-.037 0-.06-.004-.068-.012l-.034-.06-.013.043a1.11 1.11 0 0 1-.17-.61V1.67c0-.136.004-.22.013-.254.025-.102.08-.152.17-.152.075 0 .143.02.204.06a.2.2 0 0 1 .09.172z"/><path id="F" fill-rule="evenodd" d="M.545.203c0 .237-.02.59-.057 1.06A14.32 14.32 0 0 0 .43 2.32c0 .32-.05.482-.155.482-.01 0-.086-.047-.233-.14A.92.92 0 0 1 0 2.345c0-.2.015-.498.046-.896.03-.398.047-.696.047-.896V.106A.202.202 0 0 1 .275 0c.062 0 .122.02.182.057.06.038.088.087.088.146"/><path id="G" fill-rule="evenodd" d="M.668.308c0 .085-.047.127-.14.127C.466.435.378.39.262.302.146.214.09.142.09.085.09.062.1.035.117 0c.065.014.15.025.254.034C.57.17.668.26.668.308zm-.19 1.188c0 .034-.003.082-.01.146a5.6 5.6 0 0 0-.007.397v.268c0 .202-.022.34-.068.413a.144.144 0 0 0-.05.018.127.127 0 0 1-.056.017c-.037 0-.06-.004-.068-.012l-.035-.06-.012.043a1.11 1.11 0 0 1-.17-.61V1.67c0-.136.004-.22.013-.254.025-.102.08-.152.17-.152.075 0 .143.02.204.06a.2.2 0 0 1 .09.172z"/><path id="H" fill-rule="evenodd" d="M1.576 1.572a.196.196 0 0 0-.017-.063.19.19 0 0 1-.055.01.325.325 0 0 1-.12-.043.352.352 0 0 0-.12-.044c-.015 0-.083.022-.204.067-.174.064-.32.164-.44.3a.717.717 0 0 0-.202.483c0 .076.02.14.055.194a.202.202 0 0 0 .224.085.416.416 0 0 1 .055-.006c.12 0 .285-.134.5-.4.217-.267.324-.462.324-.585zm.58-.8c0 .38-.113.794-.34 1.248-.083.17-.234.35-.45.54-.243.212-.445.318-.605.318H.517a.297.297 0 0 1-.093-.05 2.122 2.122 0 0 1-.292-.22A.488.488 0 0 1 0 2.267c0-.123.065-.297.194-.523.138-.242.264-.36.376-.355a.908.908 0 0 1 .216-.135.715.715 0 0 1 .232-.085l.013.01-.007.016.012.004a.467.467 0 0 0 .098-.015.45.45 0 0 1 .097-.015c.07 0 .143.014.22.043.09.033.145.077.164.13.085-.2.137-.367.157-.502.012-.078.018-.253.018-.523 0-.16-.008-.26-.022-.296a.86.86 0 0 0 .113-.01.812.812 0 0 1 .11-.01c.08 0 .134.086.165.258-.01.034-.015.115-.012.245l.006.164c0 .046.002.078.005.098v.008z"/><path id="I" fill-rule="evenodd" d="M1.276.364c-.003-.01-.01-.023-.02-.043A2.352 2.352 0 0 0 .817.284c-.09 0-.182.053-.276.16-.094.104-.14.202-.14.292 0 .4.124.6.374.6.036 0 .095-.028.176-.084a.739.739 0 0 0 .156-.126.579.579 0 0 0 .13-.342c.006-.054.01-.18.01-.376.018-.01.028-.023.028-.042zm.905 1.153c0 .144-.096.216-.29.216-.012 0-.03-.01-.052-.03l-.034-.03a1.39 1.39 0 0 1-.215-.16l-.136-.21-.32.193a.778.778 0 0 1-.36.093.203.203 0 0 1-.064-.018.239.239 0 0 0-.063-.017.114.114 0 0 0-.04.01c-.02.004-.032.007-.04.007-.167 0-.305-.083-.415-.25A.848.848 0 0 1 0 .841C0 .398.187.143.562.075.638.026.772 0 .964 0c.138 0 .274.023.41.068.174.06.277.14.308.24.017.05.028.125.034.222.005.098.014.176.025.235.018.093.05.207.098.342.065.183.116.275.152.275a.067.067 0 0 0 .028-.01c.013-.004.022-.007.027-.007.023 0 .05.02.085.06.034.04.05.07.05.092z"/><path id="J" fill-rule="evenodd" d="M1.576 1.572a.196.196 0 0 0-.017-.063.19.19 0 0 1-.055.01.325.325 0 0 1-.12-.043.352.352 0 0 0-.12-.044c-.015 0-.083.022-.204.067-.174.064-.32.164-.44.3a.717.717 0 0 0-.202.483c0 .076.02.14.055.194a.202.202 0 0 0 .224.085.416.416 0 0 1 .055-.006c.12 0 .285-.134.5-.4.217-.267.324-.462.324-.585zm.58-.8c0 .38-.113.794-.34 1.248-.083.17-.234.35-.45.54-.243.212-.445.318-.605.318H.517a.297.297 0 0 1-.093-.05 2.122 2.122 0 0 1-.292-.22A.483.483 0 0 1 0 2.267c0-.123.065-.297.194-.523.138-.242.264-.36.376-.355a.908.908 0 0 1 .216-.135.715.715 0 0 1 .232-.085l.013.01-.007.016.012.004a.467.467 0 0 0 .098-.015.45.45 0 0 1 .097-.015c.07 0 .143.014.22.043.09.033.145.077.164.13.085-.2.137-.367.157-.502.012-.078.017-.253.017-.523 0-.16-.007-.26-.02-.296a.863.863 0 0 0 .112-.01.812.812 0 0 1 .11-.01c.08 0 .134.086.165.258-.01.034-.015.115-.012.245l.006.164c0 .046.002.078.005.098v.008z"/></defs></svg>