<svg xmlns="http://www.w3.org/2000/svg" width="83" height="21"><g fill="#9CA6B0" opacity=".7"><path d="M38.13 8.394c-.475-.253-1.118-.432-1.887-.432-1.808 0-2.895.85-3.337 1.192l.65-3.843H31l-1.782 10.516h2.558l.97-5.734c.642-.492 1.425-.91 2.27-.91.443 0 .824.135 1.075.36.47.415.382 1.04.26 1.756l-.766 4.528h2.558l.855-5.05c.114-.67.292-1.727-.866-2.382zm6.778-.522c-2.923 0-3.915 1.31-4.462 2.04l.61.254c.454-.402 1.27-1.132 2.905-1.132.732 0 1.795.194 2.12.998.128.318.125.658.092.992h.055l-.402 2.37h-.043l-.15.883c-.543.253-1.21.55-2.113.55-1.29 0-1.653-.7-1.54-1.354.163-.968 1.24-1.43 2.376-1.43.348 0 .647.038.92.097l.19-1.107a7.338 7.338 0 0 0-1.584-.167c-2.29 0-4.32.984-4.62 2.74-.23 1.37.857 2.443 2.857 2.443 1.826 0 2.914-.745 3.396-1.088l-.146.864h2.48l.78-4.603c.118-.7.27-1.712-.563-2.472-.482-.445-1.486-.878-3.16-.878zm22.433 7.3c-.19 0-.96 0-1.308-.67-.15-.255-.212-.567-.103-1.208l.587-3.475h2.795l.274-1.62H66.79l.352-2.07h-2.558l-.35 2.07H61.54l-2.334 3.798-.41.716c-.143-.403-.15-.477-.283-.835L57.175 8.2h-.846l-3.32 4.5c-.072-.373-.096-.463-.172-.806l-.99-3.694h-2.674l2.353 7.685h.942l3.348-4.437 1.845 4.437h.923l3.957-6.066h1.415l-.64 3.787c-.114.67-.13 1.34.49 1.877.65.58 1.663.625 2.125.625 1.27 0 2.02-.344 2.642-.612l-.227-.476c-.32.075-.603.15-1.007.15zm5.287-4.127c-.034.05-.107.212-.192.71-.034.195-.05.34-.06.452H79.2c.122-.834.343-2.25-.84-3.32-1.038-.925-2.56-1.03-3.405-1.03-3.48 0-5.635 1.818-6.013 4.052-.396 2.337 1.15 4.23 4.688 4.23 3.385 0 4.44-1.565 5.003-2.4l-.595-.238c-.786.67-1.617 1.37-3.405 1.37-2.607 0-2.956-1.545-3.003-2.34-.012-.032-.056-.19.03-.72.09-.54.203-.746.225-.784.415-.875.97-1.92 2.8-1.92 1.924 0 1.924 1.252 1.923 1.937h-3.98zM27.102 6.13h-2.558l-1.266 7.477c-.114.67-.13 1.34.49 1.877.652.58 1.663.625 2.125.625 1.27 0 2.02-.343 2.642-.612l-.227-.476c-.32.075-.602.15-1.006.15-.192 0-.96 0-1.31-.67-.15-.254-.21-.567-.103-1.208l.587-3.475h2.07l.273-1.61h-2.07l.352-2.08zM10.422.948c-5.4 0-9.78 4.377-9.78 9.777 0 5.4 4.38 9.777 9.78 9.777 5.4 0 9.778-4.377 9.778-9.777 0-5.4-4.377-9.777-9.778-9.777zm0 17.61a7.833 7.833 0 1 1 0-15.667 7.835 7.835 0 0 1 0 15.669zm.946-12.603H8.81l-1.266 7.477c-.113.67-.13 1.34.49 1.876.65.582 1.664.626 2.125.626 1.27 0 2.02-.342 2.64-.61l-.226-.477c-.32.074-.602.15-1.006.15-.192 0-.96 0-1.31-.672-.15-.253-.21-.565-.103-1.206l.588-3.476h2.07l.273-1.608h-2.07l.352-2.08zm69.142.889h-.643v1.658h-.532V6.844h-.642v-.4h1.816v.4zm2.475 1.658h-.532V7.124l-.38.894h-.364l-.38-.894v1.378h-.5V6.445h.616l.46 1.033.46-1.033h.62v2.057z"/></g></svg>