<svg width="640" height="640" xmlns="http://www.w3.org/2000/svg"><g fill="none" fill-rule="evenodd"><g fill="#3B4A6B"><path d="M320 0C143.27 0 0 143.268 0 320s143.27 320 320 320 320-143.27 320-320S496.73 0 320 0zm197.71 456.798c-14.928 24.64-44.67 63.134-84.792 63.134-3.72 0-106.79 6.09-211.888-98.976-107.702-107.67-101.504-198.33-101.504-200.408 0-49.75 40.438-82.164 66.038-97.696 10.436-6.33 23.994-1.702 28.35 9.7l30.916 80.906a19.481 19.481 0 0 1-4.76 21.058l-23.138 22.04c-1.856 1.768-2.37 4.502-1.156 6.76 15.062 27.966 37.29 59.542 70.322 92.574 32.618 32.618 63.774 54.512 91.398 69.254 2.264 1.208 5.002.676 6.76-1.194l21.484-22.87a19.474 19.474 0 0 1 21.404-4.76l81.088 32.288c11.208 4.464 15.73 17.87 9.478 28.19z"/></g></g></svg>