<svg xmlns="http://www.w3.org/2000/svg" width="640" height="640" viewBox="-601 77 640 640"><g><linearGradient id="a" gradientUnits="userSpaceOnUse" x1="-1069.309" y1="478.893" x2="-1069.976" y2="480.449" gradientTransform="matrix(240 0 0 240 256447 -114756.281)"><stop offset="0" stop-color="#37aee2"/><stop offset="1" stop-color="#1e96c8"/></linearGradient><circle cx="-281" cy="397" r="320" fill="url(#a)"/><path d="M-339.9 543.5c-10.1 0-8.4-3.4-11.8-13.5l-30.4-101L-148 289.2" fill="#c8daea"/><path d="M-339.9 543.5c8.4 0 11.8-3.4 16.8-8.4L-281 493l-53.9-32" fill="#a9c9dd"/><linearGradient id="b" gradientUnits="userSpaceOnUse" x1="-1067.133" y1="482.562" x2="-1066.622" y2="483.538" gradientTransform="matrix(130.4927 0 0 109.4496 138994.61 -52411.563)"><stop offset="0" stop-color="#eff7fc"/><stop offset="1" stop-color="#fff"/></linearGradient><path d="M-334.9 462.7l129.7 96c15.2 8.4 25.3 3.4 28.6-13.5l52.2-249.3c5.1-21.9-8.4-32-21.9-25.3l-308.2 119.6c-20.2 8.4-20.2 20.2-3.4 25.3l79.2 25.3 183.6-116.2c8.4-5.1 16.8-1.7 10.1 3.4" fill="url(#b)"/></g></svg>