<svg xmlns="http://www.w3.org/2000/svg" width="660" height="562"><defs><style>.cls-1,.cls-2{fill:#bbb}.cls-1{fill-rule:evenodd}</style></defs><g id="Layer_2" data-name="Layer 2"><g id="Layer_1-2" data-name="Layer 1"><path d="M579.156 295.37v35.863l4.336-.218a5.157 5.157 0 0 1 4.135-4.292 120.67 120.67 0 0 0 23.212 9.15c9.973 1.634 23.762 1.68 34.61-6.67a34.61 34.61 0 0 0 12.445-32.063 31.244 31.244 0 0 0-13.95-23.172c-19.604-12.557-43.967-24.87-47.435-31.232-3.472-6.37-4.045-22.553 15.04-26.61 0 0 30.29-3.52 34.922 31.186l4.414 1.2 1.153-35.28-7.096 2.997s-31.714-19.366-53.25-3.81a30.943 30.943 0 0 0-12.064 21.96c-1.285 11.728.81 27.876 16.425 37.173 28.485 16.956 41.5 22.174 43.387 31.176s0 19.78-11.237 23.878c-9.018 3.287-32.437 2.04-38.992-11.12a46.753 46.753 0 0 1-5.43-20.405l-4.627.29zM0 246.903l16.735-1.644 5.993 16.176 3.79-16.615 17.032-.598-14.77-8.926 4.773-16.136-12.993 10.742-14.24-9.518 6.67 15.777L0 246.904zm9.975-110.975l14.218 8.98-5.233 16.45 13.207-10.777 13.795 9.998-6.154-16.128 13.687-9.773-16.848.487-5.39-16.274-4.442 16.56-16.84.478zm63.745-91.1l7.264 15.154-13.177 11.162 16.91-2.105 6.376 15.806 3.356-16.923 16.787-1.01-14.53-8.545 4.09-16.634L88.244 53.37 73.72 44.83zm86.817-27.758l14.226 8.955-5.2 16.45 13.19-10.783 13.81 9.982-6.173-16.125 13.664-9.792-16.848.513L181.796 0l-4.41 16.552-16.85.517zm96.461 32.65l16.267-4.252 8.443 15.05 1.146-17.005 16.72-3.263-15.975-6.506 2.202-16.668-11.16 12.638-15.558-7.184 9.05 14.537-11.136 12.652zm69.949 58.187l16.35 3.922.348 17.26 9.027-14.455 16.29 5.015-11.027-13.282 9.806-13.653-15.798 5.88-10.33-13.674 1.127 17.088-15.793 5.9zM80.04 382.032a1.413 1.413 0 0 0 .27-.727 1.397 1.397 0 0 0-.73-1.47l-.828-.458c-.273-.185-.54-.365-.826-.556l-.17.28c.456.277.266.642-.1 1.2l-.642 1.006-.915 1.463c-.37.55-.55.915-1.01.636l-.183.187 1.738 1.188.19-.275c-.55-.365-.37-.646.09-1.277l.64-1.002.457.265a1.304 1.304 0 0 0 2.018-.458zm-.83-.547c-.458.74-.818.826-1.455.365l.36-.545.638-1.007c.187-.37.187-.37.456-.187.37.277.37.638.098 1.193 0 .086 0 .086-.1.18zm8.254-42.985a.874.874 0 0 0 .74.826l11.18 2.654a.738.738 0 0 0 .45 0 1.086 1.086 0 0 0 .83-1.01l.458-6.048.45-5.5a.943.943 0 0 0-.45-.736 1.004 1.004 0 0 0-.732-.094 24.844 24.844 0 0 0-10.268 6.33 18.653 18.653 0 0 0-2.478 2.93.782.782 0 0 0-.18.645zm.824-.185a20.558 20.558 0 0 1 2.936-3.39 22.943 22.943 0 0 1 9.523-5.5l-.453 5.5-.37 6.045c0 .094-.09.185-.36.185l-11.362-2.75.085-.09zm3.022 56.275c-.37-.092-.546.28-.727.55.546.09.822.274 1.373.09.91-.822 1.548-2.104 2.745-2.564v-.275a2.6 2.6 0 0 0-1.28.55c-.457.462-1.01 1.836-2.11 1.65zm-5.225-10.996l-1.642-.73-.187.27c.545.187.365.55.09 1.192l-.09.095-1.192 2.374v.1c-.367.632-.456 1.012-1.007.727l-.09.287 1.457.73c.562.267 1.468.637 2.113.086.096-.18.272-.36.36-.55a1.394 1.394 0 0 0-.545-1.92 1.6 1.6 0 0 0 1.1-.19c.183-.09.273-.27.458-.545a1.417 1.417 0 0 0-.826-1.924zm-2.194 4.858c-.374-.19-.274-.636-.088-1.102.09 0 .09-.09.09-.18l.55-1.107.267.096c.55.275.644.734.283 1.556-.1.1-.19.27-.284.375a.793.793 0 0 1-.82.362zm.913-2.66l.275-.73.46-1.102c0-.1.188-.1.273 0 .46.18.46.642.185 1.192a1.41 1.41 0 0 1-.27.366.602.602 0 0 1-.922.275z" class="cls-1"/><path d="M89.66 385.604a1.747 1.747 0 0 0 .827-.822 1.434 1.434 0 0 0 0-.64c-.184-1.193-1.192-1.193-1.835-1.098l-1.742.36v.376c.646-.187.646.18.826.91v.092l.55 2.66v.085c.092.646.18 1.11-.37 1.197l.096.27 1.648-.356a1.77 1.77 0 0 0 1.648-1.196v-.647a1.378 1.378 0 0 0-1.648-1.19zm-1.19-1.92c-.09-.18.09-.18.183-.18.457-.1.737.18.918.917v.362a.722.722 0 0 1-.645.822l-.18-.727-.276-1.193zm1.382 4.488c-.376.09-.557-.265-.65-.73a.326.326 0 0 0-.092-.27l-.185-1.2.276-.085c.552-.095.922.272 1.103 1.103v.45c0 .374-.085.73-.45.73zm-5.786-5.224l.19-.18-1.28-.827-.192.286c.19.085.467.266.19.637a4.96 4.96 0 0 1-.915.917l-1.56 1.46.913-2.843a2.14 2.14 0 0 1 .18-.547c.188-.275.466-.185.642 0l.185-.275-1.74-1.106-.18.186c.372.372.372.457.086 1.192l-1.377 4.5.19.17 3.575-3.115c.45-.36.732-.637 1.092-.457zm-8.424-.82l-.28-.188c-.647.827-1.003.92-1.554.55-.64-.365-.28-.826.082-1.46l.56-.918c.456.357.55.546.18 1.28l.276.093 1.102-1.923-.185-.09c-.46.64-.732.64-1.192.364l.827-1.377a3.058 3.058 0 0 0 .275-.366c.09-.095.46.095.552.18.455.27.55.646.27 1.468l.187.094.738-1.29-2.76-1.645-.086.182c.46.272.276.642-.095 1.288l-1.553 2.38c-.36.64-.55 1.01-1.102.64l-.09.276 2.926 1.838.374-.556.55-.82zm19.058 3.845c0 1.018-.18 1.287-.91 1.468-.643.087-.736-.37-.923-1.28l-.55-2.38c-.09-.736-.18-1.108.37-1.193v-.276l-2.012.362v.276c.55-.086.636.28.82 1.012l.55 2.834c.092.646.18 1.112-.365 1.112l.09.356 3.493-.736-.282-1.553zm10.365-1.191l-.55-1.278-1.103-2.94h-.275l-.547 2.94-.28 1.187c-.095.552-.18 1.374-.735 1.47l.1.275 1.376-.086v-.376a.473.473 0 0 1-.555-.37l.095-1 1.374-.097.37 1.012c0 .368-.37.368-.55.454l.084.28 1.558-.094.456-.096v-.27a.7.7 0 0 1-.456-.188 2.28 2.28 0 0 1-.36-.822zm-2.39-.64l.188-.638.19-1.377.54 1.377.192.546-1.108.09zm-15.117-41.249l11.454 7.697-4.672 13.384 11.084-8.525 11.096 8.524-4.676-13.384 11.45-7.698h-13.833l-4.036-13.47-4.026 13.47zM105.425 333v-.09l3.3 11H120l-9.34 6.32 3.75 10.91-8.985-6.882-9.07 6.882 3.85-10.91-9.352-6.32h11.275l3.296-10.908zm-4.76 51.6c0 .916-.19 1.747-.92 1.835-.914.085-1.373-1.098-1.558-2.294-.18-1.096-.09-2.564.824-2.655.638-.094 1.103.457 1.284 1.283l.276-.096-.276-1.732h-.274v.545a1.21 1.21 0 0 0-1.19-.37c-1.196.19-1.927 1.557-1.656 3.306.28 1.643 1.197 2.65 2.39 2.473a1.827 1.827 0 0 0 1.182-.832l.187.458h.275l-.275-1.92z" class="cls-1"/><path d="M96.905 385.793l-.55-2.845c-.093-.636-.182-1.098.37-1.187l-.095-.275-2.02.365.09.375c.562-.194.642.266.733.907l.55 2.84c.095.646.19 1.096-.372 1.198l.106.27 2.014-.37-.095-.276c-.55.1-.64-.274-.73-1.002zm12.828-56.745a24.534 24.534 0 0 1 9.17 5.42 29.058 29.058 0 0 1 3.03 3.662l-11.188 2.84a.515.515 0 0 1-.372-.27l-.45-6.147-.37-5.506h.18l-.09 11.65a.83.83 0 0 0 .09.455 1.062 1.062 0 0 0 1.192.552l11.274-2.754a.934.934 0 0 0 .55-.637.72.72 0 0 0-.085-.732 42.009 42.009 0 0 0-2.57-3.115 24.718 24.718 0 0 0-10.172-6.15.852.852 0 0 0-.647 0 .71.71 0 0 0-.55.918l.366 5.32.55 6.144.09-11.648zm-3.387 28.145a1.315 1.315 0 0 0-.37-.276.614.614 0 0 0-.552-.09.974.974 0 0 0-.817.366l-7.612 8.705a.91.91 0 0 0 .46 1.386 26.188 26.188 0 0 0 7.97 1.458 25.245 25.245 0 0 0 7.788-1.19c.185-.093 1.197-.644.46-1.474l-7.327-8.887zm-.922 10.634a22.476 22.476 0 0 1-7.79-1.463l7.61-8.71c.09 0 .09 0 .18-.086.096 0 .19.086.277.086l7.433 9.075a21.117 21.117 0 0 1-7.71 1.097zm27.776 17.235a3.345 3.345 0 0 1-.648-.556l-.73-.646-2.66-2.47-.275.186.645 2.204.552 1.824c.094.555.455 1.386 0 1.656l.18.267 1.197-.822-.18-.185a.412.412 0 0 1-.64-.17l-.375-.924 1.196-.735.733.828c.185.275-.096.455-.18.546l.084.285 1.748-1.108-.187-.27a.407.407 0 0 1-.457.09zm-3.022-.09l-.276-1.112-.28-.816.827.816.64.56-.912.552zm2.47-58.022c-.182.36.085.636.085 1.006.104.19.285.555.56.46 0-.37-.18-.55-.18-.83-.184-.176-.093-.732-.464-.637zm-19.338 54.44c.55.095.463.46.274 1.198l-.64 2.75c-.1.726-.188 1.097-.733 1.01l-.098.272 2.023.45v-.366c-.55-.085-.46-.45-.274-1.1l.642-2.837c.175-.64.175-1.102.822-.917v-.365l-1.925-.37-.09.275zm21.355-2.845c-.09-.27.09-.355.187-.45l-.187-.28-1.106.732.095.276c.555-.276.92.28 1.29.74l1.278 1.924-4.212-1.923-1.006.736.18.265c.276-.175.457-.094.827.095l1.924 2.846c.365.546.546.822.175 1.187l.1.282 1.192-.832-.188-.28c-.456.37-.817-.267-1.188-.727l-1.472-2.194 4.682 2.104.275-.182-2.297-3.39a3.227 3.227 0 0 1-.548-.926z" class="cls-1"/><path d="M136.87 365.993c.64-.73 3.576-4.217 3.385-6.142a7.686 7.686 0 0 0 2.204-6.416 4.424 4.424 0 0 0 .91-2.018c.467-.827.09-1.468 0-2.38a1.45 1.45 0 0 0-.816-1.1c-.55-.096-2.66-2.56-4.037-1.28a34.613 34.613 0 0 0 2.11-4.77c.18-1.19-.46-1.83-.732-2.66a9.772 9.772 0 0 0-.74-4.757 1.605 1.605 0 0 1-.09-.642c-1.098-1.11-.272-2.66-1.098-3.947a17.125 17.125 0 0 0-2.2-3.66 4.703 4.703 0 0 1-1.287-1.377c-.085-.736-.824-.55-1.368-.55a2.568 2.568 0 0 1-1.832-1.37 24.4 24.4 0 0 0-4.408-4.676 6.466 6.466 0 0 0-3.29-1.283 7.713 7.713 0 0 0-3.307-1.188 22.664 22.664 0 0 0-7.613-3.395c-4.944-.46-4.763 2.656-4.855 3.396 1.38 2.472 2.937 2.745 2.937 2.745 1.006.177 1.747 1.373 2.75 1.65.915.36 3.94 1.553 4.3 1.738a1.596 1.596 0 0 1 1.018 1.016c.365.54.64 1.098 1.372 1.002a23.53 23.53 0 0 1 3.667 3.757c-.554.913-.184 1.103-.184 1.103s.556.18.642 2.288h-.182l-1.652-1.648.73-1.745-3.75-2.753-1.47 1.197-2.112-1.006.094-1.923-4.4-1.473-1.1 1.653-2.278-.375-.47-1.823h-4.762l-.462 1.823-2.288.375-1.012-1.653-4.494 1.473.095 1.923-2.022 1.006-1.464-1.197-2.2 1.563s.366-.92.642-1.563c-.55-.45.187-.906.55-.906a3.53 3.53 0 0 0 2.108-.736c.276-.185 3.477-1.562 4.495-2.293a17.017 17.017 0 0 1 1.644-1.097 5.242 5.242 0 0 0 2.297-1.927 21.72 21.72 0 0 0 1.367-1.92c0-.27.096-.56-.18-.736a12.825 12.825 0 0 0-3.297.465l-.187-.184c.556-.92 2.2-2.573 2.023-3.03-.365-.736-1.187-.275-1.836-.18a18.507 18.507 0 0 0-9.81 5.585 12.282 12.282 0 0 0-1.645 1.838c-.094.09-.37.27-.455.09a6.433 6.433 0 0 0 .265-1.928s0-.916-.265-1.103c-.457-.64-1.75.187-2.665 1.103a16.546 16.546 0 0 0-2.653 2.935 19.88 19.88 0 0 0-2.938 5.32c-.094.27-.094.73-.55.82-.096-.65 0-1.65-.457-2.2-.457-.46-1.1-.183-1.557.186a28.157 28.157 0 0 0-5.775 15.853 23.155 23.155 0 0 0 2.84 10.088.857.857 0 0 1 0 .815 2.928 2.928 0 0 0-.642-.815 10.53 10.53 0 0 0-2.47-2.3c-.646 0-.83.37-.926.832a6.64 6.64 0 0 0-.18 1.468 19.745 19.745 0 0 0 2.203 10.17 42.328 42.328 0 0 0 8.893 9.715c2.018 1.193 2.834 3.3 4.495 4.863a9.004 9.004 0 0 0 3.38 1.274c.38.284 1.748.366 2.03 1.557a4.272 4.272 0 0 0-.192 1.103 6.548 6.548 0 0 1-.736 1.657 5.296 5.296 0 0 1-4.032-.19c-1.643-1.003-3.66-2.195-5.315-3.202-2.384-1.287-1.463-1.466-1.187-2.113.36-1.092 1.187-2.11 1.007-3.39-.09-1.283-2.66-2.845-2.934-3.12-.552-.272-1.008-.45-1.102.098-.27 1.007-.55 2.015-.912 3.02-2.11-1.28-3.847-.82-4.49.19a48.536 48.536 0 0 1-2.112 6.322c-.37.916.55 2.472 1.283 3.477.37.55 11.178 9.08 17.695 9.08.818 0 5.034-1.017 6.136-1.192.09 0 .286.09.185.27-.923 1.193-2.846 1.193-3.577 2.755-.46.27-1.012.637-1.463.912a6.365 6.365 0 0 1-2.473 1.006c-.83.186-1.928.366-1.928.828.455 1.468 4.673 2.756 5.403 2.94a3.292 3.292 0 0 0 3.207-.92c.37-.372.645-1.837 1.652-1.93.462-.364 1.293-1.097 2.204-1.923a46.176 46.176 0 0 1 5.775-4.123 5.272 5.272 0 0 1 2.926-2.193l.55.454.097.09a7.788 7.788 0 0 0 3.57-.28 11.692 11.692 0 0 0 4.122 3.21 9.64 9.64 0 0 1 2.203 2.02c.276.365.646.82.922 1.188a.342.342 0 0 0 .55 0l1.554 1.376c.184.09.46.18.64-.09.186 0 1.653 1.556 2.29 1.923.646-.18.646.638.92 1.012a4.547 4.547 0 0 0 5.13-1.653c.366-.188.827.183 1.197-.188.458-.366 2.02-1.097 1.093-1.19-.824-.188-1.282-.82-2.203-.733-.456-.182-.637-.827-1.093-1.008a12.544 12.544 0 0 1-2.193-.64c-2.205-1.103-3.12-2.294-3.947-2.57-.18-.18-.18-.546.09-.546.456 0 3.115.175 5.41.27a15.732 15.732 0 0 0 2.293-.095 38.355 38.355 0 0 0 12.377-6.866c.912-.922 2.285-2.48 2.285-3.205a40.643 40.643 0 0 0-1.648-5.59c-.085-.192-.456-2.39-1.282-2.39-.922-1.093-2.84.37-3.483.19-.096 0-.186-.28-.28-.65-.182-.547-.363-1.554-.553-2.196-1.552-.736-.54-.82-.18-1.28 1.188-.552.276-2.024 1.564-2.48zm-20.903-49.22a7.07 7.07 0 0 1-3.21-1.74l-.266.556c-.923-.19-2.938-1.658-2.848-.92 0 .46 2.204 1.104 2.85 1.737.264-.09.54-.276.817.096-.097.358-.914.09-.553.545a14.14 14.14 0 0 1 3.39.37c.553.18-.73.827-.73 1.102s.55 0 .827-.19c1.016-.637.826 0 1.463-.18.37 0 .64 0 .735.28-.27.636 0 1.372-.095 2.097-1.458-.085-.82-1.006-1.277-.916a10.252 10.252 0 0 1-1.833.372c-.462-1.012-1.563-.277-2.204-.917-.457-.82.74-.276.827-.547-.188-1.1-2.385-.64-2.75-.827-.366-.55-.45-1.56-1.377-1.56a.953.953 0 0 1-.737-.456c-.446-.466-.085-2.018.737-1.924.46 0 1.01 1.007 1.377.09 0-.27 0-.73.365-.826.92-.176 1.187 1.282 2.11.916.454-.09.454.918 1.09.737.29-.37.648-.556 1.017-.37.55.094.736.735 1.197.83.37.356 1.096.27 1.457.646.184.08.28.272.184.633.458.555 1.47-.552 1.385.735-.646.276-.37.913-1.568.642-1.005-.09-1.92-1.28-2.56-1.928-.37.095.18.736.18.916zm7.978 9.91c-.555-.925-1.747-1.29-2.113-2.303-.18-1.382-1.097-1.097-1.648-1.187-.09-.095-.184-.195-.27-.272-.37-.463-.55-.92-.926-1.38.096-.365.64-.736.466-1.197-.827-.73-.466-3.016 1.463-2.56.546.096 1.015-.456 1.558-.187.275.282 1.377.55-.086 1.47-.192 0-.372-.373-.557-.097.1.37.185.735-.09 1.01-.64-.37-1.093-1.097-1.83-1.287a.176.176 0 0 0-.098.276c.55.64 1.742.83 1.742 1.927-.185.46-.907-.176-.822.362.182.183.46.098.637.183.09.556.184 1.012.28 1.476a3.07 3.07 0 0 0 1.183 1.458c.37.916 1.386 1.46 1.386 2.66-.275.09-.19-.275-.275-.356zm-.82-3.22a2.96 2.96 0 0 0-.46-.542 1.475 1.475 0 0 1-.37-1.38c.91-.45-.186-1.558.454-2.104 2.012-1.84 2.383-1.107 2.383-1.107a11.78 11.78 0 0 1 .732 1.56c.275.453 1.007-.55 1.007-.55.18.366.37.73.55 1.188.19.46 1.007.37.912 1.01-.176.55-.72.73-.266 1.188.18.27.266.647.74.555.352-.283.076-1.28.722-1.01.092.187.18.457.276.65a3.483 3.483 0 0 0 .912 1.1c.74.36-.637 1.547-.36 2.102a2.12 2.12 0 0 1-.37 2.295c-.547.464-.728-1.563-.366-2.48 0-.095 0-.276-.18-.276-.366.277-.28.92-.557 1.194a47.29 47.29 0 0 1-2.1-4.854c-.466.18-.095.727-.095 1.097a24.836 24.836 0 0 0-3.024-3.206c0-.184-.086-.088-.276-.088-.365.09 1.098 1.643 2.114 2.925-.372-.085-.742-.27-1.102 0 .18.466.73.194 1.006.37a9.678 9.678 0 0 1 2.565 2.936v.455c-.465-.1-.92-.55-1.378-.27a1.398 1.398 0 0 0 1.018.545 4.446 4.446 0 0 1 1.828 2.84.67.67 0 0 1-.555.186c-.36-.556-1.008-.743-1.097-1.374-.366-.46-.736-1.006-1.373-1.006-.275.175-.73.455-.91 0-1.017-.647 0-1.93-1.198-2.385-.542-.46-1.103-.83-1.183-1.563zm-31.817 2.755l1.378 1.092 3.296-1.648-.094-1.738 2.944-1.003 1.002 1.555 3.576-.64.457-1.653h3.125l.456 1.653 3.57.64 1.008-1.554 2.94 1.004-.1 1.738 3.306 1.648 1.37-1.092 2.568 1.83-.737 1.65 2.11 2.014a12.825 12.825 0 0 0 .826 2.84s.55 1.66 1.83 1.468l-.826.732a12.037 12.037 0 0 0 4.037 6.42l.457 3.026 1.748.46v3.117a4.773 4.773 0 0 0-1.106 3.115c-.643-2.48-.738-3.03-.738-3.03-.45-3.942-2.574-3.292-3.392-2.744a3.963 3.963 0 0 0-.454.55v-1.098a1.412 1.412 0 0 0-.18-.65.87.87 0 0 0-1.102-.27l-5.5 2.29-5.132 2.102c-.094.09-.28.09-.37.286a.97.97 0 0 0-.09 1.282l6.05 9.896a1.15 1.15 0 0 0 .733.368 1.174 1.174 0 0 0 .735-.368 25.853 25.853 0 0 0 4.208-8.984 4.243 4.243 0 0 1 .466 2.293c.18.733.73 1.738-.09 2.754a2.8 2.8 0 0 0-.28 1.19c-.182.64-.27 1.46-.363 1.736-.188.917 2.386 1.38 2.474 2.02l-1.74 2.38-1.652-.642-2.66 2.566.738 1.657-2.567 1.83-1.37-1.104-3.307 1.652.1 1.748-2.94 1.002-1.007-1.557-3.572.64-.456 1.744h-3.126l-.457-1.745-3.577-.64-1.002 1.557-2.943-1.002.096-1.748-3.297-1.653-1.377 1.102-2.47-1.83.636-1.656-2.565-2.565-1.737.643-.73-1.098a44.408 44.408 0 0 0 1.368-9.998 25.036 25.036 0 0 0 4.043 8.166c.085.19.27.276.54.356a.9.9 0 0 0 1.012-.446l2.654-4.305 3.305-5.505a.728.728 0 0 0 .185-.37 1.062 1.062 0 0 0-.646-1.192l-2.936-1.187-7.883-3.207a.69.69 0 0 0-.73.187.602.602 0 0 0-.363.636v1.282a.858.858 0 0 0-1.376-.09c-.366.457-.918 1.83-1.463 2.848-.37.64-.645 1.196-.832 1.095l-.174-1.095-.104-.642-1.735-.465v-3.115l1.735-.45.37-2.384.18-1.283-.55-.37c.466-.646 5.228-5.585 5.412-9.627l2.29-2.284.73-.647-.634-1.65 2.47-1.83zm42.625 25.295c-.09.27-.916-.272-1.382-.18-.996.73-.54 1.835-.455 2.838-.455-.18-1.192-.554-1.277-.83a4.634 4.634 0 0 1 .546-2.57c.36-.73 2.745.562 2.29-2.833v-.272c.094.085.187.176.28.272.73 1.006.276 2.472 0 3.575zm-5.313 8.433c.09.178 0 .368 0 .546-1.007-.454-.743-1.005-1.748-1.005-.182 0-.182.19-.086.274a2.765 2.765 0 0 1 1.643 1.837.668.668 0 0 1-.73.365c-.648-1.377-1.836-.822-1.926-1.28a14.33 14.33 0 0 1 .28-2.024c.18-1.283 1.734-1.92 1.92-2.66a7.51 7.51 0 0 1 .36 2.76c0 .45-.085.822.285 1.19zm-2.385-6.42c.085-.186.36-.186.275-.36-.19-.276-.095-.46-.736-.646s-.46-1.103-.27-1.28a1.024 1.024 0 0 0 1.006.273c.542-.272.913.55.733.822-.37.555.18 1.28-.457 1.656 0 .268.086.544.086.823.18.555.266 1.183-.276 1.553-.54-.37.276-1.096-.36-1.46v-.092a3.11 3.11 0 0 1 0-1.288zm-1.377-3.75a23.696 23.696 0 0 1-4.495 11.268c-.09 0-.09 0-.18-.09l-6.05-9.812c-.096 0-.096-.175.094-.37l6.967-2.835 3.848-1.555v.185a18.108 18.108 0 0 1-.187 3.208zm3.21 3.39c.18 0 .09.92 0 1.648a.95.95 0 0 0-.095.457c-.095 0-.185-.18-.274-.456 0-.184-.087-1.742.37-1.648zm1.282 5.59c.09-.547 0-1.19.36-1.564 0-.18 0-.276-.18-.365-.27.09-.55 1.1-.644 1.283-.457-.543-.075-1.56-.457-2.2v-1.097c.094-1.473.456-2.93-.457-4.042a23.663 23.663 0 0 0-.465-2.38c-.17-.084-.266.097-.266.19 0 .46.37 2.192.457 2.662-.363-.187-1.01-.47-1.38-.187a2.073 2.073 0 0 1-.365-1.192l-.18-1.098c.64-.37.82-.92 1.362-1.282.37.096.476.55 1.022.457.27-.096.55-.36.65 0 .267.64-.286 1.276-.19 1.838a.33.33 0 0 0 .09.265l.55-.18a.558.558 0 0 1 .09.73c-.273 1.103 1.008 2.2.272 2.75-.812.557-.46 1.657-.36 1.93.64-.096.725-1.012 1.376-.736.266.28 1.002 3.296-.19 3.85-.737.556-.46 1.74-1.187 2.384a6.852 6.852 0 0 1 .09-2.01zm3.762-10.82c0 .275 0 1.277-.562 1.378v-3.117s1.007 0 .466.817a5.2 5.2 0 0 0 .095.923zM111.2 378.822a1.927 1.927 0 0 1 1.01-1.373 31.204 31.204 0 0 1 3.207-1.46c1.378-.46 4.398-2.295 4.68-.737a.772.772 0 0 1-.282.736h-.187a7.202 7.202 0 0 1-2.475.367 23.212 23.212 0 0 1-3.756 2.47c-.366.19-.907.28-.736-.277 0-.546-1.186.276-1.462.276zm8.524-5.038a27.21 27.21 0 0 0-5.864 2.203 10.98 10.98 0 0 0-1.557.64c-1.103.457-1.193 1.288-2.02 2.02-.73.086-1.287.176-1.838-.37-.447-.732-1.918-.362-2.097-.275-.37.275-.646.094-.922 0a1.588 1.588 0 0 0-.91-.36c-.828.084-1.84.084-2.385.82a1.552 1.552 0 0 1-2.107-.736 10.64 10.64 0 0 0-5.04-3.115c-.64-.277-1.192-.367-1.377-.457-.55-.09-1.468-.09-2.38 1.562a10.226 10.226 0 0 1-5.324-7.157c-1.097-2.194-1.192-2.38-1.192-2.38l1.928-.74 1.653 1.657-.73 1.743 3.75 2.75 1.56-1.192 2.013 1.007-.085 1.92 4.492 1.476 1.007-1.654 2.293.37.46 1.924h4.758l.462-1.924 2.294-.37 1.002 1.653 4.495-1.478-.095-1.92 2.02-1.006 1.556 1.192 3.754-2.75-.727-1.743 1.653-1.657 1.553.556s.366.184-1.372 2.113a16.058 16.058 0 0 1-3.666 6.962c-.37-.36-.46-1.097-1.012-1.287zm-19.428 5.23c.095.088-.09.27-.275.364a5.547 5.547 0 0 1-1.923-.276c-.827-.18-2.02-1.285-2.485-1.1a2.153 2.153 0 0 1-.63-.185 13.476 13.476 0 0 1-3.026-1.83c-.187-.095.455-1.277 2.104-1.006.37.088.922.268.922.268a11.487 11.487 0 0 1 5.314 3.763zm-15.948-28.045a3.596 3.596 0 0 0 0-1.468l-.09-.185a4.592 4.592 0 0 0-.367 1.653 79.145 79.145 0 0 0-.374 12.366c0 .46.1 1.928-.09 1.928h-.273c-.453-.556-.085-1.287-.275-2.013-.267-.933-.457-1.93-.642-2.935v-.552a16.228 16.228 0 0 1 .74-8.795c.45-1.568.917-2.66 1.283-2.576.545.096.915 1.193 1.096 2.576a14.393 14.393 0 0 1-.55 6.502c-.096 1.096-.182 2.293-.36 3.39 0 .366.264.736-.282.736-.176 0-.096-.456 0-.64a36.91 36.91 0 0 1 .187-9.987zm-8.436.176c.372.1.46 0 .552-.176a2.457 2.457 0 0 1 .275-.556c.825 0 1.923-.084 2.373.45v.106a20.823 20.823 0 0 1 .466 2.287c.18.917-2.015 1.193-2.104 1.836.09 1.005.735 1.922.356 3.02a18.51 18.51 0 0 1-1.187-3.297 5.927 5.927 0 0 1-.733-3.67zm.372-7.234a10.953 10.953 0 0 1 3.115-6.693c.094.537-.462 1.098-.828 1.55-.646 1.658-1.197 3.394-1.737 5.142-.19.91-.462 1.83-.643 2.75l-.093-.092a24.144 24.144 0 0 1 .184-2.66zm1.28-.096a24.638 24.638 0 0 1 8.52-12.926c1.198 0-2.568 7.983-4.938 10.083-.74 1.013-1.748 1.924-2.483 2.94-.092.272-.27.637-.365.912a.454.454 0 0 1-.372.18 2.178 2.178 0 0 1 .372-1.092 117.918 117.918 0 0 1 7.24-11.555s.188-.365-.184-.276a41.718 41.718 0 0 0-7.428 11.83l-.637 1.372-.18.18a3.33 3.33 0 0 1 .455-1.647zm9.718-13.468l-.555.54c-.09-.084-.09-.27-.09-.45.19-.557 1.188-1.387 1.377-1.652l.275.73-1.008.832zm-2.48.175a4.457 4.457 0 0 1-2.192 2.11c.64-1.006 1.552-2.195 1.552-2.195 1.096-1.472 2.565-3.396 3.396-4.495l.267-.18c.38.82-1.19 3.667-3.022 4.762zm-4.397 13.39l-.276 1.553-1.832.455v3.943s-.543-.18-1.01-.275a4.887 4.887 0 0 1-.093-2.008 5.02 5.02 0 0 1 1.824-2.48 3.252 3.252 0 0 0 .93-1.187c.18-.28.36-.556.55-.826l-.095.826zm-1.292 11.18c0 .36-.094.822-.36.822a.348.348 0 0 1-.455-.276c-.276-.73.72-.637.815-.546zm-.902 5.225a12.666 12.666 0 0 1 1.46-4.032 7.525 7.525 0 0 1 1.924-3.762l.09.09c.19 2.937-2.015 4.86-2.473 7.516v.19a9.616 9.616 0 0 0-.455 4.767c.187.356.916.356 1.377-.187.55.824.276 2.017.456 2.934l-.086.095c-.55.09-.55-1.744-.74-1.928-.18 0-.265.37-.822-.096a6.286 6.286 0 0 1-.726-5.582zm1.55 0s.09-.737.28-1.66l.916-2.007c1.368.18-.456 3.205-.73 3.667-.186.27-.376.454-.466.454s-.092-.185 0-.455zm.74.64c.086-.187.276-.462.37-.64a2.772 2.772 0 0 1 .542-.552 1.166 1.166 0 0 0-.09.552c-.09.64-.28 1.19-.366 1.923-.276.37-.732-.733-.457-1.283zm5.312-14.025h.09l8.068 3.3 2.66 1.012c.094 0 .184.176.094.366l-2.755 4.488-3.297 5.408c0 .092 0 .092-.188 0a24.38 24.38 0 0 1-4.402-10.537 28.56 28.56 0 0 1-.275-4.038zm3.665-23.095a1.292 1.292 0 0 1 .187-.552c.557-.825 1.744-1.46 1.563-.556a.97.97 0 0 1-.55.466 3.046 3.046 0 0 1-1.2.642zm11.83-7.705a5.626 5.626 0 0 1-1.743 1.835 32.133 32.133 0 0 1-4.49 3.025c-1.2.647-2.3 1.192-2.568 1.282-.187.095-1.197-.27.36-1.18.096-.102.188-.102.382-.192.996-.456 3.2-1.833 4.94-2.935 1.006-.547 1.835-1.103 2.383-1.373 0 0 0-.184-.095-.184a25.653 25.653 0 0 0-3.205 1.557c-1.658.826-3.48 1.927-5.133 2.935-1.46.922-2.66 1.744-3.392 2.295-.09.09-.187.18-.276.18a.445.445 0 0 1-.645.09c.187-.366.644-.466.92-.736a9.95 9.95 0 0 1 2.018-1.74 30.774 30.774 0 0 1 4.67-3.025c.83-.456 5.597-2.655 5.874-1.835zm-15.673 9.07a31.008 31.008 0 0 0-4.312 5.234s-1.192 1.74-2.014 3.2c0 0-.1 0-.29-.274a30.494 30.494 0 0 1 1.854-3.016c1.738-2.573 4.207-5.965 4.667-6.787a5.04 5.04 0 0 1 .83-.365 8.727 8.727 0 0 1-1.29 1.833 4.765 4.765 0 0 1 .555.176zm2.01-1.18c-.085.084-1.744 1.276-1.744 1.005 0-.37 2.304-1.928 1.744-1.006zm-.732-1.378a5.32 5.32 0 0 1 1.468-1.744c.822-.73 1.473-1.097 1.65-1.007 0 .277-.177.553-.734 1.008a4.678 4.678 0 0 1-1.377 1.007c-.095.46-.912 1.016-1.008.736zm2.84-4.678a19.093 19.093 0 0 1 9.898-4.95v.186a19.365 19.365 0 0 1-4.574 4.038 11.862 11.862 0 0 1-1.107.726 26.622 26.622 0 0 1-3.206 1.648c-.09 0-.18 0-.18-.175a11.554 11.554 0 0 1 1.827-1.473 48.758 48.758 0 0 0 5.863-4.123 41.94 41.94 0 0 0-6.593 4.124c-.455.365-1.005.73-1.46 1.102 0-.095-.096-.182-.188-.276-.28 0-1.377 1.192-2.113 2.11a7.8 7.8 0 0 1-.73.82 1.594 1.594 0 0 1 .37-.82 8.144 8.144 0 0 1 2.193-2.936zm-7.332 2.934a12.294 12.294 0 0 1 3.03-2.934 5.4 5.4 0 0 1 1.005-.457v.458a9.445 9.445 0 0 1-.82 2.935 41.423 41.423 0 0 1-5.785 9.536 5.824 5.824 0 0 1-.737.817 2.478 2.478 0 0 1 .195-.817 46.142 46.142 0 0 1 5.04-9.536c.275-.456.645-.916.91-1.287.375-.64 1.012-1.368.642-1.463-.36.095-.726.64-.907 1.01-.37.45-.927 1.1-1.377 1.74a79.523 79.523 0 0 0-4.953 9.446c-.184.456-.27.82-.365 1.002a11.12 11.12 0 0 1-.64 1.006c.174-.64.364-1.372.554-2.01a30.78 30.78 0 0 1 4.208-9.445zm-8.43 29.14c-.822.287-1.288-1.462-1.288-1.462a25.646 25.646 0 0 1 4.312-23.185c.18 0 .18.176.275.366a18.044 18.044 0 0 1-.55 4.588c-.367 1.733-2.205 8.98-2.75 10.72a23.644 23.644 0 0 0-.462 2.383c-.36-.365 0-.916 0-1.377a55.424 55.424 0 0 1 2.203-11.726 14.043 14.043 0 0 0 1.01-3.49l-.276.275c-.272 1.1-.733 2.198-1.102 3.303a30.67 30.67 0 0 0-2.472 11.637 11.826 11.826 0 0 0 .28 6.69c1.74 1.65 1.002-1.01 1.282-1.922.085-.73.73-1.377.55-2.204a7.702 7.702 0 0 1 .912-3.214.652.652 0 0 1-.36-.356 2.214 2.214 0 0 1 .09-.728c.822-.465 1.192-3.034 1.733-3.034 0-.276.19-.55 0-.82-.267.09-.637.27-.73-.186.28-1.008.094-2.2 1.01-2.847 0 0 0-.542 1.282-2.015 0 .737-2.015 3.116-1.65 4.228.087.17.277.09.467.09.362-.194.362-1.01.908-.926 0 .552-1.187 1.1-.185 1.468a4.276 4.276 0 0 0 1.927-2.472 9.064 9.064 0 0 1 1.83-3.48 17.014 17.014 0 0 1 5.78-5.78c.274-.276.64-.186.64.186 0 .175-.275 1.006-.64.45a34.294 34.294 0 0 0-4.308 5.142 21.135 21.135 0 0 0-3.398 4.944 4.2 4.2 0 0 1-1.917 1.835c-.095-.094-.276-.28-.37-.094s-1.378 3.576-2.29 6.882a26.144 26.144 0 0 0-.922 4.483c0 .37-.095.734.19 1.008 1.007-.636 1.19-1.733 1.738-2.654a.177.177 0 0 1 .276.095c-.46 1-.55 3.2-2.013 3.02 0 .18-.094.55-.094 1.107a5.706 5.706 0 0 0 .735 3.204 23.557 23.557 0 0 0 2.01 5.41c.177.274.1.46 0 .546a1.388 1.388 0 0 1-.18.283 1.623 1.623 0 0 1-.367-.46 11.287 11.287 0 0 1-1.286-2.575c0-.27.277-.36.185-.546-.365-.277-.646-.46-.735-.732-.09-.365.64-.27.46-.646-.276-.452-1.198 0-1.102-.636a13.455 13.455 0 0 0-.55-3.846c0-.276-.09-.64-.09-.927zm1.01-8.975a6.245 6.245 0 0 1-.37 2.565c-.365.64.085 1.557-.55 2.11a43.69 43.69 0 0 1 .55-4.674s.18-.728 1.562-4.678a3.95 3.95 0 0 1-.83 3.67 3.368 3.368 0 0 0-.36 1.008zm.822 17.876a3.882 3.882 0 0 1 1.012 1.373c.18.365.36.824.54 1.19l-.085 1.278h-.182c-.274-.82-.555-1.642-.824-2.468a7.773 7.773 0 0 0-.46-1.373zm12.736 17.044c-.356-.184-.546-.365-1.002-.645a.34.34 0 0 0-.276-.543 1.065 1.065 0 0 1-.74.64c-.172 0-.547 0-.642-.19a.61.61 0 0 0 .64-.365c0-.275 0-.55-.17-.64-.374.09-.187.735-.735.824a13.17 13.17 0 0 1-3.952-4.495c-.45-.456-.81-.085-1.277-.27a43.513 43.513 0 0 1-4.12-4.123c-6.146-6.5-6.23-9.442-6.322-12.473 0-.916-.184-1.824-.184-2.74a2.794 2.794 0 0 1 .086-.837c.275-.545 1.097.562 1.377.838a30.51 30.51 0 0 1 3.94 8.335c.092.275.182.645.276.916.187.826.366 1.558.55 2.295-.455-.275-.645-.917-.915-1.373-.09-.28-.28-.095-.46-.095a4.083 4.083 0 0 1-.46-.826 33.736 33.736 0 0 1-3.3-8.705l-.267-.18c-.37 0 .18 2.465 1.278 5.124-.28 0-.455-.36-.736-.175-.085 1.006 2.204 3.02 2.48 4.032v.27a54.095 54.095 0 0 1 3.484 5.78c.367.636 1.103.997 1.37 1.648.184.184.54.094.636.46.38.546.555 1.093 1.196 1.364.467.104.562.19.647-.18 0-.367-.276-.638-.276-1.1a1.674 1.674 0 0 0 .914.833l.826-.276c.28.453-.184.914-.184 1.373.74.918 2.568 3.577 2.94 3.117.55-.733.91.826 1.28 0a.6.6 0 0 0-.37-.822c-1.192.365-1.192-1.193-1.738-1.748-.64-1.197-.73-2.66-1.738-3.67a26.023 26.023 0 0 0-2.85-3.933c-.18-.18 0-.647.28-.732.64.085.366 1.277 1.107 1.277.362 0 .175-1.007.637-1.192a6.466 6.466 0 0 0 2.745 5.14c.18.184.464.45.364.73-.09.185-.27-.095-.365 0-.18.46.464.546.464.828a15.29 15.29 0 0 0 9.527 8.614.912.912 0 0 0 .462.366c.36.187 1.002.187.822.917.18.094.46.272.46.55a2.093 2.093 0 0 1-1.282.09 2.346 2.346 0 0 1-1.287-.368c-.547-.178-4.673-3.58-5.134-3.663zm2.022 3.027a5.212 5.212 0 0 1 1.187.637c.367.37.736.65.64.74.096.176-1.827.642-2.472.727a6.583 6.583 0 0 0 .456-1.466 5.726 5.726 0 0 0 .19-.637zm-14.575-8.985a1.43 1.43 0 0 1 .456.185 3.56 3.56 0 0 1 1.194.822c-.092.284-.462-.276-.733 0-.184.19 1.1.827.91 1.287-.076.09-.725-.733-.82-.46-.274.46-.178.74-.46 1.19h-.177a3.61 3.61 0 0 1-1.28-.182 6.126 6.126 0 0 1 .915-2.843zm-1.65 2.93a6.52 6.52 0 0 0 2.106 1.017 10.95 10.95 0 0 0 1.93.27 18.753 18.753 0 0 1-1.018 2.384 3.52 3.52 0 0 1-1.002-.455 7.334 7.334 0 0 0-.916-.73c-.185-.1.366-.462 0-.732 0-.1.187-.19.187-.19.642.28.642-.188.457-.276-1.097-.552-2.11-1.01-3.21-1.643.46.084 1.002.268 1.47.355zm19.7 20.992c-.09 0-.09.195-.184.275a3.584 3.584 0 0 1-1.647 1.652c-.64.092-1-.46-1.096 0-.096.547.64.18.827.643a1.3 1.3 0 0 1-.827 1.648c.18-2.018-1.74-2.2-2.384-2.29 0 0-1.738.547-1.558-.094 0-.64 1.558-1.006 2.564-1.557.1-.08.187-.08.28-.18.55-1.473 2.193-1.93 3.387-2.473a1.49 1.49 0 0 0 2.192-.546c-.35-.466.19-.647.37-.647.28 0-.095.276 0 .456.552 0 .742-.546 1.194-.546.28-.094.19.175.28.27.18.186.36-.095.55 0a10.18 10.18 0 0 1-3.946 3.392zm11.366-6.777c-2.563.27-16.77 2.653-18.14 2.843a6.9 6.9 0 0 1-4.033-.374c-1.097-.457-12.837-6.968-14.024-9.253a7.854 7.854 0 0 1-.37-.917l.18.365.74.552.185-.276c-.556-.275-.375-.64.09-1.192l.73-.92c.178.094.09.545.09 1.01l-.268 1.93.997.636.19-.27c-.19-.095-.19-.19-.19-.46l.19-2.475a1.333 1.333 0 0 0 1.558-.648.987.987 0 0 0 .276-.642 1.023 1.023 0 0 0 0-.73 5.305 5.305 0 0 0-.735-.73l-.822-.554-.827-.55-.18.28c.46.27.275.642-.1 1.187l-.726 1.097-.917 1.288c-.184.276-.366.45-.46.64v.182c-.087-.37-.087-.647.094-.822a22.598 22.598 0 0 0 1.74-5.32c.18-.448.55-.365.735-.448a.663.663 0 0 0-.092.722 37.037 37.037 0 0 0 5.04 3.305 89.718 89.718 0 0 0 9.897 5.6c.737 0 4.67-.74 8.71-1.38a82.278 82.278 0 0 1 9.353-1.198c.36 0 .73.554 1.09 1.29a31.61 31.61 0 0 1 1.378 4.853c-.185 1.558-1.377 1.378-1.377 1.378zM72.62 377.08a.36.36 0 0 0-.09.19c-.556.73-.93.824-1.387.453l-.184-.085.375-.557.363-.634c.094-.19.46-.646.46-.732.09 0 .276.086.374.086.358.27.358.73.09 1.28zm37.486 9.54c-.647-.828.55-2.937-.374-2.937-.272.096 0 .457 0 .737-.368.916-.368 2.014-1.183 2.65-.195 0-.195-.176-.105-.366a5.965 5.965 0 0 0 .55-2.564c-.084 0-.445-.36-.445.64 0 .737-.742 1.282-.83 2.013 0 .276-.553.556-.92.556 0-1.002.648-1.748.648-2.75.36-.552.45.275.45.275.19-.275.29-3.572-1-4.218-.193.187.82 1.74.358 2.936h-.353a6.786 6.786 0 0 0-1.477-3.852 2.87 2.87 0 0 0-2.66-.73 1.677 1.677 0 0 1 1.017-.737 3.05 3.05 0 0 1 1.642.372c.832.274 1.568.824 1.934.916a.42.42 0 0 0 .09-.46.33.33 0 0 1-.19-.455c1.292-.733 4.687 4.857 4.042 6.69-.28.638-.556 1.184-1.192 1.284zm10.258 5.217c.19.276.552.922.923 1.564s.82 1.287 1.1 1.373c.276-.276-.555-.826.18-1.098.913-.185 1.012 2.38 3.387 1.553.555.646 1.835.366 2.57.552 0 .094-.095.366-.19.366a7.764 7.764 0 0 0-5.13.916c-.264.184 0 .64-.264.826-.372-.457 0-1.002.264-1.467.188-.365 1.2-.18.647-.73 0 0-.462-.36-1.837 1.372-.184-.176-.184-.64-.46-.822-1.193.276-1.558-1.192-2.57-1.372-.27-.18.19-.37 0-.646a5.89 5.89 0 0 0-1.728-.82c-1.843-.553-.37-1.384-1.016-1.653-3.212-1.01-2.936-1.83-2.936-1.83.185-.55.645.18.92-.185-.095-.18-.37-.276-.275-.55.455-.282 1.462.915 1.652.83.36-.28-.284-.646.18-.646 1.008-.188 3.482 2.744 4.128 2.928.18-.184-.1-.28-.1-.46a.592.592 0 0 1 .55 0zm18.054-19.058s.19-.642 1.477.088c.086.276.27 1.002.55 1.93 0 0 .637 2.103 1.468 4.943a1.81 1.81 0 0 1-.468 1.564 118.746 118.746 0 0 1-10.164 6.602 11.098 11.098 0 0 1-5.506 1.368 38.853 38.853 0 0 1-14.665-2.015 4.987 4.987 0 0 0 .916-4.217c-.727-1.102-1.558-3.026-1.836-3.302l.18-.178a68.124 68.124 0 0 0 15.403 2.288 61.353 61.353 0 0 0 12.096-7.053c1.102-.735 1.74-1.38 1.563-1.747-.28-.367-.642-.27-1.017-.27zm-18.234 6.867a1.386 1.386 0 0 1 1.103-.636c.176 0 .27.27.365.637 0 .464 0 1.012-.19 1.197a2.617 2.617 0 0 1-.812-.187s.17-.73-.555-.455a1.218 1.218 0 0 1 .09-.555zm2.11-1.735c.094-.73 3.48-1.466 3.846-1.656a3.242 3.242 0 0 0 1.473-1.46 11.365 11.365 0 0 0 .547-1.842 5.247 5.247 0 0 1 3.12-1.923c.18-.09 1.002-.36.446.64a5.648 5.648 0 0 0-.637 1.65 6.91 6.91 0 0 0 .733 1.56c.093.186.274.366.37.557a4.316 4.316 0 0 1 .54 1.643 30.388 30.388 0 0 1-6.957 4.032 9.733 9.733 0 0 1-3.206-.175c-.18-.64-.37-1.29-.37-1.29a3.59 3.59 0 0 1 .095-1.736zm15.126-4.958c0 .562-3.577 1.928-3.577 1.928-.186.096 0 .185-.186.457 0 .183.28.183.37.373 0 .176-.465.176-.275.457.46.36-.19.64-.368.55-.184-.094-.65-1.38-.83-1.567a.695.695 0 0 1-.176-.356c-.096-.19-.096-.28.09-.37a17.092 17.092 0 0 1 2.197-.185c.188-.552 2.116-1.288 2.757-1.288zm-2.474-2.84a5.835 5.835 0 0 1 .636 1.93v.554c0 .27-.826.27-.826.27 0-.27.457-.46.096-.645-.276 0-.64.46-.742.275-.175-.275.466-.36.285-.736-.095-.176-1.376.92-1.467.645-.09-.46 1.467-1.092 1.182-1.376-.266-.36-1.377.828-1.644.828h-.09c-.184-.188.642-1.465 2.57-1.745zm-.095-2.56c-.458.55-1.103 1.002-1.198 1.734 0 .19-.362.366-.727.276-.28 0-.375-.453-.736-.367-.277.827-1.19.556-1.744 1.103-1.187 1.102-1.287-.547-1.372-.36-.742.815-1.377 1.823-2.11 2.658a15.587 15.587 0 0 0-.91 1.83c-.102.09-.37.37-.37.37-.093.27-.182.54-.553.45-.274 0-.274-.45-.644-.182-.18.457-.457 0-.723.086-.285.466-1.656 2.03-2.664 2.118a.626.626 0 0 1-.738-.19c-.45-.27-1.096 1.192-1.552 1.288-.095.09 0 .175.09.175h.55c0 .375-.55.832-1.01 1.103a7.136 7.136 0 0 1-.916.464 9.095 9.095 0 0 1-2.85-.55v-.55l1.567-.918c.097.45.362.636.733.917.284.18.366 0 .46-.19.09-.633-1.372-.823-.28-1.55.64-.46.64-.09 1.657-.285a5.02 5.02 0 0 0 2.01-1.002s.83-.365 2.303-2.935c0 0 .726-1.286 6.405-11.455a19.622 19.622 0 0 0 3.396-6.145c.185-.36.27.374.547.28.46-.556-.18-.918-.455-1.374a4.366 4.366 0 0 1-.18-2.193c.09-.19.455-.1.545.357a10.017 10.017 0 0 0 .366 1.652c.915 0 1.283-5.23 1.372-6.235v-.188c-.457-.634-1.74-.91-1.648-1.456.92-.285-.457-2.112-.547-1.377 0 .18.185.46 0 .632-1.467.1-1.202-1.367-1.563-1.735-.276-.365-1.006 0-1.1-.64a.92.92 0 0 0-.458-.917c-.365-.096-.92.276-.92-.646 0-.73 1.752.922 1.29-.546-.646-1.376-1.927-.46-2.108-.726a11.468 11.468 0 0 1-1.75-3.666c.097-.46.82.546.82-.1 0-.55-.723-1.283-.903-1.192-.826.375-1.102-.552-1.102-.912a1.883 1.883 0 0 1 0-1.017c-.18-.36-.73-.36-.824-.82-.086-.186-.276-.552 0-.825 2.012-.637 0-1.46.455-2.015.37-.365 1.292.28 1.834-.555.457-.45.542-.272.74 0 .638.555-.283 1.835.823 1.835.27 0 .65-.726 1.102-.27.64.637.545 1.188.82 2.108.457 1.274-.37 1.558-.46 1.644a.7.7 0 0 0-.18.46.876.876 0 0 0 .18.916 1.978 1.978 0 0 0 .917-.822c.1-.185.28-.185.465-.094.18.274 0 .82.18 1.096 1.463 1.557 0 2.472 0 2.472-.18-.454 0-1-.465-1.28-.27.64.285 1.566-.08 2.197a14.04 14.04 0 0 0-2.665-4.393 15.38 15.38 0 0 1-.096-2.018c-.09 0-.09-.18-.264-.09-.19 0-.105.275-.276.18-.465-.912-.647-1.928-1.197-2.835l-.188.27c.365 1.277.917 2.474 1.287 3.757h-.19l-.91-1.007c-.084 0-.186 0-.186.09.1.732 1.01 1.376 1.553 1.928l2.023 2.935a3.06 3.06 0 0 0-1.28-.46.174.174 0 0 0 0 .278 6.794 6.794 0 0 1 3.115 4.03c-.18.178-.46-.273-.546.096a3.016 3.016 0 0 0 1.647 1.283v-.457a7.835 7.835 0 0 1-1.28-4.037c.18.28.54 1.747 1.095.18.45-.085.27 1.01.45 1.2.562.544.827.73.562 1.554a1.967 1.967 0 0 0-.275 1.47c.274.544 1.376.364 1.005 1.186-.09.28-.275.646-.18.913.455.19.636.65 1.007.92.36-.46-.187-1.007-.187-1.468.282-.637-.09-1.282-.27-1.918-.46-.19-.095-.647-.095-1.012 0-.09.095 0 .095 0-.184.822 1.282.918.552 1.743.266.917.82 1.648.636 2.655.275.37.457-.086.642-.27a1.81 1.81 0 0 0 .46-1.744c-.275 0-.46-.365-.645-.365.094-.64-.457-.915-.457-1.462.188-.095.36-.095.457-.29.094-1.088-1.283-1.273-1.463-2.28 0-.73-.826-1.01-1.016-1.653.375-.274 1.387.095 1.017-.736a7.803 7.803 0 0 1-2.384-3.116c0-.086-.276-.728 0-.917.274 0 .54-.09.54-.455 0-.737-.72-1.192-1.273-1.557a11.45 11.45 0 0 1-.922-2.295c.366-.817.646-1.743 1.017-2.646-.095-.194-1.017-1.48.996-.84.182.095.924-.276 1.01-.727.55.276.464 2.47 1.015 2.384.37-.088.276-.735.826-.368a4.032 4.032 0 0 0 1.01 2.568c0 .647-.277 1.373.084 2.014 0 0 .374.46.826-.175-.085 2.645.647 2.928.742 3.014-.37.647-1.93 3.2-.19 3.39.37 0 0-1.19.455-1.556.188-.175.827.365.922 1.648.094 1.01-1.93 2.203-.642 3.486.085-.18.185-.27.27-.456a1.618 1.618 0 0 1 .37 1.274c-.92.374-.73 1.476-.73 2.21-.275.735-1.474.83-1.283 1.747.085.91-1.102 1.003-1.378 1.644 0 .095-1.833 10.45-3.21 11.55-.455.366-1.743 3.027-2.935 4.308-.27.28-.637 0-.902.18a2.723 2.723 0 0 1 .075.73c-.177.458-1.098 2.205-1.643 2.39a10.7 10.7 0 0 1-.733 1.378c-.276.546-1.928 2.56-1.928 3.753-.095 2.292.275 2.106.275 2.106.55-.27.455-1.1.55-1.648a39.03 39.03 0 0 1 3.3-3.572c.1-.18.273-.46.368-.64.637-.46.73-2.66.91-3.21.096.176.37 0 .652 0-.1.916.45 1.832 0 2.66a.687.687 0 0 0-.737.09c.086.184.457.27.276.545a4.1 4.1 0 0 0-.555.832c.185.55.366-.1.642-.1.555.277.824-.545 1.377-.09.55-.826 1.65-1.372 1.834-2.29.637-.545.637-1.376 1.006-2.016.095 0 .095-.086.185-.188.642-.545 1.01-1.37 1.924-1.552a.66.66 0 0 0 .19-.37c-.462-.36-.837.37-1.294.37a18.878 18.878 0 0 0 1.293-3.85 3.696 3.696 0 0 1 2.284-1.93.645.645 0 0 0 .185-.726c-.458.546-1.1.546-1.654.92-.175-1.656 2.94-4.494 2.94-5.594a.348.348 0 0 0-.28-.09c-.646.547-.646 1.734-1.462 1.914a25.814 25.814 0 0 1 1.102-4.853c0-.086-.095-.182-.19-.276-.64-.275-1.188 4.674-1.377 4.59-.82-.366-.178-1.743-.733-2.394a.307.307 0 0 0-.276.28 3.35 3.35 0 0 0 .37 2.472c-.268 1.654-.73 3.487-1.1 5.04l-.18.187a5.934 5.934 0 0 0-.466-1.738c-.086-.553.096-1.108-.175-1.47-.737.648-.188 1.74 0 2.476a7.932 7.932 0 0 1-.648 3.942c-.175.265.092.556 0 .83a9.27 9.27 0 0 1-.91 1.65c-1.098-1.01.09-3.577.09-3.852 0-.733-.646-.46-.742-1.102-.085-.455.74-.636.466-1.192.085-.365.73-.73.55-1.192-.466-1.368 1.007-2.836 1.007-4.026-.095-.46.64.27.736-.277.09-.726-.376-1.648.175-2.2.19-.65-.27-1.29.19-1.834a.666.666 0 0 1 1.006-.19c.277.37 0 1.19.554 1.01.365-.28.175-2.014.273-2.103a1.078 1.078 0 0 1 1.008-.46c.18 0 .276.725.92.82.638.37 1.56.455 1.56.73.084.648-1.198 1.11-.466 1.66.093.085.83-.096.83.365.09.64-.737 1.002-.556 1.738.1 1.007-1.007 1.187-1.368 1.927-.095.272.27.457.55.457.182.09.362-.09.448.185a2.057 2.057 0 0 1-.267 1.282c-.276.175-.827.27-.827.546a4.096 4.096 0 0 1-1.285 2.75c-.092 0-1.644.276-1.002 1.103.265.276.91-.46 1.002.09-1.83 3.207-2.38 4.038-2.38 4.038-.552.91-1.93.456-1.93 1.738 0 .365.367.74.097 1.012zm-2.205-.556a3.177 3.177 0 0 1 .465-2.018v-.276a.332.332 0 0 1 .086-.266c.094 0 .094.177.185.266v.187a1.913 1.913 0 0 1-.735 2.11zm-.366-2.294a2.63 2.63 0 0 1-.728 1.01c-.094 0-.19-.454-.19-1.01 0-.73.19-1.738.647-1.823a2.475 2.475 0 0 1 .268 1.824zm-4.493 3.767c.28-.46.83-.917 1.097-1.378a1.99 1.99 0 0 1-.552 1.38 3.596 3.596 0 0 1-.545.64c-.09 0-.09-.096-.176-.182a1.498 1.498 0 0 1 .177-.46z" class="cls-1"/><path d="M137.136 344.82c.83-.186.46-3.025.555-3.85.087-.456.373-.827.087-1.097-.356 0-.266.826-.64.826a17.12 17.12 0 0 0-.642-2.115c-.36-1.368.826-3.94 0-4.212 0 2.2-.36 2.2-.36 2.2a21.384 21.384 0 0 1-1.283-6.967l-.187-.092c-.27.185 0 .733-.27.92-.095.087-.095 0-.184-.088a6.786 6.786 0 0 0-.65-1.197c-.177-.1-.267.18-.177.275.177.546 1.193 2.38.827 2.844a2.035 2.035 0 0 0-.827-.922c.46 1.197 2.56 4.407 2.104 5.134l-.822-.817c-.454-.195-.27.17-.09.265a7.807 7.807 0 0 1 2.015 4.308l-.096.187a12.955 12.955 0 0 1-.912-1.098h-.275c.095.73.637 1.012 1.102 1.466 1.1.728.91 3.296.726 4.03zm-.726 31.9l.636 2.2.552 1.83c.095.554.466 1.376 0 1.56l.18.277 1.197-.737-.18-.274c-.185.09-.465.274-.64-.09l-.282-1.017 1.103-.634.73.727c.192.375-.093.466-.18.647l.087.18 1.747-1.002-.18-.276a.415.415 0 0 1-.46 0c-.182 0-.463-.37-.643-.464l-.73-.728-2.66-2.388-.276.187zm1.557 2.2l.64.642-.916.55-.27-1.192-.284-.824.83.824zm-18.979 5.04h.28l.275-1.562-3.756-.822-.37 1.558.275.095c.18-.738.55-1.197 1.103-1.003.36.17.36.085.275.722l-.73 3.114c-.096.73-.192 1.107-.733.927l-.095.36 2.015.367.094-.276c-.55-.09-.55-.448-.36-1.186l.628-3.12c.19-.642.098-.642.555-.546.46.085.64.64.546 1.372zm3.03 2.935l-.184-.922-.546-3.576h-.276l-.916 2.11-.733 1.842c-.28.444-.46 1.272-1.016 1.177v.38l1.377.08.09-.27c-.27 0-.545-.096-.45-.546l.36-.917 1.288.182.09 1.092c0 .38-.366.29-.547.29v.274l2.015.272v-.27c-.095-.105-.275-.185-.37-.276a2.87 2.87 0 0 1-.18-.92zm-2.203-1.008l.46-1.105.375-.822.17 1.192.097.822-1.102-.086zm8.895.633l-.55-2.836c-.09-.64-.188-1.096.364-1.192l-.094-.266-2.014.36.094.362c.543-.18.628.28.733.91l.546 2.848c.183.645.28 1.112-.366 1.202l.085.265 2.02-.355-.088-.375c-.555.18-.632-.18-.733-.92zm-3.3 1.387c-.736 0-.647-.557-.647-1.386v-2.47c0-.732-.09-1.102.55-1.102v-.276h-2.108v.276c.647 0 .647.37.647 1.1v2.847c0 .727 0 1.093-.647 1.093v.375h3.58l.088-1.658h-.276c-.18.916-.456 1.202-1.187 1.202z" class="cls-1"/><path d="M291.203 317.535c-.09-.12-.15-.208-.15-.208a3.146 3.146 0 0 1-.235-1.207 38.488 38.488 0 0 1-.286-13.317c-.02-23.46.973-67.486.464-71.667a27.6 27.6 0 0 0-4.9-13.634 46.32 46.32 0 0 0-34.217-18.24 54.292 54.292 0 0 0-39.57 13.277c-17.365 16.123-9.75 29.17-1.654 32.65a11.5 11.5 0 0 0 16.426-6.955c2.323-7.762-2.17-13.913-1.133-15.99a20.285 20.285 0 0 1 5.375-8.68 30.6 30.6 0 0 1 26.866-3.923c17.13 7.097 12.61 39.894 12.61 39.894a182.5 182.5 0 0 0-37.383 10.28c-38.973 17.79-38.528 48.28-35.993 57.302 4.2 14.936 18.474 23.122 35.88 20.74 20.957-2.867 37.26-18.93 37.26-18.93l.236 2.014c4.103 12.633 12.388 14.88 19.22 14.88a20.782 20.782 0 0 0 11.552-3.46 27.763 27.763 0 0 1-10.37-14.827zm-45.678 1.303c-13.644-.832-20.836-5.424-23.803-16.244-3.743-13.62 11.18-27.635 19.252-32.954 8.075-5.305 18.706-8.203 30.178-11.16l.412 49.605s-12.4 11.58-26.04 10.753z" class="cls-2"/><path d="M656.112 427.184l-.502-22.916-461.205-.498v22.915l461.707.5zm0-29.964l-.502-22.917-461.205-.498v22.916l461.707.5zM365.65 257.366a1.394 1.394 0 0 0-1.207-.247c-12.43 3.203-22.573 6.073-30.602 11.348-8.584 5.66-23.776 20.147-19.833 34.5 3.078 11.223 10.574 16.388 25.072 17.273.5.034 1 .048 1.495.048 13.457 0 25.082-10.702 25.587-11.174a1.406 1.406 0 0 0 .446-1.04l-.41-49.605a1.4 1.4 0 0 0-.548-1.104zm-26.402 60.072c-13.263-.812-19.79-5.22-22.53-15.216-3.263-11.866 9.376-25.283 18.667-31.407a94.714 94.714 0 0 1 28.018-10.525l.39 47.166c-2.306 1.99-13.04 10.662-24.545 9.982z" class="cls-1"/><path d="M562.603 327.57a20.254 20.254 0 0 1-15.968-20.055l-.412-67.29a33.146 33.146 0 0 0-19.6-30.602c-26.26-11.03-51.468 17.82-51.468 17.82l-.415-.776c-23.8-40.79-67.94-.66-67.94-.66l-.62-18.603-27.944 6.1c.902 1.015 1.794 2.045 2.624 3.158a47.33 47.33 0 0 0-35.214-18.803 55.713 55.713 0 0 0-40.653 13.648c-10.453 9.708-11.594 17.836-10.71 22.94a16.238 16.238 0 0 0 9.46 12.032 14.385 14.385 0 0 0 11.73.113 12.334 12.334 0 0 0 6.596-7.954 21.895 21.895 0 0 0-.618-12.862 10.37 10.37 0 0 1-.61-2.9 18.025 18.025 0 0 0 .716-1.7 15.488 15.488 0 0 1 4.375-6.592 29.274 29.274 0 0 1 25.36-3.643c14.313 5.93 12.432 31.947 11.873 37.4a164.6 164.6 0 0 0-36.69 10.197c-38.78 17.7-39.687 48.56-36.763 58.96 3.86 13.734 16.135 22.165 31.45 22.165a43.5 43.5 0 0 0 5.972-.416 74.017 74.017 0 0 0 36.086-17.52c3.498 10.426 10.184 15.496 20.44 15.496a22.507 22.507 0 0 0 14.977-5.72l25.674-.585v-4.19a12.596 12.596 0 0 1-10.134-1.79 11.703 11.703 0 0 1-4.598-9.572v-79.632c31.164-29.465 45.896-1.135 45.896-1.135s.562 75.358 0 82.16c-.778 9.308-21.533 9.97-21.533 9.97v4.19h61.76v-4.19a12.202 12.202 0 0 1-13.102-3.428 13.934 13.934 0 0 1-3.33-9.318v-80.52c42.492-27.755 48.723 3.97 48.723 3.97s1.137 70.25.566 77.622-21.524 11.672-21.524 11.672v4.19h57.79v-3.056a21.712 21.712 0 0 1-2.22-.29zm-156.072-6.443l-.05.104zm-22.87 13.287c-5.738 0-13.837-1.44-17.824-13.636l-.238-2.016a1.407 1.407 0 0 0-2.38-.837c-.158.16-16.205 15.772-36.464 18.54-16.84 2.28-30.318-5.438-34.338-19.73-2.74-9.752-1.76-38.762 35.225-55.64a162.626 162.626 0 0 1 36.316-10.042c.562-.1.882-.17.925-.183a1.405 1.405 0 0 0 .952-1.143c.194-1.382 4.467-33.955-13.464-41.382a24.49 24.49 0 0 0-9.313-1.657 31.29 31.29 0 0 0-19.06 5.86 18.375 18.375 0 0 0-5.064 7.63 15.32 15.32 0 0 1-.598 1.442c-.633 1.267-.19 2.803.42 4.932a19.21 19.21 0 0 1 .624 11.28 9.59 9.59 0 0 1-5.094 6.214 11.574 11.574 0 0 1-9.43-.15 13.39 13.39 0 0 1-7.8-9.926c-.764-4.422.324-11.55 9.854-20.4a52.79 52.79 0 0 1 38.484-12.912 44.627 44.627 0 0 1 33.217 17.684 26.505 26.505 0 0 1 4.635 12.963c.278 2.285.076 17.962-.14 34.558-.63 48.718-.336 51.52.42 52.244a15.374 15.374 0 0 0 18.894 4.682 22.538 22.538 0 0 1-18.755 11.624zm16.937-4.773l.116-.12zm6.274-9.24l.026-.056z" class="cls-1"/><path d="M215.822 475.693h-13.375l-2.345 5.45a8.66 8.66 0 0 0-.865 3.007 1.748 1.748 0 0 0 .75 1.39 6.543 6.543 0 0 0 3.25.775v.944H192.36v-.945a5.857 5.857 0 0 0 2.8-.99 15.627 15.627 0 0 0 2.88-4.968l12.15-28.432h.893l12.023 28.736a13.083 13.083 0 0 0 2.638 4.495 5.372 5.372 0 0 0 3.3 1.16v.945h-13.63v-.944a5.085 5.085 0 0 0 2.79-.687 1.77 1.77 0 0 0 .725-1.428 10.583 10.583 0 0 0-1.02-3.54zm-.71-1.884l-5.864-13.96-6.01 13.96zm22.388 4.943a7.67 7.67 0 0 1-4.434-7.056 7.962 7.962 0 0 1 2.612-5.962 9.285 9.285 0 0 1 6.688-2.498 10.19 10.19 0 0 1 5.783 1.63h4.94a6.283 6.283 0 0 1 1.275.067.427.427 0 0 1 .256.215 1.57 1.57 0 0 1 .153.816 2.282 2.282 0 0 1-.127.915.514.514 0 0 1-.27.203 5.596 5.596 0 0 1-1.284.077h-3.034a7.863 7.863 0 0 1-1.07 10.268 9.46 9.46 0 0 1-6.7 2.315 12.993 12.993 0 0 1-3.54-.508 6.754 6.754 0 0 0-1.516 1.693 2.717 2.717 0 0 0-.396 1.236 1.182 1.182 0 0 0 .42.842 3.075 3.075 0 0 0 1.643.585q.71.105 3.566.18 5.248.127 6.8.355a6.408 6.408 0 0 1 3.784 1.76 4.8 4.8 0 0 1 1.414 3.516 7.372 7.372 0 0 1-2.7 5.404 14.578 14.578 0 0 1-10.37 3.716 14.848 14.848 0 0 1-8.305-2.217q-1.91-1.273-1.91-2.648a2.912 2.912 0 0 1 .28-1.222 14.314 14.314 0 0 1 1.782-2.626q.178-.225 2.6-2.75a8.04 8.04 0 0 1-1.874-1.413 2.09 2.09 0 0 1-.55-1.415 4.207 4.207 0 0 1 .727-2.09 16.768 16.768 0 0 1 3.355-3.388zm-.255 8.508a12.468 12.468 0 0 0-1.808 2.422 4.353 4.353 0 0 0-.61 2.063 2.58 2.58 0 0 0 1.474 2.14 14.076 14.076 0 0 0 7.365 1.58 11.378 11.378 0 0 0 6.763-1.62 4.444 4.444 0 0 0 2.178-3.45 1.932 1.932 0 0 0-1.298-1.887 17.1 17.1 0 0 0-5.25-.662 83.94 83.94 0 0 1-8.81-.586zm4.688-22.8a3.978 3.978 0 0 0-3.16 1.505 7.004 7.004 0 0 0-1.272 4.607 9.934 9.934 0 0 0 1.732 6.245 4.107 4.107 0 0 0 3.364 1.68 4.008 4.008 0 0 0 3.183-1.454 6.892 6.892 0 0 0 1.25-4.557 10.216 10.216 0 0 0-1.76-6.346 4.04 4.04 0 0 0-3.337-1.68zm19.337 8.253a11.983 11.983 0 0 0 2.522 8.154 7.683 7.683 0 0 0 5.986 2.955 6.49 6.49 0 0 0 3.987-1.262 9.316 9.316 0 0 0 2.84-4.316l.79.51a12.136 12.136 0 0 1-3.108 6.352 8.292 8.292 0 0 1-6.446 2.868 9.408 9.408 0 0 1-7.195-3.274 12.543 12.543 0 0 1-2.992-8.802 13.316 13.316 0 0 1 3.068-9.34 10.018 10.018 0 0 1 7.708-3.35 8.62 8.62 0 0 1 6.445 2.585 9.49 9.49 0 0 1 2.522 6.917zm0-1.478h10.802a10.034 10.034 0 0 0-.536-3.156 5.044 5.044 0 0 0-1.9-2.243 4.77 4.77 0 0 0-2.634-.816 5.262 5.262 0 0 0-3.783 1.643 7.133 7.133 0 0 0-1.95 4.573zm26.037-3.057a11.02 11.02 0 0 1 7.82-4.942 5.6 5.6 0 0 1 3.287.958 6.4 6.4 0 0 1 2.19 3.147 14.548 14.548 0 0 1 .56 4.687v9.96a8.398 8.398 0 0 0 .357 3.005 2.093 2.093 0 0 0 .906.995 5.123 5.123 0 0 0 2.305.355v.918h-11.54v-.918h.485a3.874 3.874 0 0 0 2.28-.498 2.594 2.594 0 0 0 .904-1.463 14.914 14.914 0 0 0 .1-2.396v-9.55a9.685 9.685 0 0 0-.827-4.625 2.953 2.953 0 0 0-2.79-1.442 8.402 8.402 0 0 0-6.036 3.31v12.308a8.802 8.802 0 0 0 .28 2.93 2.334 2.334 0 0 0 .98 1.082 6.06 6.06 0 0 0 2.535.344v.918h-11.54v-.918h.51a2.74 2.74 0 0 0 2.406-.903 6.61 6.61 0 0 0 .624-3.454v-8.662a37.97 37.97 0 0 0-.19-5.122 2.204 2.204 0 0 0-.587-1.247 1.596 1.596 0 0 0-1.057-.33 4.857 4.857 0 0 0-1.707.38l-.38-.917 7.03-2.853h1.096zm39.561 11.924l-.28 7.158h-20.584v-.918l15.49-20.634h-7.644a10.275 10.275 0 0 0-3.236.32 2.552 2.552 0 0 0-1.247 1.21 7.436 7.436 0 0 0-.79 3.156h-1.02l.153-6.47h19.565v.944l-15.642 20.685h8.51a9.762 9.762 0 0 0 3.63-.446 3.338 3.338 0 0 0 1.54-1.566 12.087 12.087 0 0 0 .69-3.438zm10.932-16.866v18.75a8.608 8.608 0 0 0 .317 2.92 2.23 2.23 0 0 0 .94 1.082 5.064 5.064 0 0 0 2.283.354v.918h-11.337v-.918a5.303 5.303 0 0 0 2.29-.33 2.257 2.257 0 0 0 .93-1.096 8.2 8.2 0 0 0 .344-2.93v-8.99a31.79 31.79 0 0 0-.227-4.916 2.02 2.02 0 0 0-.56-1.134 1.588 1.588 0 0 0-1.045-.318 5.057 5.057 0 0 0-1.732.38l-.357-.918 7.03-2.853zm-2.12-12.203a2.572 2.572 0 0 1 2.576 2.575 2.52 2.52 0 0 1-.753 1.833 2.46 2.46 0 0 1-1.822.765 2.586 2.586 0 1 1 0-5.172zm21.784 32.867a38.313 38.313 0 0 1-4.507 3.206 6.9 6.9 0 0 1-2.93.637 5.244 5.244 0 0 1-3.987-1.653 6.075 6.075 0 0 1-1.57-4.357 5.555 5.555 0 0 1 .766-2.955 10.164 10.164 0 0 1 3.633-3.263 56.992 56.992 0 0 1 8.595-3.72v-.915a7.617 7.617 0 0 0-1.11-4.79 4.008 4.008 0 0 0-3.22-1.3 3.617 3.617 0 0 0-2.547.867 2.602 2.602 0 0 0-.97 1.985l.052 1.478a2.543 2.543 0 0 1-.596 1.81 2.06 2.06 0 0 1-1.57.637 1.975 1.975 0 0 1-1.54-.662 2.606 2.606 0 0 1-.598-1.81 5.206 5.206 0 0 1 2.242-4.024 9.688 9.688 0 0 1 6.292-1.835 10.924 10.924 0 0 1 5.094 1.046 4.804 4.804 0 0 1 2.217 2.47 13.877 13.877 0 0 1 .462 4.485v7.923a36.81 36.81 0 0 0 .124 4.09 1.738 1.738 0 0 0 .42 1.005.995.995 0 0 0 .678.257 1.378 1.378 0 0 0 .71-.18 16.168 16.168 0 0 0 2.064-1.858v1.427q-2.853 3.82-5.45 3.82a2.49 2.49 0 0 1-1.99-.862 4.71 4.71 0 0 1-.764-2.96zm0-1.658v-8.893a51.085 51.085 0 0 0-4.968 2.165 8.603 8.603 0 0 0-2.88 2.345 4.532 4.532 0 0 0-.866 2.674 4.366 4.366 0 0 0 1.098 3.047 3.32 3.32 0 0 0 2.52 1.208 9.236 9.236 0 0 0 5.096-2.546zm39.464 2.396a11.774 11.774 0 0 1-3.34 2.56 8.09 8.09 0 0 1-3.515.775 8.692 8.692 0 0 1-6.67-3.196 11.874 11.874 0 0 1-2.855-8.216 14.843 14.843 0 0 1 3.157-9.184 9.773 9.773 0 0 1 8.128-4.166 6.996 6.996 0 0 1 5.094 1.964v-4.305a35.887 35.887 0 0 0-.19-4.92 2.16 2.16 0 0 0-.6-1.248 1.568 1.568 0 0 0-1.02-.33 5.378 5.378 0 0 0-1.756.407l-.33-.894 6.956-2.853h1.145v26.98a35.995 35.995 0 0 0 .19 5.004 2.24 2.24 0 0 0 .612 1.262 1.476 1.476 0 0 0 .984.357 5.55 5.55 0 0 0 1.833-.435l.28.893-6.93 2.878h-1.172zm0-1.786V470.83a8.157 8.157 0 0 0-.918-3.16 5.27 5.27 0 0 0-2.026-2.152 4.877 4.877 0 0 0-2.458-.728 5.22 5.22 0 0 0-3.998 2.012 11.432 11.432 0 0 0-2.32 7.748 12.15 12.15 0 0 0 2.243 7.882 6.434 6.434 0 0 0 4.994 2.74 6.197 6.197 0 0 0 4.484-2.32zm13.522-10.139a11.992 11.992 0 0 0 2.525 8.154 7.685 7.685 0 0 0 5.984 2.955 6.483 6.483 0 0 0 3.986-1.262 9.303 9.303 0 0 0 2.842-4.316l.79.51a12.15 12.15 0 0 1-3.11 6.352 8.292 8.292 0 0 1-6.444 2.868 9.4 9.4 0 0 1-7.195-3.274 12.537 12.537 0 0 1-2.997-8.802 13.31 13.31 0 0 1 3.07-9.34 10.01 10.01 0 0 1 7.705-3.35 8.615 8.615 0 0 1 6.445 2.585 9.484 9.484 0 0 1 2.523 6.917zm0-1.478h10.802a9.992 9.992 0 0 0-.534-3.156 5.044 5.044 0 0 0-1.898-2.243 4.774 4.774 0 0 0-2.637-.816 5.26 5.26 0 0 0-3.783 1.643 7.134 7.134 0 0 0-1.95 4.573zm27.263-20.202v30.953a8.46 8.46 0 0 0 .318 2.904 2.247 2.247 0 0 0 .98 1.083 5.59 5.59 0 0 0 2.47.37v.917h-11.438v-.918a4.968 4.968 0 0 0 2.19-.33 2.203 2.203 0 0 0 .92-1.096 8.57 8.57 0 0 0 .33-2.93v-21.194a37.317 37.317 0 0 0-.177-4.854 2.143 2.143 0 0 0-.574-1.236 1.52 1.52 0 0 0-1.005-.33 4.778 4.778 0 0 0-1.683.407l-.43-.893 6.952-2.854zm14.495 0v30.953a8.46 8.46 0 0 0 .318 2.904 2.247 2.247 0 0 0 .98 1.083 5.59 5.59 0 0 0 2.47.37v.917h-11.438v-.918a4.968 4.968 0 0 0 2.19-.33 2.203 2.203 0 0 0 .92-1.096 8.57 8.57 0 0 0 .328-2.93v-21.194a37.317 37.317 0 0 0-.175-4.854 2.143 2.143 0 0 0-.574-1.236 1.52 1.52 0 0 0-1.006-.33 4.778 4.778 0 0 0-1.682.407l-.432-.893 6.954-2.854zm10.392 21.68a11.992 11.992 0 0 0 2.524 8.154 7.685 7.685 0 0 0 5.985 2.955 6.483 6.483 0 0 0 3.986-1.262 9.303 9.303 0 0 0 2.842-4.316l.79.51a12.15 12.15 0 0 1-3.11 6.352 8.292 8.292 0 0 1-6.444 2.868 9.4 9.4 0 0 1-7.195-3.274 12.537 12.537 0 0 1-2.997-8.802 13.31 13.31 0 0 1 3.07-9.34 10.01 10.01 0 0 1 7.704-3.35 8.615 8.615 0 0 1 6.446 2.585 9.484 9.484 0 0 1 2.523 6.917zm0-1.478h10.802a9.992 9.992 0 0 0-.534-3.156 5.044 5.044 0 0 0-1.898-2.243 4.774 4.774 0 0 0-2.637-.816 5.26 5.26 0 0 0-3.783 1.643 7.134 7.134 0 0 0-1.95 4.573zm31.542 16.025v-.944h1.3a3.433 3.433 0 0 0 3.108-1.4 7.997 7.997 0 0 0 .56-3.772v-22.316a7.134 7.134 0 0 0-.712-4.05 3.75 3.75 0 0 0-2.956-1.118h-1.3v-.944h14.062a30.652 30.652 0 0 1 11.782 1.76 14.012 14.012 0 0 1 6.496 5.856 18.09 18.09 0 0 1 2.458 9.477 17.29 17.29 0 0 1-4.378 12.048 19.278 19.278 0 0 1-14.982 5.402zm9.858-2.498a25.78 25.78 0 0 0 5.428.712 12.875 12.875 0 0 0 9.807-4.152 18.24 18.24 0 0 0 0-22.543 13.15 13.15 0 0 0-10.012-4.13 21.757 21.757 0 0 0-5.223.738zm39.97-21.526a10.338 10.338 0 0 1 8.507 4.027 12.353 12.353 0 0 1 2.725 7.897 14.867 14.867 0 0 1-1.503 6.343 10.672 10.672 0 0 1-10.013 6.47 9.885 9.885 0 0 1-8.38-4.202 13.026 13.026 0 0 1-2.622-7.948 14.115 14.115 0 0 1 1.59-6.383 10.635 10.635 0 0 1 9.694-6.204zm-.79 1.657a5.33 5.33 0 0 0-2.715.8 5.64 5.64 0 0 0-2.202 2.818 13.564 13.564 0 0 0-.84 5.173 18.03 18.03 0 0 0 2.025 8.79 6.03 6.03 0 0 0 5.337 3.694 4.968 4.968 0 0 0 4.075-2.04 11.567 11.567 0 0 0 1.605-7.005 15.977 15.977 0 0 0-2.674-9.78 5.514 5.514 0 0 0-4.61-2.45zm21.704 13.859a7.68 7.68 0 0 1-4.433-7.056 7.962 7.962 0 0 1 2.613-5.962 9.28 9.28 0 0 1 6.687-2.498 10.174 10.174 0 0 1 5.782 1.63h4.942a6.33 6.33 0 0 1 1.277.067.425.425 0 0 1 .253.215 1.548 1.548 0 0 1 .154.816 2.274 2.274 0 0 1-.13.915.51.51 0 0 1-.266.203 5.618 5.618 0 0 1-1.286.077h-3.03a7.86 7.86 0 0 1-1.07 10.268 9.46 9.46 0 0 1-6.702 2.315 13.023 13.023 0 0 1-3.54-.508 6.777 6.777 0 0 0-1.515 1.693 2.717 2.717 0 0 0-.395 1.236 1.175 1.175 0 0 0 .42.842 3.075 3.075 0 0 0 1.643.585q.712.105 3.566.18 5.252.127 6.805.355a6.407 6.407 0 0 1 3.783 1.76 4.794 4.794 0 0 1 1.416 3.516 7.377 7.377 0 0 1-2.704 5.404 14.57 14.57 0 0 1-10.366 3.716 14.858 14.858 0 0 1-8.307-2.217q-1.91-1.273-1.91-2.648a2.91 2.91 0 0 1 .278-1.222 14.346 14.346 0 0 1 1.785-2.626q.175-.225 2.597-2.75a8.08 8.08 0 0 1-1.873-1.413 2.103 2.103 0 0 1-.545-1.415 4.202 4.202 0 0 1 .724-2.09 16.82 16.82 0 0 1 3.35-3.388zm-.256 8.508a12.45 12.45 0 0 0-1.807 2.422 4.374 4.374 0 0 0-.61 2.063 2.574 2.574 0 0 0 1.478 2.14 14.067 14.067 0 0 0 7.363 1.58 11.387 11.387 0 0 0 6.765-1.62 4.44 4.44 0 0 0 2.176-3.45 1.93 1.93 0 0 0-1.297-1.887 17.11 17.11 0 0 0-5.25-.662 83.982 83.982 0 0 1-8.815-.586zm4.69-22.8a3.98 3.98 0 0 0-3.16 1.505 7.017 7.017 0 0 0-1.274 4.607 9.922 9.922 0 0 0 1.734 6.244 4.1 4.1 0 0 0 3.362 1.678 4.014 4.014 0 0 0 3.186-1.452 6.902 6.902 0 0 0 1.247-4.557 10.193 10.193 0 0 0-1.76-6.347 4.04 4.04 0 0 0-3.335-1.677zm28.632 19.44a38.313 38.313 0 0 1-4.506 3.206 6.9 6.9 0 0 1-2.93.637 5.244 5.244 0 0 1-3.987-1.653 6.075 6.075 0 0 1-1.57-4.357 5.555 5.555 0 0 1 .765-2.955 10.164 10.164 0 0 1 3.633-3.263 56.992 56.992 0 0 1 8.596-3.72v-.915a7.617 7.617 0 0 0-1.107-4.79 4.008 4.008 0 0 0-3.22-1.3 3.617 3.617 0 0 0-2.548.867 2.602 2.602 0 0 0-.97 1.985l.05 1.478a2.543 2.543 0 0 1-.595 1.81 2.06 2.06 0 0 1-1.57.637 1.975 1.975 0 0 1-1.54-.662 2.606 2.606 0 0 1-.598-1.81 5.206 5.206 0 0 1 2.242-4.024 9.688 9.688 0 0 1 6.293-1.835 10.924 10.924 0 0 1 5.094 1.046 4.804 4.804 0 0 1 2.217 2.47 13.877 13.877 0 0 1 .46 4.485v7.923a36.81 36.81 0 0 0 .126 4.09 1.738 1.738 0 0 0 .42 1.005.995.995 0 0 0 .677.257 1.378 1.378 0 0 0 .712-.18 16.168 16.168 0 0 0 2.063-1.858v1.427q-2.853 3.82-5.45 3.82a2.49 2.49 0 0 1-1.99-.862 4.71 4.71 0 0 1-.765-2.96zm0-1.658v-8.893a51.085 51.085 0 0 0-4.967 2.165 8.603 8.603 0 0 0-2.88 2.345 4.532 4.532 0 0 0-.866 2.674 4.366 4.366 0 0 0 1.097 3.047 3.32 3.32 0 0 0 2.52 1.208 9.236 9.236 0 0 0 5.096-2.546zm16.74-14.064a11.025 11.025 0 0 1 7.82-4.942 5.598 5.598 0 0 1 3.288.958 6.388 6.388 0 0 1 2.19 3.147 14.548 14.548 0 0 1 .56 4.687v9.96a8.302 8.302 0 0 0 .36 3.005 2.09 2.09 0 0 0 .903.995 5.13 5.13 0 0 0 2.305.355v.918h-11.542v-.918h.483a3.877 3.877 0 0 0 2.283-.498 2.584 2.584 0 0 0 .902-1.463 14.68 14.68 0 0 0 .103-2.396v-9.55a9.733 9.733 0 0 0-.827-4.625 2.96 2.96 0 0 0-2.79-1.442 8.405 8.405 0 0 0-6.04 3.31v12.308a8.783 8.783 0 0 0 .282 2.93 2.334 2.334 0 0 0 .98 1.082 6.06 6.06 0 0 0 2.535.344v.918h-11.54v-.918h.508a2.734 2.734 0 0 0 2.407-.903 6.586 6.586 0 0 0 .625-3.454v-8.662a37.64 37.64 0 0 0-.19-5.122 2.204 2.204 0 0 0-.584-1.247 1.603 1.603 0 0 0-1.056-.33 4.866 4.866 0 0 0-1.708.38l-.38-.917 7.03-2.853h1.094zm23.205 4.535a11.992 11.992 0 0 0 2.524 8.154 7.685 7.685 0 0 0 5.983 2.955 6.483 6.483 0 0 0 3.987-1.262 9.303 9.303 0 0 0 2.842-4.316l.79.51a12.15 12.15 0 0 1-3.11 6.352 8.292 8.292 0 0 1-6.444 2.868 9.4 9.4 0 0 1-7.195-3.274 12.537 12.537 0 0 1-2.996-8.802 13.31 13.31 0 0 1 3.07-9.34 10.01 10.01 0 0 1 7.704-3.35 8.615 8.615 0 0 1 6.447 2.585 9.484 9.484 0 0 1 2.523 6.917zm0-1.478h10.8a9.992 9.992 0 0 0-.533-3.156 5.044 5.044 0 0 0-1.898-2.243 4.774 4.774 0 0 0-2.637-.816 5.26 5.26 0 0 0-3.783 1.643 7.134 7.134 0 0 0-1.95 4.573zM197.506 535.32a11.983 11.983 0 0 0 2.522 8.154 7.683 7.683 0 0 0 5.986 2.956 6.49 6.49 0 0 0 3.987-1.262 9.316 9.316 0 0 0 2.842-4.316l.79.508a12.136 12.136 0 0 1-3.11 6.354 8.292 8.292 0 0 1-6.444 2.867 9.408 9.408 0 0 1-7.197-3.272 12.543 12.543 0 0 1-2.99-8.802 13.316 13.316 0 0 1 3.068-9.34 10.018 10.018 0 0 1 7.707-3.35 8.62 8.62 0 0 1 6.445 2.585 9.49 9.49 0 0 1 2.522 6.918zm0-1.477h10.802a10.034 10.034 0 0 0-.536-3.157 5.044 5.044 0 0 0-1.898-2.242 4.77 4.77 0 0 0-2.636-.816 5.262 5.262 0 0 0-3.783 1.643 7.133 7.133 0 0 0-1.95 4.573zm48.758 13.402a11.844 11.844 0 0 1-3.338 2.56 8.095 8.095 0 0 1-3.515.776 8.696 8.696 0 0 1-6.674-3.196 11.874 11.874 0 0 1-2.853-8.216 14.856 14.856 0 0 1 3.158-9.184 9.77 9.77 0 0 1 8.13-4.167 7 7 0 0 1 5.093 1.964v-4.304a35.13 35.13 0 0 0-.192-4.92 2.148 2.148 0 0 0-.598-1.247 1.57 1.57 0 0 0-1.02-.33 5.377 5.377 0 0 0-1.756.406l-.33-.893 6.952-2.853h1.147v26.98a36.313 36.313 0 0 0 .192 5.004 2.228 2.228 0 0 0 .612 1.262 1.47 1.47 0 0 0 .98.358 5.548 5.548 0 0 0 1.835-.435l.28.89-6.93 2.88h-1.17zm0-1.785v-12.024a8.126 8.126 0 0 0-.918-3.16 5.265 5.265 0 0 0-2.024-2.15 4.897 4.897 0 0 0-2.458-.728 5.22 5.22 0 0 0-4 2.01 11.44 11.44 0 0 0-2.32 7.75 12.16 12.16 0 0 0 2.243 7.88 6.428 6.428 0 0 0 4.993 2.74 6.2 6.2 0 0 0 4.484-2.318zm13.528-10.14a11.983 11.983 0 0 0 2.522 8.154 7.683 7.683 0 0 0 5.986 2.956 6.49 6.49 0 0 0 3.987-1.262 9.316 9.316 0 0 0 2.84-4.316l.79.508a12.136 12.136 0 0 1-3.108 6.354 8.292 8.292 0 0 1-6.446 2.867 9.408 9.408 0 0 1-7.197-3.272 12.543 12.543 0 0 1-2.992-8.802 13.316 13.316 0 0 1 3.07-9.34 10.018 10.018 0 0 1 7.706-3.35 8.62 8.62 0 0 1 6.446 2.585 9.49 9.49 0 0 1 2.522 6.918zm0-1.477h10.802a10.034 10.034 0 0 0-.536-3.157 5.044 5.044 0 0 0-1.898-2.242 4.77 4.77 0 0 0-2.636-.816 5.262 5.262 0 0 0-3.783 1.643 7.133 7.133 0 0 0-1.948 4.573zm27.284-8v18.75a8.608 8.608 0 0 0 .318 2.92 2.238 2.238 0 0 0 .944 1.082 5.046 5.046 0 0 0 2.28.355v.918H279.28v-.918a5.297 5.297 0 0 0 2.293-.33 2.28 2.28 0 0 0 .93-1.097 8.243 8.243 0 0 0 .344-2.93v-8.99a31.617 31.617 0 0 0-.23-4.915 1.996 1.996 0 0 0-.56-1.134 1.583 1.583 0 0 0-1.044-.318 5.057 5.057 0 0 0-1.732.38l-.355-.918 7.03-2.853zm-2.114-12.202a2.57 2.57 0 0 1 2.573 2.576 2.517 2.517 0 0 1-.752 1.833 2.465 2.465 0 0 1-1.82.763 2.61 2.61 0 0 1-2.6-2.597 2.48 2.48 0 0 1 .752-1.822 2.514 2.514 0 0 1 1.847-.753zm41.32 36.227l-13.35-29.07v23.082a7.067 7.067 0 0 0 .69 3.976 3.775 3.775 0 0 0 2.98 1.068h1.222v.944H305.8v-.944h1.222a3.507 3.507 0 0 0 3.11-1.324 7.73 7.73 0 0 0 .56-3.72v-22.57a7.897 7.897 0 0 0-.512-3.313 2.847 2.847 0 0 0-1.31-1.236 7.073 7.073 0 0 0-3.07-.493v-.944h9.782l12.534 27.028 12.33-27.027h9.78v.944h-1.195a3.535 3.535 0 0 0-3.133 1.324 7.73 7.73 0 0 0-.56 3.72v22.57a6.86 6.86 0 0 0 .712 3.976 3.775 3.775 0 0 0 2.98 1.068h1.196v.944H335.55v-.944h1.226a3.458 3.458 0 0 0 3.105-1.324 7.67 7.67 0 0 0 .563-3.72V520.8l-13.325 29.068zm38.088-24.025a10.338 10.338 0 0 1 8.508 4.027 12.353 12.353 0 0 1 2.725 7.898 14.867 14.867 0 0 1-1.504 6.343 10.672 10.672 0 0 1-10.012 6.47 9.885 9.885 0 0 1-8.38-4.202 13.026 13.026 0 0 1-2.622-7.948 14.115 14.115 0 0 1 1.59-6.383 10.635 10.635 0 0 1 9.694-6.204zm-.79 1.657a5.33 5.33 0 0 0-2.714.8 5.64 5.64 0 0 0-2.202 2.818 13.564 13.564 0 0 0-.842 5.172 18.03 18.03 0 0 0 2.027 8.79 6.03 6.03 0 0 0 5.335 3.695 4.968 4.968 0 0 0 4.075-2.04 11.567 11.567 0 0 0 1.606-7.006 15.977 15.977 0 0 0-2.674-9.782 5.514 5.514 0 0 0-4.612-2.448zm22.26 3.285a11.025 11.025 0 0 1 7.822-4.942 5.598 5.598 0 0 1 3.288.96 6.388 6.388 0 0 1 2.19 3.145 14.548 14.548 0 0 1 .56 4.686v9.96a8.302 8.302 0 0 0 .36 3.007 2.09 2.09 0 0 0 .902.996 5.13 5.13 0 0 0 2.305.354v.918h-11.54v-.918h.482a3.877 3.877 0 0 0 2.282-.497 2.584 2.584 0 0 0 .903-1.463 14.68 14.68 0 0 0 .102-2.397v-9.552a9.733 9.733 0 0 0-.826-4.622 2.96 2.96 0 0 0-2.79-1.442 8.405 8.405 0 0 0-6.04 3.31v12.306a8.783 8.783 0 0 0 .282 2.93 2.334 2.334 0 0 0 .98 1.082 6.06 6.06 0 0 0 2.536.344v.918h-11.54v-.918h.508a2.734 2.734 0 0 0 2.407-.903 6.586 6.586 0 0 0 .625-3.453v-8.662a37.64 37.64 0 0 0-.19-5.12 2.204 2.204 0 0 0-.585-1.248 1.603 1.603 0 0 0-1.057-.33 4.866 4.866 0 0 0-1.71.38l-.38-.917 7.03-2.853h1.095zm30.7-4.942a10.338 10.338 0 0 1 8.51 4.027 12.353 12.353 0 0 1 2.724 7.898 14.867 14.867 0 0 1-1.503 6.343 10.672 10.672 0 0 1-10.01 6.47 9.885 9.885 0 0 1-8.38-4.202 13.026 13.026 0 0 1-2.623-7.948 14.115 14.115 0 0 1 1.59-6.383 10.635 10.635 0 0 1 9.695-6.204zm-.79 1.657a5.33 5.33 0 0 0-2.713.8 5.64 5.64 0 0 0-2.202 2.818 13.564 13.564 0 0 0-.84 5.172 18.03 18.03 0 0 0 2.025 8.79 6.03 6.03 0 0 0 5.337 3.695 4.968 4.968 0 0 0 4.075-2.04 11.567 11.567 0 0 0 1.606-7.006 15.977 15.977 0 0 0-2.674-9.782 5.514 5.514 0 0 0-4.613-2.448zm13.784 1.35l7.184-2.905h.97v5.454a13.19 13.19 0 0 1 3.628-4.32 6.733 6.733 0 0 1 3.833-1.236 7.38 7.38 0 0 1 5.86 2.754 12.986 12.986 0 0 1 2.878 8.76 14.603 14.603 0 0 1-3.464 9.99 9.18 9.18 0 0 1-7.184 3.234 9 9 0 0 1-3.258-.534 7.643 7.643 0 0 1-2.294-1.53v7.107a9.396 9.396 0 0 0 .293 3.043 2.153 2.153 0 0 0 1.018 1.03 6.25 6.25 0 0 0 2.637.385v.944h-12.228v-.944h.637a4.652 4.652 0 0 0 2.397-.534 1.838 1.838 0 0 0 .75-.908 10.775 10.775 0 0 0 .27-3.17v-22.063a12.008 12.008 0 0 0-.204-2.88 1.733 1.733 0 0 0-.65-.918 2.098 2.098 0 0 0-1.212-.304 4.577 4.577 0 0 0-1.55.355zm8.153 4.053v8.71a18.96 18.96 0 0 0 .227 3.72 4.757 4.757 0 0 0 1.75 2.6 5.398 5.398 0 0 0 3.5 1.12 5.024 5.024 0 0 0 4.125-1.986 11.475 11.475 0 0 0 2.066-7.312 12.744 12.744 0 0 0-2.345-8.23 4.876 4.876 0 0 0-3.872-1.986 5.278 5.278 0 0 0-2.418.61 14.167 14.167 0 0 0-3.033 2.753zm31.03-7.06a10.338 10.338 0 0 1 8.508 4.027 12.353 12.353 0 0 1 2.725 7.898 14.867 14.867 0 0 1-1.504 6.343 10.672 10.672 0 0 1-10.012 6.47 9.885 9.885 0 0 1-8.38-4.202 13.026 13.026 0 0 1-2.622-7.948 14.115 14.115 0 0 1 1.592-6.383 10.635 10.635 0 0 1 9.693-6.204zm-.79 1.657a5.33 5.33 0 0 0-2.715.8 5.64 5.64 0 0 0-2.202 2.818 13.564 13.564 0 0 0-.84 5.172 18.03 18.03 0 0 0 2.026 8.79 6.03 6.03 0 0 0 5.336 3.695 4.968 4.968 0 0 0 4.075-2.04 11.567 11.567 0 0 0 1.606-7.006 15.977 15.977 0 0 0-2.674-9.782 5.514 5.514 0 0 0-4.613-2.448zm23.49-13.86v30.953a8.46 8.46 0 0 0 .318 2.905 2.247 2.247 0 0 0 .98 1.083 5.59 5.59 0 0 0 2.47.37v.918h-11.44v-.918a4.968 4.968 0 0 0 2.192-.33 2.203 2.203 0 0 0 .918-1.097 8.57 8.57 0 0 0 .33-2.93V523.4a37.317 37.317 0 0 0-.176-4.854 2.143 2.143 0 0 0-.575-1.236 1.52 1.52 0 0 0-1.006-.33 4.778 4.778 0 0 0-1.684.407l-.43-.893 6.952-2.853zm14.518 12.203v18.75a8.608 8.608 0 0 0 .318 2.92 2.23 2.23 0 0 0 .94 1.082 5.064 5.064 0 0 0 2.283.355v.918h-11.34v-.918a5.312 5.312 0 0 0 2.294-.33 2.257 2.257 0 0 0 .93-1.097 8.2 8.2 0 0 0 .343-2.93v-8.99a31.79 31.79 0 0 0-.227-4.915 2.02 2.02 0 0 0-.56-1.134 1.588 1.588 0 0 0-1.045-.318 5.074 5.074 0 0 0-1.733.38l-.355-.918 7.03-2.853zm-2.118-12.202a2.572 2.572 0 0 1 2.575 2.576 2.52 2.52 0 0 1-.753 1.833 2.46 2.46 0 0 1-1.823.763 2.586 2.586 0 1 1 0-5.172z" class="cls-2"/></g></g></svg>