<svg xmlns="http://www.w3.org/2000/svg" viewBox="0 0 660 374"><defs><style>.cls-1{fill:#bbb}</style></defs><g id="Layer_2" data-name="Layer 2"><g id="Layer_1-2" data-name="Layer 1"><path d="M253.225 21.4a3.108 3.108 0 0 0 2.75.448 3.458 3.458 0 0 0 1.687-.914 3.073 3.073 0 0 0 .638-3.134 9.56 9.56 0 0 0-.527-1.26 8.857 8.857 0 0 1-.563-1.406 3.054 3.054 0 0 1 .998-3.068 7.21 7.21 0 0 1 3.26-1.8q3.854-.954 5.673 1.146 1.076 1.256 1.983 4.912l.755 3.047q-8.99 6.168-11.768 9.15-4.36 4.79-3.065 10.01a7.56 7.56 0 0 0 3.638 4.97 7.71 7.71 0 0 0 5.907.85 12.633 12.633 0 0 0 5.75-3.49 34.76 34.76 0 0 0 3.807-4.688 7.325 7.325 0 0 0 2.145 3.488 4.128 4.128 0 0 0 3.943.705 7.61 7.61 0 0 0 3.78-2.346 11.995 11.995 0 0 0 1.93-2.856l-.49-1.983a14.448 14.448 0 0 1-1.544 1.79 3.114 3.114 0 0 1-1.3.61 1.96 1.96 0 0 1-2.322-1.044 9.88 9.88 0 0 1-1.002-2.806l-3.575-14.435q-1.177-4.75-3.122-6.905-3.604-3.92-10.578-2.193-6.006 1.487-8.432 5.013-2.427 3.527-1.802 6.046a3.76 3.76 0 0 0 1.45 2.145zm19.93 11.2a4.02 4.02 0 0 1-1.348 3.924 8.916 8.916 0 0 1-4.238 2.46 5.432 5.432 0 0 1-3.393-.227q-2.55-1.01-3.36-4.285-1.007-4.06 3.4-8.554a34.25 34.25 0 0 1 6.113-4.72zm16.065-19.14a3.11 3.11 0 0 0 2.662.824 3.455 3.455 0 0 0 1.797-.67 3.072 3.072 0 0 0 1.07-3.013 9.578 9.578 0 0 0-.347-1.32 8.863 8.863 0 0 1-.362-1.472 3.053 3.053 0 0 1 1.417-2.898 7.222 7.222 0 0 1 3.48-1.328q3.95-.407 5.457 1.926.89 1.393 1.278 5.14l.322 3.124q-9.76 4.85-12.928 7.417-4.986 4.132-4.432 9.484a7.56 7.56 0 0 0 2.91 5.428 7.71 7.71 0 0 0 5.73 1.665 12.636 12.636 0 0 0 6.18-2.652 34.763 34.763 0 0 0 4.424-4.112 7.32 7.32 0 0 0 1.638 3.753 4.13 4.13 0 0 0 3.807 1.25 7.61 7.61 0 0 0 4.07-1.798 12.003 12.003 0 0 0 2.31-2.557l-.21-2.03a14.498 14.498 0 0 1-1.778 1.555 3.12 3.12 0 0 1-1.373.425 1.96 1.96 0 0 1-2.155-1.36 9.897 9.897 0 0 1-.6-2.92l-1.528-14.79q-.503-4.87-2.13-7.274-3.02-4.385-10.168-3.648-6.155.635-9.05 3.79t-2.626 5.734a3.76 3.76 0 0 0 1.135 2.327zm18.174 13.868a4.018 4.018 0 0 1-1.882 3.696 8.918 8.918 0 0 1-4.54 1.847 5.43 5.43 0 0 1-3.326-.7q-2.384-1.353-2.73-4.71-.43-4.162 4.56-7.996a34.25 34.25 0 0 1 6.71-3.822zM337.53 34.2q-3.26-.31-4.142-1.423-.883-1.113-.654-3.806l1.74-20.475a13.888 13.888 0 0 1 4.08-2.926 8.73 8.73 0 0 1 4.496-.873 4.937 4.937 0 0 1 4.812 4.075q.548 2.223.06 7.954l-.886 10.422q-.418 4.924-1.48 6.065-1.06 1.143-4.594 1.278l-.088 1.04 16.96 1.444.087-1.04q-3.394-.398-4.318-2.023a7.955 7.955 0 0 1-.673-4.584l1.62-19.05a23.788 23.788 0 0 1 3.612-2.685 8.474 8.474 0 0 1 4.9-1.192q3.99.34 5.095 3.5a13.63 13.63 0 0 1 .324 5.373l-1.358 15.996q-.263 3.097-1.357 4.02t-4.305.948l-.09 1.04 16.648 1.416.09-1.04q-3.037-.552-4.13-1.593-1.097-1.038-.875-3.653l1.31-15.39q.504-5.933-.408-8.775-1.58-5.028-7.518-5.533a12.967 12.967 0 0 0-7.352 1.687 30.91 30.91 0 0 0-5.11 3.705 11.344 11.344 0 0 0-1.623-3.98 7.59 7.59 0 0 0-5.803-3.104 12.398 12.398 0 0 0-5.546.816 28.1 28.1 0 0 0-6.674 4.073l.425-5a4.302 4.302 0 0 0 .022-.703.21.21 0 0 0-.21-.205q-.187-.016-3.62 1.016t-4.933 1.41l-2.766.7-.106 1.248a6.23 6.23 0 0 1 .932-.18 6.854 6.854 0 0 1 1.177.024 2.986 2.986 0 0 1 2.324 1.064q.652.923.416 3.697l-1.62 19.04q-.27 3.19-1.834 4.125-1.02.615-3.913.626l-.09 1.04 16.857 1.435zm45.043 6.706a1.1 1.1 0 0 1 .827-.092 22.948 22.948 0 0 1 3.008 1.578 20.102 20.102 0 0 0 4.642 2.023q5.08 1.385 8.96-.445a9.01 9.01 0 0 0 5.034-6.062q1.505-5.52-4.96-11.745l-4.016-3.823q-4.22-3.918-3.32-7.21a5.29 5.29 0 0 1 6.81-3.68 7.433 7.433 0 0 1 5.476 5.33 17.115 17.115 0 0 1 .475 5.926l1.006.275 2.52-10.028-.91-.247a1.497 1.497 0 0 1-.647.4 2.005 2.005 0 0 1-.977-.086 20.27 20.27 0 0 1-2.37-1.405 14.724 14.724 0 0 0-3.98-1.843 10.74 10.74 0 0 0-7.907.618 8.785 8.785 0 0 0-4.663 5.812 8.667 8.667 0 0 0 .543 6.235 23.958 23.958 0 0 0 5.154 6.52l3.35 3.375a9.484 9.484 0 0 1 2.38 3.57 5.522 5.522 0 0 1 .096 3.14 5.28 5.28 0 0 1-2.596 3.427 6.05 6.05 0 0 1-4.62.333 8.355 8.355 0 0 1-6.202-6 19.422 19.422 0 0 1-.496-6.866l-1.16-.316-3.158 11.586 1.007.275a2.106 2.106 0 0 1 .693-.574z" class="cls-1"/><path d="M571.796 296.317v-2.913a243.427 243.427 0 0 0-17.18-90.076l35.114-15.692a8.95 8.95 0 0 0-7.143-16.41l-35.523 15.05a245.423 245.423 0 0 0-115.05-113.73l14.685-35.03a8.95 8.95 0 0 0-16.44-7.08L414.875 65.22a242.87 242.87 0 0 0-172.71-.207L226.873 30.44a8.95 8.95 0 0 0-16.44 7.08l14.58 34.78a245.4 245.4 0 0 0-115.21 113.232l-33.762-14.305a8.95 8.95 0 0 0-7.143 16.41l33.314 14.888a243.347 243.347 0 0 0-17.5 90.853v2.924h51.41v-2.924a195.383 195.383 0 0 1 12.875-69.946l133.707 59.75a46.243 46.243 0 0 0-1.248 10.648h92.31a46.36 46.36 0 0 0-.932-9.265l134.944-60.303a195.764 195.764 0 0 1 12.61 69.31v2.933zM328.253 55.09a235.972 235.972 0 0 1 84.254 15.48l-15.523 35.094a195.19 195.19 0 0 0-136.934-.224l-15.514-35.073a235.984 235.984 0 0 1 83.717-15.276zm-197.96 235.362h-39.72a237.44 237.44 0 0 1 16.978-85.543l36.153 16.155a200.114 200.114 0 0 0-13.41 69.387zm-15.104-102.64A239.54 239.54 0 0 1 227.275 77.69l14.877 35.49a199.54 199.54 0 0 0-53.91 39.094 202.632 202.632 0 0 0-36.63 50.966zm177.913 75.376l-136.192-57.7a194.51 194.51 0 0 1 87.48-86.972l57.44 137.02a46.396 46.396 0 0 0-8.727 7.652zm34.505-15.515c-1.533 0-3.048.08-4.543.225l-60.662-137.14a190.085 190.085 0 0 1 132.232.215L333.97 248.12a46.506 46.506 0 0 0-6.362-.447zm35.42 16.572a46.413 46.413 0 0 0-8.165-7.66l57.764-137.79a194.622 194.622 0 0 1 87.29 87.455zm142.17-60.233a202.944 202.944 0 0 0-36.935-51.638 199.698 199.698 0 0 0-53.404-38.903l14.895-35.533a239.548 239.548 0 0 1 111.93 110.617zm7.858 17.888l36.21-16.182a237.486 237.486 0 0 1 16.665 84.773l-39.718.145a200.33 200.33 0 0 0-13.156-68.735zM25.983 334.004a7.402 7.402 0 0 0-1.428-.07h-5.54a11.413 11.413 0 0 0-6.48-1.828 10.405 10.405 0 0 0-7.495 2.798 8.925 8.925 0 0 0-2.927 6.68 8.592 8.592 0 0 0 4.968 7.91 18.762 18.762 0 0 0-3.754 3.798 4.702 4.702 0 0 0-.813 2.34 2.337 2.337 0 0 0 .614 1.587 8.993 8.993 0 0 0 2.098 1.583q-2.713 2.827-2.912 3.084a15.926 15.926 0 0 0-2 2.94 3.26 3.26 0 0 0-.313 1.37q0 1.543 2.14 2.97a16.64 16.64 0 0 0 9.31 2.484q7.166 0 11.62-4.167 3.027-2.827 3.027-6.053a5.38 5.38 0 0 0-1.584-3.94 7.172 7.172 0 0 0-4.24-1.97q-1.742-.258-7.624-.4-3.2-.086-4-.2a3.446 3.446 0 0 1-1.84-.657 1.322 1.322 0 0 1-.47-.942 3.04 3.04 0 0 1 .44-1.385 7.53 7.53 0 0 1 1.7-1.898 14.586 14.586 0 0 0 3.97.57 10.596 10.596 0 0 0 7.51-2.597 8.81 8.81 0 0 0 1.198-11.507h3.397a6.32 6.32 0 0 0 1.442-.086.586.586 0 0 0 .3-.228 2.55 2.55 0 0 0 .143-1.028 1.752 1.752 0 0 0-.17-.914.49.49 0 0 0-.287-.244zM6.796 359.03a94.135 94.135 0 0 0 9.88.658q4.396.113 5.88.742a2.163 2.163 0 0 1 1.457 2.113q0 2.056-2.44 3.87t-7.582 1.812q-5.396 0-8.25-1.77a2.89 2.89 0 0 1-1.657-2.4 4.888 4.888 0 0 1 .685-2.31 14.047 14.047 0 0 1 2.028-2.714zm9.565-11.45a4.498 4.498 0 0 1-3.568 1.63 4.6 4.6 0 0 1-3.77-1.886q-1.94-2.484-1.94-6.995 0-3.483 1.427-5.17a4.46 4.46 0 0 1 3.54-1.684 4.524 4.524 0 0 1 3.74 1.885q1.97 2.57 1.97 7.11 0 3.484-1.4 5.11zm23.511 8.81a9.612 9.612 0 0 1-.356-3.27v-21.014H38.26l-7.88 3.198.4 1.027a5.715 5.715 0 0 1 1.94-.427 1.772 1.772 0 0 1 1.17.357 2.242 2.242 0 0 1 .63 1.27 35.65 35.65 0 0 1 .256 5.51v10.08a9.227 9.227 0 0 1-.385 3.284 2.545 2.545 0 0 1-1.04 1.228 5.908 5.908 0 0 1-2.57.37v1.028h12.705v-1.027a5.65 5.65 0 0 1-2.556-.4 2.498 2.498 0 0 1-1.058-1.214zm-2.726-32.165a2.757 2.757 0 0 0 2.04-.857 2.83 2.83 0 0 0 .844-2.055 2.875 2.875 0 0 0-2.884-2.884 2.817 2.817 0 0 0-2.07.84 2.913 2.913 0 0 0 2.07 4.955zm23.554 7.881a12.053 12.053 0 0 0-6.167 1.7 12.18 12.18 0 0 0-4.697 5.253 15.8 15.8 0 0 0-1.784 7.15 14.594 14.594 0 0 0 2.94 8.91 11.083 11.083 0 0 0 9.395 4.71 11.964 11.964 0 0 0 11.22-7.252 16.67 16.67 0 0 0 1.686-7.11 13.854 13.854 0 0 0-3.055-8.85 11.592 11.592 0 0 0-9.537-4.512zm5.483 23.413a5.574 5.574 0 0 1-4.568 2.283q-3.712 0-5.982-4.14a20.193 20.193 0 0 1-2.27-9.85 15.185 15.185 0 0 1 .942-5.797 6.31 6.31 0 0 1 2.47-3.155 5.96 5.96 0 0 1 3.04-.898 6.18 6.18 0 0 1 5.17 2.74q2.997 3.998 2.997 10.965 0 5.568-1.8 7.852zm30.465-2.056a7.506 7.506 0 0 1-5.025 1.913 7.058 7.058 0 0 1-6.21-3.583 14.973 14.973 0 0 1-2.3-8.266 11.238 11.238 0 0 1 2.314-7.395 5.665 5.665 0 0 1 4.597-2.113 4.122 4.122 0 0 1 2.77.855 3.747 3.747 0 0 1 1.156 2.57 4.505 4.505 0 0 0 .642 2.284 3.04 3.04 0 0 0 2.542 1.084 2.712 2.712 0 0 0 1.955-.67 2.323 2.323 0 0 0 .7-1.757q0-2.197-2.485-4.24a9.656 9.656 0 0 0-6.34-2.04 11.73 11.73 0 0 0-8.807 3.853q-3.67 3.855-3.67 10.022 0 6.368 3.313 10.108a10.083 10.083 0 0 0 7.767 3.74 9.96 9.96 0 0 0 6.824-2.783 14.17 14.17 0 0 0 4.14-7.953l-.827-.4a12.91 12.91 0 0 1-3.055 4.77zm21.585-21.357a12.053 12.053 0 0 0-6.167 1.7 12.18 12.18 0 0 0-4.697 5.253 15.8 15.8 0 0 0-1.786 7.15 14.594 14.594 0 0 0 2.94 8.91 11.083 11.083 0 0 0 9.395 4.71 11.964 11.964 0 0 0 11.22-7.252 16.67 16.67 0 0 0 1.685-7.11 13.854 13.854 0 0 0-3.055-8.85 11.592 11.592 0 0 0-9.537-4.512zm5.482 23.413a5.574 5.574 0 0 1-4.568 2.283q-3.712 0-5.982-4.14a20.193 20.193 0 0 1-2.27-9.85 15.185 15.185 0 0 1 .942-5.797 6.31 6.31 0 0 1 2.47-3.155 5.96 5.96 0 0 1 3.04-.898 6.18 6.18 0 0 1 5.17 2.74q2.997 3.998 2.997 10.965 0 5.568-1.8 7.852zm37.275.857a9.48 9.48 0 0 1-.358-3.255v-34.69h-1.285l-7.795 3.197.485 1a5.335 5.335 0 0 1 1.885-.458 1.697 1.697 0 0 1 1.128.37 2.387 2.387 0 0 1 .642 1.386 41.22 41.22 0 0 1 .2 5.438v23.756a9.565 9.565 0 0 1-.37 3.284 2.475 2.475 0 0 1-1.03 1.228 5.533 5.533 0 0 1-2.454.37v1.03h12.82V358a6.308 6.308 0 0 1-2.77-.413 2.52 2.52 0 0 1-1.1-1.214zm27.708-21.401a9.66 9.66 0 0 0-7.224-2.898 11.224 11.224 0 0 0-8.637 3.754q-3.44 3.757-3.44 10.466 0 6.197 3.354 9.865a10.548 10.548 0 0 0 8.067 3.67 9.3 9.3 0 0 0 7.224-3.212 13.61 13.61 0 0 0 3.485-7.124l-.886-.57a10.426 10.426 0 0 1-3.184 4.84 7.272 7.272 0 0 1-4.47 1.412 8.62 8.62 0 0 1-6.71-3.312q-2.854-3.31-2.826-9.137h18.074a10.628 10.628 0 0 0-2.826-7.752zm-15.247 6.096a7.994 7.994 0 0 1 2.185-5.124 5.892 5.892 0 0 1 4.24-1.842 5.368 5.368 0 0 1 2.955.914 5.675 5.675 0 0 1 2.127 2.513 11.21 11.21 0 0 1 .6 3.54zm48.624-7.067a7.402 7.402 0 0 0-1.427-.07h-5.54a11.413 11.413 0 0 0-6.48-1.828 10.405 10.405 0 0 0-7.496 2.798 8.925 8.925 0 0 0-2.927 6.68 8.592 8.592 0 0 0 4.968 7.91 18.762 18.762 0 0 0-3.754 3.798 4.702 4.702 0 0 0-.815 2.34 2.337 2.337 0 0 0 .614 1.587 8.993 8.993 0 0 0 2.098 1.583q-2.713 2.827-2.913 3.084a15.926 15.926 0 0 0-2 2.94 3.26 3.26 0 0 0-.313 1.37q0 1.543 2.142 2.97a16.64 16.64 0 0 0 9.308 2.485q7.167 0 11.62-4.17 3.027-2.826 3.028-6.052a5.38 5.38 0 0 0-1.585-3.94 7.172 7.172 0 0 0-4.24-1.97q-1.742-.258-7.624-.4-3.197-.086-3.996-.2a3.446 3.446 0 0 1-1.842-.657 1.322 1.322 0 0 1-.47-.942 3.04 3.04 0 0 1 .442-1.384 7.53 7.53 0 0 1 1.7-1.9 14.586 14.586 0 0 0 3.967.572 10.596 10.596 0 0 0 7.51-2.598 8.81 8.81 0 0 0 1.2-11.506h3.398a6.32 6.32 0 0 0 1.442-.086.586.586 0 0 0 .3-.23 2.55 2.55 0 0 0 .142-1.026 1.752 1.752 0 0 0-.17-.914.49.49 0 0 0-.287-.244zm-19.187 25.027a94.135 94.135 0 0 0 9.88.658q4.396.113 5.88.742a2.163 2.163 0 0 1 1.457 2.113q0 2.056-2.44 3.87t-7.582 1.812q-5.396 0-8.252-1.77a2.89 2.89 0 0 1-1.655-2.4 4.888 4.888 0 0 1 .685-2.31 14.047 14.047 0 0 1 2.028-2.714zm9.565-11.45a4.498 4.498 0 0 1-3.57 1.63 4.6 4.6 0 0 1-3.768-1.886q-1.942-2.484-1.942-6.995 0-3.484 1.428-5.17a4.46 4.46 0 0 1 3.54-1.684 4.524 4.524 0 0 1 3.742 1.885q1.97 2.57 1.97 7.11 0 3.484-1.4 5.11zm35.033 8.366a1.116 1.116 0 0 1-.756-.285 1.92 1.92 0 0 1-.472-1.128 40.602 40.602 0 0 1-.142-4.583v-8.88q0-3.796-.514-5.024a5.386 5.386 0 0 0-2.484-2.77 12.24 12.24 0 0 0-5.71-1.17q-4.54 0-7.053 2.055t-2.513 4.512a2.91 2.91 0 0 0 .67 2.027 2.22 2.22 0 0 0 1.728.742 2.297 2.297 0 0 0 1.756-.714 2.847 2.847 0 0 0 .67-2.027l-.056-1.655a2.922 2.922 0 0 1 1.085-2.228 4.057 4.057 0 0 1 2.855-.97 4.485 4.485 0 0 1 3.612 1.456q1.242 1.456 1.242 5.368v1.028a63.31 63.31 0 0 0-9.636 4.17 11.344 11.344 0 0 0-4.07 3.654 6.22 6.22 0 0 0-.855 3.312 6.81 6.81 0 0 0 1.756 4.882 5.883 5.883 0 0 0 4.467 1.856 7.727 7.727 0 0 0 3.284-.714 42.963 42.963 0 0 0 5.055-3.597 5.238 5.238 0 0 0 .856 3.313 2.778 2.778 0 0 0 2.228.97q2.913 0 6.11-4.282v-1.598a17.815 17.815 0 0 1-2.312 2.084 1.553 1.553 0 0 1-.8.2zm-6.08-2.54q-3.542 2.855-5.712 2.854a3.718 3.718 0 0 1-2.827-1.355 4.89 4.89 0 0 1-1.228-3.412 5.076 5.076 0 0 1 .97-2.998 9.615 9.615 0 0 1 3.227-2.627 56.418 56.418 0 0 1 5.567-2.427zm21.654 2.969a9.48 9.48 0 0 1-.356-3.255v-34.69h-1.285l-7.796 3.197.485 1a5.335 5.335 0 0 1 1.884-.458 1.697 1.697 0 0 1 1.128.37 2.387 2.387 0 0 1 .642 1.386 41.22 41.22 0 0 1 .2 5.438v23.756a9.565 9.565 0 0 1-.37 3.284 2.475 2.475 0 0 1-1.03 1.228 5.533 5.533 0 0 1-2.454.37v1.03h12.82V358a6.308 6.308 0 0 1-2.77-.413 2.52 2.52 0 0 1-1.1-1.214zm27.71-21.401a9.66 9.66 0 0 0-7.224-2.898 11.224 11.224 0 0 0-8.637 3.754q-3.442 3.757-3.442 10.466 0 6.197 3.355 9.865a10.548 10.548 0 0 0 8.066 3.67 9.3 9.3 0 0 0 7.223-3.212 13.61 13.61 0 0 0 3.484-7.124l-.886-.57a10.426 10.426 0 0 1-3.182 4.84 7.272 7.272 0 0 1-4.47 1.412 8.62 8.62 0 0 1-6.71-3.312q-2.854-3.31-2.826-9.137h18.074a10.628 10.628 0 0 0-2.826-7.752zm-15.247 6.096a7.994 7.994 0 0 1 2.184-5.124 5.892 5.892 0 0 1 4.24-1.842 5.368 5.368 0 0 1 2.955.914 5.675 5.675 0 0 1 2.128 2.513 11.21 11.21 0 0 1 .6 3.54zm58.16-6.096a9.66 9.66 0 0 0-7.224-2.898 11.224 11.224 0 0 0-8.64 3.754q-3.44 3.757-3.44 10.466 0 6.197 3.356 9.865a10.548 10.548 0 0 0 8.066 3.67 9.3 9.3 0 0 0 7.224-3.212 13.61 13.61 0 0 0 3.483-7.124l-.886-.57a10.426 10.426 0 0 1-3.184 4.84 7.272 7.272 0 0 1-4.468 1.412 8.62 8.62 0 0 1-6.71-3.312q-2.856-3.31-2.827-9.137h18.074a10.628 10.628 0 0 0-2.827-7.752zm-15.248 6.096a7.994 7.994 0 0 1 2.185-5.124 5.892 5.892 0 0 1 4.24-1.842 5.368 5.368 0 0 1 2.955.914 5.675 5.675 0 0 1 2.127 2.513 11.21 11.21 0 0 1 .6 3.54zm52.907-8.965q-3.456 0-6.738 5.882v-5.882h-1.2l-7.91 3.198.286 1.027a5.64 5.64 0 0 1 2-.427 1.935 1.935 0 0 1 1.242.4 2.15 2.15 0 0 1 .685 1.27 42.51 42.51 0 0 1 .184 5.44v10.136a14.764 14.764 0 0 1-.14 2.768 2.437 2.437 0 0 1-1 1.457 5.554 5.554 0 0 1-2.97.628v1.027h13.392v-1.027a5.77 5.77 0 0 1-2.714-.514 2.96 2.96 0 0 1-1.313-1.286 7.75 7.75 0 0 1-.542-3.284v-12.534a13.748 13.748 0 0 1 2.655-3.855 1.704 1.704 0 0 1 1.114-.57 3.7 3.7 0 0 1 1.842.986 3.772 3.772 0 0 0 2.24.985 2.372 2.372 0 0 0 1.77-.77 2.617 2.617 0 0 0 .743-1.885 2.942 2.942 0 0 0-1.027-2.212 3.664 3.664 0 0 0-2.598-.957zm25.896 2.869a9.66 9.66 0 0 0-7.224-2.898 11.222 11.222 0 0 0-8.637 3.754q-3.442 3.757-3.44 10.466 0 6.197 3.354 9.865a10.55 10.55 0 0 0 8.067 3.67 9.3 9.3 0 0 0 7.224-3.212 13.614 13.614 0 0 0 3.485-7.124l-.886-.57a10.43 10.43 0 0 1-3.184 4.84 7.275 7.275 0 0 1-4.47 1.412 8.62 8.62 0 0 1-6.71-3.312q-2.855-3.31-2.826-9.137h18.074a10.628 10.628 0 0 0-2.826-7.752zm-15.247 6.096a7.99 7.99 0 0 1 2.185-5.124 5.89 5.89 0 0 1 4.24-1.842 5.37 5.37 0 0 1 2.956.914 5.682 5.682 0 0 1 2.128 2.513 11.21 11.21 0 0 1 .6 3.54zm35.804 3.369l-4.168-2.027a10.148 10.148 0 0 1-3.598-2.484 4.25 4.25 0 0 1-.915-2.742 3.064 3.064 0 0 1 1.228-2.34 4.773 4.773 0 0 1 3.227-1.058 6.262 6.262 0 0 1 4.325 1.514q1.7 1.513 2.785 5.71h.942v-8.908h-.942a2.737 2.737 0 0 1-.6.885 1.134 1.134 0 0 1-.714.2 8.832 8.832 0 0 1-1.94-.427 13.477 13.477 0 0 0-3.742-.657 7.83 7.83 0 0 0-5.725 2.17 7.255 7.255 0 0 0-2.214 5.397 6.43 6.43 0 0 0 1.285 4.11q1.286 1.658 5.426 3.713a24.244 24.244 0 0 1 5.526 3.398 4.432 4.432 0 0 1 1.384 3.312 3.668 3.668 0 0 1-1.242 2.784 4.527 4.527 0 0 1-3.212 1.156 7.37 7.37 0 0 1-5.054-2.027 10.62 10.62 0 0 1-3.055-6.026h-.942v9.337h.943a1.136 1.136 0 0 1 1.027-.74 5.582 5.582 0 0 1 1.542.284 20.77 20.77 0 0 0 5.482.857 9.355 9.355 0 0 0 6.04-2.184 7.04 7.04 0 0 0 2.698-5.753q0-4.626-5.797-7.453zm26.467-12.334a7.533 7.533 0 0 0-4.297 1.384 14.83 14.83 0 0 0-4.07 4.84v-6.11h-1.084l-8.05 3.255.342.914a5.177 5.177 0 0 1 1.74-.4 2.367 2.367 0 0 1 1.358.34 1.946 1.946 0 0 1 .728 1.03 13.488 13.488 0 0 1 .228 3.225v24.727a12.13 12.13 0 0 1-.3 3.556 2.053 2.053 0 0 1-.842 1.013 5.19 5.19 0 0 1-2.684.6h-.714v1.057h13.706v-1.056a7.027 7.027 0 0 1-2.956-.428 2.44 2.44 0 0 1-1.142-1.157 10.616 10.616 0 0 1-.328-3.41v-7.967a8.547 8.547 0 0 0 2.57 1.713 10.07 10.07 0 0 0 3.654.6 10.28 10.28 0 0 0 8.052-3.626q3.883-4.425 3.884-11.193 0-6.05-3.227-9.82a8.276 8.276 0 0 0-6.568-3.084zm2.4 23.784a5.63 5.63 0 0 1-4.627 2.227 6.05 6.05 0 0 1-3.926-1.256 5.332 5.332 0 0 1-1.957-2.91 20.935 20.935 0 0 1-.257-4.17v-9.765a15.906 15.906 0 0 1 3.398-3.084 5.908 5.908 0 0 1 2.713-.684 5.466 5.466 0 0 1 4.34 2.227q2.626 3.227 2.627 9.223 0 5.282-2.313 8.194zm25.181-23.784a12.053 12.053 0 0 0-6.167 1.7 12.18 12.18 0 0 0-4.697 5.253 15.805 15.805 0 0 0-1.785 7.15 14.59 14.59 0 0 0 2.94 8.91 11.082 11.082 0 0 0 9.394 4.71 11.965 11.965 0 0 0 11.22-7.252 16.676 16.676 0 0 0 1.685-7.11 13.856 13.856 0 0 0-3.055-8.85 11.592 11.592 0 0 0-9.537-4.512zm5.483 23.413a5.574 5.574 0 0 1-4.57 2.283q-3.712 0-5.98-4.14a20.184 20.184 0 0 1-2.27-9.85 15.185 15.185 0 0 1 .942-5.797 6.31 6.31 0 0 1 2.47-3.155 5.956 5.956 0 0 1 3.04-.898 6.18 6.18 0 0 1 5.17 2.74q2.997 3.998 2.997 10.965 0 5.568-1.8 7.852zm35.69.971a9.4 9.4 0 0 1-.4-3.37v-11.164a16.32 16.32 0 0 0-.628-5.253 7.172 7.172 0 0 0-2.456-3.526 6.29 6.29 0 0 0-3.683-1.07q-4.17 0-8.767 5.538v-5.54h-1.228l-7.88 3.2.428 1.026a5.486 5.486 0 0 1 1.913-.427 1.786 1.786 0 0 1 1.185.37 2.464 2.464 0 0 1 .658 1.4 42.372 42.372 0 0 1 .214 5.74v9.707q0 2.856-.7 3.87t-2.698 1.013h-.57v1.027h12.933v-1.027a6.818 6.818 0 0 1-2.84-.385 2.638 2.638 0 0 1-1.1-1.214 9.848 9.848 0 0 1-.314-3.284v-13.79q3.37-3.712 6.767-3.712a3.314 3.314 0 0 1 3.127 1.613q.927 1.614.928 5.183v10.707a16.713 16.713 0 0 1-.114 2.684 2.93 2.93 0 0 1-1.012 1.643 4.364 4.364 0 0 1-2.557.556h-.54v1.027h12.933v-1.027a5.737 5.737 0 0 1-2.583-.4 2.333 2.333 0 0 1-1.014-1.113zm19.928-12.05l-4.168-2.027a10.148 10.148 0 0 1-3.598-2.484 4.25 4.25 0 0 1-.914-2.742 3.064 3.064 0 0 1 1.228-2.34 4.773 4.773 0 0 1 3.227-1.058 6.262 6.262 0 0 1 4.324 1.514q1.7 1.513 2.784 5.71h.943v-8.908h-.942a2.737 2.737 0 0 1-.6.885 1.134 1.134 0 0 1-.713.2 8.832 8.832 0 0 1-1.942-.427 13.477 13.477 0 0 0-3.74-.657 7.83 7.83 0 0 0-5.725 2.17 7.255 7.255 0 0 0-2.213 5.397 6.43 6.43 0 0 0 1.285 4.11q1.285 1.658 5.425 3.713a24.244 24.244 0 0 1 5.526 3.398 4.432 4.432 0 0 1 1.385 3.312 3.668 3.668 0 0 1-1.242 2.784 4.527 4.527 0 0 1-3.212 1.156 7.37 7.37 0 0 1-5.053-2.027 10.62 10.62 0 0 1-3.055-6.026h-.943v9.337h.94a1.136 1.136 0 0 1 1.03-.74 5.582 5.582 0 0 1 1.54.284 20.77 20.77 0 0 0 5.483.857 9.355 9.355 0 0 0 6.04-2.184 7.04 7.04 0 0 0 2.697-5.753q0-4.626-5.796-7.453zm31.75 11.507a1.117 1.117 0 0 1-.757-.285 1.92 1.92 0 0 1-.47-1.128 40.602 40.602 0 0 1-.143-4.583v-8.88q0-3.796-.514-5.024a5.39 5.39 0 0 0-2.484-2.77 12.24 12.24 0 0 0-5.71-1.17q-4.54 0-7.053 2.055t-2.513 4.512a2.91 2.91 0 0 0 .67 2.027 2.22 2.22 0 0 0 1.728.742 2.296 2.296 0 0 0 1.756-.714 2.847 2.847 0 0 0 .67-2.027l-.056-1.655a2.922 2.922 0 0 1 1.085-2.228 4.057 4.057 0 0 1 2.856-.97 4.483 4.483 0 0 1 3.61 1.456q1.243 1.456 1.243 5.368v1.028a63.318 63.318 0 0 0-9.637 4.17 11.343 11.343 0 0 0-4.07 3.654 6.22 6.22 0 0 0-.855 3.312 6.808 6.808 0 0 0 1.757 4.882 5.88 5.88 0 0 0 4.468 1.856 7.727 7.727 0 0 0 3.284-.714 42.963 42.963 0 0 0 5.053-3.597 5.238 5.238 0 0 0 .856 3.313 2.777 2.777 0 0 0 2.226.97q2.913 0 6.11-4.282v-1.598a17.815 17.815 0 0 1-2.312 2.084 1.553 1.553 0 0 1-.8.2zm-6.08-2.54q-3.543 2.855-5.712 2.854a3.718 3.718 0 0 1-2.827-1.355 4.887 4.887 0 0 1-1.228-3.412 5.073 5.073 0 0 1 .97-2.998 9.61 9.61 0 0 1 3.228-2.627 56.324 56.324 0 0 1 5.567-2.427zm27.666-21.301q-4.4 0-8.196 5.282v-18.96H576.8l-7.853 3.2.4.998a5.864 5.864 0 0 1 1.998-.457 1.755 1.755 0 0 1 1.142.37 2.41 2.41 0 0 1 .672 1.4 39.307 39.307 0 0 1 .212 5.482v27.097a21.224 21.224 0 0 0 4.812 2.483 13.938 13.938 0 0 0 4.64.828 12.76 12.76 0 0 0 8.85-3.654q4.626-4.254 4.626-11.22 0-5.968-2.998-9.41a9.068 9.068 0 0 0-7.023-3.44zm2.84 22.785q-2.243 2.857-4.84 2.856a7.423 7.423 0 0 1-3.184-.728 10.96 10.96 0 0 1-3.012-2.156v-15.646a13.104 13.104 0 0 1 2.912-2.284 6.614 6.614 0 0 1 3.027-.77 6.538 6.538 0 0 1 5.096 2.696q2.24 2.7 2.24 7.724 0 5.454-2.24 8.31zm18.858-30.666a2.76 2.76 0 0 0 2.042-.857 2.832 2.832 0 0 0 .842-2.055 2.874 2.874 0 0 0-2.884-2.884 2.814 2.814 0 0 0-2.07.84 2.912 2.912 0 0 0 2.07 4.955zm2.727 32.165a9.587 9.587 0 0 1-.357-3.27v-21.014h-1.256l-7.88 3.198.4 1.027a5.713 5.713 0 0 1 1.94-.427 1.773 1.773 0 0 1 1.17.357 2.244 2.244 0 0 1 .63 1.27 35.65 35.65 0 0 1 .256 5.51v10.08a9.25 9.25 0 0 1-.385 3.284 2.552 2.552 0 0 1-1.042 1.228 5.908 5.908 0 0 1-2.57.37v1.028h12.707v-1.027a5.653 5.653 0 0 1-2.556-.4 2.495 2.495 0 0 1-1.055-1.214zm17.385-.014a9.482 9.482 0 0 1-.355-3.255v-34.69h-1.285l-7.795 3.197.485 1a5.335 5.335 0 0 1 1.885-.458 1.696 1.696 0 0 1 1.128.37 2.387 2.387 0 0 1 .643 1.386 41.22 41.22 0 0 1 .2 5.438v23.756a9.565 9.565 0 0 1-.37 3.284 2.48 2.48 0 0 1-1.03 1.228 5.533 5.533 0 0 1-2.454.37v1.03h12.82V358a6.306 6.306 0 0 1-2.77-.413 2.523 2.523 0 0 1-1.1-1.214zm26.47-2.613a7.275 7.275 0 0 1-4.47 1.413 8.62 8.62 0 0 1-6.71-3.312q-2.855-3.31-2.826-9.137h18.074a10.628 10.628 0 0 0-2.827-7.752 9.66 9.66 0 0 0-7.223-2.898 11.222 11.222 0 0 0-8.637 3.755q-3.442 3.755-3.44 10.465 0 6.197 3.354 9.864a10.55 10.55 0 0 0 8.067 3.67 9.3 9.3 0 0 0 7.225-3.212 13.614 13.614 0 0 0 3.483-7.123l-.885-.57a10.43 10.43 0 0 1-3.183 4.838zm-11.82-17.817a5.89 5.89 0 0 1 4.24-1.842 5.37 5.37 0 0 1 2.955.914 5.682 5.682 0 0 1 2.126 2.513 11.21 11.21 0 0 1 .6 3.54h-12.106a7.99 7.99 0 0 1 2.185-5.124z" class="cls-1"/></g></g></svg>