<svg xmlns="http://www.w3.org/2000/svg" width="80" height="16" xmlns:xlink="http://www.w3.org/1999/xlink"><use fill="#BAC1C8" xlink:href="#a" transform="translate(0 .127)"/><use fill="#959EA9" xlink:href="#b" transform="translate(15.65)"/><use fill="#959EA9" xlink:href="#c" transform="translate(24.56 .152)"/><use fill="#959EA9" xlink:href="#d" transform="translate(30.99 .125)"/><use fill="#959EA9" xlink:href="#e" transform="translate(41.04 .05)"/><use fill="#959EA9" xlink:href="#f" transform="translate(47.7 .127)"/><use fill="#959EA9" xlink:href="#g" transform="translate(55.72)"/><use fill="#959EA9" xlink:href="#e" transform="translate(66.33 .05)"/><use fill="#959EA9" xlink:href="#h" transform="translate(71.82 .178)"/><use fill="#959EA9" xlink:href="#i" transform="translate(16.13 12.928)"/><use fill="#959EA9" xlink:href="#j" transform="translate(18.58 12.928)"/><use fill="#959EA9" xlink:href="#k" transform="translate(21.19 12.954)"/><use fill="#959EA9" xlink:href="#l" transform="translate(24.73 12.98)"/><use fill="#959EA9" xlink:href="#m" transform="translate(26.94 12.98)"/><use fill="#959EA9" xlink:href="#n" transform="translate(28.84 12.98)"/><use fill="#959EA9" xlink:href="#o" transform="translate(30.08 12.903)"/><use fill="#959EA9" xlink:href="#i" transform="translate(33.09 12.928)"/><use fill="#959EA9" xlink:href="#p" transform="translate(36.81 12.903)"/><use fill="#959EA9" xlink:href="#q" transform="translate(39.42 12.903)"/><use fill="#959EA9" xlink:href="#o" transform="translate(42.28 12.903)"/><use fill="#959EA9" xlink:href="#r" transform="translate(45.27 12.903)"/><use fill="#959EA9" xlink:href="#s" transform="translate(47.65 12.98)"/><use fill="#959EA9" xlink:href="#t" transform="translate(50.05 12.903)"/><use fill="#959EA9" xlink:href="#m" transform="translate(53.04 12.98)"/><use fill="#959EA9" xlink:href="#u" transform="translate(55.77 12.903)"/><use fill="#959EA9" xlink:href="#t" transform="translate(58.38 12.903)"/><use fill="#959EA9" xlink:href="#v" transform="translate(61.32 12.954)"/><use fill="#959EA9" xlink:href="#v" transform="translate(64.73 12.954)"/><use fill="#959EA9" xlink:href="#w" transform="translate(68.25 12.98)"/><use fill="#959EA9" xlink:href="#x" transform="translate(69.59 12.878)"/><use fill="#959EA9" xlink:href="#x" transform="translate(71.39 12.878)"/><use fill="#959EA9" xlink:href="#w" transform="translate(73.24 12.98)"/><use fill="#959EA9" xlink:href="#t" transform="translate(74.4 12.903)"/><use fill="#959EA9" xlink:href="#o" transform="translate(77.24 12.903)"/><use fill="#BAC1C8" xlink:href="#y" transform="translate(13.97 10)"/><use fill="#FFF" xlink:href="#z" transform="translate(.3 .406)"/><defs><path id="a" d="M0 0v15.418h14.1V0H0z"/><path id="b" fill-rule="evenodd" d="M4.076 0C4 0 3.95.076 3.823.432L1.367 7.366c-.202.56-.43.965-.937 1.04-.1.027-.253.027-.33.027-.05 0-.1.025-.1.076 0 .05.05.075.203.075.337 0 .72-.01.974-.02l.266-.005c.05 0 .155.004.28.01.185.006.414.015.58.015.102 0 .178 0 .178-.076 0-.052-.024-.077-.1-.077h-.1c-.204 0-.432-.102-.432-.33 0-.204.05-.458.152-.737l.658-1.98c0-.078.05-.103.102-.103h2.38c.05 0 .075.025.1.076L6.28 8.1c.05.178 0 .28-.077.305-.05 0-.077.026-.077.076 0 .077.127.077.33.077.76.025 1.57.025 1.747.025.126 0 .227 0 .227-.076 0-.077-.025-.077-.1-.077-.127 0-.28-.026-.456-.077-.254-.076-.558-.254-.963-1.244-.445-1.095-1.334-3.435-1.947-5.048C4.638 1.208 4.39.556 4.33.406 4.176.05 4.15 0 4.075 0zm.962 4.8c0 .05 0 .077-.05.077H2.86c-.025 0-.05-.026-.025-.076l.962-2.997c.076-.177.127-.177.178 0L5.038 4.8z"/><path id="c" d="M1.9 5.207c0 1.625.05 2.337.252 2.54.177.178.456.254 1.342.254.582 0 1.063 0 1.34-.33.153-.177.255-.457.28-.66 0-.1.025-.152.1-.152.052 0 .077.05.077.178 0 .127-.075.787-.176 1.117-.076.254-.1.305-.71.305-.81 0-1.366-.025-1.847-.025-.456-.026-.81-.026-1.14-.026H.963c-.228 0-.456.026-.633.026-.127 0-.178-.026-.178-.077 0-.025.025-.076.1-.076.102 0 .23-.025.33-.05.228-.05.28-.28.33-.61.05-.457.05-1.346.05-2.413V3.25c0-1.726 0-2.056-.025-2.412C.91.458.835.278.457.203.353.178.176.178.076.178.05.152 0 .128 0 .102 0 .025.05 0 .177 0c.507 0 1.19.025 1.24.025.05 0 .86-.025 1.19-.025.127 0 .178.025.178.102 0 .05-.05.076-.1.076-.077 0-.23 0-.356.025-.33.05-.406.254-.43.635-.027.356-.027.66-.027 2.413v1.957H1.9z"/><path id="d" fill-rule="evenodd" d="M.962.84c.025.356.025.686.025 2.413H.962v1.88c0 1.066 0 1.955-.05 2.412-.05.33-.102.56-.33.61-.1.025-.228.05-.33.05-.075 0-.1.052-.1.077 0 .05.05.076.177.076.067 0 .156-.005.254-.01.12-.008.252-.015.378-.015h.456c.016 0 .065.005.14.013.16.016.442.046.77.063a16 16 0 0 0 1.546.075c1.898 0 2.886-.762 3.366-1.27.608-.635 1.19-1.727 1.19-3.124 0-1.32-.506-2.234-1.063-2.818C6.107-.015 4.247-.005 3.123.002H2.91c-.456 0-.938.012-1.232.02l-.26.005c-.012 0-.06 0-.135-.004C1.05.016.563.003.177.003.05.002 0 .026 0 .102 0 .153.05.18.1.18c.103 0 .28 0 .38.025C.86.28.938.46.963.84zm.987 6.02c-.026-.204-.026-1.245-.026-2.413h.025V.713c0-.127.025-.178.126-.23.076-.05.48-.075.71-.075 1.315 0 2.58.152 3.62 1.245.455.457 1.062 1.37 1.062 2.794 0 1.04-.303 2.108-.886 2.667-.658.66-1.595 1.04-2.633 1.04-1.292 0-1.722-.253-1.874-.456-.1-.127-.127-.56-.127-.838z"/><path id="e" d="M.987 3.327C.987 1.6.987 1.27.962.914.937.534.862.356.482.28.38.253.2.253.1.253.05.254 0 .23 0 .178 0 .102.05.076.177.076h.81l.456.026h2.532c.202 0 .38-.026.48-.05.05 0 .102-.052.153-.052.025 0 .05.05.05.102 0 .076-.05.203-.076.533 0 .102-.025.61-.05.737 0 .05-.026.127-.076.127-.076 0-.076-.052-.076-.154 0-.076 0-.28-.076-.406C4.228.762 4.127.635 3.52.56 3.34.532 2.126.532 2 .532c-.05 0-.076.026-.076.102v3.073c0 .077 0 .102.076.102.152 0 1.52 0 1.772-.025.28-.026.43-.05.532-.153.076-.1.126-.152.177-.152.026 0 .052.025.052.1 0 .078-.05.255-.102.636-.025.23-.05.635-.05.712 0 .1 0 .203-.076.203-.05 0-.076-.05-.076-.1 0-.103 0-.23-.05-.357-.05-.152-.153-.355-.583-.38a37.112 37.112 0 0 0-1.595-.05c-.05 0-.076.024-.076.075v2.87c.025.762.203.914 1.29.914.28 0 .786 0 1.064-.127.28-.127.43-.355.507-.812.025-.127.05-.178.1-.178.077 0 .077.1.077.178 0 .1-.1.838-.152 1.066-.076.28-.177.28-.607.28-.836 0-1.444-.027-1.874-.027-.43-.025-.71-.025-.862-.025h-.455c-.228 0-.48.025-.633.025-.127 0-.177-.025-.177-.076 0-.025.025-.076.1-.076.102 0 .23-.024.33-.05.228-.05.278-.28.33-.61.05-.457.05-1.346.05-2.412v-1.93H.987z"/><path id="f" fill-rule="evenodd" d="M.962.838c.025.356.025.686.025 2.413h-.05v1.957c0 1.067 0 1.956-.05 2.413-.052.33-.102.56-.33.61-.1.025-.228.05-.33.05-.075 0-.1.05-.1.076 0 .05.05.077.177.077.33 0 1.038-.026 1.038-.026l.124.003c.24.007.77.023 1.243.023.125 0 .176-.026.176-.077 0-.05-.025-.076-.1-.076a4.29 4.29 0 0 1-.507-.05c-.33-.05-.406-.28-.432-.61-.05-.457-.05-1.346-.05-2.413v-.28c0-.076.025-.1.076-.1l1.366.024c.076 0 .102.027.152.077l.416.566c.242.33.534.73.8 1.085l.264.343c.482.63.82 1.067 1.23 1.284.303.152.556.203 1.19.203h.784c.203 0 .278 0 .278-.076 0-.05-.05-.075-.1-.075-.077 0-.23 0-.43-.026-.28-.05-.735-.178-1.343-.813-.564-.612-1.23-1.467-2.014-2.474l-.29-.37c.99-.915 1.343-1.754 1.343-2.566a1.94 1.94 0 0 0-.76-1.524C4.177.076 3.443 0 2.734 0c-.222 0-.632.01-.94.017-.183.005-.33.008-.376.008-.012 0-.06 0-.135-.003C1.05.015.563 0 .177 0 .05 0 0 .025 0 .102c0 .05.05.076.1.076.103 0 .28 0 .38.025.38.076.457.254.482.635zm.987 3.505a.14.14 0 0 1-.076-.127H1.9V.584c0-.05.024-.1.075-.127.1-.05.405-.076.734-.076 1.19 0 1.923.84 1.923 2.236 0 .838-.304 1.423-.684 1.702-.254.178-.557.203-.836.203-.48 0-.987-.075-1.165-.177z"/><path id="g" d="M1.52 7.06c.024.915.126 1.195.43 1.296.202.05.455.077.556.077.05 0 .102.025.102.076 0 .075-.076.075-.203.075-.633 0-1.063-.025-1.164-.025-.1 0-.556.025-1.063.025-.1 0-.177 0-.177-.076 0-.052.025-.077.076-.077.1 0 .278 0 .456-.077.278-.076.33-.406.33-1.422V.56C.86.126.885 0 .986 0c.102 0 .28.254.38.356.177.177 1.823 1.98 3.52 3.81C5.974 5.334 7.19 6.706 7.543 7.06l-.126-5.638c0-.71-.102-.965-.43-1.066-.203-.05-.456-.05-.532-.05-.076 0-.076-.027-.076-.077 0-.078.076-.078.228-.078.506 0 1.038.026 1.164.026.127 0 .48-.026.937-.026.125 0 .2 0 .2.077 0 .05-.05.075-.125.075-.05 0-.127 0-.28.025-.353.076-.404.33-.404.99L8.077 7.85c0 .737-.025.788-.1.788-.103 0-.23-.127-.81-.71-.13-.106-1.725-1.758-2.89-3.028a195.502 195.502 0 0 1-2.886-3.2l.127 5.36z"/><path id="h" d="M3.544 5.512c0-.61-.1-.838-.253-1.17-.075-.176-1.568-2.615-1.948-3.2C1.062.738.785.458.582.33.405.23.202.152.102.152.05.152 0 .127 0 .076 0 .026.05 0 .152 0c.202 0 1.038.025 1.09.025.074 0 .505-.025.935-.025.127 0 .152.025.152.076 0 .05-.077.05-.178.102-.1.05-.152.1-.152.203 0 .128.05.28.152.433.177.33 1.848 3.2 2.05 3.505.203-.457 1.62-2.896 1.85-3.277a.997.997 0 0 0 .176-.557c0-.153-.05-.28-.177-.305-.1-.026-.177-.05-.177-.102 0-.05.076-.076.178-.076.28 0 .634.025.735.025C6.86.025 7.645 0 7.848 0 7.924 0 8 .025 8 .076c0 .05-.05.102-.152.102-.126 0-.33.05-.506.152-.228.127-.355.28-.583.56-.355.456-1.925 3.047-2.127 3.53-.177.406-.177.736-.177 1.117v.965c0 .178 0 .635.025 1.118.026.33.128.56.457.61.152.025.405.05.506.05.076 0 .1.026.1.076s-.05.077-.176.077c-.608 0-1.316-.026-1.367-.026-.05 0-.76.026-1.09.026-.125 0-.176-.026-.176-.077 0-.025.025-.076.1-.076.103 0 .23-.025.33-.05.228-.05.33-.28.355-.61.024-.457.024-.94.024-1.118v-.99z"/><path id="i" d="M1.95 1.702c0-.28-.026-.305-.153-.356h-.1c-.026 0-.026 0-.026-.025s.026-.025.052-.025h.708c.026 0 .05 0 .05.026s-.024.026-.024.026H2.38c-.102.026-.127.076-.127.178v.736c0 .153 0 .153-.05.178a1.781 1.781 0 0 1-.71.153c-.252 0-.734-.025-1.088-.355A1.319 1.319 0 0 1 0 1.295C0 .762.253.38.557.203.86.025 1.19 0 1.443 0c.203 0 .456.05.506.05a.92.92 0 0 0 .278.026c.025 0 .05.026.05.026 0 .05-.025.152-.025.482 0 .05 0 .076-.025.076S2.203.635 2.203.61a.5.5 0 0 0-.076-.23C2.05.255 1.772.103 1.342.103a1.059 1.059 0 0 0-.71.227C.43.483.305.787.305 1.168c0 .483.228.813.354.915.253.254.557.355.86.355.128 0 .305-.025.38-.076.05-.025.077-.05.077-.127v-.533H1.95z"/><path id="j" fill-rule="evenodd" d="M1.2.053c-.01.018-.02.043-.035.074l-.76 2.108c-.05.153-.126.28-.28.305h-.1S0 2.54 0 2.565c0 .01 0 .016.003.02.005.006.017.006.048.006h.634c.025 0 .05 0 .05-.025 0-.012 0-.02-.003-.022C.73 2.54.72 2.54.71 2.54H.683c-.05 0-.127-.025-.127-.102 0-.076.025-.152.05-.228l.203-.584c0-.013 0-.02.003-.023C.816 1.6.823 1.6.835 1.6h.71s.025 0 .025.026l.304.812c.025.077 0 .102-.026.102-.013 0-.02 0-.022.003-.003.003-.003.01-.003.022 0 .026.05.026.1.026h.533c.05 0 .076 0 .076-.025 0-.012 0-.02-.003-.022-.005-.003-.01-.003-.024-.003-.025 0-.076 0-.126-.025-.05-.026-.152-.077-.28-.38L1.51.617c-.1-.255-.174-.447-.192-.49L1.282.052C1.262.013 1.258 0 1.24 0c-.017 0-.022.012-.04.053zm.015.48l.304.915H.86v-.026l.305-.89c.012-.024.02-.037.025-.037.006 0 .013.013.025.038z"/><path id="k" d="M2.886 2.108c.025.127.025.305.177.356.102.025.178.025.228.025.026 0 .026 0 .026.025s-.025.025-.075.025c-.075 0-.43 0-.556-.025-.076 0-.102-.026-.102-.026 0-.026 0-.026.026-.026.025 0 .025-.05.025-.127L2.48.61l-.81 1.727c-.075.152-.075.178-.1.178-.026 0-.05-.026-.102-.153-.076-.152-.38-.736-.38-.762C1.064 1.55.685.737.66.66H.582L.456 2.21v.178c0 .05.025.1.076.1.05.027.1.027.126.027.026 0 .026 0 .026.025s-.026.025-.05.025H.048c-.025 0-.05 0-.05-.025l.025-.025h.102c.1-.026.126-.153.126-.28L.48.05C.48.026.507 0 .507 0l.05.05L1.57 2.16 2.557.05c.025-.025.025-.05.05-.05.026 0 .026.025.05.102l.23 2.006z"/><path id="l" fill-rule="evenodd" d="M.28.94V.23C.28.126.252.05.125.05H.002C0 .044 0 .038 0 .025 0 0 .025 0 .05 0h.735c.557 0 .658.33.658.508 0 .258-.13.408-.27.57l-.034.04c.252.076.58.304.58.71 0 .356-.277.737-.86.737H.102c-.024 0-.05 0-.05-.025 0 0 0-.025.026-.025.025 0 .076 0 .1-.026.066-.023.076-.063.093-.138l.01-.04c.024-.153.024-.407.024-.737V.94H.28zm.277.076c0 .013 0 .02.003.022.003.003.01.003.022.003.008 0 .018.004.032.007.032.008.083.02.17.02.178 0 .23 0 .305-.076a.486.486 0 0 0 .125-.33C1.215.38 1.09.076.76.076c-.026 0-.102 0-.153.026-.025 0-.05.025-.05.025v.89zm0 1.067v-.915c0-.012 0-.02.003-.022.003-.003.01-.003.022-.003h.253a.63.63 0 0 0 .072.018c.063.015.135.03.207.085.253.177.33.457.33.66 0 .38-.305.483-.482.483-.076 0-.202 0-.304-.05-.1-.052-.1-.103-.1-.255z"/><path id="m" d="M.506 1.55c0 .482.026.71.076.76.05.052.152.078.405.078.178 0 .33 0 .405-.102a.29.29 0 0 0 .076-.203c0-.026 0-.05.026-.05.025 0 .025.024.025.05 0 .025-.026.228-.052.33-.025.076-.025.102-.202.102H.075c-.025 0-.05 0-.05-.026 0 0 0-.026.025-.026.026 0 .077 0 .102-.026.076-.025.076-.076.1-.177.026-.152.026-.406.026-.736V.23C.278.126.253.05.128.05H.024C0 .05 0 .05 0 .026S.025 0 .05 0h.735c.025 0 .05 0 .05.025S.81.05.81.05h-.1C.607.077.58.128.58.23v1.32H.506z"/><path id="n" d="M.506 1.55c0 .33 0 .584.026.736 0 .102.025.178.126.178.05 0 .127.025.152.025.025 0 .025 0 .025.025s-.025.025-.05.025H.05c-.025 0-.05 0-.05-.025 0 0 0-.026.025-.026.026 0 .076 0 .102-.026.076-.026.076-.076.1-.178.026-.152.026-.406.026-.737V.254c0-.103-.05-.18-.1-.18C.126.076.075.052.05.052.026.05.026.05.026.026S.05 0 .075 0h.66c.024 0 .05 0 .05.025S.76.05.76.05H.683C.582.077.557.128.557.23v1.32h-.05z"/><path id="o" d="M.456 2.134c0 .28.05.355.126.38.05.026.127.026.177.026.025 0 .025 0 .025.025 0 .026-.026.026-.05.026H.05c-.025 0-.05 0-.05-.025s0-.025.025-.025c.026 0 .076 0 .127-.025.076-.026.1-.127.1-.432V.178C.253.05.253 0 .28 0s.076.076.127.102c.05.05.557.584 1.063 1.143.33.355.684.762.81.863L2.253.406c0-.228-.025-.28-.126-.304C2.077.076 2 .076 1.975.076c-.026 0-.026 0-.026-.025s.025-.025.075-.025h.633c.026 0 .05 0 .05.026s-.024.026-.024.026h-.076c-.101.024-.127.1-.127.302v1.957c0 .228 0 .228-.024.228-.026 0-.076-.025-.253-.203a82.93 82.93 0 0 1-.86-.914A25.64 25.64 0 0 1 .48.483l-.024 1.65z"/><path id="p" d="M.405 2.26C.075 1.98 0 1.6 0 1.27 0 1.04.076.66.38.356.582.152.886 0 1.392 0c.127 0 .33 0 .48.05.128.026.23.052.33.052.026 0 .05.025.05.025 0 .025 0 .076-.024.178V.66c0 .05 0 .077-.025.077-.026 0-.026-.026-.026-.077 0-.127-.05-.28-.152-.33-.126-.1-.38-.203-.658-.203-.43 0-.658.127-.76.254-.253.23-.303.534-.303.865 0 .635.48 1.22 1.19 1.22.253 0 .455-.027.582-.18.076-.075.1-.228.127-.278 0-.026.025-.05.025-.05.025 0 .025.024.025.05 0 .025-.05.304-.076.43-.025.052-.025.078-.076.103-.125.05-.378.076-.606.076-.48 0-.81-.1-1.09-.355z"/><path id="q" fill-rule="evenodd" d="M2.61 1.245C2.61.483 2.05 0 1.29 0 .382 0-.024.787.002 1.295c0 .61.38 1.32 1.29 1.32.785 0 1.317-.634 1.317-1.37zm-.33.1c0 .966-.608 1.144-.912 1.144C.76 2.49.305 2.006.305 1.22.305.482.71.126 1.267.126c.532 0 1.013.406 1.013 1.22z"/><path id="r" d="M1.165 1.626c0 .33 0 .584.025.736 0 .102.025.178.126.178.05 0 .127.025.152.025.026 0 .026 0 .026.026s-.026.026-.05.026H.708c-.024 0-.05 0-.05-.025 0 0 0-.025.026-.025.025 0 .075 0 .1-.025.077-.025.077-.076.102-.178.025-.152.025-.406.025-.736V.203H.43C.228.203.152.23.1.305.077.355.05.38.05.405.05.433.026.433.026.433S0 .432 0 .406.076.076.076.05C.076.026.1 0 .1 0c.027 0 .052.025.153.05.1 0 .228.026.253.026h1.24c.102 0 .178 0 .23-.025.05 0 .075-.025.1-.025.025 0 .025.026.025.05v.357c0 .025 0 .05-.024.05-.025 0-.025 0-.025-.05V.406c0-.1-.1-.177-.404-.177h-.43v1.396h-.05z"/><path id="s" fill-rule="evenodd" d="M.28.23v.71h.024v.635c0 .33 0 .584-.025.736l-.01.042c-.018.075-.028.115-.093.137-.025.025-.076.025-.1.025-.026 0-.026.025-.026.025 0 .025.026.025.05.025h.71c.025 0 .05 0 .05-.025 0-.013 0-.02-.002-.022-.004-.003-.01-.003-.023-.003-.01 0-.03-.005-.052-.01-.032-.007-.07-.016-.1-.016-.1 0-.126-.077-.126-.18-.025-.15-.025-.405-.025-.735V1.5c0-.014 0-.02.003-.024.003-.003.01-.003.022-.003h.405c.01 0 .017 0 .022.002.008.003.014.01.03.024.05.075.2.303.353.48l.092.118c.144.185.236.302.363.366.076.025.177.05.354.05h.228c.05 0 .076 0 .076-.025 0-.014 0-.02-.002-.023-.003-.003-.01-.003-.022-.003H2.33c-.077 0-.23-.05-.406-.23L1.62 1.85c-.115-.143-.24-.3-.38-.478.304-.28.406-.508.406-.762a.6.6 0 0 0-.228-.458C1.24.025 1.013 0 .81 0H.05C.026 0 0 0 0 .025c0 .013 0 .02.003.023C.006.05.013.05.025.05h.1C.254.05.28.128.28.23zm.28 1.037c-.003-.005-.003-.012-.003-.022V.203c0-.025 0-.05.025-.05C.632.126.71.126.81.126c.355 0 .582.254.582.66 0 .254-.076.432-.202.508-.076.05-.177.05-.253.05a1.04 1.04 0 0 1-.355-.05c-.014-.014-.02-.02-.023-.028z"/><path id="t" fill-rule="evenodd" d="M2.61 1.245C2.61.483 2.05 0 1.29 0 .356 0-.024.787.002 1.295c0 .61.38 1.32 1.29 1.32.785 0 1.317-.634 1.317-1.37zm-.356.1c0 .966-.607 1.144-.91 1.144C.76 2.49.28 2.006.28 1.22.28.482.685.126 1.242.126c.53 0 1.012.406 1.012 1.22z"/><path id="u" d="M.405 2.26C.075 1.98 0 1.6 0 1.27 0 1.04.076.66.38.356.582.152.886 0 1.392 0c.127 0 .33 0 .48.05.128.026.23.052.33.052.026 0 .05.025.05.025 0 .025 0 .076-.024.178V.66c0 .05 0 .077-.025.077-.026 0-.026-.026-.026-.077 0-.127-.05-.28-.152-.33-.126-.1-.38-.203-.658-.203-.43 0-.658.127-.76.254-.253.23-.303.534-.303.865 0 .635.48 1.22 1.19 1.22.253 0 .455-.027.582-.18.076-.075.1-.228.127-.278 0-.026.025-.05.025-.05.025 0 .025.024.025.05 0 .025-.05.304-.076.43-.025.052-.025.078-.076.103-.125.05-.378.076-.606.076-.507 0-.836-.1-1.09-.355z"/><path id="v" d="M2.835 2.108c.026.127.026.305.178.356.1.025.177.025.228.025.026 0 .026 0 .026.025s-.025.025-.076.025c-.076 0-.43 0-.557-.025-.076 0-.1-.026-.1-.026 0-.026 0-.026.024-.026.025 0 .025-.05.025-.127L2.43.61l-.81 1.727c-.076.152-.076.178-.1.178-.026 0-.052-.026-.102-.153-.076-.152-.38-.736-.38-.762C1.013 1.55.633.737.608.66H.582L.456 2.21v.178c0 .05.025.1.076.1.05.027.1.027.126.027.026 0 .026 0 .026.025s-.026.025-.05.025H.048c-.025 0-.05 0-.05-.025l.025-.025h.102c.1-.026.126-.153.126-.28L.48.05C.48.026.507 0 .507 0c.026 0 .026.025.05.05L1.57 2.16 2.557.05c.025-.025.025-.05.05-.05.026 0 .026.025.05.102l.178 2.006z"/><path id="w" d="M.506 1.55c0 .33 0 .584.026.736 0 .102.025.178.126.178.05 0 .127.025.152.025.025 0 .025 0 .025.025s-.025.025-.05.025H.05c-.025 0-.05 0-.05-.025 0 0 0-.026.025-.026.026 0 .076 0 .102-.026.076-.026.076-.076.1-.178.026-.152.026-.406.026-.737V.254c0-.103-.05-.18-.1-.18C.126.076.075.052.05.052.026.05.026.05.026.026S.05 0 .075 0h.66c.024 0 .05 0 .05.025S.76.05.76.05H.683C.582.077.557.128.557.23v1.32h-.05z"/><path id="x" d="M.05 2.565C0 2.54 0 2.54 0 2.438c0-.177.025-.304.025-.355 0-.026 0-.05.026-.05s.026 0 .026.024v.127c.05.254.278.33.48.33.33 0 .482-.228.482-.43 0-.23-.1-.357-.38-.61l-.152-.128C.152 1.066.076.838.076.61.076.254.354 0 .76 0c.126 0 .227.025.303.025a.27.27 0 0 0 .127.026c.025 0 .025 0 .025.026S1.19.203 1.19.432c0 .05 0 .076-.025.076-.026 0-.026-.025-.026-.05a.507.507 0 0 0-.05-.18C1.062.255.986.103.683.103c-.228 0-.406.152-.406.38 0 .178.076.305.406.56l.1.076c.406.304.482.508.482.787a.73.73 0 0 1-.28.56c-.15.1-.328.15-.505.15a.64.64 0 0 1-.43-.05z"/><path id="y" d="M0 .25h65.924v-.5H0v.5z"/><path id="z" fill-rule="evenodd" d="M5.9 3.277s.05.203.024.304c-.025.103-.177.306-.177.306s-.177-.076-.28-.127c-.15-.102-.353-.33-.353-.33s-.127.228-.152.38c-.025.076-.025.178-.025.178s-.355-.026-.583.05c-.228.077-.506.305-.506.305s-.456-.177-.582-.43c-.076-.18-.05-.51-.05-.51s.227.102.354.05c.15-.05.202-.303.202-.303s.203.127.33.152c.177.025.43-.05.43-.05s-.127-.077-.178-.128a1.23 1.23 0 0 1-.2-.297c-.077-.148-.15-.287-.33-.363-.153-.076-.432-.076-.432-.076V2.26c-.025-.177-.227-.38-.227-.38l.278.076s.1.432.506.355c.126 0 .253-.227.253-.227s.202.05.303.127c.076.1.152.28.152.28s.127-.28.076-.458c-.05-.127-.253-.28-.253-.28s.052-.1.102-.152c.05-.076.178-.127.178-.127s-.532-.203-.86-.127l-.23.076s-.075-.177-.176-.228c-.05-.026-.178-.026-.178-.026s.102-.1.178-.152c.1-.05.303-.05.303-.05l-.1-.128s.075-.1.15-.127c.102-.05.254-.1.254-.1s-.125-.18-.226-.206C3.797.38 3.67.356 3.67.356S3.24.432 2.988.33C2.81.254 2.607 0 2.607 0s-.15.178-.177.33c0 .102.026.28.026.28l-.076.1s-.076-.075-.152-.1C2.126.61 2 .686 2 .686s.203.508.177.838c-.025.152-.076.38-.076.38s-.024-.405-.15-.61c-.034-.05-.065-.09-.092-.13-.1-.138-.162-.223-.162-.402 0-.178.152-.406.152-.406s-.304.025-.48.152c-.153.127-.254.457-.254.457S.81.813.608.865c-.178.05-.355.278-.355.278s.456.05.532.305c.026.058.045.115.063.17.054.16.102.3.29.414.128.076.33.102.33.102l-.177.025s-.252.05-.38.126c-.1.05-.226.178-.226.178s-.254.025-.405 0C.15 2.438 0 2.362 0 2.362s.203.33.43.432c.076.05.228.076.228.076s-.025.127 0 .23c.026.227.304.532.304.532s0-.228.05-.28c.05-.126.228-.28.228-.28l.076.052s-.455.635-.202.89c.05.025.126.075.126.075s-.05.126-.05.202c0 .102.025.28.025.28l.405-.102s-.1.23-.126.38c-.026.154 0 .408 0 .408l.354.025s.05-.254.127-.38a.747.747 0 0 1 .177-.204l.076.227.152.305s.152.254.304.356c.253.178.734.254.734.254l-1.292.432s-.202-.635-.987-.33c-.127.05-.23.228-.23.228l.204.23s-.354 0-.532.15c-.202.18-.278.382-.228.636.026.102.127.28.127.28l.33-.178s.203.1.355.1c.075 0 .227-.024.227-.024l-.126.254s-.228.61.253.686c.126.025.328-.077.328-.077l-.076-.382s.152.026.253.026c.103-.015.196-.08.272-.133.056-.037.1-.07.133-.07.166-.023.31-.008.453.007.16.017.32.034.51-.006.08-.023.145-.05.21-.08.08-.034.16-.07.27-.097.114-.026.203-.026.292-.026.088 0 .177 0 .29-.025.127-.025.33-.127.33-.127s.152.102.33.23c.058.058.09.126.124.192a.797.797 0 0 0 .076.137c.023.022.07.03.12.038.063.01.13.02.16.063.075.153.125.356.125.356s-.302.026-.48 0c-.303-.024-.76-.202-.76-.202s-.1.228-.303.457c-.083.093-.16.162-.23.225l-.003.003c-.122.11-.228.205-.324.382-.076.127-.126.355-.126.355l.38.026.38.025-.026.255s-.608-.127-.962-.05a.683.683 0 0 0-.103.036.327.327 0 0 1-.15.04c-.102 0-.253-.025-.253-.025s.33-.432.075-.584c-.126-.075-.48-.177-.784-.152-.303.026-.76.254-.76.254l.052.153s-.355.152-.38.355c0 .077.025.204.025.204h.228s-.228.177-.253.355c-.025.126.025.33.025.33s.48-.23.81-.178c.178.025.406.177.406.177v.126s.177.204.33.28c.1.05.302.076.302.076s.05.102.127.127c.076.024.228.024.228.024l.076.076s.177.305.785.28c.28-.025.71-.076.71-.076s.1-.153.202-.204c.078-.044.17-.04.255-.036.11.005.21.01.25-.09.027-.127-.075-.33-.075-.33s.127-.077.178-.128c.1-.127.1-.38.1-.38l.23.28s.1.15.125.253c.026.126 0 .354 0 .354h.002l-.002.05c0 .103.026.255.026.255s.127-.052.23-.077a.507.507 0 0 0 .07-.006.264.264 0 0 1 .13.006c.254.076.052 1.118-.505 1.168-.135.01-.25-.005-.362-.02-.18-.025-.346-.048-.55.047-.253.1-.455.203-.53.457-.027.1-.027.228-.027.228l.257.022c-.067.156-.117.347-.054.486.01.017.023.035.038.053.086.258.442.48.442.48s.05-.507.278-.533c.076 0 .203.05.203.05s.127.382.305.535c.076.076.202.127.202.127s.177-.534.456-.737c.135-.11.278-.108.425-.108.126 0 .256 0 .385-.07.167-.093.253-.186.357-.3l.004-.004a3.27 3.27 0 0 1 .12-.127c.063-.054.125-.096.186-.135a.875.875 0 0 0 .295-.27.514.514 0 0 0 .1-.33c0-.56-.404-.738-.404-.738s.077-.33-.024-.508c-.076-.177-.38-.28-.38-.28s.076-.253.127-.405c.02-.078.016-.155.014-.227-.004-.117-.007-.22.087-.282.17-.124.324.02.498.184.11.104.226.215.363.274.08.036.16.053.233.07.133.027.25.053.35.184.09.12.09.23.092.348a.76.76 0 0 0 .034.26c.025.078.076.18.076.18s.202-.128.304-.23c.03-.03.052-.06.074-.09a.578.578 0 0 1 .128-.138c.05-.05.152-.102.152-.102s.05-.152.025-.254a.619.619 0 0 0-.127-.177s1.697-.103 1.444-1.73c-.104-.68-.354-1.017-.64-1.4-.204-.274-.426-.572-.626-1.037-.178-.432-.28-1.04.025-1.168.455-.178.784.33.784.33l.025.228s.15.026.227 0a.619.619 0 0 0 .177-.127l.026-.152s.126-.025.177-.1c.05-.052.05-.18.05-.18l-.025-.228.127.026s.303.05.505.025c.506-.076.937-.305 1.013-.813a.908.908 0 0 0-.71-1.04c-.15-.052-.404 0-.404 0s.202.38.126.608c-.126.407-1.063.305-1.063.305s.1-.203.127-.33c.1-.584-.66-.61-.66-.61s.052.254.027.33c-.065.307-.346.406-.662.517-.417.146-.893.314-1.008 1.008-.1.66.456 1.65.456 1.65l.38.635-.583-.28-.633-.38-.48-.38-.05-.128s-.18.15-.23.304c-.05.228-.1.56.127.584h.076s.152.356.304.533c.253.28.86.408.86.408s-.354.05-.404.228c-.014.07.01.124.034.18.02.046.042.093.042.15 0 .064-.008.11-.014.153s-.013.088-.013.15c.026.23.177.535.177.535l.127.025.127-.127c.303-.38.962-.38.936.178-.025.255-.71.51-1.164.407-.582-.1-1.114-.635-1.47-1.32-.454-.84-.707-1.372-.758-2.236-.025-.354.278-.888.278-.888s.558-.025.86-.66c.077-.127.128-.33.128-.33s.253-.153.253-.28c.127-.203.025-.61.025-.61s.127-.075.178-.126c.15-.178.253-.533.253-.533s.1.05.177.05c.253.026.506-.28.53-.38.204-.56-.86-.915-.86-.915l.23-.152-.128-.432h-.48l-.077.228S7.9.914 7.545.992c-.28.05-.583.202-.583.507 0 .1.076.253.076.253l-.253.076s-.025.075-.025.126v.127s-.178.05-.304.05c-.177 0-.43-.076-.43-.076l-.077.102.025.202s-.1 0-.152.05c-.102.077-.05.33-.05.33s-.127-.405-.33-.507c-.086-.052-.16-.056-.246-.062-.04-.003-.085-.006-.134-.014l-.126-.026-.05.127s.1.28.126.458c0 .023-.003.047-.005.07v.006a.326.326 0 0 0 .005.152c.05.153.152.23.303.305.203.103.583.027.583.027zM4.747 14.073a.518.518 0 0 1-.014-.053c-.05-.203.076-.482.076-.482l-.047-.004c.066-.155.148-.276.148-.276l-.38.05s.255-.227.457-.303c.163-.07.297-.035.432 0 .117.03.236.06.377.025.067-.017.11-.033.155-.05h.003a.637.637 0 0 1 .07-.026c.557-.254.735-1.17.48-1.474-.192-.217-.454-.09-.478-.076a.674.674 0 0 1 .01-.083v-.009c.01-.084.02-.162-.012-.26-.05-.458-.33-.992-.607-.992-.076 0-.026.483-.026.483s-.05.204-.152.28c-.075.05-.253.076-.253.076l.228.356s-.278-.05-.43.025c-.1.05-.228.204-.228.204s-.91.23-1.14-.152c-.025-.076-.075-.203-.075-.203s-.203.05-.304 0a.414.414 0 0 1-.152-.127s-.253-.025-.38-.127a.353.353 0 0 1-.1-.126c-.026-.044-.052-.09-.102-.127-.142-.12-.262-.15-.443-.194l-.037-.01c-.228-.025-.608.05-.608.05 0 .002.177-.227.304-.33.075-.05.2-.126.2-.126s-.074-.05-.15-.076c-.178-.05-.48-.024-.48-.024l.48-.23.177-.1-.152-.077s.278-.178.48-.178c.254 0 .61.177.61.177s-.128.203-.18.355c-.024.076-.05.23-.05.23s.178.05.28.05c.127.014.222-.004.322-.022.078-.015.16-.03.26-.03.48-.025 1.265.077 1.265.077s-.025-.153-.05-.254c-.026-.203 0-.508 0-.508s-.152-.076-.254-.102c-.177-.025-.48.05-.48.05s.126-.228.253-.355c.064-.062.127-.1.19-.138a.865.865 0 0 0 .19-.14c.1-.102.228-.305.228-.305s.43.127.71.153c.353.025.91-.077.91-.077l-.126-.152s-.127-.05-.203-.1c-.108-.084-.142-.2-.175-.313-.037-.125-.07-.243-.205-.297-.05-.026-.152-.026-.152-.026s-.152-.254-.304-.355c-.05-.027-.177-.077-.177-.077l-.152-.204s-.254.228-.456.28c-.1.028-.185.024-.276.02-.07-.003-.143-.007-.23.004-.097.014-.163.035-.227.055-.055.017-.11.034-.18.046-.194.04-.388.018-.57-.002-.17-.018-.33-.035-.467.002-.052.02-.104.054-.16.09-.08.052-.166.11-.27.138-.06.02-.12.02-.18.02-.094.003-.18.004-.226.082-.076.127.026.356.026.356s-.203-.026-.254-.127c-.025-.05-.025-.102-.025-.153 0-.127.153-.28.153-.28l.127-.406s-.203.05-.355.05c-.126-.024-.278-.075-.278-.075l.025-.177s-.177.026-.278.102a.75.75 0 0 0-.203.178s0-.178.05-.28c.07-.138.18-.193.314-.258l.042-.02c.135-.06.244-.04.357-.02.078.014.158.03.25.02h.127s0-.18-.05-.28c-.102-.153-.43-.178-.43-.178s.328-.153.506-.102c.227.076.38.457.38.457s.632-.152 1.037-.28c.507-.177 1.24-.482 1.24-.482v-.05s-.48.05-.76-.05c-.252-.078-.606-.255-.606-.255s.1 0 .177-.026c.076 0 .177-.052.177-.052s-.328-.025-.505-.127c-.076-.024-.152-.1-.152-.1s.076.025.152.025c.1 0 .253-.025.253-.025l-.228-.076c-.177-.077-.38-.254-.38-.254s.076.025.152.025.178-.025.178-.025-.254-.05-.355-.153c-.1-.1-.1-.38-.1-.38S2.1 4.19 1.948 4.19c-.203 0-.482.102-.482.102l.102-.28-.152-.024.025-.23-.152-.024s.052-.153.102-.254l.048-.062.008-.01a.948.948 0 0 0 .122-.182c.05-.127.05-.33.05-.33s.456-.026.71.025c.277.077.657.306.657.306s-.05.43.05.686c.153.33.684.584.684.584l.18.05s.328-.33.606-.38c.254-.05.734.126.734.126s-.38.077-.582.204c-.354.203-.76.71-.76.71s.66-.253 1.09-.253c.252 0 .658.076.658.076s-.203.202-.355.278c-.125.077-.328.127-.328.127s.43.05.658-.05c.05-.026.152-.102.152-.102s-.05.102-.1.178c-.102.128-.33.28-.33.28s.53-.228.81-.482c.152-.127.354-.38.354-.38s-.126.278-.253.43c-.127.178-.38.432-.38.432s.33-.05.532-.152c.48-.254.886-1.092.886-1.092s-.252.33-.455.508c-.15.127-.405.304-.405.304s.152-.304.203-.508c.05-.152.05-.38.05-.38s-.202.304-.354.457c-.178.152-.457.38-.457.38V5.03l-.202.1.127-.177s-.38-.203-.658-.23c-.305-.024-.81.154-.81.154s.38-.254.657-.356c.228-.075.583-.15.583-.15s-.203-.128-.28-.255c-.1-.178-.075-.483-.075-.483s.203.23.355.33l.034.02c.265.145.51.28.776.133.126-.05.253-.23.253-.23s-.076-.075-.152-.126c-.126-.077-.38-.052-.38-.052s.026-.1.026-.152v-.152s.38.025.38-.356c0-.457-.506-.356-.506-.356l-.025-.05s.025-.05.05-.077c.022-.022.045-.034.065-.046.025-.015.048-.028.062-.056.05-.076.05-.204.05-.204s.254.077.405.077c.127 0 .355-.05.355-.05s.05-.077.076-.128c.025-.077-.05-.18-.05-.18l.303-.1v-.153a.377.377 0 0 0-.045-.16c-.042-.093-.078-.172.07-.272.508-.38 1.115.458 1.115.458l.203-.28-.026-.1.228-.052.076.204-.1.05-.203.306s1.04.228.937.685c-.076.254-.38.23-.38.23s-.1-.052-.15-.052c-.128 0-.18.254-.18.254s-.328-.254-.58-.254c-.355-.025-.81.432-.81.432s.1.05.126.127c.025.076-.05.178-.05.178s.024.152.05.254c.01.09.042.16.073.23a.68.68 0 0 1 .078.303c.027.356-.353.864-.353.864s.456-.33.532-.634c.075-.23-.027-.585-.027-.585L8 4.27s-.025-.28-.1-.432c-.077-.152-.254-.355-.254-.355s.227.1.38.1c.252 0 .58-.202.58-.202l-.277.23s.126.278.05.456c-.05.152-.33.28-.33.28s-.126.507-.354.736c-.202.203-.633.33-.633.33s-.253.483-.278.838c-.025.407.05.864.228 1.372.405 1.244 1.34 2.565 2.152 2.59.835.026 1.493-.203 1.468-.71 0-.585-.48-.61-.734-.585-.254.026-.558.38-.558.38s-.076-.126-.102-.202c0-.05.013-.088.025-.125v-.002a.367.367 0 0 0 .026-.127c0-.128-.075-.33-.075-.33s.025-.077.076-.128c.057-.056.12-.066.188-.076a.452.452 0 0 0 .168-.05c.075-.052.177-.154.177-.154l-.48-.203s-.533-.204-.736-.483c-.076-.102-.15-.305-.15-.305l-.128-.076s-.077-.077-.102-.127c-.026-.078.076-.205.076-.205l.633.458.582.304.835.432-.153-.28s-1.088-1.677-.835-2.54c.115-.42.486-.543.84-.66.266-.09.523-.174.654-.38.077-.154.127-.408.127-.408s.127.102.152.203c.04.15-.058.263-.166.385l-.063.072c-.15.178-.277.407-.277.407s.38-.23.633-.204c.557.025 1.038-.127 1.14-.28.252-.38.05-.66.05-.66s.354.1.48.28c.178.253.127.507-.025.787-.277.508-1.416.33-1.416.33l-.38-.05s.304.202.278.38c0 .05-.05.152-.05.152s-.1 0-.152.026c-.076.052-.076.23-.076.23s-.05-.23-.127-.33c-.253-.382-.785-.433-1.164-.153-.33.254-.076 1.067.202 1.65.17.36.37.632.555.885.287.39.538.735.585 1.275.05.533.05.838-.583 1.22-.33.227-1.012.278-1.012.278h-.127s.152.077.228.153c.077.076.178.203.178.203l-.025.077s-.076.05-.127.076c-.1.077-.202.28-.202.28s0-.432-.152-.61c-.094-.11-.216-.132-.35-.157-.082-.016-.17-.032-.258-.072-.162-.06-.283-.166-.398-.266-.173-.15-.33-.287-.59-.24-.295.05-.304.248-.313.464v.002c-.005.098-.01.2-.04.295-.077.202-.153.532-.153.532s.532.228.48.482c-.024.102-.125.23-.125.23s.405.177.456.405c.076.457-.15.584-.15.584s-.204.152-.33.254a1.35 1.35 0 0 0-.188.17c-.062.067-.12.13-.217.185-.127.085-.247.09-.37.098-.1.005-.202.01-.314.056-.53.228-.632.71-.632.71l-.253-.558s-.43-.152-.608.025c-.076.102-.126.305-.126.305s-.06-.062-.112-.125zM2.38 1.143c-.026-.127-.152-.305-.152-.305s.177.076.228.178c.05.05.075.152.075.152s.077-.076.128-.076h.102s-.102.05-.153.102c-.1.076-.253.228-.253.228s.05-.177.026-.28zm5.164.254c-.1.025 0 .254 0 .254l.405-.024-.203-.102s-.026-.178-.203-.127zm-.126.432c-.076.126.228.304.303.202.077-.102-.226-.305-.302-.203zm.48.33c-.075.126.23.304.305.202.076-.127-.228-.33-.304-.203zm.482.33c-.076.126.228.304.304.202.076-.127-.228-.33-.304-.203zm-1.57.304s.05.23.152.33c.076.102.278.153.278.153s-.278.025-.38-.077c-.126-.127-.05-.406-.05-.406zm.127.635c-.127-.077-.203-.306-.203-.306s-.025.305.1.407c.128.077.406 0 .406 0s-.202-.025-.303-.1zm2-.966s.152-.076.152-.153c.024-.126-.28-.202-.28-.202s.05.102.05.153c0 .077-.025.178-.025.178l.102.026zm-1.595-.127c-.076 0-.127.05-.127.127 0 .076.05.127.127.127.076 0 .126-.05.126-.126s-.05-.127-.126-.127zM6.71 3.454s.125.204.252.28c.126.05.33.05.33.05s-.254.128-.406.05c-.152-.075-.177-.38-.177-.38zm-4-.71l-.204-.026s-.05-.23.05-.33c.052-.05.204-.05.204-.05l.05.075s-.05.102-.076.178c-.025.077-.025.153-.025.153zm.15.1s.153.052.23.128c.075.076.15.203.15.203s.077-.254-.025-.356c-.076-.102-.354.025-.354.025zm.153-.507c-.05-.102-.228-.153-.228-.153s.203-.1.33-.076c.05 0 .126.05.126.05s0 .28.127.382c.065.052.13.03.2.007.064-.02.132-.044.205-.007.086.043.115.11.147.183.024.057.05.117.105.173.05.05.178.152.178.152s-.254.076-.304-.102a.95.95 0 0 1-.077-.1s-.076.15-.127.227c-.05.077-.152.178-.152.178s.05-.405-.126-.558c-.127-.1-.405-.1-.405-.1s.05-.18 0-.255zm.1-.94c-.15.05-.328.23-.328.23l.71-.223c-.02 0-.056-.002-.098-.005a1.22 1.22 0 0 0-.283-.003zm-2.38 1.22s.102.025.178.025c.103 0 .23-.077.23-.077s-.178.178-.23.33c-.05.128 0 .38 0 .38s.204-.43.457-.557c.1-.05.28-.076.28-.076l-.128-.127s.303.025.48.076c.126.052.33.128.33.128s-.052-.203 0-.305c.05-.102.2-.178.2-.178s0-.152.027-.254c.076-.15.43-.177.43-.177s-.177-.076-.278-.05c-.052 0-.128.05-.128.05s0-.203.076-.33c.05-.1.203-.178.203-.178s-.075 0-.15.026c-.253.06-.262.215-.272.374-.007.113-.014.228-.11.313l-.15.152-.077.15c-.108.138-.26.098-.423.056-.138-.036-.283-.074-.41-.004a.572.572 0 0 0-.115.076.68.68 0 0 1-.114.077c-.127.05-.304.1-.304.1zm.963 2.133c.05-.127.152-.33.152-.33h.203s-.15.228-.202.355c-.05.127-.1.33-.1.33h-.102s0-.228.05-.355zm-.91-3.683s.252.152.328.305c.038.076.038.14.038.203s0 .127.038.203c.088.163.246.17.41.178.12.006.244.012.35.076.025.025.1.076.1.076s-.1-.127-.126-.228a.58.58 0 0 1-.05-.204.42.42 0 0 0-.076-.228c-.038-.064-.09-.095-.14-.127a.383.383 0 0 1-.14-.126c-.1-.178 0-.508 0-.508s-.15.152-.2.254c-.052.152-.027.432-.027.432s-.2-.28-.38-.305H.786zM2.632.254s.228.254.43.305c.1.024.184.01.266 0a.576.576 0 0 1 .265 0c.05 0 .177.024.177.024s-.38.102-.532.28c-.1.1-.15.33-.15.33h-.204s.05-.153.05-.254c-.01-.088-.06-.11-.115-.134-.072-.033-.158-.07-.187-.273v-.28zm.633 1.473h.152c.106.012.174.096.24.177.074.092.145.18.266.153.123-.013.165-.115.21-.222.037-.092.076-.188.17-.235.05-.025.152-.05.152-.05s-.152-.026-.253-.026c-.083 0-.136.03-.19.06a.46.46 0 0 1-.165.067c-.065.014-.117 0-.166-.013-.045-.012-.088-.024-.138-.01-.126 0-.278.1-.278.1zm1.9.762c-.027-.052-.103-.128-.103-.128s.33.076.456.203c.062.076.075.15.087.223.013.074.025.145.09.21.075.075.227.126.227.126s-.532.05-.684-.178c-.05-.076-.044-.152-.037-.228.006-.076.012-.153-.038-.23zm2.96.507c-.177.026-.38.203-.38.203s.153.102.254.127c.253.077.633-.152.633-.152s-.304-.203-.507-.178zm-2.05.102c-.025-.103.076-.255.076-.255s.177.076.177.178c.024.076-.052.203-.052.203s-.152-.05-.202-.127z"/></defs></svg>