<?xml version="1.0" encoding="UTF-8"?>
<svg width="18px" height="27px" viewBox="0 0 18 27" version="1.1" xmlns="http://www.w3.org/2000/svg" xmlns:xlink="http://www.w3.org/1999/xlink">
    <!-- Generator: Sketch 48.2 (47327) - http://www.bohemiancoding.com/sketch -->
    <title>antillephone_icon</title>
    <desc>Created with Sketch.</desc>
    <defs></defs>
    <g id="footer_com-copy" stroke="none" stroke-width="1" fill="none" fill-rule="evenodd" transform="translate(-243.000000, -567.000000)">
        <g id="antillephone_icon" transform="translate(244.000000, 568.000000)">
            <path d="M13.5709233,5.35714286 L13.1379475,5.35714286 C13.1379475,5.26088467 12.2080723,4.99116376 10.8723173,4.84288858 L10.9186635,4.39902493 C12.6112179,4.58690652 13.5709233,4.86528004 13.5709233,5.35714286 Z M9.33803208,4.26837573 L9.32034948,4.71443185 C8.90103982,4.69676057 8.47308466,4.68764983 8.04489387,4.68750185 C7.59363199,4.68750005 7.15695094,4.69810906 6.73166024,4.71894131 L6.71111382,4.27301567 C7.1432746,4.2518469 7.58680659,4.24107145 8.04496726,4.24107329 C8.47908488,4.24122331 8.91288703,4.25045852 9.33803208,4.26837573 Z M5.16225835,4.36127739 L5.21688843,4.80413818 C4.07584963,4.95377614 2.90944124,5.26378981 2.87412667,5.38376327 L2.4598122,5.25411237 C2.57406352,4.86596867 3.78631221,4.54172153 5.16225835,4.36127739 Z" id="Oval-4" fill="#ABB2BA" fill-rule="nonzero"></path>
            <path d="M8.01822917,0.0803266253 C8.03758704,0.0899351482 8.05130994,0.0967752655 8.05939787,0.100846977 C8.49931118,0.322312748 8.8804993,0.585099066 9.20296224,0.889205933 C9.53544272,1.2027601 9.83472296,1.58780838 10.100803,2.04435076 C10.3453053,1.63032895 10.6206416,1.2991769 10.9268121,1.0508946 C11.2329825,0.802612305 11.5807473,0.599724906 11.9701063,0.442232404 C12.2537797,0.62025161 12.5171803,0.900268555 12.7603082,1.28228324 C13.0034361,1.66429792 13.1487992,2.07108997 13.1963976,2.50265939 C13.5592325,2.20831207 13.9593157,1.97465278 14.3966471,1.80168152 C14.8339785,1.62871025 15.3435452,1.5025891 15.9253472,1.42331805 C15.4161965,1.90785726 15.0088252,2.37677438 14.7032335,2.83006941 C14.2448459,3.51001195 13.6054688,4.63643755 13.4009332,5.33556257 C13.2645761,5.80164591 13.3867007,6.33635748 13.7673069,6.93969727 L2.27360026,6.93969727 C2.65420645,6.33635748 2.77633102,5.80164591 2.63997396,5.33556257 C2.43543837,4.63643755 1.7960612,3.51001195 1.33767361,2.83006941 C1.03208189,2.37677438 0.624710648,1.90785726 0.115559896,1.42331805 C0.697361874,1.5025891 1.20692857,1.62871025 1.64425998,1.80168152 C2.0815914,1.97465278 2.48167458,2.20831207 2.84450955,2.50265939 C2.89210793,2.07108997 3.03747106,1.66429792 3.28059896,1.28228324 C3.52372685,0.900268555 3.78712746,0.62025161 4.07080078,0.442232404 C4.46015987,0.599724906 4.80792462,0.802612305 5.11409505,1.0508946 C5.42026548,1.2991769 5.69560185,1.63032895 5.94010417,2.04435076 C6.20618416,1.58780838 6.5054644,1.2027601 6.83794488,0.889205933 C7.15889158,0.586528988 7.53801251,0.324784924 7.97530768,0.103973739 C7.98476272,0.0991994383 7.99906988,0.091317067 8.01822917,0.0803266253 Z" id="Combined-Shape" stroke="#BAC1C8"></path>
            <path d="M11.5555556,14.906856 L11.5555556,21.9830104" id="Path-4" stroke="#BAC1C8" stroke-width="0.7"></path>
            <path d="M0.814019097,18.7003544 L8,18.7003544 L8,21.738875 L14.8499574,21.738875 C14.8198313,21.7892069 14.7963731,21.8266731 14.7795827,21.8512735 C14.3729835,22.4470024 13.5071001,22.8952491 11.7424045,23.1912885 C9.81712963,23.5142662 8.56966146,24.0487598 8,24.7947693 C7.43033854,24.0487598 6.18287037,23.5142662 4.25759549,23.1912885 C1.36968316,22.706822 0.888888889,21.8147278 0.888888889,20.5357143 L0.814019097,18.7003544 Z" id="Combined-Shape" fill="#D5D9DD"></path>
            <path d="M11.5399933,15.1940918 C12.710377,15.1940918 13.90726,15.0323486 15.1306424,14.7088623 L15.1306424,7.24567206 L8.1591799,7.24567206 L8.1591799,14.7088623 C9.24267178,15.0323486 10.3696096,15.1940918 11.5399933,15.1940918 Z" id="Path-6" fill="#D5D9DD"></path>
            <path d="M0.888888889,7.14285714 L15.1111111,7.14285714 C15.1111111,15.2187529 15.1111111,19.6830386 15.1111111,20.5357143 C15.1111111,21.8147278 14.6303168,22.706822 11.7424045,23.1912885 C9.81712963,23.5142662 8.56966146,24.0487598 8,24.7947693 C7.43033854,24.0487598 6.18287037,23.5142662 4.25759549,23.1912885 C1.36968316,22.706822 0.888888889,21.8147278 0.888888889,20.5357143 C0.888888889,19.6830386 0.888888889,15.2187529 0.888888889,7.14285714 Z" id="Combined-Shape" stroke="#BAC1C8"></path>
            <path d="M5.76382071,12.300522 L10.2361793,12.300522 L10.2361793,16.5120762 C10.2361793,16.9142782 10.0849874,17.1948086 9.17684667,17.3471553 C8.57141951,17.4487197 8.17913729,17.616798 8,17.8513902 C7.82086271,17.616798 7.42858049,17.4487197 6.82315333,17.3471553 C5.91501258,17.1948086 5.76382071,16.9142782 5.76382071,16.5120762 L5.76382071,12.300522 Z" id="Combined-Shape" fill="#BAC1C8"></path>
            <path d="M13.3333333,7.14285714 C13.3333333,6.64974576 10.9455187,6.25 8,6.25 C5.05448133,6.25 2.66666667,6.64974576 2.66666667,7.14285714" id="Oval-4" stroke="#BAC1C8" stroke-width="0.888888889"></path>
            <path d="M8.03472222,7.16770717 L8.03472222,24.3907471" id="Path-5" stroke="#BAC1C8" stroke-width="0.7"></path>
            <path d="M8,14.017868 C7.75454011,14.017868 7.55555556,13.8179952 7.55555556,13.5714395 C7.55555556,13.3248838 7.75454011,13.1250109 8,13.1250109 C8.24545989,13.1250109 8.44444444,13.3248838 8.44444444,13.5714395 C8.44444444,13.8179952 8.24545989,14.017868 8,14.017868 Z M8,15.3571538 C7.75454011,15.3571538 7.55555556,15.1572809 7.55555556,14.9107252 C7.55555556,14.6641695 7.75454011,14.4642966 8,14.4642966 C8.24545989,14.4642966 8.44444444,14.6641695 8.44444444,14.9107252 C8.44444444,15.1572809 8.24545989,15.3571538 8,15.3571538 Z M8,16.6964395 C7.75454011,16.6964395 7.55555556,16.4965666 7.55555556,16.2500109 C7.55555556,16.0034552 7.75454011,15.8035823 8,15.8035823 C8.24545989,15.8035823 8.44444444,16.0034552 8.44444444,16.2500109 C8.44444444,16.4965666 8.24545989,16.6964395 8,16.6964395 Z" id="Combined-Shape" fill="#FFFFFF"></path>
        </g>
    </g>
</svg>