<svg xmlns="http://www.w3.org/2000/svg" width="28" height="24" xmlns:xlink="http://www.w3.org/1999/xlink"><use fill="#BAC1C8" xlink:href="#a" transform="translate(4.92 .13)"/><use fill="#FFFFFE" xlink:href="#b" transform="translate(6.58 1.89)"/><use fill="#BAC1C8" xlink:href="#c" transform="translate(.36 19.5)"/><use fill="#BAC1C8" xlink:href="#d" transform="translate(2.98 20.49)"/><use fill="#BAC1C8" xlink:href="#e" transform="translate(5.14 19.71)"/><use fill="#BAC1C8" xlink:href="#f" transform="translate(6.85 20.44)"/><use fill="#BAC1C8" xlink:href="#g" transform="translate(9.31 19.5)"/><use fill="#BAC1C8" xlink:href="#h" transform="translate(11.45 20.49)"/><use fill="#BAC1C8" xlink:href="#i" transform="translate(13.75 20.44)"/><use fill="#BAC1C8" xlink:href="#j" transform="translate(16.18 19.5)"/><use fill="#BAC1C8" xlink:href="#k" transform="translate(17.37 20.49)"/><use fill="#BAC1C8" xlink:href="#l" transform="translate(19.63 20.44)"/><use fill="#BAC1C8" xlink:href="#m" transform="translate(21.88 19.5)"/><use fill="#BAC1C8" xlink:href="#n" transform="translate(23.04 19.37)"/><use fill="#BAC1C8" xlink:href="#o" transform="translate(25.47 20.44)"/><defs><path id="a" fill-rule="evenodd" d="M0 9.04c0-.353.02-.71.063-1.068C.603 3.38 4.495 0 9 0c.354 0 .71.02 1.068.063 4.584.542 7.956 4.44 7.956 8.955a9.017 9.017 0 0 1-10.066 8.978C3.373 17.454 0 13.556 0 9.04z"/><path id="b" fill-rule="evenodd" d="M9.776 14.262l.228.176a2.63 2.63 0 0 0-.174.29c-.072.135-.15.294-.226.453-.152.318-.29.635-.344.758l-.024.055-.06.136-.143.03c-.447.1-1 .16-1.618.16-1.152 0-2.526-.213-3.806-.823l-.456-.218.445-.302.082-.06a5.19 5.19 0 0 0 .285-.235c.226-.2.5-.482.69-.79.09-.145.16-.293.202-.44.002-.01.013-.05-.012-.078a18.3 18.3 0 0 1-.32-.386 6.943 6.943 0 0 0-.508-.603c-.42-.44-.837-.917-1.236-1.364-.398-.447-.78-.864-1.115-1.175a5.91 5.91 0 0 0-.64-.488C.8 9.207.58 9.066.396 8.925a1.358 1.358 0 0 1-.309-.315A.53.53 0 0 1 0 8.33a.492.492 0 0 1 .116-.308c.198-.233.56-.418 1.062-.418.592 0 1.367.254 2.346.98.27.198.526.383.77.555.063.044.08.04.127.015.16-.078.276-.155.36-.227a.634.634 0 0 0 .19-.266c.02-.06.03-.13.03-.214 0-.158-.04-.368-.115-.63-.072-.26-.174-.57-.28-.934-.415-1.42-.86-2.907-1.21-4.008a1.467 1.467 0 0 1-.07-.43c0-.29.11-.547.287-.72a.931.931 0 0 1 .66-.27c.222 0 .45.077.64.23.192.155.346.382.436.67.12.385.328.93.567 1.558.24.63.51 1.346.76 2.09.01.032.015.03.038.042.022.012.064.006.107.006.067 0 .142-.007.205-.02a.082.082 0 0 0 .057-.028c-.002-.29 0-.56 0-.56l.002-4.432a.97.97 0 0 1 .369-.764C7.668.08 7.93 0 8.193 0c.183 0 .37.04.537.13.167.09.316.235.403.43.06.127.09.274.09.43l.003 4.997c0 .02 0 .123.01.15l.043.018a.84.84 0 0 0 .33.05c.014-.056.03-.108.037-.134.083-.28.313-1.048.555-1.87.24-.82.494-1.697.62-2.18a.976.976 0 0 1 .433-.584c.198-.125.424-.184.648-.185.17 0 .34.035.493.114a.824.824 0 0 1 .463.762c0 .1-.015.203-.044.308-.275 1.024-.805 3.018-1.126 4.23l-.013.054-.026.12c-.005.03-.014.058 0 .12.055.028.123.056.183.076.01.004.025.008.046.006.006-.01.045-.06.092-.127.338-.462.884-1.29 1.227-1.793.114-.17.204-.3.27-.38a.785.785 0 0 1 .326-.24c.122-.05.25-.074.382-.075a.89.89 0 0 1 .39.086.693.693 0 0 1 .315.31c.047.096.07.205.07.318 0 .184-.058.374-.168.58-.23.427-.614 1.017-.995 1.6-.38.58-.757 1.15-.955 1.504a2.44 2.44 0 0 0-.118.232 8.39 8.39 0 0 0-.205.62c-.082.278-.176.61-.27.96-.192.696-.392 1.455-.54 1.977-.124.45-.37.772-.63 1.007-.263.236-.54.396-.75.544-.142.1-.252.19-.318.278l-.228-.176z"/><path id="c" fill-rule="evenodd" d="M.864 2.456h.54L1.14.78h-.012L.864 2.455zm-.216 1.45H0L.718 0h.832l.718 3.906H1.62L1.5 3.04H.768l-.12.866z"/><path id="d" fill-rule="evenodd" d="M1.814 0v2.91h-.572v-.29c-.254.217-.384.347-.735.347C.19 2.965 0 2.732 0 2.353V0h.605v2.256c0 .146.086.21.216.21s.25-.08.39-.183V0h.604"/><path id="e" fill-rule="evenodd" d="M0 1.282V.784h.335V0H.94v.784h.404v.498H.94V2.96c0 .15.064.237.205.237h.2v.52a1.04 1.04 0 0 1-.303.032c-.453 0-.707-.212-.707-.655V1.282H0"/><path id="f" fill-rule="evenodd" d="M1.274.974c0-.336-.118-.476-.334-.476-.216 0-.335.14-.335.476v1.07c0 .336.12.477.335.477.216 0 .334-.14.334-.475V.975zM0 1.082C0 .444.25 0 .94 0s.94.444.94 1.082v.855c0 .638-.25 1.082-.94 1.082S0 2.574 0 1.936v-.855z"/><path id="g" fill-rule="evenodd" d="M0 3.906V0h1.793v.584H.67V1.59h.863v.585H.67v1.147h1.198v.584H0"/><path id="h" fill-rule="evenodd" d="M.648 1.37L.048 0h.627l.308.812L1.307 0h.626l-.626 1.358.658 1.553H1.34l-.352-.984h-.01l-.352.985H0l.648-1.54"/><path id="i" fill-rule="evenodd" d="M1.274 1.05V.974c0-.336-.118-.476-.334-.476-.216 0-.335.14-.335.476v1.07c0 .336.12.477.335.477.216 0 .334-.14.334-.475V1.86h.605v.077c0 .638-.25 1.082-.94 1.082S0 2.574 0 1.936v-.855C0 .444.25 0 .94 0c.68 0 .928.427.94 1.05h-.606"/><path id="j" fill-rule="evenodd" d="M0 3.906h.605V0H0v3.906z"/><path id="k" fill-rule="evenodd" d="M1.814 0v2.91h-.572v-.29c-.254.217-.384.347-.735.347C.19 2.965 0 2.732 0 2.353V0h.605v2.256c0 .146.086.21.216.21s.25-.08.39-.183V0h.604"/><path id="l" fill-rule="evenodd" d="M1.247.86C1.204.627 1.097.498.902.498.745.498.637.578.637.73c0 .455 1.134.64 1.134 1.504 0 .52-.355.785-.847.785-.53 0-.83-.304-.923-.813l.53-.146c.037.245.123.46.4.46.155 0 .27-.09.27-.253C1.2 1.764.064 1.574.064.78.065.32.42 0 .875 0c.475 0 .794.32.885.774L1.247.86"/><path id="m" fill-rule="evenodd" d="M0 3.906h.605V.996H0v2.91zM0 .552h.605V0H0v.552z"/><path id="n" fill-rule="evenodd" d="M1.274 2.045c0-.335-.118-.476-.334-.476-.216 0-.335.14-.335.475v1.07c0 .337.12.477.335.477.216 0 .334-.14.334-.476v-1.07zM1.004.78H.556L.983 0h.728l-.706.78zM0 2.152C0 1.515.248 1.07.94 1.07c.69 0 .94.445.94 1.083v.855c0 .638-.25 1.082-.94 1.082-.692 0-.94-.444-.94-1.082v-.855z"/><path id="o" fill-rule="evenodd" d="M0 2.965V.055h.572v.29C.826.13.956 0 1.307 0c.318 0 .507.233.507.61v2.355H1.21V.71c0-.147-.087-.212-.217-.212S.745.578.605.682v2.283H0"/></defs></svg>