<svg id="Capa_1" xmlns="http://www.w3.org/2000/svg" width="640" height="723.7"><style>.st1{fill:#0033a0}.st2{fill:#fff}.st3{fill:#b58500}.st4{fill:#5c4738}.st5{fill:#be6a14}.st6{fill:#2c2a29}.st7{fill:none}</style><g><g><g><path d="M320 30.3S206.4 145.9 44.7 38.1c0 0-47.5 128.9 34.2 320.2L320 172.6l116.5-89.7C364.1 75.2 320 30.3 320 30.3z" fill="#9bcbeb"/></g><g><path class="st1" d="M30.5 256.8h187.8L78.9 369.4l-30-30z"/></g><g><path class="st1" d="M608.3 114.8L320 343.8 146.1 482C188 545.4 244.4 613.1 320 683.4c263.8-245.5 294.6-459.5 288.3-568.6z"/></g><g><path class="st2" d="M324.9 336.2h24v356.2h-24z"/></g><g><path class="st2" d="M384.9 266.5h24v360.7h-24z"/></g><g><path class="st2" d="M440.7 216.2h24v345.2h-24z"/></g><g><path class="st2" d="M499.1 171.6h24v308.2h-24z"/></g><g><path class="st2" d="M555.8 127.3h24V382h-24z"/></g><g><g><path class="st3" d="M288.1 178.1l-54 2.6s-15.2.3-16 .3c-.8 0-12.6 5-14.4 5-1.9 0-15.7 13.9-15.7 13.9l-6.6 11.7-2.3 5.4v8.7l3.7 19.4s5.9 7.1 7.1 7.1c1.2 0 22.6 17.5 22.6 17.5l82.2-51.7-1.2-35.8-5.4-4.1z"/></g><g><g><path class="st4" d="M255.3 192.4c-3.8-.9-6.5-1.2-8.4-3.1-1.9-1.9-1.8-3.2-7-1.7-5.1 1.5-9.5 1.5-11.9 1.5-2.4 0-3.6-.9-6.7 0-3.2.9-4.6-.1-4.6 2.3s-1.4 2.8.5 3.8c.5.2 1.2.5 2.2.6-.4.1-.7.4-1.3.6h-.6c-.4 0-.6.2-.8.5-2.7.7-2.4.1-3.5 1.2-1.1 1.1-.8 1.8-2.5 4.9-1.7 3.1-3.3.2-4.4-1-1.2-1.2-.5 2.2-.5 3.1v2.3c0 1.2-.9.9-.9 2.6 0 1.7-1 1-1 1.9 0 .7 0 1.3-.3 1.8-1.7 1.1-5.6 5.7-5.6 7-.5.2-1 .4-1.3.7-.7.7-1.5.5-2.9.5s-1.5.2-2 .7c-.5.5 0 1.5 0 2.3 0 .9 0 1.2 1.5.5 1-.4 1-.3 1.3-.3-2.4 1.4-2.1 4.5-2.1 4.5l.5 7.3h3.9c0 .2.1.5.1.8 0 2.1 1.5 0 2.5-1s2.1-.5 3.2-1.7c1.1-1.1.6-3.2.6-4.5 0 0-1.7 1.1-2.2 1.7-.2.2-.6.3-1.2.5.3-.3.6-.7 1.1-1.2 2.6-2.6 1.8-1.8 3.6-1.8s1.9-1.9 1.9-4.8c0-.6-.1-1.1-.2-1.5.2-.1.3-.3.7-.4 1.8-.7 1.3-1.3 2.6-1.3.6 0 1.1.5 1.6 1-.2.8-.4 1.4.3 2.1 1 1 2.2 1.3 3.6 1.3 1.1 0 2.4 1.6 3.1 2.1.6.9 1.6 2.5 1.1 3-.7.7-1 2.9-1 4.3 0 .7-.1 2 .2 3l-.3.3h-.9c-.4 0-.8.8-2.2.8s-1.2.7-1.7 2.2c-.6 1.5 1.4 2.6 2.2 3.4.8.8 1.2 1.6 1.2 3.2s1.5 1.3 1.7 1.3l1-.8c.3 0 .7 0 1.3-.1 3.7-.7 5.6.7 8.4-5.3 2.8-6 2.8-7.3 2.8-8.5 0-1.2.4-3.3.4-3.3s-.8-.1-1.8-.3c1.6-1.6 1.8-2 1.8-4.9 0-3 .2-5.4.2-7.4 0-1.1.3-2.5.3-3.4l.4-.4c1.5-1.5 3.6-.3 3.6-2.4s1.2-3.3 0-3.3-3.1 1.9-4.1 3c-.7.7-1.1.5-1.7 1-.1-.5-.3 0-1.7-.8-1.7-.9-.3-.9-1.7-2.3s.4-1.6-1.6-2.5c-2-.9-4-.9-4.7-.9-.4 0-.9-.2-1.1-.1.1-.4.3-.8.5-1.4 1.5-3.2 1.9-1.1 4.3-2.1 1.4-.6 2.3-2 2.8-3.2.4 0 .9-.2 1.4-.2.8 0 1.9 0 2.4.5h.1c-.2 0-.5 0-.8-.1-.9-.2-2.3 0-2.3 0l.6.6c.4.4 1.5 1.7 2.6 2.1 1 .4 1.3.8 2.1 1.6s.8.9 2.6.9c1.7 0 .8.3 1.5 1s1.2.3 4.9-.3c2.6-.4.9-.6.9-.6s.2-.2-.3-.2-1.1-.2-1.9-.2c-.8 0-1.3-.3-2.4-.4-1.1-.2-.9-.6-2-1.1-1.1-.5-.8-.8-1.4-1.5-.6-.8-.6-.6-1-1.1-.3-.3-.8-.5-1.3-.6.3 0 .6-.1.8-.1.7 0 .8.8 1.2 1.2l1.2 1.2 1.3 1.3c.5.5 1.7 0 2.2.5.5.5 1.4 0 2.4 0s1.6.3 2.2-.4c.7-.7 1.3 0 2.1 0s1.3-2.1 1.3-2.1.3-.6.6-1.4h.6c1.3 0 2.9-.9 2.9-.9s3.9-3.8 5.2-5.1c1.1-1.3 1.5-1.6-2.3-2.5zm-45 15.1c-.1.1-.2.2-.3.4-.1-.3.1-.4.3-.4zM198.9 223s0 .1 0 0c0 .1 0 0 0 0zm20.9-14.7v-.1.1z"/></g><g><path class="st4" d="M195.4 212.4c1-1 .7-1.2 1.6-2.1.9-1 .8-2.3.1-3.1 0 0-2-.2-4.2 1.7s-1.5.7-2.8 2c-.7.7-.8 1.2-.7 1.7-.2.1-.4.2-1 .8-1.4 1.4-1.4.7-2.7 2-1.3 1.3.4 1.2.4 3.2s.8.8 2.1 1.3 1.6 0 2.6-1.8c1.1-1.8.8-.8 2.1-4 .1-.1.1-.2.1-.3.7-.1 1.6-.6 2.4-1.4z"/></g><g><path class="st4" d="M234.9 184.1c-.2 0-.5-.1-1-.1-.9 0-6.7.1-8.7.1h-2s-1 .3-1.2 1.2c0 .1-.1.2-.1.3-1.1.3-2.9 3.1-2.4 2.5.5-.5 4-.9 6.3-.9h6.4c.7 0 1.3-.3 1.8-.8 4.1 0 4.2-1.6 7.8-.8 3.5.8 4.5 1.5 7.2.8s.4-2.5 5.2-.9 5.9 2.1 7.3 1.1c1.5-1 2.4-1.6 4.5-1.6s5.2-.9 5.2-.9h-36.3z"/></g><g><path class="st4" d="M213.4 247.6c-.2.6.1.6-.8 2.1-.9 1.6-.9 1.6-1.5 2.1s-.4.7-1.2 1.2c-.9.5-1.5 1.6-1.9 2-.4.4.1.6-.7 1.3l-1.7 1.7c-.1.1.1.4.1.4s.2-.7 1.6-1.2c1.3-.5 1.5-1.3 2.7-1.9 1.2-.6 1.3-.8 2.3-1.9 1-1 1.1-1.2 1.3-1.9.2-.7-.1-.5.5-1.9.6-1.5 1-2 1-2.3-.2-.2-1.5-.3-1.7.3z"/></g></g><g><path class="st5" d="M130.9 192.1h15.9v16.5h-15.9z"/><path class="st6" d="M147.3 209h-16.8v-17.4h16.8V209zm-16-.9h15v-15.6h-15v15.6z"/></g><g><path class="st5" d="M133.2 207.6l11.5.2v5.2h-10.5z"/><path class="st6" d="M145.2 213.4h-11.4l-1.1-6.3 12.5.2v6.1zm-10.7-.9h9.7v-4.3l-10.5-.2.8 4.5z"/></g><g><path class="st5" d="M148.4 207.8s-2.7-2.5-4.4-1.2c-1.7 1.2.1 2.7-2.9 4-3 1.4-5.4-1.7-6.8-3.2-1.4-1.4-3.8-1-3.8-1v18.7s11.8-4.7 16.9-5h.8l.2-12.3z"/><path class="st6" d="M130.1 225.8v-19.7l.4-.1s.4-.1.9-.1c1 0 2.3.2 3.3 1.2.2.2.3.4.5.5 1.1 1.2 2.7 2.8 4.5 2.8.4 0 .9-.1 1.3-.3 1.5-.7 1.6-1.3 1.7-2 .1-.6.2-1.3 1.1-2 .4-.3.9-.4 1.4-.4 1.7 0 3.5 1.6 3.6 1.7l.2.1-.2 13h-1.2c-5 .2-16.6 4.9-16.7 4.9l-.8.4zm.9-18.9v17.6c2.5-1 11.9-4.5 16.4-4.8h.4l.2-11.7c-.4-.4-1.7-1.3-2.8-1.3-.3 0-.6.1-.8.3-.6.4-.6.8-.7 1.4-.1.8-.3 1.8-2.2 2.7-.6.3-1.1.4-1.7.4-2.2 0-3.9-1.8-5.1-3.1l-.5-.5c-1.1-1-2.5-1.1-3.2-1z"/></g><g><path class="st3" d="M215.1 105.2c0 2.4-2 4.4-4.4 4.4-2.4 0-4.4-2-4.4-4.4 0-2.4 2-4.4 4.4-4.4 2.5 0 4.4 2 4.4 4.4z"/><path class="st6" d="M210.8 110c-2.7 0-4.8-2.2-4.8-4.8 0-2.7 2.2-4.8 4.8-4.8 2.7 0 4.8 2.2 4.8 4.8 0 2.6-2.2 4.8-4.8 4.8zm0-8.8c-2.2 0-3.9 1.8-3.9 3.9 0 2.2 1.8 3.9 3.9 3.9 2.2 0 3.9-1.8 3.9-3.9 0-2.1-1.8-3.9-3.9-3.9z"/></g><g><path class="st3" d="M217.9 115.9v-11.3h-14.3v12.2H218z"/><path class="st6" d="M218.5 117.2h-15.4v-13.1h15.3v11.8l.1 1.3zm-14.5-.9h13.5V105H204v11.3z"/></g><g><path class="st3" d="M212.7 115.5h23.6v27.3h-23.6z"/><path class="st6" d="M236.8 143.2h-24.5V115h24.5v28.2zm-23.6-.9h22.7v-26.4h-22.7v26.4z"/></g><g><path class="st3" d="M195.6 110.7h30.8v41.5h-30.8z"/><path class="st6" d="M226.8 152.7h-31.7v-42.4h31.7v42.4zm-30.8-.9h29.9v-40.6H196v40.6z"/></g><g><path class="st5" d="M92.9 221.2v-8.9l-9.6-7.6-8.9 7.1v8.6H57l-16.4 7.9v10.5l14.6 14.6 25.9-9.3z"/><path class="st6" d="M55.1 253.9l-.2-.2L40.1 239v-11l16.9-8h16.9v-8.4l9.4-7.5 10 8-.1 9.3-11.9 23-.2.1-26 9.4zm-14-15.3l14.3 14.3 25.4-9.2 11.7-22.6v-8.6l-9.1-7.3-8.4 6.7v8.9H57.1L41 228.6v10z"/></g><g><path class="st5" d="M38.7 228.1h25.7v14.2H38.7z"/><path class="st6" d="M64.8 242.7H38.2v-15.1h26.6v15.1zm-25.7-.9h24.8v-13.3H39.1v13.3z"/></g><g><path class="st5" d="M44.5 235.3h16.7l2.4 4.7-14.8 2.1-8.6-2.1z"/><path class="st6" d="M48.8 242.6l-9.5-2.3 5-5.4h17.2l2.8 5.5-15.5 2.2zm-7.8-2.8l7.8 1.9 14-2-2-3.9H44.7l-3.7 4z"/></g><g><path class="st5" d="M35.7 240h29.4v18.9H35.7z"/><path class="st6" d="M65.5 259.4H35.3v-19.8h30.3v19.8zm-29.3-.9h28.4v-18H36.2v18z"/></g><g><path class="st4" d="M207.1 148.7h-17.6v9.3H181v5.6s-7.6 3.5-9 5c-1.4 1.4-9.4 5.3-9.4 8.4v5.4h-9.2v5s-5.7 2-6.6 4.7c-.9 2.7-2.2 11.6-2.2 12 0 .4 15.5 3.4 15.5 3.4l6.8-4.7s8.8-11.2 11.8-11.8c2.9-.6 6.8-1.2 7.5-5.9.7-4.7 7.1-8 9-9.9 1.9-1.9 3.9-5.4 7.5-9 3.6-3.6 5.1-4.8 6.9-6.6 1.8-1.8 5.7-6.2 4.3-7.6s-6.8-3.3-6.8-3.3z"/><path class="st6" d="M160.2 208h-.2c-15.9-3.1-15.9-3.4-15.9-3.9s1.3-9.4 2.2-12.2c.8-2.6 5.3-4.4 6.6-4.9v-5.2h9.2V177c0-2.5 4.1-5.1 7.1-7 1.1-.7 2.1-1.3 2.5-1.7 1.3-1.3 7.5-4.3 8.9-4.9v-5.8h8.5v-9.3h18.2c.2.1 5.6 2.1 7.1 3.5.8.8.5 2.2-.9 4.2-1.2 1.8-2.9 3.5-3.4 4-.7.7-1.4 1.4-2.2 2.1-1.1 1-2.5 2.3-4.7 4.5-2.1 2.1-3.6 4.1-4.9 5.8-1 1.3-1.8 2.4-2.6 3.2-.5.5-1.3 1.1-2.2 1.8-2.6 1.9-6.1 4.6-6.6 7.9-.7 4.8-4.7 5.6-7.6 6.2l-.3.1c-2.3.5-9.1 8.5-11.5 11.6l-.1.1-7.2 4.7zm-15.1-4.1c1.5.5 9.7 2.2 14.9 3.2l6.6-4.5c1.1-1.4 9-11.3 12-11.9l.3-.1c2.9-.6 6.2-1.2 6.8-5.4.5-3.6 4.3-6.4 7-8.5.9-.7 1.7-1.2 2.1-1.7.8-.8 1.6-1.9 2.5-3.1 1.3-1.7 2.9-3.8 5-5.9 2.1-2.1 3.6-3.5 4.7-4.5.8-.7 1.5-1.4 2.2-2.1.5-.5 2.1-2.2 3.3-3.9 1.1-1.5 1.4-2.7 1-3.1-1.1-1.1-5.1-2.7-6.7-3.3h-17.1v9.3h-8.5v5.4l-.3.1c-2.1 1-7.7 3.7-8.9 4.9-.4.4-1.4 1.1-2.6 1.8-2.6 1.7-6.6 4.3-6.6 6.2v5.8h-9.2v4.9l-.3.1c-1.5.5-5.7 2.4-6.3 4.4-.5 2.7-1.7 10.3-1.9 11.9z"/></g><g><path class="st5" d="M229.1 153h-23.5s-1.2 3.3-2.1 4.2c-.9.9-4 2.7-4 4 0 1.3-1.1 2.3-2.2 3.5-1.2 1.2-5 4.5-6 5.5s-.1 4.5-1.5 6c-1.5 1.5-7.6 6.3-7.6 6.3-.8 2.6-1.3 5.5-5 5.5-3.8 0-7.2-.2-8 .6-.8.8-.9.4-2.4 1.8-1.4 1.4-3.4 2.2-3.4 5s-1.5 5.3-2.5 5.3c-.9 0-4.7 7-1.5 9.2 3.2 2.1 10 .2 10 .2s14.4-3.6 16.1-8.4c1.6-4.8 2.9-6.1 6.2-8.1 3.3-2 15.3-13.4 15.3-14 0-.6 2-2.6 4-4.6 2-2 7-6.7 9-8.8 2.1-2.1 6.2-5.9 7.6-7.3 1.4-1.4 5.4-5.1 5.4-5.5-.1-.3-3.9-.4-3.9-.4z"/><path class="st6" d="M163.7 211.4c-2 0-3.5-.4-4.6-1.1-1.5-1-1.8-3-1-5.6.5-1.8 1.8-4.3 2.8-4.3.5 0 2-2 2-4.8 0-2.4 1.4-3.5 2.5-4.5.3-.3.7-.6 1-.9.9-.9 1.3-1.1 1.7-1.3.2-.1.4-.2.7-.5.6-.6 2.1-.7 4.5-.7h3.8c3 0 3.7-2 4.4-4.4.1-.3.2-.5.2-.8v-.1l.1-.1c.1 0 6.2-4.9 7.6-6.3.7-.7.8-2 .8-3.2.1-1.2.1-2.2.7-2.8.5-.5 1.6-1.5 2.8-2.6 1.3-1.1 2.6-2.3 3.2-2.9 1.1-1.1 2.1-2.1 2.1-3.2s1.6-2.3 3-3.4c.5-.4.9-.7 1.1-.9.7-.7 1.7-3.2 2-4.1l.1-.3H229c4.3 0 4.3.5 4.3.9s-.5 1-4 4.3c-.6.6-1.2 1.1-1.5 1.5-.6.6-1.8 1.8-3.2 3-1.6 1.5-3.3 3.1-4.5 4.3-1 1-2.8 2.7-4.5 4.4-1.8 1.7-3.5 3.4-4.5 4.4-1.6 1.6-3.8 3.8-3.9 4.3 0 1.1-12.9 12.8-15.5 14.3-3.3 2-4.4 3.2-6 7.9-1.7 5-15.8 8.6-16.4 8.7 0 .1-2.7.8-5.6.8zm9.6-22.8c-.9 0-3.4 0-3.9.4-.4.4-.6.5-.9.7-.3.2-.7.4-1.5 1.1-.3.3-.7.6-1.1.9-1.2 1-2.2 1.8-2.2 3.8 0 3-1.6 5.7-2.9 5.7-.4.2-2.1 2.9-2.3 5.4-.1 1.4.2 2.3 1 2.9.9.6 2.3.9 4.1.9 2.7 0 5.5-.7 5.5-.8.2 0 14.2-3.6 15.8-8.2 1.7-4.8 3-6.3 6.4-8.3 3.2-2 14.3-12.6 15-13.7.1-.7 1.3-2 4.1-4.7 1-1 2.8-2.7 4.6-4.5 1.7-1.7 3.5-3.4 4.5-4.4 1.1-1.1 2.9-2.8 4.5-4.3 1.3-1.2 2.5-2.4 3.1-3 .4-.4.9-.9 1.6-1.5 1.1-1.1 2.9-2.8 3.5-3.5-.7-.1-2-.2-3.2-.2h-23.1c-.3.9-1.3 3.3-2.1 4.1-.3.3-.7.6-1.2 1-1 .7-2.6 2-2.6 2.7 0 1.5-1.1 2.6-2.4 3.8-.6.6-1.9 1.8-3.2 3-1.2 1.1-2.3 2.1-2.8 2.6-.3.3-.4 1.3-.4 2.2-.1 1.3-.2 2.9-1.1 3.8-1.4 1.4-6.7 5.6-7.6 6.3-.1.2-.1.4-.2.6-.7 2.4-1.5 5.1-5.2 5.1h-2c-.7.1-1.3.1-1.8.1z"/></g><g><path class="st4" d="M225.9 153l-7.9 9h-8.2v9.4h-7.3v7.6h-10.9v7.4l-9.2 6.9h-5.6v7.5l-6.7 7.2v10h12.2s1.6-5.5 5-6.6c3.4-1.1-.8-3.8 2.3-5.6 3.2-1.9 4.3-1.8 5.2-3.9.8-2.1 3.4-7.3 5.6-8.2 2.2-.9 4.3-3 4.9-3.6.6-.6 3.5-5 7.3-5s13.3-.9 13.3-.9l12.7-9v-15.8l-.7-6.6-6.1-1.8h-5.5l-.4 2z"/><path class="st6" d="M182.7 218.5h-13v-10.6l6.7-7.2V193h5.9l8.9-6.7v-7.6h10.9V171h7.3v-9.4h8.5l7.7-8.8.6-2.4h6l6.4 1.8.7 6.9v16.1l-13 9.2h-.1c-.4 0-9.6.9-13.3.9-3 0-5.4 3-6.5 4.3-.2.3-.4.5-.5.6-.7.7-2.8 2.8-5.1 3.7-2 .9-4.6 5.8-5.4 8-.6 1.7-1.6 2.1-3.1 2.9-.6.3-1.4.7-2.3 1.2-1.3.8-1.1 1.6-.9 2.6.2 1 .5 2.4-1.6 3.1-3.1 1-4.7 6.2-4.7 6.3l-.1.5zm-12.1-.9H182c.4-1.2 2.1-5.6 5.2-6.5 1.3-.4 1.2-.9 1-2-.2-1.1-.6-2.5 1.3-3.6.9-.6 1.7-.9 2.3-1.3 1.5-.7 2.1-1.1 2.6-2.4.7-1.9 3.4-7.4 5.9-8.5 1.4-.6 3-1.8 4.8-3.5.1-.1.2-.3.4-.5 1.1-1.4 3.8-4.7 7.2-4.7 3.5 0 12-.8 13.1-.9l12.4-8.8v-15.6l-.7-6.2-5.7-1.7h-5.1l-.5 2-8 9.2h-8v9.4H203v7.6h-10.9v7.2l-9.5 7.2h-5.3v7.2l-6.7 7.2v9.2z"/></g><g><circle class="st3" cx="292.1" cy="117.7" r="4.4"/><path class="st6" d="M292.1 122.5c-2.7 0-4.8-2.2-4.8-4.8 0-2.7 2.2-4.8 4.8-4.8 2.7 0 4.8 2.2 4.8 4.8.1 2.6-2.1 4.8-4.8 4.8zm0-8.8c-2.2 0-3.9 1.8-3.9 3.9 0 2.2 1.8 3.9 3.9 3.9 2.2 0 3.9-1.8 3.9-3.9.1-2.1-1.7-3.9-3.9-3.9z"/></g><g><path class="st3" d="M299.3 128.4v-11.3H285v12.2h14.4z"/><path class="st6" d="M299.9 129.7h-15.4v-13.1h15.3v11.8l.1 1.3zm-14.5-.9h13.5v-11.3h-13.4v11.3z"/></g><g><circle class="st5" cx="109.9" cy="180.6" r="4.4"/><path class="st6" d="M109.9 185.5c-2.7 0-4.8-2.2-4.8-4.8 0-2.7 2.2-4.8 4.8-4.8 2.7 0 4.8 2.2 4.8 4.8.1 2.6-2.1 4.8-4.8 4.8zm0-8.8c-2.2 0-3.9 1.8-3.9 3.9 0 2.2 1.8 3.9 3.9 3.9 2.2 0 3.9-1.8 3.9-3.9.1-2.1-1.7-3.9-3.9-3.9z"/></g><g><path class="st5" d="M117.1 191.4V180h-14.4v12.2h14.5z"/><path class="st6" d="M117.7 192.7h-15.4v-13.1h15.3v11.8l.1 1.3zm-14.5-.9h13.5v-11.3h-13.4v11.3z"/></g><g><path class="st3" d="M307.6 139.6v-17.1h-8.4v5H297v-5h-6.5v5h-2.9v-5h-6.4v5h-3.1v-5h-8v5h-2.7v-5h-8.9v5h-2.8v-5h-7.2v5h-2.6v-5h-11.7V151h65.1z"/><path class="st6" d="M299.5 151.4h-65.8V122h12.5v5h1.7v-5h8.1v5h1.9v-5h9.8v5h1.7v-5h8.9v5h2.3v-5h7.3v5h2v-5h7.4v5h1.3v-5h9.3v17.7l-8.4 11.7zm-64.8-.9h64.4l8.1-11.1V123h-7.5v5h-3.2v-5h-5.6v5h-3.8v-5h-5.5v5h-4.1v-5h-7.1v5H267v-5h-8v5h-3.7v-5H249v5h-3.5v-5h-10.7v27.5z"/></g><g><path class="st3" d="M232.4 132.5v4h-3.6v-4h-6.1v3.7h-3.8v-3.7h-6.1v4h-3.6v-4h-8.3v8.3l4.7 4.8v7.5H236v-7.5l4.7-4.8v-8.3z"/><path class="st6" d="M236.5 153.5h-31.3v-7.8l-4.7-4.7v-8.9l9.3-.1v4h2.7v-4h7v3.8h3V132h7v4h2.7v-4l9.3.1v8.9l-4.7 4.7v7.8zm-30.4-.9h29.5v-7.3l4.7-4.7V133l-7.5-.1v4h-4.5v-4h-5.1v3.8h-4.8v-3.8h-5.1v4h-4.5v-4l-7.5.1v7.7l4.7 4.7v7.2z"/></g><g><path class="st5" d="M292.7 144.9h-11.8v4.9h-3v-4.6h-7.5v4.7h-3.5v-4.5h-8.1v4.5H254v-4.3h-8.3v4.2h-4v-4.3h-6.8v23.3h59.8z"/><path class="st6" d="M295.2 169.3h-60.7V145h7.7v4.3h3.1V145h9.2v4.3h3.9v-4.5h9v4.5h2.6v-4.7h8.4v4.6h2.1v-4.9h12.7l2 25zm-59.8-.9h58.8l-1.9-23h-10.9v4.9h-3.9v-4.6h-6.6v4.7h-4.4v-4.5h-7.2v4.5h-5.7V146h-7.4v4.3h-4.9V146h-5.8v22.4z"/></g><g><path class="st5" d="M334.2 163.4v16.3h-43.7v-47.2h7.8v5.1h3.4v-5.1h8.6v4.7h2.9v-4.7h7.7v4.7h3.6v-4.7h9.7V160z"/><path class="st6" d="M334.6 180.2H290V132h8.7v5.2h2.5V132h9.5v4.7h2V132h8.6v4.7h2.7V132h10.6v48.2zm-43.7-.9h42.8V133h-8.8v4.7h-4.5V133h-6.8v4.7h-3.8V133h-7.7v5.2h-4.3V133h-6.9v46.3z"/></g><g><path class="st3" d="M335 164.1v-3.4h-8.5v5.3h-4.6v-5.3h-9.6v5.3h-3.6v-5.3h-9.5v5.1h-3.6v-5.1h-9.1v5.2h-3.6v-5.2h-9.3v5.2h-3.2v-5.2h-9.1v5.3h-4v-5.3h-9v5.6h-4v-5.6h-8.9v5.3h-3.5v-5.3h-6.4v23.4h109.1z"/><path class="st6" d="M335.1 184.6H225v-24.3h7.3v5.3h2.6v-5.3h9.8v5.6h3.1v-5.6h9.9v5.4h3v-5.4h10v5.2h2.4v-5.2h10.2v5.2h2.7v-5.2h10v5.1h2.7v-5.1h10.4v5.3h2.7v-5.3h10.5v5.4h3.7v-5.4h9.4v3.9l-.3 20.4zm-109.2-.9h108.3l.4-19.6v-3H327v5.4h-5.6v-5.4h-8.7v5.3h-4.5v-5.3h-8.6v5.1H295v-5.1h-8v5.2h-4.5v-5.2h-8.4v5.2h-4.2v-5.2h-8.2v5.4h-4.9v-5.4h-8.1v5.6h-4.9v-5.6h-8v5.3h-4.4v-5.3h-5.5v22.6z"/></g><g><path class="st5" d="M154.4 191.1h-6.7l-7.4 6.9h7.2z"/><path class="st6" d="M147.7 198.4h-8.5l8.3-7.8h8l-7.8 7.8zm-6.3-.9h5.9l6-6h-5.5l-6.4 6z"/></g><g><path class="st3" d="M160.8 207.2v-9.7l-6.4-6.4-6.9 6.9v9.9h13.3z"/><path class="st6" d="M161.3 208.4H147v-10.6l7.4-7.4 6.9 6.9v11.1zm-13.3-.9h12.4v-9.8l-6-6-6.5 6.5v9.3z"/></g><g><path class="st5" d="M140.3 198h7.2v9.8h-7.2z"/><path class="st6" d="M148 208.2h-8.1v-10.7h8.1v10.7zm-7.3-.9h6.3v-8.9h-6.3v8.9z"/></g><g><path class="st3" d="M147.1 207.3h23.4v12.4h-23.4z"/><path class="st6" d="M170.9 220.2h-24.3v-13.3h24.3v13.3zm-23.3-.9H170v-11.5h-22.4v11.5z"/></g><g><path class="st5" d="M131.2 223.3v-36.9s-7.5-4.5-15.3-2.6c-7.8 1.8-5.6 4-12.8 2.9-3.9 0-5.6-.3-5.6 1.7v30.5s4.7 8.8 17.4 8.8c12.6-.1 16.3-4.4 16.3-4.4z"/><path class="st6" d="M114.9 228.1c-12.8 0-17.7-8.9-17.8-9l-.1-.2v-30.5c0-2.1 1.9-2.1 3.8-2.1h2.3c4.1.6 5.1.2 6.7-.7 1.2-.6 2.7-1.5 6-2.2 1.3-.3 2.6-.4 4-.4 6.3 0 11.4 3 11.6 3.1l.2.1v37.3l-.1.1c-.2.2-3.9 4.5-16.6 4.5zm-17-9.3c.6.9 5.4 8.4 16.9 8.4 11.1 0 15.1-3.4 15.8-4v-36.4c-1-.6-5.6-2.9-11-2.9-1.3 0-2.6.1-3.8.4-3.1.7-4.6 1.5-5.7 2.1-1.7.9-3 1.5-7.2.8h-2.2c-2.5 0-2.9.3-2.9 1.2v30.4z"/></g><g><path class="st5" d="M63.6 227.1h17v31.6h-17z"/><path class="st6" d="M81 259.1H63.1v-32.5H81v32.5zm-17-.9h16.1v-30.7H64v30.7z"/></g><g><path class="st3" d="M104.2 240.3s2-14.7 3.3-16c1.3-1.3-2.9-8.9-8.9-7.4S72.3 230 70.7 231.6c-1.6 1.6-4.3 27.5.5 29.5 4.9 2 31.8-19.6 33-20.8z"/><path class="st6" d="M71.9 261.7c-.3 0-.7-.1-.9-.2-1.1-.5-1.9-1.9-2.4-4.3-1.6-7.6.2-24.3 1.7-25.9 1.6-1.6 21.9-13.3 28.1-14.9.6-.1 1.1-.2 1.7-.2 3.9 0 6.7 3.4 7.6 5.6.5 1.3.5 2.2 0 2.7-.9.9-2.4 10.1-3.2 15.7v.2l-.1.1c-.9 1.1-25.7 21.2-32.5 21.2zm28.3-44.5c-.5 0-1 .1-1.5.2-5.7 1.5-26 13-27.7 14.6-1.1 1.1-3.1 17.2-1.5 25.1.4 2.1 1.1 3.3 1.9 3.7.2.1.3.1.6.1 5.9 0 29.5-18.6 31.8-20.8.4-2.8 2.1-14.8 3.4-16.1.1-.1.2-.7-.2-1.8-.8-1.9-3.4-5-6.8-5z"/></g><g><path class="st3" d="M171.8 223.6V219s-18.5-1-24.1 0c-5.6 1-24.9 6-30 6-5.1 0-10.3-2.2-13.9 1.4-3.6 3.6-3.2 11.4-1.9 14.5 1.3 3.1 2.2 6.7 2.2 6.7h58.3l11.1-6 1.9-5.1-3.6-12.9z"/><path class="st6" d="M162.4 248h-58.7l-.1-.3s-1-3.6-2.2-6.6c-1.3-3.2-1.8-11.1 2-15 1.5-1.5 3.4-2.2 6-2.2 1.3 0 2.6.2 4 .3 1.4.2 2.8.3 4.3.3 3.4 0 13-2.2 20.8-4 3.9-.9 7.3-1.7 9.2-2 1.7-.3 4.6-.4 8.8-.4 7.1 0 15.3.4 15.4.4h.4v5l3.6 12.9-.1.1-2 5.3-.1.1-11.3 6.1zm-58-.9h57.8l10.9-5.8 1.8-4.8-3.6-12.8v-4.2c-1.8-.1-8.8-.4-14.9-.4-4.1 0-7 .1-8.6.4-1.8.3-5.2 1.1-9.1 2-7.8 1.8-17.5 4-21 4-1.5 0-3-.2-4.4-.4-1.4-.2-2.6-.3-3.9-.3-2.3 0-4 .6-5.3 1.9-3.5 3.5-3 11.1-1.9 14 1 2.5 1.9 5.4 2.2 6.4z"/></g><g><path class="st3" d="M76.5 257.7s-1.8-24.9-5-26c-3.2-1.1-9.5 12.1-7.8 26.3 1.7 14.1 12.8-.3 12.8-.3z"/><path class="st6" d="M67.7 264.6c-2.4 0-3.9-2.2-4.4-6.6-1.4-11.6 2.5-22.1 5.5-25.5 1-1.2 2.1-1.6 2.9-1.3 3.3 1.2 5 22.2 5.3 26.4v.2l-.1.1c-.3.3-5.2 6.7-9.2 6.7zm3.4-32.5c-.5 0-1.1.4-1.7 1.1-3 3.4-6.5 13.9-5.3 24.8.5 3.9 1.6 5.8 3.5 5.8 3.2 0 7.6-5.3 8.3-6.2-.7-9.5-2.6-24.7-4.7-25.4.1-.1 0-.1-.1-.1z"/></g><g><path class="st3" d="M170.4 218.2v5.6h22.2l-10.5-6.3h-11.6z"/><path class="st6" d="M194.2 224.3h-24.3v-6.1l.1-1.2h12.2l12 7.3zm-23.4-.9h20.1l-9-5.5h-11.1v5.5z"/></g><g><path class="st3" d="M162.9 222.7h31.9V249h-31.9z"/><path class="st6" d="M195.2 249.5h-32.8v-27.2h32.8v27.2zm-31.9-.9h31v-25.4h-31v25.4z"/></g><g><path class="st3" d="M190.2 246.3v-17h-11.9l-2.8-2.8H164v8.1l19.2 19.6z"/><path class="st6" d="M183.2 254.8l-19.6-20V226h12.1l2.8 2.9h12.2v17.6l-7.5 8.3zm-18.7-20.4l18.7 19.1 6.6-7.3v-16.4h-11.6l-2.8-2.9h-10.8v7.5z"/></g><g><path class="st4" d="M189 269.6l-26.2-34.1s-11.3-.7-17.5.7c-6.2 1.5-17.8 5.1-24.7 5.1-6.9 0-17-2.8-25.1 2.3-8 5.1-17.3 9.9-19 14.6-1.7 4.7 7.4 25.3 11.9 25.3s52.6 4.4 53.4 4.4c.9 0 39.4-1 39.4-1l11.1-11.1-3.3-6.2z"/><path class="st6" d="M141.9 288.4c-.3 0-3.9-.3-11.3-1-14.6-1.3-39-3.4-42.1-3.4-1.3 0-2.8-1.3-4.6-3.8-4.4-6.3-9-18.4-7.7-22.1 1.4-4 7.7-7.8 14.4-11.9 1.6-1 3.2-1.9 4.7-2.9 3.4-2.1 7.4-3.1 12.6-3.1 2.5 0 4.8.2 7.2.4 2 .2 3.9.3 5.6.3 5.2 0 13-2.1 19.3-3.7 2-.5 3.8-1 5.3-1.4 2.6-.6 6.4-.9 11.2-.9 3.6 0 6.5.2 6.5.2h.2l.1.2 26.2 34.1 3.7 6.6-11.5 11.5h-.2c-1.7 0-38.7.9-39.6.9zm-34-47.3c-5 0-8.9 1-12.1 3-1.6 1-3.2 2-4.7 2.9-6.5 4-12.7 7.8-14 11.4-1.1 3.1 3.1 14.8 7.6 21.2 2.1 3 3.4 3.5 3.9 3.5 3.2 0 27.6 2.1 42.2 3.4 6.1.5 10.9 1 11.2 1 .8 0 36.4-.9 39.2-1l10.8-10.8-3.3-6-26-33.8c-.7 0-3.2-.2-6.2-.2-4.7 0-8.5.3-11 .9-1.5.4-3.3.8-5.3 1.4-6.3 1.7-14.2 3.8-19.5 3.8-1.7 0-3.6-.2-5.6-.4-2.4-.1-4.8-.3-7.2-.3z"/></g><g><path class="st3" d="M205.4 260.1v-16.9h-5.1v3.8h-2.5v-3.6H192v3.4h-2.2v-3.6h-7.9v10.4l15.2 15.2 8.9-6.6z"/><path class="st6" d="M197 269.4l-.3-.3-15.3-15.3v-11h8.9v3.6h1.3V243h6.6v3.6h1.7v-3.8h6v17.3l.6 2.3-9.5 7zm-14.7-16l14.8 14.8 8.4-6.3-.5-1.8v-16.5h-4.2v3.8h-3.5v-3.6h-4.8v3.4h-3.1v-3.6h-7.1v9.8z"/></g><g><path class="st3" d="M193 262.1l-30.1-39.4v14.8l25.3 33.2z"/><path class="st6" d="M188.2 271.6l-25.8-33.9v-16.3l31.1 40.6-5.3 9.6zm-24.9-34.2l24.8 32.6 4.3-7.8-29.1-38v13.2z"/></g><g><path class="st3" d="M188.1 261.4h7v15h-7z"/><path class="st6" d="M195.6 276.8h-7.9v-15.9h7.9v15.9zm-7-.9h6.1v-14.1h-6.1v14.1z"/></g><g><path class="st3" d="M180.4 279.5s-51-.4-58.6-.4c-7.6 0-36.2-12.3-37.5-12.8-1.4-.5-12.1-6.4-12.1-6.4s-1.4-6.1-4.2-6.1c-2.8 0-5 .9-5 4v14.3s14.3 12.3 29.2 18.2c15 5.8 30.6 4.8 31.7 3.8 1-1 9.2 6.8 25.2 1.1 15.9-5.7 25.1-2.8 25.1-2.8l6.2-12.9z"/><path class="st6" d="M137.7 297.9c-5.7 0-9.6-1.7-11.9-2.7-.8-.3-1.4-.6-1.7-.6-.6.6-4.2.9-7.1.9-4 0-14.3-.4-25-4.6-14.9-5.8-29.2-18.1-29.4-18.2l-.2-.1V258c0-3 1.8-4.5 5.4-4.5 2.9 0 4.3 5.1 4.6 6.2 3.7 2.1 10.8 5.9 11.9 6.2.2.1 1.1.4 2.5 1 7.1 2.9 28.5 11.8 34.9 11.8 7.6 0 58.1.4 58.7.4h.7l-6.8 14-.4-.1s-2.3-.7-6.5-.7c-3.9 0-10.2.6-18.3 3.5-3.9 1.4-7.7 2.1-11.4 2.1zm-13.6-4.3c.5 0 1.1.3 2.1.7 2.3 1 6 2.6 11.5 2.6 3.5 0 7.3-.7 11.1-2.1 8.3-3 14.7-3.6 18.6-3.6 3.4 0 5.5.4 6.4.6l5.8-12c-6.2 0-50.9-.4-57.9-.4-6.5 0-27.4-8.6-35.2-11.8-1.3-.5-2.2-.9-2.5-1-1.4-.5-11.7-6.2-12.2-6.4l-.2-.1v-.2c-.4-1.6-1.7-5.7-3.7-5.7-3.1 0-4.5 1.1-4.5 3.6V272c1.6 1.4 15.1 12.5 29 17.9 10.6 4.1 20.8 4.5 24.7 4.5 4.2 0 6.2-.4 6.5-.6.1-.1.3-.2.5-.2z"/></g><g><path class="st3" d="M85.7 264.7v-.6c-.2-4.6-4-8.2-8.6-8.2-3.9 0-7.2 2.6-8.3 6.2 0 0-5.6 16.4-4.4 19.1 1.2 2.7 12.5 11.2 21.9 5.4l-.6-21.9z"/><path class="st6" d="M79.2 289.1c-7.3 0-14.2-5.3-15.3-7.6-1.3-2.7 3.8-17.7 4.3-19.4l.1-.3c1.3-3.7 4.7-6.1 8.6-6.1 4.7 0 8.6 3.6 9.1 8.3l.1 1 .6 22.1-.2.1c-2.2 1.2-4.7 1.9-7.3 1.9zM69 262.6c-2.2 6.5-5.1 16.6-4.3 18.4.8 1.8 7.3 7.1 14.4 7.1 2.4 0 4.6-.6 6.6-1.8l-.6-21.7v-.5c-.2-4.4-3.8-7.8-8.2-7.8-3.6 0-6.8 2.3-7.8 5.8l-.1.5z"/></g><g><path class="st3" d="M122.7 270c-.1-.4-.2-.8-.3-1.1-.1-.3-.1-.5-.2-.7 0-.1-.1-.2-.1-.3v-.1c-1.4-3-4.4-5.1-7.9-5.1-4.4 0-8 3.3-8.6 7.5 0 0-4.5 18.8-2.7 24 1.8 5.2 17.3 9 23.7.2-.1 0-2.5-18-3.9-24.4z"/><path class="st6" d="M114.9 300.1c-5.8 0-11.4-2.6-12.5-5.8-1.8-5.3 2.5-23.5 2.7-24.2l.1-.3c.8-4.3 4.5-7.6 9-7.6 3.6 0 6.8 2.1 8.3 5.4 0 .1.1.2.1.2v.1c.1.2.1.4.2.7l.3 1.2c1.4 6.3 3.8 24.2 3.8 24.3v.2l-.1.1c-2.5 3.7-6.7 5.7-11.9 5.7zm-9-29.6c-.5 1.9-4.3 18.8-2.7 23.5 1 2.8 6.3 5.1 11.7 5.1 2.8 0 7.9-.6 11.1-5-.3-1.9-2.5-18.1-3.8-24.1-.1-.4-.1-.7-.3-1.1-.1-.3-.1-.5-.2-.7l-.1-.3c-1.3-3-4.3-4.9-7.5-4.9-4.1 0-7.6 3.1-8.1 7.1l-.1.4z"/></g><g><path class="st3" d="M169 272.9s-.1 0 0 0c-.5-5.1-4.8-9.1-10-9.1-4.9 0-9 3.5-9.9 8.2-1.1 3-2 22.7-.7 24 11 8.5 22-6.8 22-6.8l-1.4-16.3z"/><path class="st6" d="M155.3 299.1c-2.6 0-5-.9-7.3-2.6-1.6-1.6-.5-21.2.5-24.5v-.1h.1c1-4.9 5.3-8.4 10.3-8.4 5.3 0 9.7 3.9 10.4 9.2h.1v.3l1.4 16.5-.1.1c-.3.3-7 9.5-15.4 9.5zm-5.9-26.8c-1.1 3.5-1.8 22.3-.8 23.4 2.1 1.6 4.4 2.4 6.7 2.4 7.4 0 13.7-7.9 14.5-9.1l-1.4-16.1c-.5-5-4.6-8.7-9.5-8.7-4.6 0-8.6 3.3-9.5 7.9v.2z"/></g><g><path class="st3" d="M182.1 188.4l-1.6-16.8s-.9-4.7-4.7-4.7h-9.4s-2.9.6-3.3 3.3c-.4 2.7-.4 7.2-.4 7.2h6.4v11.3h13.1l-.1-.3z"/><path class="st6" d="M182.9 189.1h-14.3v-11.3h-6.4v-.5c0-.2 0-4.6.4-7.3.4-3 3.6-3.7 3.7-3.7h9.5c4.2 0 5.2 5.1 5.2 5.1l1.5 16.8.4.9zm-13.3-.9h12l-1.5-16.6c0-.1-.8-4.3-4.3-4.3h-9.4s-2.5.6-2.9 2.9c-.3 2.2-.4 5.5-.4 6.7h6.4v11.3z"/></g><g><path class="st5" d="M310.5 143.8h7.3v7.1h-7.3z"/><path class="st6" d="M318.3 151.4h-8.2v-8h8.2v8zm-7.3-.9h6.4v-6.2H311v6.2z"/></g><g><path class="st3" d="M209.7 117h7.3v7.1h-7.3z"/><path class="st6" d="M217.4 124.6h-8.2v-8h8.2v8zm-7.3-.9h6.4v-6.2h-6.4v6.2z"/></g><g><path class="st5" d="M112.8 198.6h7.3v7.1h-7.3z"/><path class="st6" d="M120.5 206.2h-8.2v-8h8.2v8zm-7.3-.9h6.4v-6.2h-6.4v6.2z"/></g><g><circle class="st3" cx="114.1" cy="275.7" r="3.2"/><path class="st6" d="M114.1 279.4c-2 0-3.7-1.6-3.7-3.7s1.6-3.7 3.7-3.7c2 0 3.7 1.6 3.7 3.7s-1.7 3.7-3.7 3.7zm0-6.4c-1.5 0-2.8 1.2-2.8 2.8 0 1.5 1.2 2.8 2.8 2.8 1.5 0 2.8-1.2 2.8-2.8 0-1.6-1.3-2.8-2.8-2.8z"/></g><g><circle class="st3" cx="158.4" cy="275.7" r="3.2"/><path class="st6" d="M158.4 279.4c-2 0-3.7-1.6-3.7-3.7s1.6-3.7 3.7-3.7c2 0 3.7 1.6 3.7 3.7s-1.7 3.7-3.7 3.7zm0-6.4c-1.5 0-2.8 1.2-2.8 2.8 0 1.5 1.2 2.8 2.8 2.8s2.8-1.2 2.8-2.8c-.1-1.6-1.3-2.8-2.8-2.8z"/></g><g><circle class="st3" cx="76.4" cy="266.9" r="3.2"/><path class="st6" d="M76.4 270.6c-2 0-3.7-1.6-3.7-3.7 0-2 1.6-3.7 3.7-3.7 2 0 3.7 1.6 3.7 3.7-.1 2.1-1.7 3.7-3.7 3.7zm0-6.4c-1.5 0-2.8 1.2-2.8 2.8 0 1.5 1.2 2.8 2.8 2.8 1.5 0 2.8-1.2 2.8-2.8-.1-1.6-1.3-2.8-2.8-2.8z"/></g><g><ellipse class="st3" cx="171.8" cy="173.4" rx="2.5" ry="2.8"/><path class="st6" d="M171.8 176.7c-1.6 0-2.9-1.5-2.9-3.3s1.3-3.3 2.9-3.3 2.9 1.5 2.9 3.3-1.3 3.3-2.9 3.3zm0-5.7c-1.1 0-2 1.1-2 2.4 0 1.3.9 2.4 2 2.4s2-1.1 2-2.4c0-1.3-.9-2.4-2-2.4z"/></g><g><path class="st4" d="M223.6 183c-1.1-.3-5.6.5-6.6.5h-3.8c-1.3 0-4 .6-5.3.6-1.3 0-3.8 3-4.3 3s-4.4 4.4-4.4 4.4 1.4 2.4 2.5 3.6c1.2 1.2 1.1 1.1 4.1 1.1 3 0 2.6-1.3 3.5-1.3.6 0 1.4-.9 1.9-2 1 .3 2.2.5 2.8.5 1.2 0 2.2.5 4.1-.5 1.9-1 1.8-1.8 2.5-5.2.7-3.5 4.5-4 4.5-4s-.4-.4-1.5-.7z"/></g></g><g><path class="st2" d="M595.3 38.1C553 66.3 514.1 79.2 479.5 82.9L320 205.8 90 382.9c11.7 24.7 25.5 50.3 41.9 76.8L320 310.3 605.3 83.7c-4-29.4-10-45.6-10-45.6z"/></g><g><g><path class="st3" d="M611.7 1.2C440.4 115.4 320 0 320 0S199.6 115.4 28.3 1.2c0 0-162.6 331.4 291.7 722.4C774.3 332.7 611.7 1.2 611.7 1.2zm-567 36.9C206.4 145.9 320 30.3 320 30.3s44.1 44.9 116.5 52.6L320 172.6 78.9 358.3C-2.8 167 44.7 38.1 44.7 38.1zM90 382.9l230-177.2L479.5 82.9C514 79.2 553 66.3 595.3 38.1c0 0 6 16.2 10 45.6L320 310.3 131.9 459.7c-16.4-26.4-30.2-52.1-41.9-76.8zm230 300.5c-75.6-70.3-132-138-173.9-201.4L320 343.8l288.3-229c6.3 109.1-24.5 323.1-288.3 568.6z"/></g></g><g><path class="st7" d="M436.5 82.9C364.1 75.2 320 30.3 320 30.3S206.4 145.9 44.7 38.1c0 0-47.5 128.9 34.2 320.2L320 172.6l116.5-89.7z"/></g><g><path class="st7" d="M605.3 83.7c-4.1-29.4-10-45.6-10-45.6-42.3 28.2-81.2 41.1-115.8 44.8L320 205.8 90 382.9c11.7 24.7 25.5 50.3 41.9 76.8L320 310.3 605.3 83.7z"/></g><g><path class="st7" d="M320 343.8L146.1 482C188 545.4 244.4 613.1 320 683.4c263.8-245.5 294.6-459.6 288.3-568.6L320 343.8z"/></g><g><g><circle cx="314.1" cy="260.7" r="86.5" fill="#f7ea48"/><path class="st6" d="M314.1 348.3c-48.3 0-87.6-39.3-87.6-87.6s39.3-87.6 87.6-87.6 87.6 39.3 87.6 87.6-39.3 87.6-87.6 87.6zm0-173c-47.1 0-85.3 38.3-85.3 85.3 0 47.1 38.3 85.3 85.3 85.3 47.1 0 85.3-38.3 85.3-85.3.1-47-38.2-85.3-85.3-85.3z"/></g><g><path class="st6" d="M229.1 246.8l-.1-2.7c78.3-3.4 91.7-69.1 91.8-69.7l2.7.5c-.2.6-14 68.3-94.4 71.9z"/></g><g><path class="st6" d="M312.5 347.7l-2.6-.9c8.5-24.5 25.1-56.6 56.1-70 18.6-8.1 33.4-5.6 34.1-5.5l-.5 2.7c-.6-.1-58.4-9.2-87.1 73.7z"/></g><g><path class="st6" d="M372.8 323.1c-.1-1.1-3.4-26.1-27.5-30.2l.5-2.7c26 4.4 29.7 32.3 29.7 32.5l-2.7.4z"/></g><g><path class="st6" d="M325.1 317.9c-.6-.1-64.2-7.1-63-78.9h2.7c-.5 29.1 9.5 50.7 29.7 64.4 15.1 10.2 30.6 11.8 30.8 11.8l-.2 2.7z"/></g></g><g><g><path class="st1" d="M121.9 379l12.8-10 32 20.9.1-.1-13.1-35.7 12.8-10 32.4 41.5-8.5 6.7-23-29.4-.1.1 12.8 37.3-7 5.5-32.9-21.1-.1.1 22.8 29.1-8.5 6.7-32.5-41.6z"/></g><g><path class="st1" d="M188.1 326.7l9.4-7.3 48 29.3-9.5 7.4-10.4-6.8-15.5 12.1 4 11.8-9.2 7.2-16.8-53.7zm19 26.1l10.7-8.4-17.1-11.1-.1.1 6.5 19.4z"/></g><g><path class="st1" d="M216.6 304.4l9.1-7.1 26.5 33.8 20.2-15.8 6 7.7-29.3 23-32.5-41.6z"/></g><g><path class="st1" d="M265.1 265.9l9.4-7.3 48 29.3-9.5 7.4-10.4-6.8-15.6 12.2 4 11.8-9.2 7.2-16.7-53.8zm19 26.1l10.7-8.4-17.1-11.1-.1.1 6.5 19.4z"/></g><g><path class="st1" d="M354.5 255.5c0 6.6-2.9 11.5-6.9 14.6-12.8 10-27.9 6.4-37.2-5.6-9.6-12.3-9.6-27.8 3.3-37.9 8.5-6.6 20.6-7.7 28.9 1l-8.7 6.8c-4.6-3.8-9.9-3.5-14.2-.1-8.2 6.4-5.8 15.8-.1 23 5.4 6.9 13.9 11.5 22.1 5.1 5.9-4.6 6.9-10.5 2.9-16.7l-9.2 7.2-5.3-6.8 17.4-13.6 17.5 22.4-5.8 4.5-4.7-3.9z"/></g><g><path class="st1" d="M354.5 196.6l9.4-7.3 48 29.3-9.5 7.4-10.4-6.8-15.5 12.1 4 11.8-9.2 7.2-16.8-53.7zm19.1 26.1l10.7-8.4-17.1-11.1-.1.1 6.5 19.4z"/></g><g><path class="st1" d="M437.2 155.3c-3.8-3.7-10.2-3.7-14.7-.2-8.2 6.4-5.8 15.8-.1 23 5.4 6.9 13.9 11.5 22.1 5.1 5.6-4.4 5.7-10.7 2.1-16.7l8.8-6.9c7.2 11.1 5.2 23.3-5 31.2-12.8 10-27.9 6.4-37.3-5.6-9.6-12.3-9.6-27.8 3.3-37.8 9.1-7.1 21-7.8 29.6.9l-8.8 7z"/></g><g><path class="st1" d="M466.4 162.3l9.1-7.1 7 8.9-9.1 7.1-7-8.9z"/></g><g><path class="st1" d="M459.8 115.3L489 92.5l6 7.7-20 15.7 7.5 9.6 17.4-13.6 5.5 7.1-17.4 13.6 13.4 17.1-9.1 7.1-32.5-41.5z"/></g><g><path class="st1" d="M513 125.1l9.1-7.1 7 8.9-9.1 7.1-7-8.9z"/></g></g><g><g><path class="st6" d="M298.5 62.9h16.7v1.7h-7.3v19.3h-2V64.6h-7.3v-1.7z"/></g><g><path class="st6" d="M323 62.9h2.9l7.3 18.4 7.2-18.4h2.9v21h-2V65.7h-.1L334 83.9h-1.9L325 65.7v18.2h-2v-21z"/></g></g></g></g></svg>