<svg viewBox="0 0 112 112" xmlns="http://www.w3.org/2000/svg"><path d="M79.123 54.003c-1.953 0-3.537-1.57-3.537-3.51 0-1.94 1.584-3.51 3.537-3.51 1.952 0 3.536 1.57 3.536 3.51 0 1.94-1.584 3.51-3.536 3.51zm0-1c1.402 0 2.536-1.125 2.536-2.51 0-1.385-1.134-2.51-2.536-2.51-1.402 0-2.537 1.125-2.537 2.51 0 1.385 1.135 2.51 2.537 2.51zm-43.527 1c-1.952 0-3.536-1.57-3.536-3.51 0-1.94 1.584-3.51 3.536-3.51 1.953 0 3.537 1.57 3.537 3.51 0 1.94-1.584 3.51-3.537 3.51zm0-1c1.402 0 2.537-1.125 2.537-2.51 0-1.385-1.135-2.51-2.537-2.51s-2.536 1.125-2.536 2.51c0 1.385 1.134 2.51 2.536 2.51z"/><path d="M19.184 106.908a3 3 0 0 0 3 3h70.351a3 3 0 0 0 3-3v-67.23H19.184v67.23zm78.351-69.23v69.23a5 5 0 0 1-5 5H22.184a5 5 0 0 1-5-5v-69.23h80.351z"/><path d="M78.623 50.888v10.407c0 12.107-9.524 21.915-21.263 21.915-11.74 0-21.264-9.808-21.264-21.915V50.888h-1v10.407c0 12.652 9.965 22.915 22.264 22.915 12.298 0 22.263-10.263 22.263-22.915V50.888h-1zM18.962 38.771l2.263-3.897h8.559v-2h-8.559a2 2 0 0 0-1.73.996l-2.262 3.897 1.73 1.004zm65.397-3.897h9.215l2.222 3.89 1.737-.99-2.222-3.891a2 2 0 0 0-1.737-1.009h-9.215v2z"/><g><path d="M82.464 14.972L71.381 3.784H33.006c-.913 0-1.656.75-1.656 1.681V39.15h-2V5.465c0-2.03 1.635-3.68 3.656-3.68h39.209l12.25 12.364v25h-2V14.973z"/><path d="M83.253 14.026v1h-12.11V2h1v12.026z"/></g></svg>