<svg xmlns="http://www.w3.org/2000/svg" viewBox="0 0 634 634"><g fill="none"><path fill="#FFF" d="M317 611.4C154.44 611.4 22.6 479.56 22.6 317 22.6 154.44 154.44 22.6 317 22.6c162.56 0 294.4 131.84 294.4 294.4 0 162.56-131.84 294.4-294.4 294.4z"/><path fill="#E12728" d="M317 45c149.76 0 272 122.24 272 272S466.76 589 317 589 45 466.76 45 317 167.24 45 317 45zm0-44.8C142.28.2.2 142.28.2 317S142.28 633.8 317 633.8 633.8 491.72 633.8 317 491.72.2 317 .2z"/><path fill="#000" d="M89.803 275.974v-17.976c16.934-1.65 28.745-4.407 35.432-8.272 6.687-3.864 11.68-13.005 14.98-27.42h18.498V408.06h-25.01V275.974h-43.9zm148.24 22.927c-6.86-6.94-10.29-15.97-10.29-27.09 0-13.89 5.037-25.83 15.11-35.82 10.074-9.983 24.36-14.98 42.857-14.98 17.89 0 31.915 4.71 42.076 14.137 10.16 9.423 15.24 20.43 15.24 33.02 0 11.638-2.952 21.06-8.857 28.27-3.3 4.08-8.43 8.075-15.38 11.983 7.73 3.56 13.81 7.643 18.234 12.246 8.25 8.682 12.375 19.972 12.375 33.87 0 16.41-5.516 30.33-16.545 41.746-11.03 11.42-26.615 17.13-46.763 17.13-18.15 0-33.498-4.93-46.047-14.785-12.55-9.855-18.823-24.163-18.823-42.92 0-11.03 2.692-20.56 8.076-28.595s13.373-14.18 23.97-18.434c-6.516-2.778-11.596-6.035-15.24-9.77zm71.386-7.88c5.81-5.77 8.72-12.65 8.72-20.64 0-6.95-2.78-13.33-8.34-19.15-5.56-5.813-14.028-8.723-25.4-8.723-11.29 0-19.456 2.91-24.49 8.728-5.04 5.82-7.558 12.637-7.558 20.453 0 8.77 3.256 15.63 9.77 20.58 6.513 4.95 14.2 7.424 23.056 7.424 10.334 0 18.41-2.887 24.23-8.662h.002zm4.23 92.23c7.16-5.86 10.74-14.61 10.74-26.25 0-12.07-3.69-21.23-11.075-27.48-7.38-6.25-16.848-9.38-28.398-9.38-11.205 0-20.345 3.19-27.423 9.578-7.075 6.383-10.614 15.22-10.614 26.51 0 9.726 3.235 18.128 9.704 25.205 6.47 7.078 16.48 10.617 30.024 10.617 10.856 0 19.866-2.93 27.03-8.79zm91.55-32.24v-21.89H462v-57.18h22.276v57.19h56.795v21.886h-56.79v57.054h-22.27v-57.06h-56.795z"/></g></svg>