<svg viewBox="0 0 13 13" xmlns="http://www.w3.org/2000/svg"><defs><linearGradient x1="50%" y1="92.163%" x2="50%" y2="10.25%" id="a"><stop stop-color="#FAEBD7" offset="0%"/><stop stop-color="#F9E7CD" offset="4%"/><stop stop-color="#F6DCB3" offset="17%"/><stop stop-color="#F3D39F" offset="31.3%"/><stop stop-color="#F1CD91" offset="47.6%"/><stop stop-color="#F0C989" offset="67.2%"/><stop stop-color="#F0C886" offset="100%"/></linearGradient><linearGradient x1="50%" y1="100%" x2="50%" y2="0%" id="b"><stop stop-color="#E69935" offset="0%"/><stop stop-color="#E69A38" offset="26.5%"/><stop stop-color="#E79F40" offset="42.5%"/><stop stop-color="#E9A84E" offset="55.6%"/><stop stop-color="#ECB362" offset="67.2%"/><stop stop-color="#EFC27C" offset="77.8%"/><stop stop-color="#F0C683" offset="80%"/><stop stop-color="#E69935" offset="98.5%"/></linearGradient><linearGradient x1="50.002%" y1="100%" x2="50.002%" y2="0%" id="c"><stop stop-color="#E69935" offset="0%"/><stop stop-color="#F0AA46" offset="100%"/></linearGradient></defs><g transform="translate(-.5 -.5)"><circle fill="url(#a)" cx="7" cy="7" r="6"/><path d="M7 1.947a5.053 5.053 0 1 1 0 10.106A5.053 5.053 0 0 1 7 1.947zM7 1a6 6 0 1 0 0 12A6 6 0 0 0 7 1z" fill="url(#b)"/><path fill="url(#c)" d="M4 4h2.168l.836 3.65.83-3.65H10v6H8.65V5.425L7.61 10H6.388L5.35 5.425V10H4z"/><path d="M7 2c-2.76.003-4.997 2.172-5 4.848 0 .052.006.101.008.152C2.088 4.382 4.299 2.3 7 2.3c2.7 0 4.912 2.082 4.992 4.7.002-.05.008-.1.008-.152C11.997 4.172 9.76 2.003 7 2z" fill="#CC7D15"/><path fill="#CC7D15" d="M8.65 5L7.61 9.657H6.388L5.35 5v4.657H4V10h1.649V7.728l.45 2.014.057.258h1.686l.058-.258.45-2.019V10H10v-.343H8.65z"/></g></svg>