<svg viewBox="0 0 15 15" xmlns="http://www.w3.org/2000/svg"><g fill="#959FAA"><path fill="MAIN_COLOR" d="M13.863 7.314a1.159 1.159 0 0 0-.846-.386H12.2c.01-.22.018-.442.018-.673a.51.51 0 0 0-.51-.51H1.51a.51.51 0 0 0-.509.51c0 3.474 1.1 5.787 3.143 6.75.691.293 1.483.44 2.375.44.892 0 1.745-.147 2.559-.44.933-.44 1.666-1.164 2.189-2.15.041.01.08.026.125.026h1.18c.913 0 1.713-.872 1.783-1.943.042-.644-.141-1.252-.49-1.624zM6.61 12.496c-2.918 0-4.458-1.928-4.582-5.731h9.164c-.125 3.803-1.664 5.731-4.582 5.731zm5.96-2.635h-.875a9.44 9.44 0 0 0 .426-1.913h.895c.036 0 .076.034.103.063.118.126.245.426.217.86-.034.527-.392.99-.766.99zM6.61 4.187a.51.51 0 0 1-.51-.51V1.51a.51.51 0 0 1 1.02 0v2.167a.51.51 0 0 1-.51.51zm2.04 1.02a.51.51 0 0 1-.51-.51V2.53a.51.51 0 1 1 1.02 0v2.167a.51.51 0 0 1-.51.51zm-4.08 0a.51.51 0 0 1-.51-.51V2.53a.51.51 0 1 1 1.02 0v2.167a.51.51 0 0 1-.51.51z"/></g></svg>