<svg viewBox="0 0 26 26" xmlns="http://www.w3.org/2000/svg"><g fill="MAIN_COLOR"><path d="M13 25.75C5.958 25.75.25 20.042.25 13S5.958.25 13 .25 25.75 5.958 25.75 13 20.042 25.75 13 25.75zm0-1.5c6.213 0 11.25-5.037 11.25-11.25S19.213 1.75 13 1.75 1.75 6.787 1.75 13 6.787 24.25 13 24.25z"/><path d="M20.659 22.5c.002.056.003.111.003.167l-3.06 1.914-4.602.882-1.525-.522-.645.128-4.303-.903-1.038-1.323-.464-.176c0-.124.015-.245.042-.362l-.042-.054c0-.998-.11-1.457.82-1.768-.596.201 1.453-.414 2.282-.735 1.107-.427 1.862-.869 2.033-1.21.146-.29.044-.748-.217-1.213a7.884 7.884 0 0 1-.358-.524c-.77-1.232-1.226-2.706-1.276-4.365-.083-2.775 2.063-5.085 4.697-5.092 2.624.007 4.768 2.319 4.685 5.091-.05 1.66-.505 3.133-1.277 4.368a6.59 6.59 0 0 1-.331.483c-.287.504-.389.962-.243 1.253.172.34.926.781 2.033 1.21.83.32 2.878.935 2.282.733.93.312 1.57.312 1.57 1.31l-1.066.709zm0 0c-.02-.602-.168-1.114-.744-1.307.62.21-1.45-.412-2.313-.745-1.29-.499-2.143-.998-2.432-1.572-.29-.578-.138-1.258.286-1.999.113-.152.22-.31.323-.472.701-1.123 1.117-2.468 1.163-3.992.07-2.358-1.744-4.313-3.936-4.319-2.203.006-4.018 1.96-3.947 4.32.046 1.524.462 2.869 1.162 3.99.102.162.21.32.349.512.399.702.55 1.382.26 1.96-.289.574-1.142 1.073-2.432 1.572-.862.333-2.933.955-2.314.745a1.555 1.555 0 0 0-1.017 1.112l.422.538 1.435.543 4.551 1.555 7.854-1.555 1.33-.885z"/></g></svg>