<svg viewBox="0 0 32 32" xmlns="http://www.w3.org/2000/svg"><path d="M16 31.422C7.483 31.422.578 24.517.578 16S7.483.578 16 .578 31.422 7.483 31.422 16 24.517 31.422 16 31.422zm0-2c7.413 0 13.422-6.01 13.422-13.422 0-7.413-6.01-13.422-13.422-13.422C8.587 2.578 2.578 8.588 2.578 16c0 7.413 6.01 13.422 13.422 13.422z"/><path d="M26.702 16c0 5.91-4.792 10.702-10.702 10.702S5.298 21.91 5.298 16c0-1.816.452-3.565 1.303-5.122l-.877-.48A11.65 11.65 0 0 0 4.298 16c0 6.463 5.24 11.702 11.702 11.702 6.463 0 11.702-5.24 11.702-11.702 0-6.303-4.993-11.468-11.273-11.694h-.108l-.49.015.08 7.594 1-.01-.069-6.574c5.53.43 9.86 5.056 9.86 10.669z"/><path d="M17.396 17.033c.44-.703.082-1.718-.797-2.267-.586-.367-3.14-1.35-7.66-2.948 3.46 3.295 5.484 5.126 6.07 5.492.88.55 1.948.425 2.387-.277z"/></svg>