<svg viewBox="0 0 108 108" xmlns="http://www.w3.org/2000/svg"><g transform="translate(6)"><path d="M57.576 98.613H5a3 3 0 0 1-3-3V5a3 3 0 0 1 3-3h72.11a3 3 0 0 1 3 3v59.115h2V5a5 5 0 0 0-5-5H5a5 5 0 0 0-5 5v90.613a5 5 0 0 0 5 5h52.576v-2z"/><path d="M74.059 107.953c-12.645 0-22.895-10.25-22.895-22.894 0-12.645 10.25-22.895 22.895-22.895 12.644 0 22.894 10.25 22.894 22.895 0 12.644-10.25 22.894-22.894 22.894zm0-2c11.54 0 20.894-9.355 20.894-20.894 0-11.54-9.355-20.895-20.894-20.895-11.54 0-20.895 9.355-20.895 20.895s9.355 20.894 20.895 20.894z"/><path d="M91.208 85.059c0 9.471-7.678 17.15-17.15 17.15-9.47 0-17.15-7.679-17.15-17.15 0-2.91.726-5.713 2.09-8.21l-.878-.479a18.07 18.07 0 0 0-2.211 8.689c0 10.023 8.126 18.15 18.15 18.15 10.023 0 18.15-8.127 18.15-18.15 0-9.776-7.744-17.787-17.485-18.138a2.236 2.236 0 0 0-.15 0l-.49.015.122 11.684 1-.01-.112-10.67c9.012.536 16.114 8.018 16.114 17.119z"/><path d="M76.258 86.686c.692-1.107.13-2.707-1.256-3.572-.923-.577-4.947-2.125-12.07-4.645 5.454 5.192 8.642 8.076 9.565 8.653 1.386.866 3.07.67 3.761-.436z"/><circle cx="13" cy="17" r="2"/><path d="M18 17.5h52v-1H18z"/><circle cx="13" cy="27" r="2"/><path d="M18 27.5h52v-1H18z"/><circle cx="13" cy="37" r="2"/><path d="M18 37.5h52v-1H18z"/><circle cx="13" cy="47" r="2"/><path d="M18 47.5h52v-1H18z"/><circle cx="13" cy="57" r="2"/><path d="M18 57.5h40v-1H18z"/><circle cx="13" cy="67" r="2"/><path d="M18 67.5h28v-1H18z"/><circle cx="13" cy="77" r="2"/><path d="M18 77.5h23v-1H18z"/></g></svg>