<svg viewBox="0 0 115 115" xmlns="http://www.w3.org/2000/svg"><g><path d="M93.168 37.542C93.13 18.104 77.34 2.314 57.904 2.278 38.47 2.24 22.748 17.963 22.786 37.396c.036 19.437 15.827 35.227 35.264 35.263 19.433.039 35.156-15.685 35.118-35.117zM76.652 5.262c17.827 10.245 23.918 32.975 13.602 50.762-10.314 17.787-33.127 23.9-50.952 13.652C21.475 59.43 15.384 36.7 25.7 18.914 36.014 1.127 58.827-4.986 76.652 5.26z"/><path d="M21.937 37.65H94.08v-1H21.937z"/><path d="M31.142 14.308a26.602 26.602 0 0 1 6.491 4.707 26.223 26.223 0 0 1 5.671 8.292 25.72 25.72 0 0 1 2.093 10.137 25.604 25.604 0 0 1-2.053 10.132 25.883 25.883 0 0 1-5.639 8.266 26.24 26.24 0 0 1-6.268 4.58.51.51 0 1 0 .473.903 27.258 27.258 0 0 0 6.512-4.757 26.902 26.902 0 0 0 5.86-8.592 26.623 26.623 0 0 0 2.135-10.534 26.738 26.738 0 0 0-2.176-10.537 27.243 27.243 0 0 0-5.891-8.615 27.622 27.622 0 0 0-6.74-4.888.51.51 0 0 0-.468.906zm53.667 46.508a26.318 26.318 0 0 1-6.765-4.892 26.224 26.224 0 0 1-5.597-8.29 26.046 26.046 0 0 1-2.069-10.143 25.9 25.9 0 0 1 2.028-10.134 25.99 25.99 0 0 1 12.06-13.006.51.51 0 1 0-.465-.906A27.01 27.01 0 0 0 71.467 26.96a26.92 26.92 0 0 0-2.108 10.532 27.066 27.066 0 0 0 2.15 10.54 27.243 27.243 0 0 0 5.814 8.612 27.338 27.338 0 0 0 7.027 5.081.51.51 0 1 0 .459-.91zM57.396 1.26l1.02-.002.141 72.018-1.02.002-.14-72.018zm1.02-.002l.141 72.018-1.02.002-.14-72.018 1.019-.002z"/><path d="M37.049 100.648h5.674v-.006h1.017v.006h6.33v-.006h1.019v.006h6.401v-.006h1.02v.006h6.46v-.006h1.02v.006h6.621v-.006h1.017v.006h5.412v-6.146h-5.412v4.1h-1.016v-4.1H65.99v4.1h-1.02l.001-4.1H58.51v4.1h-1.02v-4.1h-6.4v4.1h-1.02l.001-4.1h-6.33v4.1h-1.017v-4.1H37.05v6.146zm0 1.02v12.3a1.02 1.02 0 1 1-2.04 0V94.357l-10.788-37.73h-3.946a1.02 1.02 0 0 1 0-2.04h27.582a.507.507 0 0 1 .579 0h19.187a.508.508 0 0 1 .579 0h27.523a1.02 1.02 0 1 1 0 2.04h-3.858L81.08 94.356v19.629a1.02 1.02 0 1 1-2.04 0v-12.318h-5.41v12.35a.51.51 0 1 1-1.02 0l.002-12.35H65.99v12.273a.51.51 0 1 1-1.02 0v-12.273h-6.46v12.308a.51.51 0 1 1-1.02 0v-12.308h-6.4v12.323a.51.51 0 1 1-1.02 0v-12.323h-6.33v12.3a.51.51 0 1 1-1.02 0l.003-12.3H37.05zm-.169-8.186h5.844v-.006h1.016v.006h6.33v-.006h1.019v.006h6.401v-.006h1.02v.006h6.461v-.006h1.019v.006h6.623v-.006h1.015v.006h5.58l1.757-6.145h-6.902l-.435 3.118v.982h-1.015v-1.052l.425-3.048H66.22l-.231 3.4v.7H64.97v-.735l.23-3.365h-6.69v4.1h-1.02v-4.1h-6.633l.232 3.4v.7H50.07v-.666l-.233-3.434h-6.529l.432 3.118v.982h-1.015v-.912l-.442-3.188h-7.16l1.757 6.145zm-2.049-7.165h7.311v-.006h1.024l.001.006h6.6v-.006h1.02l.001.006h6.702v-.006h1.02v.006h6.76v-.006h1.021v.006h6.888l.001-.006h1.025v.006h7.052l2.05-7.17h-8.104l-.714 5.125h-1.025l.713-5.124H66.78l-.35 5.124h-1.02l.349-5.124H58.51v5.124h-1.02v-5.124H50.3l.349 5.124h-1.021l-.349-5.124h-7.103l.708 5.124H41.86l-.71-5.124h-8.367l2.05 7.169zm-2.341-8.189h8.518v-.006h1.026v.006h7.176v-.006h1.02v.006h7.26v-.006h1.02v.006h7.317v-.006h1.022v.006h7.47v-.006h1.027v.006h8.252l6.148-21.502H78.34l-2.71 19.457h-1.026l2.707-19.457h-8.998l-1.325 19.457h-1.022l1.325-19.457H58.51v19.457h-1.02V56.626h-8.722l1.324 19.457H49.07l-1.324-19.457H39.06l2.69 19.457h-1.026l-2.693-19.457h-11.69l6.148 21.502z"/><path d="M20.275 54.579h75.45a1.02 1.02 0 0 0 0-2.04h-75.45a1.02 1.02 0 0 0 0 2.04z" fill="#FFF"/></g></svg>