<svg xmlns="http://www.w3.org/2000/svg" viewBox="0 0 217 64"><g fill="none" fill-rule="evenodd" stroke="#AFB7C2"><path fill="#FFF" d="M66 61l49.203-30.387a8.001 8.001 0 0 1 9.428.748L159 61"/><path stroke-width="2" d="M83.784 1h84.962a3.999 3.999 0 0 1 3.88 4.972l-13.53 54a4 4 0 0 1-3.88 3.028H70.254a3.999 3.999 0 0 1-3.88-4.972l13.53-54A4 4 0 0 1 83.784 1z"/><path fill="#FFF" d="M171.24 3.033l-46.01 32.002a7.999 7.999 0 0 1-10.03-.722L81.678 3.033"/><path stroke-width="2" d="M66.492 15.76h-34.22m31.22 12H18.904m40.588 12H-.138"/></g></svg>