<svg xmlns="http://www.w3.org/2000/svg" width="150" height="150" xmlns:xlink="http://www.w3.org/1999/xlink"><defs><path id="a" d="M4.5 3.55L.95 0 0 .95 3.55 4.5 0 8.05.95 9 4.5 5.45 8.05 9 9 8.05 5.45 4.5 9 .95 8.05 0 4.5 3.55z"/><path id="b" d="M4.5 3.55L.95 0 0 .95 3.55 4.5 0 8.05.95 9 4.5 5.45 8.05 9 9 8.05 5.45 4.5 9 .95 8.05 0 4.5 3.55z"/><path id="c" d="M3.5 2.762L.738 0 0 .738 2.762 3.5 0 6.262.738 7 3.5 4.238 6.262 7 7 6.262 4.238 3.5 7 .738 6.262 0 3.5 2.762z"/><path id="d" d="M3.5 2.762L.738 0 0 .738 2.762 3.5 0 6.262.738 7 3.5 4.238 6.262 7 7 6.262 4.238 3.5 7 .738 6.262 0 3.5 2.762z"/><circle id="e" cx="40" cy="21" r="4"/><circle id="f" cx="136" cy="77" r="4"/><circle id="g" cx="40" cy="130" r="4"/></defs><g fill="none" fill-rule="evenodd"><path stroke="#FF4D4D" stroke-width="3" d="M55 58l37 37m0-37L55 95"/><circle cx="72.5" cy="75.5" r="48.5" stroke="#FF503B" stroke-width="2"/><circle cx="73" cy="76" r="63" stroke="#FF503B"/><g fill-rule="nonzero"><path fill="#FF4D4D" d="M71 8.95L79.05 17l.95-.95L71.95 8"/><g transform="translate(71 8)"><use fill="#FF4D4D" fill-rule="evenodd" xlink:href="#a"/><path stroke="#132843" stroke-width="3" d="M4.5 1.43l3.55-3.55L11.12.95 7.57 4.5l3.55 3.55-3.07 3.07L4.5 7.57.95 11.12l-3.07-3.07L1.43 4.5-2.12.95.95-2.12 4.5 1.43z"/></g></g><g fill-rule="nonzero"><path fill="#FF4D4D" d="M69 134.95l8.05 8.05.95-.95-8.05-8.05"/><g transform="translate(69 134)"><use fill="#FF4D4D" fill-rule="evenodd" xlink:href="#b"/><path stroke="#132843" stroke-width="3" d="M4.5 1.43l3.55-3.55L11.12.95 7.57 4.5l3.55 3.55-3.07 3.07L4.5 7.57.95 11.12l-3.07-3.07L1.43 4.5-2.12.95.95-2.12 4.5 1.43z"/></g></g><g fill-rule="nonzero"><path fill="#FF4D4D" d="M125.07 104.277l1.84 8.663 1.02-.217-1.84-8.663"/><g transform="rotate(33 -112.237 263.62)"><use fill="#FF4D4D" fill-rule="evenodd" xlink:href="#c"/><path stroke="#132843" stroke-width="3" d="M3.5.64l2.762-2.76L9.122.737 6.358 3.5l2.76 2.762-2.858 2.86L3.5 6.358.738 9.12l-2.86-2.858L.642 3.5-2.12.738l2.858-2.86L3.5.642z"/></g></g><g fill-rule="nonzero"><path fill="#FF4D4D" d="M14.427 45.08l8.663-1.84-.217-1.02-8.663 1.84"/><g transform="rotate(-57 48.048 9.624)"><use fill="#FF4D4D" fill-rule="evenodd" xlink:href="#d"/><path stroke="#132843" stroke-width="3" d="M3.5.64l2.762-2.76L9.122.737 6.358 3.5l2.76 2.762-2.858 2.86L3.5 6.358.738 9.12l-2.86-2.858L.642 3.5-2.12.738l2.858-2.86L3.5.642z"/></g></g><use fill="#132843" stroke="#132843" stroke-width="9" xlink:href="#e"/><use stroke="#FF4D4D" xlink:href="#e"/><use fill="#132843" stroke="#132843" stroke-width="9" xlink:href="#f"/><use stroke="#FF4D4D" xlink:href="#f"/><use fill="#132843" stroke="#132843" stroke-width="9" xlink:href="#g"/><use stroke="#FF4D4D" xlink:href="#g"/></g></svg>