<svg xmlns="http://www.w3.org/2000/svg" viewBox="0 0 165 86"><g fill="MAIN_COLOR"><path d="M40 17a7 7 0 0 0-7 7v53a7 7 0 0 0 7 7h92a7 7 0 0 0 7-7V24a7 7 0 0 0-7-7H40zm0-2h92a9 9 0 0 1 9 9v53a9 9 0 0 1-9 9H40a9 9 0 0 1-9-9V24a9 9 0 0 1 9-9z"/><path d="M50.503 55.957c-.04-.69-.1-.89.703-1.16.075-.025 4.964-1.274 5.663-2.663.313-.634 0-1.447-.32-2.008a8.943 8.943 0 0 1-.426-.623c-.83-1.325-1.46-3.068-1.525-5.223-.097-3.24 2.41-5.873 5.402-5.88 2.977.007 5.486 2.64 5.39 5.88-.066 2.155-.698 3.898-1.526 5.224a9.95 9.95 0 0 1-.425.622c-.32.56-.633 1.373-.313 2.008.7 1.39 5.587 2.638 5.662 2.663.686.23.676.63.616 1.234A14.44 14.44 0 0 0 74.5 45c0-8.006-6.493-14.5-14.5-14.5S45.5 36.994 45.5 45c0 4.376 1.938 8.3 5.003 10.957zM60 60.5c-8.56 0-15.5-6.94-15.5-15.5 0-8.56 6.94-15.5 15.5-15.5 8.56 0 15.5 6.94 15.5 15.5 0 8.56-6.94 15.5-15.5 15.5zm65-28H86v1h39m0 7.333H86v1h39m0 7.334H86v1h39m0 7.333H86v1h39"/><g transform="translate(57 72)"><circle cx="3" cy="3" r="3"/><path d="M2.5 5v8.646h1V5"/></g><g transform="translate(109 72)"><circle cx="3" cy="3" r="3"/><path d="M2.5 5v8.646h1V5"/></g><path d="M7.242 23.242l3.258-1.33-3.258-1.33-1.33-3.26-1.33 3.26-3.26 1.33 3.26 1.33L5.91 26.5l1.33-3.258zm-1.33 5.904l-2.1-5.136-5.136-2.1 5.137-2.096 2.097-5.137 2.1 5.137 5.136 2.097-5.137 2.1-2.1 5.14zm154.415 6.637l-1.87 4.584-1.873-4.584-4.584-1.87 4.585-1.873 1.87-4.584 1.872 4.583 4.585 1.87m-144.2 17.8l-1.51 3.694-1.506-3.698L14 50.202l3.696-1.506L19.204 45l1.51 3.695 3.694 1.51m121.217-43.58l2.254-.92-2.26-.92-.92-2.255-.92 2.254-2.255.92 2.253.92.92 2.255.92-2.26zm-.92 4.9l-1.688-4.133-4.133-1.688 4.133-1.687 1.687-4.133 1.688 4.133 4.132 1.687-4.132 1.688-1.688 4.132z"/></g></svg>