<svg xmlns="http://www.w3.org/2000/svg" viewBox="0 0 150 150" xmlns:xlink="http://www.w3.org/1999/xlink"><defs><circle id="a" cx="40" cy="21" r="4"/><circle id="b" cx="136" cy="77" r="4"/><circle id="c" cx="40" cy="130" r="4"/><path id="d" d="M74.042 14.11l-3.565 1.497 1.498-3.565-1.498-3.565 3.565 1.498 3.565-1.498-1.498 3.565 1.494 3.565z"/><path id="e" d="M73.042 141.11l-3.565 1.497 1.498-3.565-1.498-3.565 3.565 1.498 3.565-1.498-1.498 3.565 1.494 3.565z"/><path id="f" d="M124.497 113.34l-3.18 1.337 1.336-3.18-1.336-3.18 3.18 1.336 3.18-1.336-1.336 3.18 1.34 3.18z"/><path id="g" d="M17.497 47.34l-3.18 1.337 1.336-3.18-1.336-3.18 3.18 1.336 3.18-1.336-1.336 3.18 1.34 3.18z"/></defs><g fill="none" fill-rule="evenodd"><path stroke="#9AFC89" stroke-width="4" d="M47 75.09l18.1 18.918L101.493 59"/><circle cx="72.5" cy="75.5" r="48.5" stroke="#9AFC89" stroke-width="2"/><circle cx="73" cy="76" r="63" stroke="#9AFC89"/><use fill="#132843" stroke="#132843" stroke-width="9" xlink:href="#a"/><use stroke="#9AFC89" xlink:href="#a"/><use fill="#132843" stroke="#132843" stroke-width="9" xlink:href="#b"/><use stroke="#9AFC89" xlink:href="#b"/><use fill="#132843" stroke="#132843" stroke-width="9" xlink:href="#c"/><use stroke="#9AFC89" xlink:href="#c"/><g transform="rotate(-45 74.042 12.042)"><use fill="#9AFC89" xlink:href="#d"/><path stroke="#122742" stroke-width="3" d="M74.042 15.736l-6.37 2.677 2.676-6.37L67.67 5.67l6.372 2.678 6.37-2.677-2.676 6.375 2.677 6.37-6.37-2.676z"/></g><g transform="rotate(-45 73.042 139.042)"><use fill="#9AFC89" xlink:href="#e"/><path stroke="#122742" stroke-width="3" d="M73.042 142.736l-6.37 2.677 2.676-6.37-2.677-6.372 6.375 2.68 6.37-2.676-2.676 6.372 2.676 6.37-6.37-2.676z"/></g><g transform="rotate(-100 124.497 111.497)"><use fill="#132843" stroke="#132843" stroke-width="6" xlink:href="#f"/><use stroke="#9AFC89" xlink:href="#f"/></g><g transform="rotate(-105 17.497 45.497)"><use fill="#132843" stroke="#132843" stroke-width="6" xlink:href="#g"/><use stroke="#9AFC89" xlink:href="#g"/></g></g></svg>