<svg width="320" height="320" xmlns="http://www.w3.org/2000/svg"><path d="M40 161.813v117.754C40 301.897 58.187 320 80.645 320h158.71C261.803 320 280 301.89 280 279.567V161.813c0-22.33-18.187-40.434-40.645-40.434H80.645C58.197 121.38 40 139.487 40 161.812zm142.873 99.336l-9.696-44.383c6.52-4.274 10.823-11.63 10.823-19.985 0-13.204-10.745-23.908-24-23.908s-24 10.704-24 23.908c0 9.48 5.54 17.67 13.568 21.537l-10.32 42.83h43.625zM161.846 0c46.912 0 84.923 37.874 84.923 84.594v18.395h-36.924V86.427c0-27.42-22.31-49.646-49.846-49.646-27.53 0-49.846 22.214-49.846 49.646v16.56h-33.23V84.595C76.923 37.898 114.943 0 161.845 0z" fill-rule="evenodd"/></svg>