<svg viewBox="0 0 53 18" xmlns="http://www.w3.org/2000/svg"><g fill="#C1C8CE"><g><path d="M35.664 3.322V4.54h.846v.97h-.846v2.472c0 .183.035.314.105.393.07.08.204.119.403.119.146 0 .276-.01.389-.032v1.002c-.26.08-.527.12-.801.12-.928 0-1.4-.47-1.419-1.406V5.51h-.723v-.97h.723V3.321h1.323zm4.286 6.26c-.726 0-1.317-.223-1.773-.668-.456-.445-.684-1.039-.684-1.78v-.128c0-.497.096-.942.288-1.334.192-.392.465-.694.817-.906a2.293 2.293 0 0 1 1.206-.318c.677 0 1.21.213 1.6.64.388.428.583 1.033.583 1.817v.54h-3.153c.042.324.171.583.386.778.216.195.488.293.817.293.51 0 .908-.185 1.195-.554l.65.728c-.199.28-.467.5-.806.656a2.642 2.642 0 0 1-1.126.236zM39.8 5.52a.828.828 0 0 0-.64.265c-.162.177-.267.43-.313.76h1.84v-.106c-.006-.292-.085-.519-.238-.68-.152-.16-.369-.24-.65-.24zm5.336 2.997c.244 0 .442-.067.595-.201a.705.705 0 0 0 .238-.536h1.24a1.696 1.696 0 0 1-.275.922c-.18.28-.426.496-.739.65a2.313 2.313 0 0 1-1.036.231c-.708 0-1.266-.225-1.675-.675-.409-.45-.613-1.071-.613-1.865v-.086c0-.763.203-1.372.608-1.826.406-.455.963-.682 1.67-.682.62 0 1.116.176 1.49.528.374.353.564.822.57 1.408h-1.24a.901.901 0 0 0-.238-.625.796.796 0 0 0-.604-.24c-.308 0-.541.112-.698.336-.157.224-.236.588-.236 1.091v.138c0 .51.078.875.234 1.098.155.223.392.334.709.334zm4.288-3.012c.35-.421.792-.632 1.322-.632 1.074 0 1.619.624 1.634 1.872v2.831h-1.322V6.781c0-.284-.061-.494-.183-.63-.123-.135-.325-.203-.61-.203-.387 0-.667.15-.841.448v3.18H48.1v-5.8l1.323-1.23v2.958zM0 2.292h3.65v3.736H0V2.292zM32.09 0h3.65l-3.65 3.735V0zM0 17.566V7.046h3.626v6.914c0 .071-1.208 1.273-3.626 3.606zm13.283-4.074c0-.528-.187-.939-.56-1.233-.373-.295-1.03-.6-1.968-.915-.938-.315-1.705-.62-2.301-.914-1.939-.952-2.908-2.26-2.908-3.925 0-.829.241-1.56.724-2.194.483-.633 1.166-1.127 2.05-1.48.884-.352 1.877-.529 2.98-.529 1.075 0 2.04.192 2.892.576.853.383 1.516.93 1.988 1.639.473.709.71 1.519.71 2.43h-3.597c0-.61-.187-1.083-.56-1.418-.373-.336-.878-.504-1.515-.504-.644 0-1.153.142-1.526.427-.374.284-.56.645-.56 1.084 0 .383.205.73.616 1.043.411.311 1.134.633 2.168.965 1.035.333 1.884.69 2.548 1.074 1.617.932 2.425 2.216 2.425 3.853 0 1.309-.493 2.336-1.48 3.083-.986.746-2.339 1.12-4.058 1.12-1.212 0-2.31-.218-3.293-.653-.983-.435-1.723-1.03-2.22-1.788-.496-.756-.744-1.628-.744-2.615H8.71c0 .802.208 1.393.622 1.773.415.38 1.088.57 2.02.57.595 0 1.066-.128 1.412-.385.346-.257.519-.618.519-1.084zm17.619 2.127c-.555.616-1.367 1.113-2.436 1.49-1.068.376-2.24.565-3.514.565-1.959 0-3.524-.6-4.695-1.798-1.172-1.2-1.798-2.867-1.88-5.004l-.01-1.295c0-1.473.26-2.759.78-3.858.52-1.1 1.266-1.946 2.235-2.538.97-.593 2.09-.889 3.365-.889 1.863 0 3.31.427 4.341 1.28 1.031.852 1.632 2.125 1.803 3.817h-3.473c-.123-.836-.39-1.432-.801-1.788-.411-.357-.993-.535-1.747-.535-.904 0-1.603.384-2.096 1.151-.493.767-.743 1.863-.75 3.288v.904c0 1.494.255 2.615.766 3.365.51.75 1.313 1.126 2.41 1.126.938 0 1.636-.21 2.095-.627V11.95h-2.507V9.474h6.114v6.145z"/></g></g></svg>