<svg data-name="Слой 1" xmlns="http://www.w3.org/2000/svg" viewBox="0 0 137 21"><path d="M-.05.17H4l1.57 6 1.53-6h4v9.89H8.58V2.51l-1.93 7.54H4.38L2.45 2.51v7.55h-2.5zm19.17 8.25h-3.48l-.48 1.63H12L15.76.17h3.33l3.73 9.89h-3.21zm-.63-2.14l-1.1-3.55-1.08 3.55zM23.84 10V.17h5.09a7.41 7.41 0 0 1 2.17.24 2.31 2.31 0 0 1 1.21.9 2.79 2.79 0 0 1-.7 3.88l-.16.11a3.71 3.71 0 0 1-1.08.39 3.06 3.06 0 0 1 .8.36 3.12 3.12 0 0 1 .5.53 3.88 3.88 0 0 1 .43.63l1.48 2.86h-3.46L28.47 7a2.3 2.3 0 0 0-.55-.76 1.29 1.29 0 0 0-.75-.24h-.27v4h-3.06zm3.06-5.83h1.29A4.61 4.61 0 0 0 29 4a.81.81 0 0 0 .5-.31 1 1 0 0 0-.11-1.31 1.84 1.84 0 0 0-1.14-.26H26.9v2zm14.42 4.26h-3.49l-.48 1.63h-3.13L37.95.17h3.34L45 10.05h-3.2zm-.63-2.14l-1.11-3.56-1.08 3.55h2.19zM43.86.17h9.3v2.44H50v7.45h-3V2.61h-3.17zm10.7 0h3.06v3.44H61V.17h3v9.89h-3v-4h-3.38v4h-3.06zm11.12 5A5.06 5.06 0 0 1 67 1.36a6 6 0 0 1 7.56 0A5 5 0 0 1 75.93 5a6.08 6.08 0 0 1-.58 2.84 4.16 4.16 0 0 1-1.69 1.73 5.58 5.58 0 0 1-2.75.63 6.34 6.34 0 0 1-2.77-.53A4.17 4.17 0 0 1 66.35 8a5.59 5.59 0 0 1-.68-2.89m3.06 0a3.31 3.31 0 0 0 .56 2.15 2.11 2.11 0 0 0 3 .07l.06-.06A3.63 3.63 0 0 0 72.86 5a3.06 3.06 0 0 0-.56-2 1.93 1.93 0 0 0-1.52-.65A1.86 1.86 0 0 0 69.3 3a3.32 3.32 0 0 0-.56 2.17m8.88-5h2.86l3.72 5.47V.17h2.88v9.89H84.2l-3.7-5.43v5.43h-2.88V.17zM33.29 14h3.35a1.83 1.83 0 0 1 1.29.41 1.34 1.34 0 0 1 .45 1 1.29 1.29 0 0 1-.31.88 1.43 1.43 0 0 1-.63.39 1.62 1.62 0 0 1 .92.51 1.42 1.42 0 0 1 .29.92 1.57 1.57 0 0 1-.21.81 1.55 1.55 0 0 1-.57.57 1.9 1.9 0 0 1-.68.19 7.84 7.84 0 0 1-.8.08h-3.1zm1.81 2.26h.78a.9.9 0 0 0 .58-.14.53.53 0 0 0 .16-.42.5.5 0 0 0-.16-.39.88.88 0 0 0-.57-.14h-.79zm0 2.27h.9a1 1 0 0 0 .65-.16.55.55 0 0 0 .19-.44.51.51 0 0 0-.19-.41 1.05 1.05 0 0 0-.65-.12h-.91v1.17zM41 14h4.8v1.23h-3v.92h2.79v1.18h-2.75v1.17h3.09v1.31h-4.88zm7.24 0h5.44v1.43H51.9v4.36h-1.79v-4.32h-1.82zm-27.29 1.24l2.7 1.35a4.19 4.19 0 0 0-4.09-2.14 4 4 0 0 0 3.85 2.31l-2.45-1.52m-4.24-.56L19 16.54a4.08 4.08 0 0 0-3.53-2.91 4.12 4.12 0 0 0 3.33 3.12l-2.14-2.07m-4-.76l2.21 2a4 4 0 0 0-3.33-3.11 4.16 4.16 0 0 0 3.16 3.34l-2-2.23m8.84 6l2.19-2a3.82 3.82 0 0 1-3.27 3 3.82 3.82 0 0 1 3-3.24l-1.85 2.22m-5.41-.4l2.72-1.21a4 4 0 0 1-4.13 1.92 4.11 4.11 0 0 1 4-2.17L16.2 19.5m-4.33-1.59l2.87-.54a4 4 0 0 1-4.35.94 4.06 4.06 0 0 1 4.28-1.22l-2.79.83M8.81 14.2l2.82 1.09a4.24 4.24 0 0 0-4.29-1.76 4.34 4.34 0 0 0 4.16 2.07l-2.7-1.4M26 16.41l.45.39s-2.3 1.46-8.28.75a16.46 16.46 0 0 1-6.42-2 21.74 21.74 0 0 0 8.51 1.79c3.41-.12 4.26-.24 5.75-.9m40.08-1.18l-2.7 1.35a4.19 4.19 0 0 1 4.09-2.14 4 4 0 0 1-3.85 2.31l2.45-1.52m4.24-.56L68 16.54a4.08 4.08 0 0 1 3.53-2.91 4.12 4.12 0 0 1-3.33 3.12l2.14-2.07m4-.77l-2.21 2a4 4 0 0 1 3.33-3.11 4.16 4.16 0 0 1-3.16 3.34l2-2.23m-8.84 6l-2.19-2a3.82 3.82 0 0 0 3.27 3 3.82 3.82 0 0 0-3-3.24l1.88 2.15m5.41-.41l-2.73-1.12a4 4 0 0 0 4.13 1.92 4.11 4.11 0 0 0-4-2.17l2.58 1.46m4.3-1.59l-2.87-.54a4 4 0 0 0 4.35.94 4 4 0 0 0-4.26-1.22l2.79.83m3.07-3.71l-2.82 1.09a4.24 4.24 0 0 1 4.29-1.76 4.34 4.34 0 0 1-4.16 2.07l2.7-1.4M61 16.41l-.45.39s2.3 1.46 8.28.74a16.52 16.52 0 0 0 6.43-2 21.76 21.76 0 0 1-8.51 1.79c-3.4-.12-4.26-.24-5.75-.9M114.72 12a2.4 2.4 0 0 1 .92.23.63.63 0 0 1 .46.74.69.69 0 0 1-.29.29.72.72 0 0 1-.34.06c-.63 0-1.25-.29-1.94-.29h-.86a8.82 8.82 0 0 0-3 .8c-.69.29-1.43.57-2.12.92s-1.49.74-2.17.46c-.11-.06-.17-.06-.29-.11a1 1 0 0 1-.29-.23c-.23-.29-.23-.63.11-.69.17-.06.29-.06.46-.11l1.49-.34c2.34-.51 4.7-1 7-1.54.17-.06.4-.06.57-.11a.76.76 0 0 1 .29-.08zm-3.6-8.35h.41l.74.17a2 2 0 0 1 .63.23 3.49 3.49 0 0 1 .8.4.31.31 0 0 1 .11.23Q113 8.73 113 10a22.92 22.92 0 0 1 2.63-.57 5 5 0 0 1 1.6.29 2.24 2.24 0 0 1 1.2 1 .43.43 0 0 1 .11.23 3.76 3.76 0 0 1-.29 2.51 16.78 16.78 0 0 1-1.71 3.13 2.3 2.3 0 0 1-1 .8 2 2 0 0 1-.92.34c-.63 0-1.66-1-3.09-3h.11a6.27 6.27 0 0 0 2.86 1.2 1.87 1.87 0 0 0 1.49-1.2 11.46 11.46 0 0 0 .56-1.48 4.7 4.7 0 0 0 .23-2 1.17 1.17 0 0 0-1.2-.87c-1.09 0-2.51.06-3.26 1.09a1.19 1.19 0 0 1-.92.63h-.06v-.56h-.06c-.23.11-.51.17-.74.29a6.79 6.79 0 0 1-1.32.4h-.06l-.06-.06a4.21 4.21 0 0 1-.23-.8 3.79 3.79 0 0 1 .29-1.6c.11-.46.29-1 .4-1.43a9.76 9.76 0 0 0 .29-2.12h-.06a3.89 3.89 0 0 1-1.14-.11 1.8 1.8 0 0 1-.92-.34c-.11-.06-.29-.34-.17-.46a1.25 1.25 0 0 1 .46-.06 3.3 3.3 0 0 0 1-.34 5.38 5.38 0 0 0 1.25-.69l.57-.4c.06.06.17-.06.29-.11zm.34 1.77c-.06.06-.06.06-.06.11a14.07 14.07 0 0 0-.5 2.23l-.34 2.24a4.92 4.92 0 0 0-.06.92h.06a1.5 1.5 0 0 0 .46-.17.69.69 0 0 0 .29-.29 2.7 2.7 0 0 0 .34-.86 7 7 0 0 0 .17-1.88c0-.57.06-1.14.06-1.71a.48.48 0 0 0-.11-.4c0-.05-.19-.22-.3-.17zM128.55.75h.69c.34.23.51.69.51 1.43v.69h.17c.46 0 .69-.51.69-1.6V1h.06c.51.06.74.34.74.74v1.12h.69a.15.15 0 0 1 .17.17c0 .4-.86.86-2.51 1.37v.74h.17a4.8 4.8 0 0 0 1-.23h.07A1.28 1.28 0 0 1 132.27 6a2.07 2.07 0 0 1 .06 1.32c-.06.23-.11.4-.17.63a2.06 2.06 0 0 0-.11.63c0 .06 0 .06.06.11a.18.18 0 0 0 .11.06 4.54 4.54 0 0 0-.17 1.49 7.66 7.66 0 0 0 .06 1.14v.06h.06a2 2 0 0 0 .57-.11l1.32-.17a6.21 6.21 0 0 0 1-.06 5.64 5.64 0 0 1 1 .11c.06 0 .17 0 .17.06.29.29-.8.69-.92.74a20.43 20.43 0 0 1-2.69.63 3.11 3.11 0 0 0-.23 1.14v2.29c0 1.43-.4 2.4-1.25 2.86A17.82 17.82 0 0 1 128 17v-.11l1.43.34c.17.06.34.06.51.11s.34.06.46.06h.06v-.06a.85.85 0 0 0 .06-.39 3.86 3.86 0 0 0 .11-.8 6.89 6.89 0 0 0 0-1.09v-2.31h-.06a11 11 0 0 0-2.34.29c-.23.06-.4.06-.63.11-.06 0-.57.06-.51.17s.06.06.11.06.11.06.17.11a.57.57 0 0 1 .29.23 3.17 3.17 0 0 1 .45.35c.11.11.29.23.34.34a1.45 1.45 0 0 1 .11.69c0 .11-.06.17-.11.29a.57.57 0 0 1-.23.29 2 2 0 0 0-.34 1h-.11a3.13 3.13 0 0 1-.51-.4 2.39 2.39 0 0 1-.63-1 6.22 6.22 0 0 1-.23-1.49c0-.06 0-.17-.06-.17h-.11c-.11 0-.23.06-.34.06-.4.06-.74.17-1.14.23l-1.32.23a4.63 4.63 0 0 1-1 3c-.69-.29-1-.51-1-.57.4-4.34.57-6.63.57-7h-.4c-.11 0-.23.06-.4.06s-.11.06-.17 0-.17-.06-.29-.11a.34.34 0 0 0-.23-.06l-.46-.17c-.23-.11-.46-.17-.69-.29a.06.06 0 0 1-.06-.06c-.06-.11.17-.23.23-.29s.23-.17.34-.29c.86-.63 1.71-1.2 2.63-1.77v-.53a9.25 9.25 0 0 0-.4-2.51c-.06-.17-.06-.34-.11-.46s-.06-.17 0-.17.29.06.46.11a1.25 1.25 0 0 1 .29.17 1.54 1.54 0 0 1 .46.4 1.41 1.41 0 0 1 .46.92c0 .57-.06 1.09-.06 1.66h.17a4.35 4.35 0 0 1 1.2.17.06.06 0 0 1 .06.06v.06a1.2 1.2 0 0 1-.23.63 11 11 0 0 1-.74 1 1.74 1.74 0 0 1-.46.46c-.06.06-.17.11-.23.23a2.12 2.12 0 0 0-.23.86 14 14 0 0 0-.11 1.54v1.25c0 .69.06 1 .17 1a13.93 13.93 0 0 0 3.4-1.44v-.17a1 1 0 0 1-.92-.57V6.51a.92.92 0 0 1 .17-.51 4.07 4.07 0 0 0 1.32.17c.63-.06.92-.23.92-.4V4.64a1.47 1.47 0 0 1-.29.11c-.11.06-.23.06-.34.11l-.69.17a3.26 3.26 0 0 1-.74.06c-.23 0-.46.06-.63-.11a1.15 1.15 0 0 1-.4-.51 1.25 1.25 0 0 1-.06-.46c.06-.11.17-.17.23-.23h.06a2 2 0 0 1 .74.29c.17.11.51-.06.69-.17s.46-.17.69-.29.51-.23.74-.34c0 0 .11-.06.11-.11V.75zm-1.43 6v.92l.06.4.82-.17h.17V6.75h-.07a9.92 9.92 0 0 1-1-.06zm.17 1.88v1.04h.57a.15.15 0 0 0 .14-.17v-.92zm0 1.94a8.15 8.15 0 0 1 .17 1.66c.06 0 .34-.06.92-.17v-.34a2.89 2.89 0 0 1-.57-1.43c-.34.11-.52.17-.52.29zm1.47 1v.36l1.6-.17v-.16l-.34-.51v-.39c.4 0 .63-.11.69-.4-.34-.06-.51-.11-.51-.23v-.35h.57v-.8a2.82 2.82 0 0 0-2 2.63zm.63-3.09v.4a8.87 8.87 0 0 1 1.43-.23v-1.1c-.82-.06-1.3.29-1.43.91zm.17-1.94v.69h.14a2.88 2.88 0 0 1 1.1-.23v.06h.06V5.84h-.69a1.41 1.41 0 0 0-.58.68z" fill="#fff"/></svg>