<svg id="Слой_1" data-name="Слой 1" xmlns="http://www.w3.org/2000/svg" viewBox="0 0 84 21"><defs><style>.cls-1{fill:#fff}</style></defs><path class="cls-1" d="M21.53 16.7l-2.47-1.54 2.72 1.37a4.23 4.23 0 0 0-4.13-2.16 4.1 4.1 0 0 0 3.88 2.33zm-4.6-.01l-2.16-2.09 2.36 1.91a4.12 4.12 0 0 0-3.56-2.94 4.19 4.19 0 0 0 3.36 3.12zm-4.12-.62l-2.05-2.25 2.23 2a4.08 4.08 0 0 0-3.36-3.14 4.23 4.23 0 0 0 3.18 3.39zm8.79 1.65a3.85 3.85 0 0 0-3 3.28 3.88 3.88 0 0 0 3.3-3.08l-2.19 2zm-4.77.28a4.14 4.14 0 0 0-4 2.19A4.08 4.08 0 0 0 17 18.24l-2.75 1.22zm-4.13-1a4.08 4.08 0 0 0-4.32 1.24 4 4 0 0 0 4.39-.95l-2.9.55zm-3.19-1.48L6.78 14.1l2.86 1.11a4.28 4.28 0 0 0-4.34-1.78 4.38 4.38 0 0 0 4.21 2.09z"/><path class="cls-1" d="M18.35 17.26a22.11 22.11 0 0 1-8.6-1.81 16.66 16.66 0 0 0 6.49 2c6 .73 8.37-.75 8.37-.75l-.45-.4c-1.51.7-2.38.84-5.81.96zm44.12-.56a4.1 4.1 0 0 0 3.89-2.33 4.23 4.23 0 0 0-4.13 2.16l2.72-1.37zm4.6-.01a4.19 4.19 0 0 0 3.36-3.18 4.12 4.12 0 0 0-3.56 2.94l2.36-1.91zm4.12-.62a4.23 4.23 0 0 0 3.18-3.38A4.08 4.08 0 0 0 71 15.83l2.23-2zm-8.8 1.65l1.91 2.17-2.19-2A3.88 3.88 0 0 0 65.42 21a3.86 3.86 0 0 0-3.03-3.28zm4.77.28l2.61 1.48L67 18.25a4.08 4.08 0 0 0 4.18 1.94A4.14 4.14 0 0 0 67.16 18zm4.13-1l2.82.83-2.9-.55a4 4 0 0 0 4.39.95A4 4 0 0 0 71.29 17zm3.06-1.79l2.86-1.11-2.73 1.42a4.38 4.38 0 0 0 4.2-2.09 4.28 4.28 0 0 0-4.33 1.78z"/><path class="cls-1" d="M67.76 17.49a16.68 16.68 0 0 0 6.49-2 22.43 22.43 0 0 1-8.6 1.81c-3.44-.1-4.31-.24-5.84-.91l-.45.4s2.36 1.43 8.4.7zM6.12 6.63L4.46.18H.15v10.6h2.68V2.7l2.06 8.08h2.43L9.38 2.7v8.08h2.69V.18h-4.3L6.12 6.63zM17.07.18l-4 10.6h3.34L16.95 9h3.71l.53 1.75h3.43l-4-10.6zm.59 6.55l1.16-3.82L20 6.73zM33.73 1a3.72 3.72 0 0 0-2.64-.82h-5.44v10.6h3.29V6.85h1.79a4.18 4.18 0 0 0 2.94-.9 3.27 3.27 0 0 0 1-2.51A3.18 3.18 0 0 0 33.73 1zm-2.66 3.37a2.06 2.06 0 0 1-1.33.33h-.8V2.34h.93a1.72 1.72 0 0 1 1.27.35 1.18 1.18 0 0 1 .33.85 1.06 1.06 0 0 1-.4.83zm7.3-4.19l-4 10.6h3.34L38.22 9h3.71l.53 1.75h3.43l-4-10.6zM39 6.73l1.14-3.8 1.17 3.82zM54.2 1V.18h-3V1q-4.82.5-4.82 4.34t4.82 4.32v1.13h3V9.68Q59 9.24 59 5.33T54.2 1zm-3 6.49a2.35 2.35 0 0 1-1.2-.83 2.13 2.13 0 0 1-.45-1.32A2.33 2.33 0 0 1 50 3.93a2.15 2.15 0 0 1 1.18-.83zm4.18-.83a2.2 2.2 0 0 1-1.2.8V3a2.32 2.32 0 0 1 1.63 2.23 2.25 2.25 0 0 1-.41 1.43zM66.22 0a5.44 5.44 0 0 0-4 1.44 5.46 5.46 0 0 0-1.44 4 6 6 0 0 0 .73 3.09 4.45 4.45 0 0 0 1.91 1.81 6.77 6.77 0 0 0 3 .57 6 6 0 0 0 2.94-.64 4.45 4.45 0 0 0 1.74-1.8 6.52 6.52 0 0 0 .64-3 5.36 5.36 0 0 0-1.43-4A5.54 5.54 0 0 0 66.22 0zm1.65 7.82a2.26 2.26 0 0 1-3.19.06l-.06-.06a3.55 3.55 0 0 1-.6-2.3 3.56 3.56 0 0 1 .6-2.33 2 2 0 0 1 1.59-.7 2.06 2.06 0 0 1 1.64.7 3.28 3.28 0 0 1 .6 2.19 3.92 3.92 0 0 1-.58 2.44zM80.56.18v3.71h-3.58V.18h-3.27v10.6h3.27V6.49h3.58v4.29h3.28V.18h-3.28zM36.32 16.69a3.36 3.36 0 0 0-2-.47h-1v-1.07h3.18V14h-4.92v5.85h3.1a2.84 2.84 0 0 0 1.69-.43 1.44 1.44 0 0 0 .63-1.28 1.69 1.69 0 0 0-.68-1.45zm-2 1.87h-.92V17.4h.92q.85 0 .85.54t-.87.62zm7.17-1.23h2.81v-1.19h-2.81v-.93h3.03v-1.25h-4.84v5.85h4.93v-1.33h-3.12v-1.15zm5.44-3.37v1.45h1.84v4.4h1.81v-4.4h1.84v-1.45h-5.49z"/></svg>