<svg width="160" height="42" xmlns="http://www.w3.org/2000/svg"><g fill="none" fill-rule="evenodd"><path fill="#CB2129" d="M0 0h160v42H0z"/><path fill="#FFF" d="M112.593.592h46.815V41.41h-46.815zm-112 0H112V41.41H.593z"/><g fill="#CB2129"><path d="M130.015 23.13c.296 0 .71.118.948.236.296.12.593.414.474.77a.72.72 0 0 1-.296.295c-.118.06-.236.06-.355.06-.652 0-1.304-.296-2.015-.296h-.89c-1.065.06-2.132.414-3.08.83-.71.294-1.48.59-2.193.945-.65.295-1.54.768-2.25.472-.12-.06-.18-.06-.298-.118-.12-.06-.18-.118-.297-.237-.237-.295-.237-.65.118-.71.18-.06.298-.06.476-.118.533-.12 1.066-.237 1.54-.356 2.43-.532 4.86-1.065 7.23-1.597.178-.06.415-.06.593-.118.176-.06.236-.06.295-.06zm-3.734-8.637h.417c.236.06.533.118.77.177.237.06.474.12.652.237.295.118.59.237.828.414.06.06.12.12.12.238-.535 2.78-.83 4.614-.89 5.5h.06c1.658-.413 2.547-.59 2.725-.59.593 0 1.126.118 1.66.295.533.237.947.474 1.244 1.006.06.058.118.176.118.236.296.887 0 1.833-.296 2.602-.475 1.184-1.068 2.19-1.78 3.254-.236.414-.71.65-1.066.828-.296.178-.65.355-.948.355-.652 0-1.718-1.065-3.2-3.135h.12c1.303.828 2.31 1.242 2.962 1.242.71 0 1.244-.65 1.54-1.242.238-.473.415-1.006.593-1.538.18-.65.357-1.36.238-2.07-.118-.592-.71-.888-1.244-.888-1.126 0-2.608.06-3.378 1.124-.178.296-.533.65-.948.65h-.06v-.59h-.06c-.236.117-.532.177-.77.295-.473.177-.947.355-1.362.414h-.06l-.06-.06c-.117-.236-.176-.59-.236-.827-.06-.592.12-1.124.297-1.657.118-.473.296-1.005.414-1.478.06-.12.416-2.19.298-2.19h-.06c-.414 0-.77 0-1.185-.118-.296-.06-.71-.118-.948-.354-.118-.06-.296-.355-.178-.474.06-.06.415-.06.474-.06.357-.06.653-.177 1.01-.355a5.575 5.575 0 0 0 1.303-.71c.177-.118.414-.295.592-.414.06.06.178-.058.296-.117-.058 0 0 0 0 0zm.357 1.834c-.06.06-.06.06-.06.118-.236.71-.414 1.538-.533 2.307l-.355 2.307c-.06.295-.06.65-.06.946v.06h.06c.117 0 .354-.12.473-.18a.705.705 0 0 0 .296-.294 2.8 2.8 0 0 0 .355-.888c.178-.65.178-1.3.178-1.952v-.06c0-.59.06-1.182.06-1.774 0-.177 0-.295-.12-.414 0-.06-.177-.236-.296-.177zm17.718-4.851h.71c.356.237.534.71.534 1.48v.71h.178c.474 0 .71-.534.71-1.658v-.236h.06c.533.06.77.355.77.77v1.123h.712c.118 0 .177.06.177.177 0 .414-.888.888-2.607 1.42v.77h.178c.118 0 .474-.06 1.066-.238h.06c.71 0 1.126.474 1.303 1.124.12.414.237.947.06 1.36-.06.237-.12.415-.178.652-.06.177-.12.414-.12.65 0 .06 0 .06.06.12.06.058.118.058.118.058-.118.296-.178.828-.178 1.538 0 .414 0 .77.06 1.183v.058h.06c.177 0 .414-.06.59-.118.476-.06.89-.12 1.364-.178.356 0 .712 0 1.067-.06.357 0 .653.06 1.01.12.058 0 .176 0 .176.06.297.294-.83.708-.948.768-.89.295-1.837.473-2.785.65-.178.474-.237.828-.237 1.183v2.367c0 1.478-.415 2.484-1.304 2.957-.178 0-1.244-.65-3.2-2.01v-.12c.474.12 1.008.237 1.482.356.177.06.355.06.533.118.178 0 .356.06.474.06h.06v-.06c.06-.117.06-.236.06-.413.06-.296.118-.532.118-.828.06-.356 0-.71 0-1.125V23.9h-.06c-.83 0-1.6.117-2.43.294-.236.06-.414.06-.65.12-.06 0-.593.058-.534.176 0 .06.06.06.12.06.058.058.117.058.176.118.12.06.237.118.297.236.177.12.355.237.474.355.12.117.297.236.356.354.12.237.12.473.12.71 0 .118-.06.177-.12.296-.06.118-.118.236-.237.295-.18.296-.356.65-.356 1.006h-.12a3.182 3.182 0 0 1-.532-.413 2.48 2.48 0 0 1-.652-1.065c-.178-.473-.178-1.005-.237-1.538 0-.06 0-.177-.06-.177h-.118c-.118 0-.237.06-.355.06-.415.058-.77.176-1.186.236-.06 0-1.363.236-1.363.236 0 1.24-.354 2.247-1.065 3.134-.71-.295-1.008-.532-1.008-.59.415-4.497.593-6.863.593-7.218h-.415c-.118 0-.237.06-.415.06-.06 0-.118.058-.177 0-.12 0-.178-.06-.297-.12-.06-.058-.177-.058-.237-.058-.18-.06-.297-.12-.475-.178-.237-.118-.474-.177-.71-.296-.06 0-.06-.06-.06-.06-.06-.117.178-.235.237-.295.118-.12.237-.178.355-.296.89-.65 1.778-1.243 2.726-1.834v-.533c0-.887-.177-1.774-.414-2.602-.06-.178-.06-.355-.12-.474 0-.058-.06-.176 0-.176.12-.06.296.06.474.118.12.06.237.12.296.178.178.118.356.236.474.414.237.236.475.59.475.946 0 .592-.06 1.124-.06 1.716h.177c.415 0 .83.06 1.244.177 0 0 .06 0 .06.06v.06c0 .235-.118.472-.236.65-.237.354-.474.65-.77 1.005-.12.177-.297.355-.475.473-.06.06-.18.12-.238.238-.178.236-.178.59-.237.887-.06.532-.118 1.065-.118 1.597v1.303c0 .71.06 1.004.177 1.004 1.897-.65 3.082-1.125 3.497-1.48v-.177c-.414 0-.71-.178-.947-.592v-4.85c0-.177.06-.354.177-.532.356.12.77.178 1.363.178.652-.06.948-.237.948-.414V15.5s-.236.117-.295.117c-.118.06-.237.06-.355.118l-.71.178c-.24.06-.535.06-.772.06s-.474.058-.652-.12a1.198 1.198 0 0 1-.415-.532c-.058-.117-.058-.354-.058-.472.06-.118.178-.178.237-.237h.06c.236 0 .532.18.77.297.177.118.532-.06.71-.177.237-.12.474-.178.71-.296.297-.12.534-.237.77-.355 0 0 .12-.06.12-.12v-2.484h.356zm-1.482 6.152v.947l.06.414.888-.12H144v-1.183h-.06c-.118 0-.473 0-1.066-.06zm.178 1.952v1.124h.592c.12 0 .178-.06.178-.177v-.947h-.77zm0 2.012a8.45 8.45 0 0 1 .178 1.715c.06 0 .355-.06.948-.177v-.355c-.415-.65-.593-1.124-.593-1.48-.355.12-.533.178-.533.297zm1.54 1.064v.355l1.66-.176v-.12l-.356-.53v-.415c.415 0 .652-.12.71-.415-.354-.06-.532-.118-.532-.237v-.355h.593v-.828c-1.363.592-2.074 1.48-2.074 2.72zm.652-3.194v.414c.83-.177 1.304-.237 1.482-.237v-1.125c-.89-.06-1.363.296-1.482.947zm.178-2.01v.71h.12c.295-.12.65-.18 1.125-.18v.06h.06v-1.3h-.712c-.237.117-.415.354-.593.71z"/></g><path d="M10.667 10.707h4.207l1.6 6.27 1.6-6.27h4.207V21.06h-2.606v-7.87l-2.015 7.87h-2.37l-2.016-7.868v7.867h-2.607V10.706zm20.029 8.637H27.08l-.532 1.715h-3.26L27.2 10.706h3.496l3.91 10.352H31.23l-.534-1.716zm-.652-2.248L28.92 13.37l-1.127 3.726h2.25zM35.615 21V10.648h5.333c1.008 0 1.72.06 2.252.237.533.177.948.473 1.244.946.297.474.475 1.007.475 1.657 0 .592-.12 1.065-.357 1.48a2.75 2.75 0 0 1-1.007 1.005c-.297.177-.652.296-1.126.414.355.118.65.237.83.355.118.06.296.237.533.533.237.296.355.473.474.65l1.54 3.018h-3.614l-1.72-3.134c-.236-.414-.414-.65-.592-.77-.236-.177-.473-.236-.77-.236h-.295V21h-3.2zm3.26-6.152h1.362c.12 0 .415-.06.83-.118.237-.06.355-.178.533-.296a.99.99 0 0 0 .178-.592c0-.355-.12-.59-.297-.77-.236-.176-.59-.295-1.184-.295h-1.422v2.07zm15.051 4.496H50.31l-.532 1.715h-3.26l3.912-10.353h3.496l3.91 10.352H54.46l-.534-1.716zm-.71-2.248l-1.127-3.727-1.127 3.726h2.252zm3.377-6.389h9.718v2.544h-3.258v7.81h-3.2v-7.81h-3.26v-2.543zm11.14 0h3.2v3.608h3.497v-3.608h3.2V21.06h-3.2v-4.2h-3.497v4.2h-3.2V10.706zm11.615 5.147c0-1.716.474-3.017 1.422-3.964.95-.946 2.252-1.42 3.91-1.42 1.72 0 3.024.474 3.972 1.36.948.888 1.422 2.19 1.422 3.905 0 1.183-.178 2.19-.593 2.958a4.269 4.269 0 0 1-1.776 1.775c-.77.414-1.72.65-2.904.65-1.185 0-2.133-.177-2.904-.532-.77-.355-1.363-.947-1.837-1.775-.475-.827-.712-1.714-.712-2.956zm3.2 0c0 1.064.178 1.774.593 2.247.416.475.89.71 1.6.71.712 0 1.245-.235 1.6-.65.356-.473.593-1.242.593-2.425 0-.946-.177-1.656-.592-2.13-.414-.473-.947-.65-1.6-.65-.65 0-1.184.237-1.54.71-.415.414-.652 1.183-.652 2.19zm9.304-5.147h2.963l3.91 5.738v-5.738h3.023V21.06h-3.022l-3.852-5.68v5.68h-3.022V10.706z" fill="#CB2129"/><g fill="#0E2344"><path d="M45.51 25.2h3.497c.593 0 1.008.118 1.363.414.297.296.474.65.474 1.065 0 .354-.118.65-.355.945a1.78 1.78 0 0 1-.653.414c.415.118.77.295.948.532.178.236.296.59.296.946 0 .296-.058.592-.236.828a1.42 1.42 0 0 1-.592.592c-.178.118-.415.177-.71.177-.416.06-.712.06-.83.06h-3.2V25.2zm1.897 2.366h.83c.296 0 .474-.06.593-.177a.543.543 0 0 0 .177-.415.54.54 0 0 0-.177-.414c-.12-.118-.297-.177-.593-.177h-.83v1.183zm0 2.366h.95c.295 0 .532-.06.65-.177a.664.664 0 0 0 .178-.473.537.537 0 0 0-.178-.414c-.118-.12-.355-.178-.71-.178h-.89v1.242zM53.63 25.2h5.037v1.3h-3.14v.948h2.903v1.242h-2.904v1.183h3.2v1.36H53.63V25.2zm7.585 0h5.69v1.48h-1.898v4.554H63.11V26.68h-1.895V25.2z"/></g><g fill="#646469"><path d="M32.593 26.442l2.844 1.42c-.83-1.42-2.252-2.366-4.267-2.248.652 1.36 1.956 2.366 4.03 2.425l-2.607-1.598zm-4.386-.592l2.43 1.953c-.474-1.538-1.66-2.72-3.674-3.017.356 1.48 1.48 2.84 3.496 3.253 0-.06-2.253-2.19-2.253-2.19zm-4.147-.827l2.31 2.07c-.355-1.597-1.48-2.84-3.496-3.254.237 1.478 1.304 2.957 3.32 3.49 0 .06-2.135-2.307-2.135-2.307zm9.244 6.27l2.252-2.07c-.356 1.597-1.423 2.78-3.437 3.194.236-1.48 1.184-2.9 3.14-3.372l-1.956 2.248zm-5.689-.413l2.844-1.243c-.83 1.42-2.312 2.188-4.327 2.01.71-1.36 2.134-2.365 4.148-2.247.06-.06-2.665 1.48-2.665 1.48zm-4.505-1.657l3.023-.592c-1.007 1.125-2.607 1.54-4.563 1.007.89-1.124 2.49-1.775 4.445-1.302.06 0-2.904.888-2.904.888zm-3.2-3.905l2.964 1.124c-.948-1.36-2.49-2.13-4.504-1.834.77 1.302 2.31 2.307 4.326 2.19.06 0-2.785-1.48-2.785-1.48z"/><path d="M37.926 27.685l.474.414s-2.43 1.537-8.652.768c-4.148-.474-6.755-2.13-6.696-2.13 2.015.77 5.333 2.01 8.89 1.893 3.495-.176 4.384-.295 5.984-.945zm41.837-1.243l-2.844 1.42c.828-1.42 2.25-2.366 4.265-2.248-.652 1.36-1.955 2.366-4.03 2.425.06 0 2.608-1.598 2.608-1.598zm4.444-.592l-2.43 1.953c.475-1.538 1.66-2.72 3.675-3.017-.356 1.48-1.482 2.84-3.496 3.253 0-.06 2.25-2.19 2.25-2.19zm4.149-.827l-2.312 2.07c.356-1.597 1.482-2.84 3.497-3.254-.236 1.478-1.303 2.957-3.318 3.49 0 .06 2.134-2.307 2.134-2.307zm-9.246 6.27l-2.25-2.07c.355 1.597 1.42 2.78 3.436 3.194-.237-1.48-1.185-2.9-3.14-3.372l1.955 2.248zm5.63-.413l-2.844-1.243c.83 1.42 2.31 2.188 4.326 2.01-.71-1.36-2.133-2.365-4.148-2.247 0-.06 2.667 1.48 2.667 1.48zm4.504-1.657l-3.022-.592c1.008 1.125 2.608 1.54 4.563 1.007-.89-1.124-2.49-1.775-4.444-1.302l2.904.888zm3.2-3.905l-2.963 1.124c.95-1.36 2.49-2.13 4.505-1.834-.77 1.302-2.31 2.307-4.326 2.19l2.784-1.48z"/><path d="M74.49 27.685l-.475.414s2.43 1.537 8.652.768c4.148-.474 6.755-2.13 6.696-2.13-2.015.77-5.333 2.01-8.89 1.893-3.554-.176-4.443-.295-5.984-.945z"/></g></g></svg>