<?xml version="1.0" encoding="utf-8"?>
<!-- Generator: Adobe Illustrator 19.1.0, SVG Export Plug-In . SVG Version: 6.00 Build 0)  -->
<svg version="1.1" id="Layer_1" xmlns="http://www.w3.org/2000/svg" xmlns:xlink="http://www.w3.org/1999/xlink" x="0px" y="0px"
	 width="640px" height="612.4px" viewBox="-575 91.2 640 612.4" style="enable-background:new -575 91.2 640 612.4;"
	 xml:space="preserve">
<style type="text/css">
	.messengers-st0{fill:#383838;}
	.messengers-st1{fill:#85C300;}
	.messengers-st2{fill:#4DC1FF;}
</style>
<title>kik</title>
<g id="Layer_2">
	<g id="Layer_31">
		<path class="messengers-st0" d="M60.9,669.7c-27.9,13-59.2,16.9-89.5,11.3c-20-3.4-39.6-9-58.4-16.7c-4.4-2-9.5-1.8-13.6,0.7
			c-134.9,71.9-301.5,41.1-401.9-74.2c-39.5-44.7-64-100.6-70.2-159.9c-9.8-76.9,11.9-154.5,60-215.2
			c48.8-65.1,121.4-108.2,202-119.9c118.1-18.1,220.1,15.6,300.7,105c53.1,57.9,80,135.2,74.2,213.5c-1.8,52-18.8,102.3-48.8,144.8
			C1.7,578,3.6,594.4,9.7,613.6C16.3,639.7,35.5,660.7,60.9,669.7z M-176.8,396l-2.4-1.3c0-26.5,0.1-53.1,0-79.6
			c1.2-11-6.8-21-17.8-22.2c-0.7-0.1-1.3-0.1-2-0.1c-10.4-0.8-19.4,6.9-20.3,17.2c-0.1,1.3-0.1,2.7,0.1,4
			c-0.1,56.7-0.1,113.5,0.1,170.2c-0.7,10.8,7.4,20.2,18.3,20.9c0.6,0,1.2,0.1,1.7,0c11-0.1,19.9-9,19.8-20c0-0.4,0-0.8,0-1.2
			c0.2-8.8,0.1-17.5,0.1-26.3c-0.2-4,2.3-7.7,6.1-8.9c3.9-1.4,5.3,2.4,7.1,4.8c10.5,14,21,28,31.6,41.9c6.5,9.9,19.7,12.7,29.6,6.2
			c0.6-0.4,1.2-0.8,1.7-1.2c9.3-7.5,10.9-21.1,3.4-30.5c-0.2-0.2-0.3-0.4-0.5-0.6c-10.1-14.3-20.7-28.2-31.4-42
			c-4.5-5.8-5.9-9.5,1.1-15.1c8.6-6.7,16.2-14.5,22.7-23.2c5.2-6.5,5.7-15.5,1.5-22.7c-3.8-7.3-11.7-11.7-19.9-10.9
			c-7.7,0.8-14.8,4.7-19.6,10.8C-156.4,376-166.5,386.1-176.8,396L-176.8,396z M-404,395.9l-2.4-1.2c0-26.6,0.1-53.1,0-79.7
			c1.2-11-6.8-21-17.8-22.2c-11-1.2-21,6.8-22.2,17.8c-0.1,1.3-0.2,2.7,0,4c-0.1,56.1,0,112.2,0.1,168.3c-1.2,11,6.7,20.9,17.7,22.1
			c11,1.2,20.9-6.7,22.1-17.7c0.2-1.4,0.2-2.9,0-4.3c0.1-8.1,0.3-16.1-0.1-24.2c-0.1-4.4,2.7-8.2,6.9-9.5c4.1-2,5.1,2.6,6.8,4.8
			c10.6,13.9,21,28,31.7,41.9c6.6,9.6,19.7,12.1,29.3,5.5c0.2-0.1,0.3-0.2,0.5-0.3c9.8-6.9,12.2-20.5,5.2-30.4
			c-0.5-0.7-1.1-1.4-1.7-2.1c-9.5-13.5-19.1-26.9-29.6-39.5c-6.5-7.8-6.9-12.7,1.7-19.2c8.6-6.1,16-13.8,21.8-22.6
			c6.1-9.8,3.2-22.7-6.6-28.8c-3.2-2-6.9-3.1-10.7-3.2c-8.2,0-15.9,3.7-21.1,10C-383,375.5-393.4,385.8-404,395.9z M-252.9,429.6
			L-252.9,429.6c0.1-17.9,0.2-35.7,0.1-53.6c1.1-11-6.9-20.9-17.9-22c-11-1.1-20.9,6.9-22,17.9c-0.1,1.3-0.1,2.5,0,3.8
			c-0.1,35.7-0.1,71.5,0.1,107.2c-1.3,11,6.6,20.9,17.6,22.2c11,1.3,20.9-6.6,22.2-17.6c0.2-1.4,0.2-2.8,0-4.2
			C-252.8,465.4-252.9,447.5-252.9,429.6L-252.9,429.6z M-53.9,439.3c10.6-0.1,19.2-8.7,19.1-19.4c-0.1-10.6-8.7-19.2-19.4-19.1
			c-10.5,0.1-19,8.5-19.1,19.1C-72.9,430.4-64.5,438.9-53.9,439.3L-53.9,439.3z"/>
		<path class="messengers-st1" d="M-176.8,396c10.3-9.9,20.4-20,30.8-29.6c4.8-6.1,11.9-10.1,19.6-10.8c8.2-0.7,16.1,3.6,19.9,10.9
			c4.3,7.1,3.7,16.2-1.5,22.7c-6.5,8.7-14.1,16.5-22.7,23.2c-6.9,5.6-5.6,9.3-1.1,15.1c10.8,13.8,21.3,27.7,31.4,42
			c7.8,9.1,6.8,22.7-2.2,30.6c-0.2,0.2-0.4,0.4-0.6,0.5c-9.2,7.4-22.7,6-30.1-3.3c-0.4-0.6-0.9-1.1-1.2-1.7
			c-10.6-13.9-21.1-27.9-31.6-41.9c-1.8-2.4-3.2-6.2-7.1-4.8c-3.8,1.2-6.3,4.9-6.1,8.9c0,8.8,0.1,17.5-0.1,26.3
			c0.7,11-7.6,20.5-18.6,21.2c-0.4,0-0.8,0-1.2,0c-10.8,0.2-19.8-8.4-20-19.2c0-0.6,0-1.2,0-1.7c-0.2-56.7-0.2-113.5-0.1-170.2
			c-1.4-10.3,5.9-19.8,16.2-21.2c1.3-0.2,2.7-0.2,4-0.1c11.1,0.1,20,9.2,19.9,20.3c0,0.7,0,1.3-0.1,2c0.1,26.5,0,53.1,0,79.6
			L-176.8,396z"/>
		<path class="messengers-st1" d="M-404,395.9c10.5-10.2,21-20.4,31.7-30.4c5.2-6.3,12.9-10,21.1-10c11.5,0.3,20.7,9.8,20.4,21.4
			c-0.1,3.8-1.2,7.5-3.2,10.7c-5.8,8.8-13.1,16.5-21.8,22.6c-8.6,6.4-8.2,11.4-1.7,19.2c10.5,12.6,20.2,26,29.6,39.5
			c8.1,8.9,7.4,22.7-1.5,30.8c-0.7,0.6-1.3,1.1-2.1,1.7c-9.4,6.8-22.6,4.7-29.4-4.7c-0.1-0.2-0.2-0.3-0.3-0.5
			c-10.7-13.9-21.1-28-31.7-41.9c-1.7-2.2-2.7-6.8-6.8-4.8c-4.2,1.3-7,5.2-6.9,9.5c0.4,8,0.2,16.1,0.1,24.2c1.2,11-6.8,20.9-17.8,22
			s-20.9-6.8-22-17.8c-0.2-1.4-0.2-2.9,0-4.3c-0.1-56.1-0.2-112.2-0.1-168.3c-1-11.1,7.1-20.8,18.2-21.8c11.1-1,20.8,7.1,21.8,18.2
			c0.1,1.3,0.1,2.7,0,4c0.1,26.6,0,53.1,0,79.7L-404,395.9z"/>
		<path class="messengers-st1" d="M-252.9,429.6c0,17.9,0.1,35.7,0,53.6c1.1,11-7,20.8-18,21.9c-11,1.1-20.8-7-21.9-18c-0.1-1.4-0.1-2.8,0-4.2
			c-0.1-35.7-0.2-71.5-0.1-107.2c-1-11.1,7.2-20.8,18.3-21.8c11.1-1,20.8,7.2,21.8,18.3c0.1,1.3,0.1,2.5,0,3.8
			C-252.7,393.9-252.8,411.8-252.9,429.6L-252.9,429.6z"/>
		<path class="messengers-st2" d="M-53.9,439.3c-10.6,0.1-19.3-8.5-19.4-19.1c-0.1-10.6,8.5-19.3,19.1-19.4c10.5-0.1,19.2,8.4,19.4,18.9
			C-35.1,430.2-43.4,438.8-53.9,439.3z"/>
	</g>
</g>
</svg>
