<?xml version="1.0" encoding="UTF-8"?>
<svg width="640px" height="640px" viewBox="0 0 640 640" version="1.1" xmlns="http://www.w3.org/2000/svg" xmlns:xlink="http://www.w3.org/1999/xlink" xmlns:sketch="http://www.bohemiancoding.com/sketch/ns">
    <title>Viber</title>
    <description>Created with Sketch (http://www.bohemiancoding.com/sketch)</description>
    <defs></defs>
    <g id="Page-1" stroke="none" stroke-width="1" fill="none" fill-rule="evenodd" sketch:type="MSPage">
        <g id="viber" sketch:type="MSLayerGroup">
            <g id="_x34__stroke" sketch:type="MSShapeGroup">
                <g id="Viber_1_">
                    <rect id="Rectangle" x="0" y="0" width="640" height="640"></rect>
                    <path d="M357,223.82 C369.46,226.475 379.01,231.21 387.17,238.85 C397.67,248.765 403.425,260.765 405.955,278.005 C407.665,289.245 406.965,293.665 402.98,297.33 C399.25,300.74 392.355,300.865 388.18,297.645 C385.145,295.37 384.195,292.97 383.5,286.465 C382.68,277.81 381.16,271.75 378.565,266.13 C373,254.195 363.195,248.005 346.625,245.985 C338.845,245.035 336.505,244.155 333.975,241.185 C329.355,235.69 331.13,226.785 337.515,223.5 C339.92,222.3 340.93,222.175 346.245,222.49 C349.54,222.68 354.41,223.25 357,223.82 L357,223.82 Z M343.53,176.135 C381.925,181.755 411.65,199.565 431.135,228.49 C442.08,244.785 448.91,263.92 451.25,284.445 C452.07,291.96 452.07,305.665 451.185,307.94 C450.36,310.085 447.705,312.99 445.43,314.19 C442.965,315.455 437.715,315.325 434.805,313.81 C429.935,311.345 428.48,307.43 428.48,296.82 C428.48,280.465 424.24,263.22 416.905,249.83 C408.555,234.545 396.41,221.915 381.61,213.135 C368.895,205.555 350.11,199.935 332.97,198.545 C326.77,198.04 323.355,196.775 321.015,194.06 C317.41,189.955 317.03,184.395 320.065,179.785 C323.35,174.685 328.41,173.86 343.53,176.135 L343.53,176.135 Z M194.57,137.17 C196.785,137.93 200.2,139.695 202.16,140.96 C214.175,148.92 247.635,191.675 258.58,213.02 C264.84,225.21 266.93,234.24 264.97,240.935 C262.945,248.135 259.595,251.925 244.6,263.985 C238.59,268.845 232.96,273.835 232.075,275.165 C229.8,278.45 227.965,284.89 227.965,289.44 C228.03,299.985 234.86,319.125 243.84,333.84 C250.795,345.27 263.255,359.92 275.59,371.165 C290.075,384.43 302.85,393.46 317.275,400.595 C335.81,409.815 347.13,412.15 355.415,408.3 C357.5,407.35 359.715,406.09 360.41,405.52 C361.04,404.95 365.915,399.015 371.225,392.445 C381.47,379.56 383.81,377.475 390.835,375.075 C399.755,372.045 408.86,372.865 418.035,377.54 C424.995,381.14 440.175,390.55 449.975,397.37 C462.88,406.4 490.455,428.885 494.19,433.37 C500.765,441.455 501.905,451.81 497.48,463.245 C492.8,475.305 474.585,497.915 461.87,507.58 C450.36,516.295 442.2,519.64 431.445,520.145 C422.59,520.585 418.92,519.83 407.6,515.155 C318.8,478.59 247.895,424.025 191.6,349.055 C162.19,309.9 139.795,269.29 124.49,227.165 C115.57,202.6 115.13,191.925 122.465,179.355 C125.63,174.05 139.1,160.915 148.905,153.59 C165.225,141.465 172.75,136.98 178.76,135.715 C182.87,134.83 190.02,135.525 194.57,137.17 L194.57,137.17 Z M339.165,130.35 C360.925,133.065 378.505,138.305 397.8,147.72 C416.775,157.005 428.92,165.785 444.985,181.76 C460.04,196.855 468.39,208.285 477.245,226.03 C489.58,250.785 496.6,280.22 497.8,312.615 C498.245,323.665 497.925,326.13 495.395,329.29 C490.59,335.415 480.025,334.405 476.42,327.52 C475.28,325.245 474.965,323.29 474.585,314.445 C473.95,300.865 473.005,292.09 471.105,281.605 C463.64,240.49 443.905,207.65 412.405,184.09 C386.155,164.385 359.02,154.785 323.475,152.7 C311.455,152.005 309.37,151.565 306.65,149.48 C301.59,145.5 301.335,136.155 306.205,131.795 C309.18,129.08 311.265,128.7 321.575,129.015 C326.96,129.21 334.865,129.845 339.165,130.35 L339.165,130.35 Z M320,0 C496.73,0 640,143.27 640,320 C640,496.73 496.73,640 320,640 C143.27,640 0,496.73 0,320 C0,143.27 143.27,0 320,0 L320,0 Z" id="Viber" fill="#7F4DA0"></path>
                </g>
            </g>
        </g>
    </g>
</svg>