<svg xmlns="http://www.w3.org/2000/svg" width="24" height="24"><g fill="none" fill-rule="evenodd"><circle cx="12" cy="12" r="12" fill="#E00006"/><path fill="#FFF" fill-rule="nonzero" d="M18.758 8.57a1.767 1.767 0 0 0-1.513-1.376C15.508 7 13.75 7 12.002 7c-1.75 0-3.507 0-5.243.194A1.767 1.767 0 0 0 5.246 8.57C5.003 9.63 5 10.787 5 11.88c0 1.09 0 2.248.244 3.308.17.745.78 1.294 1.513 1.376 1.736.194 3.493.195 5.242.194 1.75 0 3.506 0 5.242-.194a1.767 1.767 0 0 0 1.513-1.376c.244-1.06.245-2.217.245-3.31 0-1.09.002-2.248-.242-3.308zm-8.565 5.482v-4.63l4.45 2.322-4.45 2.308z"/></g></svg>