<svg width="640" height="640" viewBox="0 0 640 640" xmlns="http://www.w3.org/2000/svg"><title>18</title><g fill="none" fill-rule="evenodd"><path d="M320 614.4C157.44 614.4 25.6 482.56 25.6 320 25.6 157.44 157.44 25.6 320 25.6c162.56 0 294.4 131.84 294.4 294.4 0 162.56-131.84 294.4-294.4 294.4z" fill="#FFF"/><path d="M320 48c149.76 0 272 122.24 272 272S469.76 592 320 592 48 469.76 48 320 170.24 48 320 48zm0-44.8C145.28 3.2 3.2 145.28 3.2 320S145.28 636.8 320 636.8 636.8 494.72 636.8 320 494.72 3.2 320 3.2z" fill="#E12728"/><g fill="#000"><path d="M92.803 278.974v-17.976c16.934-1.65 28.745-4.407 35.432-8.272 6.687-3.864 11.68-13.005 14.98-27.42h18.498V411.06h-25.01V278.974h-43.9zm148.24 22.927c-6.86-6.947-10.29-15.978-10.29-27.094 0-13.895 5.037-25.836 15.11-35.823 10.074-9.987 24.36-14.98 42.857-14.98 17.89 0 31.915 4.71 42.076 14.133 10.16 9.423 15.24 20.43 15.24 33.022 0 11.637-2.952 21.06-8.857 28.268-3.3 4.08-8.425 8.076-15.372 11.984 7.73 3.56 13.808 7.642 18.237 12.245 8.25 8.684 12.375 19.974 12.375 33.87 0 16.412-5.515 30.33-16.544 41.748-11.03 11.42-26.617 17.13-46.765 17.13-18.15 0-33.498-4.928-46.047-14.785-12.55-9.856-18.823-24.164-18.823-42.922 0-11.03 2.692-20.56 8.076-28.593 5.384-8.033 13.374-14.177 23.97-18.432-6.515-2.778-11.595-6.035-15.242-9.77zm71.386-7.88c5.817-5.775 8.726-12.657 8.726-20.647 0-6.948-2.78-13.33-8.337-19.15-5.56-5.817-14.026-8.727-25.402-8.727-11.29 0-19.453 2.91-24.49 8.728-5.037 5.82-7.555 12.636-7.555 20.452 0 8.77 3.256 15.63 9.77 20.58 6.513 4.95 14.198 7.426 23.056 7.426 10.334 0 18.41-2.887 24.23-8.662zm4.232 92.227c7.165-5.862 10.747-14.61 10.747-26.248 0-12.072-3.692-21.234-11.073-27.487-7.382-6.253-16.848-9.38-28.398-9.38-11.204 0-20.344 3.192-27.422 9.575-7.077 6.383-10.616 15.22-10.616 26.51 0 9.726 3.235 18.128 9.704 25.205 6.47 7.078 16.48 10.617 30.026 10.617 10.856 0 19.866-2.93 27.03-8.793zM408.215 354.007v-21.885h56.796v-57.186h22.276v57.186h56.795v21.885h-56.794v57.055H465.01v-57.055h-56.795z"/></g></g></svg>