<?xml version="1.0" encoding="utf-8"?>
<!-- Generator: Adobe Illustrator 19.1.0, SVG Export Plug-In . SVG Version: 6.00 Build 0)  -->
<svg version="1.1" id="Capa_1" xmlns="http://www.w3.org/2000/svg" xmlns:xlink="http://www.w3.org/1999/xlink" x="0px" y="0px"
	 width="640px" height="548.7px" viewBox="-475.2 123 640 548.7" style="enable-background:new -475.2 123 640 548.7;"
	 xml:space="preserve">
<style type="text/css">
	.partners-st0{fill:#E30613;stroke:#E30613;stroke-width:3;}
	.partners-st1{fill:#FFFFFF;stroke:#FFFFFF;stroke-width:3.2;}
	.partners-st2{fill:#E30613;}
</style>
<title>logo_AutoExclusion</title>
<circle class="partners-st0" cx="-152.6" cy="332.3" r="207.8"/>
<path class="partners-st1" d="M-95,498.2c9.2-12,32.3-16.4,39.2-41c6.9-24.6,19-72,24.4-85.1S6.1,314.3,18,292.2S5.1,267.5-1.9,276.5
	c-5.1,6.5-24.4,36.4-35.4,51.3c-4.3,5.9-1.8,2.5-4.8,6.3c-1.2,1.5-17.1-4.5-16.4-7.2c0.3-1.1,2.1-9.8,2.4-10.9
	c7.6-28.7,20.2-75.9,26.8-100.3s-29.3-25.2-34.2-6.3c-6.1,23.3-24,83.1-28,96.3c-0.3,1-1.7,6.1-1.9,6.5c-1.7,4.5-21.4,0-21.4-4.3
	c0-0.8,0-5.5,0-6.4c0-22.5,0-93.7,0-118.6c0-23.5-37.1-21-37.1,0.5c0,17.1,0,95.3,0,105.2c0,0,0,8.6,0,16.7c0,4.7-20,6.5-21.8,1.8
	c-0.5-1-0.9-2-1.2-3c-11.8-35-25.7-67.7-31.6-86.6c-8.6-27.3-41.7-18.3-33.3,8.2c8.4,26.4,18.9,61.5,28.8,95.2
	c10.3,35.3,19.4,50.2-11.8,63.7c-8.1-6.2,17.1,14.8-24.5-16s-64.8-22.5-71.7-14.3c-6.9,8.2,19.7,18.4,36.3,33.8s36.5,40,56.2,60.5
	c10.3,10.8,15.5,19.9,22.7,26.5c-3.1,24.7-34.4,45.9-34.4,45.9c38.9,17.8,82.4,23.1,124.5,15.2C-113.9,536.3-101,506-95,498.2z"/>
<path class="partners-st2" d="M-459.7,670.2h-15.5l17.1-92.7h19.8l17.1,92.7h-15.5l-2.8-20.5H-457L-459.7,670.2z M-454.6,636h12.8l-6.3-39.8
	h-0.3L-454.6,636z"/>
<path class="partners-st2" d="M-369.7,601.4v69.1h-13.6v-6.9c-6,5.1-9.1,8.2-17.5,8.2c-7.6,0-12.1-5.5-12.1-14.5v-55.8h14.5v53.5
	c-0.3,2.5,1.6,4.8,4.1,5c0.3,0,0.7,0,1,0c3.4-0.5,6.7-1.9,9.2-4.3v-54.2h14.4H-369.7z"/>
<path class="partners-st2" d="M-361.5,613v-11.6h8v-18.8h14.4v18.8h9.6v11.8h-9.6v39.5c-0.5,2.5,1.1,5,3.7,5.6c0.4,0.1,0.8,0.1,1.2,0.1h4.7
	v12.3c-2.3,0.6-4.8,0.9-7.2,0.8c-10.8,0-16.8-5-16.8-15.5v-42.8h-8L-361.5,613z"/>
<path class="partners-st2" d="M-320.9,625.5c0-15.1,5.9-25.7,22.3-25.7s22.3,10.5,22.3,25.7v20.3c0,15.1-5.9,25.7-22.3,25.7
	s-22.3-10.5-22.3-25.7V625.5z M-290.6,623c0-8-2.8-11.3-8-11.3s-8,3.3-8,11.3v25.5c0,8,2.8,11.3,8,11.3s8-3.3,8-11.3V623L-290.6,623
	z"/>
<path class="partners-st2" d="M-262.4,670.2v-92.7h42.8v13.9h-26.7v23.9h20.5v13.9h-20.5v27.2h28.5v13.9L-262.4,670.2L-262.4,670.2z"/>
<path class="partners-st2" d="M-196.1,633.6l-14.2-32.3h14.9l7.3,19.3l7.7-19.3h14.9l-14.9,32.2l15.7,36.8h-14.9l-8.6-23.4h-0.3l-8.6,23.4
	H-212L-196.1,633.6z"/>
<path class="partners-st2" d="M-126.7,624.8V623c0-8-2.8-11.3-8-11.3s-8,3.3-8,11.3v25.5c0,8,2.8,11.3,8,11.3c5.1,0,8-3.3,8-11.3v-4.3h14.4
	v1.8c0,15.1-5.9,25.7-22.3,25.7s-22.3-10.5-22.3-25.7v-20.3c0-15.1,5.9-25.7,22.3-25.7s22.1,10.1,22.3,24.9h-14.4V624.8z"/>
<path class="partners-st2" d="M-99.1,670.2v-92.7h14.4v92.7H-99.1z"/>
<path class="partners-st2" d="M-27.6,601.4v69.1h-13.6v-6.9c-6,5.1-9.1,8.2-17.5,8.2c-7.6,0-12.1-5.5-12.1-14.5v-55.8h14.4v53.5
	c-0.3,2.5,1.6,4.8,4.1,5c0.3,0,0.7,0,1,0c3.4-0.5,6.7-1.9,9.2-4.3v-54.2H-27.6z"/>
<path class="partners-st2" d="M12.5,620.3c-1-5.5-3.6-8.6-8.2-8.6c-3-0.4-5.8,1.6-6.2,4.6c0,0.3-0.1,0.6-0.1,0.9c0,10.8,27,15.1,27,35.7
	c0,12.3-8.6,18.6-20.2,18.6c-12.6,0-19.8-7.2-21.9-19.3l12.6-3.5c0.9,5.8,3,10.9,9.5,10.9c3.2,0.3,6.1-2,6.4-5.2c0-0.3,0-0.6,0-0.8
	c0-11.9-27-16.4-27-35.3c-0.1-10.1,8.1-18.4,18.2-18.5c0.3,0,0.7,0,1,0c10.6-0.1,19.7,7.8,21,18.4L12.5,620.3z"/>
<path class="partners-st2" d="M36.3,590.6v-13.1h14.4v13.1H36.3z M36.3,670.2v-68.8h14.4v69.1H36.3V670.2z"/>
<path class="partners-st2" d="M63.8,625.5c0-15.1,5.9-25.7,22.3-25.7s22.3,10.5,22.3,25.7v20.3c0,15.1-5.9,25.7-22.3,25.7
	S63.8,661,63.8,645.8V625.5z M87.7,592.9H77.1l10.1-18.5h17.1L87.7,592.9z M94.1,622.9c0-8-2.8-11.3-8-11.3c-5.1,0-8,3.3-8,11.3
	v25.5c0,8,2.8,11.3,8,11.3c5.1,0,8-3.3,8-11.3V623V622.9z"/>
<path class="partners-st2" d="M121.6,670.2v-68.8h13.6v6.9c6-5.1,9.1-8.2,17.5-8.2c7.6,0,12.1,5.5,12.1,14.5v55.6h-14.4v-53.5
	c0.3-2.5-1.6-4.8-4.1-5c-0.3,0-0.7,0-1,0c-3.4,0.4-6.7,1.9-9.2,4.3v54.2L121.6,670.2L121.6,670.2z"/>
</svg>
