<?xml version="1.0" encoding="utf-8"?>
<!-- Generator: Adobe Illustrator 19.1.0, SVG Export Plug-In . SVG Version: 6.00 Build 0)  -->
<svg version="1.1" id="Layer_1" xmlns="http://www.w3.org/2000/svg" xmlns:xlink="http://www.w3.org/1999/xlink" x="0px" y="0px"
	 width="640.08px" height="432.34px" viewBox="1202.25 361.07 640.08 432.34"
	 style="enable-background:new 1202.25 361.07 640.08 432.34;" xml:space="preserve">
<rect x="1383.4" y="441.38" style="display:none;" width="283.5" height="283.5"/>
<g>
	<path d="M1215.83,546.63c0,0,25.54-1.09,25.54-25.22c0-31.22-39.12-32.73-39.12-75.13c0-31.64,34.42-39.93,34.42-39.93
		c0.39-0.11,0.81,0.07,0.92,0.46c0.11,0.32-0.11,0.74-0.56,0.88c0,0-23.49,7.3-23.49,35.91c0,31.57,36.75,39.01,37.53,70.19
		c0.81,31.92-22.47,35.31-27.76,35.31s-7.79-1.02-7.79-1.02c-0.46-0.18-0.53-0.6-0.46-0.85
		C1215.12,546.88,1215.41,546.67,1215.83,546.63z"/>
	<path d="M1758.97,758.54c6.74-7.02,10.55-12.1,12.1-14.53l0,0c0.11-0.18,0.14-0.42,0.14-0.67l0,0c0-0.11,0-0.25-0.04-0.39l0,0
		c-4.02-10.44-8.64-20.18-13.16-28.36l0,0c-9.56-6.98-19.47-13.19-29.73-18.62l0,0c-0.11-0.04-0.25-0.07-0.35-0.07l0,0
		c-0.46,0-0.74,0.32-0.74,0.71l0,0c0,0.14,0.04,0.28,0.07,0.46l0,0l0.11-0.11l-0.04,0.11c0.53,0.74,1.27,1.76,2.05,2.93l0,0
		c2.4,3.42,5.71,8.5,9.49,14.74l0,0c6.56,11.11,13.19,26.77,18.62,43.52l0,0c0.14,0.32,0.46,0.56,0.81,0.56l0,0
		C1758.59,758.79,1758.83,758.72,1758.97,758.54L1758.97,758.54z"/>
	<path d="M1837.52,619.54c0,0-0.32-0.39-0.92-1.16c-0.63-0.74-1.59-1.87-2.72-3.32c-2.26-2.89-5.43-6.95-9.06-11.82
		c-7.23-9.66-16.22-22.47-23.1-34.35c-10.58-18.48-21.97-42.68-26.77-53.15c10.76-10.72,16.12-19.33,16.79-20.28
		c0.18-0.25,0.25-0.49,0.25-0.81s-0.14-0.67-0.35-0.92l-2.89-3.88c-13.09-17.46-21.97-33.23-25.99-40.95l-1.9-3.74
		c-0.25-0.46-0.67-0.74-1.27-0.74h-4.16c-21.34-0.14-80.6-1.27-153.11-9.06c-81.02-8.68-145.74-25.61-158.79-29.17
		c-1.38-2.15-2.79-4.27-4.23-6.31c-7.72-0.56-14.57-2.54-19.36-5.29c21.87,22.96,34.14,57.6,33.72,91.56
		c-0.14,13.44-2.22,27.19-6.21,40.7c-6.03,20.49-17.04,37.32-32.24,50.05c-7.94,6.67-16.82,11.85-26.28,15.27
		c-10.48-21.06-20.6-38.23-27.72-49.7c4.34-0.46,9.81-1.34,15.91-3.07c11.92-3.32,26.59-9.77,39.01-22.57
		c8.25-8.5,15.31-19.79,19.65-34c2.47-8.11,3.67-16.15,3.67-24.06c-0.04-23.14-10.05-43.81-24.69-59.82
		c-14.67-15.98-34.11-27.76-54.81-33.65c-9.98-2.86-20.6-4.23-31.39-4.23c-20.1,0.04-40.88,4.8-58.37,15.31
		c-17.49,10.44-31.78,27.44-36.08,50.12c-1.41,7.48-2.12,14.36-2.12,20.67c0.04,9.24,1.45,17.35,4.44,24.3
		c3.03,6.91,7.72,12.73,14.04,16.37c3.7,2.08,7.76,3.32,11.96,3.6c0.04,0.28,0.14,0.71,0.25,1.16c0.28,1.27,0.92,4.13,1.34,6.17
		c0.74,3.99,1.45,9.03,1.45,13.26c0.04,4.06-0.39,8.29-0.88,11.46c-0.25,1.98-0.53,3.53-0.71,4.51c-1.73-0.21-3.7-0.21-5.43,0.04
		c-4.69,0.74-11.36,3.03-11.36,3.03s17.71,11.08,38.09,30.69c17.88,17.21,24.62,30.4,26.07,33.51c0.14,0.35,0.46,0.6,0.85,0.6
		c0.04,0,0.07,0,0.11-0.07c2.05-0.14,8.39-0.53,16.4,0.32c7.76,0.81,13.83,2.57,15.84,3.24c0.07,0.04,0.14,0.04,0.21,0.04
		c0.32,0,0.56-0.21,0.6-0.49c0.21-2.01,0.53-8.04-1.59-13.4c-4.13-10.33-11.22-12.03-13.33-12.27h-0.07c-0.28,0-0.49,0.21-0.56,0.49
		l-0.74,7.09c0,0.04,0,0.04,0,0.07c0,0.32,0.28,0.6,0.6,0.6h0.04c1.2-0.07,3.84,0.11,6.91,1.73c4.9,2.68,4.73,7.44,4.73,7.44
		s-5.18-2.01-12.91-3.1c-7.69-1.13-14.25-0.81-14.25-0.81s-5.96-12.2-17.99-28.85c-10.26-14.18-20.28-24.69-22.96-27.41
		c0.18-0.71,0.63-2.72,1.13-5.5c0.04-0.42,0.11-0.85,0.21-1.31c4.73-2.54,7.9-6.7,7.9-11.43c0-4.55-2.96-8.64-7.51-11.25
		c-0.18-1.38-0.39-2.75-0.6-4.02c-0.49-3.1-0.99-5.61-1.27-6.88c2.72-0.85,5.26-2.12,7.55-3.77c4.55-3.24,7.65-7.41,10.16-11.6
		c4.76-8.04,8.5-17.18,13.16-28.89c3.77-9.59,8.89-16.68,14.5-20.56c5.86-4.13,14.18-6.67,21.52-6.67h0.04
		c6.1,0,12.7,1.41,19.26,4.48c8.68,4.09,12.56,8.68,15.94,14.36c2.93,5.01,4.02,11.29,3.99,17.07v0.21v0.04
		c0,3.7-0.63,7.16-1.41,9.77c-0.46,1.41-0.92,2.68-1.41,3.84c-6.07-13.51-18.69-23.03-35.31-23.03c-23.88,0-41.34,16.15-41.34,42.29
		c0,23.56,18.83,39.36,22.54,42.18c0.21,0.21,0.49,0.32,0.81,0.32c0.14,0,0.28,0,0.42-0.07c0.81-0.25,1.69-0.53,2.47-0.78
		c3.35-1.16,6.74-2.72,9.91-4.48c0.21-0.14,0.35-0.39,0.35-0.63c0-0.21-0.07-0.35-0.21-0.49c-3.7-3.49-19.4-19.29-19.4-36.01
		c0-21.23,15.59-27.26,25.36-27.26c9.81,0,24.65,7.16,24.65,26.91c0,19.33-18.62,38.69-38.55,45.46c-19.93,6.77-41.13,3.6-41.13,3.6
		c-0.49-0.07-0.85,0.25-0.92,0.56c-0.07,0.28,0,0.71,0.46,0.92c0,0,17.32,9.03,46.66,1.16c1.66-0.49,3.32-0.99,4.94-1.55
		c-0.28,4.2-0.49,13.9,1.69,27.02c2.57,14.99,8.39,26.67,9.38,28.46c0.14,0.14,0.28,0.28,0.46,0.28c0.14,0,0.35-0.11,0.46-0.25
		l4.83-7.65c0.14-0.21,0.21-0.46,0.21-0.67c0-0.21-0.04-0.35-0.07-0.49c-0.99-3-4.51-14.71-5.08-28.22c1.34,2.12,2.72,4.44,4.2,6.88
		c5.4,9.21,11.71,20.53,18.24,33.4c-1.94,0.28-3.92,0.46-5.93,0.53c2.26,4.48,4.55,9.06,6.81,13.9c1.94-0.28,3.81-0.56,5.71-0.95
		c3.14,6.63,6.28,13.58,9.31,20.81c19.29,45.5,28.85,81.83,29.87,85.99c0.04,0.25,0.11,0.39,0.11,0.39l1.87,7.48
		c0.18,0.6,0.74,1.02,1.38,1.02c0.14,0,0.28-0.04,0.46-0.07l7.2-2.57c5.89-2.05,11.82-3.07,17.74-3.07c7.87,0,15.66,1.76,23.14,5.33
		c9.17,4.37,15.84,11.18,20.42,20.1c4.62,8.92,7.02,19.96,7.02,32.17v0.07c0,0,0,0,0,0.04c0,3.42-0.21,6.98-0.6,10.55
		c0,0.04,0,0.04,0,0.11c0,0.46,0.39,0.85,0.88,0.85l0,0c0.14,0,0.32-0.07,0.46-0.11c9.31-4.9,13.76-8.36,15.52-9.95
		c0.28-0.25,0.53-0.63,0.53-1.09c0-0.07,0-0.25,0-0.32c0-14.39-2.86-28.15-8.89-39.93c-6.03-11.82-15.55-21.62-28.15-27.58
		c-9.63-4.55-19.93-6.91-30.33-6.91l0,0c-4.9,0-9.81,0.53-14.64,1.55c-3.95-14-13.26-44.37-28.57-80.52
		c-2.79-6.56-5.61-12.91-8.47-19.01c10.65-4.2,20.46-10.3,29.1-17.85c17.04-14.96,29.8-35.45,36.05-58.52
		c4.06-14.85,5.96-29.84,5.86-44.51c-0.11-19.68-4.48-39.72-12.1-57.74c23.67,6,77.88,18.38,146.45,25.75
		c68.32,7.34,124.86,8.82,149.83,9.1c4.41,8.04,11.6,20.1,21.3,33.61c-2.54,3-6.56,7.44-12.52,13.26l-3.42,3.39
		c-0.25,0.21-0.39,0.6-0.39,0.99c0,0.21,0.07,0.39,0.11,0.56l1.94,4.48c0.07,0.07,15.31,34.35,29.91,59.79
		c10.97,18.91,25.92,38.52,33.19,47.72c-2.36,3.14-5.33,7.51-8.29,12.94c-6.28,11.39-12.66,27.51-12.7,46.45
		c0.04,15.31,1.66,29.77,4.13,42.78c-7.83-8.64-17.25-17.6-28.39-26.21c-48.96-37.85-107.26-54.88-167.01-54.88h-0.04
		c-22.54,0.04-41.62,3-57.1,7.72c-15.41,4.8-27.26,11.22-35.38,18.62c-5.4,4.97-9.24,10.41-10.93,16.58
		c-0.88,3.35-1.27,6.63-1.27,9.84l0,0l0,0c0.04,9.14,2.89,17.32,6.07,25.5c3.17,8.22,6.88,16.68,9.52,26.24
		c5.61,19.82,8.61,37.25,9.38,42.04c0.07,0.39,0.42,0.71,0.88,0.71l0,0c0.18,0,0.32-0.07,0.49-0.18c7.3-4.48,11.39-7.87,13.4-9.81
		c0.25-0.25,0.42-0.56,0.42-0.95c0-0.11,0-0.14-0.04-0.25c-1.59-8.32-4.34-21.52-8.39-36.08c-3.07-10.86-7.09-19.96-10.05-27.72
		c-3.03-7.72-4.97-14.04-4.97-19.33c0-0.04,0-0.11,0-0.14c0-1.9,0.25-3.7,0.74-5.57c0.46-1.87,2.26-5.04,6.03-8.5
		c3.77-3.42,9.35-7.09,16.68-10.37c14.71-6.63,36.33-11.6,64.41-11.6h0.07c56.58,0.04,111.07,16.05,156.82,51.39
		c29.24,22.57,44.83,47.44,52.59,62.25c3.56,6.77,5.18,10.69,6.14,12.7c0.14,0.28,0.42,0.46,0.74,0.46c0.28,0,0.49-0.11,0.64-0.32
		c7.02-7.3,9.42-10.93,10.72-13.16c0.11-0.21,0.21-0.49,0.21-0.74v-0.04c0-0.21-0.04-0.46-0.14-0.63c-0.78-1.66-1.38-2.72-2.19-5.01
		c-1.73-4.23-3.95-9.42-5.78-15.24c-5.85-17.92-11.6-42.71-11.6-70.05v-0.11c0-14.53,4.9-27.72,10.16-37.42
		c5.18-9.7,10.58-15.87,10.97-16.26l0,0l4.9-5.4L1837.52,619.54z M1279.64,513.19c-0.56,7.94-8.92,8.22-10.55,8.22
		c0.14-1.23,0.32-2.54,0.39-3.92c1.69-0.07,5.57-0.78,5.86-5.01c0.28-4.51-4.16-6.56-6.1-7.16c-0.14-1.41-0.39-2.75-0.56-4.13
		C1270.36,501.59,1280.24,504.38,1279.64,513.19z M1380.12,487.41c0-0.11,0-0.21,0-0.28c0.67-0.71,1.38-1.52,2.15-2.5
		c2.72-3.46,5.89-8.71,8.15-16.08c1.27-4.06,2.05-8.82,2.05-14v-0.04c0-7.3-1.23-15.94-5.82-23.88
		c-4.16-7.27-10.72-14.71-21.94-19.82c-8.22-3.81-16.72-5.75-24.94-5.75h-0.04c-10.26,0.04-20.81,3.24-29.24,9.06
		c-8.64,6.03-14.96,15.45-19.36,26.74c-4.62,11.6-8.18,20.1-12.2,26.98c-1.98,3.28-3.95,5.75-6.45,7.51
		c-2.15,1.62-5.15,2.61-8.22,2.61h-0.04c-0.04,0-0.07,0-0.14,0l0,0c-2.36,0-4.83-0.63-7.02-1.94c-3.32-1.87-6.24-5.18-8.29-9.95
		c-2.12-4.83-3.35-11.08-3.35-18.91c0-5.33,0.56-11.36,1.87-18.13c3.53-18.41,14.88-32.1,29.77-41.02
		c14.96-8.99,33.44-13.37,51.43-13.37c9.59,0,19.05,1.23,27.69,3.7c18.27,5.22,35.66,15.77,48.53,29.8
		c12.8,14,21.09,31.53,21.09,50.65c0,6.53-0.95,13.26-3.07,20.1c-3.7,12.2-9.63,21.55-16.44,28.53
		c-10.23,10.55-22.54,16.08-32.91,18.91c-8.57,2.4-15.77,2.93-19.4,3.07C1369.58,519.19,1380.12,503.57,1380.12,487.41z"/>
</g>
</svg>
