<?xml version="1.0" encoding="utf-8"?>
<svg width="640px" height="895px" viewBox="0 0 640 895" version="1.1" xmlns="http://www.w3.org/2000/svg">
  <title>dinamo_logo</title>
  <desc>Created with Sketch.</desc>
  <g id="Page-1" stroke="none" stroke-width="1" fill="none" fill-rule="evenodd" transform="matrix(20.110285, 0, 0, 20.110285, 50.806602, -9.405843)">
    <g id="footer_com" transform="translate(-242.000000, -473.000000)">
      <g id="dinamo_logo" transform="translate(242.000000, 473.492188)">
        <polyline id="Fill-15" fill="#998A5C" points="10.1138232 0 11.0925494 3.03140596 14.2626817 3.03140596 11.6958523 4.90813056 12.6773217 7.93914464 10.1138232 6.06751451 7.54699382 7.93914464 8.52983476 4.90813056 5.96555257 3.03140596 9.13588083 3.03140596 10.1138232 0"/>
        <polyline id="Fill-16" fill="#998A5C" points="18.9511622 0 19.9293006 3.03140596 23.0984532 3.03140596 20.534367 4.90813056 21.5174038 7.93914464 18.9511622 6.06751451 16.38688 7.93914464 17.3683494 4.90813056 14.8023037 3.03140596 17.9734158 3.03140596 18.9511622 0"/>
        <path d="M23.4668226,30.3653962 C23.3400487,35.4051992 21.1935131,39.3528261 16.4562432,40.8384521 C15.2190706,41.2199496 13.8835356,41.1076753 12.549568,40.7753591 C15.1740042,37.4273122 17.0178106,32.181575 18.5400776,26.6809183 C15.8309949,26.2079163 14.248378,24.8949144 13.3942704,23.2480288 C13.8390569,22.8371402 14.2760057,22.4054818 14.6968874,21.9597156 C15.5872441,21.005678 16.4072579,19.9811016 17.0716945,18.9310528 C21.5420924,20.6271197 23.6047652,24.9421363 23.4668226,30.3653962 Z M12.5538787,19.2780646 C12.5568178,18.9189045 12.579547,18.5597443 12.619715,18.2088136 C13.1346484,18.1745239 13.6678043,18.1845169 14.2023319,18.2474141 C14.6224297,18.2946359 15.0288117,18.3638031 15.421086,18.4468822 C14.9455367,19.2653285 14.3438014,19.9485754 13.6552641,20.5479594 C13.3613523,20.8020951 13.0505896,21.0417312 12.726111,21.2696108 C12.6167758,20.7004017 12.5626961,20.1204158 12.5525071,19.5370989 C12.5511356,19.4512766 12.5525071,19.3646706 12.5538787,19.2780646 Z M15.7138221,12.9425026 C16.3657184,13.1425586 16.4985665,14.0973799 16.2751936,16.2209904 C15.2562995,16.0295559 14.1993927,15.9274705 13.1162299,15.9204166 C13.7581332,13.9941189 14.8260126,12.6699484 15.7138221,12.9425026 Z M7.02304711,42.5264854 C6.81378193,42.5660655 6.59648316,42.587815 6.37036704,42.587815 C5.96476881,42.4825946 4.99917068,42.5466673 4.92392927,41.2938194 C5.10850586,40.6178224 5.78744204,40.4244284 6.51183657,40.3934697 C7.03264822,40.3740715 7.92163335,40.8208174 9.02595783,41.4180461 C8.47967382,41.9753028 7.81366976,42.3826646 7.02304711,42.5264854 Z M29.0560447,30.1567188 C28.8073954,23.8977698 24.3932325,18.6304791 18.2159909,16.7033976 C18.5916102,15.7479884 18.8077333,14.7917954 18.8032267,13.8700881 C18.7967606,11.6628108 17.7631709,9.62815759 16.0257605,9.52705194 C12.8135008,9.53586929 11.2493024,12.9748329 10.7145789,16.0867707 C1.13991325,17.4887298 -2.65860242,27.4490077 1.95757578,31.3376563 C5.6816338,32.9539751 8.54688165,31.0251301 8.75320771,28.3234932 C6.41621728,28.6101551 5.63656733,27.1390288 5.64754004,25.2552503 C5.66203969,22.0778681 7.70159141,19.6162591 10.4919897,18.6436071 C10.4949288,18.9853285 10.5102122,19.3007938 10.5388197,19.5849085 C10.5554747,19.7457762 10.574481,19.9033129 10.5881968,20.0632009 C10.6765663,20.8871336 10.7567062,21.6695267 10.834103,22.4242921 C9.91219977,22.9259016 8.92975071,23.3998833 7.9304507,23.9087425 L7.95964594,26.9675802 C8.91505512,26.5610023 9.99821795,25.9259569 11.1046978,25.1284763 C11.1534871,25.6483083 11.2054115,26.1640255 11.2493024,26.6820939 C11.5475248,29.8978805 11.510296,32.7995734 10.9244319,37.1776831 C10.8035362,38.0698033 10.5160905,39.0722384 10.0515139,39.9702368 C8.21789641,39.2807198 6.51183657,38.5153735 5.21274657,38.4900971 C3.98595885,38.4264162 2.23483255,39.0263881 1.98246031,40.7426369 C1.60958425,43.267143 4.19228491,44.6269748 6.52790375,44.4437698 C6.90861746,44.4143786 7.28051381,44.3536369 7.64104558,44.266639 C8.86332665,43.9682206 9.96529983,43.3451276 10.9683227,42.4663314 C12.8407366,43.443882 14.9921707,44.3838118 16.936691,44.3140567 C24.2174733,44.0622723 29.2939173,37.8528964 29.0560447,30.1567188 L29.0560447,30.1567188 Z" id="Fill-17" fill="#0B4A8E"/>
      </g>
    </g>
  </g>
</svg>
