<?xml version="1.0" encoding="utf-8"?>
<!-- Generator: Adobe Illustrator 19.1.0, SVG Export Plug-In . SVG Version: 6.00 Build 0)  -->
<svg version="1.1" id="Layer_1" xmlns="http://www.w3.org/2000/svg" xmlns:xlink="http://www.w3.org/1999/xlink" x="0px" y="0px"
	 width="640px" height="675.89px" viewBox="28.05 118.16 640 675.89" style="enable-background:new 28.05 118.16 640 675.89;"
	 xml:space="preserve">
<g>
	<g>
		<g>
			<path style="fill:#008348;" d="M307.71,237.14c-46.99,8.6-88.79,31.8-120.58,64.79h119.48c-6.8-8.8-10.8-19.8-10.8-31.7
				C295.91,257.64,300.31,246.14,307.71,237.14L307.71,237.14z M508.87,301.83c-31.8-32.99-73.59-56.19-120.58-64.79
				c7.4,9,11.8,20.5,11.8,33.09c0,11.9-4,22.9-10.8,31.7L508.87,301.83L508.87,301.83z M662.45,343.13l-104.68,36.99
				c-10.7-29.4-27.5-55.99-48.79-78.09V489.8c0,135.08-129.88,181.97-155.88,188.87c90.69-2,167.97-58.09,200.97-137.18
				c34.29,18.5,68.29,36.79,98.08,52.89C599.46,709.67,482.98,789.76,348,789.76S96.54,709.67,43.85,594.39
				c26.5-14.3,61.39-33.19,97.98-52.99c32.89,79.19,110.28,135.28,200.97,137.28c-25.9-6.9-155.78-53.89-155.78-188.87V302.03
				c-21.3,22.2-38.09,48.69-48.79,78.19L33.55,343.23C79.94,214.45,203.32,122.46,348,122.46S616.06,214.35,662.45,343.13
				L662.45,343.13z"/>
			<path style="fill:#FFFFFF;" d="M348,122.46c144.68,0,268.06,91.89,314.35,220.67l-104.68,36.99
				c-10.7-29.4-27.5-55.99-48.79-78.09V489.8C508.87,624.88,379,671.78,353,678.68c90.69-2,167.97-58.09,200.97-137.18
				c34.29,18.5,68.29,36.79,98.08,52.89C599.46,709.67,482.98,789.76,348,789.76S96.54,709.67,43.85,594.39
				c26.5-14.3,61.39-33.19,97.98-52.99c32.89,79.19,110.28,135.28,200.97,137.28c-25.9-6.9-155.78-53.89-155.78-188.87V302.03
				c-21.3,22.2-38.09,48.69-48.79,78.19L33.55,343.23C79.94,214.45,203.32,122.46,348,122.46 M389.29,301.83h119.48
				c-31.8-32.99-73.59-56.19-120.58-64.79c7.4,9,11.8,20.5,11.8,33.09C400.09,282.04,396.09,293.04,389.29,301.83 M307.71,237.14
				c-46.99,8.6-88.79,31.8-120.58,64.79h119.48c-6.8-8.8-10.8-19.8-10.8-31.7C295.91,257.64,300.31,246.14,307.71,237.14
				 M348,118.16c-70.99,0-138.98,21.7-196.57,62.89c-27.8,19.8-52.29,43.59-72.89,70.79c-20.9,27.4-37.39,57.69-48.99,89.99l-1.5,4
				l4.1,1.4l104.68,36.99l4,1.4l1.5-4c9.2-25.3,22.7-48.29,40.39-68.49V489.7c0,31.8,7.1,61.29,21.2,87.59
				c11.6,21.7,27.9,41.29,48.59,58.29c20.2,16.6,40.99,28.1,57.49,35.49c-72.79-12.8-135.18-61.89-164.07-131.38l-1.8-4.4l-4.2,2.3
				c-36.59,19.8-71.49,38.69-97.98,52.99l-3.6,1.9l1.7,3.7c26.6,58.19,68.99,107.58,122.68,142.78
				c55.09,35.99,119.18,55.09,185.27,55.09s130.18-19.1,185.27-55.09c53.69-35.19,96.18-84.49,122.78-142.68l1.7-3.7l-3.6-1.9
				c-29.8-16-63.79-34.39-98.08-52.89l-4.2-2.3l-1.8,4.4c-29,69.49-91.39,118.48-164.07,131.28c16.5-7.4,37.39-18.9,57.59-35.49
				c20.6-17,36.99-36.59,48.59-58.29c14.1-26.3,21.2-55.79,21.2-87.59V313.13c17.6,20.2,31.2,43.19,40.39,68.49l1.5,4l4-1.4
				l104.68-36.99l4.1-1.4l-1.5-4.1c-11.6-32.29-28.1-62.49-48.99-89.99c-20.7-27.1-45.19-50.89-72.89-70.69
				C486.98,139.86,418.99,118.16,348,118.16L348,118.16z M397.29,297.53c4.7-8.3,7.1-17.7,7.1-27.4c0-9.4-2.3-18.5-6.7-26.7
				c37.89,8.7,72.29,27.3,100.68,54.09L397.29,297.53L397.29,297.53z M197.72,297.53c28.3-26.8,62.79-45.29,100.58-54.09
				c-4.4,8.2-6.7,17.3-6.7,26.7c0,9.7,2.4,19.1,7.1,27.4H197.72V297.53z"/>
		</g>
		<g>
			<path style="fill:#FFFFFF;" d="M466.78,434.31c4.1-5.4,6.4-11,6.5-15.5h-16.7c0,2.7-3.2,5-7,5h-35.59c-3.9,0-7.1-2.2-7-5.1h-17.1
				c0.1,4.5,2.5,10.3,6.7,15.7 M396.39,434.31c7.1,9.3,19.6,17.7,35.29,17.7s28-8.4,35.09-17.7"/>
			<path style="fill:#FFFFFF;" d="M452.28,413.82c0,1.2,1,2.1,2.1,2.1h25.4c1.2,0,2.1-0.9,2.1-2.1s-0.9-2.1-2.1-2.1h-25.4
				C453.18,411.72,452.28,412.72,452.28,413.82z"/>
			<path style="fill:#FFFFFF;" d="M431.19,385.72v35.39h3.5v-35.19c-1-0.1-2-0.2-3.1-0.2H431.19z"/>
			<polygon style="fill:#FFFFFF;" points="454.28,404.12 454.28,409.12 479.78,409.12 482.48,397.92 478.38,398.82 476.98,406.02 
				473.38,406.02 473.38,399.92 470.28,400.62 470.28,406.02 465.88,406.02 465.88,401.52 462.38,402.32 462.38,406.02 
				457.98,406.02 457.98,403.32 			"/>
			<polygon style="fill:#FFFFFF;" points="473.38,390.22 473.38,369.22 458.98,375.62 471.38,381.02 471.38,390.62 			"/>
			<path style="fill:#FFFFFF;" d="M405.59,353.83c0,0,0.7,0,0.5,0.5c-12.4,21.5,3.2,40.59,3.2,40.59c3.4-6.9,10.2-12.2,22.3-11.9
				c4.4,0.1,8.2,0.8,11.7,2.4c0,0,6.9,2.2,14.8,8.1c0,0-8.2-17-4.4-33.79c4.8-21.1,16.2-27.7,21.4-31.7c0.3-0.2,0.5-0.5,0.5-0.8
				c0-0.5-0.4-1-1-1c-0.2,0-0.3,0-0.5,0.1c-27.4,10.5-69.69,25.9-69.69,25.9S403.19,353.13,405.59,353.83z"/>
			<path style="fill:#FFFFFF;" d="M433.19,322.73c1.8,0,3.2-0.9,3.2-2.1c0-1.1-1.4-2.1-3.2-2.1c-1.8,0-3.2,0.9-3.2,2.1
				S431.39,322.73,433.19,322.73z"/>
			<path style="fill:#FFFFFF;" d="M480.68,417.72h-0.5c-3.9,0-7.1,4.5-7.1,10c0,2.1,0.4,4.4,1.1,6c-1.2,0.1-2.2,0.3-3.1,0.6l0,0
				c-7.2,2.4-5.6,10.5-5.6,10.5c-7-0.9-15.3,5.1-15.3,5.1s7.2-1.3,14.7,2.6c0,0,1.8-4.1,4.8-5.4c0,0-3-6.8,2.2-7.4c1.3-0.2,0,0,0,0
				c2-0.1,1.9,0.6,1.9,0.6c-3.7,0.5-3.2,3.7-3.2,3.7c0.4,1.9,2.1,3.3,4.1,3.3c0.8,0,1.6-0.2,2.3-0.7c3.3-2.8,2.9-7.4,2.2-10.7
				c-0.1-0.5-0.2-1-0.3-1.6l0,0c-0.7-3.2-1.6-7.2-1.2-9.1c0.4-2.3,0.3-4.5,0.3-4.5s0.1-1.6,1.1-1.3c0,0-0.8,2.4,1.7,2.8
				c1.2,0,2.1-1,2.1-2.2C482.88,418.62,481.88,417.72,480.68,417.72z"/>
			<path style="fill:#FFFFFF;" d="M411.19,413.82c0-1.2-1-2.1-2.1-2.1h-25.4c-1.2,0-2.1,0.9-2.1,2.1s0.9,2.1,2.1,2.1h25.4
				C410.19,415.92,411.19,415.02,411.19,413.82z"/>
			<polygon style="fill:#FFFFFF;" points="409.09,409.12 409.09,404.12 405.39,403.32 405.39,406.02 400.99,406.02 400.99,402.32 
				397.49,401.52 397.49,406.02 393.09,406.02 393.09,400.62 389.99,399.92 389.99,406.02 386.39,406.02 384.99,398.82 
				380.89,397.92 383.59,409.12 			"/>
			<path style="fill:#FFFFFF;" d="M392.79,342.33c15,5.1,18.6,5.2,21.6,1.2l-0.6-6c-1.9-0.3-3,0.2-4,0.7s-0.8,0.9-0.8-0.5
				s2.3-2,9.2-2.3c6.8-0.2,13,2.4,13,2.4v1.6l3.5-1.3v-12.3c0,0-2.3-0.7-7.2-1.5c-9.2-1.6-12.7,1.2-17,3.7s-3.3,7.1-3.3,10.2
				c0,3,2.6,2.5,4.9,4.1c1.8,1.3-0.3,1.5-4.3-0.2c-3.6-1.5-2.8-5-2.8-5s-3.2,0.2-5.7-0.5c-2.6-0.7-15.6-4.5-20.1,0.5
				c-4,4.4-2.8,7-2.8,9.1C376.4,346.43,378.5,337.53,392.79,342.33z"/>
			<path style="fill:#FFFFFF;" d="M487.58,389.82c-0.2,0-0.5,0-0.7,0.1l-31.2,6.9c-0.1,0-0.2,0-0.3,0.1c-1,0.3-1.5,1.1-1.5,2
				c0,1.2,0.9,2.1,2.1,2.1c0.3,0,0.6-0.1,0.8-0.1l30.9-6.9c1.1-0.1,2-1,2-2.1C489.78,390.72,488.78,389.82,487.58,389.82z"/>
			<path style="fill:#FFFFFF;" d="M407.29,401.02c1.2,0,2.1-1,2.1-2.1c0-0.9-0.6-1.7-1.5-2l-0.3-0.1l-31.2-6.9
				c-0.2-0.1-0.4-0.1-0.7-0.1c-1.2,0-2.1,1-2.1,2.1s0.9,2.1,2,2.1l30.9,6.9C406.79,401.02,406.99,401.02,407.29,401.02z"/>
			<polygon style="fill:#FFFFFF;" points="393.09,390.92 393.09,372.02 378.7,378.42 391.09,383.82 391.09,390.42 			"/>
		</g>
		<path style="fill:#FFFFFF;" d="M204.02,507C224.12,496,348,429.21,348,429.21S467.98,494,491.98,506.9
			c0,5.8-4.6,66.69-60.09,111.78c-43.8,35.5-83.89,44.6-83.89,44.6s-39.89-8.9-83.59-44.49C208.82,573.59,204.02,512.7,204.02,507
			L204.02,507z"/>
		<g>
			<g>
				<g>
					<defs>
						<path id="SVGID_1_" d="M204.02,507C224.12,496,348,429.21,348,429.21S467.98,494,491.98,506.9c0,5.8-2.5,69.09-57.99,114.08
							c-43.79,35.49-81.89,43.79-85.99,42.29c0.5,4.8-41.29-6.3-85.09-41.89C207.42,576.09,204.02,512.7,204.02,507L204.02,507z"/>
					</defs>
					<clipPath id="SVGID_2_">
						<use xlink:href="#SVGID_1_"  style="overflow:visible;"/>
					</clipPath>
					<path style="clip-path:url(#SVGID_2_);fill:#008348;" d="M261.21,621.38l24.2-17.1v16.2l15.6-9v19.6l37.39-26.8h9.5h9.5
						l37.39,26.8v-19.7l15.6,9v-16.2c0,0,21.4,13.7,23.6,16.1c-0.4,2.5-75.99,47.09-86.09,46.69
						C313.71,658.98,261.21,621.38,261.21,621.38z"/>
				</g>
			</g>
		</g>
		<path style="fill:#008348;" d="M317.7,546.7h60.59v54.89H362v-27.9c-0.1-7.3-6.7-13.2-14-13.2c-7.4,0-13.9,6-14,13.2v27.9h-16.3
			V546.7L317.7,546.7z"/>
		<polygon style="fill:#008348;" points="315.11,530.5 315.11,544.1 285.41,544.1 285.41,530.5 		"/>
		<polygon style="fill:#008348;" points="315.11,508.1 315.11,527.9 285.41,527.9 285.41,508.1 292.21,508.1 292.21,515.6 
			296.71,515.6 296.71,508.1 299.21,508.1 299.21,501.9 279.91,501.9 286.71,496 279.91,490.2 301.31,490.2 301.31,508.1 
			303.81,508.1 303.81,515.6 308.41,515.6 308.41,508.1 		"/>
		<polygon style="fill:#008348;" points="285.41,601.59 285.41,587.99 315.11,587.99 315.11,601.59 		"/>
		<polygon style="fill:#008348;" points="315.11,546.7 315.11,585.39 285.41,585.39 285.41,546.7 		"/>
		<polygon style="fill:#008348;" points="410.59,530.5 410.59,544.1 380.89,544.1 380.89,530.5 		"/>
		<polygon style="fill:#008348;" points="410.59,508.1 410.59,527.9 380.89,527.9 380.89,508.1 387.59,508.1 387.59,515.6 
			392.19,515.6 392.19,508.1 394.59,508.1 394.59,501.9 375.3,501.9 382.19,496 375.3,490.2 396.79,490.2 396.79,508.1 
			399.19,508.1 399.19,515.6 403.79,515.6 403.79,508.1 		"/>
		<polygon style="fill:#008348;" points="380.89,601.59 380.89,587.99 410.59,587.99 410.59,601.59 		"/>
		<polygon style="fill:#008348;" points="410.59,546.7 410.59,585.39 380.89,585.39 380.89,546.7 		"/>
		<polygon style="fill:#008348;" points="378.3,537.3 378.3,544.1 317.7,544.1 317.7,537.3 317.7,530.5 327.7,530.5 327.7,537.3 
			334.8,537.3 334.8,530.5 344.2,530.5 344.2,537.3 351.8,537.3 351.8,530.5 361.2,530.5 361.2,537.3 368.2,537.3 368.2,530.5 
			378.3,530.5 		"/>
		<polygon style="fill:#008348;" points="288.11,604.29 334.4,604.29 303.81,625.58 303.81,606.59 288.11,615.59 		"/>
		<polygon style="fill:#008348;" points="361.6,604.29 407.79,604.29 407.79,615.59 392.19,606.59 392.19,625.58 		"/>
		<polygon style="fill:#008348;" points="333.1,472.71 339.9,472.71 339.9,480.21 344.5,480.21 344.5,472.71 346.9,472.71 
			346.9,466.51 327.6,466.51 334.5,460.61 327.6,454.71 349.1,454.71 349.1,472.71 351.5,472.71 351.5,480.21 356.1,480.21 
			356.1,472.71 362.8,472.71 362.8,500.6 333.1,500.6 		"/>
		<polygon style="fill:#008348;" points="362.8,503.1 362.8,527.9 333.1,527.9 333.1,503.1 		"/>
		<path style="fill:#008348;" d="M359.4,573.69v27.9h-22.8v-27.9c0.1-5.7,5.3-10.7,11.4-10.7C354,563.09,359.3,567.99,359.4,573.69
			L359.4,573.69z"/>
		<path style="fill:#FFFFFF;" d="M337.8,641.58v4.9h20.3v-4.9H337.8L337.8,641.58z M337.8,631.08v4.9h20.3v-4.9H337.8L337.8,631.08z
			 M337.8,620.48v4.9h20.3v-4.9H337.8L337.8,620.48z M337.8,609.89v4.9h20.3v-4.9H337.8L337.8,609.89z"/>
		<path style="fill:#008348;" d="M356.7,598.99h-17.5v-25.2c0.1-4.1,4-8,8.8-8c4.7,0,8.7,3.9,8.8,8v25.2H356.7z"/>
		<g>
			<g>
				<g>
					<defs>
						<path id="SVGID_3_" d="M356.7,598.99h-17.5v-25.2c0.1-4.1,4-8,8.8-8c4.7,0,8.7,3.9,8.8,8v25.2H356.7z"/>
					</defs>
					<clipPath id="SVGID_4_">
						<use xlink:href="#SVGID_3_"  style="overflow:visible;"/>
					</clipPath>
					<path style="clip-path:url(#SVGID_4_);fill:#FFFFFF;" d="M344.1,565.79v2.9h2.9v-2.9H344.1L344.1,565.79z M349,565.79v2.9h2.9
						v-2.9H349L349,565.79z M342,573.69v-2.9h-3.8v2.9H342L342,573.69z M344.1,570.79v2.9h2.9v-2.9H344.1L344.1,570.79z M349,570.79
						v2.9h2.9v-2.9H349L349,570.79z M353.9,570.79v2.9h4.2v-2.9H353.9L353.9,570.79z M342,599.59v-3.5h-4v3.5H342L342,599.59z
						 M344.1,596.09v3.5h2.9v-3.5H344.1L344.1,596.09z M349,596.09v3.5h2.9v-3.5H349L349,596.09z M353.9,596.09v3.5h4.2v-3.5H353.9
						L353.9,596.09z M342,593.89v-2.9h-3.8v2.9H342L342,593.89z M344.1,590.99v2.9h2.9v-2.9H344.1L344.1,590.99z M349,590.99v2.9
						h2.9v-2.9H349L349,590.99z M353.9,590.99v2.9h4.2v-2.9H353.9L353.9,590.99z M342,588.79v-2.9h-3.8v2.9H342L342,588.79z
						 M344.1,585.99v2.9h2.9v-2.9H344.1L344.1,585.99z M349,585.99v2.9h2.9v-2.9H349L349,585.99z M353.9,585.99v2.9h4.2v-2.9H353.9
						L353.9,585.99z M342,583.79v-2.9h-3.8v2.9H342L342,583.79z M344.1,580.89v2.9h2.9v-2.9H344.1L344.1,580.89z M349,580.89v2.9
						h2.9v-2.9H349L349,580.89z M353.9,580.89v2.9h4.2v-2.9H353.9L353.9,580.89z M342,578.69v-2.9h-3.8v2.9H342L342,578.69z
						 M344.1,575.89v2.9h2.9v-2.9H344.1L344.1,575.89z M349,575.89v2.9h2.9v-2.9H349L349,575.89z M353.9,575.89v2.9h4.2v-2.9H353.9
						L353.9,575.89z"/>
				</g>
			</g>
		</g>
		<path style="fill:#FFFFFF;" d="M297.21,559.59v16h6.1v-16.1c0-1.7-1.4-3-3.1-3C298.61,556.49,297.21,557.79,297.21,559.59
			L297.21,559.59z"/>
		<path style="fill:#FFFFFF;" d="M392.69,559.59v16h6.1v-16.1c0-1.7-1.4-3-3.1-3S392.69,557.79,392.69,559.59L392.69,559.59z"/>
		<g>
			<path style="fill:#FFFFFF;" d="M230.52,429.31v-0.3C230.52,428.91,230.52,430.01,230.52,429.31z"/>
			<path style="fill:#FFFFFF;" d="M260.01,441.21c0,0-1.1,2.3-1.9,3.7c-0.8,1.4-2.2,3.5-2.2,3.5s3.1,0.5,5.7-0.7
				c2.3-1.1,4.4-3.7,4.4-3.7s-2-0.4-3.1-0.9C261.61,442.61,260.01,441.21,260.01,441.21z"/>
			<path style="fill:#FFFFFF;" d="M255.61,428.51c0,0-3.6-1.7-8.3-5.7l0,0c-6.2-5.2-14-14.4-17.5-28.7
				c-5.3-21.9,5.4-39.19,5.4-39.19s-2.8-0.5-4.6-1c-1.4-0.4-3.5-1.2-3.5-1.2s-0.5,0.8-1.8,2.6c2.9,2.4,3.5,5.8,2.1,9.2
				c-3.4,8.3-5.4,19-3,30.8c1.9,9.1,4.2,14.3,9.9,21.6c1.6,2.4,3.2,4.2,4.6,5.8l0,0c0.5,0.6,0.9,1.1,1.4,1.6
				c2.1,2.5,3.4,5.7-0.5,9.5c0,0,1.1,1.6,1.9,2.5c0,0,2.8,0.2,4.5,1.9c2.2,2.3,1.6,4.4,1.6,4.4c-1.2-2.3-3.5-3.9-6.2-3.9
				c-3.8,0-6.8,3.1-6.8,6.8c0,2.3,1.1,4.3,2.9,5.6c11.2,7.8,18.1-6.3,21.2-13.5C261.81,430.71,255.61,428.51,255.61,428.51z"/>
			<path style="fill:#FFFFFF;" d="M264.21,449.51c-3.8,2.6-9.8,1.5-9.8,1.5s6.3,4.1,13.8,1.1c5.5-2.2,8.1-7.7,8.1-7.7h-7.7
				C268.71,444.41,266.41,448.01,264.21,449.51z"/>
			<polygon style="fill:#FFFFFF;" points="267.81,350.63 282.11,388.52 284.01,385.42 270.61,349.63 			"/>
			<polygon style="fill:#FFFFFF;" points="261.11,352.73 277.41,395.82 279.31,392.82 263.91,351.93 			"/>
			<polygon style="fill:#FFFFFF;" points="293.61,370.32 284.11,344.73 281.31,345.73 291.71,373.32 			"/>
			<polygon style="fill:#FFFFFF;" points="254.21,354.23 272.71,403.22 274.71,400.22 257.11,353.73 			"/>
			<path style="fill:#FFFFFF;" d="M230.32,350.83c0,0,7.8,3.9,26.4,0c18-3.8,35.19-15.2,49.29-12c1-1.7,2.8-2.9,4.9-2.9
				c2.6,0,4.8,1.8,5.4,4.2c0.2,0.9-0.4,1.1-0.4,1.1c-0.5-1.9-2.2-3.3-4.2-3.3c-2.3,0-4.2,1.9-4.2,4.2c0,0.2,0,0.5,0.1,0.7
				c8.4,0.9,11.4,4.5,11.4,4.5c5.9-6.1,2.5-15.6-10.3-19.1c-12.7-3.6-22.8,1.5-41.59,2c-18.5,0.5-31.5-5.8-31.5-5.8
				S238.22,339.83,230.32,350.83z"/>
			<path style="fill:#FFFFFF;" d="M309.91,354.23c0,0-2.7-1.1-4.4-0.8c-1.8,0.3-4,2.4-4,2.4l-6.8,9.9l1.8,4.8l-33.19,52.19l-0.7,1.1
				l-0.4-1.1l-2.3-6.2l-4.3,6.2l-1.9,2.7c0,0,5.4,1.3,6.8,4.2c1.6,3.2,2.6,6.9,0.9,9.2c1.1,0.8,3.2,2.3,3.2,2.3l9.5-18.3
				L309.91,354.23z"/>
			<polygon style="fill:#FFFFFF;" points="274.71,348.13 287.01,380.72 288.91,377.72 277.41,347.13 			"/>
			<path style="fill:#FFFFFF;" d="M311.81,355.53l-34.99,67.29l0,0l-9.6,18.5h18c0,0,2.8-7.8,6.7-18.5l0,0
				c7.7-21.4,19.7-54.19,21.6-58.29C316.2,358.93,311.81,355.53,311.81,355.53z"/>
			<g>
				<path style="fill:#FFFFFF;" d="M232.02,422.82"/>
				<path style="fill:#FFFFFF;" d="M232.12,418.52c-5.9-7.6-8.4-13.2-10.3-22.6c-1.5-7.5-1.4-14.5-0.3-20.8c0.1-0.5,0.2-0.9,0.3-1.3
					c-0.4-2.3-1-4.9-2.6-6.5c-0.5,1.4-5.5,16.5-3.5,28.6c2.1,13,15.9,28.4,15.8,28.2C231.92,423.32,232.92,420.52,232.12,418.52z"/>
			</g>
			<polygon style="fill:#FFFFFF;" points="246.82,355.23 267.91,410.82 269.81,407.82 249.92,354.93 			"/>
			<path style="fill:#FFFFFF;" d="M312.91,346.33c-6.1-2.8-10.2-0.2-11.3,2.3c-1,2.3,0,4.6,0,4.6s0.8-1,2.4-1.7s4.8-0.5,7.3,0.8
				c2.3,1.2,4.1,3.2,4.7,4.8c0.6,1.6,0.8,2.8,0.8,2.8s2.4-0.8,3.4-3.2C321.3,354.43,320.4,349.73,312.91,346.33z"/>
			<g>
				<path style="fill:#FFFFFF;" d="M239.52,428.01c-0.2-0.5-0.6-1-1.1-1.7c-0.3-0.4-0.6-0.7-0.8-1l-0.3-0.4l-1-1.1
					c-0.3-0.3-1.8-2.2-1.8-2.2s-0.9,2.4-1.8,3.6c-1.4,1.9-2.1,2.7-2.2,3.8v0.2c0.2,2.3,2.2,4.2,4.5,4.2c1,0,1.9-0.5,2.7-1.2l0.5-0.6
					c0.1-0.1,0.3-0.3,0.4-0.4c0.2-0.2,0.3-0.4,0.5-0.6c0.3-0.5,0.4-1.1,0.4-1.7C239.62,428.61,239.52,428.31,239.52,428.01z"/>
			</g>
			<polygon style="fill:#FFFFFF;" points="239.62,355.43 263.31,418.02 265.21,415.02 242.82,355.43 			"/>
			<path style="fill:#FFFFFF;" d="M228.02,350.13c2.9-4.6,3.8-6.3,5-13c1.9-10.1-0.6-14.7-0.6-14.7c-3.5,1.4-14.5,20-14.5,20
				C217.92,342.93,222.42,347.53,228.02,350.13z"/>
			<path style="fill:#FFFFFF;" d="M223.12,368.62c0.5-1.8,1.1-3.4,1.8-5c0.9-2.2,0.6-4.2-0.7-5.7c-0.9-1-2.6-1.1-3.3-1.1
				c-2.1,0-3.8,1.8-3.8,4.1c0,0.2,0,0.4,0,0.6C217.92,364.72,221.02,363.62,223.12,368.62z"/>
		</g>
		<g>
			<path style="fill:#FFFFFF;" d="M373.4,312.63c-7.4,4.4-16.1,7-25.4,7s-18-2.6-25.4-7H197.82V489.7
				c0,140.28,148.58,179.07,150.18,179.07c1.7,0,150.18-38.79,150.18-179.07V312.63H373.4L373.4,312.63z M348,220.65
				c27.3,0,49.49,22.2,49.49,49.49c0,14.8-6.5,28-16.7,37.09h122.78V489.7c0,143.78-151.68,184.57-155.58,184.57
				c-3.8,0-155.58-40.79-155.58-184.57V307.23h122.78c-10.3-9.1-16.7-22.3-16.7-37.09C298.51,242.84,320.7,220.65,348,220.65
				L348,220.65z"/>
			<path style="fill:#008348;" d="M348,675.78c-2.1,0-41.49-10.3-80.09-38.59c-35.09-25.7-76.89-72.19-76.89-147.38V305.83H311.7
				c-9.3-9.5-14.6-22.3-14.6-35.69c0-28.1,22.8-50.89,50.89-50.89s50.89,22.8,50.89,50.89c0,13.4-5.3,26.2-14.6,35.69h120.68V489.8
				c0,75.19-41.79,121.68-76.89,147.38C389.49,665.38,350.1,675.78,348,675.78L348,675.78z M193.82,308.73V489.8
				c0,73.69,40.89,119.28,75.19,144.58c37.49,27.7,75.69,38.19,78.99,38.49c3.2-0.3,41.39-10.8,78.99-38.49
				c34.29-25.3,75.19-70.99,75.19-144.58V308.73H376.9l2.9-2.5c10.3-9.1,16.3-22.3,16.3-35.99c0-26.5-21.6-48.09-48.09-48.09
				c-26.5,0-48.09,21.6-48.09,48.09c0,13.8,5.9,26.9,16.3,35.99l2.9,2.5H193.82L193.82,308.73z"/>
		</g>
		<path style="fill:#008348;" d="M392.39,270.14c0,24.5-19.8,44.29-44.29,44.29c-24.5,0-44.29-19.8-44.29-44.29
			c0-24.49,19.8-44.29,44.29-44.29C372.5,225.85,392.39,245.64,392.39,270.14L392.39,270.14z M389.69,270.14c0-9.3-3.1-18-8.3-24.9
			c-0.2,0.2-0.4,0.4-0.6,0.7c3.9,5.3,10.1,20.1,7,36.79C388.99,278.74,389.69,274.54,389.69,270.14L389.69,270.14z M379.7,243.14
			c-4.4-5.1-9.9-9.2-16.3-11.7c-0.3,2.4-0.3,5-0.6,7.4c-0.4,3.7-1,8.1-2.3,11.1c6.2,0.7,11.4,2.1,14.5,4
			C375.7,250.74,377.1,245.34,379.7,243.14L379.7,243.14z M360.9,230.55c-4.1-1.3-8.4-2-12.9-2c-6,0-11.7,1.3-16.9,3.6
			c0.2,1.9,3.2,9.6,9.1,17.9c5.9-0.7,12-0.7,17.6-0.3C360.1,245.14,360.3,235.94,360.9,230.55L360.9,230.55L360.9,230.55z
			 M328.7,233.24c-5.2,2.7-9.7,6.5-13.3,11.1c2.1,1.7,6,5.6,8.6,9.7c4-1.7,8.5-2.8,13.2-3.6C332.9,244.14,329.5,237.24,328.7,233.24
			L328.7,233.24z M313.81,246.54c-4.6,6.7-7.4,14.8-7.4,23.6c0,8.2,2.4,15.9,6.5,22.3C304.31,273.84,310.81,252.74,313.81,246.54
			L313.81,246.54L313.81,246.54z M336.6,310.13c3.6,1,7.5,1.6,11.5,1.6c3.9,0,7.6-0.5,11.2-1.5c0.1-1.5-0.2-4.1-1.6-6.9
			c-6.6,0.6-13.5,0.4-19.7-0.4C336.2,306.03,335.8,308.03,336.6,310.13L336.6,310.13z M362,309.33c6.2-2.2,11.7-5.8,16.2-10.5
			c-0.4-0.4-0.8-0.8-1.3-1.1c-4.2,2.8-10,4.4-16.4,5.3C361.5,305.43,361.9,307.63,362,309.33L362,309.33z M374.4,256.84
			c-6.8-5-33.99-7.4-50.39,0.1c-1,0.4-2.2,5-3,10.9c12.9-4.3,45.59-5,56.69-1.2C377,261.74,375.9,257.94,374.4,256.84L374.4,256.84z
			 M378.3,284.34c-15.5,6.4-44.19,5.4-58.09,0.7c0.3,4.3,1.1,8,2.7,10c4.7,6.1,38.69,9.5,52.49,0.5
			C376.9,294.54,377.9,289.94,378.3,284.34L378.3,284.34z M320,282.14c13.3,5,43.59,6,58.39-0.8c0.1-3.8,0-7.8-0.4-11.5
			c-8-4.2-45.39-3.8-57.39,1.1C320.2,274.54,320,278.44,320,282.14L320,282.14z M379.8,296.53c11.3-19.8,4.2-40.29-0.4-47.79
			c-1.1,2.9-1.8,6.6-2,7.5c4.3,7.2,5.3,31.2,1.2,39.29C379.1,295.94,379.5,296.24,379.8,296.53L379.8,296.53z M318,296.14
			c0.5-0.3,0.9-0.5,1.3-0.7l0.5-0.2c-4.4-9-2-33.89,2-39.59c-1.7-2.7-4-5.3-5.9-7.1C312.71,255.74,306.51,278.14,318,296.14
			L318,296.14z M321.4,297.43c-1.1,0.5-2.2,1.1-3.3,1.6c4.3,4.5,9.6,8,15.5,10.1c-0.3-2.1,0.3-4.3,1.6-6.6
			C328.9,301.43,323.8,299.63,321.4,297.43L321.4,297.43z"/>
		<g>
			<path style="fill:#008348;" d="M45.75,494.6c6.1-0.2,12-0.3,18.1-0.3s12.1,0.1,18.2,0.3v-2.4c-5.2-0.2-8.8-1.5-10.3-3.1
				c-2.9-3.2-2.9-10.9-2.9-23.8v-12.6c0-6.2,0.1-11.9,0.6-17c-5.7,0.2-11,0.3-16,0.3c-2.7,0-5.3,0-7.8-0.1v2.4
				c6.5,0.3,10.3,2,11.4,5c1.3,3.5,1.4,10.9,1.4,21.9c0,3,0,5.7,0,8.2c0,8.2-0.3,13.3-2.4,15.8c-1.6,1.9-5.2,3.1-10.4,3.1v2.3
				L45.75,494.6L45.75,494.6z"/>
			<path style="fill:#FFFFFF;" d="M69.54,435.71c-0.5,5.1-0.6,10.8-0.6,17v12.6c0,12.9,0,20.6,2.9,23.8c1.4,1.6,5.1,2.9,10.3,3.1
				v2.4c-6.1-0.2-12.1-0.3-18.2-0.3s-12,0.1-18.1,0.3v-2.4c5.2,0,8.8-1.3,10.4-3.1c2.1-2.5,2.4-7.7,2.4-15.8c0-2.4,0-5.1,0-8.2
				c0-11-0.1-18.4-1.4-21.9c-1.1-2.9-4.9-4.6-11.4-5v-2.4c2.4,0.1,5.1,0.1,7.8,0.1C58.55,435.91,63.84,435.81,69.54,435.71
				 M72.74,432.71l-3.3,0.1c-5.8,0.2-11,0.3-15.9,0.3c-2.7,0-5.3,0-7.7-0.1l-3-0.1v3v2.4v2.7l2.7,0.1c5,0.3,8.2,1.4,8.8,3.1
				c1.2,3.1,1.3,10.3,1.3,20.9v8.2c0,6.3-0.1,12.1-1.7,14c-0.8,0.9-3.5,2.1-8.2,2.1h-2.9v2.9v2.4v3l3-0.1c6.1-0.2,12-0.3,18-0.3
				s12.1,0.1,18.1,0.3l3,0.1v-3v-2.4v-2.8l-2.8-0.1c-4.8-0.2-7.5-1.4-8.2-2.2c-2.1-2.4-2.1-10.5-2.1-21.8v-12.6
				c0-6.5,0.1-11.9,0.6-16.7L72.74,432.71L72.74,432.71z"/>
		</g>
		<g>
			<path style="fill:#008348;" d="M111.64,461.81c8.2-3.4,12.2-8.2,12.2-14c0-7.8-6.8-13.5-18.5-13.5c-11.5,0-19,6.1-19,15
				c0,6.2,3.9,11,12,15.9c-9.1,4.1-13.5,8.9-13.5,15.8c0,8.8,7.3,14.7,20,14.7c13.1,0,20.8-6.7,20.8-16.2
				C125.73,473.31,121.04,467.81,111.64,461.81L111.64,461.81z M100.84,466.81l5.3,3.5c5.1,3.3,8.1,8.1,8.1,12.9
				c0,5.9-3.4,9.8-7.7,9.8c-5.7,0-10.5-5.4-10.5-13.1C96.04,474.81,97.74,470.31,100.84,466.81L100.84,466.81z M109.74,460.51
				l-5.3-3.7c-4.8-3.4-7.2-7.2-7.2-11c0-4.7,3.5-8.5,7.7-8.5c4.6,0,8.2,4.6,8.2,11.5C113.04,452.71,111.94,456.61,109.74,460.51
				L109.74,460.51z"/>
			<path style="fill:#FFFFFF;" d="M105.44,434.31c11.6,0,18.5,5.6,18.5,13.5c0,5.8-4,10.6-12.2,14c9.4,6,14.1,11.5,14.1,17.8
				c0,9.5-7.8,16.2-20.8,16.2c-12.6,0-20-5.8-20-14.7c0-6.9,4.4-11.7,13.5-15.8c-8.1-5-12-9.8-12-15.9
				C86.44,440.41,93.84,434.31,105.44,434.31 M109.74,460.51c2.2-4,3.3-7.8,3.3-11.6c0-6.9-3.5-11.5-8.2-11.5
				c-4.2,0-7.7,3.8-7.7,8.5c0,3.8,2.4,7.6,7.2,11L109.74,460.51 M106.64,492.9c4.3,0,7.7-3.9,7.7-9.8c0-4.8-3-9.6-8.1-12.9l-5.3-3.5
				c-3.1,3.5-4.8,8-4.8,13.1C96.04,487.51,100.84,492.9,106.64,492.9 M105.44,431.41c-13.1,0-21.8,7.2-21.8,17.9
				c0,5.9,2.9,10.8,9.2,15.6c-5.5,3.2-10.8,8.1-10.8,16.2c0,10.7,9,17.5,22.9,17.5c14.2,0,23.7-7.7,23.7-19.1
				c0-6.2-3.5-11.6-11.3-17.4c7.7-4.5,9.4-10.2,9.4-14.4C126.73,438.01,118.14,431.41,105.44,431.41L105.44,431.41z M108.54,456.21
				l-2.5-1.8c-2.7-1.9-6-5-6-8.6c0-3.1,2.1-5.6,4.8-5.6c3.1,0,5.3,3.6,5.3,8.7C110.14,451.31,109.64,453.71,108.54,456.21
				L108.54,456.21z M106.64,490c-4.4,0-7.7-4.4-7.7-10.2c0-3.4,0.9-6.5,2.6-9.2l3.1,2c4.3,2.7,6.8,6.6,6.8,10.5
				C111.34,487.21,109.44,490,106.64,490L106.64,490z"/>
		</g>
		<g>
			<path style="fill:#008348;" d="M575.36,495.7c6.2-11.5,10.4-19.4,12.6-23.4l19.6-35.09l-1-1.3c-6.8,0.2-13.5,0.3-20,0.3
				s-12.7-0.1-18.9-0.3c-1.1,5-2.7,11.1-4.6,18.6l2,0.8c1.6-3.4,3-5.9,4.9-7.5c2.1-1.9,5.7-2,11-2c1.8,0,3.8,0,6.1,0h12.1
				l-30.3,50.09h6.5L575.36,495.7L575.36,495.7z"/>
			<path style="fill:#FFFFFF;" d="M606.56,435.81l1,1.3l-19.6,35.19c-2.3,4-6.5,11.9-12.6,23.4h-6.5l30.3-50.09h-12.1
				c-2.3,0-4.3,0-6.1,0c-5.3,0-8.9,0.2-11,2c-1.8,1.6-3.3,4.1-4.9,7.5l-2-0.8c1.9-7.5,3.5-13.7,4.6-18.6c6.1,0.2,12.4,0.3,18.9,0.3
				C593.06,436.11,599.76,436.01,606.56,435.81 M565.47,432.91l-0.5,2.3c-1,4.7-2.5,10.4-4.4,17.6l-0.2,0.9l-0.6,2.5l2.4,0.9l2,0.8
				l2.5,0.9l1.1-2.4c1.2-2.6,2.6-5.2,4.2-6.6c1.4-1.2,4.8-1.3,9.1-1.3h6.1h7l-27.7,45.69l-2.7,4.4h5.1h6.5h1.7l0.8-1.5
				c6.7-12.7,10.5-19.6,12.6-23.4l19.6-35.09l0.9-1.6l-1.1-1.5l-1-1.3l-0.9-1.2h-1.5c-6.7,0.2-13.4,0.3-19.9,0.3s-12.7-0.1-18.8-0.3
				L565.47,432.91L565.47,432.91z"/>
		</g>
		<g>
			<path style="fill:#008348;" d="M609.26,469.61c3.5-1.9,7.2-2.9,11.3-2.9c9.3,0,14.4,5.1,14.4,13.5c0,7.4-3.9,12.5-9.2,12.5
				c-4.7,0-8-3.5-8-8.5c0-1.1,0.2-2.3,0.5-3.5c-1.7-1.4-3.5-2-5.5-2c-4,0-6.4,2.4-6.4,6.2c0,6.4,6.2,11,16.8,11
				c13.6,0,22.7-8.3,22.7-19.8c0-10.4-8.3-18.1-22.7-18.1c-3.2,0-6.6,0.5-9.9,1.4l1.9-13.7c2.1-0.1,4.2-0.1,6.4-0.1
				c6.1,0,12.3,0.2,18.6,0.5l3.8-14.3l-1.9-0.6c-2.4,4.5-4.6,4.8-9.1,4.8c-0.7,0-1.4,0-2.3,0h-18.1l-4.1,33.49L609.26,469.61
				L609.26,469.61z"/>
			<path style="fill:#FFFFFF;" d="M642.15,431.01l1.9,0.6l-3.8,14.3c-6.3-0.3-12.6-0.5-18.6-0.5c-2.2,0-4.3,0-6.4,0.1l-1.9,13.7
				c3.4-0.9,6.7-1.4,9.9-1.4c14.3,0,22.7,7.7,22.7,18.1c0,11.5-9.1,19.8-22.7,19.8c-10.6,0-16.8-4.6-16.8-11c0-3.8,2.4-6.2,6.4-6.2
				c2,0,3.8,0.6,5.5,2c-0.3,1.3-0.5,2.4-0.5,3.5c0,5.1,3.3,8.5,8,8.5c5.3,0,9.2-5.1,9.2-12.5c0-8.4-5.1-13.5-14.4-13.5
				c-4.1,0-7.8,0.9-11.3,2.9l-0.8-0.3l4.1-33.49h18.1c0.8,0,1.6,0,2.3,0C637.45,435.81,639.75,435.51,642.15,431.01 M640.65,427.61
				l-1.1,2.1c-1.7,3.1-2.6,3.3-6.5,3.3h-2.3h-18.1h-2.5l-0.3,2.5l-4.1,33.49l-0.3,2.1l2,0.9l0.8,0.3l1.3,0.6l1.3-0.7
				c3-1.7,6.2-2.5,9.9-2.5c5.3,0,11.5,1.8,11.5,10.6c0,5.6-2.6,9.6-6.3,9.6c-3.2,0-5.1-2.2-5.1-5.6c0-0.8,0.1-1.8,0.4-2.8l0.5-1.8
				l-1.4-1.2c-2.1-1.8-4.5-2.7-7.3-2.7c-5.6,0-9.3,3.6-9.3,9c0,8.4,7.7,13.8,19.7,13.8c15,0,25.5-9.3,25.5-22.7
				c0-12.6-10.3-21-25.5-21c-2.1,0-4.3,0.2-6.5,0.6l1-7.2c1.3,0,2.5,0,3.9,0c6,0,12.2,0.2,18.5,0.5l2.3,0.1l0.6-2.3l3.8-14.3
				l0.7-2.7l-2.6-0.8l-1.9-0.6L640.65,427.61L640.65,427.61z"/>
		</g>
	</g>
	<g>
		<path style="fill:#FFFFFF;" d="M127.73,290.44c-1.2,1.7-2.5,3.4-3.6,5.1c-1.2,1.7-2.3,3.4-3.5,5.2c-1.1,1.7-2.2,3.5-3.3,5.3
			l3.9,2.6c3.7,2.6,7.1,4.8,10.1,6.7s5.9,3.7,8.8,5.5c-0.6,0.7-1.2,1.5-1.9,2.4c-0.6,0.9-1.3,1.9-2.1,3c-0.8,1.1-1.5,2.1-2.1,3
			c-0.6,0.9-1.1,1.8-1.6,2.6c-2.7-2.1-5.4-4.2-8.3-6.3c-2.9-2.1-6.1-4.4-9.9-7l-9.2-6.3c-3.7-2.6-7.1-4.8-10.1-6.7s-6-3.8-9-5.6
			c0.6-0.7,1.3-1.5,2-2.3c0.7-0.9,1.4-1.8,2.2-3c0.8-1.1,1.4-2.2,2-3.1c0.6-0.9,1-1.8,1.5-2.7c2.8,2.2,5.6,4.4,8.4,6.4
			s6.1,4.3,9.9,6.9c0.8-1.1,1.8-2.5,3-4.2c1.2-1.6,2.6-3.7,4.2-6.1c1.7-2.4,3-4.4,4.1-6c1-1.5,2-3,2.8-4.3c-3.7-2.6-7.1-4.8-10-6.7
			s-5.9-3.7-9-5.6c0.6-0.7,1.3-1.5,2-2.3c0.7-0.9,1.4-1.8,2.2-3c0.8-1.1,1.4-2.2,2-3.1s1-1.8,1.5-2.7c2.8,2.2,5.6,4.3,8.5,6.4
			c2.8,2.1,6.2,4.4,9.9,7l9.2,6.3c3.7,2.6,7.1,4.8,10.1,6.7s5.9,3.7,8.8,5.5c-0.6,0.7-1.2,1.5-1.9,2.4c-0.6,0.9-1.3,1.9-2.1,3
			s-1.5,2.1-2.1,3s-1.1,1.8-1.6,2.6c-2.7-2.1-5.4-4.2-8.3-6.3c-2.8-2.1-6.1-4.4-9.9-7l-3.9-2.6
			C130.23,287.04,128.93,288.74,127.73,290.44z"/>
		<path style="fill:#FFFFFF;" d="M149.43,237.94c-2.4-2.6-4.9-5.1-7.5-7.6c0.8-0.5,1.6-1.1,2.5-1.8s1.8-1.5,2.8-2.4s1.9-1.8,2.7-2.6
			s1.4-1.5,2.1-2.2c2.2,2.8,4.5,5.5,6.7,8.2c2.3,2.7,4.9,5.7,8,9.1l7.5,8.3c3,3.4,5.8,6.3,8.2,8.9c2.4,2.6,4.9,5,7.3,7.4
			c-0.8,0.5-1.6,1.2-2.4,1.9c-0.8,0.7-1.7,1.6-2.8,2.5c-1,0.9-1.9,1.7-2.7,2.5c-0.8,0.7-1.5,1.4-2.2,2.2c-2.1-2.7-4.3-5.4-6.6-8.1
			s-4.9-5.7-8-9.1l-7.5-8.3C154.63,243.44,151.93,240.44,149.43,237.94z"/>
		<path style="fill:#FFFFFF;" d="M188.13,206.85c-1.9-3-3.8-6-5.8-9c0.9-0.4,1.8-0.8,2.8-1.3s2.1-1,3.3-1.7c2-1.2,4.1-2.4,6.3-3.8
			c2.2-1.4,4.3-2.7,6.3-3.8c2.1-1.2,4.2-2.1,6.2-2.7c2-0.6,3.9-0.8,5.7-0.6c1.8,0.1,3.4,0.7,4.9,1.7s2.8,2.5,3.9,4.4
			c1.1,1.9,1.7,3.9,1.7,5.7c0,1.9-0.3,3.6-1,5.2c-0.6,1.6-1.5,3-2.6,4.3s-2.1,2.4-3.1,3.2l0.1,0.1c1.1-0.6,2.5-1.1,4.3-1.4
			c1.7-0.4,3.5-0.5,5.4-0.3s3.7,0.8,5.5,1.7c1.8,1,3.3,2.5,4.5,4.7c1.5,2.6,2.3,5,2.4,7.4c0.1,2.3-0.3,4.5-1.2,6.5s-2.2,3.8-3.9,5.4
			c-1.7,1.6-3.7,3-5.8,4.2c-1.9,1.1-3.7,2.1-5.3,3c-1.7,0.9-3.4,1.8-5.2,2.9c-1.3,0.7-2.6,1.5-3.9,2.3c-1.4,0.8-2.4,1.4-3.2,2
			c-1.5-3.1-3-6.2-4.7-9.3c-1.6-3.1-3.6-6.7-5.8-10.6l-5.5-9.7C192.02,213.35,189.92,209.85,188.13,206.85z M209.72,194.45
			c-0.8-0.9-1.8-1.5-2.8-1.9s-2.2-0.5-3.4-0.4s-2.5,0.5-4,1.4c-1,0.6-1.8,1-2.2,1.3s-0.8,0.6-1.2,0.9c0.9,1.8,1.9,3.6,2.8,5.5
			c1,1.8,1.8,3.4,2.5,4.6c0.7,1.3,1.4,2.5,2.1,3.7c0.7,1.2,1.4,2.3,2.1,3.6l3.4-2c1-0.6,1.9-1.3,2.6-2.3c0.8-0.9,1.3-2,1.6-3.2
			s0.4-2.5,0.2-3.9s-0.7-2.9-1.6-4.4C211.32,196.35,210.52,195.35,209.72,194.45z M219.12,214.05c-2.4-0.8-5.1-0.4-7.9,1.3
			c-0.7,0.4-1.2,0.7-1.7,1s-0.9,0.6-1.3,0.8c0.6,1,1.1,2,1.7,3.1c0.6,1.1,1.3,2.4,2.1,3.8c0.7,1.1,1.3,2.3,2,3.5s1.4,2.3,2,3.5
			c0.7,1.1,1.3,2.2,1.8,3.1c0.6,0.9,1,1.7,1.4,2.3c0.7-0.3,1.3-0.6,1.9-1c0.6-0.3,1.3-0.7,2.1-1.1c1-0.6,1.9-1.4,2.6-2.4
			c0.7-1,1.2-2.1,1.4-3.3s0.2-2.6,0-4c-0.3-1.4-0.8-2.9-1.7-4.5C223.72,216.95,221.52,214.85,219.12,214.05z"/>
		<path style="fill:#FFFFFF;" d="M252.81,175.35c-1.1-3.4-2.2-6.7-3.4-10.1c2.4-0.6,4.7-1.2,7.1-1.8c2.3-0.6,4.7-1.2,7.1-1.9
			c3.9-1.1,7.3-2.2,10.3-3.1c3-1,5-1.6,6-2c0,0.9,0.2,2,0.6,3.4c0.2,0.8,0.5,1.5,0.7,1.9c0.2,0.5,0.4,1,0.7,1.5
			c-1.6,0.3-3.3,0.7-5.1,1.1c-1.8,0.4-3.6,0.8-5.4,1.2c-1.7,0.4-3.3,0.8-4.7,1.1c-1.4,0.3-2.4,0.6-2.9,0.8c0.6,3,1.3,5.9,2.1,8.7
			c0.8,2.8,1.6,5.7,2.5,8.6c3.4-1,6.5-2,9.2-2.9c2.7-0.9,5.6-1.9,8.5-2.9c0.1,0.9,0.2,1.7,0.3,2.1c0.1,0.5,0.2,1,0.4,1.5
			c0.1,0.4,0.3,0.8,0.5,1.3c0.2,0.4,0.5,1,0.8,1.9c-6.1,1.3-12.2,2.8-18.1,4.5c0.5,1.7,1,3.4,1.4,5.1c0.5,1.7,0.9,3.4,1.4,5.1
			c1,3.4,2,6.7,3.1,9.8c3-0.9,6-1.8,8.9-2.8c3-1,5.9-2.2,8.8-3.4c0.1,0.6,0.1,1.2,0.2,1.6c0.1,0.5,0.3,1.2,0.5,2s0.5,1.5,0.7,1.9
			c0.2,0.5,0.4,0.8,0.6,1.1c-1.4,0.4-3.2,0.8-5.3,1.4c-2.1,0.6-4.9,1.4-8.6,2.4c-3.2,0.9-5.8,1.7-7.8,2.3c-1.9,0.6-3.5,1-4.7,1.4
			c-1.2,0.3-2.1,0.6-2.7,0.8s-1.1,0.4-1.5,0.6c-0.8-3.3-1.6-6.7-2.5-10.1c-0.9-3.4-2-7.3-3.2-11.7l-3.1-10.7
			C255.11,182.65,253.91,178.75,252.81,175.35z"/>
		<path style="fill:#FFFFFF;" d="M329.1,180.35l0.2,3.4c0.2,4.5,0.5,8.6,0.7,12.1c0.3,3.5,0.6,7,1,10.4c-0.9-0.1-1.9-0.1-3,0
			s-2.3,0.1-3.7,0.2c-1.4,0.1-2.6,0.1-3.7,0.2c-1.1,0.1-2.1,0.2-3,0.3c0.1-3.4,0.1-6.9,0-10.4s-0.2-7.6-0.4-12.1l-0.6-11.3
			c-0.2-4.5-0.5-8.6-0.7-12.1c-0.3-3.5-0.6-7.1-1-10.6c0.9,0.1,1.9,0.1,3,0.1s2.3,0,3.7,0c1.5-0.1,3.2-0.2,5-0.4
			c1.9-0.2,4.2-0.4,7-0.5c2.1-0.1,3.9-0.1,5.3-0.1c1.5,0,2.8,0.1,3.8,0.3c1.1,0.2,2,0.4,2.8,0.7c0.8,0.3,1.6,0.7,2.3,1.2
			c1.7,1.1,3.1,2.6,4.1,4.3s1.6,3.8,1.7,6.3c0.2,4-0.8,7.3-2.8,9.9c-2.1,2.6-5.1,4.5-9.2,5.8c2.8,4.5,5.9,9,9.1,13.5
			c3.2,4.5,6.4,8.9,9.7,13.3c-1.3-0.1-2.5,0-3.7,0c-1.2,0.1-2.4,0.1-3.7,0.2c-1.3,0.1-2.5,0.1-3.7,0.2c-1.2,0.1-2.5,0.2-3.7,0.3
			l-15.9-25.2H329.1z M340.4,158.96c-0.6-1.4-1.4-2.4-2.4-3.1s-2.4-1.1-4-1.3c-1.6-0.1-3.6-0.2-5.8-0.1c0.2,7.4,0.4,14.9,0.8,22.3
			c0.3,0,0.6,0.1,0.9,0.1s0.6,0,0.9,0c3.6-0.2,6.3-1.3,8.2-3.3c1.8-2,2.6-5,2.5-8.9C341.3,162.26,341,160.36,340.4,158.96z"/>
		<path style="fill:#FFFFFF;" d="M391.39,158.46c0.5-2.5,0.9-4.8,1.3-6.7c1.4,0.6,2.6,1,3.5,1.3c0.9,0.2,2.1,0.4,3.7,0.5
			c4.3,7.8,8.5,15.5,12.7,23.1c4.2,7.6,8.5,15.3,12.9,23.2l1.7-6.9l1.8-7.8c0.6-2.6,1.2-5.2,1.8-7.7c0.6-2.5,1.1-4.9,1.6-7
			c0.5-2.1,0.9-4,1.2-5.5c0.3-1.6,0.4-2.6,0.5-3.2c1.4,0.6,2.6,1,3.5,1.3c0.9,0.2,2.1,0.4,3.7,0.5c-1.4,4.8-2.7,9.1-3.8,13
			c-1.1,3.9-2.1,7.5-3,11c-0.9,3.4-1.8,6.8-2.7,10.2c-0.8,3.4-1.7,7-2.6,10.8l-2.3,9.6c-1-0.4-2.1-0.7-3.2-0.9
			c-1.2-0.3-2.2-0.5-3.2-0.6c-7.9-15.4-16.5-31-25.7-46.89c-0.4,1.5-0.8,3.1-1.2,4.6c-0.4,1.5-0.8,3.1-1.2,4.7l-2.2,9.3
			c-0.8,3.2-1.4,5.9-1.9,8.2c-0.5,2.2-0.9,4.1-1.2,5.7c-0.3,1.6-0.6,2.8-0.7,3.8c-0.2,1-0.3,1.8-0.4,2.4c-0.6-0.3-1.2-0.5-1.9-0.6
			c-0.6-0.2-1.3-0.3-1.8-0.4c-1.2-0.3-2.5-0.5-3.7-0.7c0.2-0.4,0.7-1.9,1.5-4.5s1.7-5.7,2.8-9.4c1.1-3.7,2.2-7.7,3.4-12.1
			c1.2-4.4,2.3-8.6,3.2-12.6C390.19,164.16,390.89,161.06,391.39,158.46z"/>
		<path style="fill:#FFFFFF;" d="M472.38,188.65c1.5-3.2,3-6.4,4.4-9.7c0.8,0.5,1.6,1.1,2.6,1.6c0.9,0.6,2,1.2,3.2,1.8
			c1.2,0.6,2.3,1.1,3.3,1.6c1,0.4,2,0.8,2.8,1.1c-1.8,3.1-3.6,6.2-5.3,9.3c-1.7,3.1-3.6,6.7-5.6,10.7l-5.1,10
			c-2.1,4.1-3.8,7.7-5.3,10.9s-2.9,6.4-4.3,9.5c-0.8-0.5-1.7-1-2.6-1.5c-1-0.5-2.1-1.1-3.3-1.7c-1.2-0.6-2.3-1.2-3.3-1.7
			s-1.9-0.9-2.8-1.2c1.7-2.9,3.4-5.9,5.1-9s3.6-6.7,5.6-10.7l5.1-10C469.18,195.45,470.88,191.85,472.38,188.65z"/>
		<path style="fill:#FFFFFF;" d="M522.07,278.24c-0.9-0.9-1.9-1.8-2.8-2.5c-0.9-0.8-1.8-1.5-2.7-2.2c-0.9-0.7-1.8-1.5-2.7-2.2
			c-0.9-0.8-1.8-1.5-2.8-2.1c1-2.6,2.1-5.3,3.1-8.1c1.1-2.7,2.1-5.5,3.1-8.3c-1.3-1.2-2.6-2.3-4-3.4c-1.3-1.1-2.7-2.3-4-3.4
			c-1.1-0.9-2.2-1.8-3.3-2.7c-1.1-0.9-2.2-1.8-3.4-2.6c-2.6,1.5-5.2,3-7.7,4.5c-2.5,1.6-4.9,3.1-7.2,4.7c-0.4-0.5-0.9-1-1.4-1.4
			s-1-0.8-1.5-1.2s-1-0.8-1.5-1.3c-0.5-0.4-1.1-0.8-1.7-1.2c1.4-0.7,3.3-1.6,5.8-2.9c2.4-1.2,5.2-2.7,8.2-4.3s6.3-3.3,9.8-5.2
			c3.5-1.8,7-3.7,10.5-5.6c3.5-1.9,7-3.8,10.4-5.7s6.6-3.6,9.5-5.2c0.4,0.4,0.7,0.8,1,1.2s0.7,0.7,1.1,1.1c0.4,0.3,0.8,0.6,1.3,0.9
			c0.4,0.3,0.9,0.5,1.4,0.8c-1.6,4.7-3.3,9.7-5.2,15.1c-1.8,5.4-3.6,10.7-5.3,15.9s-3.3,10.2-4.7,15
			C524.07,270.74,522.87,274.84,522.07,278.24z M525.77,228.15c-3.2,1.6-6.3,3.3-9.3,4.9c-3,1.7-6,3.4-9.1,5.2l11.6,9.6
			c1.2-3.3,2.4-6.6,3.5-9.8C523.67,234.84,524.77,231.55,525.77,228.15z"/>
		<path style="fill:#FFFFFF;" d="M576.36,265.54c2.1-1.5,3.9-2.9,5.5-4c0.6,1.4,1.2,2.5,1.7,3.3c0.5,0.8,1.3,1.7,2.4,2.8
			c-2.2,8.6-4.3,17.2-6.4,25.6c-2.1,8.4-4.2,17-6.2,25.8l5.9-4l6.6-4.4c2.2-1.5,4.4-3,6.6-4.4c2.1-1.5,4.1-2.8,5.9-4.1
			c1.8-1.2,3.3-2.3,4.6-3.3s2.1-1.6,2.5-2c0.6,1.4,1.2,2.5,1.7,3.3c0.5,0.8,1.3,1.7,2.4,2.8c-4.3,2.5-8.2,4.9-11.6,7
			c-3.4,2.1-6.7,4.1-9.7,6c-3,1.9-6,3.8-8.9,5.7c-2.9,1.9-6,4-9.3,6.2l-8.2,5.5c-0.5-1-1.1-1.9-1.7-2.9c-0.7-1-1.3-1.9-1.9-2.6
			c4.6-16.7,9-33.99,13-51.89c-1.4,0.8-2.7,1.7-4,2.5c-1.3,0.9-2.7,1.7-4,2.7l-7.9,5.3c-2.7,1.8-5,3.4-6.9,4.7
			c-1.9,1.3-3.5,2.4-4.8,3.3s-2.3,1.7-3.1,2.3s-1.5,1.1-1.9,1.5c-0.3-0.6-0.6-1.2-1-1.7s-0.7-1.1-1.1-1.6c-0.7-1-1.4-2.1-2.2-3
			c0.4-0.2,1.8-0.9,4.1-2.3s5.1-3,8.4-5c3.3-2,6.9-4.2,10.7-6.6s7.5-4.8,10.9-7.1C571.67,268.94,574.26,267.14,576.36,265.54z"/>
	</g>
	<g>
		<g>
			<path style="fill:#FFFFFF;" d="M138.23,608.09c2.6-2.3,5.2-4.6,7.8-6.9c1.5,1.9,2.9,3.8,4.4,5.7c1.4,1.9,2.9,3.8,4.4,5.7
				c2.5,3.1,4.8,5.8,6.8,8.1s3.4,3.9,4.2,4.7c-0.8,0.4-1.7,1-2.8,1.9c-0.7,0.5-1.2,1-1.5,1.3s-0.7,0.7-1.1,1.2
				c-0.9-1.3-1.9-2.7-3-4.2s-2.2-3-3.2-4.4s-2-2.7-2.8-3.8s-1.5-1.9-1.8-2.4c-2.4,1.7-4.8,3.5-7,5.3c-2.3,1.8-4.5,3.7-6.8,5.5
				c2.3,2.7,4.3,5.1,6.2,7.2c1.9,2.1,3.8,4.3,5.9,6.6c-0.8,0.5-1.4,0.8-1.8,1.1c-0.4,0.3-0.8,0.6-1.2,0.9c-0.3,0.3-0.7,0.6-1,0.9
				c-0.3,0.4-0.8,0.8-1.4,1.5c-3.5-5.1-7.2-9.9-11-14.6c-1.3,1.1-2.7,2.2-4,3.2c-1.3,1.1-2.7,2.1-4,3.2c-2.7,2.2-5.3,4.4-7.6,6.6
				c1.9,2.4,3.9,4.7,6,7s4.2,4.5,6.5,6.7c-0.5,0.3-1,0.6-1.4,0.8c-0.4,0.3-0.9,0.7-1.6,1.2s-1.2,1-1.5,1.3s-0.6,0.7-0.8,1
				c-0.9-1.2-2-2.6-3.3-4.2c-1.3-1.7-3.2-3.9-5.5-6.8c-2.1-2.5-3.8-4.6-5.1-6.2c-1.3-1.5-2.3-2.8-3-3.7c-0.8-0.9-1.4-1.6-1.8-2.1
				s-0.8-0.8-1.1-1.1c2.7-2,5.4-4,8.2-6.1c2.7-2.1,5.8-4.6,9.3-7.4l8.5-6.9C132.53,612.89,135.63,610.39,138.23,608.09z"/>
			<path style="fill:#FFFFFF;" d="M166.53,641.68c2.1-2.8,4.1-5.6,6.2-8.5c0.6,0.7,1.4,1.4,2.2,2.1c0.8,0.7,1.7,1.5,2.8,2.4
				c1.4,1.1,3,2.3,4.8,3.6s4.1,3,6.9,5.2c3.6,2.9,6.6,5.8,9.1,8.9c2.4,3,4.1,6.2,5,9.4c0.9,3.3,0.9,6.7,0,10.2
				c-0.9,3.6-3,7.3-6.2,11.3c-2.8,3.5-5.9,6.2-9.3,8.1c-3.4,1.9-6.9,3-10.5,3.4s-7.1,0.1-10.6-1s-6.7-2.8-9.7-5.2
				c-3.1-2.5-5.8-4.7-8-6.5s-4.1-3.4-5.7-4.7c-1-0.8-2-1.6-2.8-2.3s-1.7-1.3-2.4-1.7c2.3-2.5,4.5-5,6.8-7.7c2.3-2.6,4.8-5.7,7.6-9.2
				l6.9-8.6C162.03,647.68,164.43,644.48,166.53,641.68z M158.03,671.78l-3,3.8c-1,1.2-1.9,2.3-2.6,3.4c-0.8,1-1.3,1.7-1.5,2
				c0.6,0.5,1.3,1.2,2.2,1.9c0.8,0.7,1.9,1.6,3.2,2.7c4.7,3.8,9.8,5.2,15.2,4.2s10.7-4.8,15.9-11.3c2.1-2.6,3.6-5.2,4.6-7.8
				s1.4-5.1,1.3-7.6c-0.1-2.5-0.7-4.8-1.9-7c-1.1-2.2-2.8-4.2-5-5.9c-1.5-1.2-2.8-2.2-3.8-2.9s-2-1.4-3-2.1
				c-0.2,0.3-0.8,0.9-1.6,1.9s-1.7,2.1-2.8,3.4l-3,3.8l-2.5,3.1l-9,11.2L158.03,671.78z"/>
			<path style="fill:#FFFFFF;" d="M220.22,680.47c1.5-3.1,3-6.3,4.5-9.4c0.8,0.5,1.6,1.1,2.5,1.7s2,1.2,3.1,1.8
				c1.2,0.6,2.3,1.2,3.3,1.6c1,0.4,1.9,0.8,2.8,1.2c-1.8,3-3.6,6-5.4,9c-1.7,3-3.6,6.5-5.8,10.4l-5.2,9.7c-2.1,3.9-3.9,7.5-5.5,10.6
				c-1.5,3.1-3,6.2-4.4,9.2c-0.8-0.5-1.6-1-2.6-1.6c-0.9-0.5-2-1.1-3.2-1.7c-1.2-0.6-2.3-1.2-3.2-1.7s-1.9-0.9-2.7-1.3
				c1.8-2.8,3.5-5.8,5.2-8.8s3.6-6.5,5.8-10.4l5.2-9.7C216.92,687.17,218.72,683.57,220.22,680.47z"/>
			<path style="fill:#FFFFFF;" d="M248.42,691.27c0.7-2.4,1.3-4.6,1.8-6.5c1.4,0.7,2.5,1.2,3.3,1.5c0.9,0.3,2.1,0.5,3.6,0.7
				c3.6,8,7.2,15.8,10.8,23.6c3.6,7.7,7.2,15.6,11,23.6l2.1-6.7l2.4-7.5c0.8-2.5,1.6-5,2.3-7.4c0.7-2.4,1.4-4.7,2.1-6.8
				c0.6-2.1,1.1-3.8,1.5-5.4c0.4-1.5,0.6-2.5,0.7-3.1c1.4,0.7,2.5,1.2,3.3,1.5c0.9,0.3,2.1,0.5,3.6,0.7c-1.7,4.6-3.3,8.7-4.6,12.5
				c-1.3,3.7-2.6,7.2-3.8,10.5c-1.2,3.3-2.3,6.6-3.3,9.8c-1.1,3.2-2.2,6.7-3.3,10.4l-2.9,9.2c-1-0.4-2-0.8-3.1-1.2s-2.1-0.6-3-0.8
				c-6.7-15.6-13.9-31.6-21.8-47.79c-0.5,1.5-1,2.9-1.5,4.4s-1,3-1.5,4.5l-2.8,8.9c-1,3.1-1.8,5.7-2.4,7.9c-0.7,2.2-1.2,4-1.6,5.5
				c-0.4,1.5-0.8,2.7-1,3.7c-0.3,1-0.4,1.7-0.6,2.3c-0.6-0.3-1.2-0.5-1.8-0.7s-1.2-0.4-1.8-0.6c-1.2-0.4-2.4-0.7-3.6-1
				c0.2-0.4,0.8-1.8,1.8-4.3c0.9-2.5,2.1-5.5,3.4-9c1.3-3.6,2.7-7.4,4.2-11.6c1.5-4.2,2.8-8.2,4.1-12.1
				C246.82,696.67,247.72,693.67,248.42,691.27z"/>
			<path style="fill:#FFFFFF;" d="M309.61,711.87c0.2-3.5,0.3-7,0.3-10.5c0.9,0.2,1.9,0.4,3,0.5c1.1,0.2,2.3,0.3,3.6,0.4
				c2.3,0.2,4.7,0.3,7.3,0.4c2.5,0.1,4.9,0.2,7.3,0.4s4.6,0.6,6.5,1.3c1.9,0.6,3.6,1.5,5,2.6s2.4,2.5,3,4.1s0.9,3.6,0.7,5.8
				c-0.2,2.2-0.8,4-1.8,5.6c-1,1.5-2.3,2.7-3.7,3.7c-1.4,0.9-2.9,1.6-4.5,2.1s-3,0.8-4.3,0.9v0.2c1.2,0.2,2.6,0.6,4.3,1.2
				c1.6,0.6,3.1,1.6,4.5,2.8s2.6,2.7,3.5,4.4c0.9,1.8,1.3,3.9,1.1,6.3c-0.2,2.9-1,5.3-2.2,7.3s-2.7,3.5-4.6,4.6
				c-1.8,1.1-3.9,1.9-6.2,2.2c-2.3,0.3-4.6,0.4-7,0.2c-2.1-0.2-4.1-0.4-6-0.6c-1.8-0.2-3.8-0.4-5.8-0.5c-1.4-0.1-2.9-0.2-4.5-0.4
				c-1.5-0.1-2.7-0.2-3.7-0.1c0.5-3.3,1-6.7,1.4-10.1c0.4-3.4,0.8-7.4,1.1-11.8l0.9-10.9C309.21,719.27,309.41,715.27,309.61,711.87
				z M330.8,734.77c-1.5-2-3.9-3.1-7.1-3.4c-0.8-0.1-1.4-0.1-1.9-0.1s-1,0-1.5-0.1c-0.1,1.1-0.2,2.3-0.3,3.5
				c-0.1,1.2-0.3,2.6-0.4,4.3c-0.1,1.3-0.2,2.6-0.3,3.9c-0.1,1.3-0.2,2.7-0.3,3.9c-0.1,1.3-0.2,2.5-0.2,3.5c-0.1,1.1-0.1,2-0.2,2.7
				c0.7,0.1,1.4,0.2,2.1,0.3c0.6,0.1,1.4,0.2,2.3,0.2c1.2,0.1,2.3-0.1,3.4-0.5s2.1-1,3-1.9s1.6-2,2.2-3.3s1-2.8,1.1-4.6
				C332.9,739.67,332.3,736.77,330.8,734.77z M334,713.67c-0.2-1.2-0.6-2.2-1.2-3.1s-1.5-1.6-2.5-2.2s-2.4-1-4-1.1
				c-1.2-0.1-2-0.1-2.5-0.2c-0.5,0-1,0-1.5,0.1c-0.3,2-0.5,4-0.7,6s-0.4,3.7-0.5,5.1c-0.1,1.4-0.2,2.8-0.3,4.1
				c-0.1,1.3-0.2,2.7-0.3,4.1l3.6,0.3c1.1,0.1,2.3,0,3.4-0.4c1.1-0.3,2.2-0.9,3.1-1.7s1.7-1.8,2.3-3c0.6-1.2,1-2.7,1.2-4.4
				C334.2,716.07,334.2,714.87,334,713.67z"/>
			<path style="fill:#FFFFFF;" d="M382.79,757.06c-3.1-0.3-5.8-1.1-8.2-2.5c-2.4-1.4-4.5-3.3-6.1-5.7s-2.7-5.6-3.3-9.3
				c-0.3-2.1-0.6-4-0.8-5.7c-0.2-1.7-0.4-3.2-0.6-4.7c-0.2-1.4-0.4-2.8-0.6-4.2c-0.2-1.3-0.4-2.7-0.6-4.2c-0.6-4.3-1.2-7.8-1.6-10.4
				c-0.4-2.7-0.8-4.6-1.1-5.9c1.1-0.1,2.2-0.1,3.3-0.2c1.1-0.1,2.2-0.2,3.3-0.4c1.1-0.2,2.1-0.4,3.3-0.6c1.1-0.2,2.2-0.5,3.2-0.8
				c0.2,5.2,0.6,10.1,1.2,14.5c0.5,4.5,1.2,9,1.8,13.6c0.7,4.8,1.6,8.7,2.8,11.6c1.1,2.9,2.5,5,4.1,6.4s3.4,2.3,5.5,2.5
				c2,0.2,4.4,0.2,7-0.2c3.2-0.5,5.6-1.6,7.1-3.5c1.6-1.9,2.6-4.2,3.2-7c0.5-2.8,0.7-5.9,0.4-9.4s-0.7-7.1-1.3-10.8
				c-0.5-3.7-1.1-7.3-1.8-10.9c-0.6-3.6-1.3-7.3-2.1-10.9c0.8,0,1.5,0,2.2,0s1.3-0.1,1.9-0.2c0.7-0.1,1.4-0.2,2-0.4s1.3-0.4,2-0.6
				c0.1,1.2,0.2,2.8,0.4,4.8c0.2,2,0.4,4.3,0.7,6.9c0.3,2.6,0.6,5.5,1,8.6s0.8,6.4,1.3,9.9c1.4,9.3,0.4,16.2-3,20.8s-9,7.5-16.7,8.6
				C389.09,757.26,385.89,757.36,382.79,757.06z"/>
			<path style="fill:#FFFFFF;" d="M443.79,716.57l1.2,3.1c1.6,4.2,3.1,7.8,4.4,11c1.4,3.2,2.7,6.3,4.1,9.3c-0.9,0.2-1.8,0.5-2.8,0.9
				s-2.1,0.8-3.4,1.3s-2.4,0.9-3.4,1.3c-1,0.4-1.9,0.8-2.7,1.2c-1-3.2-2.1-6.4-3.2-9.7c-1.2-3.3-2.5-7-4.1-11.2l-4-10.2
				c-1.6-4.2-3.1-7.8-4.4-11c-1.4-3.2-2.8-6.4-4.2-9.6c0.9-0.2,1.9-0.5,2.9-0.8s2.2-0.7,3.4-1.2c1.4-0.5,2.9-1.2,4.6-2
				s3.8-1.7,6.4-2.7c1.9-0.7,3.6-1.3,4.9-1.7c1.4-0.4,2.6-0.7,3.7-0.9s2-0.2,2.9-0.2s1.7,0.2,2.5,0.4c1.9,0.5,3.7,1.4,5.2,2.7
				s2.7,3.1,3.6,5.3c1.4,3.7,1.6,7,0.5,10.1s-3.4,5.8-6.8,8.2c4.1,3.3,8.3,6.6,12.7,9.7c4.4,3.2,8.8,6.3,13.2,9.4
				c-1.2,0.3-2.3,0.7-3.4,1.2c-1.1,0.4-2.2,0.9-3.4,1.3c-1.2,0.4-2.3,0.9-3.4,1.3c-1.1,0.4-2.3,0.9-3.4,1.5l-22.6-18.5
				L443.79,716.57z M447.58,693.17c-1-1.1-2-1.9-3.2-2.2s-2.6-0.3-4.1,0.1c-1.6,0.4-3.4,1-5.4,1.8c2.5,6.9,5.1,13.7,7.7,20.5
				c0.3-0.1,0.6-0.1,0.9-0.2c0.3-0.1,0.6-0.2,0.8-0.3c3.3-1.3,5.5-3.2,6.6-5.6c1.1-2.5,0.9-5.5-0.5-9.1
				C449.48,695.97,448.58,694.27,447.58,693.17z"/>
			<path style="fill:#FFFFFF;" d="M503.98,657.08c-3,0.2-6,1.4-9.1,3.5c-2,1.4-3.8,3.2-5.2,5.4c-1.4,2.2-2.4,4.8-2.8,7.6
				s-0.2,5.8,0.6,9.1c0.8,3.3,2.4,6.7,4.8,10.2c1.8,2.7,3.9,4.9,6.1,6.7c2.3,1.8,4.7,3,7.2,3.8c2.5,0.7,5.1,0.9,7.7,0.5
				c2.6-0.4,5.2-1.5,7.8-3.3c0.6-0.4,1.2-0.9,1.9-1.4c0.7-0.6,1.3-1.1,2-1.7c0.6-0.6,1.2-1.1,1.7-1.7c0.5-0.5,0.8-1,0.9-1.4
				c-0.3-0.6-0.7-1.3-1.2-2.1s-1.1-1.7-1.8-2.7c-2.4-3.6-4.3-6.2-5.6-7.8c-1.3-1.6-2.2-2.7-2.6-3.3c0.5-0.2,1.1-0.5,1.9-1
				c0.8-0.4,1.9-1.1,3.2-2.1c1.6-1.1,2.8-1.9,3.5-2.5c0.7-0.6,1.3-1.1,1.7-1.5c0.2,0.4,0.5,1,0.9,1.9c0.5,0.8,1,1.8,1.7,2.9
				c0.7,1.1,1.4,2.2,2.2,3.4s1.5,2.3,2.3,3.4l1.5,2.2c0.8,1.1,1.5,2.1,2.1,3.1c0.7,0.9,1.2,1.6,1.5,1.9c-2.4,2.8-4.9,5.5-7.6,8.1
				c-2.7,2.5-5.5,4.8-8.4,6.8c-3.8,2.6-7.7,4.5-11.6,5.7c-3.9,1.2-7.7,1.6-11.3,1.3c-3.6-0.4-7.1-1.4-10.2-3.3
				c-3.2-1.8-5.9-4.5-8.2-7.9c-2.9-4.2-4.7-8.4-5.4-12.5c-0.8-4.1-0.6-8.1,0.4-11.9s2.9-7.4,5.5-10.7c2.7-3.4,5.9-6.4,9.9-9
				c3.4-2.3,6.5-3.9,9.5-4.9c2.9-1,6-1.7,9.3-2c0.4,1.4,0.9,2.8,1.3,4.1c0.4,1.3,0.9,2.7,1.5,4l-0.9,0.6
				C509.77,657.28,506.88,656.88,503.98,657.08z"/>
			<path style="fill:#FFFFFF;" d="M559.67,633.98c-1.4,1.5-2.8,3-4.1,4.5c-1.4,1.5-2.7,3.1-4,4.6c-1.3,1.6-2.6,3.2-3.9,4.8l3.4,3
				c3.3,3,6.4,5.5,9,7.8c2.7,2.2,5.3,4.3,8,6.4c-0.7,0.6-1.4,1.3-2.1,2.1c-0.7,0.8-1.5,1.7-2.4,2.7s-1.7,1.9-2.4,2.7
				s-1.3,1.6-1.9,2.3c-2.4-2.4-4.8-4.7-7.3-7.1c-2.5-2.4-5.5-5-8.8-8l-8.2-7.3c-3.3-3-6.4-5.5-9-7.8c-2.7-2.2-5.4-4.4-8.1-6.6
				c0.7-0.6,1.4-1.3,2.2-2c0.8-0.8,1.6-1.6,2.5-2.6c0.9-1,1.7-1.9,2.3-2.8c0.7-0.9,1.2-1.7,1.8-2.4c2.4,2.5,4.9,4.9,7.4,7.3
				c2.5,2.3,5.4,5,8.8,7.9c1-1,2.1-2.2,3.4-3.7c1.3-1.5,2.9-3.3,4.9-5.4c1.9-2.2,3.5-4,4.7-5.3c1.2-1.4,2.3-2.7,3.3-3.9
				c-3.3-3-6.3-5.5-9-7.7c-2.6-2.2-5.3-4.3-8.1-6.5c0.7-0.6,1.4-1.3,2.2-2c0.8-0.8,1.6-1.6,2.5-2.6s1.7-1.9,2.3-2.8
				c0.6-0.9,1.2-1.7,1.8-2.4c2.5,2.5,5,4.9,7.5,7.3c2.5,2.4,5.5,5,8.8,8l8.2,7.3c3.3,3,6.4,5.5,9,7.8c2.7,2.2,5.3,4.3,8,6.4
				c-0.7,0.6-1.4,1.3-2.1,2.1c-0.7,0.8-1.5,1.7-2.4,2.7s-1.7,1.9-2.4,2.7s-1.3,1.6-1.9,2.3c-2.4-2.4-4.8-4.7-7.3-7.1
				c-2.5-2.4-5.5-5-8.8-8l-3.4-3C562.47,630.98,561.07,632.48,559.67,633.98z"/>
		</g>
	</g>
	<path style="fill:#008348;" d="M449.08,434.21c0.9,0.7,1.5,1.7,1.5,2.9c0,2-1.6,3.7-3.7,3.7c-2,0-3.6-1.6-3.6-3.7
		c0-1.2,0.6-2.3,1.5-2.9l0,0c0.6-0.4,1.4-0.7,2.2-0.7S448.48,433.81,449.08,434.21"/>
	<path style="fill:#008348;" d="M435.09,434.21c0.9,0.7,1.5,1.7,1.5,2.9c0,2-1.6,3.7-3.7,3.7c-2,0-3.6-1.6-3.6-3.7
		c0-1.2,0.6-2.3,1.5-2.9l0,0c0.6-0.4,1.4-0.7,2.2-0.7C433.69,433.51,434.49,433.71,435.09,434.21"/>
	<path style="fill:#008348;" d="M421.09,434.21c0.9,0.7,1.5,1.7,1.5,2.9c0,2-1.6,3.7-3.7,3.7c-2,0-3.6-1.6-3.6-3.7
		c0-1.2,0.6-2.3,1.5-2.9l0,0c0.6-0.4,1.4-0.7,2.2-0.7C419.69,433.51,420.49,433.81,421.09,434.21"/>
</g>
</svg>
