<?xml version="1.0" encoding="utf-8"?>
<!-- Generator: Adobe Illustrator 19.1.0, SVG Export Plug-In . SVG Version: 6.00 Build 0)  -->
<svg version="1.1" id="jugarBIEN" xmlns="http://www.w3.org/2000/svg" xmlns:xlink="http://www.w3.org/1999/xlink" x="0px" y="0px"
	 width="640px" height="205.4px" viewBox="214.78 272.97 640 205.4" style="enable-background:new 214.78 272.97 640 205.4;"
	 xml:space="preserve">
<title>logo_JugarBien</title>
<path style="fill:#4C4C4C;" d="M214.78,447.43h2.3c8.19,0,13.79-1.6,16.79-4.8c3-3.2,4.5-10.13,4.49-20.78v-73.5l8.99-1.08v74.51
	c0,12.75-2.1,21.54-6.29,26.37c-4.19,4.83-11.54,7.25-22.04,7.25h-1.54L214.78,447.43z"/>
<path style="fill:#4C4C4C;" d="M314.51,414.4c-2.87,4.43-6.74,8.13-11.29,10.79c-4.37,2.41-9.3,3.65-14.29,3.58
	c-8.71,0-15.48-2.65-20.32-7.95c-4.83-5.3-7.23-12.74-7.19-22.32v-50.15l8.82-1.08v46.86c0,9.12,1.73,15.93,5.18,20.43
	c3.45,4.5,8.64,6.76,15.55,6.76c6.25,0.05,12.24-2.5,16.56-7.02c4.59-4.46,7.13-10.62,7.02-17.02v-48.93l8.82-1.08v79.47l-8.82,1.08
	V414.4H314.51z"/>
<path style="fill:#4C4C4C;" d="M383.45,399.64c5.45,2.3,10.15,6.06,13.59,10.86c3.22,4.6,4.91,10.1,4.83,15.71
	c0.1,8.36-3.66,16.3-10.18,21.52c-6.78,5.81-15.28,8.71-25.51,8.71c-7.01,0.09-13.92-1.62-20.08-4.97
	c-6.2-3.46-11.46-8.39-15.31-14.35l7.98-5.15c2.99,4.84,7.1,8.88,11.99,11.79c4.69,2.7,10.02,4.09,15.43,4.04
	c6.81,0.19,13.47-2.03,18.81-6.26c4.86-3.56,7.74-9.22,7.75-15.25c0.03-6.29-2.82-12.26-7.75-16.18c-5.24-4.45-11.94-6.8-18.81-6.62
	c-3.2,0.02-6.39,0.43-9.49,1.23c-3.6,0.93-7.11,2.18-10.48,3.76l3.76-9.93c-4.46-2.44-8.24-5.96-10.98-10.25
	c-6.73-10.98-4.43-25.23,5.41-33.53c6.35-5.44,14.49-8.32,22.85-8.06c1.34,0,2.82,0.05,4.45,0.15s3.35,0.25,5.15,0.46l1.23,0.12
	c0.41,0,1.05,0,1.92,0c3.19-0.03,6.38-0.33,9.52-0.88c3.53-0.58,8.37-1.65,14.52-3.2l-2,6.06c-0.33,1.32-1.05,2.51-2.07,3.41
	c-1.03,0.65-2.24,0.95-3.46,0.88c-0.87,0-3.23-0.28-7.07-0.84l-1.84-0.23c4.01,2.18,7.38,5.37,9.79,9.26
	c2.25,3.85,3.4,8.25,3.31,12.72c0.07,5.25-1.5,10.39-4.49,14.7C392.97,393.85,388.56,397.42,383.45,399.64z M344.21,374.61
	c-0.07,5.65,2.43,11.03,6.79,14.64c9.87,7.91,23.92,7.91,33.79,0c4.34-3.63,6.81-9.02,6.72-14.67c0-5.44-2.53-10.58-6.84-13.91
	c-4.69-3.89-10.64-5.94-16.74-5.76c-6.11-0.17-12.08,1.86-16.82,5.73C346.75,363.95,344.19,369.13,344.21,374.61z"/>
<path style="fill:#4C4C4C;" d="M460.78,418.85c-2.62,3.08-5.87,5.57-9.52,7.3c-3.63,1.66-7.59,2.5-11.59,2.45
	c-15.91-0.38-28.49-13.58-28.11-29.49c0.37-15.37,12.74-27.74,28.11-28.11c3.93-0.01,7.83,0.78,11.44,2.33
	c3.64,1.57,6.91,3.89,9.6,6.8v-9.93c0-5.43-1.37-9.44-4.11-12.02s-6.98-3.87-12.72-3.87c-3.7,0.04-7.39,0.53-10.98,1.46
	c-4.62,1.21-9.14,2.77-13.51,4.69l3.46-10.22c3.68-1.29,7.46-2.29,11.29-3c3.52-0.65,7.1-0.98,10.68-0.99c8.55,0,14.81,2,18.78,5.99
	c3.96,4,5.95,10.29,5.96,18.89v55.51l-8.82,1.92v-9.75L460.78,418.85z M420.09,399.81c-0.14,5.43,1.99,10.68,5.88,14.47
	c3.96,3.89,9.35,5.99,14.9,5.79c5.4,0.23,10.64-1.81,14.47-5.61c7.33-8.39,7.33-20.91,0-29.31c-3.77-3.81-8.97-5.86-14.32-5.65
	c-5.58-0.2-11,1.88-15.02,5.76c-3.93,3.8-6.08,9.07-5.93,14.54H420.09z"/>
<path style="fill:#4C4C4C;" d="M485.65,427.76v-79.47l8.76-1.08v16.97c2.63-5.52,6.62-10.27,11.59-13.82
	c4.72-3.11,10.27-4.72,15.93-4.6h2.15l-3.61,8.68c-8.91,0.87-15.49,4.76-19.74,11.67c-4.25,6.91-6.37,17.22-6.37,30.94v29.6
	L485.65,427.76z"/>
<path style="fill:#4C4C4C;" d="M534.81,428.3v-82.78h38.41c7.37,0,13.23,1.93,17.58,5.79c4.4,3.98,6.79,9.71,6.52,15.63
	c0.09,3.63-0.84,7.2-2.68,10.33c-2.09,3.23-4.93,5.92-8.28,7.83c3.95,1.62,7.34,4.35,9.75,7.86c5.5,9.38,3.84,21.32-4.02,28.84
	c-4.86,4.33-11.32,6.49-19.4,6.49H534.81z M560.47,393.53v15.6h4.65c2.1,0.13,4.16-0.59,5.71-2c1.44-1.55,2.17-3.62,2.04-5.73
	c0.12-2.12-0.63-4.2-2.07-5.76c-1.52-1.46-3.58-2.22-5.68-2.1L560.47,393.53L560.47,393.53z M560.59,364.2v13.86h4.02
	c1.92,0.08,3.78-0.61,5.18-1.92c1.33-1.3,2.05-3.11,1.99-4.97c0.1-1.88-0.58-3.71-1.89-5.07c-1.43-1.3-3.33-1.97-5.27-1.85h-4.02
	L560.59,364.2z"/>
<path style="fill:#4C4C4C;" d="M607.46,429.96v-83.11l26.19-1.8v82.6L607.46,429.96z"/>
<path style="fill:#4C4C4C;" d="M645.29,428.3v-82.78h45.93l4.97,22.05h-24.65v7.75h15.6v21.42h-15.6v8.28h26.14l-5.13,23.28H645.29z
	"/>
<path style="fill:#4C4C4C;" d="M755.18,384.31L755.18,384.31L755.18,384.31c-12.4-9.59-20.94-23.3-24.07-38.66h-25.28v84.06
	l25.32-1.8v-39.34l24.04,39.74h25.32v-31.99C771.29,394.2,762.65,390.1,755.18,384.31z"/>
<circle style="fill:#E4C80C;" cx="795.18" cy="332.57" r="59.6"/>
<rect x="115" y="99.8" style="fill:none;" width="841.92" height="595.2"/>
<g id="Forma_2">
	<circle style="fill:#FFFFFF;" cx="759.98" cy="344.96" r="3.34"/>
</g>
<path style="fill:#FFFFFF;" d="M794.87,344.56c-1.77,1.35-3.74,2.43-5.83,3.21c-1.91,0.68-3.93,1.03-5.96,1.03
	c-4.21,0.12-8.28-1.49-11.26-4.47c-2.97-2.92-4.59-6.94-4.49-11.11c-0.11-4.15,1.53-8.16,4.5-11.06c2.99-2.94,7.05-4.54,11.24-4.42
	c2.6-0.06,5.16,0.58,7.43,1.84c2.14,1.24,3.87,3.08,4.97,5.3l-23.31,13.76c1.01,2.04,2.57,3.76,4.5,4.97
	c1.93,1.17,4.15,1.77,6.41,1.74c1.92-0.01,3.82-0.41,5.58-1.18c2.22-1.02,4.3-2.33,6.19-3.89v4.27L794.87,344.56z M770.97,335.8
	l19.62-11.59c-0.84-1.03-1.93-1.84-3.16-2.33c-1.39-0.54-2.87-0.81-4.35-0.78c-3.25-0.06-6.39,1.21-8.68,3.53
	c-2.33,2.26-3.61,5.39-3.54,8.64c0,0.54,0,1.01,0,1.41C770.86,335.07,770.9,335.45,770.97,335.8z"/>
<path style="fill:#FFFFFF;" d="M800.26,344.33l2.5-2.38c0.98,1.15,2.19,2.09,3.54,2.76c1.29,0.62,2.71,0.94,4.14,0.93
	c1.64,0.06,3.24-0.49,4.5-1.54c1.15-1,1.79-2.47,1.74-3.99c0.07-1.27-0.39-2.51-1.27-3.43c-1.33-1.06-2.9-1.77-4.57-2.07
	c-2.77-0.49-5.38-1.63-7.63-3.31c-1.4-1.39-2.15-3.31-2.04-5.28c-0.03-2.31,0.99-4.5,2.76-5.98c1.95-1.66,4.46-2.53,7.02-2.43
	c3.28-0.04,6.45,1.14,8.91,3.31l-2.14,2.76c-1.02-0.91-2.18-1.66-3.43-2.22c-1.08-0.49-2.24-0.75-3.43-0.76
	c-1.62-0.08-3.22,0.42-4.5,1.42c-1.1,0.93-1.72,2.32-1.66,3.76c0,2.35,2.05,4.01,6.14,4.97c0.85,0.2,1.49,0.36,1.92,0.5
	c2.15,0.5,4.11,1.59,5.68,3.15c1.27,1.4,1.94,3.23,1.89,5.12c0.05,2.52-1,4.94-2.88,6.62c-1.98,1.79-4.58,2.74-7.25,2.65
	c-1.93,0.03-3.84-0.37-5.6-1.18C802.93,346.93,801.44,345.77,800.26,344.33z"/>
<path style="fill:#E4C80C;" d="M417.06,450.16c-0.43,0.17-0.89,0.27-1.36,0.28c-0.42-0.1-0.81-0.33-1.11-0.65
	c-0.51-0.13-0.83-0.65-0.7-1.16c0.05-0.19,0.15-0.36,0.3-0.49c0.11-0.22,0.28-0.4,0.5-0.51c0.47,0.01,0.94,0.1,1.39,0.25
	c0.45,0.03,0.84,0.33,0.98,0.76v1.57L417.06,450.16z M418.17,477.15c0,0.35-0.17,0.68-0.46,0.88c-0.28,0.22-0.63,0.34-0.99,0.35
	c-0.44-0.05-0.85-0.24-1.18-0.53c-0.37-0.23-0.66-0.58-0.83-0.98c-0.48-1.82-0.72-3.69-0.73-5.56v-5.75
	c-0.2-2.79,0.38-5.58,1.66-8.06h0.25c0.51-0.01,1.02,0.1,1.49,0.31c0.49,0.15,0.84,0.59,0.86,1.11c-0.06,0.86-0.25,1.71-0.55,2.52
	c-0.3,0.83-0.49,1.7-0.55,2.58c0,3.25,0.03,5.62,0.1,7.12c0.09,1.01,0.27,2.02,0.53,3c0.27,0.98,0.43,1.98,0.48,3L418.17,477.15z"/>
<path style="fill:#E4C80C;" d="M437.37,459.02c0.02,2.34-0.63,4.64-1.87,6.62c-1.07,2.09-3.21,3.43-5.56,3.48h-2.25
	c-0.79-0.26-1.52-0.64-2.19-1.14c-2.64-1.69-3.96-4.72-3.96-9.11c0-1.79,1.03-2.68,3.1-2.68c0.22,0.06,0.41,0.21,0.51,0.41
	c0.16,0.18,0.27,0.39,0.31,0.63c-0.02,0.44-0.1,0.87-0.23,1.29c-0.13,0.42-0.21,0.85-0.23,1.29c0.04,1.46,0.39,2.89,1.01,4.21
	c0.82,1.83,1.77,2.75,2.85,2.75c0.08-0.01,0.15,0.02,0.2,0.08c0.03,0.05,0.09,0.08,0.15,0.08c1.07-0.28,1.98-1,2.5-1.97
	c0.72-0.86,1.28-1.85,1.66-2.91c0.34-1.25,0.51-2.54,0.51-3.84c-0.02-0.4-0.08-0.79-0.18-1.18c-0.09-0.36-0.18-0.76-0.28-1.18
	c0.39-0.33,0.86-0.54,1.36-0.63c0.08-0.02,0.16-0.02,0.23,0c0.07,0.02,0.13,0.02,0.2,0v-0.17h0.1
	C436.68,455.1,437.37,456.42,437.37,459.02z"/>
<path style="fill:#E4C80C;" d="M453.75,473.93c0.16,1.26-0.34,2.51-1.32,3.31c-1.1,0.57-2.34,0.82-3.58,0.73
	c-0.42,0-1.84-0.2-4.27-0.6v-1.14c0.17,0,1.16,0,3,0c0.57-0.05,1.12-0.17,1.66-0.36c0.49-0.07,0.94-0.3,1.29-0.65
	c0.15-0.61,0.21-1.24,0.18-1.87c-0.39-0.99-0.64-2.03-0.73-3.1c-0.09-1.08-0.35-2.13-0.76-3.13c-0.94,1.09-2.32,1.7-3.76,1.66
	c-1.33-0.04-2.59-0.58-3.54-1.51c-1.01-0.81-1.62-2.02-1.66-3.31c0.04-1.4,0.33-2.78,0.86-4.07c0.38-1.32,1.18-2.48,2.27-3.31
	c1.11-0.37,2.28-0.52,3.44-0.41c0.65,0.08,1.28,0.29,1.85,0.6c0.61,0.23,1.17,0.57,1.66,1.01c0.57,0.84,0.84,1.84,0.76,2.85v0.6
	c0.55,0.34,0.91,0.92,0.98,1.57c0,0.25,0.04,0.91,0.13,1.95c0,0.67,0.04,1.69,0.13,3.06c0.1,0.85,0.29,1.69,0.56,2.5
	c0.27,0.8,0.45,1.63,0.56,2.47c0.02,0.22,0.05,0.44,0.1,0.66C453.59,473.62,453.65,473.79,453.75,473.93z M448.4,463.22
	c-0.02-0.25-0.09-0.49-0.2-0.71c-0.11-0.22-0.18-0.46-0.2-0.71c0.02-0.27,0.09-0.53,0.2-0.78c0.11-0.25,0.18-0.51,0.2-0.78
	c-0.07-0.5-0.39-0.94-0.84-1.16c-0.42-0.33-0.94-0.53-1.47-0.58c-0.86,0-1.68,0.78-2.47,2.33c-0.62,1.09-0.97,2.3-1.04,3.54
	c0.06,0.53,0.35,1,0.79,1.29c0.39,0.38,0.91,0.62,1.46,0.66c0.84-0.11,1.63-0.49,2.24-1.09c0.71-0.45,1.2-1.19,1.32-2.02H448.4z"/>
<path style="fill:#E4C80C;" d="M473.25,468.21c0,1.18-0.8,1.77-2.4,1.77c-0.16-0.04-0.3-0.12-0.41-0.25l-0.28-0.25
	c-0.63-0.38-1.22-0.83-1.77-1.32l-1.11-1.66l-2.65,1.66c-0.91,0.49-1.92,0.75-2.95,0.76c-0.18-0.01-0.36-0.06-0.53-0.13
	c-0.17-0.07-0.35-0.12-0.53-0.13h-0.33h-0.33c-1.42-0.03-2.72-0.81-3.41-2.05c-0.81-1.16-1.25-2.54-1.26-3.96
	c0-3.64,1.54-5.74,4.62-6.29c1.03-0.51,2.17-0.72,3.31-0.63c1.13,0.01,2.24,0.2,3.31,0.56c1.11,0.22,2.05,0.96,2.53,1.99
	c0.17,0.59,0.26,1.2,0.28,1.82c0.03,0.65,0.1,1.3,0.22,1.94c0.19,0.96,0.46,1.9,0.79,2.81c0.53,1.51,0.95,2.26,1.26,2.25h0.23h0.23
	c0.29,0.06,0.53,0.24,0.7,0.48C472.99,467.74,473.16,467.95,473.25,468.21z M465.82,458.72c-0.05-0.12-0.1-0.24-0.17-0.35
	c-1.18-0.22-2.39-0.33-3.59-0.31c-0.91,0.09-1.74,0.57-2.27,1.31c-0.67,0.64-1.08,1.5-1.16,2.42c0,3.31,1.03,4.97,3.08,4.97
	c0.54-0.1,1.04-0.34,1.46-0.7c0.47-0.29,0.9-0.64,1.27-1.04c0.65-0.8,1.03-1.79,1.08-2.81c0-0.44,0-1.47,0-3.1
	c0.18-0.04,0.3-0.21,0.28-0.4L465.82,458.72z"/>
<path style="fill:#E4C80C;" d="M489.1,455.72c-1.74,0.19-3.38,0.95-4.65,2.15c-1.34,1.14-2.46,2.51-3.31,4.04
	c-0.32,0.65-0.55,1.34-0.7,2.05c-0.12,0.71-0.28,1.42-0.48,2.12c-0.17,0.76-0.29,1.31-0.38,1.66c-0.04,0.58-0.5,1.04-1.08,1.08
	c-0.6-0.03-1.18-0.24-1.66-0.61c-0.5-0.27-0.84-0.77-0.88-1.34c0-0.12,0-1.14,0-3.06c0.09-0.92,0.09-1.86,0-2.78
	c0-0.21,0.04-0.8,0.13-1.77c-0.05-0.53,0.34-1,0.87-1.04c0.06-0.01,0.12-0.01,0.17,0c0.36,0.03,0.71,0.12,1.03,0.28
	c0.32,0.12,0.61,0.31,0.84,0.56c0.7-0.81,1.46-1.56,2.27-2.25l0.31,0.13c0.04-0.36,0.19-0.69,0.45-0.94c0,0,0.36-0.25,0.98-0.63
	c0.43-0.33,0.91-0.57,1.42-0.73c0.04-0.02,0.09-0.02,0.13,0c0.04,0.02,0.09,0.02,0.13,0c0.15-0.03,0.28-0.12,0.36-0.25
	c0.09-0.13,0.22-0.21,0.36-0.25c0.06,0,0.12,0.05,0.12,0.12l0,0c0.01,0.07,0.07,0.12,0.15,0.12c0,0,0,0,0,0h0.13v-0.1h0.13
	c0.76-0.04,1.52,0.05,2.25,0.28c0.16,0.21,0.35,0.38,0.56,0.53C488.82,455.32,488.93,455.54,489.1,455.72z"/>
<path style="fill:#E4C80C;" d="M509.89,456.8c0.06,0.55-0.34,1.03-0.89,1.09c-0.1,0.01-0.19,0.01-0.29-0.01
	c-0.57-0.04-1.12-0.15-1.66-0.35c-0.53-0.19-1.09-0.31-1.66-0.35c-1.69-0.17-3.27,0.85-3.82,2.45c-0.34,0.79-0.59,1.61-0.76,2.45
	c-0.01,1.46,0.75,2.82,1.99,3.59c1.19,0.84,2.62,1.27,4.07,1.24c0.11,0,0.23-0.03,0.33-0.08c0.09-0.05,0.19-0.08,0.3-0.08
	c0.31,0.04,0.6,0.17,0.83,0.38c0.26,0.16,0.44,0.43,0.48,0.73c0,0.61-0.44,0.91-1.32,0.91c-0.15,0.03-0.29,0.09-0.41,0.18
	c-0.13,0.09-0.29,0.15-0.45,0.17c-1.37-0.06-2.71-0.42-3.92-1.04c-1.27-0.49-2.36-1.34-3.16-2.43c-0.29-0.61-0.74-1.46-1.36-2.57
	c-0.01-0.18-0.06-0.36-0.13-0.53c-0.08-0.18-0.12-0.38-0.13-0.58c-0.09-1.68,0.37-3.34,1.32-4.72c1.04-1.33,2.67-2.05,4.35-1.94
	c0.32-0.01,0.64-0.05,0.96-0.12c0.32-0.07,0.64-0.1,0.96-0.12c0.89,0.02,1.77,0.17,2.62,0.45
	C509.31,455.84,509.89,456.27,509.89,456.8z"/>
<path style="fill:#E4C80C;" d="M527.87,461.76c-0.1,1.99-1.11,3.82-2.73,4.97c-1.47,1.39-3.39,2.21-5.41,2.3h-1.08
	c-1.75-0.01-3.41-0.78-4.55-2.1c-1.26-1.23-1.97-2.91-1.99-4.67c0.12-0.49,0.27-0.98,0.45-1.46c-0.01-0.19-0.01-0.38,0-0.56
	c0.16-1.11,0.63-2.15,1.36-3c0.47-0.96,1.33-1.66,2.37-1.92c0.24,0.05,0.46,0.18,0.63,0.36c0.18,0.2,0.43,0.33,0.7,0.36
	c0.33-0.04,0.65-0.17,0.93-0.36c0.23-0.17,0.5-0.29,0.78-0.36c0.76-0.06,1.53,0.04,2.25,0.28l0.48,0.31
	c0.13-0.01,0.25-0.05,0.36-0.12c0.11-0.07,0.24-0.11,0.36-0.12l1.04,0.6C526.52,457.92,527.87,459.74,527.87,461.76z M524.56,461.35
	c0-1.05-0.43-2.06-1.18-2.8c-0.7-0.79-1.7-1.24-2.75-1.24c-0.54-0.02-1.07,0.18-1.46,0.56l-0.76,0.76l-2.12,0.83
	c-0.54,0.59-0.79,1.39-0.66,2.19c0,3.39,0.87,5.08,2.62,5.08c1.54-0.06,3.02-0.64,4.19-1.66c1.21-0.84,1.97-2.19,2.05-3.66
	L524.56,461.35z"/>
<path style="fill:#E4C80C;" d="M543.45,461.6c0.04,1.57-0.23,3.13-0.79,4.59c-0.09,0.44-0.24,1.11-0.45,2.02
	c0.02,0.63-0.4,1.2-1.01,1.36c-0.17-0.04-0.31-0.15-0.4-0.3c-0.08-0.14-0.21-0.25-0.36-0.3c-0.05-0.02-0.1-0.02-0.15,0
	c-0.04,0.01-0.08,0.01-0.12,0c-0.18-0.08-0.31-0.25-0.33-0.45c-0.02-0.21-0.17-0.38-0.36-0.45h-0.25c0.55-2.24,0.82-4.53,0.79-6.84
	c0-1.89-0.25-2.99-0.76-3.31c-1.03,0.22-1.95,0.81-2.57,1.66c-0.75,0.72-1.37,1.55-1.85,2.47c-0.41,0.93-0.72,1.89-0.93,2.88
	c-0.44,1.85-0.67,2.84-0.7,2.96c-0.06,0.56-0.52,0.99-1.08,1.01c-0.6-0.03-1.18-0.24-1.66-0.61c-0.52-0.28-0.86-0.81-0.88-1.41
	c-0.16-3.24,0.02-6.5,0.53-9.7c0.32-0.5,0.91-0.75,1.49-0.63c0.5,0,0.96,0.23,1.27,0.61c0.36,0.35,0.58,0.81,0.61,1.31
	c0.32-0.32,0.82-0.78,1.49-1.39c0.43-0.48,1.02-0.8,1.66-0.91h0.13l0,0h0.1c0.15-0.06,0.28-0.15,0.38-0.26
	c0.11-0.13,0.27-0.21,0.45-0.23c0.64-0.06,1.28,0.03,1.87,0.28c0.09,0.16,0.24,0.27,0.41,0.31h0.17l0,0h0.13
	c1.11,0.13,2.03,0.91,2.33,1.99C543.17,459.29,543.45,460.44,543.45,461.6z"/>
<path style="fill:#E4C80C;" d="M568.55,455.72c-1.74,0.19-3.38,0.95-4.65,2.15c-1.34,1.14-2.46,2.51-3.31,4.04
	c-0.32,0.65-0.55,1.34-0.7,2.05c-0.23,1.16-0.39,1.87-0.48,2.12c-0.17,0.76-0.29,1.31-0.38,1.66c-0.04,0.58-0.5,1.04-1.08,1.08
	c-0.6-0.03-1.18-0.24-1.66-0.61c-0.5-0.27-0.84-0.77-0.88-1.34c0-0.12,0-1.14,0-3.06c0.09-0.92,0.09-1.86,0-2.78
	c0-0.21,0.04-0.8,0.13-1.77c-0.05-0.53,0.34-1,0.87-1.04c0.06-0.01,0.12-0.01,0.17,0c0.36,0.03,0.71,0.12,1.03,0.28
	c0.32,0.12,0.61,0.31,0.84,0.56c0.69-0.81,1.44-1.56,2.25-2.25l0.31,0.13c0.04-0.35,0.2-0.69,0.45-0.94c0,0,0.36-0.25,0.98-0.63
	c0.43-0.33,0.91-0.57,1.42-0.73c0.04-0.02,0.09-0.02,0.13,0c0.04,0.02,0.09,0.02,0.13,0c0.15-0.03,0.28-0.12,0.36-0.25
	c0.09-0.13,0.22-0.21,0.36-0.25c0.06,0,0.12,0.05,0.12,0.12l0,0c0.01,0.07,0.07,0.12,0.15,0.12c0,0,0,0,0,0h0.13v-0.1h0.13
	c0.77-0.05,1.54,0.05,2.27,0.28c0.16,0.21,0.35,0.38,0.56,0.53C568.27,455.32,568.38,455.54,568.55,455.72z"/>
<path style="fill:#E4C80C;" d="M582.43,459.2c0,1.25-0.94,2.5-2.81,3.76c-1.34,0.98-2.93,1.56-4.59,1.66l-2.53-0.35l0,0v0.22
	c0.12,0.67,0.49,1.26,1.04,1.66c0.79,0.69,1.77,1.12,2.81,1.24c0.7,0.07,1.75,0.2,3.16,0.41c1.26,0.22,1.94,0.31,2.05,0.31v1.04
	c-0.8,0.02-1.59,0.09-2.38,0.2c-0.79,0.11-1.59,0.18-2.38,0.2c-1.88-0.04-3.69-0.74-5.12-1.97c-1.57-1.06-2.55-2.79-2.65-4.69
	c0.07-1.45,0.6-2.84,1.51-3.97c0.81-1.23,1.96-2.21,3.31-2.8c1.15-0.43,2.38-0.64,3.61-0.63c0.11,0.01,0.22,0.04,0.31,0.1
	c0.11,0.06,0.23,0.09,0.35,0.1h0.23c0.09-0.02,0.18-0.02,0.26,0c0.44,0.15,0.86,0.35,1.26,0.6c0.64,0.31,1.26,0.67,1.84,1.08
	C582.22,457.84,582.48,458.51,582.43,459.2z M579.33,458.9c0-0.55-0.6-0.83-1.8-0.83c-1.1,0.05-2.14,0.5-2.93,1.26
	c-0.88,0.7-1.55,1.64-1.92,2.7h0.63h0.91c0.3-0.02,0.61-0.02,0.91,0c0.93-0.16,1.8-0.55,2.53-1.14c0.81-0.39,1.42-1.12,1.66-1.99
	H579.33z"/>
<path style="fill:#E4C80C;" d="M594.83,455.92c0.06,0.46-0.26,0.89-0.73,0.95c-0.08,0.01-0.17,0.01-0.25,0
	c-0.5-0.03-0.99-0.1-1.47-0.22c-0.48-0.11-0.98-0.18-1.47-0.2c-0.81-0.07-1.62,0.17-2.27,0.66c0,0.42,0,0.73,0,0.94
	c0.04,1.43,0.5,2.82,1.32,3.99c0.76,1.06,1.59,2.07,2.5,3.01c0.63,0.54,1.09,1.26,1.32,2.05c0,1.39-1.97,2.09-5.91,2.09
	c-0.53-0.06-1.04-0.22-1.51-0.46c-0.5-0.19-0.96-0.45-1.37-0.78v-0.41c0.77-0.16,1.55-0.27,2.33-0.31c0.56,0,1.11-0.08,1.66-0.22
	c0.52,0.02,1-0.3,1.18-0.79c-0.29-0.69-0.72-1.32-1.26-1.84c-0.86-1.03-1.62-2.14-2.27-3.31c-0.81-1.47-1.24-3.12-1.26-4.8
	c0.02-0.64,0.46-1.19,1.08-1.36l1.84-0.56l0.25,0.25c0.95-0.3,1.95-0.42,2.95-0.35c0.68,0.03,1.36,0.18,1.99,0.45
	C594.12,454.82,594.64,455.29,594.83,455.92z"/>
<path style="fill:#E4C80C;" d="M613.09,459.13c0,5.44-3.38,8.84-10.15,10.18c-0.37,2.58-0.54,5.18-0.53,7.78
	c-0.08,0.42-0.29,0.81-0.6,1.11h-0.48c-1.01,0-1.99-0.4-2.72-1.11v-3.66c0-0.97,0.22-3.95,0.66-8.94c0.09-1.58,0.17-3.17,0.25-4.77
	c0.3-2.55,0.88-3.82,1.74-3.82c0.27,0.04,0.53,0.14,0.76,0.3c0.23,0.16,0.49,0.26,0.76,0.3c0.33-0.27,0.63-0.56,0.91-0.88
	c1.33-1.01,3-1.46,4.65-1.26c0.12,0.04,0.22,0.12,0.28,0.23c0.07,0.12,0.18,0.2,0.31,0.23c0.15-0.02,0.29-0.1,0.38-0.22l0.25,0.25
	c0.92,0.32,1.72,0.89,2.32,1.66C612.6,457.22,613.02,458.15,613.09,459.13z M609.78,459.13c-0.03-0.52-0.19-1.03-0.48-1.47
	c-0.19-0.46-0.62-0.77-1.11-0.81c-2.31,0-3.77,2.03-4.4,6.08l-0.56,3.96c0.12-0.04,0.26-0.01,0.35,0.08
	c0.04,0.07,0.1,0.12,0.18,0.15c0.55-0.56,1.24-0.97,1.99-1.21c0.29-0.16,0.54-0.39,0.73-0.66c1.21-1.39,1.97-2.31,2.27-2.75
	c0.69-1,1.05-2.19,1.04-3.41V459.13z"/>
<path style="fill:#E4C80C;" d="M631.62,461.76c-0.1,1.99-1.11,3.82-2.73,4.97c-1.47,1.39-3.39,2.21-5.41,2.3h-1.11
	c-1.75-0.01-3.41-0.78-4.55-2.1c-1.26-1.23-1.97-2.91-1.99-4.67c0,0,0.15-0.56,0.45-1.46c-0.01-0.19-0.01-0.38,0-0.56
	c0.16-1.11,0.63-2.15,1.36-3c0.47-0.96,1.33-1.66,2.37-1.92c0.24,0.05,0.46,0.18,0.63,0.36c0.18,0.2,0.43,0.33,0.7,0.36
	c0.33-0.04,0.65-0.17,0.93-0.36c0.23-0.17,0.5-0.29,0.78-0.36c0.77-0.06,1.54,0.04,2.27,0.28l0.48,0.31
	c0.13-0.01,0.25-0.05,0.36-0.12c0.11-0.07,0.24-0.11,0.36-0.12l1.04,0.6C630.26,457.92,631.62,459.74,631.62,461.76z M628.31,461.35
	c0-1.05-0.43-2.06-1.18-2.8c-0.7-0.79-1.7-1.24-2.75-1.24c-0.54-0.02-1.07,0.18-1.46,0.56l-0.76,0.76l-2.12,0.83
	c-0.54,0.59-0.79,1.39-0.66,2.19c0,3.39,0.87,5.08,2.6,5.08c1.54-0.06,3.02-0.64,4.19-1.66c1.22-0.84,1.98-2.19,2.07-3.66
	L628.31,461.35z"/>
<path style="fill:#E4C80C;" d="M647.2,461.6c0.04,1.57-0.23,3.13-0.79,4.59c-0.09,0.44-0.24,1.11-0.45,2.02
	c0.02,0.63-0.4,1.2-1.01,1.36c-0.17-0.04-0.31-0.15-0.4-0.3c-0.08-0.14-0.21-0.25-0.36-0.3c-0.05-0.02-0.1-0.02-0.15,0
	c-0.04,0.01-0.08,0.01-0.12,0c-0.18-0.08-0.31-0.25-0.33-0.45c-0.02-0.21-0.17-0.38-0.36-0.45h-0.25c0.55-2.24,0.82-4.53,0.79-6.84
	c0-1.89-0.25-2.99-0.76-3.31c-1.03,0.22-1.95,0.81-2.57,1.66c-0.75,0.72-1.37,1.55-1.85,2.47c-0.41,0.93-0.72,1.89-0.93,2.88
	c-0.44,1.85-0.67,2.84-0.7,2.96c-0.06,0.56-0.52,0.99-1.08,1.01c-0.6-0.03-1.18-0.24-1.66-0.61c-0.52-0.28-0.84-0.82-0.86-1.41
	c-0.17-3.24,0.01-6.49,0.51-9.7c0.32-0.5,0.91-0.75,1.49-0.63c0.5,0,0.96,0.23,1.27,0.61c0.36,0.35,0.58,0.81,0.61,1.31
	c0.32-0.32,0.82-0.78,1.49-1.39c0.43-0.48,1.02-0.8,1.66-0.91h0.13l0,0h0.1c0.15-0.06,0.28-0.15,0.38-0.26
	c0.11-0.13,0.27-0.21,0.45-0.23c0.64-0.06,1.28,0.03,1.87,0.28c0.09,0.16,0.24,0.27,0.41,0.31h0.17l0,0h0.13
	c1.11,0.13,2.03,0.91,2.33,1.99C646.91,459.29,647.19,460.44,647.2,461.6z"/>
<path style="fill:#E4C80C;" d="M660.19,455.92c0.06,0.46-0.26,0.89-0.73,0.95c-0.08,0.01-0.17,0.01-0.25,0
	c-0.5-0.03-0.99-0.1-1.47-0.22c-0.48-0.12-0.98-0.19-1.47-0.22c-0.81-0.07-1.62,0.17-2.27,0.66c0,0.42,0,0.73,0,0.94
	c0.04,1.43,0.5,2.82,1.32,3.99c0.76,1.06,1.59,2.07,2.5,3.01c0.63,0.54,1.09,1.26,1.32,2.05c0,1.39-1.97,2.09-5.91,2.09
	c-0.53-0.06-1.04-0.22-1.51-0.46c-0.5-0.19-0.96-0.45-1.37-0.78v-0.41c0.77-0.16,1.55-0.27,2.33-0.31c0.56,0,1.11-0.08,1.66-0.22
	c0.52,0.02,1-0.3,1.18-0.79c-0.29-0.69-0.72-1.32-1.26-1.84c-0.86-1.03-1.62-2.14-2.27-3.31c-0.81-1.47-1.24-3.12-1.26-4.8
	c0.02-0.64,0.46-1.19,1.08-1.36l1.84-0.56l0.25,0.25c0.95-0.3,1.95-0.42,2.95-0.35c0.68,0.03,1.36,0.18,1.99,0.45
	C659.49,454.8,660.01,455.28,660.19,455.92z"/>
<path style="fill:#E4C80C;" d="M679.85,468.21c0,1.18-0.8,1.77-2.4,1.77c-0.18-0.04-0.33-0.14-0.45-0.28l-0.28-0.25
	c-0.63-0.38-1.22-0.83-1.77-1.32l-1.11-1.66l-2.65,1.66c-0.91,0.49-1.93,0.75-2.96,0.76c-0.18-0.02-0.35-0.06-0.51-0.13
	c-0.17-0.07-0.35-0.12-0.53-0.13h-0.33h-0.33c-1.42-0.03-2.72-0.81-3.41-2.05c-0.81-1.16-1.25-2.54-1.26-3.96
	c0-3.64,1.54-5.74,4.62-6.29c1.03-0.51,2.17-0.72,3.31-0.63c1.13,0.01,2.24,0.2,3.31,0.56c1.11,0.22,2.05,0.96,2.53,1.99
	c0.17,0.59,0.26,1.2,0.28,1.82c0.03,0.65,0.1,1.3,0.22,1.94c0.19,0.96,0.46,1.9,0.79,2.81c0.53,1.51,0.95,2.26,1.26,2.25h0.23h0.23
	c0.29,0.06,0.54,0.23,0.7,0.48C679.57,467.71,679.75,467.94,679.85,468.21z M672.41,458.72c-0.05-0.12-0.1-0.24-0.17-0.35
	c-1.18-0.22-2.39-0.33-3.59-0.31c-0.91,0.09-1.74,0.57-2.27,1.31c-0.67,0.64-1.08,1.5-1.16,2.42c0,3.31,1.03,4.97,3.08,4.97
	c0.54-0.1,1.04-0.34,1.46-0.7c0.47-0.29,0.9-0.64,1.27-1.04c0.65-0.8,1.03-1.79,1.08-2.81c0-0.44,0-1.47,0-3.1
	c0.18-0.04,0.3-0.21,0.28-0.4L672.41,458.72z"/>
<path style="fill:#E4C80C;" d="M698.03,460.03c-0.11,0.75-0.26,1.49-0.45,2.22c-0.37,0.61-0.63,1.27-0.76,1.97
	c-0.13,0.74-0.46,1.43-0.94,2c-0.88,0.8-1.9,1.44-3,1.9c-1.07,0.53-2.25,0.83-3.44,0.88c-2.13,0-3.2-0.82-3.2-2.47v-0.25
	c0.39,0.18,0.79,0.33,1.21,0.45h1.32h1.32c0.2-0.01,0.4-0.09,0.56-0.22c1.24-0.71,2.36-1.61,3.31-2.67
	c0.75-1.21,1.11-2.63,1.01-4.06c-0.04-0.6-0.34-1.15-0.81-1.52c-0.43-0.46-1.02-0.74-1.66-0.76c-1.41,0-2.79,1.41-4.14,4.22
	c-0.12,0.3-0.32,0.76-0.6,1.37c-0.2,0.47-0.66,0.77-1.18,0.76c-0.5-0.09-0.97-0.29-1.37-0.6c-0.44-0.16-0.79-0.51-0.96-0.94
	c0-1.85,0.04-4.1,0.13-6.74c0.12-2.14,0.41-4.26,0.84-6.36c0.02-0.21,0.02-0.42,0-0.63v-1.42c0-1.6,0.44-2.4,1.31-2.4
	c0.53,0,1.05,0.09,1.54,0.28c0.51,0.1,0.9,0.52,0.94,1.04c-0.02,0.66-0.12,1.32-0.31,1.95c-0.29,1.1-0.45,1.76-0.5,1.95
	c-0.34,2.05-0.52,4.12-0.53,6.19l0.22,0.22c1.53-0.59,3.14-0.95,4.77-1.08c1.3,0.12,2.52,0.71,3.43,1.66
	C697.14,457.69,697.84,458.79,698.03,460.03z"/>
<path style="fill:#E4C80C;" d="M704.32,458.7c0,0.28,0,0.67,0,1.19c0,0.51,0,0.89,0,1.13c0,0.61,0,1.32,0,2.15v2.19
	c0.1,1.17-0.1,2.34-0.56,3.41c-0.15,0.02-0.29,0.06-0.41,0.13c-0.14,0.08-0.3,0.12-0.46,0.13c-0.19,0.03-0.39-0.01-0.56-0.1
	l-0.28-0.48l-0.1,0.35c-0.94-1.48-1.43-3.21-1.41-4.97v-3.69c-0.03-0.7,0.01-1.4,0.1-2.09c0.07-0.72,0.67-1.26,1.39-1.26
	c0.59,0,1.17,0.17,1.66,0.5C704.11,457.63,704.35,458.15,704.32,458.7z M705.89,448.93c0.04,0.54-0.35,1.01-0.89,1.05
	c-0.08,0.01-0.17,0-0.25-0.01c-0.82-0.14-1.58-0.52-2.19-1.09c-0.7-0.38-1.21-1.02-1.42-1.79c0.02-0.25,0.11-0.49,0.25-0.7
	c0.69,0.14,1.39,0.23,2.09,0.28C704.49,447.17,705.33,447.96,705.89,448.93z"/>
<path style="fill:#E4C80C;" d="M713.11,447.66c0,1.94-0.15,4.85-0.46,8.71c-0.31,3.86-0.46,6.77-0.46,8.71
	c0,2.64-0.43,3.96-1.29,3.96c-0.66-0.34-1.3-0.72-1.92-1.14c-0.27-0.85-0.39-1.73-0.35-2.62c0-1.64,0.13-4.1,0.38-7.37
	c0.25-3.27,0.38-5.72,0.38-7.37v-3.69c0.29-0.55,0.87-0.89,1.49-0.88c0.53,0.01,1.05,0.17,1.49,0.46
	C712.82,446.67,713.11,447.14,713.11,447.66z"/>
<path style="fill:#E4C80C;" d="M719.86,458.7c0,0.28,0,0.67,0,1.19c0,0.52,0,0.89,0,1.13c0,0.61,0,1.32,0,2.15v2.19
	c0.1,1.17-0.1,2.34-0.56,3.41c-0.15,0.02-0.29,0.06-0.41,0.13c-0.14,0.08-0.3,0.12-0.46,0.13c-0.19,0.03-0.39-0.01-0.56-0.1
	l-0.28-0.48l-0.1,0.35c-0.94-1.48-1.43-3.21-1.41-4.97v-3.69c-0.03-0.7,0.01-1.4,0.1-2.09c0.07-0.72,0.67-1.26,1.39-1.26
	c0.59,0,1.17,0.17,1.66,0.5C719.65,457.63,719.9,458.15,719.86,458.7z M721.44,448.93c0.04,0.54-0.35,1.01-0.89,1.05
	c-0.08,0.01-0.17,0-0.25-0.01c-0.82-0.14-1.58-0.52-2.19-1.09c-0.7-0.38-1.21-1.02-1.42-1.79c0.02-0.25,0.11-0.49,0.25-0.7
	c0.69,0.14,1.39,0.23,2.09,0.28c1.01,0.49,1.84,1.28,2.4,2.25H721.44z"/>
<path style="fill:#E4C80C;" d="M741.57,451.75c-0.12,3.59-1.08,7.1-2.78,10.27c-0.95,1.7-2.22,3.22-3.73,4.45
	c-1.31,1.41-3.06,2.33-4.97,2.62h-2.02c-0.28-0.09-0.53-0.23-0.76-0.41c-0.85-0.53-1.66-1.13-2.4-1.8c-0.71-0.75-1.1-1.75-1.08-2.78
	c0.2-1.55,0.77-3.02,1.66-4.3c1.1-2,2.14-2.97,3.1-2.91c0.54-0.45,1.13-0.83,1.77-1.11c0.6-0.34,1.24-0.58,1.92-0.7h0.1v0.13h0.1
	c0.27-0.01,0.53-0.05,0.79-0.12c0.26-0.07,0.53-0.11,0.79-0.12c0.62,0.01,1.23,0.13,1.8,0.35c0.59,0.15,1.08,0.54,1.36,1.08
	c0.6-1.32,1.03-2.71,1.29-4.14c0.12-1.43,0.17-2.87,0.13-4.3c0.05-0.82-0.01-1.63-0.17-2.43c0.31-0.01,0.62-0.04,0.93-0.08
	c0.31-0.05,0.62-0.08,0.93-0.08c0.65,0,1.1,0.71,1.36,2.12c-0.12,0.67-0.15,1.35-0.1,2.02c0,0.53,0,0.98,0,1.36
	c0,0.38,0,0.64,0,0.79l0,0L741.57,451.75z M736.8,458.37c-0.02-0.18-0.06-0.35-0.13-0.51c-0.14,0.06-0.29,0.09-0.45,0.1
	c-0.35-0.06-0.69-0.18-0.99-0.36c-0.3-0.18-0.64-0.31-0.99-0.36c-0.56,0.14-1.12,0.32-1.66,0.55c-1.39,0.51-2.63,1.35-3.61,2.47
	c-1.04,1.07-1.63,2.5-1.66,3.99c-0.03,0.59,0.12,1.17,0.45,1.66c0.3,0.47,0.83,0.76,1.39,0.76h0.45h0.45c0.97,0,2.35-1.1,4.12-3.31
	c1.78-2.21,2.68-3.88,2.7-5.02L736.8,458.37z"/>
<path style="fill:#E4C80C;" d="M761.27,468.21c0,1.18-0.8,1.77-2.4,1.77c-0.16-0.04-0.3-0.13-0.41-0.25l-0.28-0.25
	c-0.63-0.38-1.22-0.83-1.77-1.32l-1.11-1.66l-2.65,1.66c-0.91,0.49-1.93,0.75-2.96,0.76c-0.18-0.02-0.35-0.06-0.51-0.13
	c-0.17-0.07-0.35-0.12-0.53-0.13h-0.33h-0.33c-1.42-0.03-2.72-0.81-3.41-2.05c-0.81-1.16-1.25-2.54-1.26-3.96
	c0-3.64,1.54-5.74,4.62-6.29c1.03-0.51,2.17-0.72,3.31-0.63c1.13,0.01,2.24,0.2,3.31,0.56c1.11,0.22,2.05,0.96,2.53,1.99
	c0.17,0.59,0.26,1.2,0.28,1.82c0.03,0.65,0.1,1.3,0.22,1.94c0.19,0.96,0.46,1.9,0.79,2.81c0.53,1.51,0.95,2.26,1.26,2.25h0.23h0.23
	c0.29,0.06,0.54,0.23,0.7,0.48C761.01,467.74,761.18,467.95,761.27,468.21z M753.84,458.72c-0.05-0.12-0.1-0.24-0.17-0.35
	c-1.18-0.22-2.39-0.33-3.59-0.31c-0.91,0.09-1.74,0.57-2.27,1.31c-0.67,0.64-1.08,1.5-1.16,2.42c0,3.31,1.03,4.97,3.08,4.97
	c0.54-0.1,1.04-0.34,1.46-0.7c0.47-0.29,0.9-0.64,1.27-1.04c0.65-0.8,1.03-1.79,1.08-2.81c0-0.44,0-1.47,0-3.1
	c0.19-0.03,0.32-0.21,0.3-0.4L753.84,458.72z"/>
<path style="fill:#E4C80C;" d="M781.79,451.75c-0.12,3.59-1.08,7.1-2.78,10.27c-0.95,1.7-2.22,3.22-3.73,4.45
	c-1.31,1.41-3.06,2.33-4.97,2.62h-2.02c-0.28-0.09-0.53-0.23-0.76-0.41c-0.85-0.53-1.66-1.13-2.4-1.8c-0.71-0.75-1.1-1.75-1.08-2.78
	c0.2-1.55,0.77-3.02,1.66-4.3c1.1-2,2.14-2.97,3.1-2.91c0.53-0.45,1.13-0.83,1.77-1.11c0.59-0.34,1.24-0.58,1.92-0.7h0.1v0.13h0.1
	c0.27-0.01,0.53-0.05,0.79-0.12c0.26-0.07,0.53-0.11,0.79-0.12c0.62,0.01,1.23,0.13,1.8,0.35c0.59,0.15,1.08,0.54,1.36,1.08
	c0.6-1.32,1.03-2.71,1.29-4.14c0.12-1.43,0.17-2.87,0.13-4.3c0.05-0.82-0.01-1.63-0.17-2.43c0.31-0.01,0.62-0.04,0.93-0.08
	c0.31-0.05,0.62-0.08,0.93-0.08c0.65,0,1.1,0.71,1.36,2.12c-0.12,0.67-0.15,1.35-0.1,2.02c0,0.53,0,0.98,0,1.36
	c0,0.36,0,0.65,0,0.79l0,0L781.79,451.75z M777.02,458.37c-0.02-0.18-0.06-0.35-0.13-0.51c-0.14,0.06-0.29,0.09-0.45,0.1
	c-0.35-0.06-0.69-0.18-0.99-0.36c-0.3-0.18-0.64-0.31-0.99-0.36c-0.56,0.14-1.12,0.32-1.66,0.55c-1.39,0.51-2.63,1.35-3.61,2.47
	c-1.04,1.07-1.63,2.5-1.66,3.99c-0.03,0.59,0.12,1.17,0.45,1.66c0.3,0.47,0.83,0.76,1.39,0.76h0.45h0.45c0.97,0,2.35-1.1,4.12-3.31
	c1.78-2.21,2.65-3.88,2.63-5.02V458.37z"/>
</svg>
