<?xml version="1.0" encoding="utf-8"?>
<!-- Generator: Adobe Illustrator 19.1.0, SVG Export Plug-In . SVG Version: 6.00 Build 0)  -->
<svg version="1.1" id="Capa_1" xmlns="http://www.w3.org/2000/svg" xmlns:xlink="http://www.w3.org/1999/xlink" x="0px" y="0px"
	 width="640px" height="723.7px" viewBox="0 0 640 723.7" style="enable-background:new 0 0 640 723.7;" xml:space="preserve">
<style type="text/css">
	.partners-st0{fill:#9BCBEB;}
	.partners-st1{fill:#0033A0;}
	.partners-st2{fill:#FFFFFF;}
	.partners-st3{fill:#B58500;}
	.partners-st4{fill:#5C4738;}
	.partners-st5{fill:#BE6A14;}
	.partners-st6{fill:#2C2A29;}
	.partners-st7{fill:none;}
	.partners-st8{fill:#F7EA48;}
</style>
<g>
	<g>
		<g>
			<path class="partners-st0" d="M320,30.3c0,0-113.6,115.6-275.3,7.8c0,0-47.5,128.9,34.2,320.2L320,172.6l116.5-89.7
				C364.1,75.2,320,30.3,320,30.3z"/>
		</g>
		<g>
			<polygon class="partners-st1" points="30.5,256.8 218.3,256.8 78.9,369.4 48.9,339.4 			"/>
		</g>
		<g>
			<path class="partners-st1" d="M608.3,114.8L320,343.8L146.1,482C188,545.4,244.4,613.1,320,683.4C583.8,437.9,614.6,223.9,608.3,114.8z"/>
		</g>
		<g>
			<rect x="324.9" y="336.2" class="partners-st2" width="24" height="356.2"/>
		</g>
		<g>
			<rect x="384.9" y="266.5" class="partners-st2" width="24" height="360.7"/>
		</g>
		<g>
			<rect x="440.7" y="216.2" class="partners-st2" width="24" height="345.2"/>
		</g>
		<g>
			<rect x="499.1" y="171.6" class="partners-st2" width="24" height="308.2"/>
		</g>
		<g>
			<rect x="555.8" y="127.3" class="partners-st2" width="24" height="254.7"/>
		</g>
		<g>
			<g>
				<path class="partners-st3" d="M288.1,178.1l-54,2.6c0,0-15.2,0.3-16,0.3c-0.8,0-12.6,5-14.4,5c-1.9,0-15.7,13.9-15.7,13.9l-6.6,11.7
					l-2.3,5.4v8.7l3.7,19.4c0,0,5.9,7.1,7.1,7.1c1.2,0,22.6,17.5,22.6,17.5l82.2-51.7l-1.2-35.8L288.1,178.1z"/>
			</g>
			<g>
				<g>
					<path class="partners-st4" d="M255.3,192.4c-3.8-0.9-6.5-1.2-8.4-3.1c-1.9-1.9-1.8-3.2-7-1.7c-5.1,1.5-9.5,1.5-11.9,1.5
						c-2.4,0-3.6-0.9-6.7,0c-3.2,0.9-4.6-0.1-4.6,2.3c0,2.4-1.4,2.8,0.5,3.8c0.5,0.2,1.2,0.5,2.2,0.6c-0.4,0.1-0.7,0.4-1.3,0.6
						c-0.2,0-0.4,0-0.6,0c-0.4,0-0.6,0.2-0.8,0.5c-2.7,0.7-2.4,0.1-3.5,1.2c-1.1,1.1-0.8,1.8-2.5,4.9c-1.7,3.1-3.3,0.2-4.4-1
						c-1.2-1.2-0.5,2.2-0.5,3.1c0,0.9,0,1.2,0,2.3c0,1.2-0.9,0.9-0.9,2.6c0,1.7-1,1-1,1.9c0,0.7,0,1.3-0.3,1.8
						c-1.7,1.1-5.6,5.7-5.6,7c-0.5,0.2-1,0.4-1.3,0.7c-0.7,0.7-1.5,0.5-2.9,0.5c-1.4,0-1.5,0.2-2,0.7c-0.5,0.5,0,1.5,0,2.3
						c0,0.9,0,1.2,1.5,0.5c1-0.4,1-0.3,1.3-0.3c-2.4,1.4-2.1,4.5-2.1,4.5l0.5,7.3c0,0,1.3,0,3.4,0c0.2,0,0.3,0,0.5,0
						c0,0.2,0.1,0.5,0.1,0.8c0,2.1,1.5,0,2.5-1c1-1,2.1-0.5,3.2-1.7c1.1-1.1,0.6-3.2,0.6-4.5c0,0-1.7,1.1-2.2,1.7
						c-0.2,0.2-0.6,0.3-1.2,0.5c0.3-0.3,0.6-0.7,1.1-1.2c2.6-2.6,1.8-1.8,3.6-1.8c1.8,0,1.9-1.9,1.9-4.8c0-0.6-0.1-1.1-0.2-1.5
						c0.2-0.1,0.3-0.3,0.7-0.4c1.8-0.7,1.3-1.3,2.6-1.3c0.6,0,1.1,0.5,1.6,1c-0.2,0.8-0.4,1.4,0.3,2.1c1,1,2.2,1.3,3.6,1.3
						c1.1,0,2.4,1.6,3.1,2.1c0.6,0.9,1.6,2.5,1.1,3c-0.7,0.7-1,2.9-1,4.3c0,0.7-0.1,2,0.2,3c-0.1,0.1-0.2,0.2-0.3,0.3
						c-0.3,0-0.6,0-0.9,0c-0.4,0-0.8,0.8-2.2,0.8s-1.2,0.7-1.7,2.2c-0.6,1.5,1.4,2.6,2.2,3.4c0.8,0.8,1.2,1.6,1.2,3.2
						c0,1.6,1.5,1.3,1.7,1.3l1-0.8c0.3,0,0.7,0,1.3-0.1c3.7-0.7,5.6,0.7,8.4-5.3c2.8-6,2.8-7.3,2.8-8.5c0-1.2,0.4-3.3,0.4-3.3
						s-0.8-0.1-1.8-0.3c1.6-1.6,1.8-2,1.8-4.9c0-3,0.2-5.4,0.2-7.4c0-1.1,0.3-2.5,0.3-3.4c0.1-0.1,0.3-0.3,0.4-0.4
						c1.5-1.5,3.6-0.3,3.6-2.4c0-2.1,1.2-3.3,0-3.3c-1.2,0-3.1,1.9-4.1,3c-0.7,0.7-1.1,0.5-1.7,1c-0.1-0.5-0.3,0-1.7-0.8
						c-1.7-0.9-0.3-0.9-1.7-2.3c-1.4-1.4,0.4-1.6-1.6-2.5c-2-0.9-4-0.9-4.7-0.9c-0.4,0-0.9-0.2-1.1-0.1c0.1-0.4,0.3-0.8,0.5-1.4
						c1.5-3.2,1.9-1.1,4.3-2.1c1.4-0.6,2.3-2,2.8-3.2c0.4,0,0.9-0.2,1.4-0.2c0.8,0,1.9,0,2.4,0.5c0,0,0.1,0,0.1,0
						c-0.2,0-0.5,0-0.8-0.1c-0.9-0.2-2.3,0-2.3,0s0.2,0.2,0.6,0.6c0.4,0.4,1.5,1.7,2.6,2.1c1,0.4,1.3,0.8,2.1,1.6
						c0.8,0.8,0.8,0.9,2.6,0.9c1.7,0,0.8,0.3,1.5,1c0.7,0.7,1.2,0.3,4.9-0.3c2.6-0.4,0.9-0.6,0.9-0.6s0.2-0.2-0.3-0.2
						c-0.5,0-1.1-0.2-1.9-0.2c-0.8,0-1.3-0.3-2.4-0.4c-1.1-0.2-0.9-0.6-2-1.1c-1.1-0.5-0.8-0.8-1.4-1.5c-0.6-0.8-0.6-0.6-1-1.1
						c-0.3-0.3-0.8-0.5-1.3-0.6c0.3,0,0.6-0.1,0.8-0.1c0.7,0,0.8,0.8,1.2,1.2c0.3,0.3,0.9,0.9,1.2,1.2c0.3,0.3,0.8,0.8,1.3,1.3
						c0.5,0.5,1.7,0,2.2,0.5c0.5,0.5,1.4,0,2.4,0c1,0,1.6,0.3,2.2-0.4c0.7-0.7,1.3,0,2.1,0s1.3-2.1,1.3-2.1s0.3-0.6,0.6-1.4
						c0.2,0,0.4,0,0.6,0c1.3,0,2.9-0.9,2.9-0.9s3.9-3.8,5.2-5.1C258.7,193.6,259.1,193.3,255.3,192.4z M210.3,207.5
						c-0.1,0.1-0.2,0.2-0.3,0.4C209.9,207.6,210.1,207.5,210.3,207.5z M198.9,223C198.9,223,198.9,223.1,198.9,223
						C198.9,223.1,198.9,223,198.9,223L198.9,223z M219.8,208.3C219.8,208.3,219.8,208.3,219.8,208.3c0-0.1,0-0.1,0-0.1
						C219.8,208.2,219.8,208.3,219.8,208.3z"/>
				</g>
				<g>
					<path class="partners-st4" d="M195.4,212.4c1-1,0.7-1.2,1.6-2.1c0.9-1,0.8-2.3,0.1-3.1c0,0-2-0.2-4.2,1.7c-2.2,1.9-1.5,0.7-2.8,2
						c-0.7,0.7-0.8,1.2-0.7,1.7c-0.2,0.1-0.4,0.2-1,0.8c-1.4,1.4-1.4,0.7-2.7,2c-1.3,1.3,0.4,1.2,0.4,3.2c0,2,0.8,0.8,2.1,1.3
						c1.3,0.5,1.6,0,2.6-1.8c1.1-1.8,0.8-0.8,2.1-4c0.1-0.1,0.1-0.2,0.1-0.3C193.7,213.7,194.6,213.2,195.4,212.4z"/>
				</g>
				<g>
					<path class="partners-st4" d="M234.9,184.1c-0.2,0-0.5-0.1-1-0.1c-0.9,0-6.7,0.1-8.7,0.1h-2c0,0-1,0.3-1.2,1.2c0,0.1-0.1,0.2-0.1,0.3
						c-1.1,0.3-2.9,3.1-2.4,2.5c0.5-0.5,4-0.9,6.3-0.9c2.2,0,4.1,0,6.4,0c0.7,0,1.3-0.3,1.8-0.8h0c4.1,0,4.2-1.6,7.8-0.8
						c3.5,0.8,4.5,1.5,7.2,0.8c2.7-0.7,0.4-2.5,5.2-0.9c4.8,1.6,5.9,2.1,7.3,1.1c1.5-1,2.4-1.6,4.5-1.6c2.1,0,5.2-0.9,5.2-0.9H234.9
						z"/>
				</g>
				<g>
					<path class="partners-st4" d="M213.4,247.6c-0.2,0.6,0.1,0.6-0.8,2.1c-0.9,1.6-0.9,1.6-1.5,2.1s-0.4,0.7-1.2,1.2c-0.9,0.5-1.5,1.6-1.9,2
						c-0.4,0.4,0.1,0.6-0.7,1.3c-0.8,0.8-1.6,1.6-1.7,1.7c-0.1,0.1,0.1,0.4,0.1,0.4s0.2-0.7,1.6-1.2c1.3-0.5,1.5-1.3,2.7-1.9
						c1.2-0.6,1.3-0.8,2.3-1.9c1-1,1.1-1.2,1.3-1.9c0.2-0.7-0.1-0.5,0.5-1.9c0.6-1.5,1-2,1-2.3C214.9,247.1,213.6,247,213.4,247.6z"
						/>
				</g>
			</g>
			<g>
				<rect x="130.9" y="192.1" class="partners-st5" width="15.9" height="16.5"/>
				<path class="partners-st6" d="M147.3,209h-16.8v-17.4h16.8V209z M131.3,208.1h15v-15.6h-15V208.1z"/>
			</g>
			<g>
				<polygon class="partners-st5" points="133.2,207.6 144.7,207.8 144.7,213 134.2,213 				"/>
				<path class="partners-st6" d="M145.2,213.4h-11.4l-1.1-6.3l12.5,0.2V213.4z M134.5,212.5h9.7v-4.3l-10.5-0.2L134.5,212.5z"/>
			</g>
			<g>
				<path class="partners-st5" d="M148.4,207.8c0,0-2.7-2.5-4.4-1.2c-1.7,1.2,0.1,2.7-2.9,4c-3,1.4-5.4-1.7-6.8-3.2c-1.4-1.4-3.8-1-3.8-1
					v18.7c0,0,11.8-4.7,16.9-5h0.8L148.4,207.8z"/>
				<path class="partners-st6" d="M130.1,225.8v-19.7l0.4-0.1c0,0,0.4-0.1,0.9-0.1c1,0,2.3,0.2,3.3,1.2c0.2,0.2,0.3,0.4,0.5,0.5
					c1.1,1.2,2.7,2.8,4.5,2.8c0.4,0,0.9-0.1,1.3-0.3c1.5-0.7,1.6-1.3,1.7-2c0.1-0.6,0.2-1.3,1.1-2c0.4-0.3,0.9-0.4,1.4-0.4
					c1.7,0,3.5,1.6,3.6,1.7l0.2,0.1l-0.2,13h-1.2c-5,0.2-16.6,4.9-16.7,4.9L130.1,225.8z M131,206.9v17.6c2.5-1,11.9-4.5,16.4-4.8
					h0.4l0.2-11.7c-0.4-0.4-1.7-1.3-2.8-1.3c-0.3,0-0.6,0.1-0.8,0.3c-0.6,0.4-0.6,0.8-0.7,1.4c-0.1,0.8-0.3,1.8-2.2,2.7
					c-0.6,0.3-1.1,0.4-1.7,0.4c-2.2,0-3.9-1.8-5.1-3.1c-0.2-0.2-0.4-0.4-0.5-0.5C133.1,206.9,131.7,206.8,131,206.9z"/>
			</g>
			<g>
				<path class="partners-st3" d="M215.1,105.2c0,2.4-2,4.4-4.4,4.4c-2.4,0-4.4-2-4.4-4.4c0-2.4,2-4.4,4.4-4.4
					C213.2,100.8,215.1,102.8,215.1,105.2z"/>
				<path class="partners-st6" d="M210.8,110c-2.7,0-4.8-2.2-4.8-4.8c0-2.7,2.2-4.8,4.8-4.8c2.7,0,4.8,2.2,4.8,4.8
					C215.6,107.8,213.4,110,210.8,110z M210.8,101.2c-2.2,0-3.9,1.8-3.9,3.9c0,2.2,1.8,3.9,3.9,3.9c2.2,0,3.9-1.8,3.9-3.9
					C214.7,103,212.9,101.2,210.8,101.2z"/>
			</g>
			<g>
				<polygon class="partners-st3" points="217.9,115.9 217.9,104.6 203.6,104.6 203.6,116.8 218,116.8 				"/>
				<path class="partners-st6" d="M218.5,117.2h-15.4v-13.1h15.3v11.8L218.5,117.2z M204,116.3h13.5l0-0.4l0-10.9H204V116.3z"/>
			</g>
			<g>
				<rect x="212.7" y="115.5" class="partners-st3" width="23.6" height="27.3"/>
				<path class="partners-st6" d="M236.8,143.2h-24.5V115h24.5V143.2z M213.2,142.3h22.7v-26.4h-22.7V142.3z"/>
			</g>
			<g>
				<rect x="195.6" y="110.7" class="partners-st3" width="30.8" height="41.5"/>
				<path class="partners-st6" d="M226.8,152.7h-31.7v-42.4h31.7V152.7z M196,151.8h29.9v-40.6H196V151.8z"/>
			</g>
			<g>
				<polygon class="partners-st5" points="92.9,221.2 92.9,212.3 83.3,204.7 74.4,211.8 74.4,220.4 57,220.4 40.6,228.3 40.6,238.8
					55.2,253.4 81.1,244.1 				"/>
				<path class="partners-st6" d="M55.1,253.9l-0.2-0.2L40.1,239V228L57,220h16.9v-8.4l9.4-7.5l10,8l-0.1,9.3l-11.9,23l-0.2,0.1L55.1,253.9z
					 M41.1,238.6l14.3,14.3l25.4-9.2l11.7-22.6v-8.6l-9.1-7.3l-8.4,6.7v8.9H57.1l-16.1,7.8V238.6z"/>
			</g>
			<g>
				<rect x="38.7" y="228.1" class="partners-st5" width="25.7" height="14.2"/>
				<path class="partners-st6" d="M64.8,242.7H38.2v-15.1h26.6V242.7z M39.1,241.8h24.8v-13.3H39.1V241.8z"/>
			</g>
			<g>
				<polygon class="partners-st5" points="44.5,235.3 61.2,235.3 63.6,240 48.8,242.1 40.2,240 				"/>
				<path class="partners-st6" d="M48.8,242.6L48.8,242.6l-9.5-2.3l5-5.4h17.2l2.8,5.5L48.8,242.6z M41,239.8l7.8,1.9l14-2l-2-3.9H44.7
					L41,239.8z"/>
			</g>
			<g>
				<rect x="35.7" y="240" class="partners-st5" width="29.4" height="18.9"/>
				<path class="partners-st6" d="M65.5,259.4H35.3v-19.8h30.3V259.4z M36.2,258.5h28.4v-18H36.2V258.5z"/>
			</g>
			<g>
				<path class="partners-st4" d="M207.1,148.7h-17.6v9.3H181v5.6c0,0-7.6,3.5-9,5c-1.4,1.4-9.4,5.3-9.4,8.4c0,3.1,0,5.4,0,5.4h-9.2v5
					c0,0-5.7,2-6.6,4.7c-0.9,2.7-2.2,11.6-2.2,12c0,0.4,15.5,3.4,15.5,3.4l6.8-4.7c0,0,8.8-11.2,11.8-11.8c2.9-0.6,6.8-1.2,7.5-5.9
					c0.7-4.7,7.1-8,9-9.9c1.9-1.9,3.9-5.4,7.5-9c3.6-3.6,5.1-4.8,6.9-6.6c1.8-1.8,5.7-6.2,4.3-7.6S207.1,148.7,207.1,148.7z"/>
				<path class="partners-st6" d="M160.2,208l-0.2,0c-15.9-3.1-15.9-3.4-15.9-3.9c0-0.5,1.3-9.4,2.2-12.2c0.8-2.6,5.3-4.4,6.6-4.9v-5.2h9.2
					V177c0-2.5,4.1-5.1,7.1-7c1.1-0.7,2.1-1.3,2.5-1.7c1.3-1.3,7.5-4.3,8.9-4.9v-5.8h8.5v-9.3l18.2,0c0.2,0.1,5.6,2.1,7.1,3.5
					c0.8,0.8,0.5,2.2-0.9,4.2c-1.2,1.8-2.9,3.5-3.4,4c-0.7,0.7-1.4,1.4-2.2,2.1c-1.1,1-2.5,2.3-4.7,4.5c-2.1,2.1-3.6,4.1-4.9,5.8
					c-1,1.3-1.8,2.4-2.6,3.2c-0.5,0.5-1.3,1.1-2.2,1.8c-2.6,1.9-6.1,4.6-6.6,7.9c-0.7,4.8-4.7,5.6-7.6,6.2l-0.3,0.1
					c-2.3,0.5-9.1,8.5-11.5,11.6l-0.1,0.1L160.2,208z M145.1,203.9c1.5,0.5,9.7,2.2,14.9,3.2l6.6-4.5c1.1-1.4,9-11.3,12-11.9
					l0.3-0.1c2.9-0.6,6.2-1.2,6.8-5.4c0.5-3.6,4.3-6.4,7-8.5c0.9-0.7,1.7-1.2,2.1-1.7c0.8-0.8,1.6-1.9,2.5-3.1
					c1.3-1.7,2.9-3.8,5-5.9c2.1-2.1,3.6-3.5,4.7-4.5c0.8-0.7,1.5-1.4,2.2-2.1c0.5-0.5,2.1-2.2,3.3-3.9c1.1-1.5,1.4-2.7,1-3.1
					c-1.1-1.1-5.1-2.7-6.7-3.3h-17.1v9.3h-8.5v5.4l-0.3,0.1c-2.1,1-7.7,3.7-8.9,4.9c-0.4,0.4-1.4,1.1-2.6,1.8
					c-2.6,1.7-6.6,4.3-6.6,6.2v5.8h-9.2v4.9l-0.3,0.1c-1.5,0.5-5.7,2.4-6.3,4.4C146.5,194.7,145.3,202.3,145.1,203.9z"/>
			</g>
			<g>
				<path class="partners-st5" d="M229.1,153h-23.5c0,0-1.2,3.3-2.1,4.2c-0.9,0.9-4,2.7-4,4c0,1.3-1.1,2.3-2.2,3.5c-1.2,1.2-5,4.5-6,5.5
					c-1,1-0.1,4.5-1.5,6c-1.5,1.5-7.6,6.3-7.6,6.3c-0.8,2.6-1.3,5.5-5,5.5c-3.8,0-7.2-0.2-8,0.6c-0.8,0.8-0.9,0.4-2.4,1.8
					c-1.4,1.4-3.4,2.2-3.4,5c0,2.8-1.5,5.3-2.5,5.3c-0.9,0-4.7,7-1.5,9.2c3.2,2.1,10,0.2,10,0.2s14.4-3.6,16.1-8.4
					c1.6-4.8,2.9-6.1,6.2-8.1c3.3-2,15.3-13.4,15.3-14c0-0.6,2-2.6,4-4.6c2-2,7-6.7,9-8.8c2.1-2.1,6.2-5.9,7.6-7.3
					c1.4-1.4,5.4-5.1,5.4-5.5C232.9,153.1,229.1,153,229.1,153z"/>
				<path class="partners-st6" d="M163.7,211.4L163.7,211.4c-2,0-3.5-0.4-4.6-1.1c-1.5-1-1.8-3-1-5.6c0.5-1.8,1.8-4.3,2.8-4.3
					c0.5,0,2-2,2-4.8c0-2.4,1.4-3.5,2.5-4.5c0.3-0.3,0.7-0.6,1-0.9c0.9-0.9,1.3-1.1,1.7-1.3c0.2-0.1,0.4-0.2,0.7-0.5
					c0.6-0.6,2.1-0.7,4.5-0.7c0.6,0,1.1,0,1.8,0c0.7,0,1.3,0,2,0c3,0,3.7-2,4.4-4.4c0.1-0.3,0.2-0.5,0.2-0.8l0-0.1l0.1-0.1
					c0.1,0,6.2-4.9,7.6-6.3c0.7-0.7,0.8-2,0.8-3.2c0.1-1.2,0.1-2.2,0.7-2.8c0.5-0.5,1.6-1.5,2.8-2.6c1.3-1.1,2.6-2.3,3.2-2.9
					c1.1-1.1,2.1-2.1,2.1-3.2c0-1.1,1.6-2.3,3-3.4c0.5-0.4,0.9-0.7,1.1-0.9c0.7-0.7,1.7-3.2,2-4.1l0.1-0.3h23.8
					c4.3,0,4.3,0.5,4.3,0.9c0,0.4-0.5,1-4,4.3c-0.6,0.6-1.2,1.1-1.5,1.5c-0.6,0.6-1.8,1.8-3.2,3c-1.6,1.5-3.3,3.1-4.5,4.3
					c-1,1-2.8,2.7-4.5,4.4c-1.8,1.7-3.5,3.4-4.5,4.4c-1.6,1.6-3.8,3.8-3.9,4.3c0,1.1-12.9,12.8-15.5,14.3c-3.3,2-4.4,3.2-6,7.9
					c-1.7,5-15.8,8.6-16.4,8.7C169.3,210.7,166.6,211.4,163.7,211.4z M173.3,188.6c-0.9,0-3.4,0-3.9,0.4c-0.4,0.4-0.6,0.5-0.9,0.7
					c-0.3,0.2-0.7,0.4-1.5,1.1c-0.3,0.3-0.7,0.6-1.1,0.9c-1.2,1-2.2,1.8-2.2,3.8c0,3-1.6,5.7-2.9,5.7c-0.4,0.2-2.1,2.9-2.3,5.4
					c-0.1,1.4,0.2,2.3,1,2.9c0.9,0.6,2.3,0.9,4.1,0.9l0,0c2.7,0,5.5-0.7,5.5-0.8c0.2,0,14.2-3.6,15.8-8.2c1.7-4.8,3-6.3,6.4-8.3
					c3.2-2,14.3-12.6,15-13.7c0.1-0.7,1.3-2,4.1-4.7c1-1,2.8-2.7,4.6-4.5c1.7-1.7,3.5-3.4,4.5-4.4c1.1-1.1,2.9-2.8,4.5-4.3
					c1.3-1.2,2.5-2.4,3.1-3c0.4-0.4,0.9-0.9,1.6-1.5c1.1-1.1,2.9-2.8,3.5-3.5c-0.7-0.1-2-0.2-3.2-0.2h-23.1
					c-0.3,0.9-1.3,3.3-2.1,4.1c-0.3,0.3-0.7,0.6-1.2,1c-1,0.7-2.6,2-2.6,2.7c0,1.5-1.1,2.6-2.4,3.8c-0.6,0.6-1.9,1.8-3.2,3
					c-1.2,1.1-2.3,2.1-2.8,2.6c-0.3,0.3-0.4,1.3-0.4,2.2c-0.1,1.3-0.2,2.9-1.1,3.8c-1.4,1.4-6.7,5.6-7.6,6.3
					c-0.1,0.2-0.1,0.4-0.2,0.6c-0.7,2.4-1.5,5.1-5.2,5.1c-0.7,0-1.4,0-2,0C174.4,188.6,173.8,188.6,173.3,188.6z"/>
			</g>
			<g>
				<path class="partners-st4" d="M225.9,153l-7.9,9h-8.2v9.4h-7.3v7.6h-10.9v7.4l-9.2,6.9h-5.6v7.5l-6.7,7.2v10h12.2c0,0,1.6-5.5,5-6.6
					c3.4-1.1-0.8-3.8,2.3-5.6c3.2-1.9,4.3-1.8,5.2-3.9c0.8-2.1,3.4-7.3,5.6-8.2c2.2-0.9,4.3-3,4.9-3.6c0.6-0.6,3.5-5,7.3-5
					c3.8,0,13.3-0.9,13.3-0.9l12.7-9v-15.8l-0.7-6.6l-6.1-1.8h-5.5L225.9,153z"/>
				<path class="partners-st6" d="M182.7,218.5h-13v-10.6l6.7-7.2V193h5.9l8.9-6.7v-7.6h10.9V171h7.3v-9.4h8.5l7.7-8.8l0.6-2.4l6,0l6.4,1.8
					l0.7,6.9l0,16.1l-13,9.2l-0.1,0c-0.4,0-9.6,0.9-13.3,0.9c-3,0-5.4,3-6.5,4.3c-0.2,0.3-0.4,0.5-0.5,0.6c-0.7,0.7-2.8,2.8-5.1,3.7
					c-2,0.9-4.6,5.8-5.4,8c-0.6,1.7-1.6,2.1-3.1,2.9c-0.6,0.3-1.4,0.7-2.3,1.2c-1.3,0.8-1.1,1.6-0.9,2.6c0.2,1,0.5,2.4-1.6,3.1
					c-3.1,1-4.7,6.2-4.7,6.3L182.7,218.5z M170.6,217.6H182c0.4-1.2,2.1-5.6,5.2-6.5c1.3-0.4,1.2-0.9,1-2c-0.2-1.1-0.6-2.5,1.3-3.6
					c0.9-0.6,1.7-0.9,2.3-1.3c1.5-0.7,2.1-1.1,2.6-2.4c0.7-1.9,3.4-7.4,5.9-8.5c1.4-0.6,3-1.8,4.8-3.5c0.1-0.1,0.2-0.3,0.4-0.5
					c1.1-1.4,3.8-4.7,7.2-4.7c3.5,0,12-0.8,13.1-0.9l12.4-8.8v-15.6l-0.7-6.2l-5.7-1.7h-5.1l-0.5,2l-8,9.2h-8v9.4H203v7.6h-10.9v7.2
					l-9.5,7.2h-5.3v7.2l-6.7,7.2V217.6z"/>
			</g>
			<g>
				<circle class="partners-st3" cx="292.1" cy="117.7" r="4.4"/>
				<path class="partners-st6" d="M292.1,122.5c-2.7,0-4.8-2.2-4.8-4.8c0-2.7,2.2-4.8,4.8-4.8c2.7,0,4.8,2.2,4.8,4.8
					C297,120.3,294.8,122.5,292.1,122.5z M292.1,113.7c-2.2,0-3.9,1.8-3.9,3.9c0,2.2,1.8,3.9,3.9,3.9c2.2,0,3.9-1.8,3.9-3.9
					C296.1,115.5,294.3,113.7,292.1,113.7z"/>
			</g>
			<g>
				<polygon class="partners-st3" points="299.3,128.4 299.3,117.1 285,117.1 285,129.3 299.4,129.3 				"/>
				<path class="partners-st6" d="M299.9,129.7h-15.4v-13.1h15.3v11.8L299.9,129.7z M285.4,128.8h13.5l0-0.4l0-10.9h-13.4V128.8z"/>
			</g>
			<g>
				<circle class="partners-st5" cx="109.9" cy="180.6" r="4.4"/>
				<path class="partners-st6" d="M109.9,185.5c-2.7,0-4.8-2.2-4.8-4.8c0-2.7,2.2-4.8,4.8-4.8c2.7,0,4.8,2.2,4.8,4.8
					C114.8,183.3,112.6,185.5,109.9,185.5z M109.9,176.7c-2.2,0-3.9,1.8-3.9,3.9c0,2.2,1.8,3.9,3.9,3.9c2.2,0,3.9-1.8,3.9-3.9
					C113.9,178.5,112.1,176.7,109.9,176.7z"/>
			</g>
			<g>
				<polygon class="partners-st5" points="117.1,191.4 117.1,180 102.7,180 102.7,192.2 117.2,192.2 				"/>
				<path class="partners-st6" d="M117.7,192.7h-15.4v-13.1h15.3v11.8L117.7,192.7z M103.2,191.8h13.5l0-0.4l0-10.9h-13.4V191.8z"/>
			</g>
			<g>
				<polygon class="partners-st3" points="307.6,139.6 307.6,122.5 299.2,122.5 299.2,127.5 297,127.5 297,122.5 290.5,122.5 290.5,127.5
					287.6,127.5 287.6,122.5 281.2,122.5 281.2,127.5 278.1,127.5 278.1,122.5 270.1,122.5 270.1,127.5 267.4,127.5 267.4,122.5
					258.5,122.5 258.5,127.5 255.7,127.5 255.7,122.5 248.5,122.5 248.5,127.5 245.9,127.5 245.9,122.5 234.2,122.5 234.2,151
					299.3,151 				"/>
				<path class="partners-st6" d="M299.5,151.4h-65.8v-29.4h12.5v5h1.7v-5h8.1v5h1.9v-5h9.8v5h1.7v-5h8.9v5h2.3v-5h7.3v5h2v-5h7.4v5h1.3v-5
					h9.3v17.7L299.5,151.4z M234.7,150.5h64.4l8.1-11.1V123h-7.5v5h-3.2v-5h-5.6v5h-3.8v-5h-5.5v5h-4.1v-5h-7.1v5H267v-5h-8v5h-3.7
					v-5H249v5h-3.5v-5h-10.7V150.5z"/>
			</g>
			<g>
				<polygon class="partners-st3" points="232.4,132.5 232.4,136.5 228.8,136.5 228.8,132.5 222.7,132.5 222.7,136.2 220.8,136.2
					218.9,136.2 218.9,132.5 212.8,132.5 212.8,136.5 209.2,136.5 209.2,132.5 200.9,132.5 200.9,140.8 205.6,145.6 205.6,153.1
					220.8,153.1 236,153.1 236,145.6 240.7,140.8 240.7,132.5 				"/>
				<path class="partners-st6" d="M236.5,153.5h-31.3v-7.8l-4.7-4.7v-8.9l9.3-0.1v4h2.7v-4h7v3.8h3V132h7v4h2.7v-4l9.3,0.1v8.9l-4.7,4.7
					V153.5z M206.1,152.6h29.5v-7.3l4.7-4.7V133l-7.5-0.1v4h-4.5v-4h-5.1v3.8h-4.8v-3.8h-5.1v4h-4.5v-4l-7.5,0.1v7.7l4.7,4.7V152.6z
					"/>
			</g>
			<g>
				<polygon class="partners-st5" points="292.7,144.9 280.9,144.9 280.9,149.8 277.9,149.8 277.9,145.2 270.4,145.2 270.4,149.9
					266.9,149.9 266.9,145.4 258.8,145.4 258.8,149.9 254,149.9 254,145.6 245.7,145.6 245.7,149.8 241.7,149.8 241.7,145.5
					234.9,145.5 234.9,168.8 294.7,168.8 				"/>
				<path class="partners-st6" d="M295.2,169.3h-60.7V145h7.7v4.3h3.1v-4.3h9.2v4.3h3.9v-4.5h9v4.5h2.6v-4.7h8.4v4.6h2.1v-4.9h12.7
					L295.2,169.3z M235.4,168.4h58.8l-1.9-23h-10.9v4.9h-3.9v-4.6h-6.6v4.7h-4.4v-4.5h-7.2v4.5h-5.7V146h-7.4v4.3h-4.9v-4.3h-5.8
					V168.4z"/>
			</g>
			<g>
				<polygon class="partners-st5" points="334.2,163.4 334.2,179.7 331.2,179.7 290.5,179.7 290.5,132.5 298.3,132.5 298.3,137.6
					301.7,137.6 301.7,132.5 310.3,132.5 310.3,137.2 313.2,137.2 313.2,132.5 320.9,132.5 320.9,137.2 324.5,137.2 324.5,132.5
					334.2,132.5 334.2,160 				"/>
				<path class="partners-st6" d="M334.6,180.2H290V132h8.7v5.2h2.5V132h9.5v4.7h2V132h8.6v4.7h2.7V132h10.6V180.2z M290.9,179.3h42.8v-46.3
					h-8.8v4.7h-4.5v-4.7h-6.8v4.7h-3.8v-4.7h-7.7v5.2h-4.3v-5.2h-6.9V179.3z"/>
			</g>
			<g>
				<polygon class="partners-st3" points="335,164.1 335,160.7 326.5,160.7 326.5,166 321.9,166 321.9,160.7 312.3,160.7 312.3,166
					308.7,166 308.7,160.7 299.2,160.7 299.2,165.8 295.6,165.8 295.6,160.7 286.5,160.7 286.5,165.9 282.9,165.9 282.9,160.7
					273.6,160.7 273.6,165.9 270.4,165.9 270.4,160.7 261.3,160.7 261.3,166 257.3,166 257.3,160.7 248.3,160.7 248.3,166.3
					244.3,166.3 244.3,160.7 235.4,160.7 235.4,166 231.9,166 231.9,160.7 225.5,160.7 225.5,184.1 288.5,184.1 334.6,184.1 				"/>
				<path class="partners-st6" d="M335.1,184.6H225v-24.3h7.3v5.3h2.6v-5.3h9.8v5.6h3.1v-5.6h9.9v5.4h3v-5.4h10v5.2h2.4v-5.2h10.2v5.2h2.7
					v-5.2h10v5.1h2.7v-5.1h10.4v5.3h2.7v-5.3h10.5v5.4h3.7v-5.4h9.4v3.9L335.1,184.6z M225.9,183.7h108.3l0.4-19.6v-3H327v5.4h-5.6
					v-5.4h-8.7v5.3h-4.5v-5.3h-8.6v5.1h-4.6v-5.1H287v5.2h-4.5v-5.2h-8.4v5.2h-4.2v-5.2h-8.2v5.4h-4.9v-5.4h-8.1v5.6h-4.9v-5.6h-8
					v5.3h-4.4v-5.3h-5.5V183.7z"/>
			</g>
			<g>
				<polygon class="partners-st5" points="154.4,191.1 147.7,191.1 140.3,198 147.5,198 				"/>
				<path class="partners-st6" d="M147.7,198.4h-8.5l8.3-7.8h8L147.7,198.4z M141.4,197.5h5.9l6-6h-5.5L141.4,197.5z"/>
			</g>
			<g>
				<polygon class="partners-st3" points="160.8,207.2 160.8,197.5 154.4,191.1 147.5,198 147.5,207.9 160.8,207.9 				"/>
				<path class="partners-st6" d="M161.3,208.4H147v-10.6l7.4-7.4l6.9,6.9V208.4z M148,207.5h12.4v-9.8l-6-6l-6.5,6.5V207.5z"/>
			</g>
			<g>
				<rect x="140.3" y="198" class="partners-st5" width="7.2" height="9.8"/>
				<path class="partners-st6" d="M148,208.2h-8.1v-10.7h8.1V208.2z M140.7,207.3h6.3v-8.9h-6.3V207.3z"/>
			</g>
			<g>
				<rect x="147.1" y="207.3" class="partners-st3" width="23.4" height="12.4"/>
				<path class="partners-st6" d="M170.9,220.2h-24.3v-13.3h24.3V220.2z M147.6,219.3H170v-11.5h-22.4V219.3z"/>
			</g>
			<g>
				<path class="partners-st5" d="M131.2,223.3v-36.9c0,0-7.5-4.5-15.3-2.6c-7.8,1.8-5.6,4-12.8,2.9c-3.9,0-5.6-0.3-5.6,1.7
					c0,1.9,0,30.5,0,30.5s4.7,8.8,17.4,8.8C127.5,227.6,131.2,223.3,131.2,223.3z"/>
				<path class="partners-st6" d="M114.9,228.1c-12.8,0-17.7-8.9-17.8-9l-0.1-0.2v-30.5c0-2.1,1.9-2.1,3.8-2.1l1,0c0.4,0,0.8,0,1.3,0
					c4.1,0.6,5.1,0.2,6.7-0.7c1.2-0.6,2.7-1.5,6-2.2c1.3-0.3,2.6-0.4,4-0.4c6.3,0,11.4,3,11.6,3.1l0.2,0.1v37.3l-0.1,0.1
					C131.3,223.8,127.6,228.1,114.9,228.1z M97.9,218.8c0.6,0.9,5.4,8.4,16.9,8.4c11.1,0,15.1-3.4,15.8-4v-36.4
					c-1-0.6-5.6-2.9-11-2.9c-1.3,0-2.6,0.1-3.8,0.4c-3.1,0.7-4.6,1.5-5.7,2.1c-1.7,0.9-3,1.5-7.2,0.8c-0.4,0-0.8,0-1.2,0l-1,0
					c-2.5,0-2.9,0.3-2.9,1.2V218.8z"/>
			</g>
			<g>
				<rect x="63.6" y="227.1" class="partners-st5" width="17" height="31.6"/>
				<path class="partners-st6" d="M81,259.1H63.1v-32.5H81V259.1z M64,258.2h16.1v-30.7H64V258.2z"/>
			</g>
			<g>
				<path class="partners-st3" d="M104.2,240.3c0,0,2-14.7,3.3-16c1.3-1.3-2.9-8.9-8.9-7.4c-6,1.5-26.3,13.1-27.9,14.7
					c-1.6,1.6-4.3,27.5,0.5,29.5C76.1,263.1,103,241.5,104.2,240.3z"/>
				<path class="partners-st6" d="M71.9,261.7L71.9,261.7c-0.3,0-0.7-0.1-0.9-0.2c-1.1-0.5-1.9-1.9-2.4-4.3c-1.6-7.6,0.2-24.3,1.7-25.9
					c1.6-1.6,21.9-13.3,28.1-14.9c0.6-0.1,1.1-0.2,1.7-0.2c3.9,0,6.7,3.4,7.6,5.6c0.5,1.3,0.5,2.2,0,2.7c-0.9,0.9-2.4,10.1-3.2,15.7
					l0,0.2l-0.1,0.1C103.5,241.6,78.7,261.7,71.9,261.7z M100.2,217.2c-0.5,0-1,0.1-1.5,0.2c-5.7,1.5-26,13-27.7,14.6
					c-1.1,1.1-3.1,17.2-1.5,25.1c0.4,2.1,1.1,3.3,1.9,3.7c0.2,0.1,0.3,0.1,0.6,0.1c5.9,0,29.5-18.6,31.8-20.8
					c0.4-2.8,2.1-14.8,3.4-16.1c0.1-0.1,0.2-0.7-0.2-1.8C106.2,220.3,103.6,217.2,100.2,217.2z"/>
			</g>
			<g>
				<path class="partners-st3" d="M171.8,223.6V219c0,0-18.5-1-24.1,0c-5.6,1-24.9,6-30,6c-5.1,0-10.3-2.2-13.9,1.4
					c-3.6,3.6-3.2,11.4-1.9,14.5c1.3,3.1,2.2,6.7,2.2,6.7h58.3l11.1-6l1.9-5.1L171.8,223.6z"/>
				<path class="partners-st6" d="M162.4,248h-58.7l-0.1-0.3c0,0-1-3.6-2.2-6.6c-1.3-3.2-1.8-11.1,2-15c1.5-1.5,3.4-2.2,6-2.2
					c1.3,0,2.6,0.2,4,0.3c1.4,0.2,2.8,0.3,4.3,0.3c3.4,0,13-2.2,20.8-4c3.9-0.9,7.3-1.7,9.2-2c1.7-0.3,4.6-0.4,8.8-0.4
					c7.1,0,15.3,0.4,15.4,0.4l0.4,0v5l3.6,12.9l-0.1,0.1l-2,5.3l-0.1,0.1L162.4,248z M104.4,247.1h57.8l10.9-5.8l1.8-4.8l-3.6-12.8
					v-4.2c-1.8-0.1-8.8-0.4-14.9-0.4c-4.1,0-7,0.1-8.6,0.4c-1.8,0.3-5.2,1.1-9.1,2c-7.8,1.8-17.5,4-21,4c-1.5,0-3-0.2-4.4-0.4
					c-1.4-0.2-2.6-0.3-3.9-0.3c-2.3,0-4,0.6-5.3,1.9c-3.5,3.5-3,11.1-1.9,14C103.2,243.2,104.1,246.1,104.4,247.1z"/>
			</g>
			<g>
				<path class="partners-st3" d="M76.5,257.7c0,0-1.8-24.9-5-26c-3.2-1.1-9.5,12.1-7.8,26.3C65.4,272.1,76.5,257.7,76.5,257.7z"/>
				<path class="partners-st6" d="M67.7,264.6L67.7,264.6c-2.4,0-3.9-2.2-4.4-6.6c-1.4-11.6,2.5-22.1,5.5-25.5c1-1.2,2.1-1.6,2.9-1.3
					c3.3,1.2,5,22.2,5.3,26.4l0,0.2l-0.1,0.1C76.6,258.2,71.7,264.6,67.7,264.6z M71.1,232.1c-0.5,0-1.1,0.4-1.7,1.1
					c-3,3.4-6.5,13.9-5.3,24.8c0.5,3.9,1.6,5.8,3.5,5.8c3.2,0,7.6-5.3,8.3-6.2c-0.7-9.5-2.6-24.7-4.7-25.4
					C71.3,232.1,71.2,232.1,71.1,232.1z"/>
			</g>
			<g>
				<polygon class="partners-st3" points="170.4,218.2 170.4,223.8 192.6,223.8 182.1,217.5 170.5,217.5 				"/>
				<path class="partners-st6" d="M194.2,224.3h-24.3v-6.1l0.1-1.2h12.2L194.2,224.3z M170.8,223.4h20.1l-9-5.5h-11.1l0,0.3L170.8,223.4z"/>
			</g>
			<g>
				<rect x="162.9" y="222.7" class="partners-st3" width="31.9" height="26.3"/>
				<path class="partners-st6" d="M195.2,249.5h-32.8v-27.2h32.8V249.5z M163.3,248.6h31v-25.4h-31V248.6z"/>
			</g>
			<g>
				<polygon class="partners-st3" points="190.2,246.3 190.2,229.3 178.3,229.3 175.5,226.5 164,226.5 164,234.6 183.2,254.2 				"/>
				<path class="partners-st6" d="M183.2,254.8l-19.6-20V226h12.1l2.8,2.9h12.2v17.6L183.2,254.8z M164.5,234.4l18.7,19.1l6.6-7.3v-16.4
					h-11.6l-2.8-2.9h-10.8V234.4z"/>
			</g>
			<g>
				<path class="partners-st4" d="M189,269.6l-26.2-34.1c0,0-11.3-0.7-17.5,0.7c-6.2,1.5-17.8,5.1-24.7,5.1c-6.9,0-17-2.8-25.1,2.3
					c-8,5.1-17.3,9.9-19,14.6c-1.7,4.7,7.4,25.3,11.9,25.3c4.5,0,52.6,4.4,53.4,4.4c0.9,0,39.4-1,39.4-1l11.1-11.1L189,269.6z"/>
				<path class="partners-st6" d="M141.9,288.4c-0.3,0-3.9-0.3-11.3-1c-14.6-1.3-39-3.4-42.1-3.4c-1.3,0-2.8-1.3-4.6-3.8
					c-4.4-6.3-9-18.4-7.7-22.1c1.4-4,7.7-7.8,14.4-11.9c1.6-1,3.2-1.9,4.7-2.9c3.4-2.1,7.4-3.1,12.6-3.1c2.5,0,4.8,0.2,7.2,0.4
					c2,0.2,3.9,0.3,5.6,0.3c5.2,0,13-2.1,19.3-3.7c2-0.5,3.8-1,5.3-1.4c2.6-0.6,6.4-0.9,11.2-0.9c3.6,0,6.5,0.2,6.5,0.2l0.2,0
					l0.1,0.2l26.2,34.1l3.7,6.6l-11.5,11.5l-0.2,0C179.8,287.5,142.8,288.4,141.9,288.4z M107.9,241.1c-5,0-8.9,1-12.1,3
					c-1.6,1-3.2,2-4.7,2.9c-6.5,4-12.7,7.8-14,11.4c-1.1,3.1,3.1,14.8,7.6,21.2c2.1,3,3.4,3.5,3.9,3.5c3.2,0,27.6,2.1,42.2,3.4
					c6.1,0.5,10.9,1,11.2,1c0.8,0,36.4-0.9,39.2-1l10.8-10.8l-3.3-6l-26-33.8c-0.7,0-3.2-0.2-6.2-0.2c-4.7,0-8.5,0.3-11,0.9
					c-1.5,0.4-3.3,0.8-5.3,1.4c-6.3,1.7-14.2,3.8-19.5,3.8c-1.7,0-3.6-0.2-5.6-0.4C112.7,241.3,110.3,241.1,107.9,241.1z"/>
			</g>
			<g>
				<polygon class="partners-st3" points="205.4,260.1 205.4,243.2 200.3,243.2 200.3,247 197.8,247 197.8,243.4 192,243.4 192,246.8
					189.8,246.8 189.8,243.2 181.9,243.2 181.9,253.6 197.1,268.8 206,262.2 				"/>
				<path class="partners-st6" d="M197,269.4l-0.3-0.3l-15.3-15.3v-11h8.9v3.6h1.3v-3.4h6.6v3.6h1.7v-3.8h6v17.3l0.6,2.3L197,269.4z
					 M182.3,253.4l14.8,14.8l8.4-6.3l-0.5-1.8v-16.5h-4.2v3.8h-3.5v-3.6h-4.8v3.4h-3.1v-3.6h-7.1V253.4z"/>
			</g>
			<g>
				<polygon class="partners-st3" points="193,262.1 162.9,222.7 162.9,237.5 188.2,270.7 				"/>
				<path class="partners-st6" d="M188.2,271.6l-25.8-33.9v-16.3l31.1,40.6L188.2,271.6z M163.3,237.4l24.8,32.6l4.3-7.8l-29.1-38V237.4z"/>
			</g>
			<g>
				<rect x="188.1" y="261.4" class="partners-st3" width="7" height="15"/>
				<path class="partners-st6" d="M195.6,276.8h-7.9v-15.9h7.9V276.8z M188.6,275.9h6.1v-14.1h-6.1V275.9z"/>
			</g>
			<g>
				<path class="partners-st3" d="M180.4,279.5c0,0-51-0.4-58.6-0.4c-7.6,0-36.2-12.3-37.5-12.8c-1.4-0.5-12.1-6.4-12.1-6.4s-1.4-6.1-4.2-6.1
					c-2.8,0-5,0.9-5,4c0,3.2,0,14.3,0,14.3s14.3,12.3,29.2,18.2c15,5.8,30.6,4.8,31.7,3.8c1-1,9.2,6.8,25.2,1.1
					c15.9-5.7,25.1-2.8,25.1-2.8L180.4,279.5z"/>
				<path class="partners-st6" d="M137.7,297.9c-5.7,0-9.6-1.7-11.9-2.7c-0.8-0.3-1.4-0.6-1.7-0.6c-0.6,0.6-4.2,0.9-7.1,0.9
					c-4,0-14.3-0.4-25-4.6c-14.9-5.8-29.2-18.1-29.4-18.2l-0.2-0.1V258c0-3,1.8-4.5,5.4-4.5c2.9,0,4.3,5.1,4.6,6.2
					c3.7,2.1,10.8,5.9,11.9,6.2c0.2,0.1,1.1,0.4,2.5,1c7.1,2.9,28.5,11.8,34.9,11.8c7.6,0,58.1,0.4,58.7,0.4l0.7,0l-6.8,14l-0.4-0.1
					c0,0-2.3-0.7-6.5-0.7c-3.9,0-10.2,0.6-18.3,3.5C145.2,297.2,141.4,297.9,137.7,297.9z M124.1,293.6c0.5,0,1.1,0.3,2.1,0.7
					c2.3,1,6,2.6,11.5,2.6c3.5,0,7.3-0.7,11.1-2.1c8.3-3,14.7-3.6,18.6-3.6c3.4,0,5.5,0.4,6.4,0.6l5.8-12c-6.2,0-50.9-0.4-57.9-0.4
					c-6.5,0-27.4-8.6-35.2-11.8c-1.3-0.5-2.2-0.9-2.5-1c-1.4-0.5-11.7-6.2-12.2-6.4l-0.2-0.1l0-0.2c-0.4-1.6-1.7-5.7-3.7-5.7
					c-3.1,0-4.5,1.1-4.5,3.6V272c1.6,1.4,15.1,12.5,29,17.9c10.6,4.1,20.8,4.5,24.7,4.5c4.2,0,6.2-0.4,6.5-0.6
					C123.7,293.7,123.9,293.6,124.1,293.6z"/>
			</g>
			<g>
				<path class="partners-st3" d="M85.7,264.7C85.7,264.7,85.7,264.7,85.7,264.7c0-0.1,0-0.1,0-0.2l0-0.4l0,0c-0.2-4.6-4-8.2-8.6-8.2
					c-3.9,0-7.2,2.6-8.3,6.2l0,0c0,0-5.6,16.4-4.4,19.1c1.2,2.7,12.5,11.2,21.9,5.4L85.7,264.7z"/>
				<path class="partners-st6" d="M79.2,289.1c-7.3,0-14.2-5.3-15.3-7.6c-1.3-2.7,3.8-17.7,4.3-19.4l0.1-0.3l0,0c1.3-3.7,4.7-6.1,8.6-6.1
					c4.7,0,8.6,3.6,9.1,8.3l0,0l0.1,1l0.6,22.1l-0.2,0.1C84.3,288.4,81.8,289.1,79.2,289.1z M69,262.6c-2.2,6.5-5.1,16.6-4.3,18.4
					c0.8,1.8,7.3,7.1,14.4,7.1c2.4,0,4.6-0.6,6.6-1.8l-0.6-21.7c0-0.1,0-0.1,0-0.2l0-0.3c-0.2-4.4-3.8-7.8-8.2-7.8
					c-3.6,0-6.8,2.3-7.8,5.8L69,262.6L69,262.6z"/>
			</g>
			<g>
				<path class="partners-st3" d="M122.7,270c-0.1-0.4-0.2-0.8-0.3-1.1c-0.1-0.3-0.1-0.5-0.2-0.7c0-0.1-0.1-0.2-0.1-0.3c0,0,0,0,0-0.1
					c0,0,0,0,0,0c-1.4-3-4.4-5.1-7.9-5.1c-4.4,0-8,3.3-8.6,7.5l0,0c0,0-4.5,18.8-2.7,24c1.8,5.2,17.3,9,23.7,0.2
					C126.5,294.4,124.1,276.4,122.7,270z"/>
				<path class="partners-st6" d="M114.9,300.1L114.9,300.1c-5.8,0-11.4-2.6-12.5-5.8c-1.8-5.3,2.5-23.5,2.7-24.2l0.1-0.3
					c0.8-4.3,4.5-7.6,9-7.6c3.6,0,6.8,2.1,8.3,5.4l0,0l0,0c0,0.1,0.1,0.2,0.1,0.2l0,0.1c0.1,0.2,0.1,0.4,0.2,0.7
					c0.1,0.4,0.2,0.8,0.3,1.2c1.4,6.3,3.8,24.2,3.8,24.3l0,0.2l-0.1,0.1C124.3,298.1,120.1,300.1,114.9,300.1z M105.9,270.5
					c-0.5,1.9-4.3,18.8-2.7,23.5c1,2.8,6.3,5.1,11.7,5.1l0,0c2.8,0,7.9-0.6,11.1-5c-0.3-1.9-2.5-18.1-3.8-24.1
					c-0.1-0.4-0.1-0.7-0.3-1.1c-0.1-0.3-0.1-0.5-0.2-0.7l-0.1-0.3c-1.3-3-4.3-4.9-7.5-4.9c-4.1,0-7.6,3.1-8.1,7.1L105.9,270.5z"/>
			</g>
			<g>
				<path class="partners-st3" d="M169,272.9C169,272.9,168.9,272.9,169,272.9c-0.5-5.1-4.8-9.1-10-9.1c-4.9,0-9,3.5-9.9,8.2c0,0,0,0,0,0
					c-1.1,3-2,22.7-0.7,24c11,8.5,22-6.8,22-6.8L169,272.9z"/>
				<path class="partners-st6" d="M155.3,299.1C155.3,299.1,155.3,299.1,155.3,299.1c-2.6,0-5-0.9-7.3-2.6c-1.6-1.6-0.5-21.2,0.5-24.5v-0.1
					l0.1,0c1-4.9,5.3-8.4,10.3-8.4c5.3,0,9.7,3.9,10.4,9.2l0.1,0l0,0.3l1.4,16.5l-0.1,0.1C170.4,289.9,163.7,299.1,155.3,299.1z
					 M149.4,272.3c-1.1,3.5-1.8,22.3-0.8,23.4c2.1,1.6,4.4,2.4,6.7,2.4c7.4,0,13.7-7.9,14.5-9.1l-1.4-16.1c-0.5-5-4.6-8.7-9.5-8.7
					c-4.6,0-8.6,3.3-9.5,7.9L149.4,272.3z"/>
			</g>
			<g>
				<path class="partners-st3" d="M182.1,188.4l-1.6-16.8c0,0-0.9-4.7-4.7-4.7c-3.9,0-9.4,0-9.4,0s-2.9,0.6-3.3,3.3c-0.4,2.7-0.4,7.2-0.4,7.2
					h6.4v11.3h13.1L182.1,188.4z"/>
				<path class="partners-st6" d="M182.9,189.1h-14.3v-11.3h-6.4v-0.5c0-0.2,0-4.6,0.4-7.3c0.4-3,3.6-3.7,3.7-3.7l9.5,0
					c4.2,0,5.2,5.1,5.2,5.1l1.5,16.8L182.9,189.1z M169.6,188.2h12l-1.5-16.6c0-0.1-0.8-4.3-4.3-4.3h-9.4c0,0-2.5,0.6-2.9,2.9
					c-0.3,2.2-0.4,5.5-0.4,6.7h6.4V188.2z"/>
			</g>
			<g>
				<rect x="310.5" y="143.8" class="partners-st5" width="7.3" height="7.1"/>
				<path class="partners-st6" d="M318.3,151.4h-8.2v-8h8.2V151.4z M311,150.5h6.4v-6.2H311V150.5z"/>
			</g>
			<g>
				<rect x="209.7" y="117" class="partners-st3" width="7.3" height="7.1"/>
				<path class="partners-st6" d="M217.4,124.6h-8.2v-8h8.2V124.6z M210.1,123.7h6.4v-6.2h-6.4V123.7z"/>
			</g>
			<g>
				<rect x="112.8" y="198.6" class="partners-st5" width="7.3" height="7.1"/>
				<path class="partners-st6" d="M120.5,206.2h-8.2v-8h8.2V206.2z M113.2,205.3h6.4v-6.2h-6.4V205.3z"/>
			</g>
			<g>
				<circle class="partners-st3" cx="114.1" cy="275.7" r="3.2"/>
				<path class="partners-st6" d="M114.1,279.4c-2,0-3.7-1.6-3.7-3.7s1.6-3.7,3.7-3.7c2,0,3.7,1.6,3.7,3.7S116.1,279.4,114.1,279.4z
					 M114.1,273c-1.5,0-2.8,1.2-2.8,2.8c0,1.5,1.2,2.8,2.8,2.8c1.5,0,2.8-1.2,2.8-2.8C116.9,274.2,115.6,273,114.1,273z"/>
			</g>
			<g>
				<circle class="partners-st3" cx="158.4" cy="275.7" r="3.2"/>
				<path class="partners-st6" d="M158.4,279.4c-2,0-3.7-1.6-3.7-3.7s1.6-3.7,3.7-3.7c2,0,3.7,1.6,3.7,3.7S160.4,279.4,158.4,279.4z
					 M158.4,273c-1.5,0-2.8,1.2-2.8,2.8c0,1.5,1.2,2.8,2.8,2.8s2.8-1.2,2.8-2.8C161.1,274.2,159.9,273,158.4,273z"/>
			</g>
			<g>
				<circle class="partners-st3" cx="76.4" cy="266.9" r="3.2"/>
				<path class="partners-st6" d="M76.4,270.6c-2,0-3.7-1.6-3.7-3.7c0-2,1.6-3.7,3.7-3.7c2,0,3.7,1.6,3.7,3.7C80,269,78.4,270.6,76.4,270.6z
					 M76.4,264.2c-1.5,0-2.8,1.2-2.8,2.8c0,1.5,1.2,2.8,2.8,2.8c1.5,0,2.8-1.2,2.8-2.8C79.1,265.4,77.9,264.2,76.4,264.2z"/>
			</g>
			<g>
				<ellipse class="partners-st3" cx="171.8" cy="173.4" rx="2.5" ry="2.8"/>
				<path class="partners-st6" d="M171.8,176.7c-1.6,0-2.9-1.5-2.9-3.3s1.3-3.3,2.9-3.3s2.9,1.5,2.9,3.3S173.4,176.7,171.8,176.7z M171.8,171
					c-1.1,0-2,1.1-2,2.4c0,1.3,0.9,2.4,2,2.4c1.1,0,2-1.1,2-2.4C173.8,172.1,172.9,171,171.8,171z"/>
			</g>
			<g>
				<path class="partners-st4" d="M223.6,183c-1.1-0.3-5.6,0.5-6.6,0.5c-0.2,0-0.5,0-0.7,0l0.1,0c0,0-1.9,0-3.2,0s-4,0.6-5.3,0.6
					c-1.3,0-3.8,3-4.3,3c-0.5,0-4.4,4.4-4.4,4.4s1.4,2.4,2.5,3.6c1.2,1.2,1.1,1.1,4.1,1.1c3,0,2.6-1.3,3.5-1.3c0.6,0,1.4-0.9,1.9-2
					c1,0.3,2.2,0.5,2.8,0.5c1.2,0,2.2,0.5,4.1-0.5c1.9-1,1.8-1.8,2.5-5.2c0.7-3.5,4.5-4,4.5-4S224.7,183.3,223.6,183z"/>
			</g>
		</g>
		<g>
			<path class="partners-st2" d="M595.3,38.1C553,66.3,514.1,79.2,479.5,82.9L320,205.8L90,382.9c11.7,24.7,25.5,50.3,41.9,76.8L320,310.3
				L605.3,83.7C601.3,54.3,595.3,38.1,595.3,38.1z"/>
		</g>
		<g>
			<g>
				<path class="partners-st3" d="M611.7,1.2C440.4,115.4,320,0,320,0S199.6,115.4,28.3,1.2c0,0-162.6,331.4,291.7,722.4
					C774.3,332.7,611.7,1.2,611.7,1.2z M44.7,38.1C206.4,145.9,320,30.3,320,30.3s44.1,44.9,116.5,52.6L320,172.6L78.9,358.3
					C-2.8,167,44.7,38.1,44.7,38.1z M90,382.9l230-177.2L479.5,82.9c34.5-3.7,73.5-16.6,115.8-44.8c0,0,6,16.2,10,45.6L320,310.3
					L131.9,459.7C115.5,433.3,101.7,407.6,90,382.9z M320,683.4C244.4,613.1,188,545.4,146.1,482L320,343.8l288.3-229
					C614.6,223.9,583.8,437.9,320,683.4z"/>
			</g>
		</g>
		<g>
			<path class="partners-st7" d="M436.5,82.9C364.1,75.2,320,30.3,320,30.3S206.4,145.9,44.7,38.1c0,0-47.5,128.9,34.2,320.2L320,172.6
				L436.5,82.9z"/>
		</g>
		<g>
			<path class="partners-st7" d="M605.3,83.7c-4.1-29.4-10-45.6-10-45.6C553,66.3,514.1,79.2,479.5,82.9L320,205.8L90,382.9
				c11.7,24.7,25.5,50.3,41.9,76.8L320,310.3L605.3,83.7z"/>
		</g>
		<g>
			<path class="partners-st7" d="M320,343.8L146.1,482C188,545.4,244.4,613.1,320,683.4c263.8-245.5,294.6-459.6,288.3-568.6L320,343.8z"/>
		</g>
		<g>
			<g>
				<circle class="partners-st8" cx="314.1" cy="260.7" r="86.5"/>
				<path class="partners-st6" d="M314.1,348.3c-48.3,0-87.6-39.3-87.6-87.6c0-48.3,39.3-87.6,87.6-87.6c48.3,0,87.6,39.3,87.6,87.6
					C401.7,309,362.4,348.3,314.1,348.3z M314.1,175.3c-47.1,0-85.3,38.3-85.3,85.3c0,47.1,38.3,85.3,85.3,85.3
					c47.1,0,85.3-38.3,85.3-85.3C399.5,213.6,361.2,175.3,314.1,175.3z"/>
			</g>
			<g>
				<path class="partners-st6" d="M229.1,246.8l-0.1-2.7c78.3-3.4,91.7-69.1,91.8-69.7l2.7,0.5C323.3,175.5,309.5,243.2,229.1,246.8z"/>
			</g>
			<g>
				<path class="partners-st6" d="M312.5,347.7l-2.6-0.9c8.5-24.5,25.1-56.6,56.1-70c18.6-8.1,33.4-5.6,34.1-5.5l-0.5,2.7
					C399,273.9,341.2,264.8,312.5,347.7z"/>
			</g>
			<g>
				<path class="partners-st6" d="M372.8,323.1c-0.1-1.1-3.4-26.1-27.5-30.2l0.5-2.7c26,4.4,29.7,32.3,29.7,32.5L372.8,323.1z"/>
			</g>
			<g>
				<path class="partners-st6" d="M325.1,317.9c-0.6-0.1-64.2-7.1-63-78.9l2.7,0c-0.5,29.1,9.5,50.7,29.7,64.4c15.1,10.2,30.6,11.8,30.8,11.8
					L325.1,317.9z"/>
			</g>
		</g>
		<g>
			<g>
				<path class="partners-st1" d="M121.9,379l12.8-10l32,20.9l0.1-0.1l-13.1-35.7l12.8-10l32.4,41.5l-8.5,6.7l-23-29.4l-0.1,0.1l12.8,37.3
					l-7,5.5l-32.9-21.1l-0.1,0.1l22.8,29.1l-8.5,6.7L121.9,379z"/>
			</g>
			<g>
				<path class="partners-st1" d="M188.1,326.7l9.4-7.3l48,29.3l-9.5,7.4l-10.4-6.8l-15.5,12.1l4,11.8l-9.2,7.2L188.1,326.7z M207.1,352.8
					l10.7-8.4l-17.1-11.1l-0.1,0.1L207.1,352.8z"/>
			</g>
			<g>
				<path class="partners-st1" d="M216.6,304.4l9.1-7.1l26.5,33.8l20.2-15.8l6,7.7l-29.3,23L216.6,304.4z"/>
			</g>
			<g>
				<path class="partners-st1" d="M265.1,265.9l9.4-7.3l48,29.3l-9.5,7.4l-10.4-6.8L287,300.7l4,11.8l-9.2,7.2L265.1,265.9z M284.1,292
					l10.7-8.4l-17.1-11.1l-0.1,0.1L284.1,292z"/>
			</g>
			<g>
				<path class="partners-st1" d="M354.5,255.5c0,6.6-2.9,11.5-6.9,14.6c-12.8,10-27.9,6.4-37.2-5.6c-9.6-12.3-9.6-27.8,3.3-37.9
					c8.5-6.6,20.6-7.7,28.9,1l-8.7,6.8c-4.6-3.8-9.9-3.5-14.2-0.1c-8.2,6.4-5.8,15.8-0.1,23c5.4,6.9,13.9,11.5,22.1,5.1
					c5.9-4.6,6.9-10.5,2.9-16.7l-9.2,7.2l-5.3-6.8l17.4-13.6l17.5,22.4l-5.8,4.5L354.5,255.5z"/>
			</g>
			<g>
				<path class="partners-st1" d="M354.5,196.6l9.4-7.3l48,29.3l-9.5,7.4l-10.4-6.8l-15.5,12.1l4,11.8l-9.2,7.2L354.5,196.6z M373.6,222.7
					l10.7-8.4l-17.1-11.1l-0.1,0.1L373.6,222.7z"/>
			</g>
			<g>
				<path class="partners-st1" d="M437.2,155.3c-3.8-3.7-10.2-3.7-14.7-0.2c-8.2,6.4-5.8,15.8-0.1,23c5.4,6.9,13.9,11.5,22.1,5.1
					c5.6-4.4,5.7-10.7,2.1-16.7l8.8-6.9c7.2,11.1,5.2,23.3-5,31.2c-12.8,10-27.9,6.4-37.3-5.6c-9.6-12.3-9.6-27.8,3.3-37.8
					c9.1-7.1,21-7.8,29.6,0.9L437.2,155.3z"/>
			</g>
			<g>
				<path class="partners-st1" d="M466.4,162.3l9.1-7.1l7,8.9l-9.1,7.1L466.4,162.3z"/>
			</g>
			<g>
				<path class="partners-st1" d="M459.8,115.3l29.2-22.8l6,7.7l-20,15.7l7.5,9.6l17.4-13.6l5.5,7.1l-17.4,13.6l13.4,17.1l-9.1,7.1
					L459.8,115.3z"/>
			</g>
			<g>
				<path class="partners-st1" d="M513,125.1l9.1-7.1l7,8.9l-9.1,7.1L513,125.1z"/>
			</g>
		</g>
		<g>
			<g>
				<path class="partners-st6" d="M298.5,62.9h16.7v1.7h-7.3v19.3h-2V64.6h-7.3V62.9z"/>
			</g>
			<g>
				<path class="partners-st6" d="M323,62.9h2.9l7.3,18.4l7.2-18.4h2.9v21h-2V65.7h-0.1l-7.2,18.2h-1.9L325,65.7H325v18.2h-2V62.9z"/>
			</g>
		</g>
	</g>
</g>
</svg>
