<?xml version="1.0" encoding="utf-8"?>
<!-- Generator: Adobe Illustrator 19.1.0, SVG Export Plug-In . SVG Version: 6.00 Build 0)  -->
<svg version="1.1"
	 id="svg2" xmlns:svg="http://www.w3.org/2000/svg" xmlns:dc="http://purl.org/dc/elements/1.1/" xmlns:cc="http://web.resource.org/cc/" xmlns:inkscape="http://www.inkscape.org/namespaces/inkscape" xmlns:rdf="http://www.w3.org/1999/02/22-rdf-syntax-ns#" xmlns:sodipodi="http://sodipodi.sourceforge.net/DTD/sodipodi-0.dtd" xmlns:ns="http://creativecommons.org/ns#" inkscape:version="0.45.1" sodipodi:docname="Man_Utd_FC_.svg" sodipodi:version="0.32" inkscape:output_extension="org.inkscape.output.svg.inkscape" sodipodi:docbase="C:\Documents and Settings\Tom Parry-Jones\Desktop"
	 xmlns="http://www.w3.org/2000/svg" xmlns:xlink="http://www.w3.org/1999/xlink" x="0px" y="0px" width="610px" height="618.1px"
	 viewBox="0 87.9 610 618.1" style="enable-background:new 0 87.9 610 618.1;" xml:space="preserve">
<defs>
	
	
		<inkscape:perspective  id="perspective10" inkscape:vp_x="0 : 526.18109 : 1" sodipodi:type="inkscape:persp3d" inkscape:vp_y="0 : 1000 : 0" inkscape:vp_z="744.09448 : 526.18109 : 1" inkscape:persp3d-origin="372.04724 : 350.78739 : 1">
		</inkscape:perspective>
	
		<inkscape:perspective  id="perspective2410" inkscape:vp_x="0 : 526.18109 : 1" sodipodi:type="inkscape:persp3d" inkscape:vp_y="0 : 1000 : 0" inkscape:vp_z="744.09448 : 526.18109 : 1" inkscape:persp3d-origin="372.04724 : 350.78739 : 1">
		</inkscape:perspective>
</defs>
<sodipodi:namedview  bordercolor="#666666" inkscape:cy="195.83368" id="base" inkscape:zoom="1" borderopacity="1.0" inkscape:cx="507.30657" pagecolor="#ffffff" showgrid="false" objecttolerance="10" guidetolerance="10" gridtolerance="10000" inkscape:current-layer="layer1" inkscape:window-width="1280" inkscape:pageshadow="2" inkscape:window-x="-4" inkscape:window-y="-4" inkscape:pageopacity="0.0" inkscape:document-units="px" inkscape:window-height="744">
	</sodipodi:namedview>
<g id="layer1" transform="translate(820.46069,-248.47534)" inkscape:label="Layer 1" inkscape:groupmode="layer">
	<g id="g2436" transform="matrix(0,1.25,1.25,0,115.77125,686.26093)">
	</g>
	<g id="g2980" transform="matrix(6.9057435,0,0,6.9057435,-1330.2772,-3302.3867)">
		<g id="g2448" transform="matrix(0,1.25,1.25,0,122.36125,600.04968)">
			<path id="path2450" d="M10.2,0c0.8-0.3,2.9-1.2,2.9-3.4c0-2.5-2.7-3.3-2.8-3.4L10-6.9c0,0,0.2,2.2,0.2,3.3c0,1.2-0.1,3.2-0.2,3.6
				H10.2"/>
		</g>
		<g id="g2452" transform="matrix(0,1.25,1.25,0,130.59125,598.37468)">
			<path id="path2454" d="M10.2,0l0.1,0.5c1.6-0.6,3.4-1.7,3.4-3.9c0-2.1-1.2-3.1-2-3.6l-0.2-0.3C11.4-7.3,11.3-3.7,10.2,0"/>
		</g>
		<g id="g2456" transform="matrix(0,1.25,1.25,0,105.7575,598.37468)">
			<path id="path2458" d="M10.2,0l0.1-0.5c1.6,0.6,3.4,1.7,3.4,3.9c0,2.1-1.3,3.2-2,3.7l-0.2,0.2C11.4,7.3,11.3,3.7,10.2,0"/>
		</g>
		<g id="g2460" transform="matrix(0,1.25,1.25,0,120.3225,600.26843)">
			<path id="path2462" style="fill:#FFF200;" d="M10.2,0c0.5-0.3,0.5-0.6,0.5-1c0-0.2,0.2-0.5,0.5-0.5c0.2,0,0.4,0.2,0.4,0.5
				c0,0.8-1,1.3-1.5,1.5c0,0,0,0.4,0,0.6c0,0,2.3-0.8,2.3-2.8s-2.3-2.9-2.3-2.9s0.1,1.7,0.1,2.7C10.2-0.9,10.2-0.3,10.2,0"/>
		</g>
		<g id="g2464" transform="matrix(0,1.25,1.25,0,130.22625,598.95843)">
			<path id="path2466" style="fill:#FFF200;" d="M10.2,0c0.4-1.3,0.7-2.3,0.9-4.5c0,0,0.2,0.1,0.2,0.6c0,0.2-0.1,0.2-0.1,0.3
				c0,0.1,0.1,0.4,0.3,0.3C11.8-3.4,12-3.5,12-4s-0.4-1.1-0.8-1.4c0,0,0.1-0.3,0.1-0.6c0,0,1.3,0.9,1.3,2.8
				C12.6-1.1,10.8-0.3,10.2,0"/>
		</g>
		<g id="g2468" transform="matrix(0,1.25,1.25,0,128.515,600.59593)">
			<path id="path2470" style="fill:#FFDF00;" d="M10.2,0C9.9,0,9.6-0.1,9.3-0.3C9.5-1,9.6-1.8,9.8-3c0,0,0.1,0,0.1,0
				C10-3,10-2.8,10-2.6C10-2.4,10-2.4,10-2.3c0,0.1,0.1,0.3,0.3,0.3c0.2,0,0.4-0.2,0.4-0.7c0-0.1,0-0.3-0.1-0.4
				c0.2,0.1,0.4,0.2,0.6,0.3c0.1,0.3,0.1,0.6,0.1,0.9c0,0.7-0.2,1.2-0.5,1.6C10.7-0.1,10.4,0,10.2,0"/>
		</g>
		<g id="g2472" transform="matrix(0,1.25,1.25,0,128.47875,600.59593)">
			<path id="path2474" style="fill:#FFE100;" d="M10.2,0C9.9,0,9.6-0.1,9.3-0.3C9.5-1,9.6-1.8,9.8-3c0.1,0,0.1,0,0.1,0
				C10-2.9,10-2.8,10-2.5C10-2.4,10-2.3,10-2.2c0,0.1,0.1,0.4,0.3,0.3c0.2,0,0.4-0.2,0.4-0.7c0-0.1,0-0.2-0.1-0.4
				c0.2,0.1,0.4,0.2,0.6,0.3c0.1,0.3,0.1,0.6,0.1,0.9c0,0.7-0.2,1.2-0.4,1.6C10.7-0.1,10.4,0,10.2,0"/>
		</g>
		<g id="g2476" transform="matrix(0,1.25,1.25,0,128.47875,600.59593)">
			<path id="path2478" style="fill:#FFE300;" d="M10.2,0C9.9,0,9.6-0.1,9.3-0.3C9.5-1,9.6-1.8,9.8-2.9c0.1,0,0.1,0,0.1,0
				C10-2.9,10-2.8,10-2.5C10-2.4,10-2.3,10-2.2c0,0.1,0.1,0.4,0.3,0.3c0.2,0,0.4-0.2,0.4-0.7c0-0.1,0-0.2-0.1-0.3
				c0.2,0.1,0.4,0.2,0.6,0.3c0.1,0.3,0.1,0.6,0.1,0.8c0,0.6-0.2,1.1-0.4,1.5C10.7-0.1,10.4,0,10.2,0"/>
		</g>
		<g id="g2480" transform="matrix(0,1.25,1.25,0,106.08625,598.95843)">
			<path id="path2482" style="fill:#FFF200;" d="M10.2,0c0.4,1.3,0.7,2.3,0.9,4.5c0,0,0.2-0.1,0.2-0.6c0-0.2-0.1-0.2-0.1-0.3
				c0-0.1,0.1-0.3,0.3-0.3C11.8,3.3,12,3.5,12,4s-0.4,1.1-0.8,1.4c0,0,0.1,0.3,0.1,0.6c0,0,1.3-1,1.3-2.8C12.6,1.1,10.8,0.3,10.2,0"
				/>
		</g>
		<g id="g2484" transform="matrix(0,1.25,1.25,0,117.92,585.26593)">
			<path id="path2486" style="fill:#FFF200;" d="M10.2,0c0,7.1-4.3,14.9-10.6,20.5c-0.7,0.6-2,1.6-2,4c0,2.4,2.2,5.6,6.2,5.2
				c2.9-0.3,9.5-4.4,13.5-11.5c4-7.1,4.9-13.6,4.9-18.2c0-4.5-0.9-11.1-4.9-18.2c-4-7.1-10.6-11.2-13.5-11.5c-4-0.4-6.2,2.8-6.2,5.2
				c0,2.4,1.3,3.4,2,4C5.8-15,10.2-7.1,10.2,0"/>
		</g>
		<g id="g2488" transform="matrix(0,1.25,1.25,0,117.92,584.97593)">
			<path id="path2490" d="M10.2,0c0,3.4-1,7-2.9,10.5c-1.9,3.6-4.5,7-7.7,9.8c-0.3,0.3-0.8,0.7-1.3,1.4c-0.4,0.7-0.8,1.5-0.8,2.8
				c0,0.1,0,0.3,0,0.4c0.1,1.2,0.7,2.4,1.7,3.4c1,1,2.4,1.7,4.1,1.7c0.2,0,0.4,0,0.6,0c1.7-0.1,4.5-1.5,7.4-4
				c2.2-1.9,4.5-4.5,6.3-7.7c2-3.6,3.3-7,4-10.1c0.7-3.1,0.9-5.9,0.9-8.2c0-2.3-0.2-5.1-0.9-8.2c-0.7-3.1-2-6.5-4-10.1
				c-1.8-3.1-4.1-5.7-6.3-7.7c-2.9-2.4-5.7-3.8-7.4-4c-0.2,0-0.4,0-0.6,0c-1.8,0-3.2,0.7-4.1,1.7c-1,1-1.5,2.3-1.7,3.4
				c0,0.1,0,0.3,0,0.4c0,1.3,0.3,2.2,0.8,2.8c0.4,0.6,0.9,1,1.3,1.4c3.2,2.8,5.9,6.2,7.7,9.8C9.1-7.1,10.2-3.4,10.2,0z M10.7,0
				c0-3.5-1-7.3-2.9-10.7c-1.9-3.7-4.6-7.1-7.8-9.9C-0.4-21-0.9-21.4-1.2-22c-0.4-0.6-0.7-1.4-0.7-2.5c0-0.1,0-0.3,0-0.4
				c0.1-1,0.6-2.2,1.5-3.1c0.9-0.9,2.2-1.5,3.8-1.5c0.2,0,0.4,0,0.6,0c1.6,0.1,4.3,1.5,7,3.9c2.2,1.9,4.5,4.4,6.2,7.5
				c2,3.5,3.2,6.9,3.9,10C21.9-5,22.1-2.3,22.1,0c0,2.2-0.2,5-0.9,8.1c-0.7,3.1-1.9,6.5-3.9,10c-1.8,3.1-4,5.6-6.2,7.5
				c-2.8,2.4-5.5,3.7-7,3.9c-0.2,0-0.4,0-0.6,0c-1.6,0-2.9-0.6-3.8-1.5c-0.9-0.9-1.4-2.1-1.5-3.1c0-0.1,0-0.2,0-0.3
				c0-1.2,0.3-2,0.7-2.6c0.4-0.6,0.8-1,1.2-1.3c3.2-2.8,5.9-6.3,7.8-9.9C9.6,7.2,10.7,3.5,10.7,0"/>
		</g>
		<g id="g2492" transform="matrix(0,1.25,1.25,0,91.3025,572.74093)">
			<path id="path2494" style="fill:#E20E0E;" d="M10.2,0L10.2,0C9.5-0.6,8.6-1.4,8.6-3.3c0-1.1,0.6-2.3,1.5-3.1
				c0.7-0.6,1.8-1.3,3.6-1.1c2.4,0.2,8.8,4.1,12.7,11c3.2,5.6,4.8,11.5,4.8,17.7c0,6.1-1.6,12.1-4.8,17.7
				c-3.9,6.9-10.3,10.8-12.7,11c-1.8,0.2-2.9-0.5-3.6-1.1c-0.9-0.8-1.5-2-1.5-3.1c0-1.9,0.9-2.7,1.5-3.2l0.1-0.1
				c6.8-5.9,11-14.1,11-21.2C21.2,14.1,17,5.9,10.2,0"/>
		</g>
		<g id="g2496" transform="matrix(0,1.25,1.25,0,146.43,562.76343)">
			<path id="path2498" style="fill:#FFF200;" d="M10.2,0C6.8,0,4,2.8,4,6.1c0,3.4,2.8,6.2,6.2,6.2s6.2-2.8,6.2-6.2
				C16.4,2.8,13.6,0,10.2,0"/>
		</g>
		<g id="g2500" transform="matrix(0,1.25,1.25,0,146.1025,562.76343)">
			<path id="path2502" d="M10.2,0C8.4,0,6.8,0.7,5.6,1.9C4.5,3,3.8,4.7,3.8,6.4c0,1.8,0.7,3.4,1.9,4.5c1.2,1.2,2.8,1.9,4.5,1.9
				c1.8,0,3.4-0.7,4.5-1.9c1.2-1.1,1.9-2.8,1.9-4.5c0-1.7-0.7-3.4-1.9-4.5C13.6,0.7,12,0,10.2,0z M10.2,0.5c1.6,0,3.1,0.7,4.2,1.7
				s1.7,2.5,1.7,4.2c0,1.7-0.6,3.1-1.7,4.2c-1.1,1.1-2.6,1.7-4.2,1.7c-1.6,0-3.1-0.6-4.2-1.7C4.9,9.5,4.3,8.1,4.3,6.4
				c0-1.6,0.7-3.1,1.7-4.2C7.1,1.2,8.6,0.5,10.2,0.5"/>
		</g>
		<g id="g2504" transform="matrix(0,1.25,1.25,0,74.11625,562.80093)">
			<path id="path2506" style="fill:#FFF200;" d="M10.2,0C6.8,0,4,2.8,4,6.2s2.8,6.2,6.2,6.2s6.1-2.8,6.1-6.2S13.6,0,10.2,0"/>
		</g>
		<g id="g2508" transform="matrix(0,1.25,1.25,0,73.825,562.80093)">
			<path id="path2510" d="M10.2,0C8.4,0,6.8,0.7,5.6,1.9S3.7,4.6,3.7,6.4S4.5,9.8,5.6,11s2.8,1.9,4.5,1.9c1.7,0,3.4-0.7,4.5-1.9
				c1.1-1.2,1.9-2.8,1.9-4.5S15.9,3,14.7,1.9C13.6,0.7,11.9,0,10.2,0z M10.2,0.5c1.6,0,3.1,0.7,4.2,1.7c1.1,1,1.7,2.5,1.7,4.2
				c0,1.6-0.7,3.1-1.7,4.2s-2.5,1.7-4.2,1.7c-1.6,0-3.1-0.6-4.2-1.7S4.3,8,4.3,6.4c0-1.6,0.6-3.1,1.7-4.2C7.1,1.2,8.6,0.5,10.2,0.5"
				/>
		</g>
		<g id="g2512" transform="matrix(0,1.25,1.25,0,156.225,542.04593)">
			<path id="path2514" style="fill:#00000F;fill-opacity:0.9412;" d="M10.2,0L8.5,0.1c0.4,0.5,0.4,1.5-0.2,2
				C8.1,2.3,7.6,2.5,7.2,2.4c-0.5,0-1-0.2-1.3-0.6c-2-2.1-4-3.9-4-3.9C1.5-2.3,1.3-2.6,1.2-2.7C1.1-3,0.7-3.9,1.7-4.6
				C2.6-5.2,4-5.1,4.5-5l2.7,2C8-2.4,9.7-0.5,10.2,0"/>
		</g>
		<g id="g2516" transform="matrix(0,1.25,1.25,0,104.3375,520.56218)">
			<path id="path2518" style="fill:#231F20;" d="M10.2,0C9.4,2.4,8.7,4.7,8.4,7.7L10.2,0"/>
		</g>
		<g id="g2520" transform="matrix(0,1.25,1.25,0,104.3375,520.56218)">
			<path id="path2522" d="M10.2,0C9.4,2.4,8.7,4.7,8.4,7.7L8.2,8.2c-1.3-1.7-2.2-3.4-2.2-5c0-1,0.7-3.2,4.5-3.6L10.2,0"/>
		</g>
		<g id="g2524" transform="matrix(0,1.25,1.25,0,131.50125,520.56218)">
			<path id="path2526" d="M10.2,0C9.4-2.4,8.7-4.7,8.4-7.7L8.2-8.2c-1.3,1.7-2.2,3.4-2.2,5c0,1,0.7,3.2,4.5,3.6L10.2,0"/>
		</g>
		<g id="g2528" transform="matrix(0,1.25,1.25,0,115.4075,517.90468)">
			<path id="path2530" style="fill:#231F20;" d="M10.2,0c0,0.5-0.1,1.6-0.1,2.1c0,0.5,0.1,1.7,0.1,2L10.2,0"/>
		</g>
		<g id="g2532" transform="matrix(0,1.25,1.25,0,114.46,518.19468)">
			<path id="path2534" d="M10.2,0C7.8,1.2,7,2.4,7,3c0,0.8,1.2,1.7,2.8,2.4l0.4,0.1l-0.1-0.6C10,4.5,10,3.3,10,2.9s0-1.5,0-2.1
				L10.2,0"/>
		</g>
		<g id="g2536" transform="matrix(0,1.25,1.25,0,111.4375,588.10718)">
			<path id="path2538" style="fill:#FFF200;" d="M10.2,0l4.1-1.1l-5-2.1L9-4.4L14.8-6l0.3,1.4L11-3.5l5,2.1l0.3,1.2l-5.8,1.6L10.2,0
				"/>
		</g>
		<g id="g2540" transform="matrix(0,1.25,1.25,0,117.41,589.01718)">
			<path id="path2542" style="fill:#FFF200;" d="M10.2,0l-0.1-1.6l6-0.3l0.1,1.6L10.2,0"/>
		</g>
		<g id="g2544" transform="matrix(0,1.25,1.25,0,119.19375,588.94468)">
			<path id="path2546" style="fill:#FFF200;" d="M10.2,0L11,0.1l-0.2,1.7l5.2,0.7l-0.2,1.6l-5.2-0.7L10.3,5L9.5,4.9L10.2,0"/>
		</g>
		<g id="g2548" transform="matrix(0,1.25,1.25,0,139.585,585.88468)">
			<path id="path2550" style="fill:#FFF200;" d="M10.2,0c1.3,0.8,2.3,0.6,3-0.6l0.3-0.6L9.7-3.3L9.3-2.7C8.5-1.3,9.2-0.5,10.2,0z
				 M8.6-3.1l1.2-2l5.2,3l-1.2,2c-1.2,2.1-3,2.3-4.5,1.5C7.6,0.4,7.5-1.2,8.6-3.1"/>
		</g>
		<g id="g2552" transform="matrix(0,1.25,1.25,0,130.955,593.16843)">
			<path id="path2554" style="fill:#FFF200;" d="M10.2,0L8.3-0.6L7.7,1.2L7,0.9l0.6-1.8L6-1.3L5.4,0.5L4.6,0.2l1.1-3.3l5.7,1.9
				l-1.2,3.7L9.5,2.2L10.2,0"/>
		</g>
		<g id="g2556" transform="matrix(0,1.25,1.25,0,102.335,584.86593)">
			<path id="path2558" style="fill:#FFF200;" d="M10.2,0l3.2-1.8c1-0.5,1.6-1.1,1.1-2c-0.5-0.9-1.3-0.7-2.2-0.1L9-2.2L8.2-3.6
				l3.4-1.9c1.9-1,3,0.3,3.6,1.3c0.6,1.1,1,2.7-0.8,3.7L11,1.4L10.2,0"/>
		</g>
		<g id="g2560" transform="matrix(0,1.25,1.25,0,101.06,540.62468)">
			<path id="path2562" style="fill:#FFF200;" d="M10.2,0h28.2l8.7,13.5L38.4,27H10.2c-0.4-0.4-1.2-1.3-1.7-2V2C9,1.4,10,0.2,10.2,0"
				/>
		</g>
		<g id="g2564" transform="matrix(0,1.25,1.25,0,101.35125,540.62468)">
			<path id="path2566" d="M10.2,0h28.1l8.5,13.3l-8.5,13.2h-28V27l28.2,0h0.1l0.1-0.1l8.7-13.5l0.1-0.1l-0.1-0.1L38.6-0.4l-0.1-0.1
				H10.2V0"/>
		</g>
		<g id="g2568" transform="matrix(0,1.25,1.25,0,134.55875,540.95343)">
			<path id="path2570" style="fill:#231F20;" d="M10.2,0c-0.1-0.1,0,0-0.1-0.1C9.6-0.6,8.9-1.4,8.6-2L8.1-1.7
				c0.4,0.6,1.1,1.4,1.5,1.9c0,0-0.1-0.1,0.1,0.1L10.2,0"/>
		</g>
		<path id="path2572" d="M103.5,551v0.7h28.7V551H103.5z"/>
		<g id="g2574" transform="matrix(0,1.25,1.25,0,103.6825,538.87718)">
			<path id="path2576" style="fill:#231F20;" d="M10.2,0c0.2-0.3,0.5-0.7,0.8-1c0.3-0.4,0.7-0.8,0.8-0.9l-0.3-0.4
				c-0.1,0.1-0.5,0.5-0.8,1C10.3-1,10-0.6,9.8-0.3L10.2,0"/>
		</g>
		<g id="g2578" transform="matrix(0,1.25,1.25,0,119.08375,555.73718)">
			<path id="path2580" style="fill:#E20E0E;" d="M10.2,0c-0.1-0.1,0.2-0.4,0.5-0.6c0.2-0.1,0.6-0.2,0.7,0c0.1,0.2,0,0.5-0.4,0.6
				C10.7,0,10.2,0.1,10.2,0z M10.9-2.6c0.4,0.1,0.5,0.3,0.4,0.6c-0.1,0.2-0.4,0.2-0.7,0c-0.3-0.1-0.5-0.5-0.5-0.6
				C10.2-2.7,10.7-2.6,10.9-2.6z M14.6-1.2c-0.7,0.5-1.5,0.6-1.5,0.6v-1.3C13.1-1.9,13.9-1.7,14.6-1.2z M9.1-1l-1.8,1l1.8,0.8v1.3
				c0.8-0.8,1.9-1.1,2.7-1.1h0.8c0.3,0,0.9-0.2,0.9-0.2s0.9,1.2,1,1.3c0.1,0.1,0.1,0.2,0.3,0.1c0.3-0.1,0.6-0.9,0.7-1
				c0.1-0.2,0.2-0.2,0.4-0.2c0.1,0.1,0.2,0.2,0.1,0.5c-0.1,0.3-0.4,0.9-0.6,1.5c-0.2,0.5-0.2,1.3-0.2,1.3h-1v-2h-3.3l-0.6-0.3L8.7,3
				l1.6,0.9l0.6-0.3h1.7v1h-1.7l-0.6-0.4L8.7,5.1L10.3,6l0.6-0.3h1.7v1h-1.7l-0.6-0.3L8.7,7.2l1.6,0.9l0.6-0.3h3.3v-2h1.5
				c0.4,0.4,1.4,0.9,2,0.9c0.6,0,0.8-0.4,0.8-0.4c0.5,0.1,0.7,0.1,1.1,0.1c0.4-0.1,1.1-0.6,1.1-0.6h7.8c0.6,0,0.5-1.2,0-1.2h-7.6
				c-0.8-0.7-1.3-2.6-1.3-2.6c0.7-0.7,1.9-1.1,1.9-1.1c0.2,0.3,0,0.8-0.2,1c-0.2,0.2-0.3,0.5-0.1,0.7c0.1,0.2,0.2,0.3,0.5,0.2
				c0.3-0.1,0.8-0.2,1.2-0.2c0.3,0,0.3,0.4,0.3,0.7c0,0.6,0.7,0.7,1.1,0.7c0.4-0.1,1.2-0.2,1.7-0.2c0.5,0,1,0,1.3,0.1
				c0.3,0,0.6,0.1,0.9,0.1c0.5,0,0.6-0.3,0.3-0.6c-0.3-0.3-4.9-4.6-4.9-4.6c0.9-0.3,2.5,0.9,3,1.3c0.5,0.4,0.8,0.3,1.2,0
				c0.4-0.3,0.5-1,0.8-1.1c0.3-0.1,1.2,0.3,2.4,1.2c1.1,0.9,1.9-1,2.1-2.2c0.2-1.2-0.6-1.2-1-1.1c-0.4,0.1-0.7,0.1-1.1,0.1
				c-0.4,0-0.9-0.4-1.5-0.9c-0.6-0.5-1.2-0.5-2.7-0.3c-1.5,0.2-2.4,0.1-2.4,0.1s0-0.5,0-1.2c0-0.8-0.5-1.4-2.2-1.4
				c-1.8,0-6.1-0.1-6.5-0.2C15-7.2,15-7.7,14.9-7.9c-0.1-0.2-0.4-0.2-0.5,0c-0.3,0.5-0.9,1.2-1.3,0.9c-0.4-0.2-0.3-1.2,0-1.8
				c0.3-0.6,1-1.3,1.1-1.5c0.2-0.2,0.2-0.3,0-0.3c-0.2,0-1.2-0.1-1.5-0.2c-0.3-0.1-1-0.4-1.2-0.5c-0.2-0.1-0.2,0-0.2,0.2
				c0.1,0.2,0.2,0.5,0.3,0.9c0.1,0.4-0.1,0.7-0.4,0.9c-0.3,0.1-1,0.5-1.4,0.6C9.6-8.5,9.7-8.2,9.7-8C9.8-7.7,9.9-7.5,10-7.3
				c0.1,0.2,0.1,0.4,0,0.4C9.9-6.8,9.8-6.8,9.6-6.6c-0.3,0.1-0.1,0.3,0,0.3c3.7,0.6,3.8,2.2,3.8,2.2C14-4.4,15-5,15.2-5.1
				c0.2-0.1,0.6-0.2,0.8-0.2c0.3,0,2.7,0.1,3.6,0.3c0.9,0.2,0.6,0.7,0.3,0.9c-0.3,0.2-1.4,0.7-1.4,0.7s-0.3,0.1-0.6,0.1
				c-0.2,0-0.8-0.4-1-0.6c-0.1-0.1-0.5-0.5-1.3-0.5c-0.8,0-1.5,0.8-1.7,1C13.7-3,13.3-3,13.2-3.1c-0.7-0.1-2-0.8-2.6-1.2
				C10-4.6,9-5.2,9-5.2v1.4L7.2-3L9-2L9.1-1z M18.3,4.5h-1c0,0-0.4-0.3-0.4-1c0-0.7,0.2-1.1,0.4-1.1C17.5,2.4,18.3,3,18.3,4.5"/>
		</g>
		<path id="path2582" style="fill:#E20E0E;" d="M102.4,562.2v2.1h31.1v-2.1H102.4z"/>
		<path id="path2584" style="fill:#E20E0E;" d="M102.4,552.6v8.4h31.1v-8.4H102.4z"/>
		<g id="g2586" transform="matrix(0,1.25,1.25,0,127.35,548.59968)">
			<path id="path2588" style="fill:#FFF200;" d="M10.2,0H9v-1.8H8.3v1.5H5v-1.4L4.1-2.2L5-2.6V-4h3.3v1.5H9V-6H8.3v1.5H5v-1.4
				L4.1-6.4L5-6.8v-1.4h3.3v1.5H9v-3.6H8.3v1.5H5v-1.4l-0.9-0.5L5-11.1v-1.3h3.3v1.5H9l0-2.9l-0.7-2.9l1.8,0.6V0"/>
		</g>
		<g id="g2590" transform="matrix(0,1.25,1.25,0,107.72375,546.15968)">
			<path id="path2592" style="fill:#FFF200;" d="M10.2,0l0.5,1.9l-2.9,1H7L10.2,0"/>
		</g>
		<g id="g2594" transform="matrix(0,1.25,1.25,0,113.47625,518.12218)">
			<path id="path2596" style="fill:#FFF200;" d="M10.2,0c0.3-3,0.9-4.8,1.7-7.2c-1,0.2-1.6,0.4-2.2,0.8c0.5,0,1.1,0.4,1.1,1.3
				s-0.5,1.3-0.8,1.3c-0.3,0-0.7-0.2-0.7-0.6S9.5-5,9.7-4.9c0.1,0,0.2-0.1,0.2-0.2c0-0.1-0.2-0.5-0.6-0.4C8.7-5.3,8.4-4.7,8.4-4
				C8.4-4,8.4-2.2,10.2,0"/>
		</g>
		<g id="g2598" transform="matrix(0,1.25,1.25,0,131.355,520.27093)">
			<path id="path2600" style="fill:#FFF200;" d="M10.2,0C9.4-2.4,8.8-4.3,8.5-7.3c-1,1.3-1.7,2.6-1.7,4c0,0.7,0.3,1.3,0.8,1.5
				C8-1.6,8.2-2,8.2-2.1C8.1-2.2,8.1-2.3,8-2.3c-0.1,0-0.5-0.1-0.5-0.5c0-0.5,0.4-0.7,0.7-0.7C8.5-3.5,9-3,9-2.1
				c0,0.8-0.6,1.3-1.1,1.3C8.5-0.4,9.2-0.2,10.2,0"/>
		</g>
		<g id="g2602" transform="matrix(0,1.25,1.25,0,115.735,517.43093)">
			<path id="path2604" style="fill:#FFF200;" d="M10.2,0c0.1-0.1,0.2-0.1,0.4-0.2c0,0.5-0.1,1.6-0.1,2.1c0,0.5,0.1,1.7,0.1,2
				C9.6,3.3,8.1,2.5,8.1,2c0-0.1-0.1-0.4,0.5-0.8c0,0,0.2-0.1,0.2,0.2C8.8,1.7,9.2,1.9,9.4,1.8c0.5-0.1,0.9-0.6,0.9-1.1
				S10.2,0,10.2,0"/>
		</g>
		<g id="g2606" transform="matrix(0,1.25,1.25,0,83.5825,538.22218)">
			<path id="path2608" d="M10.2,0L7.5,2C7,2.1,5.7,2.2,4.8,1.5c-1-0.7-0.6-1.6-0.5-1.9C4.3-0.5,4.5-0.8,4.9-1c0,0,2.1-1.9,4.1-4
				c0.3-0.3,0.8-0.6,1.3-0.6c0.4,0,0.9,0.2,1.2,0.4C12-4.6,12-3.6,11.6-3.1l1.7,0C12.8-2.5,11-0.7,10.2,0"/>
		</g>
		<g id="g2610" transform="matrix(0,1.25,1.25,0,117.92,533.37968)">
			<path id="path2612" style="fill:#FFF200;" d="M10.2,0c0,11.1,10.4,17.4,12.3,18.8c3.3,2.4,5.9,5.4,5,8.9
				c-1.3,5.1-8.9,4.8-8.9,4.8c-0.9-1.2-2-3.3-7.4-7.1C5.9,21.6-2,13.2-2,0c0-13.2,7.9-21.7,13.2-25.4c5.4-3.8,6.5-5.9,7.4-7.1
				c0,0,7.6-0.3,8.9,4.8c0.9,3.5-1.8,6.5-5,8.9C20.6-17.4,10.2-11.1,10.2,0"/>
		</g>
		<g id="g2614" transform="matrix(0,1.25,1.25,0,117.92,533.08843)">
			<path id="path2616" d="M10.2,0c0,10.3,8.9,16.5,11.7,18.6c0.3,0.2,0.5,0.4,0.6,0.4c1.6,1.2,3.1,2.6,4,4c0.9,1.4,1.3,3,0.9,4.6
				c-1.2,4.5-7.5,4.7-8.5,4.7c-0.1-0.1-0.1-0.2-0.2-0.3c-0.9-1.3-2.3-3.4-7.2-6.8C8.5,23,4.6,19.3,1.9,14c-2-3.8-3.4-8.5-3.4-14
				c0-5.5,1.4-10.2,3.4-14c2.7-5.3,6.6-9,9.7-11.2c4.9-3.4,6.3-5.5,7.2-6.8c0.1-0.1,0.1-0.2,0.2-0.3c1,0,7.3,0.1,8.5,4.6
				c0.4,1.7,0,3.2-0.9,4.7c-1,1.5-2.4,2.8-4,4c-0.1,0.1-0.3,0.3-0.6,0.4C19-16.5,10.2-10.3,10.2,0z M10.7,0
				c0-10.1,8.7-16.2,11.5-18.2c0.3-0.2,0.5-0.3,0.6-0.4c1.7-1.2,3.2-2.6,4.1-4.1c1-1.5,1.5-3.2,1-5c-1.4-5.3-9.1-5-9.1-5h-0.1
				l-0.1,0.1c-0.1,0.1-0.2,0.3-0.3,0.4c-0.8,1.3-2.2,3.3-7,6.6c-3.1,2.2-7.1,6-9.9,11.4C-0.6-10.4-2-5.6-2,0
				c0,5.6,1.4,10.3,3.4,14.2c2.8,5.4,6.8,9.2,9.9,11.4c4.8,3.4,6.2,5.4,7,6.7c0.1,0.1,0.2,0.3,0.3,0.4l0.1,0.1h0.1
				c0,0,7.7,0.3,9.1-5c0.4-1.8,0-3.5-1-5c-1-1.5-2.5-2.9-4.1-4.1c-0.1-0.1-0.3-0.3-0.6-0.4C19.4,16.2,10.7,10,10.7,0"/>
		</g>
		<g id="g2618" transform="matrix(0,1.25,1.25,0,117.92,532.14093)">
			<path id="path2620" style="fill:#E20E0E;" d="M10.2,0c0,10.7,9.1,17.1,12.1,19.2c0.2,0.1,0.4,0.3,0.6,0.4
				c3.8,2.8,5.3,5.4,4.7,7.9c-0.9,3.6-5.8,4-7.3,4.1h-0.1l0-0.1c-0.9-1.3-2.3-3.4-7.4-6.9C9.7,22.5,0,14.4,0,0
				c0-14.5,9.8-22.5,12.8-24.6c5-3.5,6.5-5.7,7.3-6.9l0,0h0.1c1.5,0,6.4,0.5,7.3,4c0.6,2.5-0.9,5.1-4.7,7.9
				c-0.1,0.1-0.4,0.3-0.6,0.4C19.3-17.1,10.2-10.7,10.2,0"/>
		</g>
		<g id="g2622" transform="matrix(0,1.25,1.25,0,89.1175,537.38468)">
			<path id="path2624" style="fill:#FFF200;" d="M10.2,0l1.3-1.1L15.8,1l-1.5-4.5l1.1-1l3.9,4.6l-0.8,0.7l-2.7-3.3L17.2,2l-0.5,0.5
				l-4.2-2.1l2.8,3.3l-1.2,1L10.2,0"/>
		</g>
		<g id="g2626" transform="matrix(0,1.25,1.25,0,96.4,536.25593)">
			<path id="path2628" style="fill:#FFF200;" d="M10.2,0l1.1-1l-2.1-1L10.2,0z M7.4-2.4l1.1-1l5.7,2.9l-0.8,0.7L12-0.6l-1.5,1.4
				l0.7,1.6L10,3.5L7.4-2.4"/>
		</g>
		<g id="g2630" transform="matrix(0,1.25,1.25,0,102.18875,526.02468)">
			<path id="path2632" style="fill:#FFF200;" d="M10.2,0l3.6,2.2l-1.9-5l0.7-1.1l5.1,3.2L17,0.5l-3.6-2.3l1.9,5.1l-0.7,1.1L9.4,1.2
				L10.2,0"/>
		</g>
		<g id="g2634" transform="matrix(0,1.25,1.25,0,126.0025,529.70218)">
			<path id="path2636" style="fill:#FFF200;" d="M10.2,0L8.4,0.6L9,2.4L8.2,2.7L7.6,0.9L6,1.4l0.6,1.8L5.9,3.5L4.7,0.2l5.7-2
				l1.3,3.7l-0.8,0.3L10.2,0"/>
		</g>
		<g id="g2638" transform="matrix(0,1.25,1.25,0,138.8925,529.22843)">
			<path id="path2640" style="fill:#FFF200;" d="M10.2,0l0.6-0.6l1.1,1.3l3.9-3.5l1,1.2L13,1.9l1.1,1.3l-0.6,0.5L10.2,0"/>
		</g>
		<g id="g2642" transform="matrix(0,1.25,1.25,0,141.04125,540.55218)">
			<path id="path2644" style="fill:#FFF200;" d="M10.2,0L8.9,1.5l1.4,1.2L9.8,3.3L8.4,2.1L7.3,3.4l1.5,1.3L8.3,5.2L5.6,3l3.9-4.6
				l3,2.5l-0.5,0.6L10.2,0"/>
		</g>
		<g id="g2646" transform="matrix(0,1.25,1.25,0,149.78,542.48343)">
			<path id="path2648" style="fill:#FFF200;" d="M10.2,0c0.5,0.4,1,0.4,1.4-0.1C12-0.6,12-1.1,11.5-1.6l-0.3-0.3L9.8-0.4L10.2,0z
				 M13.1-0.8c0,0,0.5,0.9-0.4,2C11.9,2,10.9,1.7,9.9,0.8L8.1-0.8l4-4.5l1.2,1l-1.6,1.8L12.3-2l2.5-1.1l1.1,1.3L13.1-0.8"/>
		</g>
		<g id="g2650" transform="matrix(0,1.25,1.25,0,120.43125,522.27343)">
			<path id="path2652" style="fill:#FFF200;" d="M10.2,0l2.5,0l-0.1-2.4l-2.4,0l0-1.6l6-0.1l0,1.6l-2.7,0l0,2.4l2.8-0.1l0,1.6
				l-6,0.1L10.2,0"/>
		</g>
		<g id="g2654" transform="matrix(0,1.25,1.25,0,131.17375,533.45218)">
			<path id="path2656" style="fill:#FFF200;" d="M10.2,0c0.7,1.1,0.6,2.4-0.4,2.9C9.1,3.3,8.6,3.3,7.6,2.9C7.3,2.7,7.1,2.5,6.9,2.4
				C6.5,2.2,6.1,2,5.8,2.2C5.5,2.4,5.4,2.9,5.7,3.3C6,3.8,6.4,4,6.7,4.1L6.5,4.8C5.8,4.6,5.3,4.3,4.9,3.5C4.1,2.2,4.3,1.2,5,0.7
				c0.7-0.4,1.3-0.3,2,0c0,0,0.4,0.2,0.6,0.3c0.5,0.3,1.1,0.6,1.5,0.4c0.5-0.3,0.6-0.8,0.3-1.3C9-0.4,8.5-0.6,8.1-0.7l0.3-0.8
				C9-1.3,9.7-0.9,10.2,0"/>
		</g>
		<g id="g2658" transform="matrix(0,1.25,1.25,0,110.6375,522.67343)">
			<path id="path2660" style="fill:#FFF200;" d="M10.2,0c0.4-2,1.9-3.3,3.8-2.8c1.1,0.2,3,1.2,2.4,4.2c-0.1,0.8-0.5,1.3-0.9,1.7
				l-0.6-0.6c0.2-0.2,0.6-0.5,0.7-1.2c0.3-1.4-0.9-2.3-1.9-2.5c-1.5-0.3-2.5,0.6-2.7,1.5c-0.1,0.7,0,1.1,0.1,1.4l-0.8,0.2
				C10.1,1.5,10,0.9,10.2,0"/>
		</g>
		<g id="g2662" transform="matrix(0,1.25,1.25,0,150.54375,535.19968)">
			<path id="path2664" style="fill:#FFF200;" d="M10.2,0C9.8-0.1,8.3-0.2,7.5,0.4C6.7,0.9,7,1.4,7.1,1.7c0,0.1,0.3,0.5,0.7,0.6
				c0.2,0,0.6,0,0.8-0.2c0.5-0.3,0.8-1.2,0.8-1.2s2.1,1.1,4.2,3.3h1.4C12.1,1,10.2,0,10.2,0"/>
		</g>
		<g id="g2666" transform="matrix(0,1.25,1.25,0,152.51,534.65343)">
			<path id="path2668" style="fill:#FFF200;" d="M10.2,0c0.5,0.3,1.8,1.1,3.6,3c0.3,0.3,0.6,1.1,0.1,1.6c-0.2,0.2-0.5,0.3-0.8,0.3
				c-0.4,0-0.8-0.2-1-0.5C11.7,4,10,2.3,8.7,1.1c0.2,0,0.6-0.2,0.6-0.2C9.6,0.7,9.9,0.6,10.2,0"/>
		</g>
		<g id="g2670" transform="matrix(0,1.25,1.25,0,80.305,541.20843)">
			<path id="path2672" style="fill:#FFF200;" d="M10.2,0H8.9C6.8,2.3,4.7,3.3,4.7,3.3S4.4,2.5,3.9,2.1C3.6,2,3.3,1.9,3,1.9
				C2.6,2,2.3,2.3,2.3,2.4C2.2,2.7,1.9,3.2,2.7,3.7C3.5,4.3,5,4.2,5.3,4.1C5.3,4.1,7.2,3,10.2,0"/>
		</g>
		<g id="g2674" transform="matrix(0,1.25,1.25,0,83.4375,534.65343)">
			<path id="path2676" style="fill:#FFF200;" d="M10.2,0c0.5-0.3,1.8-1.1,3.6-3c0.3-0.3,0.6-1.1,0.1-1.6c-0.2-0.2-0.5-0.3-0.8-0.3
				c-0.4,0-0.8,0.2-1,0.5C11.7-4,10-2.3,8.7-1.1c0.2,0,0.6,0.2,0.6,0.2C9.6-0.7,9.9-0.5,10.2,0"/>
		</g>
		<g id="g2678" transform="matrix(0,1.25,1.25,0,75.5725,562.83593)">
			<path id="path2680" style="fill:#E20E0E;" d="M10.2,0c-2.8,0-5,2.2-5,5c0,2.8,2.2,5,5,5c2.8,0,5-2.2,5-5C15.2,2.2,13,0,10.2,0"/>
		</g>
		<g id="g2682" transform="matrix(0,1.25,1.25,0,85.22125,558.32218)">
			<path id="path2684" style="fill:#FFF200;" d="M10.2,0c0.1,0.1,0.2,0.3,0.2,0.3c0.4,0.4,0.8,0.8,1.4,1c0.7,0.3,1.7-0.6,2-0.9
				c1.1-1.2,1.1-1.9,1.1-2.3c0.1-0.4-0.2-0.7-0.5-0.7c-0.9,0-2.5,0.7-2.8,0.9c-0.2,0.1-0.3,0.3-0.3,0.3c-0.1,0.4-0.3,0.8-0.6,1
				C10.5,0,10.2,0,10.2,0z M9.5-4.2c-0.1,0.5-0.3,1-0.3,1.5c0,0.8,0.1,1.5,0.6,2.2c0.1,0.2,0.2,0.2,0.4,0.2c0.6,0,0.8-0.9,0.8-1.5
				c0-0.6-0.3-1.4-0.4-1.9c-0.1-0.5-0.5-0.6-0.6-0.6S9.6-4.4,9.5-4.2z M16.7-6.2c-0.6-0.6-1.7-1.1-2.9-1.1c-0.4,0-0.9,0.1-1.3,0.2
				c0,0-0.2,0.1,0,0.2c0.1,0.1,0.2,0.2,0.4,0.3C13-6.5,13.4-6,13.7-6.1c1.1-0.2,2.6,0,2.8,0C16.8-6,16.9-6.1,16.7-6.2z M12.9-6.1
				c-0.1-0.2-0.7-0.5-0.8-0.6c-0.1-0.1-0.5-0.1-0.6,0C10.8-6.2,10.2-5.7,9.9-5c0,0.1,0,0.2,0.1,0.2c0.1,0,0.3,0.1,0.4,0.1
				c0.1,0,0.3,0.1,0.5-0.1c0.2-0.1,1.2-0.8,1.8-0.9C12.9-5.8,13.1-5.8,12.9-6.1z M18.3-2.6C18.3-2.7,18.3-2.7,18.3-2.6
				c0-0.9-0.3-1.8-0.6-2.4c-0.3-0.6-1.7-0.8-2.5-0.8c-2.4,0-3.8,1-4.1,1.1c-0.3,0.2-0.3,0.5-0.2,0.8c0.1,0.2,0.1,0.3,0.2,0.6
				c0.1,0.2,0.1,0.5,0.2,0.7c0.1,0.2,0.1,0.5,0.6,0.3c0.5-0.2,1.5-0.7,2.8-0.7c1.2-0.1,2.3,0.1,3,0.3C18.2-2.4,18.4-2.4,18.3-2.6z
				 M18.2-1.4c0.1-0.3-0.1-0.4-0.2-0.5c-0.5-0.5-2-0.6-2.2-0.6c-0.2,0-0.4,0.1-0.4,0.2c0,1.1-0.3,1.9-1,2.7c-0.6,0.7-1.3,1-1.4,1.1
				c-0.1,0.1-0.1,0.2,0.1,0.3c0.1,0,0.4,0.1,0.7,0.1C15.9,1.8,17.6,0.4,18.2-1.4"/>
		</g>
		<g id="g2686" transform="matrix(0,1.25,1.25,0,160.485,562.83593)">
			<path id="path2688" style="fill:#E20E0E;" d="M10.2,0c-2.8,0-5-2.2-5-5c0-2.8,2.2-5,5-5c2.8,0,5,2.2,5,5C15.2-2.2,13,0,10.2,0"/>
		</g>
		<g id="g2690" transform="matrix(0,1.25,1.25,0,151.1275,559.01343)">
			<path id="path2692" style="fill:#FFF200;" d="M10.2,0c0.3,0.2,0.4,0.6,0.6,1c0,0,0.1,0.2,0.3,0.3c0.3,0.2,1.9,0.8,2.8,0.9
				c0.3,0,0.6-0.3,0.5-0.7c-0.1-0.4-0.1-1.1-1.1-2.3c-0.2-0.3-1.3-1.2-2-0.9c-0.6,0.2-1,0.6-1.4,1c0,0-0.2,0.2-0.2,0.3
				C9.6-0.2,10-0.2,10.2,0z M9.4,4.2c0.1,0,0.5-0.1,0.6-0.6c0.2-0.6,0.4-1.3,0.4-1.9s-0.2-1.5-0.8-1.5c-0.2,0-0.3,0-0.4,0.2
				C8.8,1,8.7,1.7,8.7,2.5C8.7,3,8.8,3.5,9,4C9,4.1,9.3,4.2,9.4,4.2z M16,5.8c-0.2,0-1.7,0.2-2.8,0c-0.3-0.1-0.7,0.4-0.8,0.5
				c-0.2,0.1-0.3,0.2-0.4,0.3c-0.1,0.1,0,0.2,0,0.2C12.4,7,12.8,7,13.2,7c1.2,0,2.3-0.4,2.9-1.1C16.3,5.8,16.2,5.7,16,5.8z
				 M12.2,5.5c-0.6-0.1-1.7-0.8-1.8-0.9C10.2,4.5,10,4.5,9.9,4.5c-0.1,0-0.3,0.1-0.4,0.1c-0.2,0-0.2,0.1-0.1,0.2
				c0.3,0.7,0.9,1.2,1.6,1.6c0.1,0.1,0.5,0.1,0.6,0c0.2-0.1,0.7-0.3,0.8-0.6C12.5,5.6,12.4,5.6,12.2,5.5z M17.2,2.3
				c-0.7,0.3-1.9,0.4-3,0.3c-1.3-0.1-2.4-0.6-2.8-0.7c-0.4-0.1-0.5,0.1-0.6,0.3S10.7,2.8,10.6,3c-0.1,0.3-0.1,0.4-0.2,0.6
				c-0.1,0.3,0,0.6,0.2,0.8c0.3,0.1,1.7,1.1,4.1,1.1c0.7,0,2.2-0.2,2.5-0.8c0.3-0.6,0.6-1.5,0.6-2.3c0,0,0-0.1,0-0.1
				C17.8,2.1,17.6,2.1,17.2,2.3z M13.2-2.1C13-2.1,12.7-2,12.5-2c-0.2,0-0.2,0.2-0.1,0.3c0.1,0.1,0.8,0.4,1.4,1.1
				c0.6,0.8,0.9,1.5,1,2.7c0,0.1,0.2,0.2,0.4,0.2c0.2,0,1.6-0.1,2.2-0.6c0.1-0.1,0.3-0.2,0.2-0.5C17-0.7,15.3-2.1,13.2-2.1"/>
		</g>
		<g id="g2694" transform="matrix(0,1.25,1.25,0,147.95875,562.80093)">
			<path id="path2696" style="fill:#FFE600;" d="M10.2,0C8.8,0,7.5,0.6,6.6,1.5C5.7,2.4,5.1,3.6,5.1,5c0,1.4,0.6,2.7,1.5,3.6
				c0.9,0.9,2.2,1.5,3.6,1.5c1.4,0,2.7-0.6,3.6-1.5c0.9-0.9,1.5-2.2,1.5-3.6c0-1.4-0.6-2.7-1.5-3.6C12.9,0.6,11.6,0,10.2,0z
				 M10.2,0.1c1.4,0,2.7,0.6,3.6,1.5s1.5,2.2,1.5,3.5c0,1.4-0.6,2.6-1.5,3.5S11.6,10,10.2,10c-1.4,0-2.6-0.6-3.5-1.5
				C5.8,7.7,5.2,6.4,5.2,5c0-1.4,0.6-2.6,1.5-3.5C7.6,0.6,8.8,0.1,10.2,0.1"/>
		</g>
	</g>
</g>
<g>
	<path d="M488.6,672.7v9.5h-2.9v-21h7.5c3.5,0,7.2,1.1,7.2,5.3c0,2.5-1.5,4.5-4,5v0.1c2.5,0.6,2.9,1.9,3.2,4.3
		c0.3,2.1,0.5,4.3,1.3,6.3h-3.1c-0.3-1.3-0.6-2.6-0.8-3.9c-0.2-1.9-0.2-3.6-1.2-4.7c-0.9-1-2-0.9-3.2-1L488.6,672.7L488.6,672.7
		L488.6,672.7L488.6,672.7z M488.6,670.2h4.8c3.2-0.1,4-1.6,4-3.3s-0.7-3.1-4-3.3h-4.8V670.2z"/>
	<g>
		<g>
			<path d="M476.8,672c0,8.9,7.3,16.2,16.2,16.2s16.2-7.3,16.2-16.2s-7.3-16.2-16.2-16.2C484.1,655.8,476.8,663,476.8,672z M479,672
				c0-7.8,6.3-14,14-14c7.7,0,14,6.3,14,14s-6.3,14-14,14C485.3,686,479,679.7,479,672z"/>
		</g>
	</g>
</g>
</svg>
