<?xml version="1.0" encoding="utf-8"?>
<!-- Generator: Adobe Illustrator 19.1.0, SVG Export Plug-In . SVG Version: 6.00 Build 0)  -->
<svg version="1.1" id="Layer_1" xmlns="http://www.w3.org/2000/svg" xmlns:xlink="http://www.w3.org/1999/xlink" x="0px" y="0px"
	 width="650.01px" height="676.18px" viewBox="703.8 117.27 650.01 676.18"
	 style="enable-background:new 703.8 117.27 650.01 676.18;" xml:space="preserve">
<g id="Background" style="display:none;">
</g>
<g id="Foreground">
</g>
<g id="Layer_6">
</g>
<g id="New_Logo">
	<path style="fill:none;stroke:#FFFFFF;stroke-width:10;" d="M1028.8,122.27c144.48,0,240.78,54.45,240.78,54.45l-17.25,267.1
		c-8.09,92.38-29.75,156.93-68.61,199.18c-65.67,63.76-154.92,102.43-154.92,102.43S939.55,706.76,873.88,643
		c-38.86-42.3-60.48-106.79-68.61-199.18l-17.25-267.1C788.06,176.72,884.37,122.27,1028.8,122.27z"/>
	<path style="fill:none;stroke:#FFFFFF;stroke-width:10;stroke-miterlimit:3.8637;" d="M1114.81,721.36l-43.67-63.96l19.7-35.04
		c0,0,3.53-6.27,15.49-6.27c39.75,0,78.56,20.49,108.51,39.5c66.11,44.16,94.39,47.34,109,47.83c15.29-1.27,19.16-8.43,21.81-13.53"
		/>
	<g>
		<path style="fill:#FFFFFF;stroke:#FFFFFF;stroke-width:10;" d="M1297.03,698.67c5.59,1.72,10.34,2.79,14.41,3.48l17.74-21.61
			c0,0-5.88-1.91-12.2-6.86c-7.06-5.49-12.35-12.11-11.22-17.45c-1.67,4.26-2.25,8.38-2.01,13.38
			C1302.52,686.71,1297.03,698.67,1297.03,698.67z"/>
		<path style="fill:none;stroke:#FFFFFF;stroke-width:10;stroke-miterlimit:3.8637;" d="M1297.03,698.67
			c5.59,1.72,10.34,2.79,14.41,3.48l17.74-21.61c0,0-5.88-1.91-12.2-6.86c-7.06-5.49-12.35-12.11-11.22-17.45
			c-1.67,4.26-2.25,8.38-2.01,13.38C1302.52,686.71,1297.03,698.67,1297.03,698.67z"/>
	</g>
	<path style="fill:none;stroke:#FFFFFF;stroke-width:10;stroke-miterlimit:3.8637;" d="M1117.75,720.04l-40.97-60.23
		c0,0,1.47-2.4,13.43-2.4c39.75,0,78.56,20.49,108.51,39.5c66.11,44.16,88.76,50.58,103.41,51.07c6.81-0.74,14.56-0.74,21.27-14.56
		c2.94-5.64,23.87-46.27,23.87-46.27c1.76-3.92,3.63-9.51-4.41-19.75c-13.38-14.26-32.93-19.02-36.56-12.69
		c-2.7,5.59,2.94,12.99,10.73,19.02c6.32,4.95,12.2,6.86,12.2,6.86l-17.74,21.61"/>
	<path style="fill:none;stroke:#FFFFFF;stroke-width:10;stroke-miterlimit:3.8637;" d="M1138.58,666.42c0,0-3.77,2.25-2.4,4.02
		l16.32,20.49c0,0,3.87,4.31,2.84,10.98l-11.37,51.8c0,0-1.81,6.91-9.21,9.65c-17.35,7.84-60.48,25.09-105.91,25.09
		c-45.97,0-89.54-17.59-106.5-25.34c-7.25-3.87-8.63-9.85-8.63-9.85l-11.42-51.31c-1.03-6.67,2.84-10.98,2.84-10.98l16.32-20.49
		c1.37-1.76-2.5-3.97-2.5-3.97l5.1-1.81c0,0,4.66,2.94,2.45,7.06l-14.16,18.87c0,0-4.95,5.98-0.29,10.05
		c0,0,47.15,43.42,116.74,43.42s116.74-43.42,116.74-43.42c4.61-4.07-0.29-10.05-0.29-10.05l-14.16-18.87
		c-2.21-4.12,2.45-7.06,2.45-7.06L1138.58,666.42z"/>
	<g>
		<path style="fill:#FFFFFF;stroke:#FFFFFF;stroke-width:10;" d="M746.06,702.15l-17.59-21.61c0,0,5.88-1.91,12.2-6.86
			c7.74-6.03,13.09-13.77,10.34-19.46c2.35,4.95,3.14,9.61,2.89,15.34c1.23,17.1,6.71,29.06,6.71,29.06
			C755.08,700.33,750.13,701.46,746.06,702.15z"/>
		<path style="fill:#FFFFFF;stroke:#FFFFFF;stroke-width:10;stroke-miterlimit:3.8637;" d="M746.06,702.15l-17.59-21.61
			c0,0,5.88-1.91,12.2-6.86c7.74-6.03,13.09-13.77,10.34-19.46c2.35,4.95,3.14,9.61,2.89,15.34c1.23,17.1,6.71,29.06,6.71,29.06
			C755.08,700.33,750.13,701.46,746.06,702.15z"/>
	</g>
	<path style="fill:none;stroke:#FFFFFF;stroke-width:10;stroke-miterlimit:3.8637;" d="M939.85,720.04l40.97-60.23
		c0,0-1.47-2.4-13.43-2.4c-39.75,0-78.56,20.49-108.51,39.5c-66.11,44.16-88.76,50.58-103.41,51.07
		c-6.81-0.74-14.56-0.74-21.27-14.56c-2.94-5.64-23.87-46.27-23.87-46.27c-1.76-3.92-3.63-9.51,4.41-19.75
		c13.38-14.26,32.93-19.02,36.56-12.69c2.7,5.59-2.94,12.99-10.73,19.02c-6.32,4.95-12.2,6.86-12.2,6.86l17.84,21.76"/>
	<path style="fill:none;stroke:#FFFFFF;stroke-width:10;stroke-miterlimit:3.8637;" d="M942.89,721.36l43.67-63.96l-19.7-35.04
		c0,0-3.53-6.27-15.49-6.27c-39.75,0-78.56,20.49-108.51,39.5c-66.11,44.16-94.39,47.34-109,47.83
		c-15.29-1.27-19.16-8.43-21.81-13.53"/>
	<path style="fill:#FFFFFF;" d="M813.94,250.52l-3.92-61.21c10.49-4.9,27.74-12.3,50.68-19.7c40.48-13.09,98.46-26.17,168.05-26.17
		s127.57,13.13,168.05,26.17c22.94,7.4,40.24,14.8,50.68,19.7l-4.56,70.72l-11.76,182.17c-7.94,90.13-28.72,148.84-62.68,186.04
		c-31.02,29.99-67.93,54.45-97.48,71.55c-18.23,10.54-33.38,18.08-42.25,22.3c-8.87-4.21-24.01-11.81-42.25-22.3
		c-29.6-17.1-66.46-41.56-97.48-71.55c-33.91-37.2-54.69-95.96-62.63-186.04L813.94,250.52L813.94,250.52z"/>
	<path style="fill:#EF3E42;" d="M815.02,265.82l11.42,176.39c7.94,90.13,28.72,148.84,62.68,186.04
		c31.02,29.99,67.93,54.45,97.48,71.55c18.23,10.54,33.38,18.08,42.25,22.3c8.87-4.21,24.01-11.81,42.25-22.3
		c29.6-17.1,66.46-41.56,97.48-71.55c33.91-37.2,54.74-95.91,62.68-186.04l11.42-176.39c-10.64-4.75-26.12-11.08-45.73-17.45
		c-40.48-13.09-98.46-26.17-168.05-26.17c-69.59,0-127.57,13.13-168.05,26.17C841.09,254.74,825.61,261.06,815.02,265.82z
		 M1196.9,169.61c-40.53-13.04-98.51-26.17-168.1-26.17s-127.57,13.13-168.05,26.17c-22.94,7.4-40.24,14.8-50.68,19.7l4.56,70.72
		c10.64-4.8,26.22-11.17,46.12-17.59c40.48-13.09,98.46-26.17,168.05-26.17s127.57,13.13,168.05,26.17
		c19.9,6.42,35.48,12.84,46.12,17.59l4.56-70.72C1237.09,184.41,1219.84,177.06,1196.9,169.61z M1028.8,122.27
		c144.48,0,240.78,54.45,240.78,54.45l-17.25,267.1c-8.09,92.38-29.75,156.93-68.61,199.18
		c-65.67,63.76-154.92,102.43-154.92,102.43S939.55,706.76,873.88,643c-38.86-42.3-60.48-106.79-68.61-199.18l-17.25-267.1
		C788.06,176.72,884.37,122.27,1028.8,122.27z"/>
	<path style="fill:#EF3E42;" d="M919.07,377.12c-0.88-0.49-1.81-0.83-0.54-5.78c0.54-1.81,0-3.09-2.55-3.09c0,0-2.4,0.2-5.59,0.2
		c-11.37,0-14.07-5.29-14.07-5.29s-3.04-5.39,1.91-4.21c3.82,0.83,15.19-3.97,15.19-5.29c0-2.11-3.38-1.08-6.13-1.08
		c-2.45-0.2-5.83-1.76-11.37-3.97c-4.07-1.32-7.11-1.13-11.22,0.74c0,0-3.58,4.31-2.01-2.01c1.76-5.93,9.51-11.03,14.26-12.3
		c1.32-0.49-0.74-5.05-2.35-4.7c-2.21,0.34-4.75,2.84-8.33,2.7c0,0-5.05-0.49-6.81-3.14c-0.54-0.88-0.54-1.76-0.93-2.45
		c-0.88-1.72-1.72-2.89-1.42-4.36c0.29-1.37,0.98-1.91,1.72-2.94s1.57-2.55,2.4-3.23c1.86-1.47,5.88-0.15,6.32-0.88
		c1.08-3.23-8.33-2.5-10.83-3.43c-1.42-0.64-2.06-1.86-2.89-3.04c-0.74-1.03-1.81-2.5-1.96-3.48c-0.05-1.62,0.1-2.94,1.03-5.59
		c1.57-6.42,5.88-10.24,7.94-10.49c2.25-0.1,4.85,0,7.79-0.34c2.55-0.39-1.32-8.09,1.81-9.95c3.77-2.45,6.62,0.49,8.14,0.88
		c1.13,0.29,2.84,0.49,5.98,0.54c2.01-0.05,4.51,0.83,4.17,3.23c0,0-0.83,6.67,0.34,7.6c1.08,0.49,3.48-3.19,4.36-4.51
		c0.74-1.47,3.43-2.89,4.9-0.2c0,0,1.72,3.04,3.97,5.05c3.33,2.25,0.88,5.24,0.88,5.24s-3.92,4.9-9.41,4.9
		c-1.03,0.05-2.35,0.74-3.38,2.4c-0.88,2.11-1.13,17.79,2.6,19.95c4.46,2.6,12.94,5.39,19.95,9.12c7.79,4.26,10.29,7.94,14.11,13.04
		c3.09,3.58,14.11,4.46,15.54,5.59c0.74,0.78,0.1,6.57-15.73,15.73c-16.08,7.65-21.22,5.69-22.54,6.47
		C923.63,375.2,921.57,378.05,919.07,377.12z M1000.62,321.05c3.09,0.88,6.22-4.36,6.22-4.36s-1.27-2.16-4.95-2.25
		c-4.51,0.29-5.59,1.62-5.59,1.62S996.55,319.53,1000.62,321.05z M993.56,305.02c4.51-2.06,7.79-2.7,7.79-2.7s-0.98-1.47-3.19-0.83
		C994.64,302.77,993.56,305.02,993.56,305.02z M1028.41,274.15c0,0-3.58-1.37-8.28,0c-4.51,1.62-5.88,3.63-5.54,4.17
		c0.34,0.98,3.53,0.83,6.22,0.54C1025.66,278.21,1028.41,274.15,1028.41,274.15z M1001.7,343.4c-6.62,1.47-15.09,3.19-21.81,5.59
		c-6.22,2.6-10.83,5.15-16.91,11.76c-4.61,4.41-9.65,10.68-19.51,14.75c-7.06,2.79-11.47,7.16-11.47,8.23c0,0-0.98,2.25,0.54,1.27
		c0,0,2.6-2.06,7.69-2.6c5.15-0.44,9.31-0.34,9.31-0.34l1.08,1.08c0,0-6.13,4.07-9.65,9.61c-2.99,4.61-4.9,9.41-4.95,15.29
		c0,1.37,1.27,3.53,2.79,1.62c0,0,6.76-8.97,9.85-8.97c2.89,0,7.06,2.16,12.4,2.16c9.12,0,12.11-0.74,12.11-0.74l0.2,1.18
		c0,0-3.43,3.23-6.62,8.87c-2.01,3.72-3.77,7.84-4.26,13.38c-0.1,2.25,0.98,3.33,2.89,1.62c0,0,5.05-5.83,7.4-7.4
		c2.55-1.27,7.35-2.01,12.4-4.12c6.32-2.01,9.95-4.51,9.95-4.51l1.27,1.18c0,0-1.47,6.42-0.64,10.73c0.88,3.63,3.19,6.22,3.19,10.93
		c0,5.88-5.54,15-5.54,15l0.1,2.06c0,0,6.52-2.99,14.46-5.69c5.34-2.06,10.83-6.67,13.38-11.13c3.77-6.62,5.34-6.62,5.34-6.62
		s1.47,2.25,0.29,6.76c-1.91,5.98-3.87,10.59-3.87,13.72c0,0,0.74,0.34,1.62,0.88c6.42-8.48,12.84-8.77,20.68-18.53
		c9.95-14.21,8.04-29.85,8.04-29.85l0.74-0.74c0,0,2.6,0.88,4.7,1.27c2.65,0.29,5.24,0,8.33,0.83c3.09,1.08,3.97,3.09,4.36,4.9
		c0.44,2.06,0.83,6.32,1.91,11.37c0.44,2.01,1.62,2.16,2.89,0.88c1.18-1.27,7.25-8.23,10.49-22.59c1.18-6.52,0.44-11.03-3.63-16.37
		c-2.45-3.19-7.89-7.84-12.4-13.28c-2.99-3.77-4.7-7.94-3.72-13.09c0.44-2.35,1.91-2.06,3.63-1.18c1.08,0.54,2.06,0.74,2.06,0.74
		s5.24,0.98,10.29-1.91c7.84-5.24,9.21-12.3,9.21-12.3s-1.37-0.98-4.36,0.83c-0.98,0.54-2.25,1.62-4.51,1.08
		c-1.52-0.44-6.86-2.89-7.16-8.04c0,0-0.29-4.95-1.52-12.2c-1.18-7.5-2.45-10.83-2.45-10.83s-0.64-2.45,1.08-2.16
		c2.16,0.44,6.32,0.29,8.58-0.64c0,0,6.86-2.79,10.19-10.15c0.88-2.01,2.6-5.59,1.27-7.5c-0.83-0.98-4.26,1.72-8.04,2.45
		c-2.55,0.34-5.34,0-6.86-2.45c-0.74-1.18-2.55-3.23-3.87-6.22c-1.42-3.53-0.44-6.08-0.44-6.08s6.32-0.64,11.03-5.05
		c2.35-2.35,12.55-17.99,12.74-23.43c0-0.83-1.08-1.91-3.33-0.88c0,0-11.37,11.03-19.6,14.75c-6.96,2.25-11.76-2.6-11.76-2.6
		s5.24-2.89,11.37-7.25c3.97-2.99,7.06-6.67,7.06-11.47c0-1.81-0.44-2.99-2.7-1.18c0,0-8.33,4.9-14.21,6.86
		c-10.68,3.33-17.99,2.99-17.99,2.99s0.2-3.19,7.16-6.52c4.26-1.91,6.62-1.72,6.22-3.87c-0.2-0.88-1.42-2.16-3.09-3.19
		c0,0-8.04-3.09-17.01,5.34c-7.6,8.14-10.19,13.92-10.19,13.92s-7.25,0.74-14.8,3.23c-11.57,4.41-15.09,7.5-16.37,8.67
		c0,0-4.26,4.07-6.67,4.9c-3.87,1.18-7.06,0.88-11.47,1.08c-3.23,0-7.84,0.34-9.61,1.37c-1.37,0.83-3.43,1.62-5.54,5.78
		c-0.83,1.62-0.74,2.7-0.2,3.09c1.37,0.88,3.43,2.06,4.26,3.33c0.88,1.81,1.47,4.66,3.77,8.67c1.91,3.04,4.85,7.4,7.89,8.97
		c2.5,1.08,5.2,0.98,6.42,2.45c0,0-5.24,3.77-10.73,2.79c-3.14-0.78-7.4-3.43-10.19-11.42c-1.52-4.26-4.31-7.3-7.79-8.23
		c-2.79-0.44-7.06-0.2-11.81,3.04c-3.43,2.65-4.61,4.07-6.08,5.64c-1.47,1.72-3.43,4.9-2.55,7.01c0.69,1.37,2.45,2.94,5.24,2.94
		c2.06,0,4.31-1.08,7.35-3.19c1.81-1.23,4.26-2.25,5.83-2.25c2.74,0.2,4.21,10.88,12.6,15.63c5.83,2.84,13.38,2.25,13.38,2.25
		s1.91,1.08,1.91,3.87c0,1.62,0.74,3.87,1.42,4.85c-0.24,2.25-2.06,4.46-4.95,6.47c-1.32,0.98-2.01,2.4-2.01,2.4s2.4,2.89,9.85,1.27
		c4.51-1.13,9.26-4.56,9.26-4.56s1.13,0.69,0.49,2.16c-0.34,0.74-0.29,1.08,0.25,1.62c0.88,0.59,2.11,0.93,4.02,0.93
		c2.45,0,7.3-2.65,9.85-5.1c0.88-0.74,1.72,0.2,0.44,1.57C1013.56,336.93,1008.95,341.63,1001.7,343.4z M896.08,277.38
		c1.76,0.59,1.72,0.93,3.04,1.47c1.81,0.49,2.5,0.49,2.7-0.05c0.49-1.86,1.42-6.03,0.05-7.65c-2.7-2.74-8.43-3.23-9.31-1.86
		c-0.49,0.93-0.05,2.01,1.18,2.94C897.06,274.1,896.08,277.38,896.08,277.38z M867.22,306.44c2.55,0.15,2.99-1.32,3.09-1.86
		c0.15-0.88,0.2-2.21,1.13-5c0.15-0.64,1.08-2.89-2.11-2.16c-4.95,1.76-9.21,9.56-9.21,9.56s-1.23,2.16,0.78,1.91
		C864.62,308.26,865.89,306.35,867.22,306.44z M877.65,332.57c1.08-0.05,1.37-0.74,0.88-1.81c-0.25-0.59-1.27-1.72-3.19-2.01
		c-2.06-0.1-2.7,1.32-2.7,1.32c-0.49,0.83-0.25,1.42-0.29,2.4c-0.1,1.47-0.74,2.06-0.59,4.46c0.1,1.18,1.18,1.91,2.21,0.59
		c1.23-1.67,1.23-4.02,1.67-4.61C875.99,332.57,876.87,332.57,877.65,332.57z M919.85,284.78c-0.39,0.44-0.1,1.08,0.54,2.25
		c0.74,1.13,3.09,2.74,3.09,2.74c1.32-0.29,2.94-1.67,2.7-3.72c-0.39-3.92-0.98-5.73-1.32-6.52c-0.44-1.08-1.81-3.14-2.99-2.74
		c-0.44,0.25-0.44,2.7-0.44,2.7s0.2,1.67-0.15,3.14C920.98,283.46,919.85,284.78,919.85,284.78z M1056.39,404.27
		c0,0,1.86,8.82-4.31,21.86c-5.44,10.49-14.26,16.12-14.26,16.12s1.23,5.69,5.98,7.55c7.3,2.6,14.41,16.32,14.41,21.61
		c-0.44,11.27-1.42,13.82-4.8,23.13c-3.58,8.82-5.59,19.11-5.59,23.03c0,6.76,6.47,14.41,6.47,19.9c0,8.72-2.74,12.2-6.08,22.25
		c-5.49,14.31-1.03,21.96-1.03,21.96c1.13,2.06,1.76,1.47,2.35,0c5.73-14.9,14.07-20.14,14.07-20.14c2.65-1.86,2.65,0.49,2.06,2.74
		c-2.99,9.75-4.02,17.94-4.02,17.94l1.67-0.39c10.64-11.96,12.79-16.42,14.02-20.39c1.96-7.55,2.06-14.8,2.06-14.8
		s1.13-4.46,6.52-3.77c5.73,0.83,9.26-0.54,13.92-2.84c5.54-3.87,9.61-8.18,9.61-8.18s2.55-2.45,5.83-0.15
		c5.69,5.39,5.83,12.94,2.6,18.87c-4.51,7.99-7.89,9.36-9.9,9.36c-2.79,0-5.39-3.92-9.36-3.92c-5.44,0-7.55,3.28-7.55,4.8
		c0,3.09,2.25,3.09,2.6,5.34c0.88,5.19,3.63,9.61,3.63,9.61c-0.59,1.27-5.39,3.58-6.52,5.34c-1.08,1.32-1.32,3.92-1.32,3.92
		s-0.98,1.76,3.53,4.17c3.68,1.76,3.82,5.44,7.94,8.33c3.14,2.06,5.73-1.03,5.73-1.03c2.84-3.97,3.63-7.01,3.63-7.01
		c0.74-1.76,2.6-1.13,2.74-0.15c0.49,2.7,2.16,3.53,3.23,3.53c4.02,0.44,6.52-1.96,6.52-1.96s3.23,0.24,5.59-1.18
		c4.26-2.6,6.13-5.73,6.13-5.73s1.08-2.16-0.64-5.2c-0.88-1.42-2.6-2.21-2.6-2.21s0.93-3.38,3.53-3.38c3.14,0,6.08-2.94,7.4-5.83
		c1.42-3.72,1.67-6.91,1.67-6.91c0.34-1.13-1.03-4.51,2.21-5.44c4.02-0.93,5.73-2.01,7.4-4.56c2.01-3.63,1.52-6.13,1.52-6.13
		c-0.49-0.78-1.57-0.83-1.57-0.83c-1.13-0.49-0.83-1.13-0.34-1.47c3.43-2.84,8.53-7.94,9.51-11.32c0.44-1.96,0.1-3.28-1.52-5
		c-6.71,3.72-10.78,2.89-10.98,1.91c-0.15-1.03,4.21-3.04,4.21-3.04c5.29-3.38,7.69-8.28,8.58-12.5c1.81-7.65,0.54-11.71,0.54-11.71
		l-1.18,0.15c-5.83,10.64-15.34,14.16-15.34,14.16c-1.76,0.54-2.16-1.27-1.32-2.21c4.36-5.24,5.98-8.72,6.81-13.82
		c0.59-5.24,0.24-7.84-1.47-12.3c-0.24-0.93-1.13-0.69-1.42,0.05c-2.65,5.83-3.87,6.81-6.52,11.03c-3.53,5.15-8.14,7.16-9.61,5.98
		c-2.7-2.45-2.21-7.74-4.31-10c-3.38-2.94-8.28-2.4-12.2-0.25c-2.99,1.81-8.58,7.01-8.58,7.01l-0.64-0.64
		c1.27-9.02-1.81-16.27-1.81-16.27l0.93-1.32c4.02-0.2,6.52,1.03,6.52,1.03c6.57,2.55,10.64,2.84,19.36,2.84
		c11.22,0,26.07-7.69,33.28-18.87c10.39-17.3,6.08-32.93,3.53-38.86c-2.94-7.01-5.05-9.46-5.98-10.29
		c-1.18-0.88-2.11-0.39-1.67,1.03c1.27,4.7,2.01,11.66,0.39,22.89c-0.49,2.4-1.72,2.16-2.74,0.54c-2.01-3.82-5.78-9.41-8.33-11.81
		c-4.41-4.46-8.18-7.16-8.18-7.16c-1.86-1.57-1.47-4.07-0.93-6.76c2.16-8.63,1.13-13.43-0.54-20.14
		c-2.06-7.16-9.7-15.49-13.13-17.55c-1.47-1.13-2.21,0.15-1.42,1.18c1.86,2.35,3.77,6.57,4.02,14.7c0,5.2-1.18,10.15-1.18,10.15
		c-3.97-2.7-9.51-11.91-13.38-20.68c-2.99-6.27-4.36-15.09-2.45-21.56c1.91-5.64,6.27-9.56,9.9-12.11
		c6.32-4.41,12.5-12.55,13.92-19.36c2.25-12.69-2.99-14.41-2.99-14.41c-4.31,13.04-14.26,19.02-15.49,19.65
		c-1.32,0.64-1.67,0.2-1.32-1.03c1.72-6.67,6.57-14.85,6.76-23.03c0-5.59-3.87-10.1-7.55-14.56c-4.02-6.13-3.87-12.64,2.74-20.68
		c5.1-5.24,9.7-7.5,12.6-8.33c2.3-0.74,3.87-1.27,3.23-2.74c-0.74-1.52-1.57-1.52-4.02-0.78c-8.38,3.04-14.8,6.03-20.68,9.36
		c-5.59,2.89-6.62,3.38-8.82,5.34c-4.7,5.2-4.9,9.16-4.56,17.55c0.74,7.5,3.53,18.18,3.53,18.18l-0.64,1.32
		c0,0-5.73-4.51-11.32-5.34c-8.43-0.88-8.33,1.67-8.33,1.67s12.64,12.69,14.56,21.86c1.42,8.87,1.18,14.65,1.18,27.3
		c0,20.49,2.7,29.5,10.19,38.08c6.52,6.42,15.58,15.73,16.76,21.61c0.29,1.23-0.1,1.52-1.03,1.67c-2.5,0.59-3.77,0.88-6.27,1.81
		c-3.14,1.03-4.46,1.91-8.28,0.25c-5.88-2.7-9.12-8.53-9.9-11.57c-0.49-1.96-0.64-2.99-0.64-2.99c-0.49-2.65-3.14-2.65-3.14-0.25
		c-0.29,4.95-0.24,6.81,1.13,12.11c3.09,9.36,15.78,14.8,22.01,16.76c7.6,2.16,18.72,2.89,22.89,5.2
		c5.98,4.21,8.04,10.49,5.98,17.06c-2.99,5.98-7.55,7.69-13.53,8.72c-8.77,1.08-11.86-0.74-19.36-5.2
		c-12.74-7.89-24.11-18.72-30.29-28.28c-7.06-11.96-16.22-22.01-16.22-22.01l-9.07-11.57L1056.39,404.27z M1144.66,570.46
		c-2.45,1.47-3.09,5.54-1.91,6.71c1.86,1.37,4.36,0.78,7.35-0.59c5.39-2.7,6.27-7.79,6.27-7.79c0.44-2.84-2.65-0.98-4.02,0.29
		c-2.25,1.81-4.46,2.25-5.83,2.25C1145.54,571.1,1144.66,570.46,1144.66,570.46z M1127.06,593.64c-4.21,0.88-5.93,1.81-5.49,3.23
		c1.47,5.15,6.03,5.39,7.45,5.39c4.12,0,7.94-4.02,7.94-4.02c2.99-4.07-0.83-3.09-1.76-2.7c-3.68,1.32-3.48,1.03-4.7,1.03
		C1129.42,596.63,1127.06,593.64,1127.06,593.64z M1096.58,596.29c-1.27-2.35-1.96-3.04-2.84-3.72c-2.7-1.91-3.77,0-4.17,0.74
		c-2.16,4.26-2.01,6.32-2.01,8.48c0,3.92,3.28,5.2,3.28,5.2c0.88,0.34,3.28,0.44,3.97-0.59c0.44-1.08-0.93-1.57-1.37-2.84
		c-0.54-2.45,1.42-4.17,1.42-4.17C1096.53,597.71,1096.58,596.29,1096.58,596.29z M1090.75,569.23c0.98-0.1,2.11-1.03,0.78-2.84
		c-0.98-1.13-2.7-1.18-4.31-0.83c-3.09,0.83-4.31,2.79-5.69,4.85c-2.21,3.92-0.93,5.15-0.05,6.03c2.3,1.81,3.82,1.27,3.82,1.27
		s-0.93-2.65,0.74-4.17c2.84-2.4,3.53-3.77,3.53-3.77C1089.87,569.28,1090.75,569.23,1090.75,569.23z M1047.86,490.52
		c0.44-0.29,7.74-6.76,6.47-19.16c-2.35-13.28-7.89-16.22-7.89-16.22s-11.57,10.44-19.75,8.77c-10.44-2.55-16.22-3.53-26.42-3.53
		c-6.47,0-12.01,4.21-15.24,8.04c-4.9,6.67-6.03,18.77-6.03,18.77s-0.15,4.8-6.37,4.8c-4.9-0.29-7.45,0.29-9.85,0.83
		c-5.2,1.72-7.74,5.59-8.48,7.74c-2.6,8.33,0.29,12.01,0.29,12.01c2.4-2.25,3.48-5.24,6.47-8.18c3.04-2.7,6.67-2.06,8.23-0.15
		c2.65,3.48,5.29,5.2,7.6,5.69c3.58,0.44,7.45-1.27,10.15,0.54c0.69,6.86,2.84,12.69,2.84,12.69s-0.05,10-8.72,18.53
		c-5.39,4.9-8.63,6.47-12.84,6.47c-4.07,0-5.59-4.9-6.52-7.74c-1.13-3.28-3.14-6.22-6.18-5.78c-4.02,0.88-7.01,3.72-7.45,7.5
		c-5.98,1.67-8.53,3.14-9.61,5.34c-1.37,2.99,0.29,4.66,0.29,4.66s-7.3,5.1-7.3,8.58c0,6.03,3.09,11.27,7.2,11.27
		c4.51,0,7.35-5.15,11.42-4.66c-2.99,2.65-4.51,5.64-4.51,7.89c0,1.91,1.91,4.07,7.2,7.2c4.31,2.11,10.19,2.6,12.69,0.29
		c2.11-2.45,2.5-5.49,3.97-5.78c0.93,1.96,3.82,4.36,4.9,4.36c5.15,0,5.15-0.93,11.03-1.72c4.75-0.59,9.36-2.6,9.36-5.2
		c0-2.5-5.24-4.75-5.24-7.74c0-0.98,2.06-3.82,3.53-5.69c1.67-2.3,3.38-0.69,3.38-0.69s2.25,10.73,6.96,14.7
		c5.73,4.46,10.49,3.72,15.09-1.57c-11.13-1.08-6.76-7.74-6.76-7.74s5.29,3.82,17.01,3.82c5.15,0,9.12-5.24,9.12-5.24l0.15-1.86
		c0,0-5.64,0.98-8.43-3.68c-3.19-4.95-3.68-7.2-3.68-7.2c-0.59-1.08,0.39-1.42,0.98-1.42c3.43-0.25,3.48,1.96,8.87-1.57
		c4.9-3.48,5.78-8.18,5.78-8.18c0.29-1.81-0.64-2.5-1.08-1.86c-2.99,3.97-5.49,3.14-8.09,1.57c-3.77-2.89-4.66-6.52-4.66-6.52
		s-0.78-2.84,2.11-3.77c7.65-3.09,13.62-11.91,14.31-20.83c0-0.25-1.03-0.69-1.03-0.69c-1.47,1.72-6.32,4.66-9.85,4.9
		c-3.77,0.05-5.69-1.96-6.47-4.02c-1.42-4.8-0.15-6.71,1.52-8.87C1034.24,492.88,1040.56,491.26,1047.86,490.52z M980.72,588.84
		c0,0,4.85,3.19,7.84,4.36c2.6,0.93,3.58,0.2,2.65-1.81c0,0-1.76-2.79-2.35-5.78c-0.25-1.18-0.64-1.62-1.42-2.11
		c0,0-1.57-0.88-3.97,0c0,0-1.37,0.44-3.09,1.62C979.45,585.9,979.15,587.71,980.72,588.84z M946.02,587.66
		c0.05,0.98,1.18,2.4,2.01,4.17c0.78,1.72,3.19,2.4,4.07,1.57c0.44-0.54,1.76-4.26,1.32-8.04c0,0-1.91-0.74-2.94-1.72
		c-0.93-0.83-1.62-1.03-2.94-1.37C947.54,582.32,945.88,583.05,946.02,587.66z M922.79,567.47c-0.93,3.28,2.3,6.18,2.3,6.18
		s0.29-1.76,2.55-3.04c2.11-1.23,2.35-3.19,2.35-3.19s-0.39-0.34-0.44-0.98c-0.2-1.67,0.64-3.63-0.1-5.15
		c-0.64-1.08-2.11-0.69-2.11-0.69S924.02,563.3,922.79,567.47z M938.52,533.7c-3.19,1.23-6.52,3.19-6.52,4.02
		c0,0.93,0.83,1.42,0.83,1.42s1.23-0.88,4.61,0.05s4.56,0.44,4.56,0.44s0.39-1.23,2.55-2.25c2.16-1.03,1.08-3.82,1.08-3.82
		S942.49,532.33,938.52,533.7z M908.24,419.22c-0.54-3.43-1.03-5.34-4.31-5.34c-5.05,0-2.5,3.72-10.19,6.81
		c-10.59,3.14-7.2,9.36-7.2,9.36s-2.94-0.83-6.57,1.23c-3.48,2.01-6.57,11.08-0.2,18.67c0.74,0.83,0.15,1.37,3.48,1.57
		c0.69,0,0.88,0.59,0.34,1.52c0,0-5.05,6.08-2.06,11.22c1.37,1.96,4.51,4.9,19.55,5.88c4.75,0.25,4.75-3.87,6.08-3.87
		c2.4,0,1.76,2.45,6.57,2.45c3.43,0,4.9-5.88,8.04-7.89c3.48-1.91,7.4-1.32,9.65-4.51c2.3-3.82-1.91-6.96-1.91-6.96s1.76-1.42,5-0.2
		c0,0,9.12,10.78,15.98,10.78c9.56,0,15.68-4.31,15.68-4.31s4.51-2.84,0.34-3.28c0,0-7.79-0.74-10.54-4.46c0,0-2.21-2.99-0.49-4.8
		c2.25-2.01,3.58-0.44,4.51,0.49c3.14,4.56,5.73,6.08,7.74,6.91c2.06,0.69,3.58,0.98,7.55,0.98c3.09,0,4.41-1.62,4.41-2.01
		c-3.04-2.74-6.22-11.08-2.16-17.59c3.23-4.66,8.82-1.47,9.9,0.05c1.18,1.47,2.5,3.92,6.27,3.38c3.14-0.54,1.37-11.52-1.91-16.08
		c0,0-5.1-1.47-13.82,2.06c-5.73,2.45-12.69,9.8-15,9.16c-2.6-0.83-4.9-8.09-2.6-13.38c2.06-3.92,7.2-9.61,1.18-12.06
		c-8.53-3.38-19.02,5-22.64,8.38c-4.31,3.68-8.33,9.31-19.95,14.85c0,0-9.95,4.51-9.95,0.88
		C908.92,426.66,908.82,423.43,908.24,419.22z M885.59,413.87c-8.87,2.84-6.52,6.37-6.52,6.37s6.08-1.23,8.67,1.08
		c0,0,8.23-1.91,10.78-6.37C898.53,415,895.15,411.28,885.59,413.87z M866.38,443.43c-2.79,3.43-1.52,10.15-1.32,11.22
		c0.29,1.18,1.08,3.04,2.25,0.54c0,0,3.43-6.22,8.23-7.99c0,0-0.93-2.35-1.27-7.06C874.22,440.14,870.4,438.82,866.38,443.43z
		 M891.67,478.42c4.66,6.91,10.24,4.21,10.24,4.21s-2.74-4.17-2.06-7.99c0.24-1.32,1.47-1.13,1.47-2.5c0,0-6.32-0.15-11.32-1.42
		C890,470.72,888.34,472.29,891.67,478.42z M925.39,463.37c-3.19,0.39-5.93,4.85-5.93,4.85c4.85,7.84,13.18,3.38,13.18,3.38
		c0.05,0.05,0.64-1.57-0.49-1.76c-3.04-0.59-3.82-0.88-4.07-1.42C926.66,464.79,925.39,463.37,925.39,463.37z"/>
	<path style="fill:none;" d="M1028.8,122.27c144.48,0,240.78,54.45,240.78,54.45l-17.25,267.1
		c-8.09,92.38-29.75,156.93-68.61,199.18c-65.67,63.76-154.92,102.43-154.92,102.43S939.55,706.76,873.88,643
		c-38.86-42.3-60.48-106.79-68.61-199.18l-17.25-267.1C788.06,176.72,884.37,122.27,1028.8,122.27z"/>
	<g>
		<path style="fill:#FFFFFF;stroke:#EF3E42;" d="M746.06,702.15l-17.59-21.61c0,0,5.88-1.91,12.2-6.86
			c7.74-6.03,13.09-13.77,10.34-19.46c2.35,4.95,3.14,9.61,2.89,15.34c1.23,17.1,6.71,29.06,6.71,29.06
			C755.08,700.33,750.13,701.46,746.06,702.15z"/>
		<path style="fill:#FFFFFF;stroke:#EF3E42;stroke-miterlimit:3.8637;" d="M746.06,702.15l-17.59-21.61c0,0,5.88-1.91,12.2-6.86
			c7.74-6.03,13.09-13.77,10.34-19.46c2.35,4.95,3.14,9.61,2.89,15.34c1.23,17.1,6.71,29.06,6.71,29.06
			C755.08,700.33,750.13,701.46,746.06,702.15z"/>
	</g>
	<path style="fill:none;" d="M1306.64,654.27c-2.35,4.95-3.14,9.61-2.89,15.34c-1.23,17.1-6.71,29.06-6.71,29.06"/>
	<path style="fill:none;stroke:#000000;stroke-miterlimit:3.8637;" d="M1311.44,702.15"/>
	<path style="fill:none;stroke:#000000;stroke-miterlimit:3.8637;" d="M1311.44,702.15"/>
	<g>
		<path style="fill:#FFFFFF;stroke:#EF3E42;" d="M1297.03,698.67c5.59,1.72,10.34,2.79,14.41,3.48l17.74-21.61
			c0,0-5.88-1.91-12.2-6.86c-7.06-5.49-12.35-12.11-11.22-17.45c-1.67,4.26-2.25,8.38-2.01,13.38
			C1302.52,686.71,1297.03,698.67,1297.03,698.67z"/>
		<path style="fill:none;stroke:#EF3E42;stroke-miterlimit:3.8637;" d="M1297.03,698.67c5.59,1.72,10.34,2.79,14.41,3.48
			l17.74-21.61c0,0-5.88-1.91-12.2-6.86c-7.06-5.49-12.35-12.11-11.22-17.45c-1.67,4.26-2.25,8.38-2.01,13.38
			C1302.52,686.71,1297.03,698.67,1297.03,698.67z"/>
	</g>
	<path style="fill:none;stroke:#000000;stroke-miterlimit:3.8637;" d="M939.95,719.94"/>
	<path style="fill:#FFFFFF;" d="M939.85,720.04l40.97-60.23c0,0-1.47-2.4-13.43-2.4c-39.75,0-78.56,20.49-108.51,39.5
		c-66.11,44.16-88.76,50.58-103.41,51.07c-6.81-0.74-14.56-0.74-21.27-14.56c-2.45-4.75-17.69-34.31-22.45-43.52H712
		c2.7,5.1,6.52,12.25,21.81,13.53c14.65-0.49,42.88-3.68,109-47.83c29.99-19.02,68.76-39.5,108.51-39.5
		c11.96,0,15.49,6.27,15.49,6.27l19.7,35.04l-43.67,63.96L939.85,720.04z"/>
	<path style="fill:none;stroke:#EF3E42;stroke-miterlimit:3.8637;" d="M942.89,721.36l43.67-63.96l-19.7-35.04
		c0,0-3.53-6.27-15.49-6.27c-39.75,0-78.56,20.49-108.51,39.5c-66.11,44.16-94.39,47.34-109,47.83
		c-15.29-1.27-19.16-8.43-21.81-13.53"/>
	<path style="fill:#FFFFFF;stroke:#EF3E42;" d="M1138.58,666.42c0,0-3.77,2.25-2.4,4.02l16.32,20.49c0,0,3.87,4.31,2.84,10.98
		l-11.37,51.8c0,0-1.81,6.91-9.21,9.65c-17.35,7.84-60.48,25.09-105.91,25.09c-45.97,0-89.54-17.59-106.5-25.34
		c-7.25-3.87-8.63-9.85-8.63-9.85l-11.42-51.31c-1.03-6.67,2.84-10.98,2.84-10.98l16.32-20.49c1.37-1.76-2.5-3.97-2.5-3.97l5.1-1.81
		c0,0,4.66,2.94,2.45,7.06l-14.16,18.87c0,0-4.95,5.98-0.29,10.05c0,0,47.15,43.42,116.74,43.42s116.74-43.42,116.74-43.42
		c4.61-4.07-0.29-10.05-0.29-10.05l-14.16-18.87c-2.21-4.12,2.45-7.06,2.45-7.06L1138.58,666.42z"/>
	<path style="fill:none;" d="M1138.58,666.42c0,0-3.77,2.25-2.4,4.02l16.32,20.49c0,0,3.87,4.31,2.84,10.98l-11.37,51.8
		c0,0-1.81,6.91-9.21,9.65c-17.35,7.84-60.48,25.09-105.91,25.09c-45.97,0-89.54-17.59-106.5-25.34c-7.25-3.87-8.63-9.85-8.63-9.85
		l-11.42-51.31c-1.03-6.67,2.84-10.98,2.84-10.98l16.32-20.49c1.37-1.76-2.5-3.97-2.5-3.97l5.1-1.81c0,0,4.66,2.94,2.45,7.06
		l-14.16,18.87c0,0-4.95,5.98-0.29,10.05c0,0,47.15,43.42,116.74,43.42s116.74-43.42,116.74-43.42c4.61-4.07-0.29-10.05-0.29-10.05
		l-14.16-18.87c-2.21-4.12,2.45-7.06,2.45-7.06L1138.58,666.42z"/>
	<g>
		<path style="fill:#EF3E42;stroke:#EF3E42;" d="M924.07,664.66c0,0,4.66,2.94,2.45,7.06l-14.16,18.87c0,0-4.95,5.98-0.29,10.05
			c0,0,10,9.31,27.89,19.31l40.87-60.13c0,0-1.47-2.4-13.43-2.4C952.74,657.35,938.08,660.15,924.07,664.66z"/>
		<path style="fill:#EF3E42;stroke:#EF3E42;" d="M924.07,664.66c0,0,4.66,2.94,2.45,7.06l-14.16,18.87c0,0-4.95,5.98-0.29,10.05
			c0,0,10,9.31,27.89,19.31l40.87-60.13c0,0-1.47-2.4-13.43-2.4C952.74,657.35,938.08,660.15,924.07,664.66z"/>
	</g>
	<path style="fill:#FFFFFF;" d="M1114.76,721.36l-43.72-63.96l19.7-35.04c0,0,3.53-6.27,15.49-6.27c39.75,0,78.56,20.49,108.51,39.5
		c66.11,44.16,94.39,47.34,109,47.83c15.29-1.27,19.16-8.43,21.81-13.53c-4.7,9.12-19.75,38.77-22.2,43.52
		c-6.71,13.82-14.46,13.82-21.27,14.56c-14.65-0.49-37.3-6.91-103.41-51.07c-29.99-19.02-68.76-39.5-108.51-39.5
		c-11.96,0-13.43,2.4-13.43,2.4l40.97,60.23L1114.76,721.36z"/>
	<path style="fill:none;stroke:#EF3E42;stroke-miterlimit:3.8637;" d="M1114.81,721.36l-43.67-63.96l19.7-35.04
		c0,0,3.53-6.27,15.49-6.27c39.75,0,78.56,20.49,108.51,39.5c66.11,44.16,94.39,47.34,109,47.83c15.29-1.27,19.16-8.43,21.81-13.53"
		/>
	<path style="fill:none;stroke:#EF3E42;stroke-miterlimit:3.8637;" d="M939.85,720.04l40.97-60.23c0,0-1.47-2.4-13.43-2.4
		c-39.75,0-78.56,20.49-108.51,39.5c-66.11,44.16-88.76,50.58-103.41,51.07c-6.81-0.74-14.56-0.74-21.27-14.56
		c-2.94-5.64-23.87-46.27-23.87-46.27c-1.76-3.92-3.63-9.51,4.41-19.75c13.38-14.26,32.93-19.02,36.56-12.69
		c2.7,5.59-2.94,12.99-10.73,19.02c-6.32,4.95-12.2,6.86-12.2,6.86l17.84,21.76"/>
	<path style="fill:none;stroke:#EF3E42;stroke-miterlimit:3.8637;" d="M1117.75,720.04l-40.97-60.23c0,0,1.47-2.4,13.43-2.4
		c39.75,0,78.56,20.49,108.51,39.5c66.11,44.16,88.76,50.58,103.41,51.07c6.81-0.74,14.56-0.74,21.27-14.56
		c2.94-5.64,23.87-46.27,23.87-46.27c1.76-3.92,3.63-9.51-4.41-19.75c-13.38-14.26-32.93-19.02-36.56-12.69
		c-2.7,5.59,2.94,12.99,10.73,19.02c6.32,4.95,12.2,6.86,12.2,6.86l-17.74,21.61"/>
	<path style="fill:#EF3E42;stroke:#EF3E42;" d="M927.2,531.94l-0.44-0.83c-0.59-1.27-1.18-3.14,1.42-6.47
		c4.41-4.7,10.78-6.22,12.01-4.17c0.88,1.81-0.98,4.26-3.53,6.22c-2.06,1.62-4.02,2.25-4.02,2.25l5.78,7.11
		c-1.67,0.29-2.89,0.34-4.02,0.39C929.46,536.01,928.09,533.6,927.2,531.94z"/>
	<path style="fill:#EF3E42;" d="M1028.7,781.98c-41.76-0.05-81.8-15.05-100.27-23.23c0,0-0.78-0.39-0.78,1.37
		c0,0.59,0.78,0.93,0.78,0.93c18.97,8.28,58.76,22.99,100.27,23.03c41.56-0.05,81.55-14.75,100.52-23.03c0,0,0.78-0.34,0.78-0.93
		c0-1.76-0.78-1.37-0.78-1.37C1110.74,766.94,1070.46,781.98,1028.7,781.98z"/>
	<path style="fill:#EF3E42;" d="M968.18,653.14c-0.44,0-0.74,0-0.74,0c-41.07,0-80.77,21.12-110.81,40.19
		c-65.67,43.86-87.58,49.84-100.96,50.38l-1.42-0.15c0,0-2.79-0.2-1.03-2.25c0.78,0.1,1.72,0.2,2.55,0.25
		c12.69-0.54,34.31-6.32,99.73-50.04c29.94-18.97,69.94-40.33,111.45-40.53C969.45,651.03,969.6,653.14,968.18,653.14z"/>
	<path style="fill:#EF3E42;" d="M1089.47,653.14c0.44,0,0.74,0,0.74,0c41.07,0,80.77,21.12,110.81,40.19
		c65.67,43.86,87.58,49.84,100.96,50.38l1.42-0.15c0,0,2.79-0.2,1.03-2.25c-0.78,0.1-1.72,0.2-2.55,0.25
		c-12.69-0.54-34.31-6.32-99.73-50.04c-29.94-18.97-69.89-40.33-111.45-40.53C1088.2,651.03,1088.05,653.14,1089.47,653.14z"/>
	<g>
		<path style="fill:#EF3E42;" d="M830.56,200.09c0.74,0.83,1.96,2.16,3.68,3.92c1.72,1.76,3.48,3.53,5.2,5.34
			c1.76,1.81,3.68,3.68,5.73,5.64c1.67,1.57,2.6,2.45,2.84,2.74c0.64-10.05,0.98-18.04,0.98-24.01c3.48-1.23,6.67-2.4,9.56-3.63
			c0.29-0.1,0.49-0.2,0.59-0.25c0.59-0.2,0.98-0.05,1.18,0.44c0.15,0.44,0,0.74-0.49,0.88c-1.67,0.59-2.55,1.57-2.65,2.94
			c-0.1,1.37,0.69,4.41,2.3,9.12l3.92,11.52c0.78,2.35,1.67,3.87,2.55,4.61c0.88,0.74,2.01,0.93,3.33,0.49
			c0.64-0.2,1.03-0.1,1.18,0.34c0.1,0.25,0,0.49-0.2,0.74l-6.13,2.06c-1.86,0.64-4.41,1.62-7.65,2.84c-0.34-0.1-0.54-0.29-0.64-0.49
			c-0.15-0.34,0.15-0.74,0.88-1.13c0.74-0.39,1.23-0.78,1.47-1.18s0.34-0.98,0.29-1.76c-0.05-0.78-0.34-1.86-0.83-3.23l-3.53-10.49
			c-1.86-5.34-2.89-8.43-3.19-9.26c-0.54,11.22-0.83,18.38-0.83,21.47v7.11c0,0.74-0.15,1.18-0.39,1.27
			c-0.25,0.1-0.74-0.2-1.37-0.93c-1.91-2.06-8.43-8.67-19.55-19.95c1.27,3.92,3.04,9.16,5.29,15.73c1.18,3.48,2.16,5.59,2.79,6.42
			c0.69,0.78,1.86,0.98,3.58,0.54c0.59-0.15,0.93,0,1.08,0.39c0.15,0.39,0,0.69-0.49,0.83c-0.15,0.05-0.34,0.1-0.54,0.15
			c-1.76,0.49-3.04,0.83-3.82,1.13c-2.06,0.74-3.58,1.32-4.61,1.86c-0.2,0.1-0.34,0.15-0.44,0.2c-0.49,0.2-0.83,0.05-0.98-0.44
			c-0.1-0.2-0.05-0.39,0-0.49c0.1-0.15,0.39-0.34,0.88-0.69c1.27-0.78,2.01-1.62,2.16-2.55c0.15-0.93-0.05-2.3-0.69-4.12
			l-4.51-13.43c-1.03-3.04-1.81-5.05-2.3-5.98s-1.08-1.57-1.86-1.91c-0.74-0.34-1.81-0.44-3.19-0.25c-0.54,0.05-0.83-0.1-0.98-0.54
			c-0.15-0.44,0.05-0.74,0.54-0.93c0.1-0.05,0.29-0.1,0.49-0.15C822.86,202.64,825.95,201.66,830.56,200.09z"/>
		<path style="fill:#EF3E42;" d="M865.16,188.53c0.54-0.15,1.57-0.39,3.23-0.78c1.23-0.29,2.21-0.54,2.94-0.74l6.76-2.16
			c0.59-0.15,0.93-0.05,1.03,0.39c0.1,0.39-0.1,0.69-0.59,0.88c-1.13,0.44-1.86,0.93-2.16,1.37c-0.29,0.44-0.34,1.32-0.25,2.6
			c0.15,1.32,0.83,4.12,2.11,8.48c1.42,5,2.65,8.87,3.58,11.62c0.93,2.7,1.72,4.31,2.35,4.8c0.64,0.49,1.47,0.59,2.55,0.29
			c0.74-0.2,1.13-0.1,1.27,0.29c0.15,0.54-0.15,0.93-0.93,1.18c-0.25,0.05-0.54,0.15-0.98,0.25c-2.84,0.59-4.75,1.03-5.78,1.32
			c-2.25,0.64-3.87,1.18-4.9,1.62c-0.54,0.25-0.93,0.39-1.18,0.44c-0.54,0.15-0.88,0-1.03-0.44c-0.1-0.34,0.05-0.64,0.49-0.83
			c1.23-0.54,1.96-1.13,2.21-1.86c0.29-0.74,0.15-2.21-0.39-4.41c-0.54-2.25-1.47-5.69-2.84-10.34c-1.42-4.9-2.45-8.18-3.09-9.75
			c-0.64-1.62-1.23-2.55-1.72-2.84c-0.49-0.29-1.27-0.29-2.35-0.1c-0.59,0.1-0.93-0.05-1.08-0.49
			C864.37,188.97,864.62,188.67,865.16,188.53z"/>
		<path style="fill:#EF3E42;" d="M907.11,212.05c-0.64,0.15-3.38,0.74-8.14,1.72l-4.95,1.18l-2.89,0.64
			c-0.69,0.15-1.13,0.2-1.32,0.15c-0.2-0.05-0.29-0.2-0.39-0.54c-0.1-0.49,0.15-0.78,0.78-0.93c1.23-0.29,2.06-0.74,2.55-1.32
			c0.44-0.59,0.64-1.47,0.49-2.74c-0.15-1.23-0.54-3.68-1.27-7.3c-0.69-3.63-1.37-6.96-2.11-10c-0.98-4.26-1.76-6.86-2.4-7.69
			c-0.59-0.88-1.67-1.23-3.19-0.93c-0.54,0.1-0.88-0.1-0.98-0.54s0.1-0.69,0.59-0.83c0.29-0.05,1.27-0.2,2.94-0.39
			c1.86-0.25,3.19-0.44,3.87-0.64l8.48-2.16c2.84-0.64,5.73-0.69,8.63-0.15c2.89,0.54,5.44,1.96,7.6,4.26
			c2.16,2.3,3.63,5.1,4.41,8.43c0.59,2.5,0.64,4.9,0.25,7.25s-1.32,4.46-2.7,6.32c-1.37,1.86-2.89,3.23-4.46,4.07
			C911.32,210.88,909.41,211.56,907.11,212.05z M905.15,210.68c3.14-0.74,5.34-2.5,6.62-5.29c1.27-2.79,1.42-6.37,0.39-10.78
			c-1.03-4.46-2.84-7.89-5.49-10.34c-2.65-2.45-5.78-3.23-9.36-2.4c-1.23,0.29-1.96,0.54-2.21,0.78c-0.2,0.2-0.34,0.39-0.34,0.54
			c0,0.2,0.29,2.01,0.98,5.49l1.62,8.23c0.44,2.01,0.98,4.51,1.67,7.5c0.54,2.25,0.98,3.77,1.32,4.56c0.39,0.78,0.93,1.37,1.67,1.67
			C902.75,210.97,903.78,210.97,905.15,210.68z"/>
		<path style="fill:#EF3E42;" d="M940.09,205.73c-0.69,0.1-3.43,0.49-8.23,1.18l-5,0.83l-2.94,0.39c-0.69,0.1-1.13,0.15-1.32,0.05
			c-0.2-0.05-0.29-0.25-0.34-0.54c-0.1-0.49,0.2-0.78,0.88-0.88c1.23-0.2,2.11-0.59,2.65-1.13c0.49-0.54,0.74-1.47,0.69-2.7
			c-0.05-1.23-0.29-3.72-0.74-7.4c-0.44-3.68-0.88-7.06-1.37-10.14c-0.69-4.31-1.32-6.96-1.86-7.84c-0.54-0.93-1.57-1.32-3.14-1.18
			c-0.54,0.05-0.88-0.15-0.93-0.59s0.15-0.69,0.64-0.78c0.29-0.05,1.27-0.1,2.99-0.2c1.86-0.1,3.19-0.25,3.92-0.34l8.63-1.57
			c2.89-0.44,5.73-0.29,8.63,0.49c2.84,0.74,5.29,2.35,7.25,4.8c2.01,2.45,3.28,5.34,3.82,8.72c0.39,2.5,0.29,4.95-0.29,7.25
			c-0.58,2.3-1.62,4.36-3.14,6.13c-1.52,1.76-3.09,3.04-4.7,3.77C944.36,204.85,942.4,205.39,940.09,205.73z M938.23,204.21
			c3.19-0.49,5.54-2.11,7.01-4.8c1.47-2.7,1.86-6.27,1.13-10.73c-0.74-4.51-2.3-8.09-4.75-10.68c-2.45-2.65-5.54-3.63-9.21-3.09
			c-1.27,0.2-2.01,0.39-2.25,0.59c-0.2,0.2-0.34,0.34-0.39,0.54c-0.05,0.2,0.15,2.01,0.59,5.54l1.03,8.33
			c0.29,2.06,0.64,4.61,1.13,7.6c0.34,2.25,0.69,3.82,1.03,4.66c0.29,0.83,0.83,1.42,1.52,1.81
			C935.78,204.36,936.86,204.41,938.23,204.21z"/>
		<path style="fill:#EF3E42;" d="M982.39,200.19c-3.82,0.2-9.8,0.69-17.89,1.57c-2.79,0.29-5.1,0.64-6.81,0.98
			c-0.44,0.1-0.74,0.15-0.93,0.15c-0.59,0.05-0.88-0.15-0.93-0.64c0-0.25,0.05-0.39,0.2-0.49s0.49-0.25,1.08-0.39
			c0.93-0.25,1.62-0.64,2.11-1.13c0.44-0.49,0.74-1.23,0.83-2.16c0.1-0.93,0-3.23-0.34-6.91c-0.34-3.68-0.78-8.04-1.32-13.13
			c-0.2-2.01-0.49-3.48-0.88-4.36s-0.83-1.52-1.42-1.86c-0.54-0.39-1.27-0.54-2.25-0.49c-0.64,0.05-1.03-0.2-1.08-0.69
			c-0.05-0.49,0.29-0.78,1.03-0.88l7.65-0.59c1.18-0.15,2.79-0.34,4.9-0.69c0.78-0.1,1.27-0.2,1.57-0.2
			c0.64-0.05,0.98,0.15,1.03,0.64c0.05,0.25-0.05,0.44-0.25,0.59c-0.2,0.1-0.69,0.29-1.52,0.49c-1.03,0.25-1.72,0.59-2.11,1.08
			c-0.39,0.44-0.59,1.18-0.64,2.25c-0.05,1.03,0.15,3.33,0.49,6.86l1.57,14.95c0.25,2.3,0.59,3.68,1.03,4.07
			c0.39,0.39,1.13,0.54,2.16,0.44c2.5-0.25,4.36-0.69,5.54-1.23c1.18-0.54,2.25-1.42,3.23-2.65c0.98-1.23,2.01-3.19,2.99-5.93
			c0.2-0.54,0.44-0.83,0.74-0.88c0.39-0.05,0.64,0.2,0.69,0.64C982.98,190.78,982.83,194.26,982.39,200.19z"/>
		<path style="fill:#EF3E42;" d="M1008.46,165.79c0.64,2.55,1.23,5.1,1.86,7.65c0.05,0.49-0.2,0.74-0.64,0.74
			c-0.25,0-0.54-0.2-0.88-0.64c-1.72-2.4-3.23-3.97-4.61-4.66c-1.32-0.74-3.23-1.03-5.73-0.88c-1.37,0.05-2.7,0.25-3.97,0.59
			c-0.15,2.94-0.1,6.13,0.1,9.61c0.05,0.59,0.1,1.57,0.2,2.99l1.76-0.05c1.08-0.05,2.01-0.25,2.79-0.64
			c0.78-0.39,1.42-1.08,1.91-2.16c0.49-1.08,0.78-1.76,0.83-2.06c0.1-0.54,0.34-0.83,0.69-0.83c0.44,0,0.64,0.15,0.69,0.54
			c0,0.1,0,0.25-0.05,0.39c-0.15,1.03-0.05,4.12,0.2,9.21c0.05,0.69,0.15,1.37,0.25,1.91c0.05,0.15,0.05,0.29,0.05,0.44
			c0.05,0.44-0.2,0.69-0.69,0.74c-0.34,0-0.64-0.39-0.83-1.27c-0.39-1.52-1.13-2.65-2.3-3.38c-1.13-0.74-2.89-1.08-5.24-0.98
			c0.05,2.79,0.15,4.61,0.15,5.49c0.2,3.77,0.39,5.98,0.49,6.71c0.15,0.69,0.59,1.27,1.27,1.67c0.69,0.39,1.86,0.54,3.48,0.44
			c5.83-0.29,9.61-2.5,11.22-6.62c0.25-0.59,0.49-0.88,0.78-0.88c0.44,0,0.69,0.15,0.69,0.54c0,0.25,0,0.59-0.1,1.03l-1.13,7.2
			l-8.33,0.39c-2.35,0.1-4.56,0.15-6.62,0.15c-2.01,0-3.63,0.05-4.75,0.1c-1.27,0.05-3.23,0.25-5.83,0.54
			c-0.34,0.05-0.54,0.1-0.74,0.1c-0.74,0.05-1.08-0.2-1.13-0.74c0-0.44,0.25-0.69,0.83-0.74c1.47-0.1,2.45-0.54,2.94-1.42
			s0.64-2.7,0.49-5.34l-0.54-12.74c-0.25-4.36-0.44-7.01-0.59-8.04c-0.15-0.98-0.44-1.67-0.88-2.01c-0.44-0.34-1.27-0.59-2.45-0.69
			c-0.49-0.05-0.74-0.25-0.78-0.64c-0.05-0.49,0.25-0.74,0.83-0.78l5.54-0.1L1008.46,165.79z"/>
		<path style="fill:#EF3E42;" d="M1032.62,166.47c0.2-0.2,0.39-0.54,0.59-0.98c0.25-0.54,0.49-0.78,0.78-0.78
			c0.39,0,0.69,0.34,0.78,1.08l0.78,6.81l0.1,0.83c0,0.44-0.2,0.69-0.64,0.69c-0.29,0-0.54-0.1-0.69-0.25s-0.39-0.69-0.78-1.52
			c-0.69-1.47-1.76-2.79-3.28-3.97c-1.52-1.18-3.04-1.76-4.61-1.76c-1.47,0-2.74,0.44-3.72,1.37c-0.98,0.93-1.47,2.06-1.47,3.43
			c0,1.13,0.44,2.11,1.37,2.99c0.93,0.88,2.7,1.72,5.34,2.55c4.12,1.27,6.91,2.79,8.38,4.66c1.42,1.86,2.16,3.92,2.16,6.18
			c0,2.3-0.54,4.26-1.62,5.83c-1.08,1.57-2.35,2.79-3.82,3.72c-1.47,0.88-3.38,1.32-5.69,1.32c-1.32,0-2.65-0.2-4.07-0.59
			c-1.42-0.39-2.84-1.03-4.31-1.81c-0.29,0.39-0.59,0.88-0.78,1.47c-0.25,0.69-0.54,1.03-0.93,1.03s-0.64-0.44-0.69-1.32l-0.69-9.02
			c-0.05-0.39-0.05-0.64-0.05-0.74c0-0.49,0.24-0.74,0.69-0.74c0.34,0,0.64,0.39,0.98,1.23c0.93,2.5,2.21,4.56,3.82,6.18
			c1.62,1.67,3.48,2.5,5.59,2.5c1.81,0,3.28-0.59,4.36-1.72c1.13-1.18,1.67-2.45,1.67-3.92s-0.54-2.7-1.57-3.72
			c-1.03-1.03-2.89-1.96-5.54-2.89c-2.6-0.93-4.56-1.76-5.83-2.6s-2.25-1.96-3.04-3.38c-0.74-1.47-1.13-2.94-1.13-4.41
			c0-2.6,0.93-4.8,2.79-6.62s4.41-2.74,7.65-2.74C1027.43,164.81,1029.73,165.35,1032.62,166.47z"/>
		<path style="fill:#EF3E42;" d="M1057.23,180.88c3.14,0.83,5.49,2.06,7.01,3.58s2.25,3.43,2.16,5.73
			c-0.05,1.91-0.69,3.58-1.91,5.05c-1.23,1.47-2.65,2.45-4.36,2.94c-1.72,0.44-4.17,0.64-7.35,0.49c-0.78-0.05-2.01-0.1-3.68-0.29
			c-1.37-0.15-2.45-0.2-3.23-0.25c-1.03-0.05-2.45,0-4.21,0.1c-0.74,0.05-1.23,0.05-1.52,0.05c-0.59,0-0.88-0.29-0.88-0.74
			c0-0.34,0.25-0.59,0.74-0.64c0.98-0.1,1.67-0.25,2.11-0.44c0.44-0.2,0.83-0.59,1.08-1.13c0.29-0.54,0.44-1.37,0.49-2.55
			l0.59-11.57c0.15-3.58,0.2-6.47,0.2-8.63c0-2.16-0.1-3.58-0.29-4.21c-0.15-0.64-0.44-1.08-0.78-1.32
			c-0.34-0.25-0.83-0.44-1.52-0.49c-0.64-0.05-1.03-0.15-1.18-0.25c-0.15-0.1-0.25-0.29-0.25-0.59c0-0.34,0.2-0.54,0.54-0.64
			c0.39-0.05,1.37-0.1,3.09,0c3.09,0.1,5.93,0.1,8.63-0.05c1.57-0.1,2.84-0.1,3.82-0.05c2.84,0.1,5.05,0.83,6.71,2.25
			c1.67,1.37,2.4,3.23,2.35,5.49C1065.41,176.67,1062.67,179.36,1057.23,180.88z M1050.9,180.29c5.29,0.2,8.04-2.16,8.18-7.11
			c0.1-2.16-0.34-3.77-1.23-4.9c-0.88-1.13-1.96-1.67-3.23-1.72c-0.88-0.05-1.96,0.15-3.28,0.59c-0.2,1.67-0.29,3.38-0.34,5.24
			C1050.9,173.92,1050.9,176.57,1050.9,180.29z M1050.81,182.2c-0.24,3.48-0.39,6.37-0.49,8.72c-0.1,3.09-0.05,4.85,0.15,5.29
			c0.2,0.44,0.93,0.69,2.16,0.74c2.21,0.1,3.87-0.49,5-1.72c1.13-1.23,1.76-2.99,1.86-5.2c0.1-2.25-0.44-4.07-1.52-5.54
			c-1.08-1.47-2.79-2.25-5.1-2.35C1052.37,182.16,1051.69,182.16,1050.81,182.2z"/>
		<path style="fill:#EF3E42;" d="M1087.07,184.46c2.01,0.54,3.68,1.37,4.9,2.55s2.01,3.28,2.4,6.42c0.34,2.94,0.78,4.9,1.42,5.88
			c0.64,0.98,1.57,1.57,2.89,1.81c0.74,0.15,1.03,0.39,0.98,0.83c-0.05,0.49-0.64,0.64-1.81,0.54l-8.82-1.13
			c-0.83-1.08-1.27-2.89-1.32-5.49c-0.1-3.28-0.29-5.64-0.59-7.01s-0.93-2.4-1.76-3.09c-0.83-0.69-1.91-1.08-3.09-1.18
			c-0.34-0.05-0.83-0.05-1.47-0.1c-0.59,5.78-0.98,9.36-1.08,10.68c-0.1,1.32,0.05,2.3,0.44,2.94c0.39,0.64,1.23,1.03,2.5,1.23
			c0.69,0.1,0.98,0.39,0.93,0.83c-0.05,0.44-0.34,0.64-0.98,0.59l-7.01-0.93c-0.93-0.1-2.16-0.2-3.68-0.25
			c-1.37-0.05-2.25-0.1-2.6-0.15c-0.64-0.05-0.93-0.34-0.88-0.83c0.05-0.44,0.34-0.64,0.88-0.59c0.83,0.1,1.67-0.05,2.45-0.44
			c0.78-0.39,1.37-2.3,1.72-5.73l0.44-4.61l0.93-8.87c0.49-4.56,0.59-7.4,0.29-8.43c-0.25-1.08-1.23-1.67-2.84-1.91
			c-0.64-0.1-0.93-0.34-0.88-0.83c0.05-0.49,0.49-0.69,1.37-0.59c4.31,0.44,7.99,0.74,10.98,0.83c1.32,0.05,2.55,0.1,3.63,0.25
			c3.48,0.34,6.13,1.42,7.94,3.09c1.81,1.67,2.6,3.72,2.35,6.13c-0.15,1.62-0.78,2.99-1.86,4.21c-1.08,1.18-2.35,2.01-3.82,2.5
			C1090.65,184.31,1088.98,184.51,1087.07,184.46z M1080.95,182.79c0.39,0.05,0.69,0.1,0.88,0.1c1.32,0.15,2.7,0,4.12-0.39
			c1.42-0.39,2.45-1.18,3.14-2.25c0.69-1.13,1.13-2.35,1.23-3.68c0.2-2.06-0.2-3.72-1.18-5c-1.03-1.27-2.4-2.01-4.21-2.21
			c-0.74-0.1-1.62,0-2.6,0.2L1080.95,182.79z"/>
		<path style="fill:#EF3E42;" d="M1119.91,171.96c3.09,0.49,5.64,1.57,7.74,3.23c2.11,1.67,3.63,3.92,4.61,6.62
			c0.98,2.7,1.27,5.54,0.78,8.53c-0.74,4.56-2.94,8.38-6.67,11.42c-3.72,3.04-7.94,4.17-12.64,3.43c-4.26-0.69-7.69-2.7-10.24-6.13
			c-2.55-3.38-3.43-7.6-2.65-12.6c0.74-4.7,2.94-8.48,6.62-11.37C1111.14,172.3,1115.3,171.23,1119.91,171.96z M1125.25,189.85
			c0.78-4.95,0.59-8.77-0.59-11.52s-2.94-4.31-5.34-4.7c-2.4-0.39-4.56,0.59-6.52,2.84s-3.33,5.83-4.12,10.78
			c-0.74,4.75-0.59,8.53,0.49,11.37s2.89,4.46,5.39,4.85c2.25,0.34,4.36-0.54,6.37-2.6C1123,198.77,1124.42,195.09,1125.25,189.85z"
			/>
		<path style="fill:#EF3E42;" d="M1137.41,174.9l7.2,1.81c0.69,0.15,1.47,0.29,2.4,0.39c1.42,0.2,2.55,0.39,3.38,0.54
			c0.78,0.15,1.13,0.49,1.03,0.93s-0.44,0.59-1.03,0.49c-1.08-0.15-2.01,0.1-2.7,0.74c-0.69,0.64-1.37,2.16-2.01,4.51
			s-1.27,4.95-1.91,7.79c-0.98,4.61-1.42,7.74-1.37,9.41c0.05,1.67,0.69,3.09,1.81,4.31c1.13,1.23,2.79,2.06,5.05,2.55
			c2.25,0.49,4.02,0.34,5.39-0.44s2.5-2.25,3.38-4.36c0.88-2.11,2.01-6.13,3.23-12.11c0.74-3.53,1.03-6.03,0.78-7.45
			c-0.25-1.47-0.93-2.35-2.16-2.74c-0.88-0.29-1.27-0.69-1.13-1.13c0.1-0.49,0.49-0.64,1.23-0.49c0.34,0.1,0.93,0.25,1.72,0.54
			c0.83,0.25,1.72,0.49,2.6,0.69c0.83,0.2,1.81,0.34,2.84,0.44c0.78,0.1,1.32,0.2,1.67,0.25c0.74,0.15,1.08,0.49,0.98,0.93
			c-0.1,0.39-0.39,0.54-0.93,0.49c-0.78-0.1-1.52,0.15-2.3,0.69c-0.74,0.54-1.37,1.57-1.86,3.09c-0.49,1.52-1.42,5.44-2.79,11.81
			c-0.88,4.21-1.91,7.16-3.14,8.87c-1.18,1.72-2.84,2.89-5.05,3.53c-2.16,0.64-4.7,0.64-7.6,0c-2.25-0.49-4.17-1.08-5.69-1.86
			c-1.57-0.78-2.74-1.72-3.53-2.84c-0.78-1.08-1.27-2.25-1.42-3.53c-0.2-1.27,0-2.99,0.44-5.29l2.84-12.89
			c0.39-1.81,0.59-3.33,0.64-4.51c0.05-1.23-0.05-2.01-0.39-2.5s-0.88-0.83-1.72-1.13c-0.49-0.2-0.83-0.34-0.93-0.44
			c-0.1-0.15-0.1-0.34-0.05-0.59C1136.38,174.95,1136.77,174.76,1137.41,174.9z"/>
		<path style="fill:#EF3E42;" d="M1199.94,193.43l-1.32,7.11c-0.05,0.34-0.1,0.59-0.2,0.78c-0.15,0.49-0.39,0.69-0.83,0.59
			c-0.39-0.1-0.59-0.49-0.69-1.08c-0.44-2.89-1.32-5.39-2.79-7.55c-1.42-2.16-3.33-3.58-5.78-4.26c-3.19-0.88-6.03-0.2-8.63,2.16
			c-2.6,2.35-4.46,5.44-5.54,9.31c-1.23,4.31-1.27,8.14-0.1,11.47c1.18,3.33,3.14,5.34,5.78,6.13c1.13,0.34,2.35,0.39,3.68,0.15
			c1.32-0.25,2.25-0.64,2.79-1.18c0.54-0.54,0.98-1.42,1.32-2.65c0.78-2.65,1.13-4.36,1.13-5.05c0-0.74-0.2-1.27-0.59-1.67
			c-0.39-0.39-1.27-0.88-2.6-1.42c-0.54-0.2-0.74-0.54-0.64-0.93c0.15-0.44,0.44-0.64,0.98-0.49l3.33,0.98l10.29,2.65
			c0.44,0.15,0.64,0.39,0.49,0.83c-0.05,0.25-0.2,0.39-0.39,0.44c-0.2,0.05-0.88,0-2.01-0.05c-0.83-0.05-1.42,0.1-1.76,0.44
			c-0.34,0.29-1.18,2.65-2.6,7.06c-0.29,0.98-0.49,1.52-0.59,1.67c-0.05,0.1-1.08,0.39-3.09,0.88c-2.01,0.44-3.97,0.69-5.93,0.64
			c-1.96-0.05-3.82-0.34-5.64-0.88c-3.04-0.88-5.59-2.3-7.6-4.26c-2.01-1.96-3.43-4.36-4.21-7.11c-0.78-2.79-0.74-5.78,0.2-9.02
			c1.32-4.56,3.92-8.09,7.79-10.59c3.92-2.5,8.38-2.99,13.48-1.57c1.81,0.54,3.38,1.23,4.66,2.11c1.32,0.88,2.79,2.01,4.41,3.43
			c0.29,0.29,0.59,0.44,0.88,0.54c0.29,0.1,0.59-0.1,0.88-0.49c0.39-0.54,0.74-0.78,1.08-0.69
			C1200.04,191.86,1200.14,192.4,1199.94,193.43z"/>
		<path style="fill:#EF3E42;" d="M1223.47,214.75l2.79-7.01c0.74-2.01,1.03-3.48,0.98-4.46s-0.69-1.72-1.86-2.21
			c-0.98-0.39-1.37-0.83-1.23-1.27c0.2-0.49,0.54-0.64,1.13-0.39c0.69,0.25,1.67,0.64,2.99,1.23c1.72,0.74,2.7,1.13,2.89,1.23
			c2.45,0.88,4.61,1.62,6.52,2.16c0.34,0.1,0.59,0.15,0.74,0.25c0.54,0.2,0.74,0.54,0.59,0.93c-0.2,0.49-0.59,0.64-1.23,0.39
			c-1.03-0.34-1.81-0.49-2.35-0.34c-0.54,0.15-0.98,0.44-1.37,0.98c-0.39,0.54-1.23,2.5-2.65,6.03c-1.37,3.48-2.3,5.88-2.79,7.2
			c-2.01,5.49-3.19,8.82-3.58,10.1c-0.39,1.27-0.44,2.21-0.15,2.84c0.29,0.64,0.98,1.18,2.06,1.57c0.69,0.25,0.93,0.59,0.78,1.08
			c-0.15,0.39-0.49,0.49-0.98,0.34c-0.2-0.05-0.54-0.25-1.08-0.49l-5.93-2.4c-0.34-0.15-1.08-0.34-2.11-0.69
			c-2.01-0.59-3.33-0.98-3.87-1.18c-0.54-0.2-0.69-0.49-0.54-0.98c0.15-0.39,0.44-0.54,0.88-0.39c1.03,0.39,1.86,0.44,2.5,0.25
			c0.64-0.2,1.27-0.98,2.01-2.3s1.86-4.07,3.38-8.23c0.15-0.44,0.39-1.08,0.69-1.96c-2.5-0.98-4.7-1.86-6.67-2.55
			c-2.25-0.83-4.02-1.37-5.39-1.72c-1.32,3.04-2.4,5.83-3.33,8.38c-0.64,1.81-0.93,3.14-0.83,3.97c0.1,0.83,0.74,1.52,1.91,2.01
			c0.54,0.25,0.74,0.59,0.59,0.98c-0.15,0.44-0.54,0.54-1.13,0.34c-0.2-0.1-0.54-0.2-0.93-0.44c-1.67-0.78-3.43-1.52-5.29-2.21
			c-0.88-0.34-2.06-0.69-3.58-1.13c-1.08-0.29-1.76-0.49-2.06-0.64c-0.74-0.29-1.03-0.64-0.88-1.13c0.15-0.39,0.54-0.49,1.13-0.34
			c1.18,0.29,2.01,0.29,2.55,0.05c0.54-0.25,1.13-0.88,1.67-1.86c0.59-1.03,1.81-4.07,3.72-9.12c1.91-5.05,2.94-7.84,3.09-8.28
			c0.83-2.3,1.37-3.97,1.57-5.1c0.24-1.08,0.24-1.86,0-2.35c-0.25-0.49-0.69-0.93-1.42-1.27c-0.54-0.29-0.88-0.54-0.98-0.64
			c-0.1-0.15-0.1-0.34,0-0.64c0.15-0.49,0.49-0.59,0.98-0.44c0.64,0.25,1.67,0.69,3.09,1.32c0.78,0.34,1.72,0.74,2.74,1.13
			l6.18,2.01c0.69,0.25,0.98,0.64,0.78,1.13c-0.15,0.44-0.54,0.59-1.13,0.39c-0.93-0.34-1.67-0.44-2.11-0.34s-0.88,0.49-1.32,1.18
			c-0.44,0.69-1.03,2.06-1.81,4.17l-2.35,6.62c1.76,0.88,3.72,1.67,5.83,2.45C1219.4,213.62,1221.46,214.26,1223.47,214.75z"/>
	</g>
	<path style="fill:#EF3E42;" d="M987.58,745.42v20.63c0,2.84,0.24,4.75,0.69,5.64c0.49,0.88,1.37,1.47,2.65,1.76
		c0.93,0.2,1.52,0.39,1.72,0.54c0.25,0.15,0.34,0.39,0.34,0.69c0,0.49-0.34,0.69-0.98,0.54c-0.15-0.05-0.29-0.05-0.49-0.15
		c-3.09-0.78-5.29-1.32-6.76-1.62c-1.52-0.29-3.72-0.64-6.57-1.08c-1.03-0.15-1.72-0.29-2.06-0.34c-0.78-0.15-1.13-0.49-1.13-0.98
		c0-0.29,0.1-0.49,0.34-0.54s0.88-0.05,1.81,0.1c1.18,0.15,2.06,0.05,2.55-0.24c0.54-0.34,0.83-0.74,0.98-1.23
		c0.1-0.49,0.2-1.62,0.29-3.43v-12.25c0-2.11-0.15-3.58-0.39-4.41c-0.25-0.88-0.69-1.52-1.23-1.96c-0.59-0.44-1.47-0.88-2.74-1.23
		c-0.98-0.29-1.62-0.54-1.81-0.64c-0.2-0.15-0.34-0.34-0.34-0.64c0-0.34,0.1-0.54,0.34-0.54c0.25-0.05,0.78,0,1.57,0.1
		c3.58,0.44,6.76,0.29,9.51-0.44c0.34-0.1,0.59-0.1,0.83-0.05C987.34,743.71,987.58,744.3,987.58,745.42z"/>
	<path style="fill:#EF3E42;" d="M1019.88,762.04c2.16,0.98,3.77,2.21,4.85,3.58s1.62,2.89,1.62,4.61c0,2.5-1.23,4.56-3.63,6.18
		c-2.4,1.57-5.34,2.25-8.82,1.96c-3.28-0.25-5.98-1.18-8.09-2.74c-2.11-1.57-3.19-3.28-3.19-5.1c0-1.23,0.54-2.45,1.62-3.68
		s2.79-2.16,5.1-2.89c-1.91-0.98-3.33-2.11-4.31-3.33c-0.93-1.23-1.42-2.6-1.42-4.12c0-2.55,1.08-4.51,3.28-5.88
		c2.21-1.37,4.95-1.91,8.18-1.67c3.09,0.24,5.59,1.03,7.4,2.4c1.86,1.32,2.79,2.94,2.79,4.75c0,1.18-0.39,2.16-1.23,3.09
		C1023.31,760.03,1021.89,760.96,1019.88,762.04z M1017.72,760.96c0.98-0.49,1.76-1.23,2.4-2.11s0.93-1.86,0.93-2.89
		c0-1.13-0.54-2.3-1.57-3.48s-2.55-1.86-4.61-2.01c-1.86-0.15-3.33,0.2-4.46,1.08c-1.08,0.88-1.67,1.86-1.67,2.94
		c0,0.74,0.34,1.52,1.03,2.4s2.5,1.86,5.49,3.04C1016.6,760.52,1017.38,760.81,1017.72,760.96z M1011.35,764.93
		c-1.27,0.78-2.21,1.67-2.84,2.7c-0.64,0.98-0.93,2.06-0.93,3.23c0,1.57,0.64,2.89,1.86,3.97c1.23,1.08,2.84,1.72,4.8,1.86
		c2.16,0.2,3.82-0.2,4.95-1.18s1.72-2.16,1.72-3.53c0-0.98-0.44-1.96-1.37-2.89C1018.66,768.11,1015.91,766.74,1011.35,764.93z"/>
	<path style="fill:#EF3E42;" d="M1054.58,752.68l-10.24,1.47c-2.7,0.39-4.41,0.78-5.2,1.18c-0.74,0.39-1.62,1.23-2.5,2.5
		c-0.74,0.98-1.23,1.52-1.52,1.57c-0.54,0.1-0.83-0.15-0.83-0.69s0.34-2.21,0.98-5c0.69-2.79,1.18-4.51,1.57-5.1
		c0.39-0.59,0.74-0.93,1.03-0.98c0.39-0.05,0.69,0.15,0.98,0.64c0.2,0.29,0.54,0.49,0.98,0.64c0.49,0.1,1.91,0,4.26-0.29
		s3.68-0.49,3.92-0.54l11.62-1.67c-0.24,0.78-0.69,1.76-1.27,2.89c-2.55,4.66-4.21,8.43-5.05,11.32c-0.83,2.89-1.37,6.27-1.57,10
		c-0.1,2.45-0.49,4.21-1.13,5.2c-0.59,1.03-1.67,1.67-3.19,1.86c-1.13,0.15-2.06,0-2.79-0.54c-0.74-0.54-1.13-1.27-1.13-2.25
		c0-0.93,0.29-2.21,0.88-3.87c0.59-1.67,1.91-4.26,3.97-7.79L1054.58,752.68z"/>
	<path style="fill:#EF3E42;" d="M1073.35,755.72c1.08-0.83,2.25-1.52,3.48-2.11c1.18-0.54,2.45-0.98,3.77-1.23
		c3.04-0.64,5.64-0.34,7.84,0.88c2.21,1.23,3.28,3.23,3.33,6.13c0,2.99-1.23,5.64-3.68,8.04c-2.45,2.4-5.54,3.97-9.31,4.75
		c-4.31,0.88-7.69,0.39-10.05-1.57c-2.35-1.96-3.53-4.85-3.53-8.77c0-4.8,1.62-9.21,4.85-13.18c3.23-4.02,7.6-6.62,13.04-7.74
		c2.99-0.64,5.24-0.59,6.81,0.05c1.57,0.69,2.35,1.72,2.35,3.19c0,0.93-0.39,1.81-1.23,2.7c-0.78,0.83-1.72,1.37-2.74,1.62
		c-1.13,0.25-2.01,0.1-2.7-0.39c-0.69-0.54-1.03-1.32-1.03-2.5l0.05-1.52c0-1.13-0.74-1.52-2.25-1.23
		c-2.11,0.44-4.02,1.76-5.69,3.92C1074.92,749.05,1073.84,751.99,1073.35,755.72z M1083.79,761.55c0-2.6-0.44-4.46-1.32-5.59
		s-2.16-1.47-3.92-1.13c-1.81,0.39-3.23,1.32-4.26,2.89c-0.98,1.52-1.52,3.43-1.52,5.69c0,2.55,0.54,4.46,1.57,5.73
		c1.08,1.27,2.45,1.72,4.12,1.37c1.62-0.34,2.94-1.32,3.87-2.94C1083.3,765.96,1083.74,763.95,1083.79,761.55z"/>
	<path style="fill:#EF3E42;" d="M776.69,703.72l3.04,4.95l0.15,0.24c0.15,0.34,0.1,0.54-0.15,0.64c-0.15,0.05-0.39,0-0.64-0.2
		c-1.47-1.03-2.94-1.72-4.36-2.06c-1.47-0.34-3.43,0-5.98,1.03c-1.76,0.69-2.65,1.27-2.7,1.76c-0.05,0.44,0.98,3.38,3.19,8.77
		c1.32-0.54,2.25-1.03,2.89-1.47c0.64-0.49,1.03-1.03,1.23-1.62c0.2-0.59,0.2-1.62,0.05-2.94c-0.05-0.34,0-0.59,0.2-0.64
		c0.34-0.15,0.64,0,0.78,0.44l2.16,5.64c0.74,1.96,1.13,3.04,1.13,3.23c0,0.15-0.1,0.29-0.29,0.39c-0.29,0.1-0.59-0.05-0.83-0.49
		c-0.59-1.03-1.27-1.76-2.16-2.11c-0.88-0.39-2.4-0.15-4.66,0.78l2.6,6.52c0.54,1.27,0.98,2.16,1.37,2.6s0.83,0.74,1.27,0.78
		s1.03-0.1,1.81-0.39c0.59-0.2,0.93-0.29,1.13-0.29s0.29,0.1,0.39,0.34c0.15,0.39-0.05,0.69-0.59,0.88
		c-0.49,0.2-1.42,0.54-2.79,0.98c-1.18,0.39-2.06,0.69-2.6,0.93l-5.49,2.45c-0.54,0.25-0.93,0.15-1.03-0.15
		c-0.15-0.29,0.15-0.64,0.83-0.93c1.18-0.54,1.67-1.37,1.52-2.45c-0.2-1.13-1.57-4.85-4.12-11.27c-1.67-4.17-2.84-6.57-3.43-7.25
		c-0.64-0.69-1.52-0.78-2.65-0.29l-0.49,0.2c-0.44,0.15-0.69,0.1-0.83-0.29c-0.15-0.34,0.15-0.64,0.83-0.88L776.69,703.72z"/>
	<path style="fill:#EF3E42;" d="M788.6,696.36c2.25-1.23,4.41-1.86,6.62-1.91c2.16-0.05,4.26,0.54,6.18,1.67
		c1.96,1.13,3.48,2.7,4.61,4.7c1.72,3.09,2.06,6.47,1.13,10.14c-0.98,3.68-3.19,6.47-6.62,8.33c-3.09,1.72-6.32,2.21-9.61,1.47
		c-3.28-0.74-5.88-2.84-7.74-6.18c-1.76-3.19-2.16-6.57-1.13-10.1C783.02,700.92,785.22,698.23,788.6,696.36z M800.66,704.4
		c-1.86-3.33-3.82-5.54-5.88-6.62s-3.97-1.13-5.73-0.15c-1.72,0.98-2.7,2.6-2.89,4.95c-0.2,2.3,0.64,5.15,2.45,8.48
		c1.76,3.19,3.68,5.39,5.78,6.57c2.06,1.18,4.02,1.23,5.88,0.2c1.62-0.88,2.6-2.5,2.89-4.75
		C803.45,710.87,802.62,707.98,800.66,704.4z"/>
	<path style="fill:#EF3E42;" d="M812.62,682.25c2.16-1.37,4.31-2.11,6.47-2.25c2.16-0.15,4.26,0.29,6.27,1.32s3.63,2.5,4.85,4.46
		c1.86,2.99,2.4,6.37,1.62,10.1c-0.78,3.72-2.84,6.62-6.18,8.67c-2.99,1.86-6.18,2.55-9.56,1.96c-3.33-0.59-6.03-2.5-8.09-5.78
		c-1.91-3.09-2.5-6.42-1.67-10C807.28,687.15,809.33,684.31,812.62,682.25z M825.07,689.7c-2.01-3.23-4.12-5.34-6.22-6.32
		c-2.11-0.93-4.02-0.88-5.73,0.15c-1.67,1.03-2.55,2.74-2.65,5.1s0.88,5.1,2.89,8.33c1.96,3.09,3.97,5.2,6.08,6.27
		c2.16,1.03,4.07,1.03,5.88-0.1c1.57-0.98,2.45-2.6,2.65-4.9C828.2,696.02,827.22,693.13,825.07,689.7z"/>
	<path style="fill:#EF3E42;" d="M825.07,674.26c5.64-3.38,9.75-5.88,12.4-7.6c2.01-1.27,4.21-2.74,6.52-4.41
		c0.83-0.59,1.52-1.08,2.11-1.42c0.2-0.15,0.59-0.34,1.08-0.69c0.34,0.39,1.03,1.23,2.01,2.5l1.86,2.35
		c0.25,0.39,0.25,0.74-0.15,0.98c-0.25,0.15-0.69,0.1-1.27-0.29c-0.93-0.59-1.96-1.03-2.99-1.23c-1.03-0.2-2.01-0.15-2.99,0.2
		c-0.98,0.34-2.4,1.13-4.31,2.35c0.88,1.72,2.06,3.82,3.63,6.27c1.62,2.5,3.19,4.9,4.75,7.16c1.57,2.25,2.6,3.58,3.04,3.97
		s0.88,0.59,1.37,0.59s1.37-0.34,2.65-1.03c0.44-0.25,0.74-0.2,0.93,0.05c0.2,0.29,0.1,0.54-0.25,0.78l-0.44,0.25l-3.38,2.01
		c-2.6,1.67-4.12,2.65-4.66,3.04l-1.96,1.37c-0.15,0.1-0.49,0.29-1.03,0.59c-0.29,0.1-0.49,0.05-0.64-0.15
		c-0.2-0.29-0.1-0.59,0.29-0.83c0.93-0.59,1.52-1.27,1.76-1.96s0.15-1.52-0.29-2.45s-1.57-2.84-3.38-5.69
		c-2.89-4.51-5.39-8.14-7.45-10.78c-1.76,1.13-2.99,2.01-3.68,2.65s-1.18,1.52-1.52,2.6c-0.29,1.08-0.39,2.3-0.2,3.63
		c0.1,0.54,0,0.83-0.25,1.03c-0.34,0.24-0.64,0.2-0.83-0.15c-0.05-0.1-0.44-0.83-1.13-2.21C826,676.42,825.46,675.24,825.07,674.26z
		"/>
	<path style="fill:#EF3E42;" d="M868.2,661.71c2.55-0.78,4.7-0.98,6.37-0.59c1.67,0.34,2.94,1.32,3.82,2.84
		c0.69,1.27,0.93,2.65,0.64,4.12c-0.25,1.47-0.93,2.74-1.91,3.77c-1.03,1.03-2.7,2.16-5,3.43c-0.59,0.29-1.47,0.78-2.7,1.37
		c-1.03,0.49-1.81,0.88-2.4,1.23c-0.74,0.44-1.72,1.03-2.94,1.81c-0.49,0.34-0.83,0.54-1.08,0.69c-0.44,0.25-0.74,0.2-0.93-0.15
		c-0.15-0.25-0.05-0.49,0.29-0.74c0.64-0.49,1.08-0.88,1.32-1.18c0.25-0.34,0.34-0.74,0.34-1.18s-0.2-1.08-0.64-1.91l-4.17-7.84
		c-1.32-2.4-2.45-4.31-3.28-5.73s-1.47-2.3-1.86-2.65c-0.34-0.34-0.74-0.54-1.08-0.54c-0.34-0.05-0.78,0.1-1.27,0.29
		c-0.44,0.25-0.78,0.34-0.93,0.34s-0.29-0.1-0.39-0.29c-0.15-0.25-0.1-0.44,0.15-0.64s0.93-0.64,2.16-1.32
		c2.21-1.23,4.21-2.45,6.08-3.68c1.08-0.74,1.96-1.27,2.65-1.67c2.06-1.13,3.92-1.57,5.64-1.32s2.99,1.08,3.82,2.6
		C872.31,655.49,871.43,658.43,868.2,661.71z M863.49,663.97c3.82-2.11,4.8-4.8,2.99-8.09c-0.78-1.47-1.72-2.35-2.79-2.7
		c-1.08-0.34-2.06-0.25-2.94,0.25c-0.64,0.34-1.32,0.93-2.06,1.76c0.54,1.18,1.13,2.35,1.81,3.58
		C860.99,659.8,862.02,661.57,863.49,663.97z M864.18,665.24c1.23,2.4,2.25,4.36,3.09,5.93c1.13,2.06,1.86,3.19,2.21,3.38
		s0.93,0.05,1.81-0.44c1.57-0.88,2.55-1.96,2.84-3.23c0.34-1.27,0.05-2.7-0.74-4.17c-0.83-1.47-1.91-2.5-3.23-2.99
		c-1.37-0.49-2.84-0.29-4.51,0.64C865.25,664.56,864.76,664.85,864.18,665.24z"/>
	<path style="fill:#EF3E42;" d="M881.77,640.93l1.18-0.54c3.04,2.55,7.6,6.71,13.62,12.5c2.79,2.65,4.56,4.17,5.39,4.66
		c0.78,0.44,1.76,0.49,2.84,0.15c0.34-0.1,0.59-0.05,0.74,0.2c0.15,0.34,0.05,0.64-0.44,0.83c-0.25,0.1-0.88,0.34-1.91,0.74
		c-1.23,0.44-2.25,0.88-3.09,1.23c-0.78,0.39-1.81,0.88-3.04,1.57c-0.93,0.49-1.52,0.83-1.81,0.98c-0.54,0.25-0.88,0.2-1.03-0.15
		c-0.1-0.25,0-0.49,0.34-0.69c1.37-0.78,1.81-1.67,1.32-2.65c-0.2-0.44-0.83-1.23-1.81-2.25c-0.98-1.03-1.96-1.96-2.89-2.74
		c-0.74,0.34-1.32,0.59-1.76,0.78c-2.3,1.08-4.12,1.91-5.39,2.55c0.25,3.19,0.59,5.2,1.03,6.08c0.29,0.64,0.78,1.03,1.42,1.13
		c0.64,0.1,1.27,0.05,1.86-0.15c0.44-0.15,0.74-0.1,0.88,0.24c0.15,0.29,0,0.59-0.49,0.78c-0.2,0.1-0.69,0.29-1.47,0.59
		c-1.03,0.39-1.81,0.69-2.25,0.88c-0.88,0.44-1.72,0.88-2.5,1.37c-0.2,0.15-0.34,0.25-0.49,0.29c-0.44,0.2-0.74,0.15-0.88-0.2
		c-0.1-0.25-0.05-0.49,0.2-0.69c0.59-0.54,1.03-1.03,1.27-1.47c0.25-0.49,0.44-1.23,0.49-2.25c0.1-1.03,0-2.6-0.2-4.66
		C882.56,655.49,882.16,649.07,881.77,640.93z M883.39,647.5l0.64,9.07l6.03-2.89c-0.74-0.74-1.81-1.76-3.19-2.99
		C885.3,649.27,884.17,648.24,883.39,647.5z"/>
	<path style="fill:#EF3E42;" d="M927.6,650.98c-3.04,0.83-7.74,2.25-14.11,4.31c-2.21,0.74-3.97,1.37-5.34,1.96
		c-0.34,0.15-0.59,0.25-0.74,0.29c-0.44,0.15-0.74,0.05-0.88-0.29c-0.05-0.15-0.05-0.29,0.05-0.39s0.39-0.29,0.83-0.49
		c0.69-0.34,1.23-0.74,1.52-1.23c0.29-0.44,0.39-1.03,0.34-1.76s-0.49-2.4-1.32-5.1c-0.83-2.7-1.86-5.88-3.09-9.61
		c-0.49-1.47-0.93-2.5-1.37-3.09s-0.88-0.98-1.42-1.18c-0.49-0.2-1.13-0.2-1.86,0.05c-0.54,0.15-0.83,0.05-0.98-0.34
		c-0.1-0.34,0.1-0.64,0.69-0.83l6.03-1.76c0.93-0.29,2.21-0.78,3.82-1.37c0.59-0.2,0.98-0.34,1.23-0.44
		c0.49-0.15,0.83-0.05,0.93,0.29c0.05,0.2,0,0.34-0.1,0.49c-0.15,0.1-0.49,0.34-1.13,0.64c-0.78,0.39-1.27,0.78-1.52,1.18
		s-0.29,0.98-0.15,1.76s0.64,2.45,1.47,5.05l3.58,10.93c0.54,1.67,1.03,2.65,1.42,2.84c0.39,0.2,0.98,0.2,1.81-0.05
		c1.96-0.64,3.38-1.27,4.26-1.86c0.88-0.64,1.57-1.47,2.21-2.55s1.13-2.74,1.52-4.95c0.1-0.44,0.24-0.74,0.44-0.78
		c0.34-0.1,0.54,0,0.64,0.34C926.61,643.78,927.06,646.42,927.6,650.98z"/>
	<path style="fill:#EF3E42;" d="M950.97,646.23c-3.14,0.44-7.99,1.32-14.51,2.6c-2.3,0.44-4.12,0.88-5.54,1.27
		c-0.34,0.1-0.59,0.15-0.74,0.2c-0.49,0.1-0.74-0.05-0.83-0.44c-0.05-0.2,0-0.29,0.1-0.39c0.1-0.1,0.39-0.25,0.88-0.39
		c0.74-0.25,1.27-0.59,1.62-1.03c0.34-0.44,0.54-0.98,0.54-1.72c0.05-0.74-0.2-2.45-0.69-5.24c-0.54-2.79-1.13-6.08-1.91-9.9
		c-0.29-1.52-0.64-2.6-0.98-3.23c-0.34-0.64-0.78-1.08-1.27-1.32s-1.08-0.29-1.86-0.2c-0.54,0.1-0.83-0.05-0.93-0.44
		c-0.05-0.39,0.2-0.64,0.78-0.74l6.22-1.03c0.93-0.2,2.3-0.49,3.97-0.93c0.64-0.15,1.03-0.25,1.27-0.29
		c0.54-0.1,0.83,0.05,0.88,0.39c0.05,0.2,0,0.34-0.2,0.49c-0.15,0.1-0.54,0.29-1.18,0.49c-0.83,0.29-1.37,0.59-1.67,0.98
		c-0.29,0.39-0.39,0.98-0.39,1.76c0.05,0.78,0.29,2.55,0.83,5.2l2.21,11.32c0.34,1.72,0.69,2.74,1.08,3.04
		c0.34,0.25,0.98,0.29,1.76,0.15c2.06-0.39,3.53-0.83,4.46-1.32c0.93-0.54,1.76-1.27,2.5-2.3s1.42-2.6,2.11-4.75
		c0.15-0.44,0.29-0.69,0.54-0.74c0.34-0.05,0.54,0.1,0.59,0.44C950.92,638.97,950.97,641.67,950.97,646.23z"/>
	<path style="fill:#EF3E42;" d="M1187.05,649.81c0.39-0.2,0.78-0.39,1.23-0.64c0.54-0.29,0.88-0.39,1.08-0.29
		c0.24,0.1,0.34,0.25,0.34,0.39s-0.1,0.54-0.34,1.13l-2.25,5.49l-0.29,0.69c-0.24,0.44-0.54,0.59-0.88,0.39
		c-0.25-0.1-0.34-0.39-0.29-0.83c0.15-1.42-0.05-3.19-0.59-5.24c-0.49-2.06-1.67-3.53-3.48-4.46c-1.37-0.69-2.7-0.83-4.02-0.49
		c-1.32,0.34-2.55,1.08-3.72,2.21c-1.18,1.13-2.25,2.65-3.19,4.56c-1.62,3.28-2.16,6.27-1.67,8.92c0.49,2.65,1.81,4.46,3.97,5.54
		c2.35,1.13,5.15,0.78,8.48-1.08c0.39-0.25,0.74-0.29,0.93-0.2c0.34,0.2,0.44,0.44,0.29,0.83c-0.34,0.74-1.86,1.52-4.46,2.25
		c-2.6,0.78-5.2,0.49-7.89-0.83c-3.58-1.76-5.83-4.21-6.86-7.45c-0.98-3.23-0.69-6.42,0.88-9.65c1.57-3.19,3.97-5.49,7.2-6.81
		s6.47-1.23,9.65,0.29C1183.38,645.69,1185.34,647.4,1187.05,649.81z"/>
	<path style="fill:#EF3E42;" d="M1199.26,683.82c-2.65-1.72-6.86-4.26-12.64-7.6c-2.01-1.18-3.68-2.06-5-2.65
		c-0.34-0.15-0.54-0.29-0.69-0.34c-0.39-0.25-0.54-0.54-0.34-0.83c0.1-0.15,0.2-0.25,0.34-0.2c0.15,0,0.44,0.1,0.93,0.25
		c0.74,0.29,1.37,0.39,1.91,0.29c0.54-0.1,1.03-0.39,1.52-0.93c0.49-0.49,1.47-1.96,2.89-4.41s3.14-5.34,5.1-8.72
		c0.78-1.32,1.23-2.4,1.37-3.09c0.15-0.74,0.15-1.32-0.1-1.81c-0.2-0.49-0.64-0.93-1.27-1.37c-0.44-0.29-0.59-0.59-0.39-0.93
		s0.54-0.34,1.08-0.05l5.39,3.28c0.83,0.49,2.06,1.13,3.58,1.91c0.54,0.29,0.93,0.49,1.13,0.59c0.44,0.25,0.59,0.54,0.39,0.88
		c-0.1,0.2-0.24,0.25-0.44,0.25s-0.59-0.15-1.23-0.39c-0.78-0.34-1.42-0.44-1.86-0.34s-0.93,0.44-1.42,1.08s-1.42,2.11-2.79,4.46
		l-5.73,9.95c-0.88,1.52-1.27,2.55-1.18,2.99s0.49,0.88,1.23,1.27c1.81,1.03,3.19,1.67,4.26,1.91c1.03,0.25,2.16,0.2,3.38-0.1
		s2.79-1.03,4.7-2.21c0.39-0.25,0.69-0.29,0.88-0.2c0.29,0.15,0.34,0.39,0.15,0.74C1203.96,678.28,1202.29,680.39,1199.26,683.82z"
		/>
	<path style="fill:#EF3E42;" d="M1213.57,663.33l5.05,3.43c0.49,0.29,1.08,0.64,1.72,0.98c1.03,0.54,1.86,1.03,2.45,1.37
		c0.54,0.34,0.74,0.64,0.54,0.98c-0.2,0.29-0.49,0.29-0.93,0.05c-0.78-0.44-1.57-0.54-2.25-0.24c-0.69,0.29-1.57,1.18-2.7,2.7
		c-1.08,1.52-2.21,3.19-3.43,5.1c-1.91,3.04-3.04,5.2-3.38,6.42c-0.34,1.23-0.24,2.45,0.29,3.68c0.59,1.23,1.62,2.3,3.23,3.28
		c1.62,0.98,2.99,1.42,4.26,1.23c1.23-0.2,2.45-0.88,3.68-2.16c1.23-1.27,3.09-3.87,5.54-7.84c1.47-2.35,2.3-4.07,2.5-5.2
		s-0.15-2.01-0.93-2.65c-0.59-0.44-0.78-0.83-0.59-1.18c0.2-0.29,0.54-0.29,1.08,0c0.24,0.15,0.64,0.44,1.18,0.88
		c0.59,0.44,1.18,0.83,1.81,1.27c0.59,0.39,1.27,0.78,2.06,1.18c0.59,0.29,0.98,0.54,1.18,0.64c0.54,0.34,0.69,0.64,0.49,0.98
		c-0.15,0.25-0.44,0.29-0.83,0.1c-0.59-0.29-1.23-0.34-1.91-0.15c-0.69,0.2-1.42,0.74-2.21,1.67c-0.74,0.93-2.45,3.53-5.1,7.74
		c-1.76,2.79-3.28,4.61-4.61,5.54c-1.32,0.88-2.89,1.27-4.75,1.08c-1.81-0.2-3.77-0.93-5.83-2.21c-1.62-0.98-2.89-2.01-3.92-3.04
		c-0.98-1.03-1.67-2.06-2.01-3.09c-0.29-1.03-0.39-2.01-0.2-2.99c0.2-0.98,0.74-2.21,1.67-3.68l5.44-8.53
		c0.74-1.18,1.27-2.21,1.62-3.09c0.34-0.83,0.44-1.47,0.34-1.91c-0.15-0.44-0.49-0.88-1.03-1.32c-0.34-0.29-0.54-0.49-0.59-0.59
		c-0.05-0.15,0-0.29,0.1-0.44C1212.78,663.04,1213.13,663.04,1213.57,663.33z"/>
	<path style="fill:#EF3E42;" d="M1244.88,696.95c1.91,1.86,3.14,3.63,3.63,5.29c0.49,1.67,0.29,3.23-0.64,4.7
		c-0.78,1.23-1.86,2.11-3.28,2.55c-1.42,0.49-2.84,0.54-4.21,0.15c-1.37-0.39-3.19-1.27-5.44-2.7c-0.54-0.34-1.37-0.93-2.5-1.72
		c-0.93-0.64-1.67-1.18-2.21-1.52c-0.74-0.44-1.76-1.03-3.04-1.72c-0.54-0.29-0.88-0.49-1.13-0.59c-0.44-0.25-0.54-0.54-0.34-0.88
		c0.15-0.25,0.39-0.29,0.78-0.1c0.74,0.34,1.27,0.54,1.67,0.59c0.39,0.05,0.78-0.05,1.23-0.29c0.39-0.25,0.83-0.74,1.32-1.47
		l4.8-7.45c1.47-2.35,2.6-4.21,3.43-5.64c0.83-1.42,1.27-2.4,1.42-2.89s0.1-0.88-0.05-1.23c-0.15-0.29-0.44-0.64-0.88-0.98
		c-0.44-0.29-0.69-0.49-0.74-0.69c-0.05-0.15-0.05-0.29,0.05-0.49c0.15-0.24,0.34-0.29,0.64-0.2c0.29,0.1,1.03,0.54,2.21,1.27
		c2.16,1.32,4.21,2.5,6.18,3.53c1.18,0.59,2.06,1.13,2.74,1.52c1.96,1.23,3.28,2.65,3.92,4.26c0.64,1.62,0.49,3.14-0.44,4.61
		C1252.33,697.54,1249.34,698.18,1244.88,696.95z M1240.62,693.96c3.68,2.3,6.52,1.86,8.53-1.32c0.88-1.42,1.23-2.65,0.98-3.72
		c-0.2-1.13-0.78-1.91-1.62-2.45c-0.64-0.39-1.47-0.69-2.55-0.98c-0.78,1.03-1.52,2.16-2.25,3.33
		C1243.07,689.75,1242.04,691.46,1240.62,693.96z M1239.84,695.19c-1.52,2.21-2.74,4.07-3.68,5.59c-1.23,2.01-1.86,3.19-1.91,3.58
		c0,0.39,0.39,0.83,1.27,1.37c1.52,0.98,2.94,1.27,4.21,0.93s2.4-1.23,3.28-2.7c0.88-1.47,1.23-2.89,1.03-4.31s-1.13-2.65-2.74-3.68
		C1240.96,695.78,1240.47,695.53,1239.84,695.19z"/>
	<path style="fill:#EF3E42;" d="M1306.68,668.09c0,0,7.35,7.4,15.34,12.74c1.47,0.88,0.64,2.01,0.64,2.01s-12.55,14.65-12.6,14.7
		c1.72-2.01,7.6-13.43,7.6-13.43s0.78-1.57-0.44-3.14C1315.02,678.04,1308.15,669.7,1306.68,668.09z"/>
	<path style="fill:#EF3E42;" d="M940.14,524.83c0,0-2.4,2.4-5.05,4.17c-0.49,0.29-0.2,0.64-0.2,0.64l4.12,4.8
		c-0.54-0.64-2.5-4.41-2.5-4.41s-0.25-0.49,0.15-1.03C937.45,528.11,939.65,525.37,940.14,524.83z"/>
	<path style="fill:#EF3E42;" d="M1314.28,706.41c5.15,1.27,7.2,0.93,11.62,0.64c2.5-0.2,7.69-2.94,6.37,0.39
		c-3.68,9.61-9.7,19.21-14.02,28.47c-1.23,2.6,0.93-3.58,3.33-10.49c1.08-3.09,2.21-6.22,3.23-9.31c0.49-1.52,0.93-4.02-0.64-4.61
		C1322.71,710.97,1315.65,707.49,1314.28,706.41z"/>
	<path style="fill:#EF3E42;stroke:#EF3E42;" d="M1345.89,689.7l1.32-2.6c1.76-3.92,3.63-9.51-4.41-19.75
		c-13.38-14.26-32.93-19.02-36.56-12.69c-2.7,5.59,2.94,12.99,10.73,19.02c6.32,4.95,12.2,6.86,12.2,6.86l-17.59,21.66
		c5.05,0.83,8.87,1.08,12.2,1.18C1339.08,702.1,1343.2,694.8,1345.89,689.7z"/>
	<g>
		<path style="fill:#EF3E42;stroke:#EF3E42;" d="M1133.58,664.66c0,0-4.66,2.94-2.45,7.06l14.16,18.87c0,0,4.95,5.98,0.29,10.05
			c0,0-10,9.31-27.89,19.31l-40.87-60.13c0,0,1.47-2.4,13.43-2.4C1104.91,657.35,1119.57,660.15,1133.58,664.66z"/>
		<path style="fill:#EF3E42;stroke:#EF3E42;" d="M1133.58,664.66c0,0-4.66,2.94-2.45,7.06l14.16,18.87c0,0,4.95,5.98,0.29,10.05
			c0,0-10,9.31-27.89,19.31l-40.87-60.13c0,0,1.47-2.4,13.43-2.4C1104.91,657.35,1119.57,660.15,1133.58,664.66z"/>
	</g>
	<path style="fill:#EF3E42;" d="M1110.79,620.6c-0.83-0.1-6.67,1.96-7.89,2.3c-2.5,0.69-4.36,2.35-6.13,4.51
		c-1.86,2.3-3.28,5-4.85,7.45c-2.25,3.48-11.76,16.08-13.48,19.31c1.57-3.04,9.51-16.86,11.52-20.88c1.72-3.53,3.19-7.11,6.03-9.8
		C1099.96,619.71,1106.09,620.15,1110.79,620.6z"/>
	<path style="fill:#EF3E42;" d="M947.2,620.6c0.83-0.1,6.67,1.96,7.89,2.3c2.5,0.69,4.36,2.35,6.13,4.51c1.86,2.3,3.28,5,4.85,7.45
		c2.25,3.48,11.76,16.08,13.48,19.31c-1.57-3.04-9.51-16.86-11.52-20.88c-1.72-3.53-3.19-7.11-6.03-9.8
		C957.98,619.71,951.9,620.15,947.2,620.6z"/>
	<path style="fill:#EF3E42;" d="M1139.71,753.66l8.82-40.29c1.76-6.42-3.68-2.6-3.68-2.6l-17.3,8.72l9.36-1.08
		c5.2-0.15,4.7,5.59,4.7,5.59L1139.71,753.66z"/>
	<path style="fill:#EF3E42;" d="M918.19,753.66l-8.82-40.29c-1.76-6.42,3.68-2.6,3.68-2.6l17.3,8.72l-9.36-1.08
		c-5.2-0.15-4.7,5.59-4.7,5.59L918.19,753.66z"/>
	<path style="fill:#EF3E42;" d="M937.54,537.43c-1.67,0.44-2.35,0.29-3.82,0.2c-0.83-0.05-2.5-0.98-2.11,0.15
		c1.23,3.14,3.19,6.32,4.61,9.36c0.39,0.88-0.29-1.18-1.08-3.43c-0.34-1.03-0.74-2.06-1.08-3.04c-0.15-0.49-0.29-1.32,0.2-1.52
		C934.8,538.9,937.1,537.77,937.54,537.43z"/>
</g>
<g id="Layer-1">
</g>
<g id="Guides">
</g>
</svg>
