<?xml version="1.0" encoding="utf-8"?>
<!-- Generator: Adobe Illustrator 19.1.0, SVG Export Plug-In . SVG Version: 6.00 Build 0)  -->
<svg version="1.1" id="Layer_1" xmlns="http://www.w3.org/2000/svg" xmlns:xlink="http://www.w3.org/1999/xlink" x="0px" y="0px"
	 width="640px" height="156.64px" viewBox="112.48 318.25 640 156.64" style="enable-background:new 112.48 318.25 640 156.64;"
	 xml:space="preserve">
<path style="fill:#004FA3;" d="M387.29,372.83c-3.49-1.86-8.21-3.17-13.85-3.17c-13.25,0-21.22,6.22-24.46,8.74l4.77-28.17h-18.75
	l-13.05,77.09h18.75l7.12-42.04c4.7-3.61,10.44-6.66,16.64-6.66c3.24,0,6.03,0.98,7.87,2.62c3.43,3.05,2.8,7.64,1.91,12.88
	l-5.62,33.19h18.75l6.27-37.01C394.47,385.39,395.78,377.64,387.29,372.83z M436.97,369.01c-21.43,0-28.7,9.61-32.71,14.96
	l4.48,1.86c3.32-2.95,9.3-8.3,21.29-8.3c5.36,0,13.15,1.42,15.54,7.31c0.93,2.33,0.91,4.82,0.67,7.27h0.4l-2.94,17.36h-0.32
	l-1.1,6.48c-3.98,1.86-8.86,4.04-15.49,4.04c-9.45,0-12.1-5.13-11.29-9.94c1.2-7.1,9.11-10.48,17.42-10.48
	c2.56,0,4.75,0.28,6.76,0.71l1.38-8.11c-3.45-0.72-6.94-1.22-11.61-1.22c-16.78,0-31.67,7.21-33.85,20.09
	c-1.7,10.04,6.27,17.9,20.93,17.9c13.39,0,21.37-5.46,24.9-7.97l-1.07,6.33h18.18l5.72-33.74c0.87-5.13,1.98-12.55-4.12-18.12
	C456.59,372.18,449.23,369.01,436.97,369.01z M601.42,422.51c-1.41,0-7.05,0-9.6-4.91c-1.09-1.86-1.55-4.15-0.76-8.85l4.31-25.47
	h20.49l2.01-11.87h-20.49l2.57-15.18H581.2l-2.57,15.18H558.9l-17.12,27.84l-3,5.24c-1.05-2.95-1.1-3.5-2.07-6.12l-9.81-26.97h-6.2
	l-24.34,32.98c-0.52-2.73-0.7-3.39-1.25-5.9l-7.26-27.08h-19.6l17.25,56.34h6.9l24.55-32.53l13.52,32.53h6.77l29.01-44.47h10.37
	l-4.69,27.77c-0.83,4.91-0.96,9.83,3.59,13.76c4.78,4.26,12.2,4.58,15.58,4.58c9.31,0,14.81-2.51,19.37-4.48l-1.67-3.49
	C606.45,421.97,604.38,422.51,601.42,422.51z M640.17,392.27c-0.25,0.37-0.79,1.55-1.41,5.21c-0.25,1.43-0.37,2.5-0.44,3.31h50.03
	c0.89-6.12,2.51-16.49-6.17-24.35c-7.6-6.77-18.75-7.54-24.95-7.54c-25.52,0-41.31,13.32-44.08,29.7c-2.9,17.14,8.43,31,34.37,31
	c24.81,0,32.54-11.46,36.67-17.57l-4.36-1.75c-5.77,4.91-11.85,10.04-24.96,10.04c-19.11,0-21.67-11.33-22.02-17.16
	c-0.09-0.23-0.41-1.39,0.22-5.27c0.65-3.95,1.48-5.47,1.65-5.75c3.04-6.42,7.1-14.07,20.53-14.07c14.1,0,14.1,9.17,14.09,14.2
	L640.17,392.27L640.17,392.27z M306.44,356.24h-18.75l-9.28,54.81c-0.83,4.91-0.96,9.83,3.59,13.76c4.78,4.26,12.19,4.58,15.58,4.58
	c9.3,0,14.8-2.51,19.37-4.48l-1.67-3.49c-2.35,0.55-4.41,1.09-7.37,1.09c-1.41,0-7.05,0-9.6-4.91c-1.09-1.86-1.55-4.15-0.76-8.85
	l4.31-25.48h15.17l2-11.79h-15.17L306.44,356.24z"/>
<path style="fill:#ED174C;" d="M184.17,318.25c-39.59,0-71.68,32.09-71.68,71.67s32.09,71.67,71.68,71.67
	c39.59,0,71.68-32.09,71.68-71.67S223.76,318.25,184.17,318.25z M184.17,447.35c-31.72,0-57.44-25.71-57.44-57.43
	c0-31.72,25.71-57.43,57.44-57.43c31.72,0,57.44,25.71,57.44,57.43C241.6,421.64,215.89,447.35,184.17,447.35z M191.1,354.95h-18.75
	l-9.28,54.81c-0.83,4.91-0.96,9.83,3.59,13.76c4.77,4.26,12.2,4.58,15.58,4.58c9.31,0,14.81-2.51,19.37-4.47l-1.66-3.49
	c-2.35,0.55-4.42,1.1-7.38,1.1c-1.41,0-7.05,0-9.6-4.92c-1.09-1.86-1.55-4.15-0.76-8.84l4.31-25.48h15.17l2-11.79h-15.18
	L191.1,354.95z"/>
<path style="fill:#004FA3;" d="M697.95,361.47h-4.71v12.15h-3.9v-12.15h-4.71v-2.92h13.31L697.95,361.47L697.95,361.47z
	 M716.1,373.62h-3.9v-10.1l-2.78,6.55h-2.67l-2.78-6.55v10.1h-3.67v-15.08h4.53l3.38,7.57l3.36-7.57h4.54L716.1,373.62L716.1,373.62
	z"/>
<path style="fill:#004FA3;" d="M737.38,440.54h-3.53v9.12h-2.92v-9.12h-3.53v-2.19h9.99V440.54z M752.48,449.66h-2.92v-7.58
	l-2.08,4.92h-2l-2.08-4.92v7.58h-2.75v-11.31h3.39l2.54,5.68l2.52-5.68h3.4L752.48,449.66L752.48,449.66z"/>
<path style="fill:#004FA3;" d="M465.42,443.93c-1.64,0-3.14,1.13-3.3,2.46c-0.08,0.67,0.16,1.3,0.67,1.77
	c0.5,0.47,1.23,0.74,2.03,0.74c1.64,0,3.09-1.13,3.26-2.5C468.24,445.06,467.02,443.93,465.42,443.93z M459.81,468.13h5.32
	l2.09-17.04h-5.31L459.81,468.13z M478.37,446.46h-5.31l-0.57,4.63h-3.24l-0.33,2.67h3.24l-1.16,9.42c-0.18,1.49-0.17,3,1.16,4.19
	c1.4,1.3,3.5,1.4,4.46,1.4c2.64,0,4.18-0.77,5.45-1.37l-0.51-1.06c-0.66,0.16-1.24,0.33-2.08,0.33c-0.4,0-2,0-2.77-1.49
	c-0.33-0.57-0.48-1.27-0.31-2.7l1.07-8.72h4.67l0.33-2.67h-4.68L478.37,446.46z M486.77,444.63l-3.44,9.42l1.57,0.3l7.67-9.72
	H486.77z M496.98,452.92c4.03,0,4.82,1.73,5.11,2.33l1.44-0.33c-0.08-0.67-0.2-1.67-1.27-2.7c-1.15-1.1-3.13-1.86-5.84-1.86
	c-5.96,0-8.96,3-9.29,5.72c-0.38,3.1,2.58,4.07,3.35,4.29c0.88,0.3,1.78,0.46,2.68,0.64c2.54,0.46,3.8,0.9,4.27,2
	c0.09,0.3,0.13,0.56,0.1,0.83c-0.02,0.1-0.2,1.67-2.52,2.27c-0.7,0.2-1.39,0.23-2.03,0.23c-2.23,0-4.07-0.63-5.08-1.57
	c-0.5-0.47-0.68-0.94-0.87-1.36l-1.43,0.26c0.02,0.8,0.11,2.04,1.33,3.2c0.79,0.73,2.67,1.96,6.67,1.96c5.87,0,9.05-2.76,9.41-5.72
	c0.18-1.43-0.31-2.7-1.16-3.53c-1.04-1-2.55-1.36-3.64-1.6c-0.74-0.16-1.48-0.3-2.22-0.43c-1.75-0.4-3.53-0.83-3.35-2.37
	C492.76,454.08,494.07,452.92,496.98,452.92z M551.78,446.46h-5.31l-0.57,4.63h-3.24l-0.33,2.67h3.24l-1.16,9.42
	c-0.18,1.49-0.17,3,1.16,4.19c1.4,1.3,3.51,1.4,4.47,1.4c2.64,0,4.17-0.77,5.44-1.37l-0.51-1.06c-0.66,0.16-1.24,0.33-2.08,0.33
	c-0.4,0-2,0-2.78-1.49c-0.33-0.57-0.48-1.27-0.3-2.7l1.07-8.72h4.67l0.33-2.67h-4.67L551.78,446.46z M563.76,453.22l0.26-2.13h-5.35
	l-2.1,17.04h5.35l1.62-13.21c0.98-0.5,2.26-1.16,4.22-1.16c1.48,0,2.47,0.39,3.42,0.79l0.48-3.86c-0.47-0.06-0.99-0.09-1.51-0.09
	C566.52,450.59,564.66,452.35,563.76,453.22z M584.84,464.07c-1.25,1.07-2.71,1.9-4.43,1.9c-2.64,0-3.49-1.53-3.21-3.76l1.36-11.12
	h-5.35l-1.45,11.75c-0.19,1.53-0.72,5.83,6.2,5.83c3.68,0,5.47-1.6,6.64-2.63l-0.26,2.1h5.35l2.1-17.04h-5.35L584.84,464.07z
	 M604.25,452.92c4.03,0,4.82,1.73,5.11,2.33l1.44-0.33c-0.07-0.67-0.19-1.67-1.27-2.7c-1.14-1.1-3.12-1.86-5.84-1.86
	c-5.95,0-8.96,3-9.29,5.72c-0.38,3.1,2.58,4.07,3.35,4.29c0.88,0.3,1.78,0.46,2.68,0.64c2.54,0.46,3.8,0.9,4.27,2
	c0.08,0.3,0.13,0.56,0.1,0.83c-0.01,0.1-0.2,1.67-2.52,2.27c-0.7,0.2-1.38,0.23-2.02,0.23c-2.24,0-4.08-0.63-5.09-1.57
	c-0.5-0.47-0.68-0.94-0.87-1.36l-1.44,0.26c0.02,0.8,0.11,2.04,1.33,3.2c0.79,0.73,2.67,1.96,6.67,1.96c5.87,0,9.05-2.76,9.41-5.72
	c0.18-1.43-0.31-2.7-1.17-3.53c-1.03-1-2.55-1.36-3.64-1.6c-0.74-0.16-1.48-0.3-2.22-0.43c-1.75-0.4-3.54-0.83-3.35-2.37
	C600.03,454.08,601.33,452.92,604.25,452.92z M621.68,446.46h-5.32l-0.57,4.63h-3.24l-0.33,2.67h3.24l-1.16,9.42
	c-0.18,1.49-0.16,3,1.16,4.19c1.4,1.3,3.5,1.4,4.46,1.4c2.64,0,4.17-0.77,5.45-1.37l-0.51-1.06c-0.66,0.16-1.24,0.33-2.08,0.33
	c-0.4,0-2,0-2.77-1.49c-0.33-0.57-0.49-1.27-0.31-2.7l1.07-8.72h4.67l0.33-2.67h-4.67L621.68,446.46z M644.67,446.46h-5.32
	l-0.57,4.63h-3.24l-0.33,2.67h3.24l-1.16,9.42c-0.18,1.49-0.16,3,1.16,4.19c1.4,1.3,3.5,1.4,4.46,1.4c2.64,0,4.17-0.77,5.44-1.37
	l-0.5-1.06c-0.66,0.16-1.24,0.33-2.08,0.33c-0.4,0-2,0-2.77-1.49c-0.33-0.57-0.49-1.27-0.31-2.7l1.07-8.72h4.67l0.33-2.67h-4.67
	L644.67,446.46z M667.4,451.52c-1.01-0.57-2.36-0.97-3.96-0.97c-3.75,0-5.94,1.9-6.84,2.66l1.06-8.59h-5.32l-2.88,23.5h5.31
	l1.58-12.81c1.29-1.1,2.89-2.04,4.64-2.04c0.92,0,1.72,0.31,2.26,0.8c1,0.93,0.88,2.33,0.68,3.92l-1.25,10.12H668l1.38-11.28
	C669.57,455.35,669.86,452.99,667.4,451.52z M677.91,443.93c-1.64,0-3.14,1.13-3.3,2.46c-0.08,0.67,0.16,1.3,0.66,1.77
	c0.5,0.47,1.23,0.74,2.02,0.74c1.64,0,3.1-1.13,3.26-2.5C680.72,445.06,679.5,443.93,677.91,443.93z M672.3,468.13h5.32l2.09-17.04
	h-5.32L672.3,468.13z M696.03,450.59c-3.88,0-5.85,1.73-7.01,2.73l0.27-2.23h-5.32l-2.1,17.04h5.32l1.55-12.68
	c1.03-0.87,2.5-2.1,4.69-2.1c1.92,0,2.79,1.03,2.99,2c0.13,0.57,0.06,1.16-0.01,1.73l-1.36,11.05h5.35l1.42-11.52
	c0.17-1.44,0.26-3.13-1.09-4.46C699.78,451.22,698.14,450.59,696.03,450.59z M721,451.09l-0.22,1.83c-0.74-0.87-2.13-2.56-5.84-2.56
	c-5.04,0-9.25,3.43-9.9,8.72c-0.68,5.56,3.32,8.39,7.36,8.39c2.2,0,4.42-0.8,5.82-1.8c0.39-0.26,0.75-0.56,1.1-0.9
	c-0.21,2.07-0.49,4.33-2.65,5.96c-0.66,0.49-2.26,1.53-4.98,1.53c-2.24,0-3.87-0.76-4.8-1.63c-0.35-0.37-0.66-0.8-1.14-1.47
	l-1.34,0.5c0.14,0.8,0.35,2.03,1.53,3.13c1.33,1.23,3.85,2.1,7.01,2.1c3.31,0,6.43-0.93,8.28-2.33c2.64-2,3.01-4.69,3.32-6.9
	l1.79-14.58L721,451.09L721,451.09z M719.56,462.83c-0.8,0.67-2.39,1.93-4.71,1.93c-2.48,0-4.6-1.86-4.13-5.69
	c0.47-3.86,2.78-6.06,5.74-6.06c2.44,0,3.36,1.3,4.04,2.26L719.56,462.83z M523.4,450.36c-6.08,0-8.04,2.93-9.11,4.56l1.29,0.57
	c0.91-0.9,2.55-2.53,5.94-2.53c1.52,0,3.74,0.43,4.48,2.23c0.33,0.83,0.31,1.73,0.24,2.6c-1.55-0.4-2.78-0.73-4.74-0.73
	c-4.76,0-8.9,2.19-9.38,6.12c-0.38,3.06,1.97,5.46,6.12,5.46c3.8,0,6-1.66,6.97-2.43l-0.23,1.93h5.15l1.26-10.29
	c0.19-1.56,0.43-3.83-1.36-5.52C528.99,451.32,526.87,450.36,523.4,450.36z M525.4,464.67c-1.11,0.57-2.47,1.23-4.35,1.23
	c-2.67,0-3.48-1.56-3.3-3.03c0.27-2.17,2.47-3.2,4.83-3.2c1.35,0,2.36,0.3,3.36,0.64L525.4,464.67z"/>
</svg>
