<?xml version="1.0" encoding="utf-8"?>
<!-- Generator: Adobe Illustrator 19.1.0, SVG Export Plug-In . SVG Version: 6.00 Build 0)  -->
<svg version="1.1" id="Layer_1" xmlns="http://www.w3.org/2000/svg" xmlns:xlink="http://www.w3.org/1999/xlink" x="0px" y="0px"
	 width="640px" height="1317.34px" viewBox="-480.74 -261.39 640 1317.34"
	 style="enable-background:new -480.74 -261.39 640 1317.34;" xml:space="preserve">
<g>
	<g>
		<g>
			<g>
				<path style="fill:#001C58;" d="M-303.42,625.69c-3.68-0.93-6.86-3.19-9.3-6.64c-12.44,19.18-17.67,36.32-13.11,51.73
					c19.13,64.57,76.13,112.31,144.38,118.65C-246.69,769.62-294.96,701.64-303.42,625.69z M-316.79,587.51
					c-4.12-2.92-7.62-5.67-10.14-8.06c-4.38,16.08-6.38,33.08-5.67,50.58c0.13,3.54,0.4,7.04,0.75,10.5
					c2.52-10.36,7.48-21.17,14.61-32.2C-318.56,601.9-318.34,594.55-316.79,587.51z M-313.56,577.63c1.73-3.9,3.9-7.53,6.47-10.58
					c2.08-2.44,4.25-4.38,6.6-5.8c6.2-28.92,19.18-54.7,38.13-74.18c-28.3,20.11-49.96,48.8-61.38,82.06
					C-322.24,571.26-318.21,574.36-313.56,577.63z M-68.78,726.13c-14.13-1.55-33.04-5.27-41.28-8.15
					c-9.21-3.19-17.41-10.89-21.92-20.59c-1.86-4.03-3.54-9.34-3.81-15.85c-0.18-3.85,0.22-8.15,1.33-12.75
					c-51.77-15.81-106.64-37.73-144.82-58.11c-1.33,2.48-2.88,4.74-4.61,6.78c-2.88,3.41-6.11,5.89-9.43,7.26
					c3.59,31.75,14.61,62.89,32.2,90.04c23.3,36.01,55.05,60.63,89.33,68.38c12.13,2.75,28.03,6.16,42.25,3.01
					c52.7-11.69,95.66-48.14,116.65-96.06c-2.48,0.44-5.23,0.66-8.19,0.8C-33.04,726.04-58.33,727.28-68.78,726.13z M0.97,616.43
					C0.22,597.92-3.5,580.2-9.79,563.82c-7.66-20.15-33.39-34.41-67.23-42.07c-62.58-14.13-144.73,9.21-197.04,53.23
					c1.99,8.02,1.42,17.58-1.28,26.31c37.69,20.24,92.47,42.21,144.2,57.93c12.18-27.95,35.47-33.26,53.63-28.74
					c13.02,3.23,21.39,4.96,27.5,6.2l6.73,1.42c8.64,2.04,16.21,7.75,20.77,15.77c3.23,5.67,6.2,14.57,4.16,26.88
					c6.38-0.35,9.43-1.42,10.14-2.3C-1.46,659.08,1.86,638.18,0.97,616.43z M-28.7,680.69c2.08-10.32-0.18-17.49-2.66-21.88
					c-3.14-5.54-8.33-9.52-14.22-10.89l-6.42-1.37c-5.85-1.2-14.7-2.97-27.95-6.29c-17.72-4.43-32.95,3.68-41.32,21.79
					c8.64,2.52,17.14,4.83,25.42,6.95c1.33-6.47,1.64-10.94,1.64-10.98c0.18-2.79,2.57-4.92,5.36-4.78
					c2.79,0.18,4.92,2.57,4.78,5.36c0,0.35-0.35,5.49-1.86,12.8c1.64,0.4,3.28,0.75,4.87,1.15c1.68,0.35,3.32,0.75,4.92,1.11
					c1.46-7.13,2.39-13.2,2.39-13.33c0.4-2.79,3.01-4.69,5.76-4.25c2.79,0.4,4.69,3.01,4.25,5.76c-0.09,0.49-1.02,6.55-2.48,13.86
					c3.41,0.66,6.64,1.24,9.7,1.77c1.11-6.16,1.42-11.07,1.42-11.16c0.13-2.79,2.52-4.96,5.31-4.83c2.79,0.13,4.96,2.52,4.83,5.31
					c0,0.4-0.31,5.54-1.51,12.18C-39.51,679.94-33.62,680.47-28.7,680.69z M-122.77,693.14c3.99,8.55,10.89,13.51,16.03,15.28
					c6.69,2.3,24.36,6.02,39.06,7.66c16.12,1.77,28.7-7.17,35.87-25.29c-5.4-0.31-11.16-0.93-17.14-1.77
					c-1.11,3.63-2.57,7.26-4.38,10.5c-1.37,2.44-4.47,3.28-6.91,1.9c-2.44-1.37-3.28-4.47-1.9-6.91c1.24-2.13,2.21-4.56,3.06-7.09
					c-3.14-0.53-6.29-1.15-9.48-1.73c-1.06,4.21-2.3,8.19-3.59,11.2c-1.11,2.57-4.12,3.72-6.69,2.61c-2.57-1.11-3.76-4.12-2.61-6.69
					c1.06-2.39,2.04-5.67,2.97-9.21c-1.64-0.35-3.28-0.71-4.87-1.11c-1.73-0.4-3.45-0.8-5.18-1.2c-0.93,2.92-1.99,5.98-3.32,9.08
					c-1.11,2.57-4.07,3.81-6.64,2.7c-2.57-1.11-3.81-4.07-2.7-6.64c1.06-2.57,1.99-5.09,2.79-7.57c-8.55-2.17-17.36-4.56-26.26-7.17
					C-126.84,681.05-124.98,688.35-122.77,693.14z M-289.95,566.65c-2.26-0.4-6.73-0.35-11.16,4.47
					c-7.09,7.66-10.36,18.03-9.88,30.82l0,0c0.13,3.28,0.58,5.09,1.51,7.71c1.64,4.65,5.58,7.71,8.5,8.24
					c3.45,0.62,7.31-1.37,10.94-5.67c7.93-9.39,11.34-26.57,7.44-37.6C-284.24,570.06-286.85,567.23-289.95,566.65z"/>
			</g>
		</g>
		<g>
			<g>
				<path style="fill:#001C58;" d="M-132.16,311.73c0,56.47-24.09,102.39-38,116.3c-43.14,43.14-78.7,11.74-79.1,55.01
					c-19.58,17.72-33.66,44.64-40.57,75.42c0.44,0.04,0.84,0.09,1.28,0.18c4.07,0.75,7.53,3.06,10.19,6.69
					c54.78-44.64,139.11-68.11,203.55-53.54c20.51,4.65,37.87,12.18,51.02,23.78c-19.8-32.02-50.04-56.73-85.83-69.53
					c-8.5-3.06-23.56-6.51-23.56-34.06c0-51.42,56.25-11.43,93.27-67.45c1.82-2.75-0.8-5.18-2.97-3.01
					c-11.2,11.2-38.75,18.91-53.32,18.91s-20.06-3.32-20.06-3.32c13.77-27.37,30.91-50.71,30.91-50.71
					c-34.41-34.41,23.47-223.56,176.71-223.56c0-43.89-4.65-78.12-10.27-103.54c-3.63,0.89-32.51,7.71-33.84,1.64
					C46.1-4.44,68.51-16.13,76.22-19.94C68.69-46.16,61.2-58.47,61.2-58.47C-70.02-17.06-43.63,91.67-75.6,91.67
					c-20.82,0-37.16-16.21-43-22.06c-78.43-78.43-41.9-130.34-41.9-234.55c0-70.15-27.28-96.46-77.64-96.46
					s-68.34,21.79-68.34,21.79s69,2.26,69,74.71c0,75.86-85.43,96.81-85.43,193.01C-322.9,188.3-132.16,185.33-132.16,311.73z
					 M-223.08-164.89c0-9.3-1.02-17.72-2.83-25.29c0,0,15.01-0.8,15.01-19.04c0-15.06-10.05-25.33-12.75-25.33
					c-2.17,0-2.7,2.3-7.4,2.3c-11.47,0-12.31-14.66-12.31-14.66c1.68-0.04,3.45-0.09,5.23-0.09c32.82,0,63.24,9.96,63.24,82.11
					c0,26.66-2.52,50.44-4.74,71.39c-2.21,20.68-4.25,39.95-3.68,58.73c0,0-57.18-6.73-57.18-49.73
					C-240.48-112.5-223.08-119.28-223.08-164.89z M-303.42,625.69c-3.68-0.93-6.86-3.19-9.3-6.64
					c-12.44,19.18-17.67,36.32-13.11,51.73c19.13,64.57,76.13,112.31,144.38,118.65C-246.69,769.62-294.96,701.64-303.42,625.69z
					 M-316.79,587.51c-4.12-2.92-7.62-5.67-10.14-8.06c-4.38,16.08-6.38,33.08-5.67,50.58c0.13,3.54,0.4,7.04,0.75,10.5
					c2.52-10.36,7.48-21.17,14.61-32.2C-318.56,601.9-318.34,594.55-316.79,587.51z M-313.56,577.63c1.73-3.9,3.9-7.53,6.47-10.58
					c2.08-2.44,4.25-4.38,6.6-5.8c6.2-28.92,19.18-54.7,38.13-74.18c-28.3,20.11-49.96,48.8-61.38,82.06
					C-322.24,571.26-318.21,574.36-313.56,577.63z M-68.78,726.13c-14.13-1.55-33.04-5.27-41.28-8.15
					c-9.21-3.19-17.41-10.89-21.92-20.59c-1.86-4.03-3.54-9.34-3.81-15.85c-0.18-3.85,0.22-8.15,1.33-12.75
					c-51.77-15.81-106.64-37.73-144.82-58.11c-1.33,2.48-2.88,4.74-4.61,6.78c-2.88,3.41-6.11,5.89-9.43,7.26
					c3.59,31.75,14.61,62.89,32.2,90.04c23.3,36.01,55.05,60.63,89.33,68.38c12.13,2.75,28.03,6.16,42.25,3.01
					c52.7-11.69,95.66-48.14,116.65-96.06c-2.48,0.44-5.23,0.66-8.19,0.8C-33.04,726.04-58.33,727.28-68.78,726.13z M-9.79,563.82
					c-7.66-20.15-33.39-34.41-67.23-42.07c-62.58-14.13-144.73,9.21-197.04,53.23c1.99,8.02,1.42,17.58-1.28,26.31
					c37.69,20.24,92.47,42.21,144.2,57.93c12.18-27.95,35.47-33.26,53.63-28.74c13.02,3.23,21.39,4.96,27.5,6.2l6.73,1.42
					c8.64,2.04,16.21,7.75,20.77,15.77c3.23,5.67,6.2,14.57,4.16,26.88c6.38-0.35,9.43-1.42,10.14-2.3
					c6.78-19.35,10.1-40.26,9.21-61.96C0.22,597.92-3.55,580.25-9.79,563.82z M-122.77,693.14c3.99,8.55,10.89,13.51,16.03,15.28
					c6.69,2.3,24.36,6.02,39.06,7.66c16.12,1.77,28.7-7.17,35.87-25.29c-5.4-0.31-11.16-0.93-17.14-1.77
					c-1.11,3.63-2.57,7.26-4.38,10.5c-1.37,2.44-4.47,3.28-6.91,1.9c-2.44-1.37-3.28-4.47-1.9-6.91c1.24-2.13,2.21-4.56,3.06-7.09
					c-3.14-0.53-6.29-1.15-9.48-1.73c-1.06,4.21-2.3,8.19-3.59,11.2c-1.11,2.57-4.12,3.72-6.69,2.61c-2.57-1.11-3.76-4.12-2.61-6.69
					c1.06-2.39,2.04-5.67,2.97-9.21c-1.64-0.35-3.28-0.71-4.87-1.11c-1.73-0.4-3.45-0.8-5.18-1.2c-0.93,2.92-1.99,5.98-3.32,9.08
					c-1.11,2.57-4.07,3.81-6.64,2.7c-2.57-1.11-3.81-4.07-2.7-6.64c1.06-2.57,1.99-5.09,2.79-7.57c-8.55-2.17-17.36-4.56-26.26-7.17
					C-126.84,681.05-124.98,688.35-122.77,693.14z M-28.7,680.69c2.08-10.32-0.18-17.49-2.66-21.88
					c-3.14-5.54-8.33-9.52-14.22-10.89l-6.42-1.37c-5.85-1.2-14.7-2.97-27.95-6.29c-17.72-4.43-32.95,3.68-41.32,21.79
					c8.64,2.52,17.14,4.83,25.42,6.95c1.33-6.47,1.64-10.94,1.64-10.98c0.18-2.79,2.57-4.92,5.36-4.78
					c2.79,0.18,4.92,2.57,4.78,5.36c0,0.35-0.35,5.49-1.86,12.8c1.64,0.4,3.28,0.75,4.87,1.15c1.68,0.35,3.32,0.75,4.92,1.11
					c1.46-7.13,2.39-13.2,2.39-13.33c0.4-2.79,3.01-4.69,5.76-4.25c2.79,0.4,4.69,3.01,4.25,5.76c-0.09,0.49-1.02,6.55-2.48,13.86
					c3.41,0.66,6.64,1.24,9.7,1.77c1.11-6.16,1.42-11.07,1.42-11.16c0.13-2.79,2.52-4.96,5.31-4.83c2.79,0.13,4.96,2.52,4.83,5.31
					c0,0.4-0.31,5.54-1.51,12.18C-39.51,679.94-33.62,680.47-28.7,680.69z M-289.95,566.65c-2.26-0.4-6.73-0.35-11.16,4.47
					c-7.09,7.66-10.36,18.03-9.88,30.82l0,0c0.13,3.28,0.58,5.09,1.51,7.71c1.64,4.65,5.58,7.71,8.5,8.24
					c3.45,0.62,7.31-1.37,10.94-5.67c7.93-9.39,11.34-26.57,7.44-37.6C-284.24,570.06-286.85,567.23-289.95,566.65z"/>
			</g>
		</g>
		<g>
			<path style="fill:#001C58;" d="M-421.27,769.27c12.8,8.46,26.35,16.03,26.35,16.03l-4.74,12.31c-1.77-7.44-9.17-11.47-18.69-17.4
				l-31.22,45.17c-3.81,5.45-11.25,17.36-11.82,22.01c0,0-5.14-3.28-9.79-6.73c-4.92-3.68-9.57-7.04-9.57-7.04
				c4.65-1.15,12.71-12.98,17.54-19.58l30.38-43.36c-11.38-8.77-15.81-10.54-23.87-10.94l10.81-8.1
				C-445.85,751.64-435.48,759.88-421.27,769.27z"/>
			<path style="fill:#001C58;" d="M-401.03,881.27c-21.7-10.36-24.58-34.28-13.91-56.64c10.72-22.5,31.18-35.12,52.75-24.8
				s24.62,34.15,13.91,56.64C-358.95,878.83-379.33,891.63-401.03,881.27z M-365.24,806.34c-13.86-6.6-24.8,9.03-32.99,26.26
				c-8.24,17.23-13.6,35.7,0.27,42.29c13.86,6.6,24.85-9.17,33.08-26.4C-356.7,831.31-351.38,812.98-365.24,806.34z"/>
			<path style="fill:#001C58;" d="M-303.95,822.94c14.66,4.16,26.62,6.91,26.62,6.91l-1.28,13.11c-3.94-5.67-5.71-7.04-18.25-10.23
				l-15.19,51.06c-1.24,4.65-7.26,22.32-5.31,25.69c0,0-4.21-0.89-11.03-2.79c-7.66-2.13-11.25-3.54-11.25-3.54
				c3.9-2.57,8.86-17.72,10.45-23.83l15.23-51.37c-12.98-4.3-15.99-4.65-22.19-1.73l7.53-11.2
				C-328.62,814.97-320.11,818.38-303.95,822.94z"/>
			<path style="fill:#001C58;" d="M-243.45,836.5c14.48,2.17,28.08,3.41,28.08,3.41l0.53,13.15c-5.4-4.78-7.44-6.38-21.7-8.15
				l-8.28,52.44c-0.58,4.78-3.68,23.03-1.28,26.04c0,0-5-0.53-11.91-1.51c-6.91-0.97-11.16-1.95-11.16-1.95
				c3.37-2.66,6.2-19.93,6.78-24.71l8.46-53.06c-12.36-2.48-14.92-1.51-20.86,1.9l5.36-12.44
				C-269.4,831.62-257.85,834.33-243.45,836.5z"/>
			<path style="fill:#001C58;" d="M-189.82,886.36l-1.11,35.21c18.47,0.22,31.13-0.93,36.76-8.95l-2.83,15.99c0,0-10.23,0.22-25.2,0
				c-16.47-0.22-29.41-1.28-29.41-1.28c2.75-2.7,3.41-19.89,3.45-24.71l1.51-34.59c0.04-9.21,0.89-24.09-2.17-27.19
				c13.37,0.93,11.69,0.93,23.96,1.37c16.08,0.62,25.2,0.13,25.2,0.13l2.04,13.2c-6.29-5.23-15.68-5.85-31.05-5.93l-0.84,29.54
				l23.61,0.13c2.13,0.04,2.26,1.2,2.26,3.59c0,2.35-0.04,3.59-2.3,3.54L-189.82,886.36z"/>
			<path style="fill:#001C58;" d="M-86.67,896.95c1.37,12.84,2.7,22.01,5.62,23.69c-0.75,1.33-3.06,3.06-6.11,3.41
				c-3.68,0.4-6.51-1.42-9.08-4.38l-41.85-48.01l1.55,30.56c0.53,4.78,1.06,23.03,4.07,25.42l-13.95,0.62
				c2.44-3.01,1.77-20.33,1.28-25.16l-1.99-34.5c-0.53-4.83-1.42-23.87-4.43-26.31l12.8-0.44l42.91,50.97l-3.59-29.32
				c-0.53-4.83-3.14-22.28-6.02-24.71c0,0,1.55-0.13,6.73-0.84s7.09-1.06,7.09-1.06c-2.44,3.01,0.4,20.9,0.89,25.73L-86.67,896.95z"
				/>
			<path style="fill:#001C58;" d="M-8.02,878.79c1.46,5.98,4.43,21.26,8.81,24.27c0,0-6.64,1.9-10.67,3.14
				c-3.59,1.11-11.56,3.19-11.56,3.19c1.86-3.32-2.3-21.7-3.45-26.26l-3.99-15.99l-26.62,6.51l3.01,16.25
				c0.89,5.27,3.63,22.94,7.22,25.11c0,0-3.72,0.75-11.47,2.35c-6.51,1.33-11.03,2.04-11.03,2.04c1.99-3.32-0.66-19.71-1.51-24.93
				l-6.42-34.37c-1.2-6.42-4.12-22.63-7.71-24.54c0,0,3.45-0.66,11.03-2.13c7.62-1.46,11.34-2.48,11.34-2.48
				c-1.86,3.85,1.42,19.4,2.35,24.85l2.04,10.89l26.17-6.38l-2.83-11.16c-1.55-5.89-4.78-20.06-8.41-22.72c0,0,3.59-1.06,10.89-3.1
				c7.31-2.08,10.41-3.23,10.41-3.23c-1.46,3.94,2.61,17.72,4.3,24.85L-8.02,878.79z"/>
			<path style="fill:#001C58;" d="M40.61,858.37l-25.95,10.19l0.89,14.26c0.58,4.87,0.58,9.34,1.68,11.87
				c0.53,1.24,1.42,2.08,2.26,2.52c0,0-2.7,0.97-7.17,2.44c-4.47,1.46-6.91,2.17-6.91,2.17c1.55-2.66,1.95-6.38,1.77-10.98
				l-2.26-67.58c-0.22-2.48-0.53-4.74-1.33-6.69c-0.71-1.73-1.95-2.7-2.79-3.41c2.97-1.9,6.64-4.03,10.41-5.58
				c5.98-2.52,8.46-2.39,12.8,2.66l38.09,47.25c6.91,9.03,13.06,15.1,17.01,16.3c0,0-3.9,1.82-11.2,5.05
				c-7.31,3.28-12.18,5.09-12.18,5.09c0.44-1.55,0.49-3.14-0.49-5.58c-1.02-2.61-4.78-7.09-7.17-10.45L40.61,858.37z M35.87,852.79
				L12.8,820.82l1.64,40.17L35.87,852.79z"/>
			<path style="fill:#001C58;" d="M149.38,833.88c-5.23,3.54-9.12,6.2-9.12,6.2c-0.4-5.14-10.32-17.85-13.24-21.7l-22.37-29.19
				l17.98,57.53c-0.71,1.15-1.99,2.75-3.14,3.63c-3.54,2.7-7,2.17-10.19-0.31l-42.6-35.34l14.92,27.46
				c3.63,6.95,10.67,21.44,15.41,22.85c0,0-2.92,1.55-6.64,3.37c-3.68,1.77-5.98,2.83-5.98,2.83c0.8-4.03-6.11-16.08-10.14-23.74
				l-16.61-31.22c-5-9.39-10.58-18.96-15.37-20.86c3.68-1.77,4.83-2.35,10.1-4.96c4.38-2.17,8.28-4.3,8.28-4.3l47.96,40.79
				l-18.87-57.8c0,0,2.52-1.73,7.31-4.92c4.78-3.19,9.12-6.38,9.12-6.38c0.35,5.18,10.32,18.34,13.99,23.03l20.64,26.57
				c4.38,5.45,12.58,17.63,18.42,19.04C159.26,826.66,154.6,830.34,149.38,833.88z"/>
			<path style="fill:#001C58;" d="M-341.55,938.98c4.43,1.64,10.19,3.63,10.19,3.63c-4.83,3.5-9.3,17.45-12.13,24.98l-11.16,30.91
				c-2.97,8.37-8.06,20.55-6.38,24.89c0,0-6.11-2.13-11.07-3.9c-4.25-1.51-6.64-2.35-11.16-4.25c5.45-1.46,10.63-19.62,12.27-24.18
				l5.09-14.39l-26.71-11.12l-7.71,16.52c-2.52,5.71-8.5,18.69-7.09,22.76c0,0-4.69-1.95-11.6-5.09c-8.15-3.72-9.92-4.74-9.92-4.74
				c5.71-2.83,9.12-12.05,13.46-21.39l13.95-30.91c4.74-10.58,8.99-19.75,8.68-25.78c0,0,2.48,1.51,9.34,4.56
				c5.45,2.44,8.28,3.68,11.34,4.92c-4.34,1.73-10.41,17.32-13.6,24.31l-4.07,8.72l26.09,10.76l3.99-9.92
				c1.86-5.05,8.33-20.15,6.95-25.33C-352.75,934.86-347.4,936.81-341.55,938.98z"/>
			<path style="fill:#001C58;" d="M-311.39,1039.29c-23.25-6.11-30.65-28.65-24.49-52.08c6.2-23.56,23.83-39.37,46.94-33.3
				c23.12,6.07,30.69,28.52,24.49,52.08C-270.6,1029.41-288.14,1045.4-311.39,1039.29z M-290.71,960.68
				c-14.88-3.9-22.54,13.11-27.28,31.18c-4.74,18.07-6.47,36.8,8.37,40.7c14.88,3.9,22.59-13.24,27.33-31.31
				C-277.55,983.22-275.87,964.58-290.71,960.68z"/>
			<path style="fill:#001C58;" d="M-248.41,1047.57c0,0,1.46-1.59,2.48-4.87c1.42-4.56,2.35-13.37,3.45-20.24l6.51-50.35
				c-13.86-1.73-17.41-0.75-23.47,2.88l5.71-12.89c4.34,0.97,13.91,1.99,25.55,3.45c7.79,0.97,31,3.06,31,3.06l0.8,12.89
				c-5.14-5.93-10.41-6.47-21.97-7.35l-6.47,50.53c-0.58,4.69-3.19,21.04-0.62,25.82c-2.79-0.31-7.4-0.84-11.29-1.24
				C-240.84,1048.85-246.11,1047.97-248.41,1047.57z"/>
			<path style="fill:#001C58;" d="M-137.87,1030.08c0.18,15.15-12.18,26.13-31.13,25.86c-14.75-0.22-22.45-6.29-25.42-8.77
				l3.06-14.39c4.56,9.17,12.18,15.81,20.73,15.94c8.9,0.13,15.94-5.14,16.08-13.95c0.09-6.42-3.45-10.32-18.34-18.07
				c-14.26-7.35-19.58-14.7-19.58-25.69c0-14.92,12.98-22.5,28.21-22.5c11.2,0,19.04,3.45,23.96,6.07l-3.19,13.15
				c-6.82-9.08-12.93-12.44-20.37-12.53c-7.31-0.13-12.49,3.9-12.44,11.38c0.04,8.19,9.08,12.62,21.21,19.4
				C-141.1,1013.87-137.96,1021.71-137.87,1030.08z"/>
			<path style="fill:#001C58;" d="M-68.83,983.66c0.53,1.77,0.89,3.94,1.02,5.62c0.13,1.55,0.22,3.63,0.04,5.58
				c-0.4,4.92-2.75,10.63-6.6,14.61c-5.89,6.16-13.55,9.21-23.74,9.7c-3.94,0.22-4.87-0.97-5.14-3.81l-0.04-0.62
				c0,0-0.09-1.11,0.75-1.15l0.97-0.09c3.01-0.35,7.48-1.33,11.03-5.67c3.45-4.47,4.61-10.45,4.03-16.83
				c-0.62-6.64-2.61-11.43-7.09-14.88c-3.9-3.01-8.46-3.94-13.15-3.59c0,0-1.9,0.13-3.99,0.49c0,0-1.24,0.09-1.11,1.33l5.05,52.22
				c0.44,4.61,1.68,20.77,5.45,24.14c0,0-4.3,0.44-12.36,1.11c-6.16,0.49-10.98,0.62-10.98,0.62c1.64-4.03,1.33-9.92,0.93-16.83
				l-3.9-41.19c-0.44-4.69-1.24-20.86-5.09-24.85c0,0,10.32-1.55,29.45-3.32c10.01-0.93,18.2,0.35,25.24,5.09
				C-73.34,974.5-70.15,979.01-68.83,983.66z"/>
			<path style="fill:#001C58;" d="M9.39,1000.49c4.07,18.11-4.43,33.48-23.21,38.22c-13.24,3.32-32.29-1.55-37.6-24.76l-6.47-27.41
				c-1.73-7.66-4.52-21.26-8.95-24.8c0,0,4.96-0.71,12.75-2.17c7.79-1.46,11.43-2.3,11.43-2.3c-2.04,3.23,0.09,15.9,2.13,25.24
				l8.28,34.85c1.51,6.38,3.54,10.76,7.13,13.33c2.66,1.9,6.2,2.44,9.88,1.77c3.37-0.62,6.86-2.52,8.68-5.93
				c1.95-3.59,1.9-8.72,0.44-15.1l-9.3-34.85c-2.52-9.61-5.45-21.57-8.59-23.61c0,0,3.76-1.02,10.94-3.1
				c5.4-1.55,8.64-2.48,10.98-3.32c-2.13,5.23,2.97,21.3,4.03,25.91L9.39,1000.49z"/>
			<path style="fill:#001C58;" d="M93.93,993.36c1.82,0.71,3.76,1.2,5.45,0.49c-0.18,1.15-1.24,3.41-3.06,5.23
				c-7.62,7.79-14.75,6.47-17.18,5.49c-13.15-5-35.08-24.45-36.01-26.57c0,0-0.22-0.58,0.35-0.8l0.8-0.35
				c3.41-1.42,7.31-5.31,8.86-8.99c2.44-5.36,2.04-10.19-0.44-16.12c-2.57-6.16-7.09-10.01-10.63-11.07
				c-5.23-1.55-9.17-0.31-11.51,0.62c0,0-3.14,1.24-4.07,2.17c0,0-0.62,0.53,0.09,2.66l16.61,47.34
				c2.52,6.95,6.91,20.55,10.85,22.85c0,0-4.47,1.77-11.25,4.21c-6.78,2.44-10.94,3.59-10.94,3.59c1.37-5.27-3.85-19.66-5.18-23.69
				l-10.72-31.98c-2.7-7.71-7.57-21.52-11.56-23.74c0,0,7.84-2.21,25.42-9.61c9.34-3.94,18.42-5.62,26.62-3.23
				c4.96,1.46,8.33,3.94,11.07,7.93c1.06,1.55,1.82,3.06,2.48,4.61c0.62,1.46,1.02,3.14,1.33,4.69c0.89,4.83,0.13,9.96-2.66,14.84
				c0,0-2.52,4.87-7.88,8.72C60.72,972.72,77.99,987.34,93.93,993.36z"/>
		</g>
	</g>
</g>
</svg>
