<svg width="136" height="151" xmlns="http://www.w3.org/2000/svg" xmlns:xlink="http://www.w3.org/1999/xlink"><defs><rect id="a" width="87" height="58" rx="1"/></defs><g fill="none" fill-rule="evenodd"><g transform="translate(-120 -232)"><path stroke="#AFB7C2" stroke-width="2" fill="#F8F9FA" d="M121 296h134v82H121z"/><rect stroke="#AFB7C2" stroke-width="2" fill="#F8F9FA" x="130" y="305" width="93" height="64" rx="4"/><g transform="translate(133 308)"><mask id="b" fill="#fff"><use xlink:href="#a"/></mask><use stroke="#AFB7C2" fill="#F8F9FA" xlink:href="#a"/><path d="M-3.793 11.01l4.606 3.75a1 1 0 0 0 1.263 0l3.974-3.237a1 1 0 0 1 1.263 0l3.974 3.237a1 1 0 0 0 1.263 0l3.974-3.237a1 1 0 0 1 1.263 0l3.974 3.237a1 1 0 0 0 1.263 0l3.974-3.237a1 1 0 0 1 1.263 0l3.974 3.237a1 1 0 0 0 1.263 0l3.974-3.237a1 1 0 0 1 1.263 0l3.974 3.237a1 1 0 0 0 1.263 0l3.974-3.237a1 1 0 0 1 1.263 0l3.974 3.237a1 1 0 0 0 1.263 0l3.974-3.237a1 1 0 0 1 1.263 0l3.975 3.237a1 1 0 0 0 1.262 0l3.975-3.237a1 1 0 0 1 1.262 0l3.975 3.237a1 1 0 0 0 1.263 0l3.974-3.237a1 1 0 0 1 1.263 0l3.974 3.237a1 1 0 0 0 1.263 0l4.605-3.75m-94.267 16l4.606 3.75a1 1 0 0 0 1.263 0l3.974-3.237a1 1 0 0 1 1.263 0l3.974 3.237a1 1 0 0 0 1.263 0l3.974-3.237a1 1 0 0 1 1.263 0l3.974 3.237a1 1 0 0 0 1.263 0l3.974-3.237a1 1 0 0 1 1.263 0l3.974 3.237a1 1 0 0 0 1.263 0l3.974-3.237a1 1 0 0 1 1.263 0l3.974 3.237a1 1 0 0 0 1.263 0l3.974-3.237a1 1 0 0 1 1.263 0l3.974 3.237a1 1 0 0 0 1.263 0l3.974-3.237a1 1 0 0 1 1.263 0l3.975 3.237a1 1 0 0 0 1.262 0l3.975-3.237a1 1 0 0 1 1.262 0l3.975 3.237a1 1 0 0 0 1.263 0l3.974-3.237a1 1 0 0 1 1.263 0l3.974 3.237a1 1 0 0 0 1.263 0l4.605-3.75m-94.267 16l4.606 3.75a1 1 0 0 0 1.263 0l3.974-3.237a1 1 0 0 1 1.263 0l3.974 3.237a1 1 0 0 0 1.263 0l3.974-3.237a1 1 0 0 1 1.263 0l3.974 3.237a1 1 0 0 0 1.263 0l3.974-3.237a1 1 0 0 1 1.263 0l3.974 3.237a1 1 0 0 0 1.263 0l3.974-3.237a1 1 0 0 1 1.263 0l3.974 3.237a1 1 0 0 0 1.263 0l3.974-3.237a1 1 0 0 1 1.263 0l3.974 3.237a1 1 0 0 0 1.263 0l3.974-3.237a1 1 0 0 1 1.263 0l3.975 3.237a1 1 0 0 0 1.262 0l3.975-3.237a1 1 0 0 1 1.262 0l3.975 3.237a1 1 0 0 0 1.263 0l3.974-3.237a1 1 0 0 1 1.263 0l3.974 3.237a1 1 0 0 0 1.263 0l4.605-3.75" stroke="#AFB7C2" mask="url(#b)"/></g><path d="M195.719 295.5c0-3.17-3.474-5.741-7.76-5.741s-7.76 2.57-7.76 5.742" stroke="#AFB7C2" stroke-width="2"/><circle stroke="#AFB7C2" stroke-width="2" fill="#F8F9FA" cx="239" cy="313" r="8"/><circle stroke="#AFB7C2" fill="#F8F9FA" cx="239" cy="313" r="5"/><circle stroke="#AFB7C2" stroke-width="2" fill="#F8F9FA" cx="239" cy="361" r="8"/><circle stroke="#AFB7C2" fill="#F8F9FA" cx="239" cy="361" r="5"/><path d="M231.371 326.268h15m-15 5h15m-15 5.232h15m-15 5h15m-15 5h15" stroke="#AFB7C2"/><path d="M192.205 290.861l27.563-58.724m-37.451 59.15L134 248" stroke="#AFB7C2" fill="#F8F9FA" stroke-linecap="round"/><path d="M129 378h118v2a2 2 0 0 1-2 2H131a2 2 0 0 1-2-2v-2z" stroke="#AFB7C2" stroke-width="2" fill="#F8F9FA"/></g></g></svg>