<!-- Generated by IcoMoon.io -->
<svg version="1.1" xmlns="http://www.w3.org/2000/svg" width="27" height="32" viewBox="0 0 27 32">
<path d="M19.040 0c0.133 0.133 0.133 0.133 0.044 0.311-0.444 0.754-0.888 1.509-1.287 2.264-0.133 0.222-0.133 0.222 0.089 0.355 0.799 0.444 1.553 0.976 2.175 1.642 1.11 1.154 1.82 2.53 2.086 4.128 0.044 0.311 0.044 0.577 0.089 0.888 0 0.178 0 0.178-0.178 0.178-3.24 0-6.436 0-9.675 0-2.397 0-4.838 0-7.234 0-0.044 0-0.089 0-0.133 0-0.133 0-0.133-0.044-0.133-0.178 0-0.399 0.044-0.799 0.133-1.243 0.266-1.243 0.799-2.352 1.598-3.329 0.755-0.888 1.642-1.598 2.663-2.13 0.178-0.089 0.178-0.089 0.089-0.222-0.444-0.799-0.888-1.553-1.331-2.352-0.089-0.133-0.089-0.222 0.044-0.311 0.044 0 0.089 0 0.178 0 0.044 0.044 0.044 0.089 0.089 0.133 0.444 0.799 0.932 1.598 1.376 2.397-0.044 0.133-0.044 0.133 0.133 0.089 1.465-0.577 2.974-0.843 4.527-0.666 0.976 0.089 1.908 0.311 2.796 0.71 0.089 0 0.133 0 0.178-0.089 0.399-0.666 0.799-1.376 1.154-2.042 0.133-0.178 0.222-0.399 0.399-0.533 0.044 0 0.089 0 0.133 0zM9.365 5.282c-0.488 0-0.799 0.355-0.799 0.799s0.355 0.799 0.799 0.799c0.444 0 0.799-0.355 0.799-0.799s-0.311-0.799-0.799-0.799zM16.821 6.080c0 0.444 0.355 0.799 0.799 0.799s0.799-0.355 0.799-0.799c0-0.444-0.355-0.799-0.799-0.799s-0.799 0.355-0.799 0.799zM27.029 20.372c0 0.133-0.044 0.266-0.044 0.399-0.133 0.71-0.488 1.243-1.198 1.509-0.843 0.355-1.775 0-2.219-0.799-0.222-0.355-0.311-0.755-0.311-1.154 0-2.619 0-5.193 0-7.811 0-0.755 0.311-1.376 0.976-1.775 0.799-0.488 1.82-0.222 2.352 0.533 0.222 0.355 0.399 0.71 0.399 1.154 0 0.044 0 0.089 0 0.133 0.044 2.574 0.044 5.193 0.044 7.811zM0 12.25c0.089-0.266 0.133-0.533 0.266-0.799 0.399-0.666 0.976-1.065 1.775-0.976 0.71 0.089 1.198 0.533 1.509 1.154 0.133 0.266 0.178 0.533 0.178 0.843 0 2.663 0 5.282 0 7.945 0 0.799-0.399 1.465-1.154 1.82-0.843 0.399-1.775 0.089-2.264-0.71-0.178-0.266-0.266-0.577-0.311-0.888 0-2.752 0-5.592 0-8.388zM13.492 10.741c2.84 0 5.681 0 8.521 0 0.222 0 0.222 0 0.222 0.222 0 4.261 0 8.566 0 12.827 0 0.666-0.666 1.465-1.243 1.598-0.089 0.044-0.178 0.044-0.266 0.044-0.621 0-1.198 0-1.82 0-0.178 0-0.178 0-0.178 0.178 0 1.42 0 2.84 0 4.261 0 0.577-0.178 1.065-0.533 1.509-0.577 0.666-1.687 0.799-2.397 0.222-0.533-0.399-0.799-0.976-0.799-1.642 0-1.465 0-2.885 0-4.349 0-0.222 0-0.222-0.222-0.222-0.843 0-1.731 0-2.574 0-0.178 0-0.178 0-0.178 0.178 0 1.42 0 2.84 0 4.261 0 0.488-0.133 0.932-0.444 1.376-0.755 1.021-2.219 1.021-2.929-0.044-0.266-0.399-0.399-0.799-0.399-1.287 0-1.42 0-2.796 0-4.216 0-0.222 0-0.222-0.222-0.222-0.577 0-1.11 0-1.687 0-0.355 0-0.621-0.089-0.888-0.311s-0.488-0.444-0.621-0.755c-0.044-0.178-0.089-0.311-0.089-0.488 0-4.305 0-8.61 0-12.915 0-0.178 0-0.178 0.178-0.178 2.885-0.044 5.725-0.044 8.566-0.044z"></path>
</svg>
