<?xml version="1.0" encoding="utf-8"?>
<!-- Generator: Adobe Illustrator 19.0.1, SVG Export Plug-In . SVG Version: 6.00 Build 0)  -->
<!DOCTYPE svg PUBLIC "-//W3C//DTD SVG 1.1//EN" "http://www.w3.org/Graphics/SVG/1.1/DTD/svg11.dtd" [
	<!ENTITY ns_extend "http://ns.adobe.com/Extensibility/1.0/">
	<!ENTITY ns_ai "http://ns.adobe.com/AdobeIllustrator/10.0/">
	<!ENTITY ns_graphs "http://ns.adobe.com/Graphs/1.0/">
	<!ENTITY ns_vars "http://ns.adobe.com/Variables/1.0/">
	<!ENTITY ns_imrep "http://ns.adobe.com/ImageReplacement/1.0/">
	<!ENTITY ns_sfw "http://ns.adobe.com/SaveForWeb/1.0/">
	<!ENTITY ns_custom "http://ns.adobe.com/GenericCustomNamespace/1.0/">
	<!ENTITY ns_adobe_xpath "http://ns.adobe.com/XPath/1.0/">
]>
<svg version="1.1" id="Layer_1" xmlns:x="&ns_extend;" xmlns:i="&ns_ai;" xmlns:graph="&ns_graphs;"
	 xmlns="http://www.w3.org/2000/svg" xmlns:xlink="http://www.w3.org/1999/xlink" x="0px" y="0px" width="36px" height="36px"
	 viewBox="0 0 36 36" style="enable-background:new 0 0 36 36;" xml:space="preserve">
	<g i:extraneous="self">
		<path class="icons-st0" d="M31.0005,36H4.9995C2.2373,36,0,33.7627,0,31.0005V4.9995C0,2.2373,2.2373,0,4.9995,0h26.001
			C33.7627,0,36,2.2373,36,4.9995v26.001C36,33.7627,33.7627,36,31.0005,36L31.0005,36z M7.9995,25.0005
			c-1.6566,0-3.0001,1.3432-3.0001,2.9999c0,1.6567,1.3434,3.0001,3.0001,3.0001c1.6567,0,2.9999-1.3433,2.9999-3.0001
			C10.9995,26.3437,9.6563,25.0005,7.9995,25.0005L7.9995,25.0005z M18,14.9999c-1.6567,0-2.9999,1.3433-2.9999,3.0001
			S16.3433,20.9999,18,20.9999S21.0001,19.6567,21.0001,18S19.6567,14.9999,18,14.9999L18,14.9999z M28.0006,4.9995
			c-1.6567,0-3.0001,1.3432-3.0001,2.9999s1.3433,3.0001,3.0001,3.0001c1.6567,0,2.9999-1.3433,2.9999-3.0001
			S29.6573,4.9995,28.0006,4.9995L28.0006,4.9995z"/>
	</g>
</svg>
