<?xml version="1.0" encoding="utf-8"?>
<!-- Generator: Adobe Illustrator 19.0.1, SVG Export Plug-In . SVG Version: 6.00 Build 0)  -->
<!DOCTYPE svg PUBLIC "-//W3C//DTD SVG 1.1//EN" "http://www.w3.org/Graphics/SVG/1.1/DTD/svg11.dtd" [
	<!ENTITY ns_extend "http://ns.adobe.com/Extensibility/1.0/">
	<!ENTITY ns_ai "http://ns.adobe.com/AdobeIllustrator/10.0/">
	<!ENTITY ns_graphs "http://ns.adobe.com/Graphs/1.0/">
	<!ENTITY ns_vars "http://ns.adobe.com/Variables/1.0/">
	<!ENTITY ns_imrep "http://ns.adobe.com/ImageReplacement/1.0/">
	<!ENTITY ns_sfw "http://ns.adobe.com/SaveForWeb/1.0/">
	<!ENTITY ns_custom "http://ns.adobe.com/GenericCustomNamespace/1.0/">
	<!ENTITY ns_adobe_xpath "http://ns.adobe.com/XPath/1.0/">
]>
<svg version="1.1" id="Layer_1" xmlns:x="&ns_extend;" xmlns:i="&ns_ai;" xmlns:graph="&ns_graphs;"
	 xmlns="http://www.w3.org/2000/svg" xmlns:xlink="http://www.w3.org/1999/xlink" x="0px" y="0px" width="38px"
	 height="32px" viewBox="0 0 38 32" enable-background="new 0 0 38 32" xml:space="preserve">
	<g i:extraneous="self">
		<path d="M30.7901,0.2666c-1.1493-0.2681-2.3431-0.3312-3.5124-0.2018c-1.026,0.1125-2.0289,0.4144-2.9779,0.8504
			c-1.4265,0.6547-2.7483,1.5991-3.8976,2.7237c-0.5407,0.5299-1.0121,1.1292-1.4989,1.7131
			c-0.2373-0.3328-0.4745-0.6655-0.7117-0.9983c-0.4283-0.6023-0.9289-1.1323-1.4712-1.6145
			c-1.3079-1.1631-2.8515-2.0212-4.503-2.431c-1.1231-0.2773-2.2892-0.3343-3.4369-0.248C7.6959,0.1402,6.616,0.3698,5.5961,0.778
			C3.7213,1.5283,2.0837,2.9086,1.1085,4.8158c-1.0245,2.0058-1.2863,4.4321-0.9998,6.6813
			C0.3614,13.469,1.147,15.33,2.1284,16.9968c1.2216,2.0766,2.7807,3.9114,4.4753,5.5444c0.8596,0.8273,1.7624,1.596,2.6774,2.3478
			c1.0676,0.8766,2.1414,1.7439,3.2259,2.5973c1.0676,0.8396,2.1459,1.6669,3.2444,2.4587c0.53,0.3805,1.0645,0.7549,1.6099,1.1092
			c0.2603,0.1679,0.5238,0.3328,0.7934,0.4868c0.1371,0.0786,0.2757,0.1556,0.4175,0.2249
			c0.1109,0.0539,0.2357,0.1263,0.3574,0.1433c0.1448,0.02,0.2989-0.0708,0.4268-0.1325c0.1309-0.0647,0.2588-0.134,0.3867-0.2064
			c0.2712-0.1525,0.5361-0.3173,0.7995-0.4868c1.1123-0.7179,2.183-1.5113,3.2444-2.317c1.0953-0.8304,2.1768-1.6854,3.249-2.5496
			c1.9673-1.5852,3.9315-3.1766,5.6738-5.053c1.5143-1.6314,2.8977-3.4539,3.896-5.5074c0.4144-0.8504,0.7595-1.7439,0.9921-2.6728
			c0.2342-0.9444,0.3189-1.9056,0.3066-2.8839c-0.0293-2.28-0.5993-4.5724-1.9041-6.3917
			C34.7139,1.9134,32.8267,0.7426,30.7901,0.2666L30.7901,0.2666z"/>
	</g>
</svg>
