
<svg width="107px" height="35px" viewBox="0 0 107 35" version="1.1" xmlns="http://www.w3.org/2000/svg" xmlns:xlink="http://www.w3.org/1999/xlink">
    <!-- Generator: Sketch 49.3 (51167) - http://www.bohemiancoding.com/sketch -->
    <desc>Created with Sketch.</desc>
    <defs></defs>
    <g id="Page-1" stroke="none" stroke-width="1" fill="none" fill-rule="evenodd">
        <g id="Game-Unavailable" transform="translate(-114.000000, -1276.000000)" stroke="#D0021B" stroke-width="1.25">
            <g id="live" transform="translate(-276.000000, 887.000000)">
                <g id="1" transform="translate(325.000000, 330.313333)">
                    <g id="Group" transform="translate(29.000000, 60.000000)">
                        <g id="icon" transform="translate(37.000000, 0.000000)">
                            <path d="M45.7632353,27.2980769 L45.7632353,5.70192308 L32.6794118,5.70192308 C30.9535219,5.70192308 29.5544118,7.10103323 29.5544118,8.82692308 L29.5544118,24.1730769 C29.5544118,25.8989668 30.9535219,27.2980769 32.6794118,27.2980769 L45.7632353,27.2980769 Z" id="Rectangle-2"></path>
                            <path d="M74.4455882,27.2980769 L74.4455882,5.70192308 L61.3617647,5.70192308 C59.6358749,5.70192308 58.2367647,7.10103323 58.2367647,8.82692308 L58.2367647,24.1730769 C58.2367647,25.8989668 59.6358749,27.2980769 61.3617647,27.2980769 L74.4455882,27.2980769 Z" id="Rectangle-2" transform="translate(66.341176, 16.500000) scale(-1, 1) translate(-66.341176, -16.500000) "></path>
                            <path d="M45.7661765,19.6634615 L45.7661765,22.2211538 L51.9667421,22.2211538 C52.6730293,22.2211538 53.2455882,21.6485949 53.2455882,20.9423077 C53.2455882,20.2360205 52.6730293,19.6634615 51.9667421,19.6634615 L45.7661765,19.6634615 Z" id="Rectangle-3"></path>
                            <path d="M45.7661765,10.7788462 L45.7661765,13.3365385 L51.9667421,13.3365385 C52.6730293,13.3365385 53.2455882,12.7639795 53.2455882,12.0576923 C53.2455882,11.3514051 52.6730293,10.7788462 51.9667421,10.7788462 L45.7661765,10.7788462 Z" id="Rectangle-3-Copy"></path>
                            <path d="M74.9780331,16.6970778 C84.1547947,19.0777118 89.6192019,16.8991136 91.3712546,10.1612831 C93.1233073,3.42345252 97.5493107,0.0545372596 104.649265,0.0545372596" id="Path-3" stroke-linecap="round"></path>
                            <path d="M0.154503676,31.9278471 C9.08252336,34.3084811 14.4225596,32.1298828 16.1746122,25.3920523 C17.9266649,18.6542218 22.3526683,15.2853065 29.4526224,15.2853065" id="Path-3" stroke-linecap="round" transform="translate(14.803563, 24.072726) scale(-1, -1) translate(-14.803563, -24.072726) "></path>
                        </g>
                    </g>
                </g>
            </g>
        </g>
    </g>
</svg>