<?xml version="1.0" encoding="utf-8"?>
<!-- Generator: Adobe Illustrator 19.0.1, SVG Export Plug-In . SVG Version: 6.00 Build 0)  -->
<!DOCTYPE svg PUBLIC "-//W3C//DTD SVG 1.1//EN" "http://www.w3.org/Graphics/SVG/1.1/DTD/svg11.dtd" [
	<!ENTITY ns_extend "http://ns.adobe.com/Extensibility/1.0/">
	<!ENTITY ns_ai "http://ns.adobe.com/AdobeIllustrator/10.0/">
	<!ENTITY ns_graphs "http://ns.adobe.com/Graphs/1.0/">
	<!ENTITY ns_vars "http://ns.adobe.com/Variables/1.0/">
	<!ENTITY ns_imrep "http://ns.adobe.com/ImageReplacement/1.0/">
	<!ENTITY ns_sfw "http://ns.adobe.com/SaveForWeb/1.0/">
	<!ENTITY ns_custom "http://ns.adobe.com/GenericCustomNamespace/1.0/">
	<!ENTITY ns_adobe_xpath "http://ns.adobe.com/XPath/1.0/">
]>
<svg version="1.1" id="Layer_1" xmlns:x="&ns_extend;" xmlns:i="&ns_ai;" xmlns:graph="&ns_graphs;"
	 xmlns="http://www.w3.org/2000/svg" xmlns:xlink="http://www.w3.org/1999/xlink" x="0px" y="0px" width="36px" height="39.6342px"
	 viewBox="0 0 36 39.6342" enable-background="new 0 0 36 39.6342" xml:space="preserve">
	<g i:extraneous="self">
		<path d="M19.5108,10.1219c0,0,5.8575-1.4023,7.0572-2.6019c1.2011-1.2011,1.1764-3.1707-0.0542-4.4012
			c-0.6246-0.6246-1.4408-0.9384-2.2494-0.9384c-0.7837,0-1.5613,0.2937-2.1519,0.8842
			C20.9129,4.2658,19.5108,10.1219,19.5108,10.1219 M16.807,12.8256l0.759-3.1692c0.572-2.393,1.7407-6.6135,3.1321-8.0048
			c0.9492-0.9492,2.2153-1.4717,3.5663-1.4717c1.379,0,2.6807,0.5411,3.6639,1.5243c0.9663,0.9663,1.5073,2.2448,1.5244,3.6021
			c0.0169,1.3744-0.5056,2.6637-1.4717,3.6282c-1.3898,1.3914-5.6117,2.5601-8.0048,3.1321L16.807,12.8256L16.807,12.8256
			L16.807,12.8256z"/>
		<path d="M16.5891,10.1233c0,0-1.4393-5.9909-2.6684-7.2183c-0.6059-0.6045-1.4022-0.906-2.2061-0.906
			c-0.8302,0-1.6666,0.3216-2.3066,0.9616C8.1464,4.2176,8.1217,6.2334,9.3522,7.461
			C10.5829,8.6886,16.5891,10.1233,16.5891,10.1233 M19.2946,12.8256l-3.1708-0.7575c-1.9712-0.4699-6.7128-1.7238-8.1845-3.1909
			c-0.9631-0.96-1.4935-2.2449-1.4935-3.6147c-0.0015-1.4007,0.5489-2.721,1.549-3.7181C8.9936,0.5472,10.3139,0,11.7146,0
			c1.3698,0,2.6545,0.5287,3.6177,1.4889c1.4717,1.4686,2.7287,6.201,3.2002,8.1675L19.2946,12.8256L19.2946,12.8256
			L19.2946,12.8256z"/>
		<path d="M4.9992,10.634H31.001c2.7615,0,4.999,2.2391,4.999,5.0007
			v19.0004c0,2.7617-2.2374,4.9991-4.999,4.9991H4.9992C2.2374,39.6342,0,37.3968,0,34.6351V15.6347
			C0,12.8731,2.2374,10.634,4.9992,10.634L4.9992,10.634z"/>
	</g>
</svg>
