<?xml version="1.0" encoding="utf-8"?>
<!-- Generator: Adobe Illustrator 19.0.1, SVG Export Plug-In . SVG Version: 6.00 Build 0)  -->
<!DOCTYPE svg PUBLIC "-//W3C//DTD SVG 1.1//EN" "http://www.w3.org/Graphics/SVG/1.1/DTD/svg11.dtd" [
	<!ENTITY ns_extend "http://ns.adobe.com/Extensibility/1.0/">
	<!ENTITY ns_ai "http://ns.adobe.com/AdobeIllustrator/10.0/">
	<!ENTITY ns_graphs "http://ns.adobe.com/Graphs/1.0/">
	<!ENTITY ns_vars "http://ns.adobe.com/Variables/1.0/">
	<!ENTITY ns_imrep "http://ns.adobe.com/ImageReplacement/1.0/">
	<!ENTITY ns_sfw "http://ns.adobe.com/SaveForWeb/1.0/">
	<!ENTITY ns_custom "http://ns.adobe.com/GenericCustomNamespace/1.0/">
	<!ENTITY ns_adobe_xpath "http://ns.adobe.com/XPath/1.0/">
]>
<svg version="1.1" id="Layer_1" xmlns:x="&ns_extend;" xmlns:i="&ns_ai;" xmlns:graph="&ns_graphs;"
	 xmlns="http://www.w3.org/2000/svg" xmlns:xlink="http://www.w3.org/1999/xlink" x="0px" y="0px" width="32px" height="32px"
	 viewBox="0 0 32 32" enable-background="new 0 0 32 32" xml:space="preserve">
	<g i:extraneous="self">
		<path d="M15.9998,0.0007c-8.8367,0-15.9991,7.1621-15.9991,15.9991
			c0,8.8371,7.1624,15.9995,15.9991,15.9995c8.8371,0,15.9991-7.1624,15.9991-15.9995C31.9989,7.1628,24.8369,0.0007,15.9998,0.0007
			z M10.4843,3.1272c1.6934-0.7248,3.5576-1.1265,5.5155-1.1265c1.812,0,3.5425,0.343,5.1309,0.9699
			c0.7712,0.3029,1.1498,1.1743,0.8465,1.9443c-0.3033,0.7709-1.1744,1.1495-1.9456,0.8462
			c-1.2822-0.5045-2.6384-0.7616-4.0318-0.7616c-1.5054,0-2.963,0.2985-4.3331,0.8849c-0.7606,0.3278-1.643-0.0245-1.9689-0.7867
			C9.3713,4.3374,9.7236,3.4553,10.4843,3.1272z M5.1089,21.9017c-0.7561,0.3375-1.643-0.0029-1.9799-0.7587
			c-0.7264-1.6288-1.1298-3.4236-1.1298-5.3094c0-1.7425,0.3446-3.4081,0.9712-4.9368c0.3139-0.7667,1.1898-1.1346,1.9566-0.8204
			c0.7664,0.3137,1.133,1.1896,0.8187,1.9563c-0.4957,1.2099-0.7464,2.4892-0.7464,3.8008c0,1.4195,0.2927,2.7941,0.8682,4.0873
			C6.2064,20.6763,5.866,21.5648,5.1089,21.9017z M22.0066,29.1371c-1.6456,0.5572-3.4375,0.8621-5.3124,0.8621
			c-2.0277,0-3.9578-0.3572-5.7097-1.0022c-0.7774-0.2862-1.1763-1.1486-0.8898-1.926c0.2862-0.7771,1.1486-1.176,1.926-0.8898
			c1.4731,0.5436,3.0463,0.819,4.6735,0.819c1.5054,0,2.9695-0.2371,4.3518-0.705c0.7836-0.2645,1.6349,0.1553,1.9011,0.9405
			C23.2119,28.0209,22.7917,28.8723,22.0066,29.1371z M15.9998,25.0621c-5.0049,0-9.0618-4.0573-9.0618-9.0622
			s4.0569-9.0621,9.0618-9.0621c5.0049,0,9.0622,4.0573,9.0622,9.0621S21.0047,25.0621,15.9998,25.0621z M27.0418,21.811
			c-0.7664-0.3107-1.1359-1.1866-0.8252-1.9534c0.5203-1.2793,0.7836-2.6417,0.7836-4.0502c0-1.3026-0.2261-2.5709-0.6741-3.7682
			c-0.2894-0.7774,0.1063-1.6414,0.8824-1.9304c0.7755-0.2894,1.6391,0.1043,1.9285,0.882
			c0.5574,1.4915,0.8636,3.1171,0.8636,4.8166c0,1.8397-0.3585,3.59-1.0035,5.1783C28.6845,21.7541,27.8102,22.1236,27.0418,21.811z
			"/>
	</g>
</svg>
