<?xml version="1.0" encoding="utf-8"?>
<!-- Generator: Adobe Illustrator 19.0.1, SVG Export Plug-In . SVG Version: 6.00 Build 0)  -->
<!DOCTYPE svg PUBLIC "-//W3C//DTD SVG 1.1//EN" "http://www.w3.org/Graphics/SVG/1.1/DTD/svg11.dtd" [
	<!ENTITY ns_extend "http://ns.adobe.com/Extensibility/1.0/">
	<!ENTITY ns_ai "http://ns.adobe.com/AdobeIllustrator/10.0/">
	<!ENTITY ns_graphs "http://ns.adobe.com/Graphs/1.0/">
	<!ENTITY ns_vars "http://ns.adobe.com/Variables/1.0/">
	<!ENTITY ns_imrep "http://ns.adobe.com/ImageReplacement/1.0/">
	<!ENTITY ns_sfw "http://ns.adobe.com/SaveForWeb/1.0/">
	<!ENTITY ns_custom "http://ns.adobe.com/GenericCustomNamespace/1.0/">
	<!ENTITY ns_adobe_xpath "http://ns.adobe.com/XPath/1.0/">
]>
<svg version="1.1" id="Слой_1" xmlns:x="&ns_extend;" xmlns:i="&ns_ai;" xmlns:graph="&ns_graphs;"
	 xmlns="http://www.w3.org/2000/svg" xmlns:xlink="http://www.w3.org/1999/xlink" x="0px" y="0px" width="26px" height="32px"
	 viewBox="0 0 26 32" enable-background="new 0 0 26 32" xml:space="preserve">
	<g i:extraneous="self">
		<path d="M21.0004,31.9993H4.9996c-2.7613,0-5.0002-2.2374-5.0002-4.9987
			V4.9994c0-2.7613,2.239-4.9987,5.0002-4.9987h16.0008c2.7613,0,5.0002,2.2374,5.0002,4.9987v22.0011
			C26.0006,29.7618,23.7617,31.9993,21.0004,31.9993L21.0004,31.9993z M6.5004,25.0004h6.0003c0.8275,0,1.4993-0.6718,1.4993-1.5009
			c0-0.8275-0.6718-1.4993-1.4993-1.4993H6.5004c-0.829,0-1.5009,0.6718-1.5009,1.4993
			C4.9996,24.3286,5.6714,25.0004,6.5004,25.0004L6.5004,25.0004z M19.4995,5.9995H6.5004c-0.829,0-1.5009,0.6718-1.5009,1.5009
			c0,0.8275,0.6718,1.4993,1.5009,1.4993h12.9991c0.829,0,1.5009-0.6718,1.5009-1.4993
			C21.0004,6.6713,20.3286,5.9995,19.4995,5.9995L19.4995,5.9995z M19.4995,13.9999H6.5004c-0.829,0-1.5009,0.6718-1.5009,1.5008
			C4.9996,16.3282,5.6714,17,6.5004,17h12.9991c0.829,0,1.5009-0.6718,1.5009-1.4993
			C21.0004,14.6717,20.3286,13.9999,19.4995,13.9999L19.4995,13.9999z"/>
	</g>
</svg>
