<?xml version="1.0" encoding="utf-8"?>
<!-- Generator: Adobe Illustrator 19.0.1, SVG Export Plug-In . SVG Version: 6.00 Build 0)  -->
<!DOCTYPE svg PUBLIC "-//W3C//DTD SVG 1.1//EN" "http://www.w3.org/Graphics/SVG/1.1/DTD/svg11.dtd" [
	<!ENTITY ns_extend "http://ns.adobe.com/Extensibility/1.0/">
	<!ENTITY ns_ai "http://ns.adobe.com/AdobeIllustrator/10.0/">
	<!ENTITY ns_graphs "http://ns.adobe.com/Graphs/1.0/">
	<!ENTITY ns_vars "http://ns.adobe.com/Variables/1.0/">
	<!ENTITY ns_imrep "http://ns.adobe.com/ImageReplacement/1.0/">
	<!ENTITY ns_sfw "http://ns.adobe.com/SaveForWeb/1.0/">
	<!ENTITY ns_custom "http://ns.adobe.com/GenericCustomNamespace/1.0/">
	<!ENTITY ns_adobe_xpath "http://ns.adobe.com/XPath/1.0/">
]>
<svg version="1.1" id="Layer_1" xmlns:x="&ns_extend;" xmlns:i="&ns_ai;" xmlns:graph="&ns_graphs;"
	 xmlns="http://www.w3.org/2000/svg" xmlns:xlink="http://www.w3.org/1999/xlink" x="0px" y="0px" width="39.5801px" height="40px"
	 viewBox="0 0 39.5801 40" enable-background="new 0 0 39.5801 40" xml:space="preserve">
	<g i:extraneous="self">
		<path d="M30.79,40h-22c-2.7612,0-4.9993-2.2396-4.9993-5.0009v-17.999
			L19.79,0.001c0,0,15.9528,16.9419,15.9993,16.9992v17.999C35.7893,37.7604,33.5513,40,30.79,40L30.79,40z M24.7893,21.9994
			c0-1.1035-0.8946-1.9997-1.9997-1.9997h-5.9992c-1.1051,0-1.9997,0.8962-1.9997,1.9997V29c0,1.1051,0.8946,1.9997,1.9997,1.9997
			h5.9992c1.1051,0,1.9997-0.8946,1.9997-1.9997V21.9994L24.7893,21.9994z"/>
		<path d="M1.6974,20.4328c-0.3944,0.3852-1.0286,0.3774-1.4138-0.0185c-0.3851-0.396-0.3774-1.0286,0.0186-1.4138
			L19.79,0l1.3968,1.4323L1.6974,20.4328 M18.3948,1.4323L19.79,0l19.4878,19.0005c0.396,0.3851,0.4037,1.0177,0.0186,1.4138
			c-0.3852,0.396-1.0193,0.4037-1.4138,0.017L18.3948,1.4323 M19.9995,0.3101L19.79,0L19.9995,0.3101z"/>
	</g>
</svg>
