<?xml version="1.0" encoding="utf-8"?>
<!-- Generator: Adobe Illustrator 19.0.1, SVG Export Plug-In . SVG Version: 6.00 Build 0)  -->
<!DOCTYPE svg PUBLIC "-//W3C//DTD SVG 1.1//EN" "http://www.w3.org/Graphics/SVG/1.1/DTD/svg11.dtd" [
	<!ENTITY ns_extend "http://ns.adobe.com/Extensibility/1.0/">
	<!ENTITY ns_ai "http://ns.adobe.com/AdobeIllustrator/10.0/">
	<!ENTITY ns_graphs "http://ns.adobe.com/Graphs/1.0/">
	<!ENTITY ns_vars "http://ns.adobe.com/Variables/1.0/">
	<!ENTITY ns_imrep "http://ns.adobe.com/ImageReplacement/1.0/">
	<!ENTITY ns_sfw "http://ns.adobe.com/SaveForWeb/1.0/">
	<!ENTITY ns_custom "http://ns.adobe.com/GenericCustomNamespace/1.0/">
	<!ENTITY ns_adobe_xpath "http://ns.adobe.com/XPath/1.0/">
]>
<svg version="1.1" id="Layer_1" xmlns:x="&ns_extend;" xmlns:i="&ns_ai;" xmlns:graph="&ns_graphs;"
	 xmlns="http://www.w3.org/2000/svg" xmlns:xlink="http://www.w3.org/1999/xlink" x="0px" y="0px" width="12.2025px"
	 height="25.9313px" viewBox="0 0 12.2025 25.9313" style="enable-background:new 0 0 12.2025 25.9313;" xml:space="preserve">
	<g i:extraneous="self">
		<path d="M0.545,10.7509c-0.2274,0.2195-0.4835,0.4691-0.5359,0.792c-0.0541,0.3212,0.1368,0.6759,0.4819,0.7299
			c0.423,0.0684,0.7458-0.3753,1.0194-0.6218c0.3388-0.3117,0.7061-0.617,1.0957-0.8651c0.8444-0.5423,1.6762-0.2561,1.3199,0.9764
			c-0.3546,1.2325-2.9738,7.7844-3.3237,10.7964c-0.3483,3.0152,2.3075,4.1236,5.3815,2.8562
			c0.9494-0.3976,1.7891-1.0337,2.581-1.6762c0.8031-0.652,1.5839-1.3644,2.2884-2.1214c0.1558-0.1686,0.3053-0.3356,0.4707-0.4946
			c0.175-0.1701,0.4453-0.4357,0.5025-0.679c0.0509-0.2163-0.0334-0.4024-0.1781-0.5264c-0.1892-0.1622-0.4866-0.229-0.7299-0.1383
			c-0.2004,0.0747-0.3404,0.2528-0.4835,0.4007c-0.1542,0.1654-0.3244,0.3244-0.4914,0.4755
			c-0.3674,0.3451-0.7474,0.6759-1.1482,0.9812c-0.9526,0.7252-1.6443,0.4024-1.1784-1.347
			c0.4707-1.7493,1.2388-4.1045,2.3218-7.5172c1.5155-4.7852-2.6797-5.5262-5.1223-4.782C3.1419,8.4958,1.7743,9.5582,0.545,10.7509
			L0.545,10.7509z M8.5426,0.0054c-1.9084,0.1065-3.3746,1.727-3.2665,3.6195c0.1065,1.8924,1.743,3.338,3.6529,3.2362
			c1.9115-0.1081,3.3746-1.727,3.268-3.6195C12.0905,1.3491,10.4541-0.0996,8.5426,0.0054L8.5426,0.0054z"/>
	</g>
</svg>
