<?xml version="1.0" encoding="utf-8"?>
<!-- Generator: Adobe Illustrator 19.0.1, SVG Export Plug-In . SVG Version: 6.00 Build 0)  -->
<!DOCTYPE svg PUBLIC "-//W3C//DTD SVG 1.1//EN" "http://www.w3.org/Graphics/SVG/1.1/DTD/svg11.dtd" [
	<!ENTITY ns_extend "http://ns.adobe.com/Extensibility/1.0/">
	<!ENTITY ns_ai "http://ns.adobe.com/AdobeIllustrator/10.0/">
	<!ENTITY ns_graphs "http://ns.adobe.com/Graphs/1.0/">
	<!ENTITY ns_vars "http://ns.adobe.com/Variables/1.0/">
	<!ENTITY ns_imrep "http://ns.adobe.com/ImageReplacement/1.0/">
	<!ENTITY ns_sfw "http://ns.adobe.com/SaveForWeb/1.0/">
	<!ENTITY ns_custom "http://ns.adobe.com/GenericCustomNamespace/1.0/">
	<!ENTITY ns_adobe_xpath "http://ns.adobe.com/XPath/1.0/">
]>
<svg version="1.1" id="Layer_1" xmlns:x="&ns_extend;" xmlns:i="&ns_ai;" xmlns:graph="&ns_graphs;"
	 xmlns="http://www.w3.org/2000/svg" xmlns:xlink="http://www.w3.org/1999/xlink" x="0px" y="0px" width="38px" height="38px"
	 viewBox="0 0 38 38" enable-background="new 0 0 38 38" xml:space="preserve">
	<g i:extraneous="self">
		<path d="M19,38C8.5059,38,0,29.4941,0,19C0,8.5059,8.5059,0,19,0
			c10.4941,0,19,8.5059,19,19C38,29.4941,29.4941,38,19,38L19,38z M13.3959,16.4314c-0.228,0.22-0.4847,0.4704-0.5373,0.794
			c-0.0542,0.3221,0.1371,0.6776,0.4831,0.7318c0.4241,0.0685,0.7478-0.3763,1.022-0.6234
			c0.3396-0.3125,0.7079-0.6186,1.0985-0.8673c0.8466-0.5437,1.6805-0.2567,1.3233,0.9789
			c-0.3555,1.2357-2.9814,7.8044-3.3322,10.8241c-0.3492,3.0229,2.3134,4.1342,5.3953,2.8635
			c0.9518-0.3986,1.7936-1.0364,2.5876-1.6805c0.8051-0.6537,1.588-1.3679,2.2943-2.1268c0.1562-0.169,0.3061-0.3364,0.4719-0.4959
			c0.1754-0.1706,0.4464-0.4369,0.5038-0.6808c0.051-0.2168-0.0335-0.4034-0.1786-0.5277
			c-0.1897-0.1626-0.4879-0.2296-0.7318-0.1387c-0.2009,0.0749-0.3412,0.2535-0.4847,0.4018
			c-0.1546,0.1658-0.3253,0.3253-0.4926,0.4767c-0.3683,0.346-0.7494,0.6776-1.1512,0.9837
			c-0.955,0.7271-1.6485,0.4034-1.1814-1.3504c0.4719-1.7538,1.242-4.1151,2.3278-7.5365c1.5194-4.7975-2.6865-5.5404-5.1354-4.7943
			C15.9994,14.1706,14.6283,15.2357,13.3959,16.4314L13.3959,16.4314z M21.4139,5.6584c-1.9133,0.1068-3.3833,1.7315-3.2748,3.6288
			c0.1068,1.8973,1.7474,3.3465,3.6623,3.2445c1.9164-0.1084,3.3832-1.7314,3.2764-3.6287
			C24.9709,7.0056,23.3303,5.5531,21.4139,5.6584L21.4139,5.6584z"/>
	</g>
</svg>
