<?xml version="1.0" encoding="utf-8"?>
<!-- Generator: Adobe Illustrator 19.0.1, SVG Export Plug-In . SVG Version: 6.00 Build 0)  -->
<!DOCTYPE svg PUBLIC "-//W3C//DTD SVG 1.1//EN" "http://www.w3.org/Graphics/SVG/1.1/DTD/svg11.dtd" [
	<!ENTITY ns_extend "http://ns.adobe.com/Extensibility/1.0/">
	<!ENTITY ns_ai "http://ns.adobe.com/AdobeIllustrator/10.0/">
	<!ENTITY ns_graphs "http://ns.adobe.com/Graphs/1.0/">
	<!ENTITY ns_vars "http://ns.adobe.com/Variables/1.0/">
	<!ENTITY ns_imrep "http://ns.adobe.com/ImageReplacement/1.0/">
	<!ENTITY ns_sfw "http://ns.adobe.com/SaveForWeb/1.0/">
	<!ENTITY ns_custom "http://ns.adobe.com/GenericCustomNamespace/1.0/">
	<!ENTITY ns_adobe_xpath "http://ns.adobe.com/XPath/1.0/">
]>
<svg version="1.1" id="Layer_1" xmlns:x="&ns_extend;" xmlns:i="&ns_ai;" xmlns:graph="&ns_graphs;"
	 xmlns="http://www.w3.org/2000/svg" xmlns:xlink="http://www.w3.org/1999/xlink" x="0px" y="0px" width="82.4338px" height="51px"
	 viewBox="0 0 82.4338 51" enable-background="new 0 0 82.4338 51" xml:space="preserve">
	<g i:extraneous="self">
		<path d="M77.303,10.178v16.5234c0,2.9213-2.3772,5.2985-5.3001,5.2985h-10.649l0.8652-1.9933
			c6.3981,0,9.7838,0,9.7838,0c1.8264,0,3.3052-1.4788,3.3052-3.3052V10.178H77.303L77.303,10.178L77.303,10.178z"/>
		<path d="M76.6708,9.5335c2.079,0,3.7691-1.6917,3.7691-3.7691c0-2.0789-1.6901-3.7706-3.7691-3.7706
			c-2.0789,0-3.7706,1.6917-3.7706,3.7706C72.9002,7.8418,74.5919,9.5335,76.6708,9.5335 M76.6708,11.5275
			c-3.1836,0-5.7645-2.581-5.7645-5.7631C70.9063,2.5808,73.4872,0,76.6708,0c3.1837,0,5.7631,2.5808,5.7631,5.7645
			C82.4338,8.9466,79.8545,11.5275,76.6708,11.5275L76.6708,11.5275L76.6708,11.5275z"/>
		<path d="M63.8036,51H47.853V11.1223h15.9506
			c3.3037,0,5.9827,2.6789,5.9827,5.981V45.019C69.7862,48.3212,67.1073,51,63.8036,51L63.8036,51z M64.7998,20.0939h-11.962v2.992
			h8.9715l-7.9752,18.941h2.9921l7.9736-18.941V20.0939L64.7998,20.0939z M23.9258,51V11.1223h21.933V51H23.9258L23.9258,51z
			 M40.8742,20.0939H28.9105v2.992h8.9732l-7.9768,18.941h2.9921l7.9752-18.941V20.0939L40.8742,20.0939z M5.9812,51
			C2.6773,51,0,48.3212,0,45.019V17.1034c0-3.3021,2.6773-5.981,5.9812-5.981h15.9504V51H5.9812L5.9812,51z M16.9468,20.0939H4.9848
			v2.992h8.9715l-7.9751,18.941h2.992l7.9736-18.941V20.0939L16.9468,20.0939z"/>
	</g>
</svg>
