<?xml version="1.0" encoding="utf-8"?>
<!-- Generator: Adobe Illustrator 19.0.1, SVG Export Plug-In . SVG Version: 6.00 Build 0)  -->
<!DOCTYPE svg PUBLIC "-//W3C//DTD SVG 1.1//EN" "http://www.w3.org/Graphics/SVG/1.1/DTD/svg11.dtd" [
	<!ENTITY ns_extend "http://ns.adobe.com/Extensibility/1.0/">
	<!ENTITY ns_ai "http://ns.adobe.com/AdobeIllustrator/10.0/">
	<!ENTITY ns_graphs "http://ns.adobe.com/Graphs/1.0/">
	<!ENTITY ns_vars "http://ns.adobe.com/Variables/1.0/">
	<!ENTITY ns_imrep "http://ns.adobe.com/ImageReplacement/1.0/">
	<!ENTITY ns_sfw "http://ns.adobe.com/SaveForWeb/1.0/">
	<!ENTITY ns_custom "http://ns.adobe.com/GenericCustomNamespace/1.0/">
	<!ENTITY ns_adobe_xpath "http://ns.adobe.com/XPath/1.0/">
]>
<svg version="1.1" id="Layer_1" xmlns:x="&ns_extend;" xmlns:i="&ns_ai;" xmlns:graph="&ns_graphs;"
	 xmlns="http://www.w3.org/2000/svg" xmlns:xlink="http://www.w3.org/1999/xlink" x="0px" y="0px" width="50px" height="50px"
	 viewBox="0 0 50 50" style="enable-background:new 0 0 50 50;" xml:space="preserve">
	<g i:extraneous="self">
		<path d="M34.4995,0c-8.5598,0-15.499,6.9392-15.499,15.5006c0,2.7216,0.7063,5.2762,1.9384,7.4992h-6.939v6.0009
			H8.0005v5.9994H2.9998v4.9999H0v10.0001h7.9999L8,50.0002l0.0001-0.0001h0.0002v-0.0002l7.9789-8.0004h0.021v-0.0211
			l12.2622-12.2953c1.9096,0.8411,4.0165,1.3164,6.2371,1.3164c8.5614,0,15.5006-6.9392,15.5006-15.499
			C50.0001,6.9392,43.0609,0,34.4995,0z M36.4993,18.7496c-3.4509,0-6.2493-2.7984-6.2493-6.2494
			c0-3.4525,2.7984-6.2493,6.2493-6.2493c3.4525,0,6.2509,2.7968,6.2509,6.2493C42.7501,15.9512,39.9518,18.7496,36.4993,18.7496z"
			/>
	</g>
</svg>
