<?xml version="1.0" encoding="utf-8"?>
<!-- Generator: Adobe Illustrator 19.0.1, SVG Export Plug-In . SVG Version: 6.00 Build 0)  -->
<!DOCTYPE svg PUBLIC "-//W3C//DTD SVG 1.1//EN" "http://www.w3.org/Graphics/SVG/1.1/DTD/svg11.dtd" [
	<!ENTITY ns_extend "http://ns.adobe.com/Extensibility/1.0/">
	<!ENTITY ns_ai "http://ns.adobe.com/AdobeIllustrator/10.0/">
	<!ENTITY ns_graphs "http://ns.adobe.com/Graphs/1.0/">
	<!ENTITY ns_vars "http://ns.adobe.com/Variables/1.0/">
	<!ENTITY ns_imrep "http://ns.adobe.com/ImageReplacement/1.0/">
	<!ENTITY ns_sfw "http://ns.adobe.com/SaveForWeb/1.0/">
	<!ENTITY ns_custom "http://ns.adobe.com/GenericCustomNamespace/1.0/">
	<!ENTITY ns_adobe_xpath "http://ns.adobe.com/XPath/1.0/">
]>
<svg version="1.1" id="Layer_1" xmlns:x="&ns_extend;" xmlns:i="&ns_ai;" xmlns:graph="&ns_graphs;"
	 xmlns="http://www.w3.org/2000/svg" xmlns:xlink="http://www.w3.org/1999/xlink" x="0px" y="0px" width="44px" height="40px"
	 viewBox="0 0 44 40" enable-background="new 0 0 44 40" xml:space="preserve">
	<g i:extraneous="self">
		<path d="M37.9391,34.0037c-0.0078-3.314,0.0601-17.4006,0.0601-17.5037c0-9.113-7.1619-16.501-15.9993-16.501
			S5.9993,7.387,5.9993,16.5001c0,0.0804,0.0693,14.1897,0.0616,17.5037C6.0531,37.3179,3.4335,40.0009,0,40.0009
			c-0.017,0,7.9998-0.0001,7.9998-0.0001l2.9995,0.0001h0.9998c2.7623,0,5.0005-2.2398,5.0005-5.0005v-1.9366
			c1.5745,0.597,3.2524,0.9361,5.0004,0.9361c1.7475,0,3.4249-0.3389,4.999-0.9355v1.936c0,2.7607,2.2399,5.0005,5.0021,5.0005
			h0.9999h2.9992c0,0,8.0169,0,7.9999,0C40.565,40.0009,37.9469,37.3179,37.9391,34.0037z M7.9998,16.5001
			c0-1.3242,0.1869-2.6012,0.5093-3.8207c1.0746-1.0731,2.5965-1.6801,4.4898-1.6801c2.8272,0,4.4023,1.4733,6.3505,4.0984
			c2.4006,3.2347,4.9796,3.9745,8.1517,3.9015c3.3695,0,6.3636-2.2026,8.285-4.9375c0.1307,0.7946,0.214,1.6058,0.214,2.4384
			c0,8.2568-6.5425,15.4992-14.0002,15.4992C14.5408,31.9993,7.9998,24.7569,7.9998,16.5001z"/>
	</g>
</svg>
