<?xml version="1.0" encoding="utf-8"?>
<!-- Generator: Adobe Illustrator 19.0.1, SVG Export Plug-In . SVG Version: 6.00 Build 0)  -->
<!DOCTYPE svg PUBLIC "-//W3C//DTD SVG 1.1//EN" "http://www.w3.org/Graphics/SVG/1.1/DTD/svg11.dtd" [
	<!ENTITY ns_extend "http://ns.adobe.com/Extensibility/1.0/">
	<!ENTITY ns_ai "http://ns.adobe.com/AdobeIllustrator/10.0/">
	<!ENTITY ns_graphs "http://ns.adobe.com/Graphs/1.0/">
	<!ENTITY ns_vars "http://ns.adobe.com/Variables/1.0/">
	<!ENTITY ns_imrep "http://ns.adobe.com/ImageReplacement/1.0/">
	<!ENTITY ns_sfw "http://ns.adobe.com/SaveForWeb/1.0/">
	<!ENTITY ns_custom "http://ns.adobe.com/GenericCustomNamespace/1.0/">
	<!ENTITY ns_adobe_xpath "http://ns.adobe.com/XPath/1.0/">
]>
<svg version="1.1" id="Layer_1" xmlns:x="&ns_extend;" xmlns:i="&ns_ai;" xmlns:graph="&ns_graphs;"
	 xmlns="http://www.w3.org/2000/svg" xmlns:xlink="http://www.w3.org/1999/xlink" x="0px" y="0px" width="26px" height="31.5928px"
	 viewBox="0 0 26 31.5928" style="enable-background:new 0 0 26 31.5928;" xml:space="preserve">
	<g i:extraneous="self">
		<path d="M22.4937,10.8464c0.0588-0.3757,0.0993-0.7808,0.0993-1.2532C22.593,4.2946,18.2985,0,12.9998,0
			C7.7015,0,3.407,4.2946,3.407,9.5931c0,0.4266,0.0308,0.8458,0.0847,1.2576C1.4727,11.4933,0,13.3607,0,15.5927v11.001
			c0,2.7598,2.2391,4.9992,5.0005,4.9992h15.9986c2.7614,0,5.0009-2.2394,5.0009-4.9992v-11.001
			C26,13.3555,24.5201,11.4846,22.4937,10.8464z M14.6121,20.8718v5.152c0,0.8158-0.7532,1.4792-1.6814,1.4792
			c-0.9302,0-1.6827-0.6634-1.6827-1.4792v-5.152c-1.0761-0.58-1.8041-1.6995-1.8041-2.9829c0-1.8817,1.5612-3.4054,3.4868-3.4054
			s3.4868,1.5237,3.4868,3.4054C16.4175,19.1723,15.6876,20.2917,14.6121,20.8718z M20.5159,10.5938H5.4772
			c-0.0434-0.3279-0.07-0.6611-0.07-1.0006c0-4.187,3.406-7.593,7.5927-7.593s7.593,3.406,7.593,7.593
			C20.5928,9.9333,20.5594,10.2653,20.5159,10.5938z"/>
	</g>
</svg>
