<?xml version="1.0" encoding="utf-8"?>
<!-- Generator: Adobe Illustrator 19.0.1, SVG Export Plug-In . SVG Version: 6.00 Build 0)  -->
<!DOCTYPE svg PUBLIC "-//W3C//DTD SVG 1.1//EN" "http://www.w3.org/Graphics/SVG/1.1/DTD/svg11.dtd" [
	<!ENTITY ns_extend "http://ns.adobe.com/Extensibility/1.0/">
	<!ENTITY ns_ai "http://ns.adobe.com/AdobeIllustrator/10.0/">
	<!ENTITY ns_graphs "http://ns.adobe.com/Graphs/1.0/">
	<!ENTITY ns_vars "http://ns.adobe.com/Variables/1.0/">
	<!ENTITY ns_imrep "http://ns.adobe.com/ImageReplacement/1.0/">
	<!ENTITY ns_sfw "http://ns.adobe.com/SaveForWeb/1.0/">
	<!ENTITY ns_custom "http://ns.adobe.com/GenericCustomNamespace/1.0/">
	<!ENTITY ns_adobe_xpath "http://ns.adobe.com/XPath/1.0/">
]>
<svg version="1.1" id="Layer_1" xmlns:x="&ns_extend;" xmlns:i="&ns_ai;" xmlns:graph="&ns_graphs;"
	 xmlns="http://www.w3.org/2000/svg" xmlns:xlink="http://www.w3.org/1999/xlink" x="0px" y="0px" width="26px" height="32px"
	 viewBox="0 0 26 32" enable-background="new 0 0 26 32" xml:space="preserve">
	<g i:extraneous="self">
		<path d="M21.0021,0H5.0006C2.239,0,0,2.2374,0,4.999v22.0017
			C0,29.7623,2.239,32,5.0006,32h16.0015c2.7612,0,5.0002-2.2377,5.0002-4.9993V4.999C26.0023,2.2374,23.7633,0,21.0021,0z
			 M20.0011,17.5001H9.9938l4.9947,4.3712c0.6237,0.5465,0.687,1.4935,0.1418,2.1169c-0.5464,0.6234-1.4935,0.6867-2.1169,0.1415
			l-9.2909-8.1298l9.2909-8.1285c0.6234-0.5465,1.5704-0.4832,2.1169,0.1402c0.5452,0.6234,0.4819,1.5717-0.1418,2.1166
			l-4.9951,4.3717h10.0076c0.8298,0,1.5013,0.6711,1.5013,1.4993C21.5024,16.8273,20.8309,17.5001,20.0011,17.5001z"/>
	</g>
</svg>
