<?xml version="1.0" encoding="utf-8"?>
<!-- Generator: Adobe Illustrator 19.0.1, SVG Export Plug-In . SVG Version: 6.00 Build 0)  -->
<!DOCTYPE svg PUBLIC "-//W3C//DTD SVG 1.1//EN" "http://www.w3.org/Graphics/SVG/1.1/DTD/svg11.dtd" [
	<!ENTITY ns_extend "http://ns.adobe.com/Extensibility/1.0/">
	<!ENTITY ns_ai "http://ns.adobe.com/AdobeIllustrator/10.0/">
	<!ENTITY ns_graphs "http://ns.adobe.com/Graphs/1.0/">
	<!ENTITY ns_vars "http://ns.adobe.com/Variables/1.0/">
	<!ENTITY ns_imrep "http://ns.adobe.com/ImageReplacement/1.0/">
	<!ENTITY ns_sfw "http://ns.adobe.com/SaveForWeb/1.0/">
	<!ENTITY ns_custom "http://ns.adobe.com/GenericCustomNamespace/1.0/">
	<!ENTITY ns_adobe_xpath "http://ns.adobe.com/XPath/1.0/">
]>
<svg version="1.1" id="Layer_1" xmlns:x="&ns_extend;" xmlns:i="&ns_ai;" xmlns:graph="&ns_graphs;"
	 xmlns="http://www.w3.org/2000/svg" xmlns:xlink="http://www.w3.org/1999/xlink" x="0px" y="0px" width="65.1568px"
	 height="42.0002px" viewBox="0 0 65.1568 42.0002" style="enable-background:new 0 0 65.1568 42.0002;" xml:space="preserve">
	<g i:extraneous="self">
		<path d="M34.1254,36.1666c0,0.1157-0.0048,0.2314-0.0111,0.347c-0.2029,3.0603-3.0587,5.4866-6.5516,5.4866H6.5626
			C2.9382,42.0002,0,39.3885,0,36.1666c0-6.4993,4.607-12.0286,11.0714-14.1871c-3.4802-2.0539-5.821-5.832-5.821-10.1664
			C5.2504,5.2885,10.5389,0,17.0619,0c6.5246,0,11.813,5.2885,11.813,11.813c0,4.3344-2.3423,8.1126-5.8209,10.1664
			C29.5168,24.138,34.1254,29.6674,34.1254,36.1666L34.1254,36.1666z"/>
		<g>
			<path d="M41.1723,36.2161c0,0.2698-0.0079,0.538-0.0253,0.8045c-0.1179,1.7881-0.6313,3.4681-1.4419,4.9797h25.4517v-6.0007
				H41.1663C41.1671,36.0719,41.1723,36.1436,41.1723,36.2161z"/>
			<path d="M31.6158,0c1.4603,1.7578,2.5938,3.7905,3.3394,6.0007h30.2016V0H31.6158z"/>
			<path d="M33.9348,20.4081c1.2083,1.0907,2.2828,2.2974,3.2157,3.5916h28.0063v-5.9991H34.9395
				C34.6578,18.8254,34.3265,19.6318,33.9348,20.4081z"/>
		</g>
	</g>
</svg>
