<?xml version="1.0" encoding="utf-8"?>
<!-- Generator: Adobe Illustrator 19.0.1, SVG Export Plug-In . SVG Version: 6.00 Build 0)  -->
<!DOCTYPE svg PUBLIC "-//W3C//DTD SVG 1.1//EN" "http://www.w3.org/Graphics/SVG/1.1/DTD/svg11.dtd" [
	<!ENTITY ns_extend "http://ns.adobe.com/Extensibility/1.0/">
	<!ENTITY ns_ai "http://ns.adobe.com/AdobeIllustrator/10.0/">
	<!ENTITY ns_graphs "http://ns.adobe.com/Graphs/1.0/">
	<!ENTITY ns_vars "http://ns.adobe.com/Variables/1.0/">
	<!ENTITY ns_imrep "http://ns.adobe.com/ImageReplacement/1.0/">
	<!ENTITY ns_sfw "http://ns.adobe.com/SaveForWeb/1.0/">
	<!ENTITY ns_custom "http://ns.adobe.com/GenericCustomNamespace/1.0/">
	<!ENTITY ns_adobe_xpath "http://ns.adobe.com/XPath/1.0/">
]>
<svg version="1.1" id="Layer_1" xmlns:x="&ns_extend;" xmlns:i="&ns_ai;" xmlns:graph="&ns_graphs;"
	 xmlns="http://www.w3.org/2000/svg" xmlns:xlink="http://www.w3.org/1999/xlink" x="0px" y="0px" width="56px" height="56px"
	 viewBox="0 0 56 56" enable-background="new 0 0 56 56" xml:space="preserve">
	<g i:extraneous="self">
		<path d="M56,23.5657c-5.6007,2.9568-5.6007,5.9119,0,8.8686
			c-6.2392,1.0829-7.1536,3.8937-2.7401,8.4355c-6.2696-0.8984-8.0072,1.4936-5.214,7.176c-5.6825-2.793-8.0762-1.054-7.1762,5.2141
			C36.3279,48.8481,33.5156,49.761,32.4343,56c-2.9552-5.599-5.912-5.599-8.8686,0c-1.0813-6.239-3.8952-7.1519-8.4371-2.7401
			c0.9-6.2681-1.492-8.0071-7.1743-5.2141c2.793-5.6824,1.054-8.0744-5.2141-7.176C7.1519,36.328,6.2408,33.5172,0,32.4343
			c5.6006-2.9568,5.6006-5.9119,0-8.8686c6.2408-1.0812,7.1519-3.8936,2.7401-8.4355c6.2681,0.9,8.0071-1.492,5.2141-7.1761
			c5.6824,2.7932,8.0744,1.0541,7.1743-5.214c4.542,4.4135,7.3558,3.499,8.4371-2.7401c2.9567,5.6007,5.9134,5.6007,8.8686,0
			c1.0813,6.2392,3.8936,7.1536,8.4354,2.7401c-0.8999,6.2681,1.4937,8.0072,7.1762,5.214
			c-2.7932,5.6841-1.0557,8.0762,5.214,7.1761C48.8464,19.6721,49.7608,22.4845,56,23.5657L56,23.5657z M20.8111,22.4154h-1.9524
			v8.4547l-4.2483-8.4547h-2.039v12.6611h1.9524v-8.2573l4.1792,8.2573h2.1081V22.4154L20.8111,22.4154z M30.9151,32.9349h-5.8029
			v-3.4381h5.2156v-2.1322h-5.2156v-2.8074h5.6135v-2.1418h-7.7039v12.6611h7.8932V32.9349L30.9151,32.9349z M43.2057,22.4154
			l-1.6027,8.8477l-1.8225-8.8477h-2.4979l-1.898,8.7018l-1.5578-8.7018h-2.1513l2.4882,12.6611h2.2669l2.055-9.4702l2.0745,9.4702
			h2.2316l2.5204-12.6611H43.2057L43.2057,22.4154z"/>
	</g>
</svg>
