<?xml version="1.0" encoding="utf-8"?>
<!-- Generator: Adobe Illustrator 19.0.1, SVG Export Plug-In . SVG Version: 6.00 Build 0)  -->
<!DOCTYPE svg PUBLIC "-//W3C//DTD SVG 1.1//EN" "http://www.w3.org/Graphics/SVG/1.1/DTD/svg11.dtd" [
	<!ENTITY ns_extend "http://ns.adobe.com/Extensibility/1.0/">
	<!ENTITY ns_ai "http://ns.adobe.com/AdobeIllustrator/10.0/">
	<!ENTITY ns_graphs "http://ns.adobe.com/Graphs/1.0/">
	<!ENTITY ns_vars "http://ns.adobe.com/Variables/1.0/">
	<!ENTITY ns_imrep "http://ns.adobe.com/ImageReplacement/1.0/">
	<!ENTITY ns_sfw "http://ns.adobe.com/SaveForWeb/1.0/">
	<!ENTITY ns_custom "http://ns.adobe.com/GenericCustomNamespace/1.0/">
	<!ENTITY ns_adobe_xpath "http://ns.adobe.com/XPath/1.0/">
]>
<svg version="1.1" id="Layer_1" xmlns:x="&ns_extend;" xmlns:i="&ns_ai;" xmlns:graph="&ns_graphs;"
	 xmlns="http://www.w3.org/2000/svg" xmlns:xlink="http://www.w3.org/1999/xlink" x="0px" y="0px" width="39px" height="40px"
	 viewBox="0 0 39 40" enable-background="new 0 0 39 40" xml:space="preserve">
	<g i:extraneous="self">
		<path d="M31.9979,37.9999c2.7581,0,4.9996-2.243,4.9996-4.9996V6.9998c0-2.7566-2.2415-4.9996-4.9996-4.9996
			H6.9998c-2.7581,0-4.9996,2.243-4.9996,4.9996v26.0004c0,2.7566,2.2415,4.9996,4.9996,4.9996H31.9979 M31.9979,40H6.9998
			C3.1341,40,0,36.8661,0,33.0003V6.9998C0,3.1341,3.1341,0,6.9998,0h24.998c3.8657,0,6.9997,3.1341,6.9997,6.9998v26.0004
			C38.9976,36.8661,35.8636,40,31.9979,40L31.9979,40L31.9979,40z"/>
		<path d="M9.9993,13.001c-1.105,0-1.9998-0.8963-1.9998-2.0013c0-1.1034,0.8948-1.9998,1.9998-1.9998
			s1.9997,0.8964,1.9997,1.9998C11.999,12.1046,11.1043,13.001,9.9993,13.001L9.9993,13.001z M9.9993,21.9997
			c-1.105,0-1.9998-0.8948-1.9998-1.9997c0-1.105,0.8948-1.9998,1.9998-1.9998s1.9997,0.8948,1.9997,1.9998
			C11.999,21.1049,11.1043,21.9997,9.9993,21.9997L9.9993,21.9997z M9.9993,31.0002c-1.105,0-1.9998-0.8964-1.9998-1.9998
			c0-1.105,0.8948-2.0013,1.9998-2.0013s1.9997,0.8963,1.9997,2.0013C11.999,30.1038,11.1043,31.0002,9.9993,31.0002L9.9993,31.0002
			z M15.9985,12.0011V9.9998h14.9996v2.0013H15.9985L15.9985,12.0011z M15.9985,21v-1.9998h14.9996V21H15.9985L15.9985,21z
			 M15.9985,30.0003V27.999h14.9996v2.0013H15.9985L15.9985,30.0003z"/>
	</g>
</svg>
