<svg xmlns="http://www.w3.org/2000/svg" viewBox="0 0 162 111">
    <g fill="none" fill-rule="evenodd">
        <path stroke="#FFE458" d="M127.11 73.7v21.913a4 4 0 0 1-4 4h-6V83.7l10-10zm0-19.925l-.784.785s0-.002.002-.002l.783-.783zm0 0l-.785.786-9.214 9.214V15a4 4 0 0 0-4-4H47V5a4 4 0 0 1 4-4h72.11a4 4 0 0 1 4 4v48.775z"/>
        <path stroke="#FFE458" stroke-width="2" d="M117.11 63.775L96.487 84.399a1.86 1.86 0 0 0-.49.856l-2.561 9.864a1.882 1.882 0 0 0 2.293 2.295l9.864-2.562a1.88 1.88 0 0 0 .857-.49L117.111 83.7v21.913a4 4 0 0 1-4 4H41a4 4 0 0 1-4-4V15a4 4 0 0 1 4-4h72.11a4 4 0 0 1 4 4v48.775z"/>
        <g transform="translate(47 25)">
            <path stroke="#FFE458" stroke-width="2" d="M79.325 29.56L49.486 59.4a1.86 1.86 0 0 0-.49.855l-2.561 9.864a1.882 1.882 0 0 0 2.293 2.295l9.864-2.562a1.88 1.88 0 0 0 .857-.49l29.837-29.838.002-.001.001-.002 6.007-6.007a1.881 1.881 0 0 0 0-2.66l-7.3-7.303a1.88 1.88 0 0 0-2.662 0l-6.006 6.007c-.002 0-.002.002-.002.002l6.008-6.009-6.01 6.01z"/>
            <path stroke="#FFE458" stroke-linecap="square" stroke-width="3" d="M80.5 30.5l8.513 8.513"/>
            <circle cx="2" cy="22" r="2" fill="#FFE458"/>
            <path fill="#FF4D4D" stroke="#FFE458" d="M7 22h52"/>
            <circle cx="2" cy="32" r="2" fill="#FFE458"/>
            <path fill="#FF4D4D" stroke="#FFE458" d="M7 32h52"/>
            <circle cx="2" cy="42" r="2" fill="#FFE458"/>
            <path fill="#FF4D4D" stroke="#FFE458" d="M7 42h40"/>
            <circle cx="2" cy="52" r="2" fill="#FFE458"/>
            <path fill="#FF4D4D" stroke="#FFE458" d="M7 52h28"/>
            <circle cx="2" cy="62" r="2" fill="#FFE458"/>
            <path fill="#FF4D4D" stroke="#FFE458" d="M7 62h23"/>
            <circle cx="2" cy="2" r="2" fill="#FFE458"/>
            <path fill="#FF4D4D" stroke="#FFE458" d="M7 2h52"/>
            <circle cx="2" cy="12" r="2" fill="#FFE458"/>
            <path fill="#FF4D4D" stroke="#FFE458" d="M7 12h52"/>
        </g>
        <path stroke="#FFE458" d="M155.829 53.674l1.258-3.08 1.258 3.08 3.08 1.258-3.08 1.258-1.258 3.081-1.258-3.08-3.08-1.259z"/>
        <path fill="#FFE458" d="M146.324 31.92l1.048-2.567 1.049 2.568 2.567 1.048-2.568 1.048-1.048 2.567-1.048-2.567-2.567-1.048z"/>
        <path stroke="#FFE458" d="M14.176 34.434l1.258-3.08 1.258 3.08 3.081 1.258-3.08 1.258-1.259 3.08-1.258-3.08-3.08-1.258z"/>
        <path fill="#FFE458" d="M18.725 72.639l1.047-2.568 1.049 2.568 2.567 1.048-2.567 1.048-1.049 2.567-1.048-2.567-2.567-1.048zm122.638 1.884l.779-1.907.778 1.907 1.908.78-1.907.778-.78 1.908-.779-1.908-1.907-.779zM2.711 56.154l.78-1.908.778 1.907 1.908.78-1.908.779-.778 1.907-.78-1.908-1.907-.779z"/>
    </g>
</svg>
