<?xml version="1.0" encoding="utf-8"?>
<!-- Generator: Adobe Illustrator 19.0.1, SVG Export Plug-In . SVG Version: 6.00 Build 0)  -->
<!DOCTYPE svg PUBLIC "-//W3C//DTD SVG 1.1//EN" "http://www.w3.org/Graphics/SVG/1.1/DTD/svg11.dtd" [
	<!ENTITY ns_extend "http://ns.adobe.com/Extensibility/1.0/">
	<!ENTITY ns_ai "http://ns.adobe.com/AdobeIllustrator/10.0/">
	<!ENTITY ns_graphs "http://ns.adobe.com/Graphs/1.0/">
	<!ENTITY ns_vars "http://ns.adobe.com/Variables/1.0/">
	<!ENTITY ns_imrep "http://ns.adobe.com/ImageReplacement/1.0/">
	<!ENTITY ns_sfw "http://ns.adobe.com/SaveForWeb/1.0/">
	<!ENTITY ns_custom "http://ns.adobe.com/GenericCustomNamespace/1.0/">
	<!ENTITY ns_adobe_xpath "http://ns.adobe.com/XPath/1.0/">
]>
<svg version="1.1" id="Layer_1" xmlns:x="&ns_extend;" xmlns:i="&ns_ai;" xmlns:graph="&ns_graphs;"
	 xmlns="http://www.w3.org/2000/svg" xmlns:xlink="http://www.w3.org/1999/xlink" x="0px" y="0px" width="38.9779px"
	 height="46.3294px" viewBox="0 0 38.9779 46.3294" enable-background="new 0 0 38.9779 46.3294" xml:space="preserve">
	<g i:extraneous="self">
		<path d="M33.2698,32.9173L19.8725,46.1734
			c-0.2111,0.208-0.5558,0.208-0.767,0L5.7081,32.9173c-7.6108-7.53-7.6108-19.7396,0-27.2697
			c7.6093-7.5301,19.9509-7.5301,27.5617,0S40.8806,25.3873,33.2698,32.9173L33.2698,32.9173z M19.5077,2.1636
			c-9.5749,0-17.3363,7.7613-17.3363,17.3362S9.9328,36.836,19.5077,36.836c9.5747,0,17.3362-7.7614,17.3362-17.3363
			S29.0824,2.1636,19.5077,2.1636L19.5077,2.1636z"/>
		<path d="M16.8196,14.6327c0.0466-0.7878,0.3149-1.4129,0.8065-1.8751c0.4901-0.473,1.1337-0.7087,1.9308-0.7087
			c0.7863,0,1.4253,0.2125,1.9169,0.639c0.4807,0.4265,0.7211,0.9723,0.7211,1.6392c0,0.6575-0.1659,1.1988-0.4994,1.6254
			c-0.324,0.4249-0.9352,0.9072-1.8331,1.4439c-0.9723,0.5737-1.6532,1.1987-2.0424,1.875
			c-0.3986,0.7133-0.5506,1.6067-0.4576,2.6813l0.0265,0.8051h3.6817v-0.7352c0-0.6854,0.1613-1.2406,0.4853-1.6672
			c0.3242-0.4265,0.9493-0.9073,1.8767-1.4454c1.9804-1.1663,2.9713-2.7358,2.9713-4.7084c0-1.5928-0.6017-2.8846-1.8052-3.8756
			c-1.2221-1.0003-2.8194-1.4997-4.7921-1.4997c-2.0937,0-3.7407,0.5412-4.9457,1.6254c-1.1663,1.0375-1.768,2.4301-1.8051,4.1811
			H16.8196L16.8196,14.6327z M19.2793,29.3984c0.6297,0,1.1662-0.214,1.6113-0.639c0.4436-0.4171,0.6653-0.932,0.6653-1.5431
			s-0.2217-1.129-0.6653-1.5555c-0.4451-0.4156-0.9817-0.625-1.6113-0.625c-0.6313,0-1.1632,0.2094-1.5974,0.625
			c-0.4451,0.4265-0.6668,0.9444-0.6668,1.5555s0.2217,1.126,0.6668,1.5431C18.1161,29.1844,18.648,29.3984,19.2793,29.3984
			L19.2793,29.3984L19.2793,29.3984z"/>
	</g>
</svg>
