<?xml version="1.0" encoding="utf-8"?>
<!-- Generator: Adobe Illustrator 19.0.1, SVG Export Plug-In . SVG Version: 6.00 Build 0)  -->
<!DOCTYPE svg PUBLIC "-//W3C//DTD SVG 1.1//EN" "http://www.w3.org/Graphics/SVG/1.1/DTD/svg11.dtd" [
	<!ENTITY ns_extend "http://ns.adobe.com/Extensibility/1.0/">
	<!ENTITY ns_ai "http://ns.adobe.com/AdobeIllustrator/10.0/">
	<!ENTITY ns_graphs "http://ns.adobe.com/Graphs/1.0/">
	<!ENTITY ns_vars "http://ns.adobe.com/Variables/1.0/">
	<!ENTITY ns_imrep "http://ns.adobe.com/ImageReplacement/1.0/">
	<!ENTITY ns_sfw "http://ns.adobe.com/SaveForWeb/1.0/">
	<!ENTITY ns_custom "http://ns.adobe.com/GenericCustomNamespace/1.0/">
	<!ENTITY ns_adobe_xpath "http://ns.adobe.com/XPath/1.0/">
]>
<svg version="1.1" id="Layer_1" xmlns:x="&ns_extend;" xmlns:i="&ns_ai;" xmlns:graph="&ns_graphs;"
	 xmlns="http://www.w3.org/2000/svg" xmlns:xlink="http://www.w3.org/1999/xlink" x="0px" y="0px" width="48.8071px" height="54px"
	 viewBox="0 0 48.8071 54" enable-background="new 0 0 48.8071 54" xml:space="preserve">
	<g i:extraneous="self">
		<path d="M41.5383,8.3072h-5.1933v30.1152c0,5.154-4.1921,9.3463-9.3461,9.3463H14.6423
			C15.1498,51.2873,18.1477,54,21.8064,54h19.7319c4.0143,0,7.2688-3.2545,7.2688-7.2688V15.5758
			C48.8071,11.5615,45.5526,8.3072,41.5383,8.3072z"/>
		<path d="M34.2681,8.3072V7.269c0-2.5086-1.2712-4.7211-3.2042-6.0278C29.9037,0.4575,28.5048,0,26.9989,0H7.2686
			C3.2543,0,0,3.2543,0,7.2686v31.1538c0,2.3771,1.1578,4.4687,2.9222,5.7955c1.2153,0.913,2.7096,1.4738,4.347,1.4738h7.2686
			v0.0011h12.461c4.0159,0,7.2704-3.2561,7.2704-7.2704V8.3072H34.2681z M23.7777,20.3249c0,0.013-0.0016,0.0244-0.0034,0.0356
			c0.1326,2.7713-4.9543,5.7705-6.7431,7.6628c0,0.0031,0,0.0063,0,0.0096c-0.0016-0.0016-0.0031-0.0034-0.0031-0.0049
			c-0.0016,0.0016-0.0034,0.0034-0.0049,0.0049c0-0.0034,0-0.0065,0-0.0096c-1.7888-1.8923-6.8757-4.8915-6.7431-7.6628
			c-0.0016-0.0112-0.0034-0.0226-0.0034-0.0356c0-0.0291,0.0018-0.0597,0.0034-0.0906c-0.0016-0.0371-0.0034-0.0742-0.0034-0.1114
			c0,0,0.0034,0,0.0098,0h0.0016c0.1342-1.3783,1.616-2.4643,3.4242-2.4643c0.0016,0,0.0031,0,0.0047,0c0.0016,0,0.0034,0,0.0049,0
			c1.5739,0,2.899,1.317,3.3062,2.4384c0.4056-1.1214,1.7307-2.4384,3.3044-2.4384c0.0018,0,0.0034,0,0.0049,0s0.0034,0,0.0049,0
			c1.8096,0,3.2901,1.086,3.424,2.4643h0.0016c0.0065,0,0.0098,0,0.0098,0c0,0.0371-0.0016,0.0742-0.0034,0.1114
			C23.7761,20.2651,23.7777,20.2958,23.7777,20.3249z"/>
	</g>
</svg>
