<?xml version="1.0" encoding="utf-8"?>
<!-- Generator: Adobe Illustrator 19.0.1, SVG Export Plug-In . SVG Version: 6.00 Build 0)  -->
<svg version="1.1" id="Layer_1" xmlns="http://www.w3.org/2000/svg" xmlns:xlink="http://www.w3.org/1999/xlink" x="0px" y="0px"
	 width="46px" height="43px" viewBox="0 0 46 43" style="enable-background:new 0 0 46 43;" xml:space="preserve">
<style type="text/css">
	.icons-st0{fill-rule:evenodd;clip-rule:evenodd;fill:#EC3939;}
	.icons-st1{fill:#EC3939;}
</style>
<path class="icons-st0" d="M24.4957,5.9999c-8.5626,0-15.5033,6.9393-15.5033,15.5001s6.9407,15.5004,15.5033,15.5004
	S39.9993,30.0608,39.9993,21.5S33.0583,5.9999,24.4957,5.9999z M29.5826,29.4143l-6.0013-6.0001l-0.5861-0.5859v-0.8291V11h1.9999
	v10.9992l6.0013,6.0016L29.5826,29.4143z"/>
<path class="icons-st1" d="M24.4955,0C13.8094,0,4.9532,7.7953,3.283,18.0069L0,18.0109l4.2997,4.981l4.6921-4.9918l-3.6702,0.0044
	c1.6545-9.0879,9.6138-16.004,19.174-16.004c10.7538,0,19.5036,8.7465,19.5036,19.4996c0,10.7531-8.7498,19.4994-19.5036,19.4994V43
	C36.3724,43,46,33.3744,46,21.5001C46,9.6258,36.3724,0,24.4955,0z"/>
</svg>
