<svg id="Слой_3" data-name="Слой 3" xmlns="http://www.w3.org/2000/svg" viewBox="0 0 640 640.23"><defs><style>.cls-1{fill:#aeb3bc;}</style></defs><title>icons_refresh</title><path class="cls-1" d="M636.77,319.47L525.37,184.39a14.74,14.74,0,0,0-21.77,0L392.2,319.47a13.44,13.44,0,0,0,10.88,21.77H437c8.32,0,14.73,7,13.44,14.73-12.8,146-87.71,261.21-181.83,282.34v1.92C429.33,626.78,558,506.42,579.14,352.77c0.64-6.4,6.4-11.52,13.44-11.52h33.93C637.41,341.24,644.45,328.44,636.77,319.47Z"/><path class="cls-1" d="M236.62,299H202.69c-8.32,0-14.73-7-13.44-14.73C202,138.29,277,23,371.07,1.92V0C210.37,13.44,81.69,133.81,60.56,287.46c-0.64,6.4-6.4,11.52-13.44,11.52H13.82A13.44,13.44,0,0,0,2.94,320.76l111.4,135.09a14.74,14.74,0,0,0,21.77,0l111.4-135.09A13.44,13.44,0,0,0,236.62,299Z"/></svg>
