<?xml version="1.0" encoding="utf-8"?>
<!-- Generator: Adobe Illustrator 19.0.1, SVG Export Plug-In . SVG Version: 6.00 Build 0)  -->
<!DOCTYPE svg PUBLIC "-//W3C//DTD SVG 1.1//EN" "http://www.w3.org/Graphics/SVG/1.1/DTD/svg11.dtd" [
	<!ENTITY ns_extend "http://ns.adobe.com/Extensibility/1.0/">
	<!ENTITY ns_ai "http://ns.adobe.com/AdobeIllustrator/10.0/">
	<!ENTITY ns_graphs "http://ns.adobe.com/Graphs/1.0/">
	<!ENTITY ns_vars "http://ns.adobe.com/Variables/1.0/">
	<!ENTITY ns_imrep "http://ns.adobe.com/ImageReplacement/1.0/">
	<!ENTITY ns_sfw "http://ns.adobe.com/SaveForWeb/1.0/">
	<!ENTITY ns_custom "http://ns.adobe.com/GenericCustomNamespace/1.0/">
	<!ENTITY ns_adobe_xpath "http://ns.adobe.com/XPath/1.0/">
]>
<svg version="1.1" id="Layer_1" xmlns:x="&ns_extend;" xmlns:i="&ns_ai;" xmlns:graph="&ns_graphs;"
	 xmlns="http://www.w3.org/2000/svg" xmlns:xlink="http://www.w3.org/1999/xlink" x="0px" y="0px" width="38px" height="50px"
	 viewBox="0 0 38 50" style="enable-background:new 0 0 38 50;" xml:space="preserve">
	<g i:extraneous="self">
		<path d="M30.9825,0H7.0175C3.1417,0,0,3.132,0,6.9957v36.0085C0,46.868,3.1417,50,7.0175,50h23.965
			C34.8583,50,38,46.868,38,43.0043V6.9957C38,3.132,34.8583,0,30.9825,0z M29.7593,19.9887
			c0.1786-0.0388,0.3588-0.059,0.5342-0.059c0.5895,0,1.1446,0.2184,1.5775,0.5858c0.0133,0.0112,0.0251,0.0239,0.0382,0.0354
			c0.1223,0.1084,0.2327,0.2289,0.3313,0.361c0.0146,0.0193,0.0341,0.0327,0.0483,0.0526c0.0088,0.0124,0.0135,0.0262,0.022,0.0386
			c0.0479,0.0711,0.0876,0.1477,0.1279,0.2243c0.5665,1.0538,0.2759,2.3805-0.737,3.0864L17.246,35.5687l12.5192-2.7788
			c0.1786-0.0388,0.3588-0.059,0.5343-0.059c1.1119,0,2.1152,0.7605,2.3683,1.8779c0.2935,1.2944-0.5296,2.581-1.8388,2.8713
			L8.0693,42.5319c-0.1786,0.0388-0.3588,0.0575-0.5342,0.0575c-1.1119,0-2.1152-0.759-2.3684-1.8764
			c-0.1293-0.5681-0.0337-1.1288,0.2137-1.6099c0.0127-0.0287,0.0144-0.0585,0.0285-0.087c0.0629-0.127,0.4188-0.6306,0.8608-1.0099
			c0.2562-0.2199,7.8198-6.1051,14.1342-11.0146L8.0635,29.7308c-0.1786,0.0388-0.3587,0.0575-0.5342,0.0575
			c-1.112,0-2.1152-0.759-2.3684-1.8764c-0.1349-0.5927-0.0269-1.1784,0.2458-1.6724c0.0038-0.008,0.004-0.0164,0.008-0.0244
			c0.004-0.0081,0.0187-0.029,0.025-0.04c0.035-0.0592,0.0737-0.115,0.1136-0.1711c0.1543-0.2155,0.4139-0.5343,0.7221-0.7989
			c0.2562-0.2199,7.8198-6.1051,14.1342-11.0146L8.0693,16.9297c-0.1786,0.0388-0.3588,0.0575-0.5342,0.0575
			c-1.1119,0-2.1152-0.759-2.3684-1.8764c-0.295-1.296,0.5296-2.581,1.8388-2.8713l22.7596-5.0519
			c0.1786-0.0388,0.3588-0.059,0.5343-0.059c0.5895,0,1.1445,0.2184,1.5774,0.5858c0.0132,0.0111,0.0251,0.0238,0.0381,0.0352
			c0.1224,0.1085,0.2328,0.2292,0.3316,0.3613c0.0146,0.0193,0.034,0.0326,0.0481,0.0524c0.0088,0.0123,0.0135,0.0262,0.022,0.0386
			c0.048,0.0712,0.088,0.1481,0.1284,0.225c0.566,1.0536,0.2752,2.38-0.7374,3.0857L17.2564,22.764L29.7593,19.9887z"/>
	</g>
</svg>
