<?xml version="1.0" encoding="utf-8"?>
<!-- Generator: Adobe Illustrator 19.0.1, SVG Export Plug-In . SVG Version: 6.00 Build 0)  -->
<!DOCTYPE svg PUBLIC "-//W3C//DTD SVG 1.1//EN" "http://www.w3.org/Graphics/SVG/1.1/DTD/svg11.dtd" [
	<!ENTITY ns_extend "http://ns.adobe.com/Extensibility/1.0/">
	<!ENTITY ns_ai "http://ns.adobe.com/AdobeIllustrator/10.0/">
	<!ENTITY ns_graphs "http://ns.adobe.com/Graphs/1.0/">
	<!ENTITY ns_vars "http://ns.adobe.com/Variables/1.0/">
	<!ENTITY ns_imrep "http://ns.adobe.com/ImageReplacement/1.0/">
	<!ENTITY ns_sfw "http://ns.adobe.com/SaveForWeb/1.0/">
	<!ENTITY ns_custom "http://ns.adobe.com/GenericCustomNamespace/1.0/">
	<!ENTITY ns_adobe_xpath "http://ns.adobe.com/XPath/1.0/">
]>
<svg version="1.1" id="Layer_1" xmlns:x="&ns_extend;" xmlns:i="&ns_ai;" xmlns:graph="&ns_graphs;"
	 xmlns="http://www.w3.org/2000/svg" xmlns:xlink="http://www.w3.org/1999/xlink" x="0px" y="0px" width="31px" height="31px"
	 viewBox="0 0 31 31" enable-background="new 0 0 31 31" xml:space="preserve">
	<g i:extraneous="self">
		<polygon points="20.3618,22.5207 22.5198,20.3628 31.0006,28.842 
			28.8426,31 20.2093,22.3682 "/>
		<path d="M13.7351,24.4171c2.8525,0,5.5357-1.1112,7.5529-3.1284c2.0186-2.0171,3.1298-4.7003,3.1298-7.5543
			c0-2.8525-1.1112-5.5358-3.1298-7.5529c-2.0172-2.0171-4.7004-3.1283-7.5529-3.1283c-2.854,0-5.5357,1.1112-7.5544,3.1283
			c-4.1644,4.1644-4.1644,10.9429,0,15.1072C8.1994,23.3059,10.881,24.4171,13.7351,24.4171 M13.7351,27.4702
			c-3.5154,0-7.0293-1.3415-9.7126-4.0233c-5.3633-5.3633-5.3633-14.0602,0-19.4236C6.7057,1.3416,10.2197,0,13.7351,0
			c3.5139,0,7.0293,1.3416,9.7111,4.0233c5.3648,5.3634,5.3648,14.0603,0,19.4236C20.7644,26.1286,17.2489,27.4702,13.7351,27.4702
			L13.7351,27.4702L13.7351,27.4702z"/>
	</g>
</svg>
