<?xml version="1.0" encoding="utf-8"?>
<!-- Generator: Adobe Illustrator 19.0.1, SVG Export Plug-In . SVG Version: 6.00 Build 0)  -->
<!DOCTYPE svg PUBLIC "-//W3C//DTD SVG 1.1//EN" "http://www.w3.org/Graphics/SVG/1.1/DTD/svg11.dtd" [
	<!ENTITY ns_extend "http://ns.adobe.com/Extensibility/1.0/">
	<!ENTITY ns_ai "http://ns.adobe.com/AdobeIllustrator/10.0/">
	<!ENTITY ns_graphs "http://ns.adobe.com/Graphs/1.0/">
	<!ENTITY ns_vars "http://ns.adobe.com/Variables/1.0/">
	<!ENTITY ns_imrep "http://ns.adobe.com/ImageReplacement/1.0/">
	<!ENTITY ns_sfw "http://ns.adobe.com/SaveForWeb/1.0/">
	<!ENTITY ns_custom "http://ns.adobe.com/GenericCustomNamespace/1.0/">
	<!ENTITY ns_adobe_xpath "http://ns.adobe.com/XPath/1.0/">
]>
<svg version="1.1" id="Layer_1" xmlns:x="&ns_extend;" xmlns:i="&ns_ai;" xmlns:graph="&ns_graphs;"
	 xmlns="http://www.w3.org/2000/svg" xmlns:xlink="http://www.w3.org/1999/xlink" x="0px" y="0px" width="49px" height="49px"
	 viewBox="0 0 49 49" style="enable-background:new 0 0 49 49;" xml:space="preserve">
	<g i:extraneous="self">
		<g>
			<path d="M24.5,0.034C10.9684,0.034,0,10.9948,0,24.517C0,38.0392,10.9684,49,24.5,49C38.03,49,49,38.0392,49,24.517
				C49,10.9948,38.03,0.034,24.5,0.034z M21.3643,46.7776l0.4135-2.944c-1.5991-0.222-3.136-0.6396-4.5862-1.2266l-1.1131,2.7535
				c-1.9604-0.7938-3.7828-1.8558-5.4242-3.1406l1.8253-2.3361c-1.2498-0.9781-2.3784-2.1052-3.3564-3.3534l-2.3375,1.8237
				c-1.2861-1.6406-2.349-3.462-3.1436-5.4214l2.7533-1.1127c-0.5854-1.4484-1.0031-2.9839-1.2264-4.5814l-2.9448,0.4126
				c-0.1437-1.025-0.2233-2.0703-0.2233-3.1342c0-1.0637,0.0796-2.1088,0.2233-3.1335l2.9449,0.4135
				c0.2234-1.5974,0.6395-3.1345,1.2264-4.583L3.642,16.1013c0.7945-1.9594,1.8574-3.7808,3.1434-5.4213l2.3361,1.8236
				c0.9796-1.2484,2.1068-2.3753,3.3566-3.3535l-1.8242-2.3358c1.6415-1.285,3.4641-2.3471,5.4247-3.141l1.1129,2.7521
				c1.4501-0.5853,2.9871-1.0031,4.5862-1.225l-0.4136-2.9442c1.0255-0.1436,2.0714-0.2231,3.1359-0.2231
				s2.1104,0.0795,3.1359,0.2231l-0.4135,2.9442c1.5992,0.2219,3.1346,0.6396,4.5862,1.2264l1.1132-2.7535
				c1.9606,0.7939,3.7831,1.8561,5.4246,3.1412l-1.826,2.3355c1.2499,0.9781,2.377,2.1051,3.3566,3.3549l2.3376-1.8249
				c1.2859,1.6403,2.3488,3.4615,3.1432,5.4206l-2.7545,1.1132c0.5867,1.4485,1.0028,2.9856,1.228,4.583l2.9447-0.4136
				c0.1437,1.0248,0.2233,2.0699,0.2233,3.1337c0,1.064-0.0796,2.1093-0.2233,3.1343l-2.9478-0.4127
				c-0.222,1.5975-0.6396,3.1331-1.2264,4.5814l2.7562,1.1129c-0.7946,1.9596-1.8578,3.7813-3.1441,5.422l-2.3383-1.8244
				c-0.9781,1.2482-2.1053,2.3753-3.3552,3.3534l1.8254,2.336c-1.6414,1.2849-3.4639,2.3468-5.4243,3.1407l-1.1129-2.752
				c-1.4501,0.5869-2.9871,1.0029-4.5862,1.2265l0.4135,2.9425c-1.0255,0.1436-2.0714,0.2231-3.1359,0.2231
				C23.4355,47.0007,22.3898,46.9212,21.3643,46.7776z"/>
			<path d="M42.074,24.5166c0-9.6992-7.868-17.5625-17.575-17.5625c-9.7054,0-17.5734,7.8633-17.5734,17.5625
				c0,9.7007,7.868,17.5641,17.5734,17.5641C34.2059,42.0807,42.074,34.2173,42.074,24.5166z M27.5003,26.2936l2.9268,2.9252
				c0.8614-0.3739,1.901-0.2078,2.604,0.4951c0.9219,0.9202,0.9219,2.4116,0,3.3303c-0.9201,0.9202-2.4116,0.9202-3.3302,0
				c-0.7047-0.7046-0.8706-1.7428-0.4966-2.6041l-2.9268-2.9238c-1.0926,0.6472-2.4629,0.6472-3.5554-0.0015l-2.9284,2.9253
				c0.3755,0.8613,0.2095,1.8995-0.4951,2.6041c-0.9202,0.9202-2.4116,0.9202-3.3318,0c-0.9201-0.9188-0.9201-2.4101,0-3.3303
				c0.7047-0.7029,1.7429-0.869,2.6057-0.4951l2.9269-2.9252c-0.6488-1.0909-0.6488-2.4613,0-3.5522l-2.9269-2.9253
				c-0.8628,0.3725-1.901,0.208-2.6057-0.4966c-0.9201-0.9186-0.9201-2.41,0-3.3287c0.9203-0.9203,2.4117-0.9203,3.3318,0
				c0.7047,0.703,0.8706,1.7411,0.4951,2.6025l2.9284,2.9252c1.0925-0.6471,2.4628-0.6471,3.5554,0l2.9268-2.9252
				c-0.374-0.8613-0.2081-1.8995,0.4966-2.6025c0.9186-0.9203,2.4101-0.9203,3.3302,0c0.9219,0.9186,0.9219,2.41,0,3.3287
				c-0.703,0.7047-1.7426,0.8691-2.604,0.4966l-2.9268,2.9253C28.1475,23.8323,28.1475,25.2026,27.5003,26.2936z"/>
		</g>
	</g>
</svg>
