<?xml version="1.0" encoding="utf-8"?>
<!-- Generator: Adobe Illustrator 19.0.1, SVG Export Plug-In . SVG Version: 6.00 Build 0)  -->
<!DOCTYPE svg PUBLIC "-//W3C//DTD SVG 1.1//EN" "http://www.w3.org/Graphics/SVG/1.1/DTD/svg11.dtd" [
	<!ENTITY ns_extend "http://ns.adobe.com/Extensibility/1.0/">
	<!ENTITY ns_ai "http://ns.adobe.com/AdobeIllustrator/10.0/">
	<!ENTITY ns_graphs "http://ns.adobe.com/Graphs/1.0/">
	<!ENTITY ns_vars "http://ns.adobe.com/Variables/1.0/">
	<!ENTITY ns_imrep "http://ns.adobe.com/ImageReplacement/1.0/">
	<!ENTITY ns_sfw "http://ns.adobe.com/SaveForWeb/1.0/">
	<!ENTITY ns_custom "http://ns.adobe.com/GenericCustomNamespace/1.0/">
	<!ENTITY ns_adobe_xpath "http://ns.adobe.com/XPath/1.0/">
]>
<svg version="1.1" id="Слой_1" xmlns:x="&ns_extend;" xmlns:i="&ns_ai;" xmlns:graph="&ns_graphs;"
	 xmlns="http://www.w3.org/2000/svg" xmlns:xlink="http://www.w3.org/1999/xlink" x="0px" y="0px" width="37.7912px"
	 height="30.7223px" viewBox="0 0 37.7912 30.7223" style="enable-background:new 0 0 37.7912 30.7223;" xml:space="preserve">
	<g i:extraneous="self">
		<path d="M37.6787,11.5989c-0.0839,0.1864-1.1556,1.379-1.5592,1.8279c-0.7254,0.8092-2.6888,3.076-3.0167,3.3331
			c-0.2796,0.2191-0.5927,0.3406-0.9358,0.1969c-0.3105-0.1288-4.9526-4.4773-5.1638-4.8128
			c-0.6522-1.0343,0.4194-2.3558,1.5421-1.9008c0.2377,0.0964,0.4147,0.2734,0.5994,0.4458
			c0.2501,0.2313,0.4986,0.4644,0.7486,0.6973c0.4023,0.3742,0.8045,0.7484,1.2052,1.1228
			c-0.3742-1.6694-1.0855-3.2567-2.0733-4.6436c-2.6696-3.7427-7.237-5.7849-11.7517-5.1776
			c-2.2767,0.3075-4.4494,1.2642-6.2338,2.7349C10.164,6.1448,9.3843,6.9864,8.7275,7.9183
			C8.3966,8.3857,8.0968,8.8764,7.8313,9.3858c-0.2795,0.5374-0.5374,1.1121-1.216,1.1664
			c-0.5529,0.0435-1.067-0.3433-1.2735-0.8511c-0.2361-0.5746-0.0015-1.056,0.2655-1.5639
			c0.5343-1.0188,1.1819-1.9754,1.9258-2.8468c1.4894-1.7456,3.3622-3.1447,5.4495-4.0579C17.2348-0.631,22.22-0.367,26.2609,1.9268
			c3.8079,2.1618,6.5832,5.9838,7.4606,10.3338c0.4723-0.525,0.9429-1.0513,1.4149-1.5779
			c0.1771-0.1957,0.3462-0.4147,0.5421-0.5918c0.4799-0.4347,1.2268-0.427,1.7006,0.0125
			C37.7812,10.4792,37.9054,11.0926,37.6787,11.5989L37.6787,11.5989z M31.9185,23.071c-0.5357,0.9365-1.1693,1.817-1.8867,2.6199
			c-1.4506,1.6245-3.2412,2.9305-5.2229,3.7988c-4.2522,1.8636-9.2373,1.5995-13.2797-0.6943
			c-3.8082-2.1602-6.5818-5.9821-7.4608-10.3338c-0.4627,0.5156-0.924,1.0312-1.3868,1.5468
			c-0.1724,0.1911-0.3385,0.3944-0.5203,0.5763c-0.4565,0.458-1.202,0.4939-1.6974,0.0792
			c-0.4241-0.3541-0.5777-0.9613-0.3757-1.4801c0.0806-0.2066,0.2173-0.3651,0.3602-0.5266c0.3975-0.4426,3.9001-4.4225,4.22-4.6797
			c0.2846-0.2288,0.6045-0.3592,0.9561-0.2122c0.3091,0.1289,0.5685,0.4737,0.8139,0.7036
			c0.1227,0.1133,0.2438,0.2252,0.3634,0.3385c1.0389,0.9675,3.7754,3.4352,3.9864,3.7707c0.6508,1.0344-0.4209,2.3559-1.542,1.901
			c-0.2392-0.0963-0.4147-0.2719-0.5995-0.4458c-0.25-0.2313-0.5001-0.4644-0.7501-0.6972
			c-0.4007-0.3743-0.8029-0.7486-1.2052-1.1228c0.4241,1.8853,1.2766,3.6619,2.4677,5.1652
			c2.8685,3.6186,7.5585,5.4124,12.0546,4.5411c2.2456-0.4349,4.3532-1.5081,6.0504-3.0672
			c0.8372-0.7688,1.5733-1.6524,2.1806-2.6199c0.1583-0.2516,0.688-1.3046,0.8511-1.5376c0.3478-0.4939,0.9814-0.6724,1.5157-0.385
			c0.4581,0.2391,0.7578,0.7516,0.7423,1.2765C32.5382,22.1082,32.1686,22.6316,31.9185,23.071L31.9185,23.071z"/>
	</g>
</svg>
