<?xml version="1.0" encoding="utf-8"?>
<!-- Generator: Adobe Illustrator 19.0.1, SVG Export Plug-In . SVG Version: 6.00 Build 0)  -->
<!DOCTYPE svg PUBLIC "-//W3C//DTD SVG 1.1//EN" "http://www.w3.org/Graphics/SVG/1.1/DTD/svg11.dtd" [
	<!ENTITY ns_extend "http://ns.adobe.com/Extensibility/1.0/">
	<!ENTITY ns_ai "http://ns.adobe.com/AdobeIllustrator/10.0/">
	<!ENTITY ns_graphs "http://ns.adobe.com/Graphs/1.0/">
	<!ENTITY ns_vars "http://ns.adobe.com/Variables/1.0/">
	<!ENTITY ns_imrep "http://ns.adobe.com/ImageReplacement/1.0/">
	<!ENTITY ns_sfw "http://ns.adobe.com/SaveForWeb/1.0/">
	<!ENTITY ns_custom "http://ns.adobe.com/GenericCustomNamespace/1.0/">
	<!ENTITY ns_adobe_xpath "http://ns.adobe.com/XPath/1.0/">
]>
<svg version="1.1" id="Layer_1" xmlns:x="&ns_extend;" xmlns:i="&ns_ai;" xmlns:graph="&ns_graphs;"
	 xmlns="http://www.w3.org/2000/svg" xmlns:xlink="http://www.w3.org/1999/xlink" x="0px" y="0px" width="26px" height="32px"
	 viewBox="0 0 26 32" enable-background="new 0 0 26 32" xml:space="preserve">
	<g i:extraneous="self">
		<path d="M26.0023,27.5556c0,0.0891-0.0029,0.177-0.009,0.2636
			C25.8392,30.1522,23.6632,32,21.002,32H5.0006C2.239,32,0,30.0104,0,27.5556c0-4.9528,3.5119-9.1643,8.4366-10.8087
			c-2.6521-1.5656-4.4363-4.4454-4.4363-7.7477C4.0003,4.0281,8.03,0,13.0012,0s9.0009,4.0281,9.0009,8.9993
			c0,3.3023-1.7842,6.1821-4.4363,7.7477C22.4904,18.3913,26.0023,22.6028,26.0023,27.5556L26.0023,27.5556z"/>
	</g>
</svg>
