<!-- Generated by IcoMoon.io -->
<svg version="1.1" xmlns="http://www.w3.org/2000/svg" width="32" height="32" viewBox="0 0 32 32">
<path d="M9.565 7.309h7.595c2.499 0 4.627 1.224 4.624 3.7-0.002 2.067-0.75 2.871-2.288 3.781 0.131 0.108 1.013 0.371 1.309 0.517 0.474 0.233 0.753 0.47 1.064 0.787 0.872 0.887 1.035 1.698 1.035 3.089 0 3.228-3.123 4.851-6.13 4.851h-7.242l0.032-16.725zM13.692 11.704l-0.001 2.172c1.956 0 3.795 0.258 3.795-1.864 0-1.964-2.080-1.64-3.796-1.64l0.002 1.332zM13.691 20.956c2.144 0 4.792 0.353 4.838-2.081 0.049-2.539-2.72-2.080-4.837-2.080l-0.001 4.161z"></path>
</svg>
