<?xml version="1.0" encoding="utf-8"?>
<!-- Generator: Adobe Illustrator 19.0.1, SVG Export Plug-In . SVG Version: 6.00 Build 0)  -->
<!DOCTYPE svg PUBLIC "-//W3C//DTD SVG 1.1//EN" "http://www.w3.org/Graphics/SVG/1.1/DTD/svg11.dtd" [
	<!ENTITY ns_extend "http://ns.adobe.com/Extensibility/1.0/">
	<!ENTITY ns_ai "http://ns.adobe.com/AdobeIllustrator/10.0/">
	<!ENTITY ns_graphs "http://ns.adobe.com/Graphs/1.0/">
	<!ENTITY ns_vars "http://ns.adobe.com/Variables/1.0/">
	<!ENTITY ns_imrep "http://ns.adobe.com/ImageReplacement/1.0/">
	<!ENTITY ns_sfw "http://ns.adobe.com/SaveForWeb/1.0/">
	<!ENTITY ns_custom "http://ns.adobe.com/GenericCustomNamespace/1.0/">
	<!ENTITY ns_adobe_xpath "http://ns.adobe.com/XPath/1.0/">
]>
<svg version="1.1" id="Слой_1" xmlns:x="&ns_extend;" xmlns:i="&ns_ai;" xmlns:graph="&ns_graphs;"
	 xmlns="http://www.w3.org/2000/svg" xmlns:xlink="http://www.w3.org/1999/xlink" x="0px" y="0px" width="33px" height="26px"
	 viewBox="0 0 33 26" enable-background="new 0 0 33 26" xml:space="preserve">
	<g i:extraneous="self">
		<path d="M20.0005,17.564h9.0008c1.1033,0,2.0001-0.8952,2.0001-2.0001
			v5.4381c0,2.7615-2.2389,5.0004-5.0004,5.0004H4.9989C2.2375,26.0024,0,23.7634,0,21.002V5.0005C0,2.2391,2.2375,0,4.9989,0
			H26.001c2.7615,0,5.0004,2.2391,5.0004,5.0005v6.4381c0-1.1049-0.8969-2.0001-2.0001-2.0001h-9.0008
			c-1.1049,0-2.0003,0.8952-2.0003,2.0001v4.1253C18.0002,16.6688,18.8955,17.564,20.0005,17.564L20.0005,17.564z"/>
		<path d="M29.0013,17.564c1.1033,0,2.0001-0.8952,2.0001-2.0001v-4.1253c0-1.1049-0.8969-2.0001-2.0001-2.0001
			h-9.0009c-1.1049,0-2.0003,0.8952-2.0003,2.0001v4.1253c0,1.1049,0.8953,2.0001,2.0003,2.0001H29.0013 M29.0013,19.5643h-9.0009
			c-2.2051,0-4.0003-1.7953-4.0003-4.0004v-4.1253c0-2.2051,1.7952-4.0003,4.0003-4.0003h9.0009
			C31.2064,7.4384,33,9.2335,33,11.4386v4.1253C33,17.769,31.2064,19.5643,29.0013,19.5643L29.0013,19.5643L29.0013,19.5643z"/>
		<path d="M22.5008,10.9697c1.1043,0,1.9991,0.9104,1.9991,2.0315
			c0,1.1213-0.8948,2.0317-1.9991,2.0317c-1.1044,0-2.0009-0.9104-2.0009-2.0317C20.5,11.88,21.3964,10.9697,22.5008,10.9697
			L22.5008,10.9697z"/>
	</g>
</svg>
