<?xml version="1.0" encoding="utf-8"?>
<!-- Generator: Adobe Illustrator 19.0.1, SVG Export Plug-In . SVG Version: 6.00 Build 0)  -->
<!DOCTYPE svg PUBLIC "-//W3C//DTD SVG 1.1//EN" "http://www.w3.org/Graphics/SVG/1.1/DTD/svg11.dtd" [
	<!ENTITY ns_extend "http://ns.adobe.com/Extensibility/1.0/">
	<!ENTITY ns_ai "http://ns.adobe.com/AdobeIllustrator/10.0/">
	<!ENTITY ns_graphs "http://ns.adobe.com/Graphs/1.0/">
	<!ENTITY ns_vars "http://ns.adobe.com/Variables/1.0/">
	<!ENTITY ns_imrep "http://ns.adobe.com/ImageReplacement/1.0/">
	<!ENTITY ns_sfw "http://ns.adobe.com/SaveForWeb/1.0/">
	<!ENTITY ns_custom "http://ns.adobe.com/GenericCustomNamespace/1.0/">
	<!ENTITY ns_adobe_xpath "http://ns.adobe.com/XPath/1.0/">
]>
<svg version="1.1" id="Layer_1" xmlns:x="&ns_extend;" xmlns:i="&ns_ai;" xmlns:graph="&ns_graphs;"
	 xmlns="http://www.w3.org/2000/svg" xmlns:xlink="http://www.w3.org/1999/xlink" x="0px" y="0px" width="31px" height="26px"
	 viewBox="0 0 31 26" enable-background="new 0 0 31 26" xml:space="preserve">
	<g i:extraneous="self">
		<path d="M7.3715,16.6912L15.5,25.9847l8.1285-9.2935c0.5465-0.6234,0.4816-1.571-0.1411-2.1159
			c-0.6234-0.5462-1.5713-0.4832-2.1159,0.1418L15.5,21.4287l-5.8715-6.7116c-0.5446-0.625-1.4925-0.688-2.1172-0.1418
			C6.8883,15.1202,6.825,16.0678,7.3715,16.6912L7.3715,16.6912L7.3715,16.6912z"/>
		<path d="M13.9994,9.7015c0-0.8281,0.6721-1.499,1.5003-1.499c0.8294,0,1.5003,0.6708,1.5003,1.499v12.0043
			c0,0.8278-0.6708,1.5003-1.5003,1.5003c-0.8281,0-1.5003-0.6725-1.5003-1.5003V9.7015"/>
		<path d="M22.0411,10.4747h3.9598c2.7599,0,4.9991-2.2118,4.9991-4.941
			V4.941C31,2.2118,28.7608,0,26.0009,0H4.9995C2.2392,0,0,2.2118,0,4.941v0.5927c0,2.7292,2.2392,4.941,4.9995,4.941H9.03V5.2365
			h12.9697L22.0411,10.4747L22.0411,10.4747z"/>
	</g>
</svg>
