<?xml version="1.0" encoding="utf-8"?>
<!-- Generator: Adobe Illustrator 20.1.0, SVG Export Plug-In . SVG Version: 6.00 Build 0)  -->
<svg version="1.1" id="Layer_2" xmlns="http://www.w3.org/2000/svg" xmlns:xlink="http://www.w3.org/1999/xlink" x="0px" y="0px"
	 viewBox="0 0 190 71" style="enable-background:new 0 0 190 71;" xml:space="preserve">
<style type="text/css">
	.st0{fill:none;}
	.st1{fill:#FFFFFF;}
</style>
<rect class="st0" width="190" height="71"/>
<g>
	<path class="st1" d="M18.1,18.1h7.1l2.7,10.7l2.7-10.7h7.1v17.6h-4.4V22.4L30,35.7h-4.2l-3.4-13.2v13.2H18L18.1,18.1L18.1,18.1z"/>
	<path class="st1" d="M51.8,32.8h-6.1l-1,2.9h-5.5l6.6-17.6h6l6.6,17.6h-5.6L51.8,32.8z M50.6,28.9l-1.9-6.3l-1.9,6.3
		C46.9,28.9,50.6,28.9,50.6,28.9z"/>
	<path class="st1" d="M60.2,35.5V17.9h9c1.8,0,2.9,0.2,3.9,0.3c1,0.3,1.6,0.8,2.1,1.6c0.5,0.8,0.8,1.8,0.8,2.7c0,1-0.2,1.8-0.6,2.6
		c-0.3,0.6-1,1.3-1.8,1.8c-0.5,0.3-1.1,0.5-1.9,0.6c0.6,0.2,1.1,0.3,1.5,0.6c0.2,0.2,0.5,0.3,1,1c0.3,0.5,0.6,0.8,0.8,1.1l2.6,5.2
		h-6.1l-2.9-5.3c-0.3-0.6-0.6-1.1-1-1.3c-0.3-0.3-0.8-0.3-1.3-0.3h-0.5v7.1h-5.5L60.2,35.5L60.2,35.5z M65.6,25.2h2.3
		c0.2,0,0.6-0.2,1.5-0.2c0.3-0.2,0.6-0.3,1-0.5c0.2-0.3,0.3-0.6,0.3-1c0-0.6-0.2-1-0.5-1.3s-1-0.5-1.9-0.5h-2.4L65.6,25.2L65.6,25.2
		z"/>
	<path class="st1" d="M91,32.8h-6.1l-1,2.9h-5.5L85,18.1h6l6.6,17.6H92L91,32.8z M89.8,28.9l-1.9-6.3L86,28.9H89.8z"/>
	<path class="st1" d="M95.5,18.1H112v4.4h-5.5v13.2h-5.3V22.4h-5.5V18L95.5,18.1L95.5,18.1z"/>
	<path class="st1" d="M114.4,18.1h5.3v6.1h6v-6.1h5.3v17.6h-5.3v-7.1h-6v7.1h-5.3C114.4,35.7,114.4,18.1,114.4,18.1z"/>
	<path class="st1" d="M155,18.1h5l6.6,9.7v-9.7h5.2v17.6h-5.2l-6.5-9.7v9.7H155V18.1z"/>
	<g>
		<path class="st1" d="M76.8,42.6h6c1,0,1.8,0.2,2.3,0.6c0.5,0.5,0.8,1.1,0.8,1.8s-0.2,1.1-0.6,1.6c-0.3,0.3-0.6,0.5-1.1,0.6
			c0.6,0.2,1.3,0.5,1.6,1c0.3,0.3,0.5,1,0.5,1.6c0,0.5-0.2,1-0.3,1.5c-0.2,0.3-0.6,0.8-1,1c-0.3,0.2-0.6,0.3-1.1,0.3
			c-0.6,0.2-1.1,0.2-1.5,0.2h-5.3L76.8,42.6L76.8,42.6z M80,46.6h1.5c0.5,0,0.8-0.2,1-0.3s0.3-0.3,0.3-0.6s-0.2-0.5-0.3-0.6
			c-0.2-0.2-0.5-0.3-1-0.3H80V46.6z M80,50.7h1.6c0.5,0,1-0.2,1.1-0.3c0.2-0.2,0.3-0.5,0.3-0.8s-0.2-0.5-0.3-0.6
			c-0.1-0.1-0.6-0.3-1.1-0.3h-1.5L80,50.7L80,50.7L80,50.7z"/>
		<path class="st1" d="M90.5,42.6H99v2.3h-5.3v1.6h4.8v2.1h-4.8v1.9H99v2.3h-8.5V42.6z"/>
		<path class="st1" d="M103.4,42.6h9.7v2.6h-3.2v7.7h-3.2v-7.7h-3.2v-2.6H103.4z"/>
	</g>
	<g>
		<path class="st1" d="M55,44.7l4.8,2.4c-1.5-2.4-3.9-4-7.3-3.9c1.1,2.3,3.2,4,6.8,4C59.4,47.4,55,44.7,55,44.7z"/>
		<path class="st1" d="M47.6,43.7l4,3.2c-0.8-2.6-2.7-4.7-6.1-5.2c0.6,2.6,2.6,4.8,6,5.5C51.5,47.4,47.6,43.7,47.6,43.7z"/>
		<path class="st1" d="M40.6,42.4l3.9,3.6c-0.6-2.7-2.6-4.8-6-5.5c0.3,2.6,2.3,5,5.6,6C44.2,46.3,40.6,42.4,40.6,42.4z"/>
		<path class="st1" d="M56.1,52.9l3.9-3.6c-0.6,2.7-2.4,4.7-5.8,5.3c0.3-2.6,1.9-4.8,5.3-5.6L56.1,52.9z"/>
		<path class="st1" d="M46.6,52.3l4.8-2.1c-1.5,2.4-3.9,3.7-7.3,3.4c1.1-2.3,3.5-4,6.9-3.9C51.1,49.7,46.6,52.3,46.6,52.3z"/>
		<path class="st1" d="M39,49.5l5.2-1c-1.8,1.9-4.4,2.6-7.7,1.8c1.5-1.9,4.2-3.1,7.6-2.3C44,47.9,39,49.5,39,49.5z"/>
		<path class="st1" d="M33.5,42.9l5,1.9c-1.6-2.3-4.2-3.6-7.6-3.1c1.3,2.3,3.9,3.9,7.3,3.7C38.4,45.3,33.5,42.9,33.5,42.9z"/>
		<path class="st1" d="M64,46.8l0.8,0.6c0,0-4,2.6-14.7,1.3c-6.9-0.8-11.5-3.6-11.3-3.6c3.4,1.3,9,3.4,15,3.2S61.3,47.9,64,46.8z"/>
		<path class="st1" d="M134.7,44.7l-4.8,2.4c1.5-2.4,3.9-4,7.3-3.9c-1.1,2.3-3.2,4-6.8,4C130.3,47.4,134.7,44.7,134.7,44.7z"/>
		<path class="st1" d="M142.1,43.7l-4,3.2c0.8-2.6,2.7-4.7,6.1-5.2c-0.6,2.6-2.6,4.8-6,5.5C138.4,47.4,142.1,43.7,142.1,43.7z"/>
		<path class="st1" d="M149.2,42.4l-3.9,3.6c0.6-2.7,2.6-4.8,6-5.5c-0.3,2.6-2.3,5-5.6,6C145.5,46.3,149.2,42.4,149.2,42.4z"/>
		<path class="st1" d="M133.5,52.9l-3.9-3.6c0.6,2.7,2.4,4.7,5.8,5.3c-0.3-2.6-1.9-4.8-5.3-5.6L133.5,52.9z"/>
		<path class="st1" d="M143.1,52.3l-4.8-2.1c1.5,2.4,3.9,3.7,7.3,3.4c-1.1-2.3-3.5-4-6.9-3.9C138.5,49.7,143.1,52.3,143.1,52.3z"/>
		<path class="st1" d="M150.6,49.5l-5.2-1c1.8,1.9,4.4,2.6,7.7,1.8c-1.5-1.9-4.2-3.1-7.6-2.3L150.6,49.5z"/>
		<path class="st1" d="M156,42.9l-5,1.9c1.6-2.3,4.2-3.6,7.6-3.1c-1.3,2.3-3.9,3.9-7.3,3.7C151.3,45.3,156,42.9,156,42.9z"/>
		<path class="st1" d="M125.6,46.8l-0.8,0.6c0,0,4,2.6,14.7,1.3c6.9-0.8,11.5-3.6,11.3-3.6c-3.4,1.3-9,3.4-15,3.2
			S128.4,47.9,125.6,46.8z"/>
	</g>
	<path class="st1" d="M133.9,26.5c0-2.8,0.8-5,2.4-6.6s3.8-2.4,6.6-2.4c3,0,5.2,0.8,6.8,2.4s2.4,3.8,2.4,6.6c0,2-0.3,3.8-1.1,5
		c-0.6,1.3-1.7,2.4-3,3s-3,1.1-4.9,1.1s-3.6-0.3-4.9-0.9c-1.3-0.6-2.4-1.7-3.1-3C134.2,30.3,133.9,28.6,133.9,26.5z M139.3,26.5
		c0,1.7,0.3,3,0.9,3.8c0.6,0.8,1.6,1.1,2.7,1.1c1.1,0,2-0.3,2.7-1.1c0.6-0.8,0.9-2.2,0.9-3.9s-0.3-2.8-0.9-3.6
		c-0.6-0.8-1.6-1.1-2.7-1.1s-1.9,0.3-2.7,1.1C139.7,23.6,139.3,24.8,139.3,26.5z"/>
</g>
</svg>
