<?xml version="1.0" encoding="UTF-8" standalone="no"?>
<svg
   xmlns:dc="http://purl.org/dc/elements/1.1/"
   xmlns:cc="http://creativecommons.org/ns#"
   xmlns:rdf="http://www.w3.org/1999/02/22-rdf-syntax-ns#"
   xmlns:svg="http://www.w3.org/2000/svg"
   xmlns="http://www.w3.org/2000/svg"
   viewBox="0 0 245.05333 55.360001"
   height="55.360001"
   width="245.05333"
   xml:space="preserve"
   id="svg2"
   version="1.1"><metadata
     id="metadata8"><rdf:RDF><cc:Work
         rdf:about=""><dc:format>image/svg+xml</dc:format><dc:type
           rdf:resource="http://purl.org/dc/dcmitype/StillImage" /></cc:Work></rdf:RDF></metadata><defs
     id="defs6" /><g
     transform="matrix(1.3333333,0,0,-1.3333333,0,55.36)"
     id="g10"><g
       transform="scale(0.1)"
       id="g12"><path
         id="path14"
         style="fill:#ce2232;fill-opacity:1;fill-rule:nonzero;stroke:none"
         d="M 0.00390625,411.617 H 85.0664 l 32.8006,-127.363 32.571,127.363 h 85.011 V 202.297 H 182.477 V 361.93 L 141.66,202.297 H 93.7148 L 52.9727,361.93 V 202.297 H 0.00390625 v 209.32" /><path
         id="path16"
         style="fill:#ce2232;fill-opacity:1;fill-rule:nonzero;stroke:none"
         d="m 391.984,282.113 -23.105,75.246 -22.859,-75.246 z m 13.418,-45.261 h -73.433 l -10.203,-34.555 h -66.039 l 78.675,209.32 h 70.551 l 78.652,-209.32 h -67.73 l -10.473,34.555" /><path
         id="path18"
         style="fill:#ce2232;fill-opacity:1;fill-rule:nonzero;stroke:none"
         d="m 569.992,326.809 h 27.27 c 2.949,0 8.664,0.949 17.136,2.851 4.282,0.86 7.782,3.047 10.497,6.57 2.71,3.52 4.066,7.563 4.066,12.133 0,6.758 -2.141,11.95 -6.426,15.567 -4.281,3.613 -12.328,5.425 -24.129,5.425 H 569.992 Z M 505.027,202.297 v 209.32 h 107.801 c 19.988,0 35.266,-1.711 45.832,-5.137 10.567,-3.429 19.086,-9.781 25.563,-19.062 6.468,-9.281 9.707,-20.586 9.707,-33.91 0,-11.613 -2.477,-21.633 -7.43,-30.059 -4.953,-8.426 -11.766,-15.254 -20.43,-20.488 -5.527,-3.332 -13.097,-6.09 -22.718,-8.281 7.707,-2.575 13.316,-5.149 16.839,-7.719 2.379,-1.711 5.829,-5.383 10.344,-11.004 4.516,-5.625 7.539,-9.953 9.063,-13.004 l 31.324,-60.656 h -73.086 l -34.578,63.969 c -4.375,8.281 -8.281,13.656 -11.707,16.132 -4.664,3.239 -9.946,4.86 -15.848,4.86 h -5.711 v -84.961 h -64.965" /><path
         id="path20"
         style="fill:#ce2232;fill-opacity:1;fill-rule:nonzero;stroke:none"
         d="m 846.891,282.113 -23.102,75.246 -22.863,-75.246 z m 13.418,-45.261 h -73.43 l -10.203,-34.555 h -66.043 l 78.676,209.32 h 70.55 l 78.661,-209.32 h -67.739 l -10.472,34.555" /><path
         id="path22"
         style="fill:#ce2232;fill-opacity:1;fill-rule:nonzero;stroke:none"
         d="m 924.238,411.617 h 196.612 v -51.683 h -65.97 V 202.297 h -64.673 v 157.637 h -65.969 v 51.683" /><path
         id="path24"
         style="fill:#ce2232;fill-opacity:1;fill-rule:nonzero;stroke:none"
         d="m 1150.4,411.617 h 64.69 v -73.246 h 70.67 v 73.246 h 64.97 v -209.32 h -64.97 v 84.672 h -70.67 v -84.672 h -64.69 v 209.32" /><path
         id="path26"
         style="fill:#ce2232;fill-opacity:1;fill-rule:nonzero;stroke:none"
         d="m 1450.26,306.527 c 0,-21.132 3.92,-36.312 11.77,-45.547 7.85,-9.23 18.54,-13.843 32.05,-13.843 13.9,0 24.66,4.519 32.28,13.562 7.61,9.043 11.42,25.27 11.42,48.688 0,19.707 -3.98,34.101 -11.93,43.191 -7.94,9.094 -18.72,13.633 -32.33,13.633 -13.05,0 -23.52,-4.613 -31.42,-13.848 -7.9,-9.234 -11.84,-24.511 -11.84,-45.836 z m -64.69,0.289 c 0,34.172 9.52,60.778 28.56,79.817 19.04,19.035 45.55,28.558 79.52,28.558 34.85,0 61.69,-9.355 80.54,-28.062 18.85,-18.699 28.27,-44.902 28.27,-78.598 0,-24.468 -4.12,-44.527 -12.35,-60.183 -8.23,-15.66 -20.14,-27.844 -35.69,-36.555 -15.57,-8.711 -34.96,-13.066 -58.19,-13.066 -23.61,0 -43.14,3.757 -58.61,11.285 -15.47,7.519 -28.01,19.418 -37.63,35.691 -9.61,16.281 -14.42,36.652 -14.42,61.113" /><path
         id="path28"
         style="fill:#ce2232;fill-opacity:1;fill-rule:nonzero;stroke:none"
         d="m 1637.73,411.617 h 60.4 l 78.82,-115.804 v 115.804 h 60.96 v -209.32 h -60.96 L 1698.56,317.23 V 202.297 h -60.83 v 209.32" /><path
         id="path30"
         style="fill:#16243e;fill-opacity:1;fill-rule:nonzero;stroke:none"
         d="m 750.672,48.3867 h 18.242 c 6.16,0 10.508,1.0899 13.031,3.2813 2.532,2.1836 3.793,5.1133 3.793,8.8047 0,3.4179 -1.25,6.1718 -3.75,8.2539 -2.504,2.082 -6.883,3.1172 -13.152,3.1172 h -18.164 z m 0,45.4961 h 15.562 c 5.575,0 9.461,0.957 11.645,2.8828 2.187,1.9219 3.281,4.6954 3.281,8.3364 0,3.371 -1.094,5.996 -3.281,7.89 -2.184,1.899 -5.988,2.844 -11.41,2.844 h -15.797 z m -36.094,45.4222 h 66.977 c 11.164,0 19.73,-2.766 25.707,-8.301 5.976,-5.531 8.965,-12.375 8.965,-20.539 0,-6.836 -2.133,-12.715 -6.395,-17.6095 -2.848,-3.2578 -7.008,-5.8477 -12.48,-7.7422 8.32,-2.0039 14.437,-5.4297 18.363,-10.3047 3.922,-4.8711 5.883,-10.9961 5.883,-18.3672 0,-5.9961 -1.395,-11.3945 -4.188,-16.1914 -2.789,-4.7852 -6.605,-8.582 -11.449,-11.3672 -3.004,-1.7383 -7.531,-3.0078 -13.586,-3.7969 -8.055,-1.0468 -13.402,-1.5742 -16.035,-1.5742 H 714.578 V 139.305" /><path
         id="path32"
         style="fill:#16243e;fill-opacity:1;fill-rule:nonzero;stroke:none"
         d="m 869.863,139.305 h 95.891 V 114.574 H 905.727 V 96.1797 h 55.679 V 72.5547 H 905.727 V 49.7305 h 61.765 V 23.5117 H 869.863 V 139.305" /><path
         id="path34"
         style="fill:#16243e;fill-opacity:1;fill-rule:nonzero;stroke:none"
         d="m 1014.57,139.305 h 108.76 v -28.594 h -36.48 V 23.5117 h -35.78 v 87.1993 h -36.5 v 28.594" /><path
         id="path36"
         style="fill:#555860;fill-opacity:1;fill-rule:nonzero;stroke:none"
         d="m 467.941,115.348 53.926,-27.1371 c -15.683,27.6051 -42.992,44.8121 -81.844,42.8481 12.774,-26.383 37.825,-45.8754 76.926,-46.1684 0.137,-0.0234 -49.008,30.4574 -49.008,30.4574" /><path
         id="path38"
         style="fill:#555860;fill-opacity:1;fill-rule:nonzero;stroke:none"
         d="m 383.129,126.637 46.723,-37.2932 c -9.102,30.0082 -31.954,52.2732 -70.52,58.2582 6.52,-28.25 28.34,-54.1215 66.637,-62.3637 0.105,-0.0391 -42.84,41.3987 -42.84,41.3987" /><path
         id="path40"
         style="fill:#555860;fill-opacity:1;fill-rule:nonzero;stroke:none"
         d="m 303.723,142 44.199,-39.941 c -7.113,30.449 -28.477,54.011 -66.621,62.222 4.664,-28.543 25.371,-56.414 63.121,-66.8826 C 344.527,97.3398 303.723,142 303.723,142" /><path
         id="path42"
         style="fill:#555860;fill-opacity:1;fill-rule:nonzero;stroke:none"
         d="m 480.598,21.8984 43.414,39.1133 C 517.504,30.6875 496.613,7.51563 458.641,-0.00390625 462.703,28.4414 480.93,55.0625 518.445,64.8594 c 0.125,0.039 -37.847,-42.961 -37.847,-42.961" /><path
         id="path44"
         style="fill:#555860;fill-opacity:1;fill-rule:nonzero;stroke:none"
         d="m 372.473,30.0742 54.425,24.1992 C 410.691,27.5625 383.063,11.8047 344.238,15.875 c 13.289,25.6836 40.75,45.2656 79.856,43.4688 0.133,0 -51.621,-29.2696 -51.621,-29.2696" /><path
         id="path46"
         style="fill:#555860;fill-opacity:1;fill-rule:nonzero;stroke:none"
         d="m 286.531,61.9297 57.403,10.832 c -19.528,-21.875 -49.481,-29.8945 -86.993,-18.789 16.493,21.4804 47.282,33.5351 85.407,24.5078 0.129,0 -55.817,-16.5508 -55.817,-16.5508" /><path
         id="path48"
         style="fill:#555860;fill-opacity:1;fill-rule:nonzero;stroke:none"
         d="m 225.141,136.313 56.597,-21.883 c -18.133,26.23 -47.375,40.449 -85.832,35.273 15.137,-25.281 44.297,-44.324 83.199,-41.418 0.149,0 -53.964,28.028 -53.964,28.028" /><path
         id="path50"
         style="fill:#555860;fill-opacity:1;fill-rule:nonzero;stroke:none"
         d="M 569.031,91.9297 577.941,84 C 577.941,84 532,54.7305 412.309,69.1836 332.563,78.8047 283.254,109.684 283.918,109.605 322.727,94.5742 385.949,71.3906 454.027,73.8438 c 68.028,2.4531 85.239,4.875 115.004,18.0859" /><path
         id="path52"
         style="fill:#555860;fill-opacity:1;fill-rule:nonzero;stroke:none"
         d="m 1369.98,115.348 -53.92,-27.1371 c 15.69,27.6051 42.98,44.8121 81.84,42.8481 -12.77,-26.383 -37.84,-45.8754 -76.93,-46.1684 -0.15,-0.0234 49.01,30.4574 49.01,30.4574" /><path
         id="path54"
         style="fill:#555860;fill-opacity:1;fill-rule:nonzero;stroke:none"
         d="m 1454.78,126.637 -46.71,-37.2932 c 9.11,30.0082 31.94,52.2732 70.51,58.2582 -6.53,-28.25 -28.34,-54.1215 -66.63,-62.3637 -0.11,-0.0391 42.83,41.3987 42.83,41.3987" /><path
         id="path56"
         style="fill:#555860;fill-opacity:1;fill-rule:nonzero;stroke:none"
         d="m 1534.2,142 -44.21,-39.941 c 7.13,30.449 28.48,54.011 66.62,62.222 -4.64,-28.543 -25.37,-56.414 -63.1,-66.8826 C 1493.4,97.3398 1534.2,142 1534.2,142" /><path
         id="path58"
         style="fill:#555860;fill-opacity:1;fill-rule:nonzero;stroke:none"
         d="m 1357.32,21.8984 -43.41,39.1133 c 6.5,-30.3242 27.38,-53.49607 65.38,-61.01560625 C 1375.21,28.4414 1356.98,55.0625 1319.47,64.8594 c -0.12,0.039 37.85,-42.961 37.85,-42.961" /><path
         id="path60"
         style="fill:#555860;fill-opacity:1;fill-rule:nonzero;stroke:none"
         d="m 1465.45,30.0742 -54.43,24.1992 c 16.2,-26.7109 43.85,-42.4687 82.65,-38.3984 -13.29,25.6836 -40.75,45.2656 -79.85,43.4688 -0.13,0 51.63,-29.2696 51.63,-29.2696" /><path
         id="path62"
         style="fill:#555860;fill-opacity:1;fill-rule:nonzero;stroke:none"
         d="m 1551.39,61.9297 -57.4,10.832 c 19.52,-21.875 49.48,-29.8945 87,-18.789 -16.5,21.4804 -47.3,33.5351 -85.42,24.5078 -0.13,0 55.82,-16.5508 55.82,-16.5508" /><path
         id="path64"
         style="fill:#555860;fill-opacity:1;fill-rule:nonzero;stroke:none"
         d="m 1612.79,136.313 -56.63,-21.883 c 18.15,26.23 47.39,40.449 85.84,35.273 -15.11,-25.281 -44.27,-44.324 -83.19,-41.418 -0.15,0 53.98,28.028 53.98,28.028" /><path
         id="path66"
         style="fill:#555860;fill-opacity:1;fill-rule:nonzero;stroke:none"
         d="M 1268.88,91.9297 1259.97,84 c 0,0 45.94,-29.2695 165.64,-14.8164 79.74,9.6211 129.05,40.5004 128.41,40.4214 -38.81,-15.0308 -102.05,-38.2144 -170.13,-35.7612 -68.03,2.4531 -85.24,4.875 -115.01,18.0859" /></g></g></svg>