<?xml version="1.0" encoding="utf-8"?>
<!-- Generator: Adobe Illustrator 20.1.0, SVG Export Plug-In . SVG Version: 6.00 Build 0)  -->
<svg version="1.1" id="Layer_2" xmlns="http://www.w3.org/2000/svg" xmlns:xlink="http://www.w3.org/1999/xlink" x="0px" y="0px"
	 viewBox="0 0 177 71" style="enable-background:new 0 0 177 71;" xml:space="preserve">
<style type="text/css">
	.st0{fill:none;}
	.st1{fill:#FFFFFF;}
</style>
<rect class="st0" width="177" height="71"/>
<g>
	<path class="st1" d="M50.5,44.2l4.7,2.3c-1.3-2.3-3.5-3.9-6.9-3.6c1.1,2.3,3.2,3.9,6.4,3.9C54.5,46.8,50.5,44.2,50.5,44.2z"/>
	<path class="st1" d="M43.2,43.2l4,3.2c-0.8-2.6-2.7-4.4-6-4.8c0.6,2.4,2.4,4.7,5.6,5.3C46.7,46.8,43.2,43.2,43.2,43.2z"/>
	<path class="st1" d="M36.4,42l3.7,3.4c-0.6-2.6-2.4-4.7-5.6-5.3c0.3,2.4,2.3,4.8,5.3,5.6L36.4,42z"/>
	<path class="st1" d="M51.4,52.1l3.7-3.2c-0.6,2.6-2.3,4.5-5.5,5.2c0.3-2.4,1.9-4.7,5.2-5.5C54.6,48.6,51.4,52.1,51.4,52.1z"/>
	<path class="st1" d="M42.2,51.5l4.7-2.1c-1.5,2.3-3.7,3.6-6.9,3.2c1.1-2.3,3.5-3.9,6.8-3.7C46.6,49.1,42.2,51.5,42.2,51.5z"/>
	<path class="st1" d="M35,48.7l4.8-1c-1.8,1.9-4.2,2.6-7.4,1.6c1.5-1.8,4-2.7,7.3-2.1L35,48.7z"/>
	<path class="st1" d="M29.8,42.4l4.8,1.9c-1.5-2.3-4-3.4-7.3-3.1c1.3,2.1,3.9,3.9,7.1,3.6L29.8,42.4z"/>
	<path class="st1" d="M58.8,46.3l0.8,0.6c0,0-3.9,2.6-14,1.3c-6.8-0.8-11-3.4-11-3.4c3.2,1.3,8.7,3.2,14.3,3.1
		C54.8,47.6,56.4,47.4,58.8,46.3z"/>
	<path class="st1" d="M126.7,44.2l-4.7,2.3c1.3-2.3,3.5-3.9,6.9-3.6c-1.1,2.3-3.2,3.9-6.4,3.9C122.7,46.8,126.7,44.2,126.7,44.2z"/>
	<path class="st1" d="M134,43.2l-4,3.2c0.8-2.6,2.7-4.4,6-4.8c-0.6,2.4-2.4,4.7-5.6,5.3L134,43.2z"/>
	<path class="st1" d="M140.7,42l-3.7,3.4c0.6-2.6,2.4-4.7,5.6-5.3c-0.3,2.4-2.3,4.8-5.3,5.6L140.7,42z"/>
	<path class="st1" d="M125.7,52.1l-3.7-3.2c0.6,2.6,2.3,4.5,5.5,5.2c-0.3-2.4-1.9-4.7-5.2-5.5C122.5,48.6,125.7,52.1,125.7,52.1z"/>
	<path class="st1" d="M134.8,51.5l-4.7-2.1c1.5,2.3,3.7,3.6,6.9,3.2c-1.1-2.3-3.5-3.9-6.8-3.7C130.4,49.1,134.8,51.5,134.8,51.5z"/>
	<path class="st1" d="M142.2,48.7l-4.8-1c1.8,1.9,4.2,2.6,7.4,1.6c-1.5-1.8-4-2.7-7.3-2.1L142.2,48.7z"/>
	<path class="st1" d="M147.3,42.4l-4.8,1.9c1.5-2.3,4-3.4,7.3-3.1c-1.3,2.1-3.9,3.9-7.1,3.6L147.3,42.4z"/>
	<path class="st1" d="M118.3,46.3l-0.8,0.6c0,0,3.9,2.6,14,1.3c6.8-0.8,11-3.4,11-3.4c-3.2,1.3-8.7,3.2-14.3,3.1
		C122.2,47.6,120.7,47.4,118.3,46.3z"/>
	<path class="st1" d="M18.2,18.2h7.3l2.7,11l2.7-11h7.3V36h-4.4V22.4L30.3,36h-4l-3.5-13.6V36h-4.5L18.2,18.2L18.2,18.2z"/>
	<path class="st1" d="M52.7,33.1h-6.3l-1,2.9h-5.6l6.8-17.8h6L59.3,36h-5.8L52.7,33.1z M51.7,29.2l-1.9-6.5l-1.9,6.5H51.7z"/>
	<path class="st1" d="M61.1,18.2h9.2c1.9,0,3.5,0.5,4.5,1.5s1.5,2.3,1.5,4c0,1.8-0.5,3.2-1.6,4.2s-2.7,1.5-5,1.5h-3.1V36h-5.3
		L61.1,18.2L61.1,18.2L61.1,18.2z M66.7,25.8h1.5c1.1,0,1.8-0.2,2.3-0.6c0.3-0.3,0.6-0.8,0.6-1.5s-0.2-1-0.6-1.5
		c-0.3-0.3-1.1-0.6-2.1-0.6h-1.6v4.2H66.7z"/>
	<path class="st1" d="M88.7,33.1h-6.3l-1,2.9h-5.6l6.8-17.8h6L95.3,36h-5.8L88.7,33.1z M87.5,29.2l-1.9-6.5l-1.9,6.5H87.5z"/>
	<path class="st1" d="M109.3,19.7c5.3,0.6,8.1,3.1,8.1,7.3c0,4.4-2.7,6.8-8.1,7.3V36h-5v-2c-5.3-0.5-8.1-2.9-8.1-7.3
		s2.7-6.8,8.1-7.3v-1.5h5V19.7z M104.3,30.5v-7.4c-0.8,0.2-1.5,0.6-1.9,1.5c-0.5,0.6-0.8,1.5-0.8,2.4c0,0.8,0.2,1.6,0.6,2.3
		C102.6,30,103.3,30.2,104.3,30.5z M109.3,30.5c1-0.3,1.5-0.6,1.9-1.3c0.5-0.6,0.6-1.5,0.6-2.3s-0.2-1.6-0.6-2.3
		c-0.4-0.7-1.1-1.1-1.9-1.5V30.5z"/>
	<path class="st1" d="M120.3,27.1c0-2.9,0.8-5.2,2.4-6.8c1.6-1.6,3.9-2.4,6.8-2.4c3.1,0,5.3,0.8,6.9,2.4s2.4,3.9,2.4,6.8
		c0,2.1-0.3,3.9-1.1,5.2c-0.6,1.3-1.8,2.4-3.1,3.1c-1.3,0.6-3.1,1.1-5,1.1s-3.7-0.3-5-1c-1.3-0.6-2.4-1.8-3.2-3.1
		C120.6,31,120.3,29.2,120.3,27.1z M125.7,27.1c0,1.8,0.3,3.1,1,3.9c0.6,0.8,1.6,1.1,2.7,1.1c1.1,0,2.1-0.3,2.7-1.1
		c0.6-0.8,1-2.3,1-4c0-1.8-0.3-2.9-1-3.7c-0.6-0.8-1.6-1.1-2.7-1.1c-1.1,0-1.9,0.3-2.7,1.1C126.2,24,125.7,25.3,125.7,27.1z"/>
	<path class="st1" d="M142,18.2h5.5v6.1h6v-6.1h5.5V36h-5.5v-7.3h-6V36H142V18.2z"/>
	<path class="st1" d="M74,46h1.6c1.5,0,2.6,0.3,3.2,0.8s1.1,1.3,1.1,2.4c0,1-0.3,1.6-1,2.1c-0.6,0.5-1.6,0.6-2.7,0.6H71v-9.8h8.2V44
		H74V46L74,46z M74,50h1.6c1,0,1.5-0.3,1.5-1c0-0.6-0.5-1-1.5-1H74V50z"/>
	<path class="st1" d="M84.6,42.3h8.1v2.1h-5.2V46h4.7v1.9h-4.7v1.9h5.2v2.3h-8.2L84.6,42.3L84.6,42.3z"/>
	<path class="st1" d="M96.9,42.3h9.2v2.4H103v7.4h-3.1v-7.4h-3.1L96.9,42.3L96.9,42.3z"/>
</g>
</svg>
