<?xml version="1.0" encoding="UTF-8" standalone="no"?>
<svg
   xmlns:dc="http://purl.org/dc/elements/1.1/"
   xmlns:cc="http://creativecommons.org/ns#"
   xmlns:rdf="http://www.w3.org/1999/02/22-rdf-syntax-ns#"
   xmlns:svg="http://www.w3.org/2000/svg"
   xmlns="http://www.w3.org/2000/svg"
   viewBox="0 0 221.26666 55.373333"
   height="55.373333"
   width="221.26666"
   xml:space="preserve"
   id="svg2"
   version="1.1"><metadata
     id="metadata8"><rdf:RDF><cc:Work
         rdf:about=""><dc:format>image/svg+xml</dc:format><dc:type
           rdf:resource="http://purl.org/dc/dcmitype/StillImage" /></cc:Work></rdf:RDF></metadata><defs
     id="defs6" /><g
     transform="matrix(1.3333333,0,0,-1.3333333,0,55.373333)"
     id="g10"><g
       transform="scale(0.1)"
       id="g12"><path
         id="path14"
         style="fill:#55595f;fill-opacity:1;fill-rule:nonzero;stroke:none"
         d="m 378.742,115.348 53.926,-27.1371 c -15.684,27.6051 -42.992,44.8121 -81.848,42.8521 12.778,-26.387 37.828,-45.8794 76.938,-46.1724 0.129,-0.0234 -49.016,30.4574 -49.016,30.4574" /><path
         id="path16"
         style="fill:#55595f;fill-opacity:1;fill-rule:nonzero;stroke:none"
         d="m 293.934,126.637 46.718,-37.2932 c -9.097,30.0082 -31.953,52.2732 -70.519,58.2612 6.523,-28.253 28.344,-54.1206 66.637,-62.3667 0.113,-0.0391 -42.836,41.3987 -42.836,41.3987" /><path
         id="path18"
         style="fill:#55595f;fill-opacity:1;fill-rule:nonzero;stroke:none"
         d="m 214.527,141.996 44.196,-39.937 c -7.114,30.449 -28.477,54.011 -66.618,62.222 4.665,-28.543 25.368,-56.414 63.118,-66.8826 0.105,-0.0586 -40.696,44.5976 -40.696,44.5976" /><path
         id="path20"
         style="fill:#55595f;fill-opacity:1;fill-rule:nonzero;stroke:none"
         d="m 391.398,21.9023 43.418,39.1094 C 428.305,30.6914 407.414,7.51563 369.445,-0.00390625 373.504,28.4453 391.73,55.0664 429.246,64.8594 c 0.125,0.039 -37.848,-42.9571 -37.848,-42.9571" /><path
         id="path22"
         style="fill:#55595f;fill-opacity:1;fill-rule:nonzero;stroke:none"
         d="m 283.277,30.0742 54.418,24.1992 C 321.492,27.5664 293.867,11.8047 255.043,15.875 c 13.285,25.6836 40.746,45.2656 79.852,43.4688 0.136,0 -51.618,-29.2696 -51.618,-29.2696" /><path
         id="path24"
         style="fill:#55595f;fill-opacity:1;fill-rule:nonzero;stroke:none"
         d="m 197.332,61.9297 57.406,10.832 c -19.531,-21.875 -49.48,-29.8945 -86.996,-18.789 16.492,21.4804 47.278,33.5351 85.403,24.5117 0.136,0 -55.813,-16.5547 -55.813,-16.5547" /><path
         id="path26"
         style="fill:#55595f;fill-opacity:1;fill-rule:nonzero;stroke:none"
         d="m 135.938,136.316 56.609,-21.886 c -18.141,26.23 -47.379,40.449 -85.836,35.273 15.137,-25.281 44.297,-44.324 83.191,-41.418 0.153,0 -53.964,28.031 -53.964,28.031" /><path
         id="path28"
         style="fill:#55595f;fill-opacity:1;fill-rule:nonzero;stroke:none"
         d="M 479.832,91.9297 488.742,84 c 0,0 -45.941,-29.2656 -165.637,-14.8125 -79.746,9.6172 -129.05,40.4965 -128.386,40.4175 38.808,-15.0308 102.031,-38.2105 170.105,-35.7612 68.035,2.4531 85.246,4.875 115.008,18.0859" /><path
         id="path30"
         style="fill:#55595f;fill-opacity:1;fill-rule:nonzero;stroke:none"
         d="m 1280.78,115.348 -53.92,-27.1371 c 15.69,27.6051 42.98,44.8121 81.84,42.8521 -12.78,-26.387 -37.83,-45.8794 -76.94,-46.1724 -0.13,-0.0234 49.02,30.4574 49.02,30.4574" /><path
         id="path32"
         style="fill:#55595f;fill-opacity:1;fill-rule:nonzero;stroke:none"
         d="m 1365.58,126.637 -46.71,-37.2932 c 9.11,30.0082 31.95,52.2732 70.51,58.2612 -6.52,-28.253 -28.34,-54.1206 -66.63,-62.3667 -0.11,-0.0391 42.83,41.3987 42.83,41.3987" /><path
         id="path34"
         style="fill:#55595f;fill-opacity:1;fill-rule:nonzero;stroke:none"
         d="m 1445.01,141.996 -44.21,-39.937 c 7.13,30.449 28.46,54.011 66.62,62.222 -4.66,-28.543 -25.38,-56.414 -63.11,-66.8826 -0.1,-0.0586 40.7,44.5976 40.7,44.5976" /><path
         id="path36"
         style="fill:#55595f;fill-opacity:1;fill-rule:nonzero;stroke:none"
         d="m 1268.11,21.9023 -43.41,39.1094 c 6.51,-30.3203 27.4,-53.49607 65.38,-61.01560625 C 1286.01,28.4453 1267.78,55.0664 1230.27,64.8594 c -0.12,0.039 37.84,-42.9571 37.84,-42.9571" /><path
         id="path38"
         style="fill:#55595f;fill-opacity:1;fill-rule:nonzero;stroke:none"
         d="m 1376.26,30.0742 -54.45,24.1992 c 16.21,-26.707 43.85,-42.4687 82.66,-38.3984 -13.28,25.6836 -40.74,45.2656 -79.85,43.4688 -0.13,0 51.64,-29.2696 51.64,-29.2696" /><path
         id="path40"
         style="fill:#55595f;fill-opacity:1;fill-rule:nonzero;stroke:none"
         d="m 1462.19,61.9297 -57.41,10.832 c 19.52,-21.875 49.48,-29.8945 87.01,-18.789 -16.49,21.4804 -47.3,33.5351 -85.43,24.5117 -0.12,0 55.83,-16.5547 55.83,-16.5547" /><path
         id="path42"
         style="fill:#55595f;fill-opacity:1;fill-rule:nonzero;stroke:none"
         d="m 1523.59,136.316 -56.62,-21.886 c 18.13,26.23 47.37,40.449 85.83,35.273 -15.12,-25.281 -44.28,-44.324 -83.19,-41.418 -0.14,0 53.98,28.031 53.98,28.031" /><path
         id="path44"
         style="fill:#55595f;fill-opacity:1;fill-rule:nonzero;stroke:none"
         d="M 1179.68,91.9297 1170.77,84 c 0,0 45.95,-29.2656 165.63,-14.8125 79.76,9.6172 129.06,40.4965 128.41,40.4175 C 1426,94.5742 1362.76,71.3945 1294.68,73.8438 c -68.01,2.4531 -85.23,4.875 -115,18.0859" /><path
         id="path46"
         style="fill:#d52836;fill-opacity:1;fill-rule:nonzero;stroke:none"
         d="M 0,411.77 H 85.1836 L 118.035,284.227 150.652,411.77 h 85.129 V 202.148 h -53.047 v 159.86 L 141.863,202.148 H 93.8438 L 53.0469,362.008 V 202.148 H 0 V 411.77" /><path
         id="path48"
         style="fill:#d52836;fill-opacity:1;fill-rule:nonzero;stroke:none"
         d="m 392.543,282.082 -23.137,75.352 -22.894,-75.352 z m 13.434,-45.328 H 332.441 L 322.223,202.148 H 256.09 l 78.785,209.622 h 70.648 l 78.77,-209.622 h -67.824 l -10.492,34.606" /><path
         id="path50"
         style="fill:#d52836;fill-opacity:1;fill-rule:nonzero;stroke:none"
         d="m 569.66,322.402 h 15.867 c 12.489,0 21.258,2.164 26.313,6.504 5.051,4.336 7.578,9.891 7.578,16.66 0,6.579 -2.195,12.157 -6.578,16.731 -4.387,4.574 -12.633,6.859 -24.738,6.859 H 569.66 Z M 504.602,411.77 H 612.27 c 23.449,0 41.007,-5.579 52.687,-16.731 11.676,-11.152 17.516,-27.023 17.516,-47.617 0,-21.16 -6.364,-37.699 -19.086,-49.613 -12.727,-11.918 -32.149,-17.875 -58.27,-17.875 H 569.66 V 202.148 H 504.602 V 411.77" /><path
         id="path52"
         style="fill:#d52836;fill-opacity:1;fill-rule:nonzero;stroke:none"
         d="M 831.801,282.082 808.66,357.434 785.766,282.082 Z M 845.23,236.754 H 771.695 L 761.48,202.148 h -66.136 l 78.785,209.622 h 70.652 l 78.77,-209.622 h -67.832 l -10.489,34.606" /><path
         id="path54"
         style="fill:#d52836;fill-opacity:1;fill-rule:nonzero;stroke:none"
         d="m 1087.56,267.781 c 10.19,2.953 18.1,8.223 23.74,15.797 5.61,7.578 8.42,16.66 8.42,27.242 0,10.106 -2.88,19.18 -8.64,27.239 -5.77,8.054 -13.61,13.699 -23.52,16.941 z m -58.91,-0.574 v 86.652 c -9.64,-2.765 -17.4,-8.222 -23.31,-16.371 -5.91,-8.152 -8.867,-17.422 -8.867,-27.812 0,-9.723 2.929,-18.446 8.797,-26.168 5.86,-7.723 13.65,-13.156 23.38,-16.301 z m 58.91,128.547 c 63.67,-6.676 95.51,-35.27 95.51,-85.793 0,-51.57 -31.84,-80.262 -95.51,-86.078 v -21.735 h -58.91 v 22.305 c -63.584,5.438 -95.38,33.938 -95.38,85.508 0,50.617 31.796,79.215 95.38,85.793 v 16.016 h 58.91 v -16.016" /><path
         id="path56"
         style="fill:#d52836;fill-opacity:1;fill-rule:nonzero;stroke:none"
         d="m 1271.3,306.531 c 0,-21.164 3.92,-36.371 11.79,-45.613 7.86,-9.246 18.57,-13.871 32.1,-13.871 13.92,0 24.69,4.527 32.32,13.586 7.62,9.055 11.43,25.305 11.43,48.758 0,19.73 -3.98,34.152 -11.93,43.254 -7.97,9.101 -18.76,13.656 -32.39,13.656 -13.06,0 -23.55,-4.629 -31.46,-13.871 -7.91,-9.25 -11.86,-24.547 -11.86,-45.899 z m -64.78,0.285 c 0,34.219 9.53,60.86 28.59,79.93 19.07,19.067 45.62,28.598 79.65,28.598 34.89,0 61.77,-9.367 80.65,-28.098 18.87,-18.73 28.31,-44.969 28.31,-78.715 0,-24.5 -4.12,-44.59 -12.38,-60.269 -8.24,-15.684 -20.15,-27.879 -35.74,-36.606 -15.58,-8.718 -35.01,-13.082 -58.27,-13.082 -23.64,0 -43.2,3.766 -58.69,11.293 -15.49,7.531 -28.05,19.449 -37.68,35.75 -9.63,16.305 -14.44,36.699 -14.44,61.199" /><path
         id="path58"
         style="fill:#d52836;fill-opacity:1;fill-rule:nonzero;stroke:none"
         d="m 1458.89,411.77 h 64.78 v -73.356 h 70.77 v 73.356 h 65.06 V 202.148 h -65.06 v 84.793 h -70.77 v -84.793 h -64.78 V 411.77" /><path
         id="path60"
         style="fill:#192948;fill-opacity:1;fill-rule:nonzero;stroke:none"
         d="m 657.84,48.1328 h 18.473 c 11.3,0 16.953,4.082 16.953,12.2539 0,7.168 -5.653,10.7539 -16.953,10.7539 H 657.84 Z m 0,46.6485 h 19.265 c 17.672,0 30.782,-3.125 39.329,-9.3555 8.543,-6.2383 12.812,-15.9375 12.812,-29.1016 0,-10.7695 -3.91,-19.0117 -11.738,-24.7148 -7.832,-5.7031 -19.07,-8.5547 -33.719,-8.5547 H 621.855 V 139.754 h 98.239 V 116.109 H 657.84 V 94.7813" /><path
         id="path62"
         style="fill:#192948;fill-opacity:1;fill-rule:nonzero;stroke:none"
         d="m 783.426,139.754 h 96.64 V 114.84 h -60.5 V 96.2969 h 56.125 V 72.4883 H 819.566 V 49.4805 h 62.258 V 23.0547 H 783.426 V 139.754" /><path
         id="path64"
         style="fill:#192948;fill-opacity:1;fill-rule:nonzero;stroke:none"
         d="m 928.035,139.754 h 109.615 v -28.82 h -36.77 V 23.0547 h -36.067 v 87.8793 h -36.778 v 28.82" /></g></g></svg>