<?xml version="1.0" encoding="UTF-8" standalone="no"?>
<svg
   xmlns:dc="http://purl.org/dc/elements/1.1/"
   xmlns:cc="http://creativecommons.org/ns#"
   xmlns:rdf="http://www.w3.org/1999/02/22-rdf-syntax-ns#"
   xmlns:svg="http://www.w3.org/2000/svg"
   xmlns="http://www.w3.org/2000/svg"
   viewBox="0 0 384.94666 58.506668"
   height="58.506668"
   width="384.94666"
   xml:space="preserve"
   id="svg2"
   version="1.1"><metadata
     id="metadata8"><rdf:RDF><cc:Work
         rdf:about=""><dc:format>image/svg+xml</dc:format><dc:type
           rdf:resource="http://purl.org/dc/dcmitype/StillImage" /></cc:Work></rdf:RDF></metadata><defs
     id="defs6" /><g
     transform="matrix(1.3333333,0,0,-1.3333333,0,58.506667)"
     id="g10"><g
       transform="scale(0.1)"
       id="g12"><path
         id="path14"
         style="fill:#ce2232;fill-opacity:1;fill-rule:nonzero;stroke:none"
         d="m 0,425.555 h 85.0625 l 32.8045,-127.364 32.571,127.364 h 85.011 V 216.234 H 182.477 V 375.867 L 141.66,216.234 H 93.7148 L 52.9727,375.867 V 216.234 H 0 v 209.321" /><path
         id="path16"
         style="fill:#ce2232;fill-opacity:1;fill-rule:nonzero;stroke:none"
         d="m 391.988,296.055 -23.105,75.242 -22.863,-75.242 z m 13.41,-45.266 h -73.425 l -10.207,-34.555 h -66.039 l 78.671,209.321 h 70.551 l 78.66,-209.321 h -67.734 l -10.477,34.555" /><path
         id="path18"
         style="fill:#ce2232;fill-opacity:1;fill-rule:nonzero;stroke:none"
         d="m 569.988,340.746 h 27.278 c 2.949,0 8.656,0.953 17.132,2.852 4.282,0.859 7.778,3.047 10.493,6.57 2.714,3.523 4.07,7.566 4.07,12.137 0,6.758 -2.141,11.945 -6.422,15.566 -4.289,3.613 -12.328,5.422 -24.133,5.422 H 569.988 Z M 505.023,216.234 v 209.321 h 107.805 c 19.988,0 35.266,-1.707 45.832,-5.137 10.567,-3.426 19.082,-9.781 25.559,-19.063 6.472,-9.281 9.711,-20.585 9.711,-33.91 0,-11.613 -2.481,-21.632 -7.43,-30.058 -4.953,-8.422 -11.766,-15.254 -20.43,-20.489 -5.523,-3.332 -13.097,-6.089 -22.715,-8.281 7.704,-2.574 13.313,-5.148 16.836,-7.719 2.375,-1.71 5.825,-5.382 10.344,-11.003 4.52,-5.625 7.539,-9.954 9.059,-13 l 31.324,-60.661 h -73.082 l -34.574,63.969 c -4.379,8.281 -8.282,13.656 -11.711,16.133 -4.66,3.238 -9.946,4.859 -15.848,4.859 h -5.715 v -84.961 h -64.965" /><path
         id="path20"
         style="fill:#ce2232;fill-opacity:1;fill-rule:nonzero;stroke:none"
         d="m 846.895,296.055 -23.106,75.242 -22.863,-75.242 z m 13.418,-45.266 h -73.434 l -10.203,-34.555 h -66.043 l 78.672,209.321 h 70.558 l 78.653,-209.321 h -67.731 l -10.472,34.555" /><path
         id="path22"
         style="fill:#ce2232;fill-opacity:1;fill-rule:nonzero;stroke:none"
         d="m 924.238,425.555 h 196.612 v -51.684 h -65.97 V 216.234 h -64.677 v 157.637 h -65.965 v 51.684" /><path
         id="path24"
         style="fill:#ce2232;fill-opacity:1;fill-rule:nonzero;stroke:none"
         d="m 1150.41,425.555 h 64.68 v -73.246 h 70.67 v 73.246 h 64.97 V 216.234 h -64.97 v 84.672 h -70.67 v -84.672 h -64.68 v 209.321" /><path
         id="path26"
         style="fill:#ce2232;fill-opacity:1;fill-rule:nonzero;stroke:none"
         d="m 1450.25,320.469 c 0,-21.133 3.93,-36.317 11.78,-45.547 7.85,-9.234 18.54,-13.848 32.06,-13.848 13.9,0 24.65,4.52 32.27,13.563 7.61,9.043 11.42,25.269 11.42,48.687 0,19.707 -3.97,34.102 -11.92,43.192 -7.95,9.093 -18.73,13.632 -32.34,13.632 -13.04,0 -23.51,-4.613 -31.42,-13.847 -7.9,-9.231 -11.85,-24.512 -11.85,-45.832 z m -64.67,0.285 c 0,34.172 9.51,60.777 28.55,79.816 19.03,19.039 45.55,28.559 79.53,28.559 34.84,0 61.68,-9.356 80.53,-28.063 18.85,-18.699 28.27,-44.902 28.27,-78.597 0,-24.469 -4.12,-44.528 -12.35,-60.184 -8.24,-15.66 -20.13,-27.844 -35.7,-36.555 -15.56,-8.71 -34.96,-13.066 -58.18,-13.066 -23.6,0 -43.14,3.762 -58.61,11.285 -15.47,7.52 -28.01,19.418 -37.63,35.692 -9.61,16.281 -14.41,36.652 -14.41,61.113" /><path
         id="path28"
         style="fill:#ce2232;fill-opacity:1;fill-rule:nonzero;stroke:none"
         d="m 1637.72,425.555 h 60.4 l 78.82,-115.805 v 115.805 h 60.97 V 216.234 h -60.97 l -78.39,114.938 V 216.234 h -60.83 v 209.321" /><path
         id="path30"
         style="fill:#16243e;fill-opacity:1;fill-rule:nonzero;stroke:none"
         d="m 750.668,62.3242 h 18.246 c 6.164,0 10.504,1.0899 13.035,3.2813 2.528,2.1836 3.789,5.1172 3.789,8.8047 0,3.4179 -1.25,6.1757 -3.75,8.2539 -2.5,2.0781 -6.886,3.1172 -13.152,3.1172 h -18.168 z m 0,45.4958 h 15.562 c 5.583,0 9.461,0.957 11.649,2.879 2.184,1.926 3.277,4.699 3.277,8.344 0,3.367 -1.093,5.992 -3.277,7.891 -2.188,1.89 -5.988,2.839 -11.41,2.839 h -15.801 z m -36.094,45.422 h 66.977 c 11.164,0 19.734,-2.765 25.711,-8.301 5.976,-5.531 8.965,-12.375 8.965,-20.539 0,-6.836 -2.129,-12.714 -6.399,-17.605 -2.84,-3.262 -7,-5.852 -12.48,-7.7462 8.32,-2 14.445,-5.4297 18.363,-10.3047 3.922,-4.8711 5.887,-10.9922 5.887,-18.3672 0,-5.9961 -1.395,-11.3945 -4.188,-16.1914 -2.793,-4.7852 -6.605,-8.582 -11.453,-11.3672 -3,-1.7383 -7.531,-3.0078 -13.586,-3.7969 -8.055,-1.0468 -13.398,-1.5742 -16.027,-1.5742 h -61.77 V 153.242" /><path
         id="path32"
         style="fill:#16243e;fill-opacity:1;fill-rule:nonzero;stroke:none"
         d="m 869.867,153.242 h 95.883 v -24.726 h -60.027 v -18.399 h 55.683 V 86.4922 H 905.723 V 63.6719 h 61.765 V 37.4492 H 869.867 V 153.242" /><path
         id="path34"
         style="fill:#16243e;fill-opacity:1;fill-rule:nonzero;stroke:none"
         d="m 1014.58,153.242 h 108.76 v -28.594 h -36.49 V 37.4492 h -35.79 v 87.1988 h -36.48 v 28.594" /><path
         id="path36"
         style="fill:#555860;fill-opacity:1;fill-rule:nonzero;stroke:none"
         d="m 467.938,129.285 53.925,-27.137 c -15.683,27.606 -42.992,44.813 -81.843,42.848 12.773,-26.383 37.828,-45.8788 76.933,-46.1718 0.137,-0.0156 -49.015,30.4608 -49.015,30.4608" /><path
         id="path38"
         style="fill:#555860;fill-opacity:1;fill-rule:nonzero;stroke:none"
         d="m 383.129,140.574 46.719,-37.293 c -9.098,30.008 -31.953,52.274 -70.516,58.262 6.523,-28.254 28.344,-54.121 66.641,-62.3633 0.105,-0.0391 -42.844,41.3943 -42.844,41.3943" /><path
         id="path40"
         style="fill:#555860;fill-opacity:1;fill-rule:nonzero;stroke:none"
         d="m 303.727,155.938 44.199,-39.946 c -7.117,30.453 -28.477,54.016 -66.621,62.231 4.66,-28.547 25.363,-56.418 63.113,-66.887 0.109,-0.059 -40.691,44.602 -40.691,44.602" /><path
         id="path42"
         style="fill:#555860;fill-opacity:1;fill-rule:nonzero;stroke:none"
         d="m 480.594,35.8398 43.418,39.1094 C 517.5,44.6289 496.617,21.4531 458.641,13.9336 c 4.062,28.4492 22.285,55.0703 59.8,64.8633 0.129,0.039 -37.847,-42.9571 -37.847,-42.9571" /><path
         id="path44"
         style="fill:#555860;fill-opacity:1;fill-rule:nonzero;stroke:none"
         d="m 372.477,44.0117 54.418,24.1992 c -16.207,-26.707 -43.829,-42.4687 -82.657,-38.3984 13.285,25.6836 40.75,45.2617 79.852,43.4688 0.137,0 -51.613,-29.2696 -51.613,-29.2696" /><path
         id="path46"
         style="fill:#555860;fill-opacity:1;fill-rule:nonzero;stroke:none"
         d="m 286.531,75.8672 57.403,10.832 c -19.532,-21.875 -49.481,-29.8945 -86.996,-18.789 16.496,21.4843 47.281,33.5348 85.406,24.5117 0.136,0 -55.813,-16.5547 -55.813,-16.5547" /><path
         id="path48"
         style="fill:#555860;fill-opacity:1;fill-rule:nonzero;stroke:none"
         d="m 225.141,150.254 56.601,-21.887 c -18.133,26.231 -47.379,40.449 -85.836,35.274 15.137,-25.282 44.297,-44.325 83.196,-41.414 0.152,0 -53.961,28.027 -53.961,28.027" /><path
         id="path50"
         style="fill:#555860;fill-opacity:1;fill-rule:nonzero;stroke:none"
         d="m 569.027,105.867 8.911,-7.9295 c 0,0 -45.938,-29.2656 -165.633,-14.8164 -79.742,9.6211 -129.055,40.4999 -128.391,40.4219 38.809,-15.027 102.039,-38.2149 170.109,-35.7617 68.032,2.4531 85.243,4.875 115.004,18.0857" /><path
         id="path52"
         style="fill:#555860;fill-opacity:1;fill-rule:nonzero;stroke:none"
         d="m 1369.98,129.285 -53.92,-27.137 c 15.69,27.606 42.98,44.813 81.84,42.848 -12.77,-26.383 -37.84,-45.8788 -76.93,-46.1718 -0.15,-0.0156 49.01,30.4608 49.01,30.4608" /><path
         id="path54"
         style="fill:#555860;fill-opacity:1;fill-rule:nonzero;stroke:none"
         d="m 1454.78,140.574 -46.71,-37.293 c 9.11,30.008 31.94,52.274 70.5,58.262 -6.51,-28.254 -28.34,-54.121 -66.62,-62.3633 -0.1,-0.0391 42.83,41.3943 42.83,41.3943" /><path
         id="path56"
         style="fill:#555860;fill-opacity:1;fill-rule:nonzero;stroke:none"
         d="M 1534.2,155.938 1490,115.992 c 7.12,30.453 28.47,54.016 66.62,62.231 -4.66,-28.547 -25.38,-56.418 -63.11,-66.887 -0.11,-0.059 40.69,44.602 40.69,44.602" /><path
         id="path58"
         style="fill:#555860;fill-opacity:1;fill-rule:nonzero;stroke:none"
         d="m 1357.31,35.8398 -43.4,39.1094 c 6.5,-30.3203 27.39,-53.4961 65.38,-61.0156 -4.09,28.4492 -22.31,55.0703 -59.83,64.8633 -0.11,0.039 37.85,-42.9571 37.85,-42.9571" /><path
         id="path60"
         style="fill:#555860;fill-opacity:1;fill-rule:nonzero;stroke:none"
         d="m 1465.46,44.0117 -54.44,24.1992 c 16.2,-26.707 43.84,-42.4687 82.65,-38.3984 -13.29,25.6836 -40.75,45.2617 -79.85,43.4688 -0.13,0 51.64,-29.2696 51.64,-29.2696" /><path
         id="path62"
         style="fill:#555860;fill-opacity:1;fill-rule:nonzero;stroke:none"
         d="m 1551.39,75.8672 -57.41,10.832 c 19.53,-21.875 49.49,-29.8945 87.01,-18.789 -16.5,21.4843 -47.3,33.5348 -85.42,24.5117 -0.13,0 55.82,-16.5547 55.82,-16.5547" /><path
         id="path64"
         style="fill:#555860;fill-opacity:1;fill-rule:nonzero;stroke:none"
         d="m 1612.79,150.254 -56.62,-21.887 c 18.14,26.231 47.37,40.449 85.83,35.274 -15.12,-25.282 -44.28,-44.325 -83.19,-41.414 -0.15,0 53.98,28.027 53.98,28.027" /><path
         id="path66"
         style="fill:#555860;fill-opacity:1;fill-rule:nonzero;stroke:none"
         d="m 1268.88,105.867 -8.91,-7.9295 c 0,0 45.94,-29.2656 165.64,-14.8164 79.75,9.6211 129.05,40.4999 128.4,40.4219 -38.81,-15.027 -102.05,-38.2149 -170.12,-35.7617 -68.02,2.4531 -85.24,4.875 -115.01,18.0857" /><path
         id="path68"
         style="fill:#16243e;fill-opacity:1;fill-rule:nonzero;stroke:none"
         d="m 2284.43,324.629 c -0.11,-0.074 -0.22,-0.164 -0.33,-0.266 -0.58,-0.55 -0.89,-1.324 -1.15,-2.074 -6.11,-17.203 -9.57,-35.48 -12.66,-53.469 -3.07,-17.972 -5.52,-36.054 -7.69,-54.152 -0.93,-7.434 -1.37,-14.844 -1.42,-22.324 -0.01,-0.598 0.03,-1.281 0.51,-1.645 0.33,-0.242 0.78,-0.25 1.19,-0.23 3.44,0.183 7.91,2.539 10.83,4.441 2.87,1.867 5.28,4.356 7.29,7.121 4.57,6.309 7.17,13.93 9,21.438 3.59,14.785 4.3,30.195 4.3,45.355 0,0.364 0,0.727 0,1.09 -0.03,13.645 0.71,27.41 0.71,40.926 0,3.469 -0.54,7.23 -2.69,10.07 -1.29,1.711 -5.56,5.227 -7.89,3.719 z m -9.09,42.957 c 2.27,0.453 5.66,-0.074 7.65,-0.527 0.69,-0.157 1.37,-0.36 2.05,-0.567 5.9,-1.797 12.15,-2.91 18.14,-4.711 5.33,-1.605 10.62,-3.316 15.82,-5.269 6.5,-2.43 13.75,-5.106 19.04,-9.774 1.62,-1.433 3.34,-3.336 3.34,-5.636 -11.88,-65.688 -19.04,-108.481 -21.47,-128.368 h 1.72 c 38.78,9.582 60.18,14.379 64.18,14.379 13.25,0.004 26.46,-2.355 38.74,-7.355 12.91,-5.246 22.66,-11.293 29.77,-23.637 1.11,-1.922 2.18,-3.894 2.95,-5.984 7.54,-20.489 0.46,-42.297 -7.27,-61.621 -10.85,-27.121 -25.48,-51.9066 -41.09,-76.3012 -5.96,-9.3164 -15.96,-14.5976 -25.43,-19.9882 -6.31,-3.5938 -15.01,-8.8282 -22.56,-8.8282 -15.32,0 -40.3,24.4024 -74.92,73.2032 h 3.43 c 30.76,-19.0352 54.03,-28.5547 69.77,-28.5547 17.22,0 28.55,15.4375 35.64,29.3047 5.92,11.6014 10.03,24.1134 13.46,36.6404 4.16,15.246 8.8,32.043 6.09,47.918 -2.32,13.664 -16.88,20.531 -29.69,20.375 -26.92,-0.336 -61.63,-1.574 -78.47,-26.367 -4.83,-7.133 -12.97,-14.926 -22.17,-14.926 h -1.5 v 14.387 h -1.94 c -6.22,-2.098 -12.44,-4.199 -18.67,-6.301 -10.44,-3.523 -21.58,-8.765 -32.55,-10.172 -0.47,-0.058 -0.98,-0.109 -1.42,0.106 -0.4,0.187 -0.68,0.578 -0.91,0.957 -3.39,5.429 -4.29,13.84 -4.89,20.066 -1.34,13.879 2.52,25.649 6.3,38.762 3.37,11.691 6.51,23.445 9.22,35.308 0.78,3.368 9.24,51.364 7.3,51.364 h -1.72 c -9.18,0 -18.42,0.551 -27.45,2.265 -7.33,1.395 -16.89,3.438 -22.75,8.266 -2.26,1.852 -6.82,8.188 -3.92,11.039 1.53,1.508 9.14,1.527 11.44,2.051 8.06,1.848 15.93,4.547 23.54,7.808 10.4,4.454 20.35,9.926 29.88,16.032 4.77,3.054 9.44,6.269 14.02,9.597 1.92,1.403 4.32,4.047 6.54,4.848 0.23,0.086 0.49,0.152 0.76,0.211 z m 87.53,-202.012 c 7.46,0.313 16.42,-2.707 22.37,-5.664 6.82,-3.387 13.62,-9.676 10.42,-18.008 -1.17,-3.066 -3.68,-5.593 -6.73,-6.785 -2.46,-0.949 -5.15,-1.054 -7.78,-1.008 -15.81,0.301 -31.14,7.137 -47.07,7.137 h -17.82 c -0.85,0 -1.71,-0.016 -2.57,-0.035 -24.66,-0.793 -49.24,-9.914 -71.92,-18.828 -17.15,-6.738 -33.98,-14.309 -50.6,-22.258 -15.42,-7.3711 -35.53,-17.7734 -53.17,-11.7773 -2.27,0.7695 -4.42,1.8476 -6.47,3.0859 -2.32,1.3945 -4.55,3.0273 -6.26,5.1367 -5.19,6.4377 -5.02,15.1877 2.82,17.3247 3.46,0.949 7.1,1.496 10.62,2.257 12.22,2.625 24.42,5.321 36.63,8.016 56.52,12.512 112.98,25.203 169.45,37.922 4.57,1.023 9.05,1.492 13.51,2.793 1.43,0.41 2.96,0.625 4.57,0.691" /><path
         id="path70"
         style="fill:#16243e;fill-opacity:1;fill-rule:nonzero;stroke:none"
         d="m 2722.7,298.598 v -16.102 h 2.15 c 6.87,2.574 15.68,3.863 26.41,3.863 v -1.925 h 1.92 v 30.476 h -16.09 c -5.16,-3.004 -9.95,-8.441 -14.39,-16.312 z m -3.86,-46.582 v -10.305 c 18.75,4.152 30.19,6.227 34.34,6.227 v 26.402 c -19.89,0 -31.33,-7.442 -34.34,-22.324 z m -14.38,-75.133 v -8.153 l 38.64,3.856 v 2.363 l -8.16,12.024 v 10.086 c 9.31,0 14.74,3.437 16.32,10.304 -8.16,1.289 -12.24,3.293 -12.24,6.016 v 8.152 h 14.16 v 18.246 c -32.48,-13.879 -48.72,-34.847 -48.72,-62.894 z m -36.49,24.258 c 2.58,-13.457 3.86,-26.973 3.86,-40.575 0.85,0 8.37,1.368 22.53,4.082 v 7.938 c -9.44,15.168 -14.16,26.758 -14.16,34.777 -8.16,-1.425 -12.23,-3.508 -12.23,-6.222 z m 0,46.797 v -26.407 h 14.17 c 2.71,0 4.07,1.364 4.07,4.082 v 22.325 z m -4.08,46.796 v -22.539 l 1.93,-10.093 20.39,2.148 h 4.08 v 28.336 h -1.93 c -2.29,0 -10.45,0.719 -24.47,2.148 z m 34.56,144.039 h 16.1 c 8.15,-5.441 12.24,-16.886 12.24,-34.347 v -16.528 h 4.07 c 10.88,0 16.32,12.883 16.32,38.637 v 6.227 h 1.93 c 12.16,-1.86 18.24,-7.946 18.24,-18.246 v -26.618 h 16.32 c 2.72,-0.289 4.07,-1.578 4.07,-3.867 0,-10.015 -20.31,-20.894 -60.95,-32.625 v -18.035 h 4.07 c 3.44,0 11.59,2.004 24.47,6.012 h 1.94 c 16.35,0 26.84,-10.848 31.18,-25.953 2.7,-9.453 5.1,-21.926 2.08,-31.465 -1.65,-5.149 -3.45,-9.93 -4.72,-15.184 -1.08,-4.496 -2.51,-9.922 -2.39,-14.562 0.03,-0.957 0.32,-1.946 0.98,-2.629 0.89,-0.918 2.24,-1.125 3.34,-1.652 -2.71,-6.872 -4.07,-19.106 -4.07,-36.708 0,-9.289 0.12,-18.546 0.85,-27.804 0.03,-0.34 0.07,-0.703 0.25,-0.996 0.33,-0.489 0.98,-0.606 1.57,-0.645 4.67,-0.293 9.63,1.496 14.2,2.332 10.47,1.918 21.03,3.266 31.64,4.074 8.4,0.645 16.82,0.555 25.22,1.164 7.79,0.567 15.88,-0.871 23.6,-2.257 1.71,-0.313 3.52,-0.692 4.81,-1.875 7.38,-6.778 -18.99,-16.192 -22.5,-17.41 -21.14,-7.364 -43.47,-11.555 -65.47,-15.403 -4.01,-10.449 -6.01,-19.89 -6.01,-28.332 V 69.1172 c 0,-34.7734 -10.16,-57.8086 -30.48,-69.12110625 -4.15,0 -29.2,15.60940625 -75.14,46.80080625 v 2.1484 c 11.69,-3.1172 23.43,-6.0937 35.26,-8.5781 4.32,-0.8945 8.65,-1.7344 12.99,-2.418 3.5,-0.5469 8.15,-1.8359 11.6,-1.332 0.38,0.0625 0.79,0.1601 1.08,0.4141 0.25,0.2226 0.39,0.5429 0.52,0.8671 1.22,3.0391 1.33,6.1524 1.93,9.3047 1.26,6.6446 2.26,13.1758 3.22,19.8555 1.2,8.3906 0.37,17.1406 0.37,25.6641 0,8.7113 0,17.4333 0,26.1443 0,9.824 0,19.649 0,29.461 h -1.92 c -18.93,0 -37.94,-3.34 -56.49,-6.719 -4.92,-0.898 -9.82,-1.843 -14.72,-2.824 -1.73,-0.34 -13.61,-1.59 -12.07,-4.402 0.49,-0.899 1.72,-1.082 2.52,-1.602 1.15,-0.75 2.29,-1.687 3.47,-2.468 2.5,-1.641 4.99,-3.313 7.44,-5.032 4.03,-2.82 7.99,-5.761 11.71,-8.996 2.59,-2.246 6.93,-5.301 8.28,-8.472 2.22,-5.266 3.34,-10.9966 3.27,-16.7114 -0.05,-3.2891 -1.07,-4.6094 -2.96,-7.2539 -1.72,-2.4219 -3.38,-4.8829 -4.92,-7.4219 -4.28,-7.0235 -8.43,-15.1875 -8.43,-23.6133 h -2.15 c -4.55,2.7734 -8.81,6.043 -12.58,9.8242 -7.05,7.0508 -12.2,15.75 -15.36,25.1836 -3.9,11.6133 -3.62,23.5747 -5.65,35.5197 -0.15,0.84 -0.21,3.836 -0.85,4.363 -0.64,0.527 -2.59,-0.293 -3.33,-0.461 -2.7,-0.574 -5.39,-1.148 -8.09,-1.726 -9.18,-1.973 -18.37,-3.914 -27.57,-5.813 -1.62,-0.34 -32.18,-5.758 -32.18,-5.933 0,-28.8989 -8.16,-53.2348 -24.48,-72.9809 -16.17,7.1484 -24.26,11.875 -24.26,14.1601 9.46,104.7538 14.17,160.9298 14.17,168.5158 h -10.08 c -3.05,0 -6.23,-1.344 -9.21,-2.047 -1.56,-0.371 -3.16,-0.746 -4.76,-0.625 -2.55,0.191 -4.24,1.715 -6.48,2.629 -1.75,0.703 -3.62,1.191 -5.38,1.918 -3.73,1.531 -7.48,3.039 -11.25,4.476 -5.77,2.207 -11.57,4.114 -17.18,6.579 -0.78,0.347 -1.63,0.753 -2.02,1.519 -1.47,2.867 4.15,5.996 5.94,7.488 2.84,2.383 5.73,4.715 8.66,7 20.15,15.77 41.84,29.559 64,42.332 v 12.024 c 0,20.472 -4.75,41.035 -9.75,60.769 -0.97,3.864 -2,7.719 -3.04,11.567 -0.51,1.855 -1.95,3.875 0.14,4.605 3.46,1.207 7.62,-1.722 10.52,-3.133 2.49,-1.211 4.94,-2.531 7.31,-3.98 4.2,-2.578 8.17,-5.57 11.61,-9.106 5.77,-5.929 10.81,-14.328 11.13,-22.8 0.49,-13.274 -1.51,-26.59 -1.51,-39.856 h 4.08 c 9.62,0 19.26,-1.582 28.49,-4.195 0.5,-0.149 1.04,-0.309 1.38,-0.707 0.38,-0.449 0.43,-1.082 0.47,-1.672 0.3,-5.391 -3.01,-10.777 -5.71,-15.234 -5.06,-8.336 -11.36,-15.922 -17.79,-23.223 -3.4,-3.867 -6.9,-7.656 -10.45,-11.391 -1.7,-1.785 -3.79,-3.453 -5.36,-5.289 -4.4,-5.156 -4.41,-13.875 -5.14,-20.203 -1.47,-12.594 -2.21,-25.012 -2.21,-37.676 0,-9.179 0,-18.363 0,-27.539 0,-1.117 0,-2.238 0,-3.351 0.43,-16.172 1.79,-24.258 4.08,-24.258 44.79,15.031 71.84,26.543 81.15,34.562 v 4.082 c -9.31,0 -16.68,4.715 -22.11,14.168 v 113.766 c 0,3.719 1.28,7.801 3.85,12.234 7.74,-2.718 18.54,-4.074 32.42,-4.074 15.02,2 22.53,5.364 22.53,10.086 v 28.336 c 0,-0.641 -6.09,-2.828 -6.84,-3.141 -2.57,-1.07 -5.19,-2.031 -7.83,-2.894 -5.38,-1.758 -10.88,-3.098 -16.45,-4.074 -5.92,-1.035 -11.9,-1.66 -17.9,-1.942 -5.57,-0.265 -10.68,-0.972 -15.4,2.563 -4.24,3.18 -7.91,8.027 -10.13,12.812 -1.42,3.071 -1.76,8.078 -0.76,11.344 0.84,2.734 3.85,4.469 6.19,5.727 h 1.94 c 6,0 12.4,-3.629 17.37,-6.582 4.83,-2.871 12.12,1.964 16.67,3.769 5.35,2.125 10.7,4.277 16.02,6.5 6.24,2.613 12.76,5.113 18.6,8.574 0.67,0.395 2.48,1.192 2.61,2.118 v 60.753" /></g></g></svg>