<?xml version="1.0" encoding="utf-8"?>
<!-- Generator: Adobe Illustrator 20.1.0, SVG Export Plug-In . SVG Version: 6.00 Build 0)  -->
<svg version="1.1" id="Layer_2" xmlns="http://www.w3.org/2000/svg" xmlns:xlink="http://www.w3.org/1999/xlink" x="0px" y="0px"
	 viewBox="0 0 264 71.1" style="enable-background:new 0 0 264 71.1;" xml:space="preserve">
<style type="text/css">
	.st0{fill:none;}
	.st1{fill:#FFFFFF;}
</style>
<rect class="st0" width="264" height="71"/>
<g>
	<g>
		<g>
			<path class="st1" d="M207.6,39.2c0.5,0,1.2,0.2,1.6,0.4c0.5,0.2,1,0.7,0.8,1.3c-0.1,0.2-0.3,0.4-0.5,0.5s-0.4,0.1-0.6,0.1
				c-1.1,0-2.2-0.5-3.4-0.5h-1.3c-0.1,0-0.1,0-0.2,0c-1.8,0.1-3.6,0.7-5.2,1.4c-1.2,0.5-2.5,1-3.7,1.6c-1.1,0.5-2.6,1.3-3.8,0.8
				c-0.2-0.1-0.3-0.1-0.5-0.2c-0.2-0.1-0.3-0.2-0.5-0.4c-0.4-0.5-0.4-1.1,0.2-1.2c0.3-0.1,0.5-0.1,0.8-0.2c0.9-0.2,1.8-0.4,2.6-0.6
				c4.1-0.9,8.2-1.8,12.2-2.7c0.3-0.1,0.7-0.1,1-0.2C207.4,39.2,207.5,39.2,207.6,39.2z M201.3,24.6c0.2,0,0.4,0,0.6,0h0.1
				c0.4,0.1,0.9,0.2,1.3,0.3c0.4,0.1,0.8,0.2,1.1,0.4c0.5,0.2,1,0.4,1.4,0.7c0.1,0.1,0.2,0.2,0.2,0.4c-0.9,4.7-1.4,7.8-1.5,9.3h0.1
				c2.8-0.7,4.3-1,4.6-1c1,0,1.9,0.2,2.8,0.5c0.9,0.4,1.6,0.8,2.1,1.7c0.1,0.1,0.2,0.3,0.2,0.4c0.5,1.5,0,3.1-0.5,4.4
				c-0.8,2-1.8,3.7-3,5.5c-0.4,0.7-1.2,1.1-1.8,1.4c-0.5,0.3-1.1,0.6-1.6,0.6c-1.1,0-2.9-1.8-5.4-5.3h0.2c2.2,1.4,3.9,2.1,5,2.1
				c1.2,0,2.1-1.1,2.6-2.1c0.4-0.8,0.7-1.7,1-2.6c0.3-1.1,0.6-2.3,0.4-3.5c-0.2-1-1.2-1.5-2.1-1.5c-1.9,0-4.4,0.1-5.7,1.9
				c-0.3,0.5-0.9,1.1-1.6,1.1h-0.1v-1h-0.1c-0.4,0.2-0.9,0.3-1.3,0.5c-0.8,0.3-1.6,0.6-2.3,0.7h-0.1c0,0,0,0-0.1-0.1
				c-0.2-0.4-0.3-1-0.4-1.4c-0.1-1,0.2-1.9,0.5-2.8c0.2-0.8,0.5-1.7,0.7-2.5c0.1-0.2,0.7-3.7,0.5-3.7H199c-0.7,0-1.3,0-2-0.2
				c-0.5-0.1-1.2-0.2-1.6-0.6c-0.2-0.1-0.5-0.6-0.3-0.8c0.1-0.1,0.7-0.1,0.8-0.1c0.6-0.1,1.1-0.3,1.7-0.6c0.8-0.3,1.5-0.7,2.2-1.2
				c0.3-0.2,0.7-0.5,1-0.7C200.9,24.9,201.1,24.7,201.3,24.6C201.2,24.6,201.3,24.6,201.3,24.6z M201.9,27.7L201.9,27.7
				c-0.1,0.1-0.1,0.1-0.1,0.2c-0.4,1.2-0.7,2.6-0.9,3.9c-0.2,1.3-0.4,2.6-0.6,3.9c-0.1,0.5-0.1,1.1-0.1,1.6v0.1h0.1
				c0.2,0,0.6-0.2,0.8-0.3s0.4-0.3,0.5-0.5c0.3-0.5,0.5-1,0.6-1.5c0.3-1.1,0.3-2.2,0.3-3.3v-0.1c0-1,0.1-2,0.1-3
				c0-0.3,0-0.5-0.2-0.7C202.4,27.9,202.1,27.6,201.9,27.7z"/>
			<path class="st1" d="M231.8,19.5h1.2c0.6,0.4,0.9,1.2,0.9,2.5v1.2h0.3c0.8,0,1.2-0.9,1.2-2.8V20h0.1c0.9,0.1,1.3,0.6,1.3,1.3v1.9
				h1.2c0.2,0,0.3,0.1,0.3,0.3c0,0.7-1.5,1.5-4.4,2.4v1.3h0.3c0.2,0,0.8-0.1,1.8-0.4h0.1c1.2,0,1.9,0.8,2.2,1.9
				c0.2,0.7,0.4,1.6,0.1,2.3c-0.1,0.4-0.2,0.7-0.3,1.1c-0.1,0.3-0.2,0.7-0.2,1.1c0,0.1,0,0.1,0.1,0.2c0.1,0.1,0.2,0.1,0.2,0.1
				c-0.2,0.5-0.3,1.4-0.3,2.6c0,0.7,0,1.3,0.1,2v0.1h0.1c0.3,0,0.7-0.1,1-0.2c0.8-0.1,1.5-0.2,2.3-0.3c0.6,0,1.2,0,1.8-0.1
				c0.6,0,1.1,0.1,1.7,0.2c0.1,0,0.3,0,0.3,0.1c0.5,0.5-1.4,1.2-1.6,1.3c-1.5,0.5-3.1,0.8-4.7,1.1c-0.3,0.8-0.4,1.4-0.4,2v4
				c0,2.5-0.7,4.2-2.2,5c-0.3,0-2.1-1.1-5.4-3.4v-0.2c0.8,0.2,1.7,0.4,2.5,0.6c0.3,0.1,0.6,0.1,0.9,0.2c0.3,0,0.6,0.1,0.8,0.1h0.1
				c0,0,0,0,0-0.1c0.1-0.2,0.1-0.4,0.1-0.7c0.1-0.5,0.2-0.9,0.2-1.4c0.1-0.6,0-1.2,0-1.9c0-0.6,0-1.3,0-1.9c0-0.7,0-1.4,0-2.1h-0.1
				c-1.4,0-2.7,0.2-4.1,0.5c-0.4,0.1-0.7,0.1-1.1,0.2c-0.1,0-1,0.1-0.9,0.3c0,0.1,0.1,0.1,0.2,0.1c0.1,0.1,0.2,0.1,0.3,0.2
				c0.2,0.1,0.4,0.2,0.5,0.4c0.3,0.2,0.6,0.4,0.8,0.6c0.2,0.2,0.5,0.4,0.6,0.6c0.2,0.4,0.2,0.8,0.2,1.2c0,0.2-0.1,0.3-0.2,0.5
				s-0.2,0.4-0.4,0.5c-0.3,0.5-0.6,1.1-0.6,1.7h-0.2c-0.3-0.2-0.6-0.4-0.9-0.7c-0.5-0.5-0.9-1.1-1.1-1.8c-0.3-0.8-0.3-1.7-0.4-2.6
				c0-0.1,0-0.3-0.1-0.3h-0.2c-0.2,0-0.4,0.1-0.6,0.1c-0.7,0.1-1.3,0.3-2,0.4c-0.1,0-2.3,0.4-2.3,0.4c0,2.1-0.6,3.8-1.8,5.3
				c-1.2-0.5-1.7-0.9-1.7-1c0.7-7.6,1-11.6,1-12.2h-0.7c-0.2,0-0.4,0.1-0.7,0.1c-0.1,0-0.2,0.1-0.3,0c-0.2,0-0.3-0.1-0.5-0.2
				c-0.1-0.1-0.3-0.1-0.4-0.1c-0.3-0.1-0.5-0.2-0.8-0.3c-0.4-0.2-0.8-0.3-1.2-0.5c-0.1,0-0.1-0.1-0.1-0.1c-0.1-0.2,0.3-0.4,0.4-0.5
				c0.2-0.2,0.4-0.3,0.6-0.5c1.5-1.1,3-2.1,4.6-3.1v-0.9c0-1.5-0.3-3-0.7-4.4c-0.1-0.3-0.1-0.6-0.2-0.8c0-0.1-0.1-0.3,0-0.3
				c0.2-0.1,0.5,0.1,0.8,0.2c0.2,0.1,0.4,0.2,0.5,0.3c0.3,0.2,0.6,0.4,0.8,0.7c0.4,0.4,0.8,1,0.8,1.6c0,1-0.1,1.9-0.1,2.9h0.3
				c0.7,0,1.4,0.1,2.1,0.3c0,0,0.1,0,0.1,0.1v0.1c0,0.4-0.2,0.8-0.4,1.1c-0.4,0.6-0.8,1.1-1.3,1.7c-0.2,0.3-0.5,0.6-0.8,0.8
				c-0.1,0.1-0.3,0.2-0.4,0.4c-0.3,0.4-0.3,1-0.4,1.5c-0.1,0.9-0.2,1.8-0.2,2.7c0,0.7,0,1.3,0,2c0,0.1,0,0.2,0,0.2
				c0,1.2,0.1,1.7,0.3,1.7c3.2-1.1,5.2-1.9,5.9-2.5v-0.3c-0.7,0-1.2-0.3-1.6-1v-8.2c0-0.3,0.1-0.6,0.3-0.9c0.6,0.2,1.3,0.3,2.3,0.3
				c1.1-0.1,1.6-0.4,1.6-0.7v-2c0,0-0.4,0.2-0.5,0.2c-0.2,0.1-0.4,0.1-0.6,0.2c-0.4,0.1-0.8,0.2-1.2,0.3s-0.9,0.1-1.3,0.1
				c-0.4,0-0.8,0.1-1.1-0.2c-0.3-0.2-0.6-0.6-0.7-0.9c-0.1-0.2-0.1-0.6-0.1-0.8c0.1-0.2,0.3-0.3,0.4-0.4h0.1c0.4,0,0.9,0.3,1.3,0.5
				c0.3,0.2,0.9-0.1,1.2-0.3c0.4-0.2,0.8-0.3,1.2-0.5c0.5-0.2,0.9-0.4,1.3-0.6c0,0,0.2-0.1,0.2-0.2v-4.2L231.8,19.5L231.8,19.5z
				 M229.3,29.9v1.6l0.1,0.7l1.5-0.2h0.3v-2h-0.1C230.9,30,230.3,30,229.3,29.9z M229.6,33.2v1.9h1c0.2,0,0.3-0.1,0.3-0.3v-1.6
				L229.6,33.2L229.6,33.2z M229.6,36.6c0.2,1,0.3,1.9,0.3,2.9c0.1,0,0.6-0.1,1.6-0.3v-0.6c-0.7-1.1-1-1.9-1-2.5
				C229.9,36.3,229.6,36.4,229.6,36.6z M232.2,38.4V39l2.8-0.3v-0.2l-0.6-0.9v-0.7c0.7,0,1.1-0.2,1.2-0.7c-0.6-0.1-0.9-0.2-0.9-0.4
				v-0.6h1v-1.4C233.4,34.8,232.2,36.3,232.2,38.4z M233.3,33v0.7c1.4-0.3,2.2-0.4,2.5-0.4v-1.9C234.3,31.3,233.5,31.9,233.3,33z
				 M233.6,29.6v1.2h0.2c0.5-0.2,1.1-0.3,1.9-0.3v0.1h0.1v-2.2h-1.2C234.2,28.6,233.9,29,233.6,29.6z"/>
		</g>
	</g>
</g>
<g>
	<path class="st1" d="M18,18.2h7.1l2.7,10.6l2.7-10.6h7.1v17.5h-4.4V22.4l-3.4,13.3h-4l-3.4-13.3v13.3H18V18.2z"/>
	<path class="st1" d="M51.8,32.8h-6.1l-0.9,2.9h-5.5l6.6-17.5h5.9l6.6,17.5h-5.7L51.8,32.8z M50.7,29l-1.9-6.3L46.9,29H50.7z"/>
	<path class="st1" d="M60.1,35.6V18.1h9c1.7,0,2.9,0.1,3.8,0.4s1.6,0.8,2.1,1.6s0.8,1.7,0.8,2.8c0,1-0.2,1.8-0.6,2.5s-1,1.3-1.7,1.7
		c-0.5,0.3-1.1,0.5-1.9,0.7c0.6,0.2,1.1,0.4,1.4,0.6c0.2,0.1,0.5,0.4,0.9,0.9s0.6,0.8,0.8,1.1l2.6,5.1h-6.1l-2.9-5.3
		c-0.4-0.7-0.7-1.1-1-1.3c-0.4-0.3-0.8-0.4-1.3-0.4h-0.5v7.1L60.1,35.6L60.1,35.6z M65.6,25.2h2.3c0.2,0,0.7-0.1,1.4-0.2
		c0.4-0.1,0.6-0.3,0.9-0.5c0.2-0.3,0.3-0.6,0.3-1c0-0.6-0.2-1-0.5-1.3c-0.4-0.3-1-0.5-2-0.5h-2.4L65.6,25.2L65.6,25.2z"/>
	<path class="st1" d="M91,32.8h-6.1L84,35.7h-5.5l6.6-17.5H91l6.6,17.5h-5.7L91,32.8z M89.8,29l-1.9-6.3L86,29H89.8z"/>
	<path class="st1" d="M95.5,18.2h16.4v4.3h-5.5v13.2H101V22.5h-5.5V18.2z"/>
	<path class="st1" d="M114.3,18.2h5.4v6.1h5.9v-6.1h5.4v17.5h-5.4v-7.1h-5.9v7.1h-5.4C114.3,35.7,114.3,18.2,114.3,18.2z"/>
	<path class="st1" d="M133.9,26.9c0-2.9,0.8-5.1,2.4-6.7c1.6-1.6,3.8-2.4,6.6-2.4c2.9,0,5.1,0.8,6.7,2.3s2.4,3.7,2.4,6.6
		c0,2-0.3,3.7-1,5s-1.7,2.3-3,3s-2.9,1.1-4.9,1.1s-3.6-0.3-4.9-0.9c-1.3-0.6-2.3-1.6-3.1-3C134.3,30.5,133.9,29,133.9,26.9z
		 M139.3,26.9c0,1.8,0.3,3,1,3.8s1.5,1.2,2.7,1.2s2.1-0.4,2.7-1.1c0.6-0.8,1-2.1,1-4.1c0-1.6-0.3-2.8-1-3.6
		c-0.7-0.8-1.6-1.1-2.7-1.1s-2,0.4-2.6,1.2C139.7,23.9,139.3,25.2,139.3,26.9z"/>
	<path class="st1" d="M155,18.2h5l6.6,9.7v-9.7h5.1v17.5h-5.1l-6.5-9.6v9.6H155V18.2z"/>
	<g>
		<path class="st1" d="M76.8,42.7h5.9c1,0,1.7,0.2,2.3,0.7c0.5,0.5,0.8,1.1,0.8,1.8c0,0.6-0.2,1.1-0.6,1.6c-0.3,0.3-0.6,0.5-1.1,0.7
			c0.7,0.2,1.3,0.5,1.6,0.9c0.3,0.4,0.5,1,0.5,1.6c0,0.5-0.1,1-0.4,1.4c-0.2,0.4-0.6,0.8-1,1c-0.3,0.2-0.7,0.3-1.2,0.3
			c-0.7,0.1-1.2,0.1-1.4,0.1h-5.4L76.8,42.7L76.8,42.7z M80,46.7h1.4c0.5,0,0.8-0.1,1-0.3s0.3-0.4,0.3-0.7s-0.1-0.5-0.3-0.7
			c-0.2-0.2-0.5-0.3-1-0.3H80V46.7z M80,50.7h1.6c0.5,0,0.9-0.1,1.1-0.3s0.3-0.5,0.3-0.8s-0.1-0.5-0.3-0.7c-0.2-0.2-0.6-0.3-1.2-0.3
			H80V50.7z"/>
		<path class="st1" d="M90.5,42.7H99v2.2h-5.3v1.6h4.9v2.1h-4.9v2h5.4v2.3h-8.6V42.7z"/>
		<path class="st1" d="M103.3,42.7h9.6v2.5h-3.2v7.7h-3.2v-7.7h-3.2L103.3,42.7L103.3,42.7z"/>
	</g>
	<g>
		<path class="st1" d="M55,44.8l4.8,2.4c-1.4-2.4-3.8-4-7.2-3.8c1.1,2.3,3.3,4,6.8,4.1C59.4,47.5,55,44.8,55,44.8z"/>
		<path class="st1" d="M47.6,43.8l4.1,3.3c-0.8-2.6-2.8-4.6-6.2-5.1c0.6,2.5,2.5,4.8,5.9,5.5C51.4,47.4,47.6,43.8,47.6,43.8z"/>
		<path class="st1" d="M40.6,42.4l3.9,3.5c-0.6-2.7-2.5-4.8-5.9-5.5c0.4,2.5,2.2,5,5.6,5.9C44.2,46.4,40.6,42.4,40.6,42.4z"/>
		<path class="st1" d="M56.2,53l3.8-3.5c-0.6,2.7-2.4,4.7-5.8,5.4c0.4-2.5,2-4.9,5.3-5.7L56.2,53z"/>
		<path class="st1" d="M46.6,52.3l4.8-2.1c-1.4,2.4-3.9,3.7-7.3,3.4c1.2-2.3,3.6-4,7-3.8C51.2,49.7,46.6,52.3,46.6,52.3z"/>
		<path class="st1" d="M39,49.5l5.1-1c-1.7,1.9-4.4,2.6-7.7,1.7c1.5-1.9,4.2-3,7.5-2.2C44,48,39,49.5,39,49.5z"/>
		<path class="st1" d="M33.6,42.9l5,1.9c-1.6-2.3-4.2-3.6-7.6-3.1c1.3,2.2,3.9,3.9,7.3,3.7C38.4,45.4,33.6,42.9,33.6,42.9z"/>
		<path class="st1" d="M64,46.9l0.8,0.7c0,0-4.1,2.6-14.6,1.3c-7-0.8-11.4-3.6-11.3-3.6c3.4,1.3,9,3.4,15,3.2
			C59.8,48.2,61.3,48,64,46.9z"/>
		<path class="st1" d="M134.6,44.8l-4.8,2.4c1.4-2.4,3.8-4,7.2-3.8c-1.1,2.3-3.3,4-6.8,4.1C130.3,47.5,134.6,44.8,134.6,44.8z"/>
		<path class="st1" d="M142.1,43.8l-4.1,3.3c0.8-2.6,2.8-4.6,6.2-5.1c-0.6,2.5-2.5,4.8-5.9,5.5C138.3,47.4,142.1,43.8,142.1,43.8z"
			/>
		<path class="st1" d="M149.1,42.4l-3.9,3.5c0.6-2.7,2.5-4.8,5.9-5.5c-0.4,2.5-2.2,5-5.6,5.9C145.5,46.4,149.1,42.4,149.1,42.4z"/>
		<path class="st1" d="M133.5,53l-3.8-3.5c0.6,2.7,2.4,4.7,5.8,5.4c-0.4-2.5-2-4.9-5.3-5.7L133.5,53z"/>
		<path class="st1" d="M143,52.3l-4.8-2.1c1.4,2.4,3.9,3.7,7.3,3.4c-1.2-2.3-3.6-4-7-3.8C138.5,49.7,143,52.3,143,52.3z"/>
		<path class="st1" d="M150.6,49.5l-5.1-1c1.7,1.9,4.4,2.6,7.7,1.7c-1.5-1.9-4.2-3-7.5-2.2L150.6,49.5z"/>
		<path class="st1" d="M156,42.9l-5,1.9c1.6-2.3,4.2-3.6,7.6-3.1c-1.3,2.2-3.9,3.9-7.3,3.7C151.3,45.4,156,42.9,156,42.9z"/>
		<path class="st1" d="M125.7,46.9l-0.8,0.7c0,0,4.1,2.6,14.6,1.3c7-0.8,11.4-3.6,11.3-3.6c-3.4,1.3-9,3.4-15,3.2
			C129.8,48.2,128.3,48,125.7,46.9z"/>
	</g>
</g>
</svg>
