<?xml version="1.0" encoding="utf-8"?><svg xmlns="http://www.w3.org/2000/svg" xmlns:xlink="http://www.w3.org/1999/xlink"><symbol id="bankCardMaestro--payments" viewBox="0 0 640 384.3" xmlns="http://www.w3.org/2000/svg"><style>.aapayments-st0{fill:#2f67b2}.aapayments-st1{fill:none;stroke:#2f67b2;stroke-width:.3097}.aapayments-st2{fill:#cb2026}.aapayments-st3{fill:#231f20}.aapayments-st4{fill:#fff}</style><g id="aalayer1" transform="translate(-457.205 -631.077)"><path id="aapath618" class="aapayments-st0" d="M777.2 965.3c38.7-35.2 62.7-85.6 62.7-142.2 0-56-23.9-107-62.7-141.7-33.6-30.6-79-49.4-128.4-49.4-106 0-191.6 85.6-191.6 191.6s85.6 191.6 191.6 191.6c49.4-.5 94.8-19.3 128.4-49.9"/><path id="aapath620" class="aapayments-st0" d="M777.2 965.3c38.7-35.2 62.7-85.6 62.7-142.2 0-56-23.9-107-62.7-141.7"/><path id="aapath622" class="aapayments-st1" d="M777.2 965.3c38.7-35.2 62.7-85.6 62.7-142.2 0-56-23.9-107-62.7-141.7"/><path id="aapath624" class="aapayments-st2" d="M906.1 631.6c-49.4 0-94.8 18.9-128.9 49.4-6.6 6.1-13.2 13.2-19.4 20.4h38.7c5.6 6.6 10.2 13.2 14.3 20.4H743c-4.1 6.6-7.6 13.2-11.2 20.4H822c3.1 6.6 5.6 13.2 8.2 20.4h-106c-2 6.6-4.1 13.2-5.6 20.4h117.2c3.1 13.2 4.1 26.5 4.1 40.8 0 21.4-3.6 41.8-10.2 60.6h-106c2 7.1 5.1 13.8 8.2 20.4h90.2c-3.6 7.1-6.6 13.8-11.2 20.4h-67.8c4.1 7.1 9.2 13.8 14.3 20.4h38.7c-6.1 7.1-12.7 13.8-19.4 20.4 33.6 30.6 79 49.4 128.9 49.4 105.5 0 191.1-85.6 191.1-191.6.5-106.1-85.1-192.2-190.6-192.2"/><path id="aapath626" class="aapayments-st3" d="M1076.8 929.6h1.5c.5 0 .5-.5.5-.5l-.5-.5h-1.5v1zm0 3.1h-1v-5.6h2c.5 0 1 0 1.5.5s.5 1 .5 1.5-.5 1-1 1.5l1 2.5h-1.5l-.5-2h-1v1.6zm1 2c2.5 0 5.1-2 5.1-4.6 0-2.5-2-4.6-5.1-4.6-2.5 0-4.6 2-4.6 4.6s2.1 4.6 4.6 4.6zm-6.1-5.1c0-3.6 3.1-6.1 6.1-6.1 3.6 0 6.1 2.5 6.1 6.1s-3.1 6.1-6.1 6.1c-3.6.6-6.1-2.5-6.1-6.1"/><path id="aapath628" class="aapayments-st3" d="M618.7 876.6h-23.9l14.3-74.9-32.6 74.4h-19.9l-4.1-74.4-15.8 74.4h-21.9l18.3-96.8h37.7l.5 60.1 26-60.1h40.3l-18.9 97.3"/><path id="aapath630" class="aapayments-st3" d="M885.2 875.6c-6.6 2-11.7 2.5-17.3 2.5-12.2 0-18.9-6.1-18.9-17.3 0-2 0-4.6.5-7.1l1.5-7.6 1-6.1 11.2-60.1h23.4l-3.4 18.3h12.2l-3.6 19.4h-12.2l-6.1 33.1c-.5 1.5-.5 2.5-.5 3.1 0 4.1 2 6.1 8.2 6.1 3.1 0 4.6 0 6.6-.5l-2.6 16.2"/><path id="aapath632" class="aapayments-st3" d="M790.4 822.6c0 10.2 5.6 16.8 18.3 21.9 9.7 4.1 11.2 5.1 11.2 8.7 0 5.1-4.1 7.1-13.8 7.1-7.1 0-13.8-1-21.4-3.1l-3.1 18.3h1l4.6 1c1.5 0 3.6.5 6.1.5 5.6.5 10.2.5 13.2.5 25.5 0 37.2-8.2 37.2-26.5 0-10.7-5.1-17.3-16.8-21.9-10.2-4.1-11.2-5.1-11.2-8.7 0-4.1 4.1-6.6 11.7-6.6 4.6 0 11.2.5 17.3 1l3.6-18.3c-6.1-1-15.8-1.5-20.9-1.5-27.8.6-37 12.9-37 27.6"/><path id="aapath634" class="aapayments-st3" d="M679.9 841.5c-2.5-.5-3.6-.5-5.6-.5-13.2 0-20.4 4.1-20.4 12.2 0 5.1 3.6 8.2 8.7 8.2 9.6-.6 16.8-8.7 17.3-19.9zm16.3 35.1h-19.9l.5-8.2c-6.1 6.6-14.3 9.7-25 9.7-13.2 0-21.9-8.7-21.9-21.4 0-19.4 15.3-30.6 41.8-30.6 3.1 0 6.1 0 9.7.5 1-2.5 1-3.6 1-5.1 0-5.1-4.1-7.1-15.3-7.1-6.6 0-14.3 1-19.9 2l-3.1 1-2 .5 3.6-17.8c11.7-3.1 19.9-4.1 28.5-4.1 20.4 0 31.1 8.2 31.1 22.9 0 4.1-.5 6.6-2 15.8l-5.1 28-1 5.1-.5 4.1-.5 2.5v2.2"/><path id="aapath636" class="aapayments-st3" d="M762.9 827.7c0-1.5.5-3.1.5-4.1 0-6.6-4.1-10.2-11.2-10.2-7.6 0-13.2 5.1-15.3 14.3h26zm11.2 46.9c-8.2 2-16.3 3.1-24.5 3.1-27 0-40.3-12.2-40.3-35.2 0-27 17.8-46.9 41.8-46.9 19.9 0 32.1 11.2 32.1 28.5 0 5.6-1 11.7-3.1 19.4h-47.4c-.5 1-.5 1.5-.5 2.5 0 9.2 7.1 13.8 20.9 13.8 8.7 0 16.3-1.5 25-5.1l-4 19.9"/><path id="aapath638" class="aapayments-st3" d="M1004.4 831.3c0-8.2-3.6-16.3-13.2-16.3-12.2 0-19.9 14.3-19.9 27 0 10.7 5.1 17.8 13.8 17.8 5.1 0 16.3-7.1 18.3-19.4.5-2.5 1-5.5 1-9.1zm24 9.2c-3.6 26.5-21.9 37.7-46.4 37.7-27 0-37.7-16.3-37.7-36.2 0-28 18.3-46.9 46.9-46.9 25 0 37.7 15.8 37.7 35.7 0 5.1 0 5.1-.5 9.7"/><path id="aapath640" class="aapayments-st4" d="M1036.5 864.4h1.5l.5-.5s0-.5-.5-.5h-1.5v1zm0 3.1h-1V862h2c.5 0 1 0 1.5.5s.5 1 .5 1.5-.5 1-1 1.5l1 2.5h-1.5l-1-2h-1v1.5h.5zm1.1 2c2.5 0 4.6-2 4.6-4.6 0-2.5-2-4.6-4.6-4.6-2.5 0-4.6 2-4.6 4.6-.5 2.6 2 4.6 4.6 4.6zm-6.7-5.1c0-3.6 3.1-6.1 6.1-6.1 3.6 0 6.1 2.5 6.1 6.1s-3.1 6.1-6.1 6.1c-3 .5-6.1-2.5-6.1-6.1"/><path id="aapath642" class="aapayments-st4" d="M624.8 871h-23.9l14.3-74.4-32.6 74.4h-21.5l-4.1-74.4-14.3 74.4h-21.3l18.3-96.8h37.2l1.5 60.1 26.5-60.1h38.7L624.8 871"/><path id="aapath644" class="aapayments-st4" d="M890.8 870c-6.6 2-11.7 2.5-17.3 2.5-12.2 0-18.9-6.1-18.9-17.3 0-2 .5-4.6.5-7.1l1.5-7.6 1-6.1 11.2-60.1h23.4l-3.6 18.3h12.2l-3.6 19.4h-12l-6.1 33.1c-.5 1.5-.5 2.5-.5 3.1 0 4.1 2.5 5.6 8.2 5.6 2.5 0 4.6 0 6.1-.5l-2.1 16.7"/><path id="aapath646" class="aapayments-st3" d="M952.5 814.5l-.5-2.5 5.1-12.2h-1.5c-1.5-.5-2-.5-2-.5h-2c-8.2 0-13.2 3.6-20.9 12.7l2.5-14.3h-25l-14.3 79h23.4c3.1-17.8 4.6-28.5 6.6-37.2 3.1-14.3 13.8-20.9 21.4-19.4 1 0 1.5 0 2.5.5l1.5.5 3.2-6.6"/><path id="aapath648" class="aapayments-st4" d="M960.6 792.6c-2-1-2-1-2.5-1-1-.5-2-.5-2-.5h-2.5c-7.6 0-13.2 3.6-20.9 12.7l2-12.2h-21.5l-14.3 79h23.9c8.7-48.4 12.2-56.6 23.4-56.6h3.1l3.1.5 8.2-21.9"/><path id="aapath650" class="aapayments-st4" d="M796.6 817c0 10.2 5.6 16.8 18.3 21.9 9.7 4.1 11.2 5.1 11.2 8.7 0 5.1-4.1 7.1-13.8 7.1-7.6 0-13.8-1-21.4-3.1l-3.6 18.3h1l4.1 1c1.5.5 3.6.5 6.6.5 5.6.5 10.2.5 13.2.5 25.5 0 37.2-8.2 37.2-26.5 0-10.7-4.6-17.3-17.3-21.9-10.2-4.1-11.2-5.1-11.2-8.7 0-4.1 4.1-6.6 11.7-6.6 4.6 0 11.2.5 17.3 1l3.6-18.3c-6.1-1-15.8-1.5-21.4-1.5-26.4.6-35.5 12.9-35.5 27.6"/><path id="aapath652" class="aapayments-st4" d="M685 835.9c-2.5-.5-3.6-.5-5.6-.5-13.2 0-20.4 4.1-20.4 12.2 0 5.1 3.1 8.2 8.7 8.2 9.6-.6 16.8-8.7 17.3-19.9zm17.3 35.1h-19.9l.5-8.2c-6.1 6.6-14.3 9.7-25 9.7-12.7 0-21.4-8.7-21.4-21.4 0-19.4 15.3-30.6 41.8-30.6 2.5 0 6.1 0 9.7.5.5-2.5 1-3.6 1-5.1 0-5.1-4.1-7.1-15.3-7.1-6.6 0-14.8 1-19.9 2l-3.6 1-2 .5 3.1-17.8c11.7-3.1 19.9-4.1 28.5-4.1 20.4 0 31.1 8.2 31.1 22.9 0 4.1-.5 6.6-1.5 15.8l-5.1 28-1 5.1-.5 4.1-.5 2.5v2.2"/><path id="aapath654" class="aapayments-st4" d="M768 822.1V818c0-6.6-4.1-10.2-11.2-10.2-7.6 0-13.2 5.1-15.3 14.3H768zm12.2 46.9c-8.2 2-15.8 3.1-24.5 3.1-27 0-40.8-12.2-40.8-35.2 0-27 17.8-46.9 41.8-46.9 19.9 0 32.1 11.2 32.1 28.5 0 5.6-1 11.7-3.1 19.4h-47.4c-.5 1-.5 1.5-.5 2.5 0 9.2 7.1 13.8 20.9 13.8 8.7 0 16.3-1.5 25-5.1l-3.5 19.9"/><path id="aapath656" class="aapayments-st4" d="M1010 825.2c0-8.2-3.6-16.3-13.2-16.3-12.2 0-19.9 14.3-19.9 27 0 10.7 5.1 17.8 13.8 17.8 5.1 0 16.3-7.1 18.3-19.4.5-3 1-6.1 1-9.1zm25 9.7c-3.6 26.5-21.9 37.7-46.4 37.7-27 0-37.7-16.3-37.7-36.2 0-28 18.3-46.9 46.9-46.9 25 0 37.7 15.8 37.7 35.7 0 5.1 0 5.1-.5 9.7"/></g></symbol><symbol id="bankCardMastercard--payments" viewBox="0 0 340.5262 264.8868" xmlns="http://www.w3.org/2000/svg"><defs><style>.abcls-1{fill:#010101}.abcls-2{fill:#f26522}.abcls-3{fill:#e51b24}.abcls-4{fill:#f99f1c}</style></defs><title>Mastercard</title><g id="ab_Group_" data-name="&lt;Group>"><path id="ab_Compound_Path_" data-name="&lt;Compound Path>" class="abcls-1" d="M61.94 263.384v-17.536c0-6.605-4.204-11.047-10.985-11.108a10.834 10.834 0 0 0-9.823 4.972 10.25 10.25 0 0 0-9.237-4.972 9.243 9.243 0 0 0-8.183 4.15v-3.45h-6.081v27.943h6.142v-15.488c0-4.857 2.687-7.428 6.836-7.428 4.034 0 6.081 2.633 6.081 7.367v15.55h6.136v-15.489c0-4.857 2.809-7.428 6.843-7.428 4.149 0 6.135 2.633 6.135 7.367v15.55zm90.842-27.943h-9.938v-8.476h-6.135v8.475h-5.674v5.557h5.674v12.74c0 6.49 2.51 10.346 9.7 10.346a14.238 14.238 0 0 0 7.598-2.163l-1.749-5.203a11.216 11.216 0 0 1-5.38 1.578c-3.04 0-4.033-1.87-4.033-4.673v-12.624h9.937zm51.852-.701a8.241 8.241 0 0 0-7.367 4.095v-3.395h-6.02v27.943h6.075v-15.665c0-4.618 1.993-7.19 5.965-7.19a9.975 9.975 0 0 1 3.803.701l1.87-5.727a13.081 13.081 0 0 0-4.326-.762m-78.394 2.925a20.843 20.843 0 0 0-11.394-2.925c-7.074 0-11.631 3.394-11.631 8.945 0 4.557 3.387 7.366 9.638 8.244l2.87.408c3.327.47 4.905 1.34 4.905 2.918 0 2.163-2.218 3.394-6.367 3.394a14.896 14.896 0 0 1-9.298-2.924l-2.864 4.734a20.167 20.167 0 0 0 12.101 3.625c8.067 0 12.747-3.796 12.747-9.115 0-4.91-3.687-7.482-9.768-8.36l-2.863-.415c-2.626-.347-4.735-.87-4.735-2.74 0-2.048 1.986-3.28 5.32-3.28a17.997 17.997 0 0 1 8.713 2.402zm162.855-2.925a8.238 8.238 0 0 0-7.36 4.095v-3.395h-6.02v27.943h6.075v-15.665c0-4.618 1.993-7.19 5.965-7.19a9.995 9.995 0 0 1 3.803.701l1.864-5.727a13.024 13.024 0 0 0-4.327-.762m-78.325 14.672c0 8.476 5.904 14.672 14.903 14.672a14.603 14.603 0 0 0 10.054-3.333l-2.918-4.91a12.275 12.275 0 0 1-7.306 2.516c-4.857-.061-8.42-3.565-8.42-8.945 0-5.374 3.563-8.883 8.42-8.945a12.275 12.275 0 0 1 7.306 2.517l2.918-4.911a14.635 14.635 0 0 0-10.054-3.333c-8.999 0-14.903 6.197-14.903 14.672m56.933 0V235.44h-6.081v3.394a10.582 10.582 0 0 0-8.822-4.095c-7.836 0-13.972 6.143-13.972 14.673 0 8.536 6.136 14.672 13.972 14.672a10.596 10.596 0 0 0 8.822-4.088v3.387h6.081zm-22.623 0c0-4.911 3.217-8.945 8.482-8.945 5.026 0 8.414 3.857 8.414 8.945s-3.388 8.945-8.414 8.945c-5.265 0-8.482-4.034-8.482-8.945m-73.361-14.672c-8.183 0-13.91 5.965-13.91 14.672 0 8.884 5.965 14.672 14.325 14.672a16.996 16.996 0 0 0 11.454-3.918l-2.979-4.496a13.31 13.31 0 0 1-8.129 2.918c-3.917 0-7.482-1.81-8.36-6.836h20.754c.061-.762.115-1.524.115-2.34-.054-8.707-5.435-14.672-13.27-14.672m-.116 5.435c3.918 0 6.428 2.455 7.074 6.781h-14.495c.64-4.033 3.095-6.781 7.421-6.781m152.51 9.237v-25.195h-6.081v14.618a10.583 10.583 0 0 0-8.823-4.095c-7.836 0-13.971 6.142-13.971 14.672 0 8.537 6.135 14.672 13.971 14.672a10.597 10.597 0 0 0 8.823-4.088v3.387h6.08zm-22.624 0c0-4.911 3.217-8.945 8.475-8.945 5.027 0 8.421 3.857 8.421 8.945s-3.394 8.945-8.42 8.945c-5.259 0-8.476-4.034-8.476-8.945m-205.294 0V235.44h-6.074v3.394a10.606 10.606 0 0 0-8.83-4.095c-7.835 0-13.97 6.143-13.97 14.673 0 8.536 6.135 14.672 13.97 14.672a10.62 10.62 0 0 0 8.83-4.088v3.387h6.074zm-22.617 0c0-4.911 3.21-8.945 8.475-8.945 5.027 0 8.415 3.857 8.415 8.945s-3.388 8.945-8.415 8.945c-5.264 0-8.475-4.034-8.475-8.945m260.67 9.924a2.749 2.749 0 0 1 1.102.218 2.858 2.858 0 0 1 .897.592 2.958 2.958 0 0 1 .606.884 2.76 2.76 0 0 1 .218 1.081 2.703 2.703 0 0 1-.218 1.075 2.88 2.88 0 0 1-.606.885 3 3 0 0 1-.897.598 2.749 2.749 0 0 1-1.103.218 2.8 2.8 0 0 1-1.122-.218 2.844 2.844 0 0 1-.898-.599 2.775 2.775 0 0 1-.605-.884 2.71 2.71 0 0 1-.218-1.074 2.767 2.767 0 0 1 .218-1.082 2.848 2.848 0 0 1 .605-.884 2.717 2.717 0 0 1 .898-.592 2.8 2.8 0 0 1 1.122-.218m0 4.938a2.025 2.025 0 0 0 .837-.17 2.12 2.12 0 0 0 .68-.462 2.165 2.165 0 0 0 0-3.061 2.234 2.234 0 0 0-.68-.463 2.133 2.133 0 0 0-.837-.163 2.233 2.233 0 0 0-.856.164 2.165 2.165 0 0 0-.688 3.523 2.074 2.074 0 0 0 .688.463 2.119 2.119 0 0 0 .856.17m.164-3.463a1.215 1.215 0 0 1 .769.218.755.755 0 0 1 .265.605.718.718 0 0 1-.211.53 1.057 1.057 0 0 1-.612.253l.843.972h-.66l-.782-.966h-.252v.966h-.551v-2.578zm-.64.483v.687h.633a.656.656 0 0 0 .347-.082.3.3 0 0 0 .13-.265.288.288 0 0 0-.13-.258.656.656 0 0 0-.347-.082z"/><path id="ab_Path_" data-name="&lt;Path>" class="abcls-2" d="M124.22 22.501h92.08v165.468h-92.08z"/><path id="ab_Path_2" data-name="&lt;Path>" class="abcls-3" d="M130.07 105.235A105.058 105.058 0 0 1 170.264 22.5a105.235 105.235 0 1 0 0 165.468 105.058 105.058 0 0 1-40.194-82.734"/><path id="ab_Compound_Path_2" data-name="&lt;Compound Path>" class="abcls-4" d="M340.526 105.228a105.225 105.225 0 0 1-170.256 82.734 105.257 105.257 0 0 0 0-165.468 105.232 105.232 0 0 1 170.256 82.734m-10.04 65.212v-3.388h1.368v-.687h-3.483v.687h1.367v3.388zm6.755 0v-4.081h-1.068l-1.224 2.809-1.225-2.81h-1.067v4.082h.748v-3.081l1.15 2.66h.782l1.15-2.667v3.088z"/></g></symbol><symbol id="bankCardVisa--payments" viewBox="0 0 1248 383.4" xmlns="http://www.w3.org/2000/svg"><style>.acpayments-st0{fill:#32599a}.acpayments-st1{fill:#e3a330}</style><path class="acpayments-st0" d="M439.3 378.1L502.3 7h101l-63.2 371.1zM906.3 16.1C886.3 8.6 855 .5 815.8.5c-99.7 0-170 50.3-170.6 122.5-.6 53.3 50.2 83.1 88.5 100.8 39.3 18.2 52.5 29.8 52.4 46-.3 24.9-31.4 36.2-60.4 36.2-40.4 0-61.8-5.6-95-19.5l-13-5.9-14.2 83.1c23.6 10.4 67.2 19.3 112.5 19.8 106.1 0 175-49.7 175.8-126.8.4-42.2-26.5-74.3-84.7-100.8-35.3-17.2-56.9-28.6-56.7-46 0-15.4 18.3-31.9 57.8-31.9 33-.5 56.9 6.7 75.5 14.2l9.1 4.3 13.5-80.4zM1165.2 7.4h-78c-24.2 0-42.3 6.6-52.9 30.8l-149.9 340h106s17.3-45.7 21.2-55.8c11.6 0 114.5.2 129.3.2 3 13 12.3 55.6 12.3 55.6h93.7L1165.2 7.4zm-124.5 239.2c8.4-21.4 40.2-103.8 40.2-103.8-.6 1 8.3-21.5 13.4-35.4l6.8 32s19.3 88.6 23.4 107.2h-83.8zM354.6 7.3l-98.9 253.1-10.6-51.4c-18.4-59.3-75.7-123.6-139.8-155.7l90.4 324.6 106.8-.1 159-370.5H354.6z"/><path class="acpayments-st1" d="M164.1 7H1.2L0 14.8c126.6 30.7 210.4 105 245.2 194.2L209.8 38.4C203.7 14.9 186 7.9 164.1 7"/></symbol><symbol id="bankTransfer--payments" viewBox="0 0 1599 605.3" xmlns="http://www.w3.org/2000/svg"><style>.adpayments-st0{fill:#369}</style><path class="adpayments-st0" d="M602.4 124.3L461.2 62.2 320 0 178.8 62.2 37.6 124.3h-.1v72.2h564.9zM93.1 460.9c-8.4 0-15.2 6.8-15.2 15.2s6.8 15.2 15.2 15.2h89.6c8.4 0 15.2-6.8 15.2-15.2s-6.8-15.2-15.2-15.2h-5.1V244.2h5.1c8.4 0 15.2-6.8 15.2-15.2s-6.8-15.2-15.2-15.2H93.1c-8.4 0-15.2 6.8-15.2 15.2s6.8 15.2 15.2 15.2h5.1v216.7h-5.1zM275.2 460.9c-8.4 0-15.2 6.8-15.2 15.2s6.8 15.2 15.2 15.2h89.6c8.4 0 15.2-6.8 15.2-15.2s-6.8-15.2-15.2-15.2h-5.1V244.2h5.1c8.4 0 15.2-6.8 15.2-15.2s-6.8-15.2-15.2-15.2h-89.6c-8.4 0-15.2 6.8-15.2 15.2s6.8 15.2 15.2 15.2h5.1v216.7h-5.1zM460.1 460.9c-8.4 0-15.2 6.8-15.2 15.2s6.8 15.2 15.2 15.2h89.6c8.4 0 15.2-6.8 15.2-15.2s-6.8-15.2-15.2-15.2h-5.1V244.2h5.1c8.4 0 15.2-6.8 15.2-15.2s-6.8-15.2-15.2-15.2h-89.6c-8.4 0-15.2 6.8-15.2 15.2s6.8 15.2 15.2 15.2h5.1v216.7h-5.1zM37.5 523v8.7c0 8 6.5 14.4 14.4 14.4h536c8 0 14.4-6.5 14.4-14.4V523c0-8-6.5-14.4-14.4-14.4h-536c-7.9 0-14.4 6.4-14.4 14.4zM625.5 563.5H14.4c-8 0-14.4 6.5-14.4 14.4v13c0 8 6.5 14.4 14.4 14.4h611.1c8 0 14.4-6.5 14.4-14.4v-13c.1-8-6.4-14.4-14.4-14.4z"/><g><path class="adpayments-st0" d="M771.9 286.8V126.2H827c8.7 0 16.5.9 23.4 2.6 6.9 1.7 12.8 4.4 17.5 7.9 4.8 3.5 8.4 8 11 13.5 2.5 5.5 3.8 12 3.8 19.5 0 7.4-2 14-6 19.9-4 5.9-9.8 10.4-17.4 13.7 4.6 1.3 8.7 3.1 12.1 5.5 3.4 2.4 6.3 5.2 8.5 8.4s3.9 6.8 5 10.7c1.1 3.9 1.7 7.9 1.7 12.1 0 7.7-1.3 14.5-3.8 20.4-2.5 5.8-6.2 10.7-11 14.7-4.8 3.9-10.7 6.9-17.5 8.9-6.9 2-14.7 3-23.3 3h-59.1zm27.9-93h27.4c8.7 0 15.5-2 20.4-5.9 4.9-3.9 7.3-9.5 7.3-16.7 0-7.9-2.3-13.7-6.8-17.2s-11.6-5.3-21.1-5.3h-27.1v45.1zm0 20.5v50.2h31c4.6 0 8.6-.6 12.1-1.8 3.5-1.2 6.4-2.9 8.8-5 2.4-2.2 4.1-4.8 5.3-7.8 1.2-3 1.8-6.4 1.8-10 0-7.9-2.1-14.2-6.3-18.8-4.2-4.6-11-6.8-20.4-6.8h-32.3zM983.2 286.8c-.7-1.4-1.3-3.1-1.8-5s-.9-4-1.3-6.2c-1.8 1.8-3.7 3.6-5.9 5.2s-4.6 3-7.2 4.2c-2.6 1.2-5.4 2.2-8.5 2.9-3.1.7-6.3 1-9.8 1-6 0-11.4-.9-16.4-2.7-5-1.8-9.3-4.3-12.9-7.5-3.6-3.2-6.4-7-8.4-11.3-2-4.3-3-9-3-14.1 0-6.4 1.2-12.1 3.6-17 2.4-4.9 6-9 10.6-12.4 4.6-3.3 10.3-5.8 17-7.6 6.7-1.7 14.4-2.6 23-2.6h16.9V206c0-6.2-1.7-11.1-5.2-14.8-3.5-3.7-8.7-5.6-15.8-5.6-3.2 0-6 .4-8.6 1.3-2.6.8-4.8 2-6.6 3.4-1.8 1.4-3.2 3.1-4.2 5.1s-1.5 4.1-1.5 6.4h-26.8c0-4.7 1.2-9.3 3.5-13.6 2.3-4.4 5.6-8.3 9.9-11.7 4.3-3.4 9.4-6.2 15.5-8.2 6.1-2.1 12.9-3.1 20.4-3.1 6.7 0 12.9.9 18.5 2.6 5.7 1.7 10.6 4.3 14.7 7.7 4.1 3.4 7.3 7.7 9.6 12.8 2.3 5.1 3.4 11.1 3.4 17.9v53c0 10.7 1.5 19.3 4.5 25.7v1.9h-27.2zm-29.4-19.3c3.1 0 6-.4 8.7-1.2 2.7-.8 5.1-1.9 7.3-3.2 2.2-1.3 4.1-2.9 5.7-4.6 1.6-1.7 2.9-3.5 3.9-5.2v-22.5h-14.5c-9.9 0-17.4 1.7-22.4 5.2s-7.5 8.4-7.5 14.7c0 2.4.4 4.7 1.2 6.7.8 2.1 2 3.8 3.6 5.4 1.6 1.5 3.6 2.7 5.9 3.5 2.3.8 5 1.2 8.1 1.2zM1059 167.4l.8 13.8c4.2-5.1 9.2-9 15.1-11.8 5.9-2.8 12.4-4.2 19.6-4.2 5.7 0 10.9.8 15.6 2.4 4.7 1.6 8.7 4.1 12 7.7 3.3 3.5 5.9 8.1 7.7 13.8 1.8 5.7 2.7 12.5 2.7 20.6v77.1h-26.8v-77.4c0-4.1-.5-7.6-1.4-10.4-.9-2.8-2.3-5.1-4-6.9-1.8-1.8-4-3-6.6-3.8-2.6-.8-5.6-1.2-9-1.2-5.5 0-10.3 1.3-14.4 4-4.1 2.6-7.3 6.2-9.8 10.7v85h-26.8V167.4h25.3zM1198.6 235.6l-11.9 12.2v39h-26.8V117.3h26.8v97.8l8.4-10.5 33-37.2h32.2l-44.4 49.8 49.1 69.6h-31l-35.4-51.2z"/></g><g><path class="adpayments-st0" d="M885 408.3h-50.1v138.2h-27.7V408.3h-49.7v-22.5H885v22.5zM958.8 451.5c-1.8-.3-3.6-.5-5.4-.7-1.8-.1-3.7-.2-5.6-.2-6.5 0-11.7 1.3-15.8 3.8-4 2.5-7.1 6-9 10.4v81.7h-26.8V427h25.6l.7 13.4c3-4.9 6.7-8.7 11.2-11.4 4.5-2.8 9.7-4.1 15.7-4.1 1.5 0 3.3.2 5.2.5 1.9.3 3.4.7 4.2 1v25.1zM1043.8 546.4c-.7-1.4-1.3-3.1-1.8-5s-.9-4-1.3-6.2c-1.8 1.8-3.7 3.6-5.9 5.2s-4.6 3-7.2 4.2c-2.6 1.2-5.4 2.2-8.5 2.9-3.1.7-6.3 1-9.8 1-6 0-11.4-.9-16.4-2.7-5-1.8-9.3-4.3-12.9-7.5-3.6-3.2-6.4-7-8.4-11.3-2-4.3-3-9-3-14.1 0-6.4 1.2-12.1 3.6-17 2.4-4.9 6-9 10.6-12.4s10.3-5.8 17-7.6c6.7-1.7 14.4-2.6 23-2.6h16.9v-7.8c0-6.2-1.7-11.1-5.2-14.8-3.5-3.7-8.7-5.6-15.8-5.6-3.2 0-6 .4-8.6 1.3-2.6.8-4.8 2-6.6 3.4-1.8 1.4-3.2 3.1-4.2 5.1s-1.5 4.1-1.5 6.4H971c0-4.7 1.2-9.3 3.5-13.6 2.3-4.4 5.6-8.3 9.9-11.7 4.3-3.4 9.4-6.2 15.5-8.2 6.1-2.1 12.9-3.1 20.4-3.1 6.7 0 12.9.9 18.5 2.6 5.7 1.7 10.6 4.3 14.7 7.7 4.1 3.4 7.3 7.7 9.6 12.8 2.3 5.1 3.4 11.1 3.4 17.9v53c0 10.7 1.5 19.3 4.5 25.7v1.9h-27.2zm-29.5-19.3c3.1 0 6-.4 8.7-1.2 2.7-.8 5.1-1.9 7.3-3.2 2.2-1.3 4.1-2.8 5.7-4.6 1.6-1.7 2.9-3.5 3.9-5.2v-22.5h-14.5c-9.9 0-17.4 1.7-22.4 5.2s-7.5 8.4-7.5 14.7c0 2.4.4 4.7 1.2 6.7.8 2.1 2 3.8 3.6 5.4 1.6 1.5 3.6 2.7 5.9 3.5 2.3.8 5 1.2 8.1 1.2zM1119.6 427l.8 13.8c4.2-5.1 9.2-9 15.1-11.8 5.9-2.8 12.4-4.2 19.6-4.2 5.7 0 10.9.8 15.6 2.4 4.7 1.6 8.7 4.1 12 7.7 3.3 3.5 5.9 8.1 7.7 13.8 1.8 5.7 2.7 12.5 2.7 20.6v77.1h-26.8V469c0-4.1-.5-7.6-1.4-10.4-.9-2.8-2.3-5.1-4-6.9-1.8-1.8-4-3-6.6-3.8-2.6-.8-5.6-1.2-9-1.2-5.5 0-10.3 1.3-14.4 4s-7.3 6.2-9.8 10.7v85h-26.8V427h25.3zM1287.3 514c0-1.9-.3-3.7-.9-5.4-.6-1.7-1.9-3.2-3.7-4.6-1.8-1.4-4.4-2.8-7.8-4-3.3-1.3-7.7-2.4-13.1-3.5-6.4-1.3-12.2-3-17.5-5-5.3-2-9.8-4.4-13.5-7.2-3.8-2.8-6.7-6.2-8.8-10-2.1-3.8-3.1-8.2-3.1-13.2 0-4.9 1.1-9.5 3.2-13.8 2.1-4.4 5.2-8.2 9.2-11.5 4-3.3 8.9-5.9 14.6-7.9 5.7-1.9 12.1-2.9 19.1-2.9 7.4 0 14.1 1 20 2.9 5.9 2 10.9 4.6 15.1 8.1 4.1 3.4 7.3 7.4 9.4 12.1 2.2 4.6 3.3 9.6 3.3 15H1286c0-2.3-.4-4.5-1.3-6.7s-2.2-4.1-4-5.8c-1.8-1.7-4-3-6.6-4s-5.6-1.5-9.1-1.5c-3.4 0-6.3.4-8.8 1.3-2.5.8-4.6 2-6.2 3.3-1.7 1.4-2.9 2.9-3.7 4.7-.8 1.8-1.2 3.7-1.2 5.7s.4 3.8 1.1 5.3c.7 1.5 2 2.9 3.9 4.2 1.9 1.3 4.4 2.4 7.6 3.5 3.2 1.1 7.1 2.1 11.9 3.1 6.9 1.5 13.1 3.2 18.6 5.2 5.5 2 10.1 4.4 13.9 7.3 3.8 2.9 6.7 6.3 8.7 10.2 2 3.9 3 8.5 3 13.9 0 5.3-1.1 10.2-3.4 14.6s-5.5 8.2-9.8 11.4c-4.2 3.2-9.3 5.7-15.3 7.4-6 1.8-12.6 2.6-19.9 2.6-8.2 0-15.4-1.2-21.7-3.5-6.3-2.3-11.6-5.4-15.8-9.1-4.3-3.8-7.5-8-9.7-12.7-2.2-4.7-3.3-9.6-3.3-14.5h26c.2 3.7 1.1 6.8 2.5 9.3 1.5 2.5 3.3 4.5 5.6 6.1 2.3 1.5 4.9 2.7 7.7 3.4 2.9.7 5.8 1 8.8 1 7.1 0 12.4-1.3 16.1-4 3.9-3 5.7-6.5 5.7-10.8zM1346.5 546.4v-99.5h-18.2V427h18.2v-11.3c0-6.6 1-12.5 2.9-17.7 1.9-5.1 4.7-9.5 8.3-12.9 3.6-3.5 8-6.1 13.2-7.9 5.2-1.8 11-2.7 17.5-2.7 2.6 0 5.1.2 7.7.6 2.5.4 5 .8 7.3 1.4l-.7 21c-1.5-.3-3.1-.5-4.8-.7-1.7-.1-3.5-.2-5.5-.2-6.2 0-10.9 1.6-14.2 4.9-3.3 3.2-5 8-5 14.2V427h24.3v19.9h-24.3v99.5h-26.7zM1467.1 548.6c-8.8 0-16.8-1.5-23.8-4.4s-13.1-7-18-12.1-8.7-11.3-11.4-18.3c-2.6-7.1-4-14.7-4-22.8v-4.4c0-9.4 1.4-17.9 4.2-25.5 2.8-7.6 6.6-14.1 11.5-19.4 4.9-5.3 10.6-9.5 17.2-12.4 6.6-2.9 13.7-4.4 21.2-4.4 8.7 0 16.2 1.5 22.6 4.4 6.4 2.9 11.7 7 15.9 12.2 4.2 5.2 7.3 11.4 9.4 18.6 2.1 7.2 3.1 15.1 3.1 23.7v11.5h-78c.4 4.6 1.3 8.9 2.9 12.8 1.6 3.9 3.7 7.3 6.5 10.1 2.7 2.8 5.9 5.1 9.7 6.7 3.7 1.6 7.9 2.4 12.6 2.4 6.6 0 12.4-1.3 17.3-4 4.9-2.6 9.1-6.3 12.7-10.9l14.5 13.8c-1.9 2.9-4.3 5.6-7.1 8.3-2.8 2.7-6.1 5.1-9.9 7.2-3.8 2.1-8.1 3.8-12.9 5.1-4.9 1.2-10.3 1.8-16.2 1.8zm-3.2-102.3c-7.4 0-13.3 2.6-17.8 7.7-4.5 5.2-7.4 12.3-8.7 21.5h51.1v-2c-.2-3.5-.8-6.9-1.7-10.2-.9-3.3-2.3-6.2-4.2-8.7-1.9-2.5-4.4-4.6-7.4-6.1-3.2-1.4-6.9-2.2-11.3-2.2zM1598.3 451.5c-1.8-.3-3.6-.5-5.4-.7-1.8-.1-3.7-.2-5.6-.2-6.5 0-11.7 1.3-15.8 3.8-4 2.5-7.1 6-9 10.4v81.7h-26.8V427h25.6l.7 13.4c3-4.9 6.7-8.7 11.2-11.4 4.5-2.8 9.7-4.1 15.7-4.1 1.5 0 3.3.2 5.2.5 1.9.3 3.4.7 4.2 1v25.1z"/></g></symbol><symbol id="bankTransferRu--payments" viewBox="0 0 1599 605.3" xmlns="http://www.w3.org/2000/svg"><style>.aepayments-st0{fill:#369}</style><path class="aepayments-st0" d="M602.4 124.3L461.2 62.2 320 0 178.8 62.2 37.6 124.3h-.1v72.2h564.9zM93.1 460.9c-8.4 0-15.2 6.8-15.2 15.2s6.8 15.2 15.2 15.2h89.6c8.4 0 15.2-6.8 15.2-15.2s-6.8-15.2-15.2-15.2h-5.1V244.2h5.1c8.4 0 15.2-6.8 15.2-15.2s-6.8-15.2-15.2-15.2H93.1c-8.4 0-15.2 6.8-15.2 15.2s6.8 15.2 15.2 15.2h5.1v216.7h-5.1zM275.2 460.9c-8.4 0-15.2 6.8-15.2 15.2s6.8 15.2 15.2 15.2h89.6c8.4 0 15.2-6.8 15.2-15.2s-6.8-15.2-15.2-15.2h-5.1V244.2h5.1c8.4 0 15.2-6.8 15.2-15.2s-6.8-15.2-15.2-15.2h-89.6c-8.4 0-15.2 6.8-15.2 15.2s6.8 15.2 15.2 15.2h5.1v216.7h-5.1zM460.1 460.9c-8.4 0-15.2 6.8-15.2 15.2s6.8 15.2 15.2 15.2h89.6c8.4 0 15.2-6.8 15.2-15.2s-6.8-15.2-15.2-15.2h-5.1V244.2h5.1c8.4 0 15.2-6.8 15.2-15.2s-6.8-15.2-15.2-15.2h-89.6c-8.4 0-15.2 6.8-15.2 15.2s6.8 15.2 15.2 15.2h5.1v216.7h-5.1zM37.5 523v8.7c0 8 6.5 14.4 14.4 14.4h536c8 0 14.4-6.5 14.4-14.4V523c0-8-6.5-14.4-14.4-14.4h-536c-7.9 0-14.4 6.4-14.4 14.4zM625.5 563.5H14.4c-8 0-14.4 6.5-14.4 14.4v13c0 8 6.5 14.4 14.4 14.4h611.1c8 0 14.4-6.5 14.4-14.4v-13c.1-8-6.4-14.4-14.4-14.4z"/><g><path class="aepayments-st0" d="M771.9 286.8V126.2H827c8.7 0 16.5.9 23.4 2.6 6.9 1.7 12.8 4.4 17.5 7.9 4.8 3.5 8.4 8 11 13.5 2.5 5.5 3.8 12 3.8 19.5 0 7.4-2 14-6 19.9-4 5.9-9.8 10.4-17.4 13.7 4.6 1.3 8.7 3.1 12.1 5.5 3.4 2.4 6.3 5.2 8.5 8.4s3.9 6.8 5 10.7c1.1 3.9 1.7 7.9 1.7 12.1 0 7.7-1.3 14.5-3.8 20.4-2.5 5.8-6.2 10.7-11 14.7-4.8 3.9-10.7 6.9-17.5 8.9-6.9 2-14.7 3-23.3 3h-59.1zm27.9-93h27.4c8.7 0 15.5-2 20.4-5.9 4.9-3.9 7.3-9.5 7.3-16.7 0-7.9-2.3-13.7-6.8-17.2s-11.6-5.3-21.1-5.3h-27.1v45.1zm0 20.5v50.2h31c4.6 0 8.6-.6 12.1-1.8 3.5-1.2 6.4-2.9 8.8-5 2.4-2.2 4.1-4.8 5.3-7.8 1.2-3 1.8-6.4 1.8-10 0-7.9-2.1-14.2-6.3-18.8-4.2-4.6-11-6.8-20.4-6.8h-32.3zM983.2 286.8c-.7-1.4-1.3-3.1-1.8-5s-.9-4-1.3-6.2c-1.8 1.8-3.7 3.6-5.9 5.2s-4.6 3-7.2 4.2c-2.6 1.2-5.4 2.2-8.5 2.9-3.1.7-6.3 1-9.8 1-6 0-11.4-.9-16.4-2.7-5-1.8-9.3-4.3-12.9-7.5-3.6-3.2-6.4-7-8.4-11.3-2-4.3-3-9-3-14.1 0-6.4 1.2-12.1 3.6-17 2.4-4.9 6-9 10.6-12.4 4.6-3.3 10.3-5.8 17-7.6 6.7-1.7 14.4-2.6 23-2.6h16.9V206c0-6.2-1.7-11.1-5.2-14.8-3.5-3.7-8.7-5.6-15.8-5.6-3.2 0-6 .4-8.6 1.3-2.6.8-4.8 2-6.6 3.4-1.8 1.4-3.2 3.1-4.2 5.1s-1.5 4.1-1.5 6.4h-26.8c0-4.7 1.2-9.3 3.5-13.6 2.3-4.4 5.6-8.3 9.9-11.7 4.3-3.4 9.4-6.2 15.5-8.2 6.1-2.1 12.9-3.1 20.4-3.1 6.7 0 12.9.9 18.5 2.6 5.7 1.7 10.6 4.3 14.7 7.7 4.1 3.4 7.3 7.7 9.6 12.8 2.3 5.1 3.4 11.1 3.4 17.9v53c0 10.7 1.5 19.3 4.5 25.7v1.9h-27.2zm-29.4-19.3c3.1 0 6-.4 8.7-1.2 2.7-.8 5.1-1.9 7.3-3.2 2.2-1.3 4.1-2.9 5.7-4.6 1.6-1.7 2.9-3.5 3.9-5.2v-22.5h-14.5c-9.9 0-17.4 1.7-22.4 5.2s-7.5 8.4-7.5 14.7c0 2.4.4 4.7 1.2 6.7.8 2.1 2 3.8 3.6 5.4 1.6 1.5 3.6 2.7 5.9 3.5 2.3.8 5 1.2 8.1 1.2zM1059 167.4l.8 13.8c4.2-5.1 9.2-9 15.1-11.8 5.9-2.8 12.4-4.2 19.6-4.2 5.7 0 10.9.8 15.6 2.4 4.7 1.6 8.7 4.1 12 7.7 3.3 3.5 5.9 8.1 7.7 13.8 1.8 5.7 2.7 12.5 2.7 20.6v77.1h-26.8v-77.4c0-4.1-.5-7.6-1.4-10.4-.9-2.8-2.3-5.1-4-6.9-1.8-1.8-4-3-6.6-3.8-2.6-.8-5.6-1.2-9-1.2-5.5 0-10.3 1.3-14.4 4-4.1 2.6-7.3 6.2-9.8 10.7v85h-26.8V167.4h25.3zM1198.6 235.6l-11.9 12.2v39h-26.8V117.3h26.8v97.8l8.4-10.5 33-37.2h32.2l-44.4 49.8 49.1 69.6h-31l-35.4-51.2z"/></g><g><path class="aepayments-st0" d="M885 408.3h-50.1v138.2h-27.7V408.3h-49.7v-22.5H885v22.5zM958.8 451.5c-1.8-.3-3.6-.5-5.4-.7-1.8-.1-3.7-.2-5.6-.2-6.5 0-11.7 1.3-15.8 3.8-4 2.5-7.1 6-9 10.4v81.7h-26.8V427h25.6l.7 13.4c3-4.9 6.7-8.7 11.2-11.4 4.5-2.8 9.7-4.1 15.7-4.1 1.5 0 3.3.2 5.2.5 1.9.3 3.4.7 4.2 1v25.1zM1043.8 546.4c-.7-1.4-1.3-3.1-1.8-5s-.9-4-1.3-6.2c-1.8 1.8-3.7 3.6-5.9 5.2s-4.6 3-7.2 4.2c-2.6 1.2-5.4 2.2-8.5 2.9-3.1.7-6.3 1-9.8 1-6 0-11.4-.9-16.4-2.7-5-1.8-9.3-4.3-12.9-7.5-3.6-3.2-6.4-7-8.4-11.3-2-4.3-3-9-3-14.1 0-6.4 1.2-12.1 3.6-17 2.4-4.9 6-9 10.6-12.4s10.3-5.8 17-7.6c6.7-1.7 14.4-2.6 23-2.6h16.9v-7.8c0-6.2-1.7-11.1-5.2-14.8-3.5-3.7-8.7-5.6-15.8-5.6-3.2 0-6 .4-8.6 1.3-2.6.8-4.8 2-6.6 3.4-1.8 1.4-3.2 3.1-4.2 5.1s-1.5 4.1-1.5 6.4H971c0-4.7 1.2-9.3 3.5-13.6 2.3-4.4 5.6-8.3 9.9-11.7 4.3-3.4 9.4-6.2 15.5-8.2 6.1-2.1 12.9-3.1 20.4-3.1 6.7 0 12.9.9 18.5 2.6 5.7 1.7 10.6 4.3 14.7 7.7 4.1 3.4 7.3 7.7 9.6 12.8 2.3 5.1 3.4 11.1 3.4 17.9v53c0 10.7 1.5 19.3 4.5 25.7v1.9h-27.2zm-29.5-19.3c3.1 0 6-.4 8.7-1.2 2.7-.8 5.1-1.9 7.3-3.2 2.2-1.3 4.1-2.8 5.7-4.6 1.6-1.7 2.9-3.5 3.9-5.2v-22.5h-14.5c-9.9 0-17.4 1.7-22.4 5.2s-7.5 8.4-7.5 14.7c0 2.4.4 4.7 1.2 6.7.8 2.1 2 3.8 3.6 5.4 1.6 1.5 3.6 2.7 5.9 3.5 2.3.8 5 1.2 8.1 1.2zM1119.6 427l.8 13.8c4.2-5.1 9.2-9 15.1-11.8 5.9-2.8 12.4-4.2 19.6-4.2 5.7 0 10.9.8 15.6 2.4 4.7 1.6 8.7 4.1 12 7.7 3.3 3.5 5.9 8.1 7.7 13.8 1.8 5.7 2.7 12.5 2.7 20.6v77.1h-26.8V469c0-4.1-.5-7.6-1.4-10.4-.9-2.8-2.3-5.1-4-6.9-1.8-1.8-4-3-6.6-3.8-2.6-.8-5.6-1.2-9-1.2-5.5 0-10.3 1.3-14.4 4s-7.3 6.2-9.8 10.7v85h-26.8V427h25.3zM1287.3 514c0-1.9-.3-3.7-.9-5.4-.6-1.7-1.9-3.2-3.7-4.6-1.8-1.4-4.4-2.8-7.8-4-3.3-1.3-7.7-2.4-13.1-3.5-6.4-1.3-12.2-3-17.5-5-5.3-2-9.8-4.4-13.5-7.2-3.8-2.8-6.7-6.2-8.8-10-2.1-3.8-3.1-8.2-3.1-13.2 0-4.9 1.1-9.5 3.2-13.8 2.1-4.4 5.2-8.2 9.2-11.5 4-3.3 8.9-5.9 14.6-7.9 5.7-1.9 12.1-2.9 19.1-2.9 7.4 0 14.1 1 20 2.9 5.9 2 10.9 4.6 15.1 8.1 4.1 3.4 7.3 7.4 9.4 12.1 2.2 4.6 3.3 9.6 3.3 15H1286c0-2.3-.4-4.5-1.3-6.7s-2.2-4.1-4-5.8c-1.8-1.7-4-3-6.6-4s-5.6-1.5-9.1-1.5c-3.4 0-6.3.4-8.8 1.3-2.5.8-4.6 2-6.2 3.3-1.7 1.4-2.9 2.9-3.7 4.7-.8 1.8-1.2 3.7-1.2 5.7s.4 3.8 1.1 5.3c.7 1.5 2 2.9 3.9 4.2 1.9 1.3 4.4 2.4 7.6 3.5 3.2 1.1 7.1 2.1 11.9 3.1 6.9 1.5 13.1 3.2 18.6 5.2 5.5 2 10.1 4.4 13.9 7.3 3.8 2.9 6.7 6.3 8.7 10.2 2 3.9 3 8.5 3 13.9 0 5.3-1.1 10.2-3.4 14.6s-5.5 8.2-9.8 11.4c-4.2 3.2-9.3 5.7-15.3 7.4-6 1.8-12.6 2.6-19.9 2.6-8.2 0-15.4-1.2-21.7-3.5-6.3-2.3-11.6-5.4-15.8-9.1-4.3-3.8-7.5-8-9.7-12.7-2.2-4.7-3.3-9.6-3.3-14.5h26c.2 3.7 1.1 6.8 2.5 9.3 1.5 2.5 3.3 4.5 5.6 6.1 2.3 1.5 4.9 2.7 7.7 3.4 2.9.7 5.8 1 8.8 1 7.1 0 12.4-1.3 16.1-4 3.9-3 5.7-6.5 5.7-10.8zM1346.5 546.4v-99.5h-18.2V427h18.2v-11.3c0-6.6 1-12.5 2.9-17.7 1.9-5.1 4.7-9.5 8.3-12.9 3.6-3.5 8-6.1 13.2-7.9 5.2-1.8 11-2.7 17.5-2.7 2.6 0 5.1.2 7.7.6 2.5.4 5 .8 7.3 1.4l-.7 21c-1.5-.3-3.1-.5-4.8-.7-1.7-.1-3.5-.2-5.5-.2-6.2 0-10.9 1.6-14.2 4.9-3.3 3.2-5 8-5 14.2V427h24.3v19.9h-24.3v99.5h-26.7zM1467.1 548.6c-8.8 0-16.8-1.5-23.8-4.4s-13.1-7-18-12.1-8.7-11.3-11.4-18.3c-2.6-7.1-4-14.7-4-22.8v-4.4c0-9.4 1.4-17.9 4.2-25.5 2.8-7.6 6.6-14.1 11.5-19.4 4.9-5.3 10.6-9.5 17.2-12.4 6.6-2.9 13.7-4.4 21.2-4.4 8.7 0 16.2 1.5 22.6 4.4 6.4 2.9 11.7 7 15.9 12.2 4.2 5.2 7.3 11.4 9.4 18.6 2.1 7.2 3.1 15.1 3.1 23.7v11.5h-78c.4 4.6 1.3 8.9 2.9 12.8 1.6 3.9 3.7 7.3 6.5 10.1 2.7 2.8 5.9 5.1 9.7 6.7 3.7 1.6 7.9 2.4 12.6 2.4 6.6 0 12.4-1.3 17.3-4 4.9-2.6 9.1-6.3 12.7-10.9l14.5 13.8c-1.9 2.9-4.3 5.6-7.1 8.3-2.8 2.7-6.1 5.1-9.9 7.2-3.8 2.1-8.1 3.8-12.9 5.1-4.9 1.2-10.3 1.8-16.2 1.8zm-3.2-102.3c-7.4 0-13.3 2.6-17.8 7.7-4.5 5.2-7.4 12.3-8.7 21.5h51.1v-2c-.2-3.5-.8-6.9-1.7-10.2-.9-3.3-2.3-6.2-4.2-8.7-1.9-2.5-4.4-4.6-7.4-6.1-3.2-1.4-6.9-2.2-11.3-2.2zM1598.3 451.5c-1.8-.3-3.6-.5-5.4-.7-1.8-.1-3.7-.2-5.6-.2-6.5 0-11.7 1.3-15.8 3.8-4 2.5-7.1 6-9 10.4v81.7h-26.8V427h25.6l.7 13.4c3-4.9 6.7-8.7 11.2-11.4 4.5-2.8 9.7-4.1 15.7-4.1 1.5 0 3.3.2 5.2.5 1.9.3 3.4.7 4.2 1v25.1z"/></g></symbol><symbol id="cop--payments" viewBox="-439 203.9 640 385.3" xmlns="http://www.w3.org/2000/svg"><style>.afpayments-st0{display:none}.afpayments-st1{display:inline;fill:#fff}.afpayments-st2{fill:#002856}.afpayments-st3{fill:#cf0a2c}.afpayments-st4{fill:#007078}</style><g id="afBg" class="afpayments-st0"><path class="afpayments-st1" d="M-34 455h-170c-8.2 0-15-6.8-15-15v-87c0-8.2 6.8-15 15-15h170c8.2 0 15 6.8 15 15v87c0 8.2-6.8 15-15 15z"/></g><g id="afLogo"><path class="afpayments-st2" d="M-402 239.9v-13.7c11 .9 23.7 1.4 40.2 1.4 3.2-7.8 5-15.5 5.9-23.7 4.6 1.4 12.8 3.2 16 3.7 3.2.5 4.1 1.4 0 4.1-.9.9-2.3 2.7-8.7 15.5 28.3 0 51.1-.5 67.1-1.4v13.7c-17.3-1.4-42.9-1.8-72.6-1.4-5 10.5-12.8 21.9-22.4 33.3v42c0 6.8 0 13.2.9 26.5h-13.7c.5-13.2.9-20.1.9-26.5v-28.8c-5 5-10 9.6-15.1 14.2-4.1-5-7.8-7.8-11-9.1 9.6-5.9 18.3-13.2 26-21.5-.5-5-.9-9.1-1.4-11 4.1.9 7.3.9 10 .9 5-6.4 9.1-13.2 12.8-20.1-13.9.6-24.9 1-34.9 1.9zm113.6 33.3v13.7c-8.2-.9-18.3-1.4-32.9-1.4v37c17.8 0 29.7-.5 40.2-1.4v13.7c-11.4-.9-24.7-1.4-45.2-1.4s-34.2.5-45.2 1.4v-13.7c10 .9 21.5 1.4 38.3 1.4v-37c-13.2.5-22.4.9-30.1 1.8v-14.2c8.2.9 16.9 1.4 30.1 1.4 0-15.1-.5-24.7-1.4-28.3 4.6.9 9.6 1.4 15.1 1.4 2.3 0 2.7.9.5 2.3-1.4.9-1.8 3.7-1.8 5.5v19.2c14.2 0 24.2-.4 32.4-1.4zM-246.8 265c-5 .9-9.1 2.3-11.9 2.7 0-2.7-1.8-9.1-3.7-11.9 6.4-2.3 20.1-25.1 27.8-50.2 4.6 2.7 10.5 5 13.7 5.5 2.7.5 2.7 2.7.5 3.7-4.6 1.8-7.8 5.9-26.9 40.2l20.1-3.2c5-9.1 6.8-12.8 8.2-18.7 5.9 3.7 9.6 5 13.7 6.4 2.3.5 2.3 2.7-.5 3.7-.9.5-2.3.9-4.6 4.1 7.3 0 11-.5 21-2.3-.5-11.9-.5-25.6-.9-38.8 4.6.9 10.5 1.4 14.6 1.4 2.3 0 3.2 1.4 1.4 3.7-.9.9-2.3 5-2.7 7.8-.5 6.4-.5 17.3-.9 24.2 16.4-3.7 33.3-7.8 42-10l2.3 11.4c-9.6 1.4-27.4 4.6-43.8 8.2.5 5.9.9 11.4 1.8 16.9 17.3-3.7 35.1-7.8 44.3-10l2.3 11.4c-9.6 1.4-27.8 5-45.2 8.2 1.8 8.7 4.1 16.4 7.3 22.8 6.8-6.4 14.2-15.1 17.8-21.5 4.6 3.7 10.5 7.3 11.9 7.8 1.8.9 1.8 2.7 0 2.7-2.3 0-9.1 5.9-15.1 12.8-1.8 2.3-5 5-8.7 8.7 4.1 5.5 8.7 9.6 14.2 13.2 5 3.7 6.4 3.2 8.2-13.7 3.7 5.5 9.1 8.2 13.2 8.7-7.3 23.3-10.5 26-20.5 20.5-11.4-5.9-17.8-11.9-24.2-21.5-9.6 7.8-21.9 16-34.2 21.9-1.8-3.7-5-7.8-9.1-11 11.4-3.2 16.9-5.9 37-21.5-4.1-7.8-7.3-16.9-9.6-27.4-9.6 2.3-14.6 3.2-21.9 5.5l-2.3-11.9c7.8-1.4 12.3-1.8 22.4-3.7-.5-5-1.4-10.5-1.4-16.4-8.7 2.3-12.8 3.2-19.6 5.5l-2.7-11.4c-4.6 5.9-12.3 17.8-28.3 42 10.5-.9 21.5-2.7 29.7-5-.9 3.7-.9 6.4 0 10.5l-27.8 4.6c-10 1.8-13.2 2.3-16 3.7 0-4.1-1.8-10.5-4.1-13.7 6.8-2.7 12.3-7.3 25.1-28.3l-13.9 1.7zm37.4 55.3c-27.8 5.9-38.3 9.6-47 14.2-.9-5-1.4-8.2-4.6-15.1 8.7 0 21-2.3 51.1-10.5-.9 3.1-.4 8.2.5 11.4zm53-86.8c-2.7-4.6-5.9-10-10.5-15.5l11.9-5.9c4.1 5.9 7.8 11 10.5 14.6l-11.9 6.8zM-90.7 274.6v-12.8c9.6.5 27.8.9 41.5.9v-21c-25.1 0-41.1.5-55.7 1.4v-13.2c14.2.9 31 1.4 55.7 1.4 0-12.3-.5-20.5-1.4-23.3 5.9 1.4 10.5 1.4 15.5.9 3.2-.5 3.7 1.4.9 3.2-1.8.9-2.3 2.3-2.3 5v14.2c25.6 0 42.5-.5 57.1-1.4v13.2c-14.6-.9-31.5-1.4-57.1-1.4v21c13.2 0 29.7-.9 38.8-1.4-8.7 24.2-21 38.3-35.1 50.7 14.2 7.8 33.8 11.9 55.2 11.4-3.2 5-5.9 11.9-6.8 17.3-21-3.7-41.1-10.5-58.4-21.5-13.7 8.7-37.9 19.2-57.5 24.2-2.3-4.6-6.4-10-10.5-14.6 21-.9 44.3-9.6 58-16.9-10-9.1-20.1-22.8-26-37.9-3.7.2-7.8.2-11.9.6zm47.9 30.1c12.3-10 21.9-21.5 26-32H-66c5.9 12.4 13.6 23.4 23.2 32zM46.2 285.6c-1.8-3.7-5-7.3-9.1-9.6 7.3-9.1 16.4-24.7 21.9-37 4.6-10 8.7-23.3 11-31 5 2.7 10 4.1 13.2 5 3.2.5 3.7 1.8.5 4.6-.9.5-5.9 8.7-10 16.9V344H59.9c.9-8.7 1.8-21.5 1.8-32.4v-53.4c-6.8 12.8-10.4 19.2-15.5 27.4zm107.3 41.5c0 12.3-2.3 14.2-26.9 16.9-.5-3.7-2.7-10.5-6.4-16 16.4 1.8 21-.9 21-6.4v-68.5c-27.8 0-44.7.5-54.8 1.4v-14.6c9.1.9 26.9 1.4 54.8 1.4 0-12.3-.9-28.3-1.4-33.3 5 .9 11 1.4 13.2 1.4 3.2 0 3.7.9 2.3 2.7-.9.9-1.4 8.2-1.4 11.4v17.8c9.1 0 15.5-.5 22.4-1.4V255c-6.4-.9-12.8-1.4-22.4-1.4v73.5h-.4zm-43.3-25.6c-3.2-11-9.1-22.4-14.2-29.2l13.2-5.9c4.6 8.7 10.5 20.5 14.2 28.8l-13.2 6.3zM-402.5 433c-4.1 0-7.8-.9-11-3.2-3.2-1.8-5.5-4.6-7.3-8.2-1.8-3.7-2.7-7.8-2.7-12.3 0-3.7 0-8.2 1.4-13.2.9-5.5 2.7-10 5-14.2 2.3-4.1 5.5-7.8 8.7-10 4.6-3.7 10-5 16-5 6.4 0 11.4 2.3 15.1 6.4 3.7 4.1 5.5 10 5.9 17.3 0 3.2 0 7.3-.9 11.9-.9 5-2.3 9.1-4.1 13.2-1.8 4.1-4.6 7.8-7.3 10.5-5.5 4.5-11.5 6.8-18.8 6.8zm22.8-41.1c0-5.9-.9-10.5-3.2-13.7-2.3-3.2-5.5-5-10-5-4.1 0-7.8.9-10.5 3.2-3.2 2.3-5.9 5.5-7.8 10s-3.2 10-3.7 16.9v2.7c0 5.9.9 10.5 3.2 13.7 2.3 3.2 5.5 5 10 5 5.5 0 10.5-1.8 14.2-5.9 3.7-4.1 5.9-10 7.3-17.8.1-3.1.5-6.3.5-9.1zM-350 383.7l-1.4 5.9c4.6-4.6 9.1-7.3 14.6-6.8 4.6 0 7.8 1.8 10 4.6 2.3 2.7 3.2 7.3 2.3 12.8l-5.5 31.5h-8.2l5.5-31.5v-4.1c-.5-4.1-2.7-6.4-7.3-6.4-5 0-9.1 2.3-12.8 7.8l-5.9 34.2h-8.2l8.2-48.4 8.7.4zM-308 432.1h-8.2l11.9-68.5h8.2l-11.9 68.5zM-286.1 432.1h-8.2l8.2-48.4h8.2l-8.2 48.4zm6.4-66.2c1.4 0 2.3.5 3.2 1.4.9.9 1.4 1.8 1.4 3.7 0 1.4-.5 2.7-1.4 3.7-.9.9-1.8 1.4-3.2 1.4-1.4 0-2.7-.5-3.7-1.4-.9-.9-1.4-1.8-1.4-3.2 0-1.4.5-2.7 1.4-3.7 1.4-1 2.3-1.4 3.7-1.9zM-256.9 383.7l-1.4 5.9c4.6-4.6 9.1-7.3 14.6-6.8 4.6 0 7.8 1.8 10 4.6 2.3 3.2 3.2 7.3 2.3 12.8l-5.5 31.5h-8.2l5.5-31.5v-4.1c-.5-4.1-2.7-6.4-7.3-6.4-5 0-9.1 2.3-12.8 7.8l-5.5 34.7h-8.2l8.2-48.4 8.3-.1zM-203 433c-5.9 0-10.5-2.3-14.2-6.8-3.2-4.1-5-10-4.1-16.4V408c.5-4.6 1.8-9.1 4.1-13.2s5-6.8 8.7-9.1c3.2-1.8 6.8-2.7 11-2.7 5 0 8.7 1.8 11.9 5 2.7 3.2 4.6 7.3 4.6 12.8v5.9l-.5 3.7H-213c-.5 4.6 0 8.2 2.3 11 1.8 3.2 5 4.6 8.7 4.6 4.6 0 9.1-1.8 13.2-6.4l4.6 4.1c-1.8 2.7-4.6 5-7.8 6.8-3.2 1.6-6.9 2.5-11 2.5zm5.5-43.3c-3.2 0-6.4.9-8.7 3.2-2.3 2.3-4.6 5.9-5.9 10.5h23.3v-.9c.5-3.7 0-6.8-1.8-9.1-1.4-2.4-4.2-3.7-6.9-3.7zM-140 406.5l-4.6 25.6h-8.2l11.4-65.3h21.5c6.8 0 11.9 1.8 15.5 5.5s5 8.2 4.6 14.2c-.5 6.4-3.2 11-7.3 14.6-4.6 3.7-10 5.5-17.3 5.5H-140zm1.4-6.8h14.6c4.6 0 8.2-1.4 11.4-3.7 2.7-2.3 4.6-5.5 5-9.6.5-3.7-.5-6.8-2.3-9.1-1.8-2.3-5-3.7-8.7-3.7h-15.5l-4.5 26.1zM-68.8 432.1c0-.9-.5-1.8-.5-2.7v-2.7c-4.6 4.1-9.1 5.9-14.2 5.9-4.1 0-7.8-1.4-10.5-4.1-2.7-2.7-3.7-5.9-3.7-10 .5-5 2.7-9.1 6.8-11.9 4.1-2.7 9.6-4.1 16.4-4.1h8.2l.5-3.7c.5-2.7-.5-5-1.8-6.8-1.4-1.8-3.7-2.7-6.4-2.7s-5 .5-7.3 1.8c-2.3 1.4-3.7 3.2-4.1 5.5h-8.2c.5-2.7 1.4-5.5 3.2-7.3 1.8-2.3 4.6-3.7 7.3-5 3.2-1.4 6.4-1.8 9.6-1.8 5 0 9.1 1.8 11.9 4.6 2.7 2.7 4.1 6.8 3.7 11.9l-4.1 23.7v3.7c0 1.8 0 3.2.5 5v.9c0-.2-7.3-.2-7.3-.2zm-12.3-6.4c2.7 0 5-.5 7.3-1.8 2.3-1.4 4.1-3.2 5.9-5.5l1.8-10H-72c-5 0-9.1.9-11.9 2.3-2.7 1.8-4.1 3.7-4.6 6.8-.5 2.3.5 4.1 1.4 5.5 1.4 1.8 3.2 2.7 6 2.7zM-32.7 419.8l17.3-36.1h9.1l-29.2 56.1c-4.1 7.8-9.1 11.9-15.5 11.4-.9 0-2.7-.5-5-.9l.9-6.8h2.3c2.7 0 4.6-.5 6.8-1.8 1.8-1.4 3.7-3.2 5-5.9l2.7-5.5-8.2-47h8.2l5.6 36.5zM8.4 383.7l-.9 5.5c4.1-4.1 9.1-6.4 14.6-6.4 3.2 0 5.5.9 7.8 2.3s3.7 3.2 4.6 5.5c4.6-5.5 10-7.8 16-7.8 5 0 8.2 1.8 10.5 5 2.3 3.2 3.2 7.3 2.7 12.8l-5.5 31.5H50l5.5-32V396c-.5-4.1-3.2-5.9-7.8-6.4-2.7 0-5.5.9-8.2 2.7-2.3 1.8-4.1 4.6-4.6 7.3l-5.5 32h-8.2l5.5-32c.5-3.2 0-5.9-1.4-7.8-1.4-1.8-3.7-2.7-6.4-2.7-5 0-9.1 2.3-11.9 6.8L1.1 431h-8.2l8.2-48.4 7.3 1.1zM91 433c-5.9 0-10.5-2.3-14.2-6.8-3.2-4.1-5-10-4.1-16.4V408c.5-4.6 1.8-9.1 4.1-13.2s5-6.8 8.7-9.1c3.2-1.8 6.8-2.7 11-2.7 5 0 8.7 1.8 11.9 5 2.7 3.2 4.6 7.3 4.6 12.8v5.9l-.5 3.7H80.9c-.5 4.6 0 8.2 2.3 11 1.8 3.2 5 4.6 8.7 4.6 4.6 0 9.1-1.8 13.2-6.4l4.6 4.1c-1.8 2.7-4.6 5-7.8 6.8-3.2 1.6-6.8 2.5-10.9 2.5zm5.5-43.3c-3.2 0-6.4.9-8.7 3.2-2.3 2.3-4.6 5.9-5.9 10.5h23.3v-.9c.5-3.7 0-6.8-1.8-9.1-1.9-2.4-4.2-3.7-6.9-3.7zM133.9 383.7l-1.4 5.9c4.6-4.6 9.1-7.3 14.6-6.8 4.6 0 7.8 1.8 10 4.6 2.3 3.2 3.2 7.3 2.3 12.8l-5.5 31.5h-8.2l5.5-31.5v-4.1c-.5-4.1-2.7-6.4-7.3-6.4-5 0-9.1 2.3-12.8 7.8l-5.9 34.2H117l8.2-48.4 8.7.4zM188.2 371.8l-2.3 11.9h8.7l-.9 6.4H185l-5 30.1v2.3c0 2.3 1.4 3.7 3.7 3.7.9 0 2.3 0 4.1-.5l-.5 6.8c-1.8.5-4.1.9-5.9.9-3.2 0-5.5-1.4-7.3-3.7-1.8-2.3-2.3-5.5-1.8-9.1l5-29.7h-8.7l.9-6.4h8.7l2.3-11.9h7.8v-.8z"/><path class="afpayments-st3" d="M-190.2 589.1H-413c-14.2 0-26-11.9-26-26v-53.4c0-14.2 11.9-26 26-26h222.3c14.2 0 26 11.9 26 26v53.4c.1 14.2-11.4 26-25.5 26z"/><path class="afpayments-st2" d="M-23.6 589.1h-222.3c-14.2 0-26-11.9-26-26v-53.4c0-14.2 11.9-26 26-26h222.3c14.2 0 26 11.9 26 26v53.4c0 14.2-11.8 26-26 26z"/><path class="afpayments-st4" d="M175 589.1H-47.3c-14.2 0-26-11.9-26-26v-53.4c0-14.2 11.9-26 26-26H175c14.2 0 26 11.9 26 26v53.4c-.5 14.2-11.9 26-26 26z"/></g></symbol><symbol id="cryptoPay--payments" viewBox="-468.3 396.6 640 192.1" xmlns="http://www.w3.org/2000/svg"><style>.agpayments-st0{fill:#f7931a}.agpayments-st1{fill:#fff}.agpayments-st2{fill:#4d4d4d}</style><g id="aglayer1" transform="translate(96.623 -332.002)"><g id="agg8298" transform="translate(-530.21 195.48)"><g id="agg8300"><g id="agg8302"><g id="agg8304"><circle id="agcircle8306" class="agpayments-st0" cx="32" cy="599.8" r="66.7"/><g id="agg8308"><g id="agg8310"><path id="agpath8312" class="agpayments-st1" d="M61.5 590.2c1.4-9-5.5-13.6-14.7-16.8l3-12-7.4-1.8-3 11.7c-1.8-.5-3.9-.9-6-1.4l3-11.7-7.4-1.8-3 12c-1.6-.5-3.2-.7-4.6-1.2l-10.1-2.5-1.8 7.8s5.5 1.2 5.3 1.4c3 .7 3.5 2.8 3.5 4.4L14.8 592c.2 0 .5.2.7.2-.2 0-.5-.2-.7-.2L10 611.3c-.5.9-1.4 2.3-3.5 1.8l-5.3-1.4-3.7 8.3 9.4 2.3c1.8.5 3.5.9 5.3 1.4l-3 12.2 7.4 1.8 3-12c2.1.5 3.9 1.2 5.8 1.6l-3 12 7.4 1.8 3-12.2c12.4 2.3 21.9 1.4 25.8-9.9 3.2-9.2-.2-14.3-6.7-17.7 5-1.5 8.6-4.5 9.6-11.1zm-16.8 23.4c-2.3 9.2-17.5 4.1-22.5 3l3.9-16.1c5 1.2 20.9 3.7 18.6 13.1zm2.3-23.4c-2.1 8.3-14.7 4.1-18.9 3l3.7-14.7c3.9 1.1 17.2 2.9 15.2 11.7z"/></g></g></g></g><g id="agg8314"><path id="agpath8316" class="agpayments-st2" d="M160.8 573.4c5.5 0 10.1.9 14 3 3.9 1.8 7.1 4.6 9.9 7.8 2.5 3.2 4.6 7.1 5.8 11.5 1.2 4.4 1.8 9.2 1.8 14.3 0 7.8-1.4 15.2-4.4 22.1-3 6.9-6.7 12.9-11.7 18.2-5.1 5.1-10.8 9.2-17.5 12.2-6.7 3-14 4.4-21.9 4.4h-5.3c-2.5 0-5.5-.2-8.7-.7-3.2-.5-6.7-1.2-10.4-2.1s-7.1-2.1-10.4-3.7l29.2-122.8 26.2-4.1L147 577c2.3-.9 4.6-1.8 6.7-2.3 2.3-1.1 4.6-1.3 7.1-1.3zM139 645.8c3.9 0 7.6-.9 11-3 3.5-1.8 6.4-4.4 9-7.6 2.5-3.2 4.6-6.9 6-10.8 1.4-4.1 2.3-8.3 2.3-12.7 0-5.5-.9-9.7-2.8-12.7-1.8-3-5.1-4.6-9.9-4.6-1.6 0-3.7.2-6.2.9s-4.8 1.8-6.9 3.5l-11 46.2c.7 0 1.4.2 1.8.2.5 0 1.2.2 1.6.2h2.1c.7.4 1.6.4 3 .4z"/><path id="agpath8318" class="agpayments-st2" d="M219.5 664.2h-25.1l21.2-89h25.3l-21.4 89zm12.2-99.8c-3.5 0-6.7-1.2-9.4-3.2-2.8-2.1-4.1-5.3-4.1-9.7 0-2.3.5-4.6 1.4-6.7.9-2.1 2.3-3.9 3.9-5.5s3.5-2.8 5.5-3.7c2.1-.9 4.4-1.4 6.7-1.4 3.5 0 6.7 1.2 9.4 3.2 2.8 2.1 4.1 5.3 4.1 9.7 0 2.3-.5 4.6-1.4 6.7-.9 2.1-2.3 3.9-3.9 5.5s-3.5 2.8-5.5 3.7-4.4 1.4-6.7 1.4z"/><path id="agpath8320" class="agpayments-st2" d="M262.8 553.1L289 549l-6.4 26.2h28.1l-5.1 20.7h-27.8l-7.4 31.1c-.7 2.5-1.2 5.1-1.2 7.4-.2 2.3.2 4.1.9 5.8s1.8 3 3.7 3.7c1.8.9 4.1 1.4 7.6 1.4 2.8 0 5.3-.2 7.8-.7 2.5-.5 5.1-1.2 7.6-2.1l1.8 19.3c-3.5 1.2-7.1 2.3-11 3.2-3.9.9-8.7 1.4-14 1.4-7.8 0-13.8-1.2-18.2-3.5s-7.4-5.5-9.2-9.4c-1.8-3.9-2.5-8.5-2.3-13.8.2-5.3.9-10.6 2.3-16.3l16.6-70.3z"/><path id="agpath8322" class="agpayments-st2" d="M309.5 628.6c0-7.6 1.2-15 3.7-21.6 2.5-6.7 6-12.7 10.6-17.7 4.6-5.1 10.1-9 16.8-12 6.7-3 14-4.4 22.1-4.4 5.1 0 9.7.5 13.6 1.4 3.9.9 7.6 2.3 10.8 3.9l-8.7 19.6c-2.3-.9-4.6-1.6-6.9-2.5-2.5-.7-5.3-1.2-9-1.2-8.3 0-15 3-19.8 8.5-4.8 5.8-7.4 13.6-7.4 23.2 0 5.8 1.2 10.4 3.7 14 2.5 3.5 7.1 5.3 13.8 5.3 3.2 0 6.4-.2 9.4-.9s5.8-1.6 8.1-2.5l1.8 20c-3.2 1.2-6.7 2.3-10.6 3.2-3.9.9-8.5 1.4-13.8 1.4-6.9 0-12.9-.9-17.7-3-4.8-2.1-8.7-4.8-12-8.3-3.2-3.5-5.5-7.6-6.9-12.2-1-4.3-1.6-9.2-1.6-14.2z"/><path id="agpath8324" class="agpayments-st2" d="M420.6 666.5c-6 0-11.3-.9-15.6-2.8-4.4-1.8-8.1-4.4-10.8-7.6-3-3.2-5.1-7.1-6.4-11.5-1.4-4.4-2.1-9.4-2.1-14.7 0-6.7 1.2-13.6 3.2-20.2 2.3-6.7 5.5-12.9 9.7-18.2 4.4-5.5 9.4-9.9 15.6-13.3 6.2-3.5 13.3-5.1 21.4-5.1 5.8 0 11 .9 15.4 2.8 4.4 1.8 8.1 4.4 11 7.6 2.8 3.2 5.1 7.1 6.4 11.5 1.4 4.4 2.3 9.4 2.3 14.7 0 6.7-1.2 13.6-3.2 20.2s-5.3 12.9-9.4 18.2c-4.1 5.5-9.4 9.9-15.6 13.3-6.3 3.5-13.6 5.1-21.9 5.1zm12.6-72.4c-3.7 0-6.9 1.2-9.9 3.2-2.8 2.1-5.3 4.8-7.1 8.1s-3.5 6.9-4.4 10.8c-.9 3.9-1.4 7.6-1.4 11 0 5.8.9 10.1 2.8 13.1 1.8 3.2 5.1 4.8 9.9 4.8 3.7 0 6.9-1.2 9.9-3.2 2.8-2.1 5.1-4.8 7.1-8.1 1.8-3.2 3.5-6.9 4.4-10.8.9-3.9 1.4-7.6 1.4-11 0-5.5-.9-10.1-2.8-13.1-1.8-3.2-5.3-4.8-9.9-4.8z"/><path id="agpath8326" class="agpayments-st2" d="M497.9 664.2h-25.1l21.2-89h25.3l-21.4 89zm12.2-99.8c-3.5 0-6.7-1.2-9.4-3.2-2.8-2.1-4.1-5.3-4.1-9.7 0-2.3.5-4.6 1.4-6.7.9-2.1 2.3-3.9 3.9-5.5s3.5-2.8 5.5-3.7c2.1-.9 4.4-1.4 6.7-1.4 3.5 0 6.7 1.2 9.4 3.2 2.8 2.1 4.1 5.3 4.1 9.7 0 2.3-.5 4.6-1.4 6.7-.9 2.1-2.3 3.9-3.7 5.5-1.6 1.6-3.5 2.8-5.5 3.7-2.3.9-4.4 1.4-6.9 1.4z"/><path id="agpath8328" class="agpayments-st2" d="M537.2 579.3c1.8-.5 3.9-1.2 6.4-1.8 2.3-.7 4.8-1.4 7.8-2.1 2.8-.7 6-1.2 9.7-1.6 3.5-.5 7.6-.7 12.2-.7 13.1 0 22.3 3.9 27.4 11.5 5.1 7.6 6 18.2 2.5 31.5l-11.5 48.1h-25.1l11-46.9c.7-3 1.2-5.8 1.6-8.5s.5-5.1 0-7.4c-.5-2.1-1.4-3.7-3.2-5.1-1.6-1.4-4.1-1.8-7.6-1.8-3.2 0-6.7.5-9.9.9l-16.3 68.8H517l20.2-84.9z"/></g></g><g id="agg8330"><path id="agpath8332" class="agpayments-st2" d="M234.9 715.5l-4.8 9h-5.3c3.7-6.7 7.4-12.9 11-18.6 3.5-5.8 7.1-11 10.6-16.1h4.8c.5 2.5.9 5.1 1.4 7.6.5 2.5.9 5.3 1.2 8.1.5 2.8.7 5.8 1.2 9s.7 6.4 1.2 10.1h-4.8c-.2-1.6-.2-3-.5-4.6s-.2-3-.5-4.4l-15.5-.1zm14.7-3.9c-.2-2.8-.7-5.3-.9-8.1-.5-2.8-.7-5.5-1.2-8.3-1.2 1.6-2.5 3.9-4.4 6.7-1.8 2.8-3.7 6-6 9.7h12.5z"/><path id="agpath8334" class="agpayments-st2" d="M273.6 725.2c-2.1 0-4.1-.2-5.8-.9s-3-1.6-4.1-2.8-1.8-2.5-2.5-4.1c-.5-1.6-.9-3.5-.9-5.5 0-3 .5-6 1.4-8.5.9-2.8 2.3-5.1 4.1-7.4 1.8-2.1 3.9-3.7 6.4-5.1 2.5-1.2 5.3-1.8 8.3-1.8 2.5 0 4.6.2 6.2.7 1.6.5 2.8 1.2 3.2 1.6l-2.1 3.9c-.7-.5-1.8-.9-3.2-1.4-1.4-.5-3-.7-4.6-.7-2.3 0-4.4.5-6.2 1.6-1.8 1.2-3.5 2.5-4.6 4.1-1.4 1.6-2.3 3.7-3 5.8-.7 2.1-.9 4.4-.9 6.4 0 6.4 2.8 9.7 8.5 9.7 1.2 0 2.3 0 3.2-.2.9-.2 1.8-.5 2.5-.7.7-.2 1.4-.5 1.8-.7.5-.2 1.2-.5 1.6-.7l.7 4.1c-.5.2-.9.5-1.6.7-.7.2-1.4.5-2.3.7-.9.2-1.8.5-3 .7-.6.3-1.7.5-3.1.5z"/><path id="agpath8336" class="agpayments-st2" d="M301.9 725.2c-2.1 0-4.1-.2-5.8-.9s-3-1.6-4.1-2.8-1.8-2.5-2.5-4.1c-.5-1.6-.9-3.5-.9-5.5 0-3 .5-6 1.4-8.5.9-2.8 2.3-5.1 4.1-7.4 1.8-2.1 3.9-3.7 6.4-5.1 2.5-1.2 5.3-1.8 8.3-1.8 2.5 0 4.6.2 6.2.7s2.8 1.2 3.2 1.6l-2.1 3.9c-.7-.5-1.8-.9-3.2-1.4-1.4-.5-3-.7-4.6-.7-2.3 0-4.4.5-6.2 1.6-1.8 1.2-3.5 2.5-4.6 4.1-1.4 1.6-2.3 3.7-3 5.8-.7 2.1-.9 4.4-.9 6.4 0 6.4 2.8 9.7 8.5 9.7 1.2 0 2.3 0 3.2-.2.9-.2 1.8-.5 2.5-.7.7-.2 1.4-.5 1.8-.7.5-.2 1.2-.5 1.6-.7l.7 4.1c-.5.2-.9.5-1.6.7-.7.2-1.4.5-2.3.7s-1.8.5-3 .7c-.8.3-2 .5-3.1.5z"/><path id="agpath8338" class="agpayments-st2" d="M315.2 724.3l8.3-34.7H344l-.9 4.1h-15.6l-2.5 10.6h14l-.9 3.9h-13.8l-3 12.2H338l-.9 4.1h-21.9v-.2z"/><path id="agpath8340" class="agpayments-st2" d="M358.5 689.3c4.1 0 7.1.7 9.2 2.3 2.1 1.6 3 3.7 3 6.7 0 2.3-.5 4.1-1.4 6-.9 1.6-2.1 3-3.7 4.1s-3.5 1.8-5.8 2.3c-2.3.5-4.6.7-7.4.7H349l-3.2 12.9H341l8.3-34.3c1.4-.2 3-.5 4.4-.7h4.8zm-.5 4.2c-2.3 0-3.9 0-4.4.2l-3.2 13.8h3.2c1.4 0 2.8-.2 4.4-.5 1.4-.2 2.8-.7 3.9-1.4 1.2-.7 2.1-1.6 3-2.5.7-1.2 1.2-2.5 1.2-4.4 0-1.8-.7-3.2-2.1-4.1-1.6-.7-3.7-1.1-6-1.1z"/><path id="agpath8342" class="agpayments-st2" d="M400.3 689.8l-.9 4.1h-10.6l-7.4 30.6h-4.8l7.4-30.6h-10.6l.9-4.1h26z"/><path id="agpath8344" class="agpayments-st2" d="M396 724.3l8.3-34.7h20.5l-.9 4.1h-15.6l-2.5 10.6h14l-.9 3.9h-13.8l-3 12.2h16.8l-.9 4.1h-22v-.2z"/><path id="agpath8346" class="agpayments-st2" d="M439.2 689.3c5.1 0 9 1.2 11.5 3.7s3.9 5.8 3.9 9.9c0 2.8-.5 5.5-1.4 8.3-.9 2.8-2.3 5.1-4.1 7.1-1.8 2.1-4.4 3.7-7.4 4.8s-6.4 1.8-10.6 1.8c-1.4 0-3 0-4.6-.2-1.6-.2-3-.5-4.4-.7l8.1-33.8c1.4-.2 3-.5 4.4-.7 1.6-.2 3.2-.2 4.6-.2zm-.4 4.2c-2.5 0-3.9 0-4.6.2l-6.4 26.7c.2 0 .7.2 1.4.2h3.2c2.5 0 5.1-.5 7.1-1.4 2.1-.9 3.9-2.1 5.3-3.7s2.5-3.5 3.5-5.8c.7-2.3 1.2-4.6 1.2-7.1 0-3-.9-5.3-2.5-6.9-1.8-1.6-4.6-2.2-8.2-2.2z"/><path id="agpath8348" class="agpayments-st2" d="M491.9 724.3h-4.8l3.9-16.1h-16.1l-3.9 16.1h-4.8l8.3-34.7h4.8l-3.5 14.5h16.1l3.5-14.5h4.8l-8.3 34.7z"/><path id="agpath8350" class="agpayments-st2" d="M499.5 724.3l8.3-34.7h20.5l-.9 4.1h-15.6l-2.5 10.6h14l-.9 3.9h-13.8l-3 12.2h16.8l-.9 4.1h-21.9v-.2z"/><path id="agpath8352" class="agpayments-st2" d="M543 689.3c3.7 0 6.7.7 8.7 2.3 2.1 1.6 3.2 3.7 3.2 6.7s-.9 5.5-2.5 7.4c-1.6 2.1-4.1 3.5-7.1 4.4.5.7.9 1.6 1.4 2.8.5 1.2 1.2 2.3 1.6 3.7.5 1.4 1.2 2.8 1.6 4.1.5 1.4.9 2.8 1.4 4.1h-5.1c-.5-1.4-.9-2.5-1.4-3.9-.5-1.4-.9-2.5-1.6-3.7-.5-1.2-1.2-2.3-1.6-3.5-.5-1.2-.9-2.1-1.4-2.8H533.5l-3.2 13.6h-4.8l8.3-34.3c1.4-.2 3-.5 4.4-.7 1.8-.2 3.4-.2 4.8-.2zm-.7 4.2c-2.3 0-3.9 0-4.4.2l-3.2 13.1h3c1.4 0 2.8 0 4.1-.2 1.4-.2 2.8-.7 3.9-1.2 1.2-.7 2.1-1.4 3-2.5.7-1.2 1.2-2.5 1.2-4.1 0-1.8-.7-3.2-2.1-3.9-1.4-1-3.2-1.4-5.5-1.4z"/><path id="agpath8354" class="agpayments-st2" d="M555.4 724.3l8.3-34.7h20.5l-.9 4.1h-15.6l-2.5 10.6h14l-.9 3.9h-13.8l-3 12.2h16.8l-.9 4.1h-21.9v-.2z"/></g></g></g></symbol><symbol id="entropay--payments" viewBox="-439 302.5 640 187.9" xmlns="http://www.w3.org/2000/svg"><style>.ahpayments-st0{display:none}.ahpayments-st1{display:inline;fill:#fff}.ahpayments-st2{fill:#636467}.ahpayments-st3{fill:#eb652a}.ahpayments-st4{fill:#243885}.ahpayments-st5{fill:#f6a723}.ahpayments-st6{fill:none}</style><g id="ahBg" class="ahpayments-st0"><path class="ahpayments-st1" d="M-34 455h-170c-8.2 0-15-6.8-15-15v-87c0-8.2 6.8-15 15-15h170c8.2 0 15 6.8 15 15v87c0 8.2-6.8 15-15 15z"/></g><g id="ahLogo"><path class="ahpayments-st2" d="M-204.2 340.6c-14.9 0-26.3 12.2-26.3 28.2v.4c0 16.4 11.8 27.8 27.8 27.8 9.1 0 16.4-3.4 22.1-10.3l.4-.4-8-6.9h-.8c-4.6 4.2-8.4 6.1-13.7 6.1-7.6 0-13-4.6-14.5-12.2h38.5v-.8-3c0-14.4-8-28.9-25.5-28.9zm-.4 11.1c8 0 11.8 6.5 12.6 12.6h-26c1.6-7.7 6.9-12.6 13.4-12.6zM-141.3 340.6c-6.5 0-11.8 2.7-16 8v-6.9h-13.3v54.1h13.3v-30.5c0-7.6 4.6-12.6 11.4-12.6s10.7 4.2 10.7 12.2v30.5h13.3v-34.3c0-12.5-7.3-20.5-19.4-20.5zM-95.6 327.3h-13.3v14.5h-9.9v11.4h9.9v27.1c0 10.7 5.3 16 15.6 16 4.2 0 7.6-.8 11.1-2.7h.4v-11.1l-.8.4c-2.3 1.1-4.6 1.9-7.2 1.9-4.2 0-6.1-1.9-6.1-6.1v-25.5h14.1v-11.4H-96v-14.5h.4zM-43 340.6c-7.6 0-13.3 3.8-17.2 11.1v-9.9h-13v54.1h13.3v-20.6c0-13 6.5-20.2 17.5-20.2h1.1V341h-.4c-.5-.4-.9-.4-1.3-.4zM-10.2 340.6c-16 0-29 12.2-29 28.2v.4c0 15.6 12.6 27.8 28.6 27.8 16.4 0 29-12.2 29-28.2v-.4c0-15.6-12.6-27.8-28.6-27.8zm-15.7 27.8c0-9.5 6.5-16.4 15.2-16.4 8.8 0 15.6 7.2 15.6 16.4v.4c0 9.5-6.5 16-15.6 16-8.3.4-15.2-6.8-15.2-16.4z"/><path class="ahpayments-st3" d="M56.9 340.6c-7.2 0-13 3-17.5 8.8v-7.6H26V418h13.3v-29.4c4.6 5.7 10.3 8.4 17.5 8.4 12.6 0 25.2-9.5 25.2-27.8v-.4c-.4-18.7-12.9-28.2-25.1-28.2zm11.4 27.8c0 9.5-6.1 16.4-14.5 16.4s-14.9-6.9-14.9-16.4v-.4c0-9.1 6.5-16.4 14.9-16.4 8.4.4 14.5 7.7 14.5 16.8zM111.8 341c-9.1 0-15.2 1.9-20.2 4.2l-.4.4 3.4 10.7.4-.4c4.6-1.9 9.1-3.4 14.9-3.4 8.4 0 12.6 3.8 12.6 11.1v.8c-3.4-1.1-7.6-1.9-13.7-1.9-14.1 0-22.5 6.5-22.5 17.5v.4c0 11.4 9.9 16.8 19.4 16.8 6.9 0 12.6-2.3 16.8-6.9v5.7h13v-32c0-7.2-1.9-13-5.7-16.8-3.9-4.3-10-6.2-18-6.2zm-2.3 45.7c-6.1 0-9.9-3-9.9-7.2v-.4c0-5.3 4.6-8.4 11.8-8.4 5 0 9.1 1.1 11.4 1.9v3c0 6.6-5.7 11.1-13.3 11.1zM180.7 341.8l-13.3 38.1-14.5-38.1h-14.1l22.1 53.4-3 7.6c-1.9 3.8-3.8 5.3-6.9 5.3-2.3 0-4.6-.8-6.9-1.9l-.4-.4-4.6 9.9.4.4c4.2 2.3 8 3.4 13 3.4 8.4 0 13.3-3.4 17.5-13.3l25.2-64.4h-14.5z"/><path class="ahpayments-st2" d="M-304.5 302.9c-19.1 0-35.8 11.4-43.5 27.4l-16.8 35.8c-5.3 8.8-14.9 14.9-25.9 14.9-16.4 0-29.7-13.3-29.7-29.7s13.3-29.7 29.7-29.7c5 0 9.1 1.1 13.3 3l6.9-17.5c-6.1-3-13-4.6-20.2-4.6-26.7 0-48.4 21.7-48.4 48.4s21.7 48.4 48.4 48.4c16.8 0 31.6-8.8 40-21.7.8-1.9 1.9-3.4 3-5.3l16.4-34.7c5-9.9 14.9-16.8 26.7-16.8 16.4 0 29.7 13.3 29.7 29.7s-13.3 29.7-29.7 29.7c-5.7 0-11.1-1.5-15.6-4.6l-6.9 17.2c6.9 3.4 14.5 5.7 22.5 5.7 26.7 0 48.4-21.7 48.4-48.4s-21.6-47.2-48.3-47.2z"/><g><path class="ahpayments-st2" d="M-88.7 437h1.9v1.9h-1.9V437zm0 4.6h1.9v11.8h-1.9v-11.8zM-83.4 441.6h1.9v1.9c.8-1.1 1.9-2.3 4.2-2.3 3 0 4.6 1.9 4.6 5v7.2h-1.9v-6.9c0-2.3-1.1-3.4-3.4-3.4-1.9 0-3.4 1.5-3.4 3.8v6.9h-1.9c-.1 0-.1-12.2-.1-12.2zM-64.7 450c0-2.7 1.9-3.8 5-3.8 1.5 0 2.7.4 3.8.4v-.4c0-2.3-1.1-3.4-3.4-3.4-1.5 0-2.7.4-3.4.8l-.4-1.5c1.1-.8 2.7-1.1 4.2-1.1s3 .4 3.8 1.1 1.1 1.9 1.1 3.4v7.2h-1.5v-1.9c-.8 1.1-2.3 1.9-4.2 1.9-2.7 1.1-5-.4-5-2.7zm8.7-1.1v-1.1c-.8-.4-1.9-.4-3.4-.4-2.3 0-3.4 1.1-3.4 2.3 0 1.5 1.5 2.3 3 2.3 2.3.3 3.8-1.2 3.8-3.1zM-52.2 451.9l.8-1.1c1.1 1.1 2.7 1.5 4.2 1.5s2.3-.8 2.3-1.9c0-1.1-1.5-1.5-3-2.3-1.9-.4-3.8-1.1-3.8-3.4 0-1.9 1.5-3.4 4.2-3.4 1.5 0 3 .4 4.2 1.1l-.8 1.5c-1.1-.8-2.3-1.1-3.4-1.1-1.5 0-2.3.8-2.3 1.9 0 1.1 1.5 1.5 3 1.9 1.9.4 3.8 1.1 3.8 3.4s-1.9 3.4-4.2 3.4c-1.5 0-3.4-.3-5-1.5zM-41.5 451.9l.8-1.1c1.1 1.1 2.7 1.5 4.2 1.5s2.3-.8 2.3-1.9c0-1.1-1.5-1.5-3-2.3-1.9-.4-3.8-1.1-3.8-3.4 0-1.9 1.5-3.4 4.2-3.4 1.5 0 3 .4 4.2 1.1l-.8 1.5c-1.1-.8-2.3-1.1-3.4-1.1-1.5 0-2.3.8-2.3 1.9 0 1.1 1.5 1.5 3 1.9 1.9.4 3.8 1.1 3.8 3.4s-1.9 3.4-4.2 3.4c-1.9 0-3.8-.3-5-1.5zM-30.4 447.3c0-3.4 2.7-6.1 6.1-6.1s6.1 2.7 6.1 6.1c0 3.4-2.7 6.1-6.1 6.1-3.5.4-6.1-2.6-6.1-6.1zm10.6 0c0-2.7-1.9-4.6-4.6-4.6s-4.2 2.3-4.2 4.6c0 2.7 1.9 4.6 4.6 4.6 2.3 0 4.2-1.9 4.2-4.6zM-16.3 447.3c0-3.4 2.7-6.1 6.1-6.1 2.3 0 3.8.8 5 2.3l-1.1 1.1c-.8-1.1-1.9-1.9-3.4-1.9-2.3 0-4.2 1.9-4.2 4.6 0 2.7 1.9 4.6 4.2 4.6 1.5 0 2.7-.8 3.8-1.9l1.1 1.1c-1.1 1.5-2.7 2.3-5 2.3-3.9.4-6.5-2.6-6.5-6.1zM-3 437h1.9v1.9H-3V437zm0 4.6h1.9v11.8H-3v-11.8zM1.6 450c0-2.7 1.9-3.8 5-3.8 1.5 0 2.7.4 3.8.4v-.4c0-2.3-1.1-3.4-3.4-3.4-1.5 0-2.7.4-3.4.8l-.5-1.6c1.1-.8 2.7-1.1 4.2-1.1s3 .4 3.8 1.1c.8.8 1.1 1.9 1.1 3.4v7.2h-1.5v-1.9c-.8 1.1-2.3 1.9-4.2 1.9-3 1.2-4.9-.3-4.9-2.6zm8.8-1.1v-1.1c-.8-.4-1.9-.4-3.4-.4-2.3 0-3.4 1.1-3.4 2.3 0 1.5 1.5 2.3 3 2.3 1.9.3 3.8-1.2 3.8-3.1zM15.3 450.4v-7.2h-1.5v-1.5h1.5v-3.4h1.9v3.4H21v1.5h-3.8v6.9c0 1.5.8 1.9 1.9 1.9.8 0 1.1 0 1.9-.4v1.5c-.8.4-1.1.4-2.3.4-1.9-.1-3.4-.8-3.4-3.1zM23.7 437h1.9v1.9h-1.9V437zm0 4.6h1.9v11.8h-1.9v-11.8zM28.3 447.3c0-3.4 2.7-6.1 6.1-6.1 3.4 0 6.1 2.7 6.1 6.1 0 3.4-2.7 6.1-6.1 6.1-3.8.4-6.1-2.6-6.1-6.1zm10.3 0c0-2.7-1.9-4.6-4.6-4.6s-4.2 2.3-4.2 4.6c0 2.7 1.9 4.6 4.6 4.6s4.2-1.9 4.2-4.6zM43.1 441.6H45v1.9c.8-1.1 1.9-2.3 4.2-2.3 3 0 4.6 1.9 4.6 5v7.2h-1.9v-6.9c0-2.3-1.1-3.4-3.4-3.4-1.9 0-3.4 1.5-3.4 3.8v6.9h-1.9l-.1-12.2zM61.8 441.6h1.9l3 9.5 3-9.5h1.5l3 9.5 3-9.5h1.9l-4.2 12.2h-1.5l-3-9.5-3 9.5H66l-4.2-12.2zM82 437h1.9v1.9H82V437zm0 4.6h1.9v11.8H82v-11.8zM88.1 450.4v-7.2h-1.5v-1.5h1.5v-3.4H90v3.4h3.8v1.5H90v6.9c0 1.5.8 1.9 1.9 1.9.8 0 1.1 0 1.9-.4v1.5c-.8.4-1.1.4-2.3.4-2.2-.1-3.4-.8-3.4-3.1zM96.1 436.7H98v6.9c.8-1.1 1.9-2.3 4.2-2.3 3 0 4.6 1.9 4.6 5v7.2h-1.9v-6.9c0-2.3-1.1-3.4-3.4-3.4-1.9 0-3.4 1.5-3.4 3.8v6.9h-1.9l-.1-17.2z"/></g><g><path class="ahpayments-st4" d="M147.2 453.8h-6.5l4.2-25.5h6.5zM135 428.3l-6.5 17.5-.8-3.8-2.3-11.4s-.4-2.3-3-2.3h-10.7v.4s3 .8 6.9 3l5.7 22.1h6.9l10.7-25.5H135zM187.2 453.8h6.1l-5.3-25.5h-5.3c-2.3 0-3 1.9-3 1.9l-9.9 23.6h6.9l1.5-3.8h8.4l.6 3.8zm-7.2-9.1l3.4-9.5 1.9 9.5H180zM170.5 434.4l.8-5.3s-3-1.1-6.1-1.1c-3.4 0-11.1 1.5-11.1 8.4 0 6.5 9.1 6.9 9.1 10.3 0 3.4-8.4 2.7-11.1.8l-1.1 5.7s3 1.5 7.6 1.5 11.4-2.3 11.4-8.8c0-6.5-9.1-7.2-9.1-10.3 0-3.1 6.5-2.7 9.6-1.2z"/><path class="ahpayments-st5" d="M127.8 442l-2.3-11.4s-.4-2.3-3-2.3h-10.7v.4s5 1.1 9.9 5c4.5 3.7 6.1 8.3 6.1 8.3z"/></g><path class="ahpayments-st6" d="M104.1 393.6h96.8v96.8h-96.8z"/><path class="ahpayments-st3" d="M-369.7 305.9l-23.6 57.2h18.7l23.6-57.2zM-331.2 357.8l-23.2 56.8h18.6l23.3-56.8z"/></g></symbol><symbol viewBox="-325 205.9 640 383.2" id="master-card--payments" xmlns="http://www.w3.org/2000/svg"><path d="M315 397.5c0 105.8-85.7 191.6-191.5 191.6S-68 503.4-68.1 397.6v-.1c0-105.8 85.7-191.6 191.5-191.6S315 291.6 315 397.5c0-.1 0 0 0 0z" fill="#f90"/><path d="M-134.7 206c-105.2.6-190.3 86.2-190.3 191.5 0 105.7 85.8 191.5 191.5 191.5 49.6 0 94.9-18.9 128.9-49.9 7-6.4 13.5-13.2 19.4-20.5h-39.2c-5.2-6.3-10-12.9-14.3-19.7H29c4.1-6.6 7.8-13.4 11.1-20.5h-90c-3.1-6.6-5.7-13.3-8-20.1h106c6.4-19.1 9.9-39.5 9.9-60.7 0-14.1-1.5-27.8-4.4-41h-117c1.5-6.8 3.3-13.5 5.5-20.1h106c-2.4-7-5.1-13.9-8.3-20.5h-89.6c3.2-6.9 6.9-13.6 11-20.1h67.6c-4.5-7.2-9.5-14-14.9-20.5h-37.7c5.8-6.9 12.2-13.3 19.2-19.3-34-31-79.3-49.9-128.9-49.9-.4-.2-.8-.2-1.2-.2z" fill="#c00"/><path d="M295.8 497.6c1 0 2.1.3 3 .8 1 .5 1.8 1.3 2.3 2.3.6 1 .8 2 .8 3.1s-.3 2.1-.8 3.1-1.3 1.8-2.3 2.3c-1 .5-2 .8-3.1.8s-2.1-.3-3.1-.8-1.7-1.3-2.3-2.3c-.5-1-.8-2-.8-3.1s.3-2.1.8-3.1c.6-1 1.3-1.8 2.3-2.3 1.1-.5 2.1-.8 3.2-.8m0 1.1c-.9 0-1.7.2-2.5.7-.8.4-1.5 1.1-1.9 1.9-.5.8-.7 1.7-.7 2.6 0 .9.2 1.8.7 2.6.5.8 1.1 1.5 1.9 1.9.8.5 1.7.7 2.6.7.9 0 1.8-.2 2.6-.7.8-.5 1.5-1.1 1.9-1.9.5-.8.7-1.7.7-2.6 0-.9-.2-1.8-.7-2.6-.5-.8-1.1-1.5-1.9-1.9-1-.5-1.8-.7-2.7-.7m-2.7 8.5v-6.7h2.3c.8 0 1.3.1 1.7.2.4.1.6.3.8.6.2.3.3.6.3 1 0 .5-.2.9-.5 1.3s-.8.6-1.4.6c.2.1.4.2.6.4.3.3.6.7 1 1.3l.8 1.3h-1.3l-.6-1c-.5-.8-.8-1.3-1.1-1.6-.2-.1-.5-.2-.9-.2h-.6v2.8h-1.1m1-3.7h1.3c.6 0 1-.1 1.3-.3.2-.2.3-.4.3-.7 0-.2-.1-.4-.2-.5-.1-.2-.3-.3-.5-.4-.2-.1-.6-.1-1.1-.1H294l.1 2" fill="#fcb340"/><g><g transform="translate(-13.744 15.994)"><path d="M-56.2 436.5l2.6-17.3c-1.4 0-3.4.6-5.3.6-7.1 0-8-3.8-7.4-6.6l7-34.9h10.8l2.2-19.7h-10.2l2.1-11.9h-21.3c-.4.4-12 67.1-12 75.2 0 12 6.7 17.4 16.2 17.3 7.5-.1 13.3-2.2 15.3-2.7zM-49.7 403.4c0 28.8 19 35.7 35.2 35.7 15 0 22.8-3.5 22.8-3.5l3.6-19.7S-.7 421-11 421c-21.9 0-18.1-16.3-18.1-16.3l42.1.1s2.7-13.2 2.7-18.6c0-13.4-7.3-29.9-29.7-29.9-20.5 0-35.7 22.1-35.7 47.1zm35.8-28.8c11.5 0 9.4 12.9 9.4 14h-22.6c-.1-1.4 2-14 13.2-14zM115.2 436.5l3.7-22.2s-10 5-16.9 5c-14.5 0-20.3-11-20.3-22.9 0-24.1 12.4-37.3 26.3-37.3 10.4 0 18.7 5.8 18.7 5.8l3.3-21.6s-9.8-7.1-20.4-7.2c-31.9-.1-50.1 22.1-50.1 60.4 0 25.4 13.5 42.7 37.8 42.7 6.9 0 17.9-2.7 17.9-2.7zM-168.3 356.7c-14 0-24.7 4.5-24.7 4.5l-3 17.6s8.8-3.6 22.2-3.6c7.6 0 13.1.9 13.1 7 0 3.7-.7 5.1-.7 5.1s-6-.5-8.8-.5c-19.9 0-36.2 7.5-36.2 30.2 0 17.9 12.2 22 19.7 22 14.4 0 20.1-9.1 20.4-9.1l-.2 7.5h18l8-56.2c.2-23.8-20.6-24.5-27.8-24.5zm3.1 45.6c.4 3.4-.9 19.6-13.2 19.6-6.3 0-8-4.8-8-7.7 0-5.6 3-12.3 18-12.3 3.5 0 2.6.3 3.2.4zM-121.2 438.6c4.6 0 30.9 1.2 30.9-25.9 0-25.3-24.3-20.3-24.3-30.5 0-5.1 4-6.7 11.2-6.7 2.9 0 13.9.9 13.9.9l2.6-18s-7.2-1.6-18.8-1.6c-15.1 0-30.4 6-30.4 26.6 0 23.4 25.5 21 25.5 30.8 0 6.6-7.1 7.1-12.6 7.1-9.5 0-18.1-3.3-18.1-3.1L-144 436c.4.2 5.7 2.6 22.8 2.6zM283.4 340.3l-3.7 27.5s-7.7-10.6-19.7-10.6c-22.6 0-34.3 22.5-34.3 48.4 0 16.7 8.3 33.1 25.3 33.1 12.2 0 19-8.5 19-8.5l-.9 7.3H289l15.6-97-21.2-.2zm-8.7 53.4c0 10.8-5.3 25.2-16.4 25.2-7.3 0-10.8-6.2-10.8-15.8 0-15.8 7.1-26.2 16.1-26.2 7.3-.1 11.1 4.9 11.1 16.8zM-278.7 437.5l12.4-73.2 1.8 73.2h14l26.2-73.2-11.6 73.2h20.9l16.1-97.1-33.2-.3-19.7 59.5-.5-59.2h-30.4l-16.3 97.1h20.3z" fill="#006"/><path d="M35.5 437.7c5.9-33.8 8.1-60.4 25.4-54.9 2.5-13.1 8.4-24.4 11.1-30 0 0-.9-1.3-6.2-1.3-9.1 0-21.3 18.5-21.3 18.5l1.8-11.5h-19l-12.7 79 20.9.2zM157.9 356.7c-14 0-24.7 4.5-24.7 4.5l-3 17.6s8.9-3.6 22.2-3.6c7.6 0 13.1.9 13.1 7 0 3.7-.7 5.1-.7 5.1s-6-.5-8.8-.5c-19.9 0-36.2 7.5-36.2 30.2 0 17.9 12.2 22 19.7 22 14.4 0 20.1-9.1 20.4-9.1l-.2 7.5h18l8-56.2c.2-23.8-20.6-24.5-27.8-24.5zm3.1 45.6c.4 3.4-.9 19.6-13.2 19.6-6.3 0-8-4.8-8-7.7 0-5.6 3-12.3 18-12.3 3.5 0 2.6.3 3.2.4zM206.6 437.7c3.3-24.8 9.3-59.7 25.4-54.9 2.5-13.1.1-13-5.3-13-9.1 0-11.2.3-11.2.3l1.8-11.5h-19l-12.7 79 21 .1z" fill="#006"/></g><path d="M-64.6 446.3L-62 429c-1.4 0-3.4.6-5.3.6-7.1 0-7.9-3.8-7.4-6.6l5.7-35.4h10.8l2.6-19.2h-10.2l2.1-11.9h-20.4c-.4.4-12 67.1-12 75.2 0 12 6.7 17.4 16.2 17.3 7.5-.1 13.3-2.2 15.3-2.7zM-58.1 413.2c0 28.8 19 35.7 35.2 35.7 15 0 21.5-3.3 21.5-3.3l3.6-19.7s-11.4 5-21.7 5c-21.9 0-18.1-16.3-18.1-16.3H4s2.7-13.2 2.7-18.6c0-13.4-6.7-29.8-29.1-29.8-20.5 0-35.7 22-35.7 47zm35.7-28.8c11.5 0 9.4 12.9 9.4 14h-22.6c0-1.3 2.1-14 13.2-14zM106.8 446.3l3.6-22.2s-10 5-16.9 5c-14.5 0-20.3-11-20.3-22.9 0-24.1 12.4-37.3 26.3-37.3 10.4 0 18.7 5.8 18.7 5.8l3.3-21.6s-12.4-5-23-5c-23.5 0-46.4 20.4-46.4 58.8 0 25.4 12.4 42.2 36.7 42.2 7 0 18-2.8 18-2.8zM-176.8 366.5c-14 0-24.7 4.5-24.7 4.5l-3 17.6s8.8-3.6 22.2-3.6c7.6 0 13.1.9 13.1 7 0 3.7-.7 5.1-.7 5.1s-6-.5-8.8-.5c-17.6 0-36.2 7.5-36.2 30.2 0 17.9 12.2 22 19.7 22 14.4 0 20.6-9.3 20.9-9.4l-.7 7.8h18l8-56.2c.3-23.8-20.5-24.5-27.8-24.5zm4.4 45.7c.4 3.4-2.2 19.5-14.4 19.5-6.3 0-8-4.8-8-7.7 0-5.6 3-12.3 18-12.3 3.5 0 3.8.4 4.4.5zM-129.7 448.4c4.6 0 30.9 1.2 30.9-25.9 0-25.3-24.3-20.3-24.3-30.5 0-5.1 4-6.7 11.2-6.7 2.9 0 13.9.9 13.9.9l2.6-18s-7.2-1.6-18.8-1.6c-15.1 0-30.4 6-30.4 26.6 0 23.3 25.5 21 25.5 30.8 0 6.6-7.1 7.1-12.6 7.1-9.5 0-18.1-3.3-18.1-3.1l-2.7 17.8c.4.2 5.7 2.6 22.8 2.6zM275.7 350.3l-4.4 27.3s-7.7-10.6-19.7-10.6c-18.7 0-34.3 22.5-34.3 48.4 0 16.7 8.3 33.1 25.3 33.1 12.2 0 19-8.5 19-8.5l-.9 7.3h19.8l15.6-97h-20.4zm-9.5 53.2c0 10.8-5.3 25.2-16.4 25.2-7.3 0-10.8-6.2-10.8-15.8 0-15.8 7.1-26.2 16.1-26.2 7.4-.1 11.1 5 11.1 16.8zM-287.2 447.3l12.4-73.2 1.8 73.2h14.1l26.2-73.2-11.6 73.2h20.9l16.1-97.1h-32.3l-20.1 59.6-1-59.6h-29.8l-16.3 97.1h19.6zM27 447.5c5.9-33.8 7-61.2 21.2-56.1 2.5-13.1 4.9-18.1 7.6-23.6 0 0-1.3-.3-3.9-.3C42.8 367.5 36 380 36 380l1.8-11.5h-19l-12.7 79H27zM153.806 366.5c-14 0-24.7 4.5-24.7 4.5l-3 17.6s8.8-3.6 22.2-3.6c7.6 0 13.1.9 13.1 7 0 3.7-.7 5.1-.7 5.1s-6-.5-8.8-.5c-17.6 0-36.2 7.5-36.2 30.2 0 17.9 12.2 22 19.7 22 14.4 0 20.6-9.3 20.9-9.4l-.7 7.8h18l8-56.2c.2-23.8-20.6-24.5-27.8-24.5zm4.4 45.7c.4 3.4-2.2 19.5-14.4 19.5-6.3 0-8-4.8-8-7.7 0-5.6 3-12.3 18-12.3 3.4 0 3.8.4 4.4.5zM198.286 447.5c5.9-33.8 7-61.2 21.2-56.1 2.5-13.1 4.9-18.1 7.6-23.6 0 0-1.3-.3-3.9-.3-9.1 0-15.9 12.5-15.9 12.5l1.8-11.5h-19l-12.7 79h20.9zM295.7 435.3c1 0 2.1.3 3 .8 1 .5 1.8 1.3 2.3 2.3.6 1 .8 2 .8 3.1s-.3 2.1-.8 3.1-1.3 1.8-2.3 2.3c-1 .5-2 .8-3.1.8s-2.1-.3-3.1-.8-1.7-1.3-2.3-2.3c-.6-1-.8-2-.8-3.1s.3-2.1.8-3.1c.6-1 1.3-1.8 2.3-2.3 1.1-.6 2.2-.8 3.2-.8m0 1c-.9 0-1.7.2-2.5.7-.8.4-1.5 1.1-1.9 1.9-.5.8-.7 1.7-.7 2.6 0 .9.2 1.8.7 2.6.5.8 1.1 1.5 1.9 1.9.8.4 1.7.7 2.6.7.9 0 1.8-.2 2.6-.7.8-.5 1.5-1.1 1.9-1.9.5-.8.7-1.7.7-2.6 0-.9-.2-1.8-.7-2.6-.5-.8-1.1-1.5-1.9-1.9-1-.5-1.8-.7-2.7-.7m-2.7 8.6v-6.7h2.3c.8 0 1.4.1 1.7.2.4.1.6.3.8.6.2.3.3.6.3 1 0 .5-.2.9-.5 1.3s-.8.6-1.4.6c.2.1.4.2.6.4.3.3.6.7 1 1.3l.8 1.3h-1.3l-.6-1c-.5-.8-.8-1.3-1.1-1.6-.2-.2-.5-.2-.9-.2h-.6v2.8H293m1.1-3.8h1.3c.6 0 1-.1 1.3-.3.2-.2.3-.4.3-.7 0-.2-.1-.4-.2-.5-.1-.2-.3-.3-.5-.4-.2-.1-.5-.1-1.1-.1H294l.1 2" fill="#fff"/></g></symbol><symbol viewBox="-257 -153.5 640 382.9" id="master-maestro--payments" xmlns="http://www.w3.org/2000/svg"><g transform="translate(-457.205 -631.077)"><path d="M520.2 811c38.7-35 62.9-85.7 62.9-141.9 0-56.3-24.2-106.9-62.9-141.9-33.9-30.8-79.1-49.5-128.4-49.5-105.9 0-191.6 85.7-191.6 191.4 0 105.8 85.7 191.5 191.6 191.5 49.3-.1 94.5-18.8 128.4-49.6" fill="#0066cb"/><path d="M520.2 811c38.7-35 62.9-85.7 62.9-141.9 0-56.3-24.2-106.9-62.9-141.9" fill="#0066cb"/><path d="M520.2 811c38.7-35 62.9-85.7 62.9-141.9 0-56.3-24.2-106.9-62.9-141.9" fill="none" stroke="#0066cb" stroke-width=".31"/><path d="M648.9 477.6c-49.5 0-94.8 18.7-128.7 49.5-6.8 6.3-13.4 13.1-19.4 20.3h38.7c5.4 6.4 10.3 13.2 14.5 20.3h-67.8c-4 6.5-7.7 13.3-11.1 20.3h90c3.1 6.6 5.7 13.3 8 20.3H467.2c-2.3 6.6-4.3 13.3-5.7 20.3h117.3c2.8 13.1 4.3 26.6 4.3 40.5 0 21.3-3.4 41.7-10 60.8H467.3c2.3 7 4.8 13.7 8 20.3h90c-3.4 7-6.8 13.8-11.1 20.3h-67.8c4.3 7.1 9.4 13.8 14.5 20.3h38.7c-6 7.2-12.5 14-19.4 20.3 33.9 30.8 79.1 49.5 128.7 49.5 105.6 0 191.3-85.7 191.3-191.5s-85.7-191.5-191.3-191.5" fill="#cc0001"/><path d="M820 775.4h.9c.3 0 .6 0 .6-.1.3-.2.6-.4.6-.6 0-.2-.3-.5-.6-.6 0-.1-.6-.1-.6-.1h-.9v1.4zm0 3.1h-1.1v-5.4h2.3c.6 0 .9 0 1.4.3.3.3.6.8.6 1.4 0 .6-.3 1.2-.9 1.4l.9 2.4h-1.4l-.6-2.2H820v2.1zm.8 2c2.6 0 4.8-2.1 4.8-4.7s-2.3-4.7-4.8-4.7c-2.6 0-4.6 2.1-4.6 4.7.1 2.6 2.1 4.7 4.6 4.7zm-6.2-4.7c0-3.4 2.8-6.2 6.3-6.2 3.4 0 6.3 2.8 6.3 6.2 0 3.4-2.8 6.2-6.3 6.2s-6.3-2.8-6.3-6.2M361.9 722.3h-24.2l14.2-74.6-32.7 74.6h-19.9l-4-74.2-15.9 74.2h-21.9l18.5-97.1h37.9l.6 60.1 26.2-60.1h40.1l-18.9 97.1M628.1 721.4c-6.5 1.8-11.7 2.6-17.1 2.6-12.2 0-18.8-6.1-18.8-17.3 0-2.2 0-4.6.6-7.1l1.4-7.7 1.1-6.2 11.1-60.3H630l-3.4 18.1h12.2l-3.4 19.2h-12.2l-6.3 32.9c-.3 1.5-.3 2.5-.3 3.3 0 4.1 2.3 5.9 8 5.9 2.8 0 4.8-.2 6.5-.7l-3 17.3M533.6 668.3c0 10 5.4 16.8 18.2 22 9.7 4 11.4 5.1 11.4 8.7 0 4.9-4.3 7.1-13.9 7.1-7.1 0-14-1-21.6-3.1l-3.1 18.2.9.2 4.6.8c1.4.2 3.4.5 6.3.7 5.7.4 10.2.7 13.4.7 25.3 0 37-8.4 37-26.4 0-10.8-4.8-17.2-16.8-22-10.2-4-11.4-4.9-11.4-8.6 0-4.3 4-6.5 11.7-6.5 4.8 0 11.4.5 17.4 1.2l3.4-18.3c-6.3-.9-15.7-1.6-21.1-1.6-27.3.2-36.7 12.4-36.4 26.9M422.8 687.2c-2.6-.3-3.7-.3-5.4-.3-13.4 0-20.2 4-20.2 12 0 4.9 3.4 8.1 8.5 8.1 9.7-.1 16.9-8.2 17.1-19.8zm16.3 35.1h-19.9l.6-8.2c-6.3 6.5-14.2 9.6-25.1 9.6-13.1 0-21.9-8.8-21.9-21.5 0-19.2 15.4-30.4 41.8-30.4 2.8 0 6.3.2 9.7.6.9-2.6 1.1-3.7 1.1-5.1 0-5.2-4.3-7.2-15.4-7.2-6.8 0-14.5.9-19.9 2.2l-3.1.7-2.3.5 3.4-17.7c12-3 19.6-4.2 28.5-4.2 20.5 0 31.3 8 31.3 23.2 0 3.9-.3 6.8-2 15.6l-4.8 28-.9 5-.6 4-.6 2.8.1 2.1M505.7 673.6c0-1.6.3-3 .3-4 0-6.4-4.3-10.2-11.4-10.2-7.7 0-13.1 5.1-15.1 14.2h26.2zm11.7 47c-8.3 2.2-16.2 3.2-24.5 3.2-26.8 0-40.4-12.1-40.4-35.3 0-27.1 17.7-47.1 41.6-47.1 19.6 0 32.2 11.2 32.2 28.7 0 5.8-.9 11.5-3.1 19.5h-47.3c-.3 1.2-.3 1.8-.3 2.5 0 9.1 7.1 13.8 21.1 13.8 8.5 0 16.2-1.5 24.8-5l-4.1 19.7M747.4 677.1c0-8.2-3.4-16.1-13.1-16.1-12.2 0-19.6 14.4-19.6 27.1 0 10.7 5.1 17.9 13.7 17.7 5.1 0 16.2-7 18.2-19.3.5-2.8.8-6 .8-9.4zm24.2 9.5c-3.4 26.2-21.9 37.9-46.4 37.9-26.8 0-37.6-16.3-37.6-36.4 0-28 18.2-46.9 46.7-46.9 24.8 0 37.9 15.6 37.9 35.6 0 4.8 0 5.2-.6 9.8" fill="#231f20"/><path d="M779.6 710.2h.9s.3 0 .6-.1.3-.4.3-.6c0-.2 0-.4-.3-.5 0-.1-.6-.1-.9-.1h-.6v1.3zm0 3.1h-1.1v-5.4h2.3c.3 0 .9 0 1.4.3.3.3.6.8.6 1.4 0 .6-.3 1.2-.9 1.4l.9 2.4h-1.4l-.9-2.1h-.8v2h-.1zm.8 2c2.6 0 4.6-2.1 4.6-4.7s-2-4.7-4.6-4.7c-2.6 0-4.8 2.1-4.8 4.7s2.3 4.7 4.8 4.7zm-6.2-4.8c0-3.4 2.8-6.1 6.3-6.1 3.4 0 6.3 2.8 6.3 6.1 0 3.4-2.8 6.2-6.3 6.2s-6.3-2.7-6.3-6.2M367.9 716.7H344l14.2-74.6-32.7 74.6h-21.6l-4-74.2-14.2 74.2H264l18.5-97.1h37.3l1.7 60.1 26.5-60.1h38.7l-18.8 97.1M634.1 715.8c-6.5 1.8-11.7 2.6-17.1 2.6-12.2 0-18.8-6.1-18.8-17.3 0-2.2.3-4.6.6-7.1l1.4-7.7 1.1-6.3 11.1-60.3H636l-3.4 18.1h12.2l-3.4 19.2h-12.2l-6.3 32.9c-.3 1.4-.3 2.5-.3 3.3 0 4.1 2.6 5.8 8.3 5.8 2.6 0 4.6-.2 6.3-.7l-3.1 17.5" fill="#fff"/><path d="M695.3 660.5l-.6-2.5 4.8-12.4c-1.1-.1-1.7-.2-1.7-.2-1.4-.3-2-.4-2.3-.4-.6-.2-1.4-.2-2.3-.2-8 0-13.4 3.5-20.8 12.8l2.6-14h-24.8l-14.5 78.8h23.6c3.1-18.1 4.6-28.4 6.5-36.9 3.1-14.2 13.7-20.6 21.4-19.2.9.2 1.4.2 2.6.6l1.4.5 4.1-6.9" fill="#231f20"/><path d="M703.5 638.5c-2-.8-2.3-.8-2.6-.9-1.1-.3-2-.4-2-.5-.9-.1-1.7-.2-2.6-.2-7.7 0-13.4 3.5-20.8 12.8l2.3-12h-21.6l-14.5 78.9h23.9c8.5-48.3 12.2-56.7 23.6-56.7.9 0 1.7.1 2.8.2l2.8.6 8.7-22.2M539.6 662.8c0 10 5.7 16.8 18.5 22 9.7 3.9 11.1 5.1 11.1 8.7 0 4.9-4.3 7.1-13.7 7.1-7.4 0-14-1-21.6-3.1l-3.4 18.2 1.1.2 4.3.8c1.4.3 3.7.5 6.5.7 5.7.4 10 .7 13.1.7 25.6 0 37.3-8.3 37.3-26.3 0-10.8-4.8-17.2-17.1-22-10-4-11.1-4.9-11.1-8.6 0-4.2 4-6.4 11.7-6.4 4.8 0 11.1.4 17.4 1.2l3.4-18.3c-6.3-.9-15.7-1.6-21.3-1.6-26.8-.1-36.2 12.1-36.2 26.7M428 681.6c-2.6-.3-3.7-.3-5.4-.3-13.4 0-20.2 4-20.2 12 0 4.9 3.1 8.1 8.5 8.1 9.7-.1 16.5-8.2 17.1-19.8zm17.3 35.1h-19.9l.6-8.2c-6 6.5-14.2 9.5-25.1 9.5-12.8 0-21.6-8.8-21.6-21.5 0-19.2 15.4-30.4 41.8-30.4 2.6 0 6 .2 9.7.6.6-2.6.9-3.7.9-5.1 0-5.2-4.3-7.2-15.4-7.2-6.8 0-14.5.8-19.6 2.2l-3.4.9-2 .5 3.1-17.8c12-3 19.6-4.2 28.5-4.2 20.5 0 31.3 8 31.3 23.1 0 3.9-.3 6.8-1.7 15.6l-5.1 28-.9 5-.6 4-.3 2.7-.3 2.3M510.8 668.1v-4c0-6.4-4-10.2-11.1-10.2-7.7 0-13.1 5-15.4 14.2h26.5zm12.5 47c-8 2.1-15.9 3.2-24.2 3.2-26.8 0-40.7-12.1-40.7-35.4 0-27.1 17.6-47 41.6-47 19.6 0 32.2 11.2 32.2 28.7 0 5.8-.9 11.5-2.9 19.5H482c-.3 1.2-.3 1.8-.3 2.5 0 9.1 7.1 13.8 20.8 13.8 8.5 0 16.2-1.6 24.8-5l-4 19.7M753.1 670.8c0-8.2-3.4-16.1-13.1-16.1-12.2 0-19.6 14.4-19.6 27.1 0 10.7 5.1 17.9 13.7 17.8 5.1 0 16.2-7 18.2-19.3.5-2.9.8-6 .8-9.5zm24.8 10.2c-3.7 26.2-21.9 37.9-46.4 37.9-27 0-37.9-16.4-37.9-36.4 0-28 18.5-46.9 47-46.9 24.8 0 37.9 15.6 37.9 35.6-.1 4.9-.1 5.2-.6 9.8" fill="#fff"/></g></symbol><symbol id="moneyBookers--payments" viewBox="-400.6 579.4 640 218.9" xmlns="http://www.w3.org/2000/svg"><style>.akpayments-st0{fill:#862165}</style><g id="aklayer1" transform="translate(-99.432 -280.319)"><g id="akg2993" transform="matrix(1.25 0 0 -1.25 83.303 453.981)"><g id="akg2995"><g id="akg2997" transform="matrix(1.38138 0 0 1.38138 -5.532 -5.219)"><g id="akg3003" transform="translate(137.09 89.189)"><path id="akpath3005" class="akpayments-st0" d="M-89.6-350.7c8.3 0 15.2 6.8 15.2 15.2s-6.8 15.2-15.2 15.2-15.2-6.8-15.2-15.2c0-8.5 6.9-15.2 15.2-15.2m-116.5-8.2c-.7-1.7-5.6-15.7-17.5-30.2v61.9l-31.9-6.3v-112.1h31.9v34.6c9.2-13.8 13.8-34.6 13.8-34.6h38.1c-3.8 15.7-20.3 44.7-20.3 44.7 14.7 18.8 21.3 38.8 22.4 42.2 0-.2-36.5-.2-36.5-.2zm83.8 1.1c-28.5-1-43-13.8-43-39.1v-48.7h31.2v39.8c0 15.2 1.9 21.7 20 22.4v25.3c-3.2.5-8.2.3-8.2.3m-186.6-13.5c-3.9.3-12.9.8-12.9 8.9 0 9.7 12.9 9.7 17.8 9.7 8.6 0 19.6-2.5 27.5-4.9 0 0 4.5-1.5 8.2-3.2l.4-.1v27l-.4.1c-9.3 3.3-20.2 6.4-40.3 6.4-34.8 0-47.2-20.3-47.2-37.6 0-10 4.3-33.5 44.1-36.3 3.3-.1 12.4-.7 12.4-9.2 0-7-7.4-11-19.6-11-13.5 0-26.6 3.5-34.6 6.7v-27.7c12-3.1 25.3-4.7 41.2-4.7 33.9 0 49.3 19.2 49.3 38.1-.2 21.8-17.3 35.9-45.9 37.8m203.9-74.4h30.9v86.5H-105v-86.5zm89 113v-112.8h30.9v118.4c0-.2-30.9-5.6-30.9-5.6zm-45.1 0l30.9 5.6v-118.4h-30.9v112.8z"/></g></g></g></g></g></symbol><symbol id="neteller--payments" viewBox="0 0 2250.1 383.1" xmlns="http://www.w3.org/2000/svg"><style>.alpayments-st0{fill:#8dc640}</style><path class="alpayments-st0" d="M1984.4 162.6c-12.1 8.4-29.6 12.6-53.5 12.6h-23.8l18.2-98.4h17.4c19.9 0 34.4 3.2 44.4 9.7 7.8 5.1 17.1 15.2 17.1 34.3.1 23-10.6 35.4-19.8 41.8M566.6 286.1H382.7l11.9-64.3H510l13.1-72.5H408.8l11-63.7h183.6l-36.8 200.5zM2083.5 30.4c-27-18.5-68-27.9-121.6-27.9h-140.5l-52.2 283.6h-184.1l11.8-64.3h110.9l13.2-72.3-110.8.2 11.9-64.1h114.2l15.2-83.1h-232l-49.6 269h-85.1l49.9-269h-121.3l-49.6 269h-82.9l50-269h-121.2l-52.4 283.6H872l11.7-64.3H995l13.1-71.9-111.2-.1 11.8-64.2h115.5l15.1-83.1H316.6l-41.1 224.7-82-224.8H67.7L0 369.3h120.1l41-230.9 79.5 230.9h430.6l52.3-283.6h67.4l-52.4 283.6h1132.9l32.8-179.1 53.2 179.1h120.2l-55-146.3 12.6-2.7c27.7-5.9 49.4-18.7 64.4-37.9 15.1-19.3 22.7-44.1 22.7-73.9 0-34.7-12.6-60.3-38.8-78.1M2182.6 325.9l16.4-.9c3.5-.2 6.2-.7 8.1-1.5 1.9-.8 3.4-2 4.3-3.7.9-1.6 1.4-3.4 1.3-5.2-.1-2.7-1.3-4.9-3.3-6.6-2.1-1.7-5.2-2.3-9.5-2.1l-18.2.9.9 19.1zm-6.1 32.6l-2.9-57.7 25.6-1.3c5.1-.3 9 .1 11.8 1 2.7.9 5 2.6 6.7 5.2 1.7 2.5 2.7 5.4 2.8 8.5.2 4.1-.9 7.6-3.4 10.6-2.5 2.9-6.5 4.9-12 6 2.1.9 3.7 1.7 4.7 2.6 2.3 1.9 4.6 4.4 6.7 7.4l10.8 15.2-9.5.5-8.2-11.6c-2.4-3.4-4.4-5.9-5.9-7.7-1.5-1.8-2.9-3-4.1-3.6-1.1-.7-2.4-1.1-3.5-1.4-.9-.1-2.3-.2-4.3 0l-8.8.4 1.3 25.6-7.8.3z"/><path class="alpayments-st0" d="M2151.5 330.6c-.6-11.9 3.5-23.4 11.5-32.2 8-8.9 19-14.1 31-14.7 24.6-1.3 45.7 17.7 46.9 42.4 0 .8.1 1.6.1 2.3 0 23.6-18.6 43.5-42.5 44.7-24.7 1.1-45.7-17.9-47-42.5m41.9-56.2c-14.4.8-27.6 7-37.2 17.7-9.6 10.7-14.6 24.5-13.8 38.9 1.6 29.7 26.9 52.6 56.6 51.1 29.6-1.5 52.6-26.9 51.1-56.6-1.6-29.7-26.9-52.6-56.7-51.1"/></symbol><symbol id="netellerBoku--payments" viewBox="0 0 816.3 383.4" xmlns="http://www.w3.org/2000/svg"><style>.ampayments-st0{fill:#64912b}.ampayments-st1{fill:#8dba4a}.ampayments-st2{fill:#fff}.ampayments-st3{fill:#e9661e}</style><g id="amLayer_3"><path class="ampayments-st0" d="M53.1 377.8c-26.3 0-47.7-21.4-47.7-47.7V54.5c0-26.3 21.4-47.7 47.7-47.7h710.2c26.3 0 47.7 21.4 47.7 47.7v275.6c0 26.3-21.4 47.7-47.7 47.7H53.1z"/><path class="ampayments-st1" d="M763.3 12c23.3 0 42.3 19 42.3 42.3v275.6c0 23.3-19 42.3-42.3 42.3H53.1c-23.3 0-42.3-19-42.3-42.3V54.5c0-23.3 19-42.3 42.3-42.3h710.2m0-10.8H53.1C23.7 1.4 0 25.1 0 54.5v275.6c0 29.3 23.7 53.1 53.1 53.1h710.2c29.3 0 53.1-23.7 53.1-53.1V54.5c-.2-29.4-23.9-53.1-53.1-53.1z"/></g><g id="amLayer_1_copy"><path class="ampayments-st2" d="M663.9 287.2c-.4 1.9-.8 4-1 5.9-1.5 8.5-3.2 17.2-4.7 25.8-.8 4.1-1.5 8.2-2.3 12.2-.1 1-.3.9-1.1 1H369.1c-1.9 0-1.9 0-1.5-1.9l5.4-29.1c1.5-8.5 3.2-17.1 4.7-25.6l2.7-14.4c0-.1 0-.4.1-.5.1-.5 0-.8-.5-.6h-15.7c-.4 0-.6.1-.8.6-.3 1.4-.5 2.8-.8 4.2-1.3 7.1-2.7 14.2-4 21.3-1.4 7.5-2.8 15-4.2 22.6-1.1 6.4-2.3 12.8-3.6 19.1-.3 1.1-.4 2.3-.6 3.3-.3 1-.3 1-1.3 1H242c-1.8 0-1.5.3-2-1.5-3.2-9.3-6.4-18.5-9.6-27.8-2-5.9-4.1-11.7-6.1-17.7-1.1-3.4-2.3-6.8-3.6-10.2-.1-.3-.1-.6-.5-.9-.3.4-.3.9-.4 1.4-1 6-2.2 12-3.2 17.9-1.3 7-2.4 13.9-3.7 20.9-1 5.6-2 11.2-3.1 17-.1 1-.3 1-1.3 1h-28.7c-.6 0-.8-.1-.6-.8.1-1 .4-2.2.6-3.2 1.9-9.9 3.7-20 5.6-30 1.8-9.3 3.4-18.6 5.1-28.1l5.4-29.1c.1-.5.3-1.1.3-1.7.1-.4.3-.6.8-.6h30.4c1 0 1 0 1.4 1 .8 2.2 1.7 4.5 2.4 6.6 4.7 13 9.6 26.1 14.3 39.2 1.1 3.1 2.2 6.1 3.3 9.1.1.3.1.5.4.6.3-.3.3-.6.3-.9 2.2-11.9 4.3-23.8 6.5-35.7 1.1-6.2 2.3-12.5 3.4-18.7 0-.3.1-.4.1-.6 0-.4.3-.6.8-.6h182c1.7 0 1.4.1 1.1 1.4-1.1 6.2-2.3 12.6-3.4 18.9-.1.9-.3.9-1.1.9h-27.6c-.8 0-.9.1-1 .9-.3 1.7-.6 3.2-.9 4.8-.6 3.2-1.1 6.4-1.8 9.7 0 .1-.1.4-.1.5 0 .4.1.5.4.5h26.4c1.5 0 1.4-.1 1.1 1.4-.9 5.4-1.9 10.6-2.9 15.9-.3 1-.3 1-1.3 1h-25.6c-1.4 0-1.5-.3-1.9 1.5-.8 4.6-1.7 9.1-2.4 13.6 0 .1 0 .4-.1.5 0 .4.1.6.5.6H446.9c1.7 0 1.3 0 1.5-1.4.6-2.9 1.1-6 1.7-8.9 1.3-7.1 2.6-14.2 4-21.3 1.4-7.5 2.8-15 4.2-22.6 1-5.6 2-11.2 3.1-16.8 0-.1.1-.4.1-.5.1-.8.1-.8 1-.8H491.1c1.4 0 1.4 0 1.1 1.4-2 11.2-4.2 22.3-6.2 33.5-1.8 9.7-3.6 19.4-5.4 28.9-.3 1.3-.5 2.4-.6 3.7-.1.8 0 .8.8.9H499.8c1.1 0 1.3 0 1.4-1.1.5-3.1 1.1-6.1 1.7-9.2 1.1-6 2.2-12 3.3-18.1 1.4-7.5 2.8-15 4.2-22.6 1-5.6 2-11.1 3.1-16.7.1-.9.3-.9 1.1-.9H543.7c.8 0 .8.1.6.9-.6 3.6-1.4 7.3-2 10.8-1.3 6.6-2.4 13.4-3.7 20l-3.3 18c-1.1 5.9-2.2 11.9-3.3 17.7v.4c0 .4 0 .6.5.6H552.7c.9 0 .9 0 1.1-1 .5-2.9 1-5.9 1.7-8.8 1.4-7.5 2.8-15 4.2-22.6 1.4-7.9 2.9-15.8 4.3-23.6.8-3.8 1.4-7.8 2.2-11.6.1-.9.1-.9 1-.9H624.8c.6 0 .6.1.6.8-.3 1.8-.6 3.6-1 5.2-.9 4.7-1.7 9.3-2.6 14-.3 1.1-.3 1.1-1.4 1.1h-26.5c-1.7 0-1.4-.1-1.7 1.4-.9 4.6-1.7 9.2-2.6 13.8v.6c0 .3.1.4.4.4h26.5c1.3 0 1.3 0 1 1.3-1 5.4-1.9 10.7-2.9 15.9-.3 1.1-.1 1.3-1.4 1.3h-25.6c-1.8 0-1.4 0-1.7 1.4-.9 4.5-1.7 8.9-2.4 13.3 0 .3-.1.5-.1.6-.1.8 0 .8.6.9h44.5c1.7 0 1.5.1 1.8-1.5 1-5.6 2-11.2 3.1-16.8 1.3-6.8 2.4-13.5 3.7-20.3 1.1-6.1 2.3-12.2 3.3-18.4.9-4.7 1.8-9.6 2.7-14.3.1-.8.3-.9 1-.9h3.7c11.5 0 23-.1 34.4 0 7.1.1 14.3 1 21 3.6 3.7 1.4 7 3.3 9.8 6 3.3 3.2 5.4 7 6.2 11.6.3 1.5.4 2.9.5 4.5.1 3.3-.1 6.5-.9 9.7-1.1 5-3.4 9.3-7.1 12.9-3.3 3.2-7.4 5.4-11.9 6.6-1.4.4-2.8.6-4.1 1-.3 0-.5.1-.8.1-.4.1-.4.3-.4.6.1.3.1.4.3.6 4.3 11.6 8.7 23.2 13.1 34.8 0 0 0 .1.1.1.4 1 .4 1-.8 1h-28.4c-1.1 0-1.1 0-1.4-1.1-2.6-8.5-5.1-17.1-7.7-25.5-1.7-5.7-3.4-11.5-5.1-17.1-.1-.4-.3-.6-.4-1-.1.8-.1.8-.3.8zM300 310.9h22.2c1.3 0 1.3 0 1.4-1.1.9-5 1.8-9.9 2.8-14.9 2-11.2 4.1-22.6 6.2-33.8.3-1 .1-1.1-.9-1.1h-44.5c-1.1 0-1.1 0-1.4 1.1-.8 4.6-1.5 9.1-2.4 13.6-.3 1.4-.3 1.4 1.1 1.4h27c.4 0 .5.1.5.5 0 .1 0 .4-.1.5-1 5.6-2 11.1-3.1 16.7-.1.8-.3.8-1 .9h-27.3c-1.1 0-1.1 0-1.3.9-.9 4.7-1.8 9.4-2.7 14.2-.3 1.3-.3 1.3 1 1.3 7.7-.2 15.1-.2 22.5-.2zm370.1-28.3h2.7c3.3-.1 6.5-.5 9.4-1.9s5.1-3.4 6.4-6.6c.8-1.9.9-4 .9-6-.1-4.2-2.2-7.3-6-8.9-1.9-.9-3.8-1.1-5.9-1.4-2.3-.3-4.5-.3-6.8-.3-1.7 0-1.4 0-1.7 1.4-.9 4.7-1.8 9.3-2.6 14-.5 2.8-1 5.6-1.5 8.3-.3 1.1-.1 1.1.9 1.1 1.5.3 2.8.3 4.2.3zM738.4 332c-6.6.3-13.6-5.4-13.6-13.8 0-7.7 6.1-13.6 13.8-13.6 8 0 13.9 6.9 13.6 14.2-.3 7.1-6.4 13.6-13.8 13.2zm0-2.3c6.2.3 11.4-5.5 11.4-11.1.1-6-4.8-11.6-11.4-11.6-6.1 0-11.4 5.2-11.4 11.4.1 6.8 5.8 11.5 11.4 11.3z"/><path class="ampayments-st2" d="M733.8 310.8c1-.1 2.6-.3 4.2-.3 2.2 0 3.7.4 4.7 1.1.9.6 1.3 1.8 1.3 3.1 0 1.9-1.3 3.3-2.8 3.8v.1c1 .4 1.8 1.4 2.2 2.9.5 1.9.9 3.7 1.1 4.2h-2.8c-.3-.5-.6-1.7-1-3.6-.4-2-1.1-2.6-2.7-2.7h-1.4v6.2h-2.8v-14.8zm2.7 6.6h1.7c1.9 0 3.1-1 3.1-2.6 0-1.7-1.1-2.4-2.9-2.4-.9 0-1.4.1-1.7.1v4.8h-.2z"/><g><path d="M197.3 66.7c4.6-1.3 9.2-2.8 13.9-3.8 42.7-8.5 75.1 20.7 80.7 53.6 3.1 17.9.5 34.7-9.7 49.7-11.1 16.3-26.3 26.9-46.4 29.8-17.3 2.6-33.4-.4-48-9.9-16.7-11.1-27.4-26.4-30.2-46.8-.8-5.2-1-10.6-1-15.8V37.2v-4.3c-.1-2.8 1-4.1 4-4.1 10.6 0 21.3.1 31.9 0 2.9 0 3.8 1.4 3.8 4.2-.1 9.2 0 18.4 0 27.5.1 1.9-.5 4 1 6.2zm55.1 62.9c.9-15.6-10.8-28.8-27.2-29.3-14.8-.5-27.7 13-27.7 28.4-.1 17.9 15.3 28.8 27.2 29.1 14.2.3 29.1-14.1 27.7-28.2zM489.3 125.6c9.1-12.4 17.2-23.6 25.4-34.8 5.4-7.4 10.8-14.8 16.2-22.3 2.2-3.2 4.7-4.3 8.7-4.3 10.6.3 21.3.1 31.9.1 1.8 0 3.7-.5 5.6 1.1-1.3 3.4-4.1 5.9-6.2 8.7-10.5 14.2-21 28.1-31.5 42.2-3.1 4.2-3.1 4.2-.1 8.2 8.9 11.9 18 23.8 26.9 35.7 7.4 9.8 14.7 19.6 22.1 29.3.8 1.1 2.2 2.2 1.1 3.7-.8 1.1-2.2 1-3.3 1h-36.7c-2.8 0-4.5-1.4-6-3.4-8.4-11.7-17-23.5-25.5-35.2-.4-.5-.6-1-1-1.5-2.6-3.2-3.4-3.2-6 .3-8.8 11.7-17.7 23.5-26.3 35.3-2.4 3.3-5 4.8-9.2 4.7-6.9-.3-13.9 0-20.8-.1-4-.1-4.2-.4-4.5-4.2-.1-1.3 0-2.4 0-3.7V36.3c0-7.7 0-7.7 7.7-7.7h25.8c6.1 0 6.1.1 6.1 6.1v82.8c-.4 2.3-.4 4.6-.4 8.1zM302.5 128.3c-1.8-36.2 32.8-69.4 70.1-66.4 31.2-1.9 66.3 27.3 65.9 67.3-.4 40.6-32.1 67.8-68.9 68-37.1 0-69.6-33.3-67.1-68.9zm40.7.9c0 8.2 1 11.6 5.9 18.1 8.4 11.1 23.8 13.1 34.6 6.9 13.6-7.8 18.7-26.8 9.3-41.1-6.5-9.8-15.6-13.9-26-12.5-15 2.1-25.2 15.7-23.8 28.6zM720.9 102.8v26.9c.1 22.1-9.3 39.4-26.1 52.9-22.8 18.4-56.2 19.1-80.1 2.7-14.8-10.2-24.7-24.1-28.4-42-1-4.7-1.7-9.6-1.7-14.5v-57-3.7c-.1-2.9 1.4-4 4.2-3.8 3.1.1 6.1 0 9.2 0h20.3c5.7 0 5.9.1 5.9 5.9v55.1c0 12.4 4.8 22.2 15.4 28.8 9.3 5.9 22.6 4.3 30.7-3.1 7.5-6.9 11.4-15 11.1-25.4-.3-17.7-.1-35.6-.1-53.3V68c0-2.6 1.1-3.7 3.7-3.7h14.7c5.4 0 10.6-.1 15.9 0 4.8.1 5.1.3 5.1 5.4.4 11 .2 22.1.2 33.1z"/><path class="ampayments-st3" d="M53.3 129.1c-.1-17.2 13.1-30.4 28.7-30.3 15 .3 28.9 11 29.1 30.1.1 18.5-14.2 29.6-27.7 30.2-15 .7-30.3-11.8-30.1-30z"/></g><g><path class="ampayments-st2" d="M83.7 272.3l-4.6 21.8h.1c2.8-3.3 7.1-5.4 11.7-5.4 8 0 11.6 6.5 11.6 13.3 0 12.4-8.2 26.7-25.3 26.7-9.1 0-13.6-4-13.6-10.7 0-2.3.4-4.7.9-7l7.8-38.6h11.4v-.1zm-7.9 39.4c-.1 1.3-.5 2.6-.4 4.2.1 2.7 1.7 4.2 4.3 4.2 6.5 0 11.2-9.1 11.2-15.8 0-3.7-1.5-6.5-5-6.5-4.1 0-8 4.1-9.4 10.8l-.7 3.1zM119.1 289.6l2.3 16.6c.5 4 .9 6.6 1.3 9.1h.1c.9-2.3 1.7-4.7 3.3-8.9l7-16.8H145L131.4 317c-5.1 10.2-9.6 17.1-14.7 21.9-4.5 4.2-9.8 6.1-12.2 6.5l-2.6-9.6c1.8-.5 4.3-1.5 6.5-3.1 2.6-1.8 4.7-4.1 6.1-6.6.4-.5.4-1 .3-1.9l-7.5-34.6h11.8z"/></g></g></symbol><symbol viewBox="-525.3 78.7 640 637.4" id="onlineDengiWebmoney--payments" xmlns="http://www.w3.org/2000/svg"><g fill="#0073b8"><path d="M-206.2 78.7c50.2 0 97.8 11.6 139.6 32.2 6.4 3.2 13.5 6.4 19.9 10.3l-29.6 26.4-44.4-45.7-74 66.9-44.4-48.2-138.3 124.8 88.8 97.8-34.7 30.9 87.5 97.8-34.7 30.9 124.8 138.9 74-68.2 64.3 73.3c-12.9 9.6-26.4 19.3-41.8 27.7-46.3 26.4-100.3 41.8-156.9 41.8-175.6 0-319-143.4-319-318.4-.2-175.7 143.3-319.2 318.9-319.2z"/><path d="M-264.7 377.2l75.9-68.2 68.1 75.9-75.9 68.2zM-210.7 508.4l75.9-68.2 68.2 75.9-75.9 68.2zM-318.8 247.9l75.9-68.2 68.2 75.9-75.9 68.2zM-179.8 211.2l57.2-51.4 50.8 57.2-56.6 50.8zM-78.9 445.4l57.3-50.8 50.8 56.6-56.6 51.4zM-28.7 560.5L27.9 509l51.5 57.3-56.6 50.8zM-5.5 297.4l37.3-34.1 34.7 38-37.9 34.1zM-54.4 184.9l37.9-34.1 34.1 37.9-37.9 34.1zM42.7 410l38-34.1 34.1 38-38 34zM-127.1 325.7l56.6-51.4 51.5 56.6-57.3 51.4z"/></g></symbol><symbol viewBox="-498.9 61.6 640 670.9" id="qiwi--payments" xmlns="http://www.w3.org/2000/svg"><path d="M8 511.1c-6.1-2.5-7.1 5.1-5.1 10.1 3.6 11.2 8.1 20.3 11.7 21.8 3.6 2 7.1-2.5 4.6-14.2-1.1-5-5.2-15.1-11.2-17.7zm-50.3 20.8c-.5 0-.5 0-.5-.5h-1c-.5 0-.5 0-1-.5-4.1-.5-8.1 0-11.2 2-7.6 5.1-8.6 16.7-2.5 25.9 3 4.1 6.6 7.1 10.7 8.6h3c4.1 1 8.1 0 11.2-2 7.6-5.1 8.6-16.7 2.5-25.4-3.1-3.5-7.1-6.6-11.2-8.1zm177.6 180.2c-18.3-37-50.7-64.4-85.8-85.2-12.2-7.1-25.9-12.2-37.5-16.2-27.4-9.1-54.3-11.2-85.2-16.2-25.4-4.1-45.2-14.7-66.5-28.9-11.2-7.6-20.3-18.3-27.9-28.9-1.5-2-8.6-10.7-7.6-13.7 0 0-5.1 19.8 5.1 47.7-90.3-4.6-169.5-54.8-206-115.2-66.5-111.6-43.1-246.6 45.7-306.5 89.3-59.4 224.3-17.3 296.8 90.3 45.6 67.3 57.3 146 37.5 210.4 0 .5-.5 1-.5 1.5-38.1-28.4-73.6-14.2-73.6-14.2 38.6-4.1 69 26.9 69 26.9 4.6 4.1 8.6 8.6 12.7 13.2 1 1 2 2.5 2.5 3.6 10.1 13.7 16.2 28.9 19.3 44.7C109.9 428 122.6 293.5 54.6 189-31.6 55.5-215.8 21.5-356.9 112.8c-140 91.3-184.2 273-97.9 406.4 71 109.6 237.5 143.1 332.9 113.2 36-11.2 159.8-22.3 245.6 79.7 0 0 7.6 8.6 11.7 18.3 0 0 1 3.6 4.6 1.5.9-.6 3.4-3.6-4.7-19.8z" fill="#f8991d"/></symbol><symbol id="sdpay--payments" viewBox="-454.6 250.7 640 292.6" xmlns="http://www.w3.org/2000/svg"><style>.appayments-st0{fill:#e41e2c}.appayments-st1{fill:url(#apSVGID_1_)}.appayments-st2{fill:none}.appayments-st3{fill:#fff}.appayments-st4{font-family:'AdobeHeitiStd-Regular-GBpc-EUC-H'}.appayments-st5{font-size:135.3143px}</style><path class="appayments-st0" d="M159.8 543.3H-429c-13.9 0-25.6-11.7-25.6-25.6V276.3c0-13.9 11.7-25.6 25.6-25.6h588.8c13.9 0 25.6 11.7 25.6 25.6v241.4c0 13.9-11.7 25.6-25.6 25.6z" id="apLayer_3"/><g id="apLayer_1_1_"><linearGradient id="apSVGID_1_" gradientUnits="userSpaceOnUse" x1="-134.6" y1="532.286" x2="-134.6" y2="265.314" gradientTransform="matrix(1 0 0 -1 0 795.8)"><stop offset="0" stop-color="#fff" stop-opacity=".8"/><stop offset=".531" stop-color="#ee516f" stop-opacity=".7"/><stop offset=".73" stop-color="#e83d50" stop-opacity=".827"/><stop offset=".911" stop-color="#e52936" stop-opacity=".943"/><stop offset="1" stop-color="#e3202d"/></linearGradient><path class="appayments-st1" d="M158 530.5h-585.1c-8 0-14.6-6.6-14.6-14.6V278.1c0-8 6.6-14.6 14.6-14.6H158c8 0 14.6 6.6 14.6 14.6v237.7c0 8.1-6.6 14.7-14.6 14.7z"/></g><g id="apLayer_4"><path class="appayments-st2" d="M-406.3 345.1h543.1v176.3h-543.1z"/><text transform="translate(-406.24 453.495)" class="appayments-st3 appayments-st4 appayments-st5"></text></g></symbol><symbol id="webMoney--payments" viewBox="0 0 2559.4 637.4" xmlns="http://www.w3.org/2000/svg"><style>.aqpayments-st0{fill-rule:evenodd;clip-rule:evenodd;fill:#4e79b8}.aqpayments-st1{fill:#4e79b8}</style><path class="aqpayments-st0" d="M2237 1.2c49.9 0 97.1 11.6 139.2 32.2 6.6 3.1 13.2 6.6 19.8 10.4L2366.7 70l-43.9-45.4-74.1 66.1-44-48.1-138.1 124.5 88.5 97.6-34.8 30.6 87.2 97.7-34.6 30.5 124.6 138.7 74-68.1 64 73c-12.7 9.9-26.6 19.2-41.8 27.8-46.3 26.4-99.7 41.5-156.6 41.5-174.9 0-317.6-142.7-317.6-317.6-.1-174.9 142.6-317.6 317.5-317.6z"/><path class="aqpayments-st0" d="M2179.1 298.7l75.6-68 68 75.6-75.6 67.9-68-75.5zM2232.8 429.2l75.6-68 68 75.6-75.6 68-68-75.6zM2125.1 169.8l75.5-68 68 75.5-75.5 68-68-75.5zM2263.7 133.2l56.6-51 51 56.6-56.6 51-51-56.6zM2364.3 366.8l56.7-51.1 51 56.7-56.7 51-51-56.6zM2414.1 481.2l56.7-51.1 51 56.7-56.7 51-51-56.6zM2437 218.9l37.7-34 34 37.8-37.7 34-34-37.8zM2388.7 106.7l37.8-34 34 37.8-37.8 34-34-37.8zM2485.2 331.1l37.8-34 34 37.8-37.8 34-34-37.8zM2315.9 247.1l56.6-51 51 56.6-56.6 51-51-56.6z"/><g><path class="aqpayments-st1" d="M149.3 262.5h-2.6L98.6 444.6H59.2L0 185.8h40.9l40.9 193.1h2.6l47.5-193.1h32.5L215 378.9h2.5l37.2-193.1h42.7l-59.2 258.9H199l-49.7-182.2zM459.3 404.5v27.7c-16.4 9.5-38.3 16.8-64.6 16.8-61.3 0-86.5-38-86.5-95.7 0-55.5 28.1-95.7 82.9-95.7 45.6 0 73.7 29.6 73.7 89.1v13.5h-119c0 43.8 17.9 63.2 55.5 63.2 19.7.1 38-6.9 58-18.9zm-112.8-68.7h83.6c-1.8-38.3-20.4-53.7-40.2-53.7-22.2.1-39.4 17.2-43.4 53.7zM536 271.2c11-5.8 29.6-13.5 49.3-13.5 45.3 0 69.7 31.4 69.7 89.8 0 68.3-32.8 101.5-85.8 101.5-19.4 0-49.3-6.2-71.2-17.9V176.3l38-9.1v104zm-.4 146.4c11.7 5.1 24.5 5.8 33.6 5.8 27 0 47.5-16.8 47.5-75.9 0-46.4-16.8-61.3-41.3-61.3-14.6 0-25.2 4-39.8 12v119.4zM821.1 389.9h1.8L901 185.8h45.3v258.9h-39.4V257h-3.3l-74.5 187.7h-23.4l-74.5-183.3H728v183.3h-32.9V185.8h44.2l81.8 204.1zM986.5 353.4c0-63.9 35.1-95.7 83.2-95.7 48.2 0 83.2 31.8 83.2 95.7 0 62.4-33.2 95.7-83.2 95.7s-83.2-33.3-83.2-95.7zm128.2 0c0-49.3-20.1-70.1-44.9-70.1-24.1 0-44.9 20.8-44.9 70.1 0 50 19 70.1 44.9 70.1s44.9-20.1 44.9-70.1zM1187.7 284.7c16.4-9.9 51.1-27 93.1-27 43.8 0 60.2 17.2 60.2 54.8v132.2h-38V320.9c0-28.8-14.2-34-32.8-34-14.6 0-33.2 6.6-44.6 13.1v144.6h-38V284.7zM1526.1 404.5v27.7c-16.4 9.5-38.3 16.8-64.6 16.8-61.3 0-86.5-38-86.5-95.7 0-55.5 28.1-95.7 82.9-95.7 45.6 0 73.8 29.6 73.8 89.1v13.5h-119c0 43.8 17.9 63.2 55.5 63.2 19.6.1 37.8-6.9 57.9-18.9zm-112.8-68.7h83.6c-1.8-38.3-20.4-53.7-40.2-53.7-22.2.1-39.4 17.2-43.4 53.7zM1673.6 263.9h39.1l-66.1 182.5c-18.3 50.4-40.5 76.7-82.5 76.7v-29.9c24.8 0 40.1-19.7 48.9-46.7L1542.9 264h40.2l46.7 134.3h2.2l41.6-134.4z"/></g></symbol><symbol id="yandex--payments" viewBox="0 0 1305 634.9" xmlns="http://www.w3.org/2000/svg"><style>.arpayments-st0{fill:#f4c944}.arpayments-st1{fill:#bd9d34}.arpayments-st2{fill:#201600}.arpayments-st3{fill:red}.arpayments-st4{display:none}.arpayments-st5{display:inline}.arpayments-st6{clip-path:url(#arSVGID_2_)}.arpayments-st7,.arpayments-st8{clip-path:url(#arSVGID_4_);fill:#df9d25}.arpayments-st8{fill:#303280}</style><path class="arpayments-st0" d="M991.7 374.3c0-23.1 1.9-37.8 49.8-73.6 39.7-29.6 166.8-130.8 166.8-130.8v168.9h96.7v243.1h-283.1c-16.6 0-30.2-13.6-30.2-30.2V374.3z"/><path class="arpayments-st1" d="M1208.3 338.8v97.9l-177.6 121 224.6-73.1V338.8z"/><path class="arpayments-st2" d="M1127.2 333.8c10.4-12.4 25.6-16.7 33.9-9.8 8.3 7 6.7 22.7-3.7 35.1-10.4 12.4-25.6 16.7-33.9 9.8-8.4-7.1-6.7-22.8 3.7-35.1"/><g><path class="arpayments-st3" d="M66.7 130l-35.3 79.3H5.7l38.8-84.8c-18.2-9.3-30.4-26-30.4-57 0-43.4 27.5-65.1 60.2-65.1h33.3v206.8H85.2V130H66.7zM85.2 21.2H73.4c-17.9 0-35.3 11.9-35.3 46.3 0 33.3 15.9 44 35.3 44h11.9V21.2z"/><path d="M214.8 63.5v145.8h-22.3v-65.4H159v65.4h-22.6V63.5H159v61.9h33.6V63.5h22.2zm116 174.4h-20.2v-28.6h-62.5v28.6h-20.2v-47.1h9c13.3-31 14.8-76.1 14.8-114.8V63.5h67.7v127.3H331v47.1zM297 81.7h-25.2v2.6c0 30.7-1.4 75.5-13.6 106.4H297v-109zm96 129.6c-30.1 0-48.6-24-48.6-68.8 0-46.9 13-81 44-81 24.3 0 40.2 18.2 40.2 67.7v12.4h-60.7c0 33 9.3 50.3 27.2 50.3 12.7 0 22.9-5.8 28.6-9.8l5.2 17.3c-9.3 7.3-21.4 11.9-35.9 11.9zm-24.9-88.2h37.3c0-24.9-4.1-43.1-17.1-43.1-13.8 0-18.7 17-20.2 43.1zm106.2 13.6v72.6h-22.6V63.5h22.6v67.4l35-67.4h22.9L496 132l41.4 77.2h-24.6l-38.5-72.5zm65.9-.3c0-45.7 17.6-74.9 51.8-74.9 13 0 20.5 3.5 26.9 7.5l-3.2 21.4c-6.1-5.2-14.8-10.1-24-10.1-16.2 0-27.8 18.2-27.8 55 0 36.4 8.7 57.3 26.9 57.3 11 0 19.4-4.3 24.6-9l5.2 16.8c-7.8 6.6-17.1 11-30.4 11-31.2-.1-50-25.3-50-75zM155.2 581.9h-135l-3.1 52.5H0v-70.6h9.3c15.4-12.8 22.9-48.1 27.3-93.1 4.4-46.8 5.7-116.4 7.1-204.2H154v297.3h21.6v70.6h-17.2l-3.2-52.5zm-23.3-297.3H63.5c-1.3 79.8-3.5 140.7-7.1 186.1-4 47.2-11 78.5-22.9 93.1h98.4V284.6zM266.9 568.2c29.5 0 45-23.8 45-23.8l6.6 16.7s-16.8 25.1-52 25.1c-47.2 0-68.8-42.8-68.8-115.5 0-72.8 27.3-115.6 64.8-115.6 38.4 0 63.1 40.1 56 119.1H217.9c.9 60.9 16.8 94 49 94zm-48.5-110.3h80.7c3.5-59.1-14.1-85.5-36.6-85.5-23.4 0-42.4 30-44.1 85.5zM454.3 474.7h-75.9v107.2h-20.7V359.6h20.7v98.3h75.9v-98.3H475v222.3h-20.7V474.7zM524.1 359.6h20.7v82.5h16.3c42.3 0 69.7 22.9 69.7 69.2 0 47.2-29.1 70.6-71 70.6h-35.7V359.6zm20.7 98.8v107.2H558c31.3 0 52.5-15.4 52.5-53.8 0-37.5-18.5-53.4-50.3-53.4h-15.4zM686.8 376.8v205.1h-20.3V359.6h93.9v17.2h-73.6zM895.9 427.1c0-11.5.9-21.2 1.8-30.4h-1.3c-3.1 9.7-7.1 19-11.9 28.7L812.2 582h-17.6V359.6H814V514c0 11.9-.9 21.6-1.8 31.3h1.3c3.1-10.1 7.5-19.8 11.9-29.5l72.3-156.1h18.1V582H896V427.1z"/></g><g class="arpayments-st4"><g class="arpayments-st5"><defs><path id="arSVGID_1_" d="M-852.1-597.3h2920.9v1825.6H-852.1z"/></defs><clipPath id="arSVGID_2_"><use xlink:href="#arSVGID_1_" overflow="visible"/></clipPath><g class="arpayments-st6"><defs><path id="arSVGID_3_" d="M-852.1-597.3h2920.9v1825.6H-852.1z"/></defs><clipPath id="arSVGID_4_"><use xlink:href="#arSVGID_3_" overflow="visible"/></clipPath><path class="arpayments-st7" d="M242 439.1c-.1-.1-.2-.1-.3-.1-.2 0-.3-.1-.4-.1-.3-.1-.4-.2-.6-.2-.2 0-.3 0-.3-.1-.3-.1-.6-.1-.9-.3-3.6-.7-7.2-.1-10.3 1.8-6.7 4.7-7.8 15.2-2.3 23.5 2.6 3.8 6.1 6.4 9.9 7.8l.2.2s.3.1.4.1c.2 0 .3 0 .5.1.1 0 .2.1.3.1.3.1.6.2.9.2 3.6.6 7.2.1 10.2-1.8 6.8-4.7 7.9-15.1 2.3-23.5-2.3-3.6-5.9-6.3-9.6-7.7m161.2 164.7c-16.5-33.9-45.9-58.8-77.8-77.8-11-6.7-23.4-11.4-34.4-14.9-25-8.1-49.2-10.1-77.4-14.8-22.9-4-41-13.4-60.4-26.7-10.1-6.9-18.4-16.4-25.3-26.6-1.2-2-7.7-9.9-7.1-12.7 0 0-4.4 18.1 4.5 43.6C43.2 470.2-28.6 424.5-61.5 369-122.3 267-101 143.4-20.1 88.7c80.8-54.6 204-16.1 270 82.5 41.4 61.9 52 133.9 34.2 192.4-.1.4-.3.8-.4 1.3-35-25.6-67-12.5-67-12.5 35.1-3.6 62.9 24.5 62.9 24.5 4.1 3.6 8 7.7 11.6 12.1.8 1.2 1.6 2.2 2.4 3.4 9.2 12.6 15 26.6 17.4 40.7 69.8-89 81.2-212.1 19.6-307.8C251.8 3.3 84.3-27.8-43.8 55.6c-128 83.5-168.2 249.9-89.5 371.9 64.7 100.3 216.1 130.9 303.1 103.2 32.8-10.4 145.3-20.3 223.5 72.7 0 0 6.8 7.8 10.5 16.6 0 0 1.1 3.1 4 1.6.7-.3 2.8-2.8-4.6-17.8M287.4 419.9c5.8 2.3 9.3 11.7 10.3 16.3 2.2 10.3-1.3 14.7-4.3 12.8-3.2-1.6-7.4-9.5-10.7-19.9-1.5-4.6-1-11.4 4.7-9.2"/><path class="arpayments-st8" d="M546.8 213.7c-27.8 0-44.6-24.3-44.6-59.5 0-35.4 16.5-58.8 44.6-58.8 27.8 0 44.8 23.4 44.8 58.8 0 35.2-16.7 59.5-44.8 59.5m76.4-61.1c0-50-29.9-83.1-76.2-83.1-46.5 0-76.6 34.2-76.6 84.7 0 42.2 18.9 68.9 55.4 82.1l89.6 32.8 5.9-26.9-42.2-14.4c26.7-11.2 44.1-37.5 44.1-75.2M664.3 235.4V72.6h31.3v162.8zM909.3 235.4h-29.7L843.5 117l-36.1 118.4h-29.5L732.4 76.8 765 71l30.6 116.5 34-114.9h31.3l34 114.9 29.7-114.9H956zM992.3 235.4V72.6h31.4v162.8zM645.7 494.5H616L580 376l-36.1 118.5h-29.5l-45.5-158.6 32.5-5.9 30.7 116.6L566 331.7h31.4l34 114.9 29.7-114.9h31.3zM753.5 427.7l22.2-62.8 22.2 62.8h-44.4zm40.1-96.7h-33.3l-61.1 163.6h30.9l14.8-41.3h61.5l15.6 43 31.1-5.6L793.6 331zM887.2 494.5V331.7h31.4v135.2h54.2l4.3 27.6zM1011.5 494.5V331.7h31.4v135.2h54.2l4.3 27.6zM1135.8 494.5V331.7h94.5v26.4h-63.6v38.2h49l4.3 26.9h-53.3v44.9h66v26.4zM1339.1 358.8v135.7h-31.4V358.8h-48.4v-27.1h126.4l4.5 27.1z"/></g></g></g></symbol></svg>