<?xml version="1.0" encoding="utf-8"?><svg xmlns="http://www.w3.org/2000/svg" xmlns:xlink="http://www.w3.org/1999/xlink"><symbol viewBox="0 0 59 39.4098" id="a-z--icons" xmlns="http://www.w3.org/2000/svg"><path d="M15.144 39.41l-1.296-8.951H7.262l-1.294 8.95H0L6.812 0h7.6l6.813 39.41h-6.08zM10.64 8.445h-.169l-2.42 16.609h5.01L10.64 8.445zm14.75 14.187V16.89h11.992v5.742H25.39zM59 39.41H41.548v-4.955L52.527 5.518H42.11V0H59v4.955L48.022 33.892H59v5.518z"/></symbol><symbol viewBox="0 0 27 32" id="android--icons" xmlns="http://www.w3.org/2000/svg"><path d="M19.04 0c.133.133.133.133.044.311a57.072 57.072 0 0 0-1.287 2.264c-.133.222-.133.222.089.355.799.444 1.553.976 2.175 1.642 1.11 1.154 1.82 2.53 2.086 4.128.044.311.044.577.089.888 0 .178 0 .178-.178.178H5.016c-.133 0-.133-.044-.133-.178 0-.399.044-.799.133-1.243a7.743 7.743 0 0 1 1.598-3.329 8.81 8.81 0 0 1 2.663-2.13c.178-.089.178-.089.089-.222-.444-.799-.888-1.553-1.331-2.352-.089-.133-.089-.222.044-.311h.178c.044.044.044.089.089.133.444.799.932 1.598 1.376 2.397-.044.133-.044.133.133.089 1.465-.577 2.974-.843 4.527-.666a8.672 8.672 0 0 1 2.796.71c.089 0 .133 0 .178-.089.399-.666.799-1.376 1.154-2.042.133-.178.222-.399.399-.533h.133zM9.365 5.282c-.488 0-.799.355-.799.799s.355.799.799.799c.444 0 .799-.355.799-.799s-.311-.799-.799-.799zm7.456.798c0 .444.355.799.799.799s.799-.355.799-.799c0-.444-.355-.799-.799-.799s-.799.355-.799.799zm10.208 14.292c0 .133-.044.266-.044.399-.133.71-.488 1.243-1.198 1.509-.843.355-1.775 0-2.219-.799a2.15 2.15 0 0 1-.311-1.154v-7.811c0-.755.311-1.376.976-1.775.799-.488 1.82-.222 2.352.533.222.355.399.71.399 1.154v.133c.044 2.574.044 5.193.044 7.811zM0 12.25c.089-.266.133-.533.266-.799.399-.666.976-1.065 1.775-.976.71.089 1.198.533 1.509 1.154.133.266.178.533.178.843v7.945c0 .799-.399 1.465-1.154 1.82-.843.399-1.775.089-2.264-.71-.178-.266-.266-.577-.311-.888v-8.388zm13.492-1.509h8.521c.222 0 .222 0 .222.222V23.79c0 .666-.666 1.465-1.243 1.598-.089.044-.178.044-.266.044h-1.82c-.178 0-.178 0-.178.178v4.261c0 .577-.178 1.065-.533 1.509-.577.666-1.687.799-2.397.222-.533-.399-.799-.976-.799-1.642v-4.349c0-.222 0-.222-.222-.222h-2.574c-.178 0-.178 0-.178.178v4.261c0 .488-.133.932-.444 1.376-.755 1.021-2.219 1.021-2.929-.044a2.21 2.21 0 0 1-.399-1.287v-4.216c0-.222 0-.222-.222-.222H6.344c-.355 0-.621-.089-.888-.311s-.488-.444-.621-.755c-.044-.178-.089-.311-.089-.488V10.966c0-.178 0-.178.178-.178 2.885-.044 5.725-.044 8.566-.044z"/></symbol><symbol viewBox="0 0 29.9655 17.6706" id="arrow-down--icons" xmlns="http://www.w3.org/2000/svg"><path d="M29.965 2.83l-12.18 12.064-2.802 2.777-2.803-2.777L0 2.83 2.803 0l12.18 12.064L27.163 0l2.802 2.83z"/></symbol><symbol viewBox="0 0 15.875 26" id="arrow-right--icons" xmlns="http://www.w3.org/2000/svg"><path d="M0 2.88l10.124 10.119L0 23.125 2.875 26l13-13.001L2.875 0z"/></symbol><symbol viewBox="0 0 39.0004 40.0019" id="calendar--icons" xmlns="http://www.w3.org/2000/svg"><path d="M14 19.002v-4h4v4h-4zm7 0v-4h4v4h-4zm7 0v-4h4v4h-4zm-21 7v-4h4v4H7zm7 0v-4h4v4h-4zm7 0v-4h4v4h-4zm7 0v-4h4v4h-4zm-21 7v-4h4v4H7zm7 0v-4h4v4h-4zm7 0v-4h4v4h-4zM32 0H7a7 7 0 0 0-7 7.002V10h39v-3A7 7 0 0 0 32 0zM9 7a2 2 0 1 1 0-4 2 2 0 1 1 0 4zm21 0a2 2 0 1 1 0-3.998 2 2 0 0 1 0 3.999z"/><path d="M37 33.002c0 2.757-2.243 5-5 5H7c-2.757 0-5-2.243-5-5v-23H0v-.003V33c0 3.868 3.133 7.001 7 7.001h25c3.867 0 7-3.133 7-7v-23h-2v23z"/><path fill="none" d="M7 38.003h25c2.757 0 5-2.244 5-5.001v-23H2v23c0 2.757 2.243 5 5 5z"/></symbol><symbol viewBox="0 0 40.0023 25.9999" id="cash--icons" xmlns="http://www.w3.org/2000/svg"><path d="M22.18 12.898a3.492 3.492 0 0 1 2.317-.884c1.018 0 1.982.446 2.647 1.22l.856.992V8.498C28 6.568 29.57 5 31.499 5c.54 0 1.044.133 1.5.35V5c0-2.761-2.236-5-4.998-5H7a5 5 0 0 0-5 5v2.99a3.971 3.971 0 0 0-2 3.473v4.078c0 1.507.816 2.805 2 3.472V21a5 5 0 0 0 5 5h21.882l-7.029-8.152a3.55 3.55 0 0 1 .327-4.95zm-20.3-1.435c0-1.092.846-1.978 1.883-1.978h8.472c1.04 0 1.882.886 1.882 1.978v4.078c0 1.091-.842 1.977-1.882 1.977H3.763c-1.037 0-1.882-.885-1.882-1.977v-4.078z"/><ellipse cx="8.499" cy="13.502" rx="2.501" ry="2.494"/><path d="M39.49 14.392a1.483 1.483 0 0 0-2.117.144l-4.374 5.08V8.498C33 7.67 32.33 7 31.5 7S30 7.67 30 8.498v11.117l-4.373-5.08a1.483 1.483 0 0 0-2.118-.143 1.54 1.54 0 0 0-.14 2.152l8.132 9.445 8.13-9.445a1.544 1.544 0 0 0-.14-2.152z"/></symbol><symbol viewBox="0 0 23.5156 23.5067" id="close--icons" xmlns="http://www.w3.org/2000/svg"><path d="M21.748 0l-9.996 9.996L1.768.01 0 1.78l9.984 9.984L.02 21.728l1.768 1.767 9.964-9.964 9.976 9.976 1.767-1.768-9.975-9.976 9.996-9.995z"/></symbol><symbol viewBox="0 0 36 36" id="dice--icons" xmlns="http://www.w3.org/2000/svg"><path class="ahicons-st0" d="M31 36H5c-2.763 0-5-2.237-5-5V5c0-2.763 2.237-5 5-5h26c2.763 0 5 2.237 5 5v26c0 2.763-2.237 5-5 5zM8 25a3 3 0 1 0 0 6.001 3 3 0 0 0 0-6zm10-10a3 3 0 1 0 0 6 3 3 0 0 0 0-6zM28 5a3 3 0 1 0 0 6 3 3 0 0 0 0-6z"/></symbol><symbol viewBox="0 0 32 32" id="facebook--icons" xmlns="http://www.w3.org/2000/svg"><path d="M19 6h5V0h-5c-3.86 0-7 3.14-7 7v3H8v6h4v16h6V16h5l1-6h-6V7c0-.542.458-1 1-1z"/></symbol><symbol viewBox="0 0 38 32" id="favorite--icons" xmlns="http://www.w3.org/2000/svg"><path d="M30.79.267a10.441 10.441 0 0 0-3.512-.202 9.686 9.686 0 0 0-2.978.85c-1.427.655-2.749 1.6-3.898 2.724-.54.53-1.012 1.13-1.499 1.713a6153.3 6153.3 0 0 1-.711-.998 9.66 9.66 0 0 0-1.472-1.615C15.412 1.576 13.87.718 12.217.31 11.094.03 9.928-.027 8.78.06 7.696.14 6.616.37 5.596.778c-1.875.75-3.512 2.13-4.487 4.038-1.025 2.006-1.287 4.432-1 6.681.252 1.972 1.038 3.833 2.02 5.5 1.221 2.076 2.78 3.911 4.475 5.544.86.827 1.762 1.596 2.677 2.348 1.068.877 2.141 1.744 3.226 2.597a97.33 97.33 0 0 0 3.244 2.459c.53.38 1.065.755 1.61 1.11.26.167.524.332.794.486.137.079.275.156.417.225.111.054.236.126.358.143.144.02.299-.07.426-.132.131-.065.26-.134.387-.207.271-.152.536-.317.8-.486 1.112-.718 2.183-1.512 3.244-2.317 1.095-.83 2.177-1.686 3.249-2.55 1.967-1.585 3.931-3.177 5.674-5.053 1.514-1.631 2.898-3.454 3.896-5.507.414-.85.76-1.744.992-2.673.234-.945.319-1.906.307-2.884-.03-2.28-.6-4.573-1.905-6.392C34.714 1.913 32.827.743 30.79.267z"/></symbol><symbol viewBox="0 0 32 32" id="filter--icons" xmlns="http://www.w3.org/2000/svg"><path d="M0 0l12.883 14.662V32l6.233-5.872V14.662L32 0H0z"/></symbol><symbol viewBox="0 0 107 35" id="game-unavailiable--icons" xmlns="http://www.w3.org/2000/svg"><g transform="translate(1 1.313)" stroke="#D0021B" stroke-width="1.25" fill="none" fill-rule="evenodd"><path d="M45.763 27.298V5.702H32.68a3.125 3.125 0 0 0-3.125 3.125v15.346c0 1.726 1.4 3.125 3.125 3.125h13.084zM58.237 27.298V5.702H71.32c1.725 0 3.125 1.399 3.125 3.125v15.346c0 1.726-1.4 3.125-3.125 3.125H58.237zM45.766 19.663v2.558h6.2a1.279 1.279 0 1 0 0-2.558h-6.2zM45.766 10.779v2.558h6.2a1.279 1.279 0 0 0 0-2.558h-6.2z"/><path d="M74.978 16.697c9.177 2.38 14.641.202 16.393-6.536C93.123 3.423 97.55.055 104.65.055M29.453 16.218c-8.928-2.381-14.268-.202-16.02 6.535C11.68 29.491 7.254 32.86.155 32.86" stroke-linecap="round"/></g></symbol><symbol viewBox="0 0 36 39.6342" id="gift--icons" xmlns="http://www.w3.org/2000/svg"><path d="M19.51 10.122s5.858-1.402 7.058-2.602c1.201-1.201 1.176-3.17-.054-4.401a3.18 3.18 0 0 0-2.25-.939c-.783 0-1.56.294-2.152.885-1.2 1.2-2.601 7.057-2.601 7.057m-2.704 2.704l.759-3.17c.572-2.393 1.74-6.613 3.132-8.004A5.007 5.007 0 0 1 24.264.18c1.38 0 2.681.541 3.664 1.524a5.16 5.16 0 0 1 1.525 3.602 4.998 4.998 0 0 1-1.472 3.629c-1.39 1.39-5.612 2.56-8.005 3.132l-3.169.759z"/><path d="M16.59 10.123s-1.44-5.99-2.67-7.218a3.107 3.107 0 0 0-2.205-.906c-.83 0-1.667.322-2.307.962-1.262 1.257-1.286 3.272-.056 4.5 1.23 1.228 7.237 2.662 7.237 2.662m2.706 2.703l-3.171-.758c-1.971-.47-6.713-1.724-8.185-3.19a5.068 5.068 0 0 1-1.493-3.616 5.21 5.21 0 0 1 1.549-3.718A5.231 5.231 0 0 1 11.715 0c1.37 0 2.654.529 3.617 1.489 1.472 1.468 2.729 6.2 3.2 8.167l.763 3.17z"/><path d="M5 10.634H31a5 5 0 0 1 4.999 5v19.001c0 2.762-2.237 5-4.999 5H4.999c-2.762 0-4.999-2.238-4.999-5v-19a5 5 0 0 1 5-5.001z"/></symbol><symbol viewBox="0 0 32 32" id="googlep--icons" xmlns="http://www.w3.org/2000/svg"><path d="M3.182 8.942c0 2.39.798 4.115 2.371 5.128 1.29.832 2.784.957 3.562.957.189 0 .341-.01.446-.016 0 0-.246 1.606.944 3.194h-.054c-2.062 0-8.789.43-8.789 5.963 0 5.626 6.178 5.912 7.418 5.912.098 0 .155-.003.155-.003.013 0 .101.003.253.003.795 0 2.851-.099 4.76-1.029 2.477-1.2 3.733-3.294 3.733-6.216 0-2.822-1.914-4.502-3.31-5.731-.853-.75-1.59-1.397-1.59-2.026 0-.64.539-1.122 1.219-1.731 1.102-.984 2.142-2.387 2.142-5.04 0-2.331-.302-3.898-2.166-4.891.194-.099.882-.171 1.221-.219 1.01-.138 2.486-.294 2.486-1.118v-.158h-7.358c-.074.003-7.442.275-7.442 7.022zm11.879 14.421c.141 2.25-1.784 3.909-4.675 4.118-2.936.216-5.352-1.106-5.493-3.354-.069-1.082.406-2.138 1.336-2.981.942-.853 2.237-1.381 3.645-1.485.166-.01.331-.019.496-.019 2.718.002 4.558 1.598 4.691 3.72zM13.139 7.402c.722 2.541-.368 5.194-2.106 5.685-.2.056-.405.083-.614.083-1.59 0-3.166-1.61-3.752-3.829-.326-1.242-.299-2.333.075-3.379.366-1.032 1.029-1.725 1.861-1.96.2-.056.406-.085.616-.085 1.92 0 3.155.797 3.92 3.485zM25.6 12.8V8h-3.2v4.8h-4.8V16h4.8v4.8h3.2V16h4.8v-3.2h-4.8z"/></symbol><symbol viewBox="0 0 32 32" id="help--icons" xmlns="http://www.w3.org/2000/svg"><path d="M16 0C7.163 0 0 7.164 0 16s7.163 16 16 16 15.999-7.163 15.999-16-7.162-16-16-16zm-5.516 3.127A13.983 13.983 0 0 1 16 2.001c1.812 0 3.542.343 5.13.97a1.5 1.5 0 1 1-1.098 2.79A10.964 10.964 0 0 0 16 5a10.95 10.95 0 0 0-4.333.885 1.497 1.497 0 0 1-1.97-.786 1.502 1.502 0 0 1 .787-1.97zM5.11 21.902a1.5 1.5 0 0 1-1.98-.759 12.997 12.997 0 0 1-1.13-5.31c0-1.742.345-3.407.971-4.936a1.5 1.5 0 1 1 2.776 1.136 9.978 9.978 0 0 0-.747 3.8c0 1.42.293 2.795.869 4.088a1.498 1.498 0 0 1-.76 1.98zm16.898 7.235a16.56 16.56 0 0 1-5.313.862c-2.028 0-3.958-.357-5.71-1.002a1.5 1.5 0 1 1 1.037-2.816c1.473.544 3.046.82 4.673.82 1.506 0 2.97-.238 4.352-.706a1.5 1.5 0 0 1 .96 2.842zM16 25.062c-5.005 0-9.062-4.057-9.062-9.062S10.995 6.938 16 6.938a9.062 9.062 0 1 1 0 18.124zm11.042-3.251a1.5 1.5 0 0 1-.825-1.953c.52-1.28.783-2.642.783-4.05 0-1.303-.226-2.571-.674-3.769a1.501 1.501 0 0 1 2.811-1.048c.557 1.491.864 3.117.864 4.816 0 1.84-.359 3.59-1.004 5.179a1.5 1.5 0 0 1-1.955.825z"/></symbol><symbol viewBox="0 0 26 32" id="history--icons" xmlns="http://www.w3.org/2000/svg"><path d="M21 32H5a5 5 0 0 1-5-5V5a5 5 0 0 1 5-5h16a5 5 0 0 1 5 5v22a5 5 0 0 1-5 5zM6.5 25h6a1.5 1.5 0 0 0 0-3h-6a1.5 1.5 0 1 0 0 3zm13-19h-13a1.5 1.5 0 1 0 0 3h13a1.5 1.5 0 1 0 0-3zm0 8h-13a1.5 1.5 0 1 0 0 3h13a1.5 1.5 0 1 0 0-3z"/></symbol><symbol viewBox="0 0 39.5801 40" id="home--icons" xmlns="http://www.w3.org/2000/svg"><path d="M30.79 40h-22a5 5 0 0 1-5-5V17l16-16.999s15.953 16.942 16 17v17.998a5 5 0 0 1-5 5.001zm-6-18a2 2 0 0 0-2-2h-6a2 2 0 0 0-2 2v7c0 1.105.895 2 2 2h6c1.105 0 2-.895 2-2v-7z"/><path d="M1.697 20.433A1 1 0 1 1 .302 19L19.79 0l1.397 1.432-19.49 19m16.698-19L19.79 0l19.488 19a1 1 0 1 1-1.395 1.431L18.395 1.432M20 .31L19.79 0l.21.31z"/></symbol><symbol viewBox="0 0 26 27" id="icon-circle-warn--icons" xmlns="http://www.w3.org/2000/svg"><g fill="MAIN_COLOR"><path d="M13 24.534c6.075 0 11-4.925 11-11s-4.925-11-11-11-11 4.925-11 11 4.925 11 11 11zm0 2c-7.18 0-13-5.82-13-13s5.82-13 13-13 13 5.82 13 13-5.82 13-13 13z"/><path d="M11.794 17.71h2.412v2.25h-2.412v-2.25zm.09-10.602h2.25v3.708l-.594 5.562h-1.062l-.594-5.562V7.108z"/></g></symbol><symbol viewBox="0 0 12.2025 25.9313" id="info--icons" xmlns="http://www.w3.org/2000/svg"><path d="M.545 10.75c-.227.22-.483.47-.536.793-.054.321.137.676.482.73.423.068.746-.375 1.02-.622a7.997 7.997 0 0 1 1.095-.865c.845-.542 1.676-.256 1.32.976C3.571 12.995.952 19.547.602 22.56c-.348 3.015 2.308 4.123 5.382 2.856.95-.398 1.789-1.034 2.58-1.676a22.561 22.561 0 0 0 2.29-2.122c.155-.168.305-.335.47-.494.175-.17.445-.436.502-.68a.519.519 0 0 0-.178-.526.76.76 0 0 0-.73-.138c-.2.075-.34.253-.483.4a8.13 8.13 0 0 1-.491.476c-.368.345-.748.676-1.149.981-.952.726-1.644.403-1.178-1.347.47-1.749 1.239-4.104 2.322-7.517 1.515-4.785-2.68-5.526-5.123-4.782-1.674.506-3.042 1.568-4.271 2.76zM8.543.006c-1.909.107-3.375 1.727-3.267 3.62C5.383 5.517 7.02 6.963 8.93 6.86c1.911-.108 3.375-1.727 3.268-3.62-.106-1.892-1.743-3.34-3.654-3.236z"/></symbol><symbol viewBox="0 0 38 38" id="info-circle--icons" xmlns="http://www.w3.org/2000/svg"><path d="M19 38C8.506 38 0 29.494 0 19S8.506 0 19 0s19 8.506 19 19-8.506 19-19 19zm-5.604-21.569c-.228.22-.485.47-.537.794-.055.322.137.678.483.732.424.069.747-.376 1.022-.623a8.01 8.01 0 0 1 1.098-.867c.847-.544 1.68-.257 1.323.978-.355 1.236-2.98 7.805-3.332 10.824-.349 3.023 2.314 4.135 5.396 2.864.951-.399 1.793-1.036 2.587-1.68a22.632 22.632 0 0 0 2.294-2.127c.157-.17.307-.337.472-.496.176-.17.447-.437.504-.681a.52.52 0 0 0-.178-.528.762.762 0 0 0-.732-.138c-.201.075-.341.253-.485.401a8.17 8.17 0 0 1-.492.477c-.369.346-.75.678-1.152.984-.955.727-1.648.403-1.181-1.35.472-1.754 1.242-4.116 2.328-7.537 1.52-4.798-2.687-5.54-5.136-4.794-1.679.507-3.05 1.572-4.282 2.767zm8.018-10.773c-1.913.107-3.383 1.732-3.275 3.63.107 1.897 1.748 3.346 3.662 3.244 1.917-.109 3.384-1.732 3.277-3.629-.107-1.897-1.748-3.35-3.664-3.245z"/></symbol><symbol viewBox="0 0 82.4338 51" id="jackpot--icons" xmlns="http://www.w3.org/2000/svg"><path d="M77.303 10.178v16.523a5.305 5.305 0 0 1-5.3 5.299h-10.65l.866-1.993h9.784a3.304 3.304 0 0 0 3.305-3.306V10.178h1.995z"/><path d="M76.67 9.534a3.773 3.773 0 0 0 3.77-3.77c0-2.079-1.69-3.77-3.77-3.77a3.775 3.775 0 0 0-3.77 3.77 3.775 3.775 0 0 0 3.77 3.77m0 1.993A5.764 5.764 0 1 1 76.67 0a5.764 5.764 0 0 1 0 11.528zM63.804 51H47.853V11.122h15.95a5.983 5.983 0 0 1 5.983 5.981V45.02A5.983 5.983 0 0 1 63.804 51zm.996-30.906H52.838v2.992h8.971l-7.975 18.94h2.992l7.974-18.94v-2.992zM23.926 51V11.122h21.933V51H23.926zm16.948-30.906H28.91v2.992h8.974l-7.977 18.94h2.992l7.975-18.94v-2.992zM5.981 51A5.981 5.981 0 0 1 0 45.019V17.103a5.981 5.981 0 0 1 5.981-5.98h15.95V51H5.982zm10.966-30.906H4.985v2.992h8.971l-7.975 18.94h2.992l7.974-18.94v-2.992z"/></symbol><symbol viewBox="0 0 50 50" id="key--icons" xmlns="http://www.w3.org/2000/svg"><path d="M34.5 0C25.94 0 19 6.94 19 15.5c0 2.722.707 5.277 1.939 7.5h-6.94v6H8.002v6H3v5H0v10h8l7.98-8H16v-.022l12.262-12.295A15.43 15.43 0 0 0 34.5 31C43.061 31 50 24.06 50 15.5 50 6.94 43.06 0 34.5 0zm2 18.75a6.25 6.25 0 1 1 0-12.5 6.25 6.25 0 0 1 0 12.5z"/></symbol><symbol viewBox="0 0 44 40" id="live-casino--icons" xmlns="http://www.w3.org/2000/svg"><path d="M37.94 34.004c-.009-3.314.06-17.4.06-17.504C38 7.387 30.836-.001 22-.001S6 7.387 6 16.5c0 .08.069 14.19.06 17.504C6.054 37.318 3.435 40 0 40h12a5 5 0 0 0 5-5v-1.937c1.574.597 3.252.936 5 .936 1.748 0 3.425-.339 4.999-.936V35c0 2.761 2.24 5 5.002 5h12c-3.436 0-6.054-2.682-6.062-5.996zM8 16.5c0-1.324.187-2.601.51-3.82C9.583 11.605 11.105 11 12.998 11c2.827 0 4.402 1.473 6.35 4.098 2.401 3.234 4.98 3.974 8.152 3.901 3.37 0 6.364-2.202 8.285-4.937.13.794.214 1.605.214 2.438C36 24.757 29.458 32 22 32c-7.46 0-14-7.243-14-15.5z"/></symbol><symbol viewBox="0 0 26 31.5928" id="lock--icons" xmlns="http://www.w3.org/2000/svg"><path d="M22.494 10.846c.059-.375.099-.78.099-1.253A9.593 9.593 0 0 0 13 0a9.592 9.592 0 0 0-9.508 10.85C1.472 11.494 0 13.36 0 15.594v11a5 5 0 0 0 5 5h16c2.76 0 5-2.24 5-5v-11c0-2.238-1.48-4.108-3.506-4.747zm-7.882 10.026v5.152c0 .816-.753 1.479-1.681 1.479-.93 0-1.683-.663-1.683-1.48v-5.151c-1.076-.58-1.804-1.7-1.804-2.983 0-1.882 1.561-3.405 3.487-3.405s3.487 1.523 3.487 3.405c0 1.283-.73 2.403-1.806 2.983zm5.904-10.278H5.477a7.612 7.612 0 0 1-.07-1C5.407 5.405 8.813 2 13 2s7.593 3.406 7.593 7.593c0 .34-.034.672-.077 1z"/></symbol><symbol viewBox="0 0 26 32" id="logout--icons" xmlns="http://www.w3.org/2000/svg"><path d="M21.002 0H5.001A5 5 0 0 0 0 4.999v22.002A5 5 0 0 0 5 32h16.002a5 5 0 0 0 5-5V5a5 5 0 0 0-5-4.999zm-1 17.5H9.993l4.995 4.371a1.5 1.5 0 0 1-1.976 2.259L3.723 16l9.29-8.129a1.5 1.5 0 1 1 1.976 2.257L9.992 14.5h10.008a1.5 1.5 0 1 1 0 3z"/></symbol><symbol viewBox="0 0 32 26" id="mail--icons" xmlns="http://www.w3.org/2000/svg"><path d="M26.998 26h-22A4.999 4.999 0 0 1 0 21V5c0-2.761 2.237-5 4.998-5h22a4.999 4.999 0 0 1 4.999 5v16c0 2.761-2.237 5-4.999 5zm0-23.654h-22c-1.656 0-3 1.364-3 3.044l14 11.162 14-11.162c0-1.68-1.343-3.044-3-3.044z"/></symbol><symbol viewBox="0 0 65.1568 42.0002" id="menu--icons" xmlns="http://www.w3.org/2000/svg"><path d="M34.125 36.167c0 .115-.004.231-.01.347-.204 3.06-3.06 5.486-6.552 5.486h-21C2.938 42 0 39.39 0 36.167c0-6.5 4.607-12.029 11.071-14.187-3.48-2.054-5.82-5.832-5.82-10.167C5.25 5.288 10.538 0 17.06 0c6.526 0 11.814 5.288 11.814 11.813 0 4.334-2.342 8.113-5.821 10.166 6.463 2.159 11.071 7.688 11.071 14.188zM41.172 36.216c0 .27-.008.538-.025.805A12.207 12.207 0 0 1 39.705 42h25.452V36h-23.99c0 .072.005.144.005.216zM31.616 0a18.772 18.772 0 0 1 3.34 6h30.2V0h-33.54zM33.935 20.408A22.786 22.786 0 0 1 37.15 24h28.006v-6H34.94a18.896 18.896 0 0 1-1.005 2.408z"/></symbol><symbol viewBox="0 0 25 25" id="most-popular--icons" xmlns="http://www.w3.org/2000/svg"><path d="M12.5 0C5.6 0 0 5.6 0 12.5S5.6 25 12.5 25 25 19.4 25 12.5 19.4 0 12.5 0zM18 21l-5.5-3L7 21l1.2-6.2-4.6-4.3 6.3-.8L12.5 4l2.7 5.7 6.3.8-4.6 4.3L18 21z"/></symbol><symbol viewBox="0 0 56 56" id="new-games--icons" xmlns="http://www.w3.org/2000/svg"><path d="M56 23.566c-5.6 2.957-5.6 5.912 0 8.868-6.24 1.083-7.154 3.894-2.74 8.436-6.27-.899-8.007 1.493-5.214 7.176-5.683-2.793-8.076-1.054-7.176 5.214-4.542-4.412-7.354-3.499-8.436 2.74-2.955-5.599-5.912-5.599-8.868 0-1.082-6.239-3.895-7.152-8.437-2.74.9-6.268-1.492-8.007-7.175-5.214 2.793-5.683 1.054-8.075-5.214-7.176 4.412-4.542 3.5-7.353-2.74-8.436 5.6-2.956 5.6-5.912 0-8.868 6.24-1.081 7.152-3.894 2.74-8.436 6.268.9 8.007-1.492 5.214-7.176 5.683 2.793 8.075 1.054 7.175-5.214 4.541 4.414 7.355 3.5 8.437-2.74 2.956 5.6 5.913 5.6 8.868 0 1.081 6.24 3.894 7.154 8.436 2.74-.9 6.268 1.493 8.007 7.176 5.214-2.793 5.684-1.056 8.076 5.214 7.176-4.414 4.542-3.5 7.354 2.74 8.436zm-35.189-1.15H18.86v8.454l-4.249-8.455h-2.039v12.661h1.953V26.82l4.179 8.257h2.108v-12.66zm10.104 10.519h-5.803v-3.438h5.216v-2.132h-5.216v-2.808h5.614v-2.142h-7.704v12.661h7.893v-2.141zm12.29-10.52l-1.602 8.848-1.823-8.848h-2.497l-1.898 8.702-1.558-8.702h-2.151l2.488 12.662h2.267l2.055-9.47 2.074 9.47h2.232l2.52-12.662h-2.106z"/></symbol><symbol viewBox="0 0 39 40" id="note--icons" xmlns="http://www.w3.org/2000/svg"><path d="M31.998 38c2.758 0 5-2.243 5-5V7c0-2.757-2.242-5-5-5H7C4.242 2 2 4.243 2 7v26c0 2.757 2.242 5 5 5h24.998m0 2H7a7 7 0 0 1-7-7V7a7 7 0 0 1 7-7h24.998a7 7 0 0 1 7 7v26a7 7 0 0 1-7 7z"/><path d="M10 13.001a2 2 0 1 1 0-4 2 2 0 0 1 0 4zM10 22a2 2 0 1 1-.002-3.998A2 2 0 0 1 9.999 22zm0 9a2 2 0 1 1 0-4 2 2 0 0 1 0 4zm5.998-18.999V10h15V12h-15zm0 8.999v-2h15v2h-15zm0 9V28h15V30h-15z"/></symbol><symbol viewBox="0 0 162 111" id="pic-tc-agreement--icons" xmlns="http://www.w3.org/2000/svg"><g fill="none" fill-rule="evenodd"><path stroke="#FFE458" d="M127.11 73.7v21.913a4 4 0 0 1-4 4h-6V83.7l10-10zm0-19.925l-.784.785s0-.002.002-.002l.783-.783zm0 0l-.785.786-9.214 9.214V15a4 4 0 0 0-4-4H47V5a4 4 0 0 1 4-4h72.11a4 4 0 0 1 4 4v48.775z"/><path stroke="#FFE458" stroke-width="2" d="M117.11 63.775L96.487 84.399a1.86 1.86 0 0 0-.49.856l-2.561 9.864a1.882 1.882 0 0 0 2.293 2.295l9.864-2.562a1.88 1.88 0 0 0 .857-.49L117.111 83.7v21.913a4 4 0 0 1-4 4H41a4 4 0 0 1-4-4V15a4 4 0 0 1 4-4h72.11a4 4 0 0 1 4 4v48.775z"/><g transform="translate(47 25)"><path stroke="#FFE458" stroke-width="2" d="M79.325 29.56L49.486 59.4a1.86 1.86 0 0 0-.49.855l-2.561 9.864a1.882 1.882 0 0 0 2.293 2.295l9.864-2.562a1.88 1.88 0 0 0 .857-.49l29.837-29.838.002-.001.001-.002 6.007-6.007a1.881 1.881 0 0 0 0-2.66l-7.3-7.303a1.88 1.88 0 0 0-2.662 0l-6.006 6.007c-.002 0-.002.002-.002.002l6.008-6.009-6.01 6.01z"/><path stroke="#FFE458" stroke-linecap="square" stroke-width="3" d="M80.5 30.5l8.513 8.513"/><circle cx="2" cy="22" r="2" fill="#FFE458"/><path fill="#FF4D4D" stroke="#FFE458" d="M7 22h52"/><circle cx="2" cy="32" r="2" fill="#FFE458"/><path fill="#FF4D4D" stroke="#FFE458" d="M7 32h52"/><circle cx="2" cy="42" r="2" fill="#FFE458"/><path fill="#FF4D4D" stroke="#FFE458" d="M7 42h40"/><circle cx="2" cy="52" r="2" fill="#FFE458"/><path fill="#FF4D4D" stroke="#FFE458" d="M7 52h28"/><circle cx="2" cy="62" r="2" fill="#FFE458"/><path fill="#FF4D4D" stroke="#FFE458" d="M7 62h23"/><circle cx="2" cy="2" r="2" fill="#FFE458"/><path fill="#FF4D4D" stroke="#FFE458" d="M7 2h52"/><circle cx="2" cy="12" r="2" fill="#FFE458"/><path fill="#FF4D4D" stroke="#FFE458" d="M7 12h52"/></g><path stroke="#FFE458" d="M155.829 53.674l1.258-3.08 1.258 3.08 3.08 1.258-3.08 1.258-1.258 3.081-1.258-3.08-3.08-1.259z"/><path fill="#FFE458" d="M146.324 31.92l1.048-2.567 1.049 2.568 2.567 1.048-2.568 1.048-1.048 2.567-1.048-2.567-2.567-1.048z"/><path stroke="#FFE458" d="M14.176 34.434l1.258-3.08 1.258 3.08 3.081 1.258-3.08 1.258-1.259 3.08-1.258-3.08-3.08-1.258z"/><path fill="#FFE458" d="M18.725 72.639l1.047-2.568 1.049 2.568 2.567 1.048-2.567 1.048-1.049 2.567-1.048-2.567-2.567-1.048zm122.638 1.884l.779-1.907.778 1.907 1.908.78-1.907.778-.78 1.908-.779-1.908-1.907-.779zM2.711 56.154l.78-1.908.778 1.907 1.908.78-1.908.779-.778 1.907-.78-1.908-1.907-.779z"/></g></symbol><symbol viewBox="0 0 38.9779 46.3294" id="pin--icons" xmlns="http://www.w3.org/2000/svg"><path d="M33.27 32.917L19.872 46.173a.55.55 0 0 1-.767 0L5.708 32.917a19.139 19.139 0 0 1 0-27.27c7.61-7.53 19.951-7.53 27.562 0s7.61 19.74 0 27.27zM19.508 2.164C9.933 2.164 2.17 9.924 2.17 19.5s7.762 17.336 17.337 17.336c9.574 0 17.336-7.761 17.336-17.336S29.082 2.164 19.508 2.164z"/><path d="M16.82 14.633c.046-.788.315-1.413.806-1.875.49-.473 1.134-.71 1.93-.71.787 0 1.426.213 1.918.64.48.426.72.972.72 1.64 0 .657-.165 1.198-.498 1.625-.324.424-.936.907-1.834 1.443-.972.574-1.653 1.2-2.042 1.875-.399.714-.55 1.607-.458 2.682l.027.805h3.682v-.735c0-.686.16-1.241.485-1.668.324-.426.95-.907 1.877-1.445 1.98-1.166 2.97-2.736 2.97-4.708 0-1.593-.6-2.885-1.804-3.876-1.222-1-2.82-1.5-4.792-1.5-2.094 0-3.741.541-4.946 1.626-1.166 1.037-1.768 2.43-1.805 4.18h3.764zm2.46 14.765a2.25 2.25 0 0 0 1.61-.639c.444-.417.666-.932.666-1.543s-.222-1.129-.665-1.555a2.277 2.277 0 0 0-1.612-.625c-.631 0-1.163.21-1.597.625-.445.426-.667.944-.667 1.555s.222 1.126.667 1.543c.434.425.966.64 1.597.64z"/></symbol><symbol viewBox="0 0 48.8071 54" id="poker--icons" xmlns="http://www.w3.org/2000/svg"><path d="M41.538 8.307h-5.193v30.115c0 5.154-4.192 9.347-9.346 9.347H14.642C15.15 51.287 18.148 54 21.806 54h19.732a7.269 7.269 0 0 0 7.27-7.269V15.576a7.269 7.269 0 0 0-7.27-7.269z"/><path d="M34.268 8.307V7.27A7.264 7.264 0 0 0 26.998 0H7.269A7.269 7.269 0 0 0 0 7.269v31.153c0 2.378 1.158 4.47 2.922 5.796 1.216.913 2.71 1.474 4.347 1.474h19.729a7.27 7.27 0 0 0 7.271-7.27V8.307zm-10.49 12.018a.217.217 0 0 1-.004.036c.133 2.77-4.954 5.77-6.743 7.662v.01l-.003-.005-.005.005v-.01c-1.789-1.892-6.876-4.891-6.743-7.663-.002-.01-.003-.022-.003-.035l.003-.09-.003-.112h.011c.134-1.378 1.616-2.464 3.424-2.464h.01c1.574 0 2.899 1.317 3.306 2.438.406-1.121 1.73-2.438 3.304-2.438h.01c1.81 0 3.29 1.086 3.424 2.464h.012c0 .037-.002.074-.004.111.002.031.004.062.004.09z"/></symbol><symbol id="recent-games--icons" viewBox="0 0 46 43" xmlns="http://www.w3.org/2000/svg"><style>.bhicons-st0{fill-rule:evenodd;clip-rule:evenodd}.bhicons-st0,.bhicons-st1{fill:#ec3939}</style><path class="bhicons-st0" d="M24.496 6C15.933 6 8.992 12.94 8.992 21.5S15.933 37 24.496 37s15.503-6.94 15.503-15.5S33.06 6 24.496 6zm5.087 23.414l-6.002-6-.586-.586V11h2v11l6.001 6-1.413 1.414z"/><path class="bhicons-st1" d="M24.495 0C13.81 0 4.953 7.795 3.284 18.007L0 18.01l4.3 4.98 4.692-4.99-3.67.004C6.976 8.917 14.935 2 24.496 2c10.753 0 19.503 8.746 19.503 19.5C44 32.252 35.25 41 24.496 41v2C36.372 43 46 33.374 46 21.5S36.372 0 24.495 0z"/></symbol><symbol id="refresh--icons" viewBox="0 0 640 640.23" xmlns="http://www.w3.org/2000/svg"><defs><style>.bicls-1{fill:#aeb3bc}</style></defs><title>icons_refresh</title><path class="bicls-1" d="M636.77 319.47l-111.4-135.08a14.74 14.74 0 0 0-21.77 0L392.2 319.47a13.44 13.44 0 0 0 10.88 21.77H437c8.32 0 14.73 7 13.44 14.73-12.8 146-87.71 261.21-181.83 282.34v1.92C429.33 626.78 558 506.42 579.14 352.77c.64-6.4 6.4-11.52 13.44-11.52h33.93c10.9-.01 17.94-12.81 10.26-21.78zM236.62 299h-33.93c-8.32 0-14.73-7-13.44-14.73C202 138.29 277 23 371.07 1.92V0C210.37 13.44 81.69 133.81 60.56 287.46c-.64 6.4-6.4 11.52-13.44 11.52h-33.3a13.44 13.44 0 0 0-10.88 21.78l111.4 135.09a14.74 14.74 0 0 0 21.77 0l111.4-135.09A13.44 13.44 0 0 0 236.62 299z"/></symbol><symbol viewBox="0 0 38 50" id="scratch-card--icons" xmlns="http://www.w3.org/2000/svg"><path d="M30.983 0H7.017C3.142 0 0 3.132 0 6.996v36.008C0 46.868 3.142 50 7.018 50h23.965C34.858 50 38 46.868 38 43.004V6.996C38 3.132 34.858 0 30.983 0zm-1.224 19.989c.179-.04.36-.06.534-.06.59 0 1.145.22 1.578.587.013.01.025.023.038.035.122.108.233.229.331.36.015.02.035.034.049.053.009.013.013.027.022.04.048.07.087.147.128.223a2.379 2.379 0 0 1-.737 3.087L17.246 35.569l12.52-2.78c.178-.038.358-.058.534-.058 1.111 0 2.115.76 2.368 1.878a2.404 2.404 0 0 1-1.839 2.871l-22.76 5.052a2.524 2.524 0 0 1-.534.057 2.424 2.424 0 0 1-2.368-1.876 2.356 2.356 0 0 1 .213-1.61c.013-.029.015-.058.029-.087.063-.127.419-.63.86-1.01.257-.22 7.82-6.105 14.135-11.014L8.064 29.73a2.523 2.523 0 0 1-.535.057 2.424 2.424 0 0 1-2.368-1.876 2.358 2.358 0 0 1 .246-1.672c.003-.008.004-.017.008-.025l.025-.04c.035-.06.073-.115.113-.171.155-.215.414-.534.722-.799.257-.22 7.82-6.105 14.135-11.014L8.07 16.93a2.524 2.524 0 0 1-.535.057 2.424 2.424 0 0 1-2.368-1.876c-.295-1.296.53-2.581 1.839-2.871l22.76-5.052c.178-.04.358-.06.533-.06.59 0 1.145.219 1.578.586l.038.036c.122.108.233.229.332.36.014.02.033.034.048.053.008.013.013.027.022.039.048.071.088.148.128.225a2.379 2.379 0 0 1-.737 3.086L17.256 22.764l12.503-2.775z"/></symbol><symbol viewBox="0 0 31 31" id="search--icons" xmlns="http://www.w3.org/2000/svg"><path d="M20.362 22.52l2.158-2.157L31 28.842 28.844 31l-8.634-8.632z"/><path d="M13.735 24.417c2.853 0 5.536-1.111 7.553-3.128a10.61 10.61 0 0 0 3.13-7.555c0-2.852-1.111-5.535-3.13-7.552a10.613 10.613 0 0 0-7.553-3.129 10.617 10.617 0 0 0-7.554 3.129c-4.165 4.164-4.165 10.942 0 15.107a10.616 10.616 0 0 0 7.554 3.128m0 3.053c-3.515 0-7.03-1.341-9.713-4.023-5.363-5.363-5.363-14.06 0-19.424A13.696 13.696 0 0 1 13.735 0c3.514 0 7.03 1.342 9.711 4.023 5.365 5.364 5.365 14.06 0 19.424a13.693 13.693 0 0 1-9.71 4.023z"/></symbol><symbol viewBox="0 0 48 51" id="slots--icons" xmlns="http://www.w3.org/2000/svg"><path d="M34.85 24.874c-.741 0-1.46.08-2.167.198-.81-2.144-1.152-4.08-1.152-5.826-.144-10.504 12.867-15.19 13.7-15.504.215.008.423.01.64.02l.097-1.99c-4.458-.213-8.293.05-11.612.658-20.333-7.948-33.02 6.148-33.02 6.148 7.051 2.56 12.867 2.827 17.678 1.958-4.498 5.266-5.31 11.494-5.416 14.52-.166-.007-.328-.025-.496-.025-3.94 0-7.432 1.755-9.835 4.476C1.26 31.784 0 34.725 0 37.984c0 7.154 5.867 12.952 13.103 12.952 4.513 0 8.491-2.257 10.848-5.691a12.788 12.788 0 0 0 2.253-7.261c0-3.311-1.294-6.3-3.36-8.589-.167-.184-.3-.397-.477-.57a13.117 13.117 0 0 0-6.753-3.55c.083-2.828.847-9.336 5.794-14.396.457-.468.948-.905 1.454-1.327 3.392-1.135 6.183-2.786 8.486-4.382 2.681-.786 5.69-1.254 9.008-1.413-4.44 2.41-10.744 7.254-10.84 15.489-.002 1.94.374 4.043 1.2 6.3a13.265 13.265 0 0 0-5.51 3.572c1.87 2.487 3.015 5.535 3.015 8.866 0 3.308-1.129 6.34-2.977 8.819C27.646 49.369 31.045 51 34.85 51 42.113 51 48 45.15 48 37.937c0-7.215-5.887-13.063-13.15-13.063z"/></symbol><symbol viewBox="0 0 35.3436 33.6145" id="star--icons" xmlns="http://www.w3.org/2000/svg"><path d="M17.672 0l5.301 11.284 12.37 1.555-9.092 8.53 2.343 12.245-10.922-6.012L6.75 33.614 9.094 21.37 0 12.839l12.37-1.555L17.672 0z"/></symbol><symbol viewBox="0 0 49 49" id="table-games--icons" xmlns="http://www.w3.org/2000/svg"><path d="M24.5.034C10.968.034 0 10.994 0 24.517 0 38.039 10.968 49 24.5 49 38.03 49 49 38.04 49 24.517 49 10.995 38.03.034 24.5.034zm-3.136 46.744l.414-2.944c-1.6-.222-3.136-.64-4.586-1.227l-1.113 2.753a22.503 22.503 0 0 1-5.425-3.14l1.826-2.336a19.654 19.654 0 0 1-3.357-3.354l-2.337 1.824a22.484 22.484 0 0 1-3.144-5.421l2.753-1.113a19.379 19.379 0 0 1-1.226-4.581l-2.945.412a22.552 22.552 0 0 1-.223-3.134c0-1.064.08-2.109.223-3.133l2.945.413c.224-1.597.64-3.134 1.227-4.583l-2.754-1.113a22.48 22.48 0 0 1 3.143-5.421l2.337 1.824a19.71 19.71 0 0 1 3.356-3.354l-1.824-2.336a22.503 22.503 0 0 1 5.425-3.14l1.113 2.751A19.354 19.354 0 0 1 21.778 5.2l-.414-2.944c1.026-.143 2.072-.223 3.136-.223s2.11.08 3.136.223L27.222 5.2c1.6.222 3.135.64 4.587 1.227l1.113-2.754a22.5 22.5 0 0 1 5.424 3.142L36.52 9.15a19.66 19.66 0 0 1 3.357 3.355l2.338-1.825a22.477 22.477 0 0 1 3.143 5.42l-2.755 1.114a19.426 19.426 0 0 1 1.228 4.583l2.945-.414c.144 1.025.223 2.07.223 3.134s-.08 2.11-.223 3.134l-2.948-.413a19.25 19.25 0 0 1-1.226 4.582l2.756 1.113a22.48 22.48 0 0 1-3.144 5.422l-2.338-1.825a19.647 19.647 0 0 1-3.356 3.354l1.826 2.336a22.504 22.504 0 0 1-5.424 3.14l-1.113-2.751a19.361 19.361 0 0 1-4.587 1.226l.414 2.942a22.59 22.59 0 0 1-3.136.224c-1.064 0-2.11-.08-3.136-.223z"/><path d="M42.074 24.517c0-9.7-7.868-17.563-17.575-17.563-9.705 0-17.573 7.863-17.573 17.563S14.794 42.08 24.499 42.08c9.707 0 17.575-7.864 17.575-17.564zM27.5 26.294l2.927 2.925a2.357 2.357 0 0 1 2.604.495 2.35 2.35 0 0 1 0 3.33 2.355 2.355 0 1 1-3.827-2.604l-2.927-2.924a3.494 3.494 0 0 1-3.555-.001l-2.928 2.925a2.356 2.356 0 1 1-1.221-1.221l2.926-2.925a3.485 3.485 0 0 1 0-3.553l-2.926-2.925a2.36 2.36 0 0 1-2.606-.496 2.355 2.355 0 1 1 3.827-.726l2.928 2.925a3.498 3.498 0 0 1 3.555 0l2.927-2.926a2.352 2.352 0 0 1 .497-2.602c.919-.92 2.41-.92 3.33 0a2.357 2.357 0 1 1-2.604 3.825L27.5 22.741a3.492 3.492 0 0 1 0 3.553z"/></symbol><symbol viewBox="0 0 47 47" id="target--icons" xmlns="http://www.w3.org/2000/svg"><path d="M23.5 41C33.15 41 41 33.15 41 23.5S33.15 6 23.5 6C13.851 6 6 13.85 6 23.5S13.85 41 23.5 41m0 2C12.73 43 4 34.27 4 23.5S12.73 4 23.5 4 43 12.73 43 23.5 34.27 43 23.5 43z"/><path d="M23.5 16.188a7.312 7.312 0 1 1 0 14.624 7.312 7.312 0 0 1 0-14.624zM22 0h3v11h-3V0zM22 36h3v11h-3V36zM36 22h11v3H36v-3zM0 22h11v3H0v-3z"/></symbol><symbol viewBox="0 0 32 32" id="twitter--icons" xmlns="http://www.w3.org/2000/svg"><path d="M32 7.075a12.941 12.941 0 0 1-3.769 1.031 6.601 6.601 0 0 0 2.887-3.631 13.21 13.21 0 0 1-4.169 1.594A6.565 6.565 0 0 0 22.155 4a6.563 6.563 0 0 0-6.563 6.563c0 .512.056 1.012.169 1.494A18.635 18.635 0 0 1 2.23 5.195a6.56 6.56 0 0 0-.887 3.3 6.557 6.557 0 0 0 2.919 5.463 6.565 6.565 0 0 1-2.975-.819v.081a6.565 6.565 0 0 0 5.269 6.437 6.574 6.574 0 0 1-2.968.112 6.588 6.588 0 0 0 6.131 4.563 13.17 13.17 0 0 1-9.725 2.719 18.568 18.568 0 0 0 10.069 2.95c12.075 0 18.681-10.006 18.681-18.681 0-.287-.006-.569-.019-.85A13.216 13.216 0 0 0 32 7.076z"/></symbol><symbol viewBox="0 0 37.7912 30.7223" id="update--icons" xmlns="http://www.w3.org/2000/svg"><path d="M37.679 11.599c-.084.186-1.156 1.379-1.56 1.828-.725.809-2.688 3.076-3.016 3.333-.28.219-.593.34-.936.197-.31-.129-4.953-4.477-5.164-4.813-.652-1.034.42-2.356 1.542-1.9.238.096.415.273.6.445.25.231.498.464.748.697l1.205 1.123a12.889 12.889 0 0 0-2.073-4.643c-2.67-3.743-7.237-5.785-11.751-5.178a12.467 12.467 0 0 0-6.234 2.735 12.78 12.78 0 0 0-2.313 2.495c-.33.468-.63.958-.896 1.468-.28.537-.537 1.112-1.216 1.166-.553.044-1.067-.343-1.273-.85-.236-.576-.002-1.057.265-1.565A15.418 15.418 0 0 1 7.533 5.29a15.209 15.209 0 0 1 5.45-4.058C17.235-.63 22.22-.367 26.26 1.927c3.808 2.162 6.583 5.984 7.46 10.334.473-.525.943-1.052 1.415-1.578.177-.196.347-.415.542-.592a1.267 1.267 0 0 1 1.701.012c.402.376.526.99.3 1.496zm-5.76 11.472a15.449 15.449 0 0 1-1.887 2.62 15.22 15.22 0 0 1-5.223 3.799c-4.252 1.863-9.237 1.6-13.28-.695-3.808-2.16-6.582-5.982-7.46-10.333l-1.387 1.546c-.173.192-.339.395-.52.577a1.266 1.266 0 0 1-1.698.079 1.322 1.322 0 0 1-.376-1.48c.08-.207.218-.365.36-.527.398-.442 3.9-4.422 4.22-4.68.285-.228.605-.359.957-.212.309.13.568.474.813.704.123.113.244.225.364.338 1.039.968 3.775 3.436 3.986 3.771.651 1.035-.42 2.356-1.542 1.901-.239-.096-.414-.272-.6-.446l-.75-.697-1.205-1.123A12.91 12.91 0 0 0 9.16 23.38c2.869 3.618 7.559 5.412 12.055 4.54a12.498 12.498 0 0 0 6.05-3.067 12.805 12.805 0 0 0 2.18-2.62c.159-.251.689-1.304.852-1.537.348-.494.981-.672 1.516-.385.458.239.757.752.742 1.276-.016.522-.385 1.046-.636 1.485z"/></symbol><symbol viewBox="0 0 26 32" id="user--icons" xmlns="http://www.w3.org/2000/svg"><path d="M26.002 27.556c0 .089-.003.177-.009.263C25.84 30.152 23.663 32 21.002 32H5.001C2.239 32 0 30.01 0 27.556c0-4.953 3.512-9.165 8.437-10.81C5.785 15.182 4 12.302 4 9 4 4.03 8.03 0 13.001 0s9.001 4.028 9.001 9c0 3.302-1.784 6.181-4.436 7.747 4.924 1.644 8.436 5.856 8.436 10.809z"/></symbol><symbol viewBox="0 0 49 49" id="video-games--icons" xmlns="http://www.w3.org/2000/svg"><path d="M28.99 18.043c4.404 0 7.987-3.583 7.987-7.987 0-4.403-3.583-7.986-7.986-7.986-4.405 0-7.988 3.583-7.988 7.986 0 4.404 3.583 7.987 7.988 7.987m0 1.995a9.981 9.981 0 0 1-9.983-9.982c0-5.513 4.468-9.983 9.983-9.983 5.513 0 9.982 4.47 9.982 9.983 0 5.514-4.47 9.982-9.982 9.982z"/><path d="M10.022 18.043c4.405 0 7.987-3.583 7.987-7.987 0-4.403-3.582-7.986-7.987-7.986-4.403 0-7.986 3.583-7.986 7.986 0 4.404 3.583 7.987 7.986 7.987m0 1.995C4.51 20.038.04 15.57.04 10.056.04 4.543 4.51.073 10.022.073c5.515 0 9.983 4.47 9.983 9.983a9.98 9.98 0 0 1-9.983 9.982z"/><path d="M48.966 20.98L38.602 24.82c-.91-2.802-3.511-4.842-6.617-4.842H7.028A6.988 6.988 0 0 0 .04 26.965v6.988a6.988 6.988 0 0 0 6.988 6.987h5.99v7.987h2.994v-3.993H23v3.993h2.995v-7.986h5.99c2.77 0 5.14-1.625 6.272-3.96l10.709 3.967V20.98z"/></symbol><symbol viewBox="0 0 32 32" id="vkontakte--icons" xmlns="http://www.w3.org/2000/svg"><path d="M9.565 7.309h7.595c2.499 0 4.627 1.224 4.624 3.7-.002 2.067-.75 2.871-2.288 3.781.131.108 1.013.371 1.309.517.474.233.753.47 1.064.787.872.887 1.035 1.698 1.035 3.089 0 3.228-3.123 4.851-6.13 4.851H9.532l.032-16.725zm4.127 4.395l-.001 2.172c1.956 0 3.795.258 3.795-1.864 0-1.964-2.08-1.64-3.796-1.64l.002 1.332zm-.001 9.252c2.144 0 4.792.353 4.838-2.081.049-2.539-2.72-2.08-4.837-2.08l-.001 4.161z"/></symbol><symbol viewBox="0 0 33 26" id="wallet--icons" xmlns="http://www.w3.org/2000/svg"><path d="M20 17.564h9.001a2 2 0 0 0 2-2v5.438a5 5 0 0 1-5 5H4.999a5 5 0 0 1-4.999-5V5a5 5 0 0 1 4.999-5H26a5 5 0 0 1 5 5v6.439a2 2 0 0 0-2-2h-9a2 2 0 0 0-2 2v4.125a2 2 0 0 0 2 2z"/><path d="M29.001 17.564a2 2 0 0 0 2-2v-4.125a2 2 0 0 0-2-2h-9a2 2 0 0 0-2 2v4.125a2 2 0 0 0 2 2h9m0 2h-9c-2.206 0-4-1.795-4-4v-4.125c0-2.205 1.794-4 4-4h9a4.004 4.004 0 0 1 3.999 4v4.125c0 2.205-1.794 4-3.999 4z"/><path d="M22.5 10.97c1.105 0 2 .91 2 2.031s-.895 2.032-2 2.032c-1.104 0-2-.91-2-2.032 0-1.121.896-2.031 2-2.031z"/></symbol><symbol viewBox="0 0 50 50" id="weibo--icons" xmlns="http://www.w3.org/2000/svg"><path d="M34 29c-.602-5.8-7.602-9.8-16-8.898-4.898.5-9.398 2.597-11.898 5.597C4.5 27.602 3.8 29.801 4 32c.5 5.3 6.398 9 13.8 9 .7 0 1.4 0 2.2-.102 4.898-.5 9.398-2.597 11.898-5.597C33.5 33.398 34.2 31.199 34 29z" fill="#fff"/><path d="M19.8 38.898c-7.1.704-13.3-2.5-13.8-7.097-.5-4.602 5-9 12.102-9.7 7.199-.703 13.296 2.5 13.796 7.098.5 4.7-4.898 9-12.097 9.7m14.898-15c-.597-.2-1-.297-.699-1.098.7-1.7.8-3.2 0-4.301-1.398-2-5.3-1.898-9.7-.102 0 0-1.402.602-1-.5.7-2.199.598-4-.5-5-2.402-2.398-8.8.102-14.3 5.5C4.398 22.5 2 26.801 2 30.5 2 37.7 11.2 42 20.3 42 32.103 42 40 35.2 40 29.8c0-3.3-2.8-5.1-5.3-5.902" fill="#d32f2f"/><path d="M20.898 30.398c-.296.5-.898.801-1.398.602-.5-.2-.602-.8-.398-1.3.296-.5.898-.802 1.296-.5.602.1.704.6.5 1.198m-3.296 2.403c-.704 1-2.301 1.5-3.5 1-1.204-.5-1.5-1.7-.801-2.602.699-1 2.199-1.398 3.398-1 1.301.403 1.7 1.602.903 2.602m2.898-7.602C17 24.301 13.102 26 11.602 29c-1.5 3.102-.102 6.5 3.5 7.602C18.699 37.8 23 36 24.5 32.699c1.5-3.199-.398-6.597-4-7.5" fill="#263238"/><path d="M45.398 21.5a1.5 1.5 0 1 1-3 0 1.5 1.5 0 0 1 3 0z" fill="#f9a825"/><path d="M45.3 22c-.198.602-.8 1-1.402 1-.796 0-1.5-.7-1.5-1.5 0-.2 0-.398.102-.602C42.8 20 43 19 43 18c0-5-4-9-9-9-.398 0-.898 0-1.3.102h-.098-.102c-.8 0-1.5-.704-1.5-1.5 0-.801.7-1.5 1.5-1.5C33 6 33.5 6 34 6c6.602 0 12 5.398 12 12 0 1.398-.2 2.7-.7 4zM40 18c0-3.3-2.7-6-6-6h-.7-.1c-.7.102-1.302.7-1.302 1.5s.704 1.5 1.5 1.5h.5c1.704 0 3 1.3 3 3 0 .3-.097.7-.199 1-.097.2-.097.3-.097.5 0 .8.699 1.5 1.5 1.5.597 0 1.097-.398 1.398-.898V20c0-.102 0-.102.102-.2.296-.6.398-1.198.398-1.8z" fill="#f9a825"/></symbol><symbol viewBox="0 0 31 26" id="withdraw--icons" xmlns="http://www.w3.org/2000/svg"><path d="M7.372 16.691l8.128 9.294 8.129-9.294a1.499 1.499 0 1 0-2.258-1.974L15.5 21.43l-5.872-6.712a1.499 1.499 0 1 0-2.256 1.974z"/><path d="M14 9.701a1.5 1.5 0 0 1 3 0v12.005a1.5 1.5 0 1 1-3 0V9.7"/><path d="M22.041 10.475h3.96c2.76 0 4.999-2.212 4.999-4.941V4.94C31 2.211 28.76 0 26 0H5C2.24 0 0 2.212 0 4.941v.593c0 2.729 2.24 4.94 5 4.94h4.03V5.238H22l.041 5.238z"/></symbol><symbol viewBox="0 0 32 32" id="youtube--icons" xmlns="http://www.w3.org/2000/svg"><path d="M31.681 9.6s-.313-2.206-1.275-3.175C29.187 5.15 27.825 5.144 27.2 5.069c-4.475-.325-11.194-.325-11.194-.325h-.012s-6.719 0-11.194.325c-.625.075-1.987.081-3.206 1.356C.631 7.394.325 9.6.325 9.6s-.319 2.588-.319 5.181v2.425c0 2.587.319 5.181.319 5.181s.313 2.206 1.269 3.175c1.219 1.275 2.819 1.231 3.531 1.369 2.563.244 10.881.319 10.881.319s6.725-.012 11.2-.331c.625-.075 1.988-.081 3.206-1.356.962-.969 1.275-3.175 1.275-3.175s.319-2.587.319-5.181v-2.425c-.006-2.588-.325-5.181-.325-5.181zM12.694 20.15v-8.994l8.644 4.513-8.644 4.481z"/></symbol></svg>