<?xml version="1.0" encoding="utf-8"?><svg xmlns="http://www.w3.org/2000/svg" xmlns:xlink="http://www.w3.org/1999/xlink"><symbol id="kik--messengers" viewBox="-575 91.2 640 612.4" xmlns="http://www.w3.org/2000/svg"><style>.aamessengers-st0{fill:#383838}.aamessengers-st1{fill:#85c300}.aamessengers-st2{fill:#4dc1ff}</style><title>kik</title><g id="aaLayer_2"><g id="aaLayer_31"><path class="aamessengers-st0" d="M60.9 669.7C33 682.7 1.7 686.6-28.6 681c-20-3.4-39.6-9-58.4-16.7-4.4-2-9.5-1.8-13.6.7-134.9 71.9-301.5 41.1-401.9-74.2-39.5-44.7-64-100.6-70.2-159.9-9.8-76.9 11.9-154.5 60-215.2 48.8-65.1 121.4-108.2 202-119.9 118.1-18.1 220.1 15.6 300.7 105C43.1 258.7 70 336 64.2 414.3c-1.8 52-18.8 102.3-48.8 144.8C1.7 578 3.6 594.4 9.7 613.6c6.6 26.1 25.8 47.1 51.2 56.1zM-176.8 396l-2.4-1.3c0-26.5.1-53.1 0-79.6 1.2-11-6.8-21-17.8-22.2-.7-.1-1.3-.1-2-.1-10.4-.8-19.4 6.9-20.3 17.2-.1 1.3-.1 2.7.1 4-.1 56.7-.1 113.5.1 170.2-.7 10.8 7.4 20.2 18.3 20.9.6 0 1.2.1 1.7 0 11-.1 19.9-9 19.8-20v-1.2c.2-8.8.1-17.5.1-26.3-.2-4 2.3-7.7 6.1-8.9 3.9-1.4 5.3 2.4 7.1 4.8 10.5 14 21 28 31.6 41.9 6.5 9.9 19.7 12.7 29.6 6.2.6-.4 1.2-.8 1.7-1.2 9.3-7.5 10.9-21.1 3.4-30.5-.2-.2-.3-.4-.5-.6-10.1-14.3-20.7-28.2-31.4-42-4.5-5.8-5.9-9.5 1.1-15.1 8.6-6.7 16.2-14.5 22.7-23.2 5.2-6.5 5.7-15.5 1.5-22.7-3.8-7.3-11.7-11.7-19.9-10.9-7.7.8-14.8 4.7-19.6 10.8-10.6 9.8-20.7 19.9-31 29.8zm-227.2-.1l-2.4-1.2c0-26.6.1-53.1 0-79.7 1.2-11-6.8-21-17.8-22.2-11-1.2-21 6.8-22.2 17.8-.1 1.3-.2 2.7 0 4-.1 56.1 0 112.2.1 168.3-1.2 11 6.7 20.9 17.7 22.1 11 1.2 20.9-6.7 22.1-17.7.2-1.4.2-2.9 0-4.3.1-8.1.3-16.1-.1-24.2-.1-4.4 2.7-8.2 6.9-9.5 4.1-2 5.1 2.6 6.8 4.8 10.6 13.9 21 28 31.7 41.9 6.6 9.6 19.7 12.1 29.3 5.5.2-.1.3-.2.5-.3 9.8-6.9 12.2-20.5 5.2-30.4-.5-.7-1.1-1.4-1.7-2.1-9.5-13.5-19.1-26.9-29.6-39.5-6.5-7.8-6.9-12.7 1.7-19.2 8.6-6.1 16-13.8 21.8-22.6 6.1-9.8 3.2-22.7-6.6-28.8-3.2-2-6.9-3.1-10.7-3.2-8.2 0-15.9 3.7-21.1 10-10.6 10.1-21 20.4-31.6 30.5zm151.1 33.7c.1-17.9.2-35.7.1-53.6 1.1-11-6.9-20.9-17.9-22-11-1.1-20.9 6.9-22 17.9-.1 1.3-.1 2.5 0 3.8-.1 35.7-.1 71.5.1 107.2-1.3 11 6.6 20.9 17.6 22.2 11 1.3 20.9-6.6 22.2-17.6.2-1.4.2-2.8 0-4.2 0-17.9-.1-35.8-.1-53.7zm199 9.7c10.6-.1 19.2-8.7 19.1-19.4-.1-10.6-8.7-19.2-19.4-19.1-10.5.1-19 8.5-19.1 19.1.4 10.5 8.8 19 19.4 19.4z"/><path class="aamessengers-st1" d="M-176.8 396c10.3-9.9 20.4-20 30.8-29.6 4.8-6.1 11.9-10.1 19.6-10.8 8.2-.7 16.1 3.6 19.9 10.9 4.3 7.1 3.7 16.2-1.5 22.7-6.5 8.7-14.1 16.5-22.7 23.2-6.9 5.6-5.6 9.3-1.1 15.1 10.8 13.8 21.3 27.7 31.4 42 7.8 9.1 6.8 22.7-2.2 30.6-.2.2-.4.4-.6.5-9.2 7.4-22.7 6-30.1-3.3-.4-.6-.9-1.1-1.2-1.7-10.6-13.9-21.1-27.9-31.6-41.9-1.8-2.4-3.2-6.2-7.1-4.8-3.8 1.2-6.3 4.9-6.1 8.9 0 8.8.1 17.5-.1 26.3.7 11-7.6 20.5-18.6 21.2h-1.2c-10.8.2-19.8-8.4-20-19.2v-1.7c-.2-56.7-.2-113.5-.1-170.2-1.4-10.3 5.9-19.8 16.2-21.2 1.3-.2 2.7-.2 4-.1 11.1.1 20 9.2 19.9 20.3 0 .7 0 1.3-.1 2 .1 26.5 0 53.1 0 79.6l2.5 1.2zM-404 395.9c10.5-10.2 21-20.4 31.7-30.4 5.2-6.3 12.9-10 21.1-10 11.5.3 20.7 9.8 20.4 21.4-.1 3.8-1.2 7.5-3.2 10.7-5.8 8.8-13.1 16.5-21.8 22.6-8.6 6.4-8.2 11.4-1.7 19.2 10.5 12.6 20.2 26 29.6 39.5 8.1 8.9 7.4 22.7-1.5 30.8-.7.6-1.3 1.1-2.1 1.7-9.4 6.8-22.6 4.7-29.4-4.7-.1-.2-.2-.3-.3-.5-10.7-13.9-21.1-28-31.7-41.9-1.7-2.2-2.7-6.8-6.8-4.8-4.2 1.3-7 5.2-6.9 9.5.4 8 .2 16.1.1 24.2 1.2 11-6.8 20.9-17.8 22s-20.9-6.8-22-17.8c-.2-1.4-.2-2.9 0-4.3-.1-56.1-.2-112.2-.1-168.3-1-11.1 7.1-20.8 18.2-21.8s20.8 7.1 21.8 18.2c.1 1.3.1 2.7 0 4 .1 26.6 0 53.1 0 79.7l2.4 1zM-252.9 429.6c0 17.9.1 35.7 0 53.6 1.1 11-7 20.8-18 21.9-11 1.1-20.8-7-21.9-18-.1-1.4-.1-2.8 0-4.2-.1-35.7-.2-71.5-.1-107.2-1-11.1 7.2-20.8 18.3-21.8 11.1-1 20.8 7.2 21.8 18.3.1 1.3.1 2.5 0 3.8.1 17.9 0 35.8-.1 53.6z"/><path class="aamessengers-st2" d="M-53.9 439.3c-10.6.1-19.3-8.5-19.4-19.1-.1-10.6 8.5-19.3 19.1-19.4 10.5-.1 19.2 8.4 19.4 18.9-.3 10.5-8.6 19.1-19.1 19.6z"/></g></g></symbol><symbol viewBox="96 93 322 324" id="messenger--messengers" xmlns="http://www.w3.org/2000/svg"><path d="M257 93c-88.918 0-161 67.157-161 150 0 47.205 23.412 89.311 60 116.807V417l54.819-30.273C225.449 390.801 240.948 393 257 393c88.918 0 161-67.157 161-150S345.918 93 257 93zm16 202l-41-44-80 44 88-94 42 44 79-44-88 94z" fill="#0084ff"/></symbol><symbol viewBox="0 0 240 240" id="telegram--messengers" xmlns="http://www.w3.org/2000/svg"><circle cx="120" cy="120" r="120" fill="#1e96c8"/><path fill="#c8daea" d="M98 175c-3.888 0-3.227-1.468-4.568-5.17L82 132.207 170 80"/><path fill="#a9c9dd" d="M98 175c3 0 4.325-1.372 6-3l16-15.558-19.958-12.035"/><path fill="#fff" d="M100.04 144.41l48.36 35.729c5.519 3.045 9.501 1.468 10.876-5.123l19.685-92.763c2.015-8.08-3.08-11.746-8.36-9.349l-115.59 44.571c-7.89 3.165-7.843 7.567-1.438 9.528l29.663 9.259 68.673-43.325c3.242-1.966 6.218-.91 3.776 1.258"/></symbol><symbol viewBox="0 0 640 640" id="viber--messengers" xmlns="http://www.w3.org/2000/svg"><title>Viber</title><g fill="none" fill-rule="evenodd"><path d="M0 0h640v640H0z"/><path d="M357 223.82c12.46 2.655 22.01 7.39 30.17 15.03 10.5 9.915 16.255 21.915 18.785 39.155 1.71 11.24 1.01 15.66-2.975 19.325-3.73 3.41-10.625 3.535-14.8.315-3.035-2.275-3.985-4.675-4.68-11.18-.82-8.655-2.34-14.715-4.935-20.335-5.565-11.935-15.37-18.125-31.94-20.145-7.78-.95-10.12-1.83-12.65-4.8-4.62-5.495-2.845-14.4 3.54-17.685 2.405-1.2 3.415-1.325 8.73-1.01 3.295.19 8.165.76 10.755 1.33zm-13.47-47.685c38.395 5.62 68.12 23.43 87.605 52.355 10.945 16.295 17.775 35.43 20.115 55.955.82 7.515.82 21.22-.065 23.495-.825 2.145-3.48 5.05-5.755 6.25-2.465 1.265-7.715 1.135-10.625-.38-4.87-2.465-6.325-6.38-6.325-16.99 0-16.355-4.24-33.6-11.575-46.99-8.35-15.285-20.495-27.915-35.295-36.695-12.715-7.58-31.5-13.2-48.64-14.59-6.2-.505-9.615-1.77-11.955-4.485-3.605-4.105-3.985-9.665-.95-14.275 3.285-5.1 8.345-5.925 23.465-3.65zM194.57 137.17c2.215.76 5.63 2.525 7.59 3.79 12.015 7.96 45.475 50.715 56.42 72.06 6.26 12.19 8.35 21.22 6.39 27.915-2.025 7.2-5.375 10.99-20.37 23.05-6.01 4.86-11.64 9.85-12.525 11.18-2.275 3.285-4.11 9.725-4.11 14.275.065 10.545 6.895 29.685 15.875 44.4 6.955 11.43 19.415 26.08 31.75 37.325 14.485 13.265 27.26 22.295 41.685 29.43 18.535 9.22 29.855 11.555 38.14 7.705 2.085-.95 4.3-2.21 4.995-2.78.63-.57 5.505-6.505 10.815-13.075 10.245-12.885 12.585-14.97 19.61-17.37 8.92-3.03 18.025-2.21 27.2 2.465 6.96 3.6 22.14 13.01 31.94 19.83 12.905 9.03 40.48 31.515 44.215 36 6.575 8.085 7.715 18.44 3.29 29.875-4.68 12.06-22.895 34.67-35.61 44.335-11.51 8.715-19.67 12.06-30.425 12.565-8.855.44-12.525-.315-23.845-4.99-88.8-36.565-159.705-91.13-216-166.1-29.41-39.155-51.805-79.765-67.11-121.89-8.92-24.565-9.36-35.24-2.025-47.81 3.165-5.305 16.635-18.44 26.44-25.765 16.32-12.125 23.845-16.61 29.855-17.875 4.11-.885 11.26-.19 15.81 1.455zm144.595-6.82c21.76 2.715 39.34 7.955 58.635 17.37 18.975 9.285 31.12 18.065 47.185 34.04 15.055 15.095 23.405 26.525 32.26 44.27 12.335 24.755 19.355 54.19 20.555 86.585.445 11.05.125 13.515-2.405 16.675-4.805 6.125-15.37 5.115-18.975-1.77-1.14-2.275-1.455-4.23-1.835-13.075-.635-13.58-1.58-22.355-3.48-32.84-7.465-41.115-27.2-73.955-58.7-97.515-26.25-19.705-53.385-29.305-88.93-31.39-12.02-.695-14.105-1.135-16.825-3.22-5.06-3.98-5.315-13.325-.445-17.685 2.975-2.715 5.06-3.095 15.37-2.78 5.385.195 13.29.83 17.59 1.335zM320 0c176.73 0 320 143.27 320 320S496.73 640 320 640 0 496.73 0 320 143.27 0 320 0z" fill="#7F4DA0"/></g></symbol></svg>