<svg viewBox="0 0 50 50" xmlns="http://www.w3.org/2000/svg"><defs><style>.cls-4{fill:#cc7d15}</style><linearGradient id="linear-gradient" x1="19" y1="35.022" x2="19" y2="3.895" gradientUnits="userSpaceOnUse"><stop offset="0" stop-color="#faebd7"/><stop offset=".04" stop-color="#f9e7cd"/><stop offset=".17" stop-color="#f6dcb3"/><stop offset=".313" stop-color="#f3d39f"/><stop offset=".476" stop-color="#f1cd91"/><stop offset=".672" stop-color="#f0c989"/><stop offset="1" stop-color="#f0c886"/></linearGradient><linearGradient id="linear-gradient-2" x1="19" y1="38" x2="19" gradientUnits="userSpaceOnUse"><stop offset="0" stop-color="#e69935"/><stop offset=".265" stop-color="#e69a38"/><stop offset=".425" stop-color="#e79f40"/><stop offset=".556" stop-color="#e9a84e"/><stop offset=".672" stop-color="#ecb362"/><stop offset=".778" stop-color="#efc27c"/><stop offset=".8" stop-color="#f0c683"/><stop offset=".985" stop-color="#e69935"/></linearGradient><linearGradient id="linear-gradient-3" x1="19.037" y1="27.363" x2="19.037" y2="9.538" gradientUnits="userSpaceOnUse"><stop offset="0" stop-color="#e69935"/><stop offset="1" stop-color="#f0aa46"/></linearGradient></defs><g id="Layer_2" data-name="Layer 2" transform="translate(.114 .114) scale(1.31096)"><g id="Layer_2-2" data-name="Layer 2"><circle cx="19" cy="19" r="19" fill="url(#linear-gradient)"/><path d="M19 3A16 16 0 1 1 3 19 16.018 16.018 0 0 1 19 3m0-3a19 19 0 1 0 19 19A19 19 0 0 0 19 0z" fill="url(#linear-gradient-2)"/><path d="M9.012 9.538h7.243l2.794 10.846 2.773-10.846h7.24v17.825H24.55V13.77l-3.476 13.593h-4.083l-3.47-13.593v13.593h-4.51z" fill="url(#linear-gradient-3)"/><path class="cls-4" d="M19 3A16.018 16.018 0 0 0 3 19c0 .169.02.333.025.5a15.982 15.982 0 0 1 31.95 0c.005-.168.025-.331.025-.5A16.018 16.018 0 0 0 19 3z"/><path class="cls-4" d="M24.551 13.77l-3.476 13.593h-4.083l-3.47-13.593v13.593h-4.51v1h5.51v-6.632l1.501 5.88.192.752h5.637l.192-.752 1.507-5.893v6.645h5.511v-1h-4.511V13.77z"/></g></g></svg>