<svg viewBox="0 0 50 50" xmlns="http://www.w3.org/2000/svg"><defs><style>.cls-1{fill:#fff}.cls-3{fill:#c2c3ce}</style></defs><g id="Layer_2" data-name="Layer 2" transform="scale(.55488)"><g id="Layer_6" data-name="Layer 6"><circle class="cls-1" cx="45" cy="45" r="45"/><path fill="#bfc0cc" d="M19 39h52v33H19z"/><path class="cls-3" d="M13 25h64v12H13z"/><path class="cls-1" d="M42 25h6v47h-6z"/><g id="_Group_" data-name="&lt;Group&gt;"><path class="cls-3" d="M42 25l7.689-10.807a6.604 6.604 0 0 1 11.622 4.295A6.855 6.855 0 0 1 55 25H42zm12.705-9.12a2.591 2.591 0 0 0-1.981.92l-3.593 4.283 5.935-.015a2.606 2.606 0 0 0-.36-5.187z"/></g><g id="_Group_2" data-name="&lt;Group&gt;"><path class="cls-3" d="M48 25H35a6.723 6.723 0 0 1-6.167-6.512 6.604 6.604 0 0 1 11.64-4.275zm-12.92-3.932l5.935.015-3.553-4.24a2.606 2.606 0 0 0-4.629 1.645 2.587 2.587 0 0 0 2.246 2.58z"/></g></g></g></svg>