<svg xmlns="http://www.w3.org/2000/svg" width="22" height="17"><g fill="none" fill-rule="evenodd"><path d="M-2-2h25.667v21H-2z"/><path fill="#000" fill-rule="nonzero" d="M6.892 16.188v-1.08a.65.65 0 0 0-.18-.496.612.612 0 0 0-.48-.188.646.646 0 0 0-.593.306.614.614 0 0 0-.558-.306.552.552 0 0 0-.493.256v-.213H4.22v1.72h.37v-.952a.413.413 0 0 1 .1-.33.392.392 0 0 1 .313-.128c.243 0 .366.162.366.454v.958h.37v-.953a.415.415 0 0 1 .103-.328.392.392 0 0 1 .31-.13c.25 0 .37.162.37.454v.958h.37zm2.062-.86v-.86h-.37v.21a.632.632 0 0 0-.53-.252.89.89 0 0 0-.88.9c0 .498.394.9.88.9a.63.63 0 0 0 .53-.25v.208h.366l.004-.856zm-1.362 0c.016-.283.25-.5.527-.49.276.01.494.246.49.53a.517.517 0 0 1-.507.512.5.5 0 0 1-.377-.16.522.522 0 0 1-.138-.392h.004zm9.193-.9c.12 0 .24.022.352.068.107.044.205.11.288.19a.91.91 0 0 1 .19.287c.092.23.092.49 0 .72a.867.867 0 0 1-.478.477.96.96 0 0 1-.722 0 .828.828 0 0 1-.286-.19.894.894 0 0 1-.19-.286.994.994 0 0 1 0-.72.898.898 0 0 1 .19-.287.82.82 0 0 1 .285-.19.905.905 0 0 1 .366-.075l.005.005zm0 .36a.54.54 0 0 0-.21.04.475.475 0 0 0-.277.293.629.629 0 0 0 0 .448.486.486 0 0 0 .277.294.57.57 0 0 0 .418 0 .5.5 0 0 0 .176-.114.53.53 0 0 0 .11-.18.637.637 0 0 0 0-.447.54.54 0 0 0-.11-.18.492.492 0 0 0-.177-.113.562.562 0 0 0-.212-.05l.005.01zm-5.84.54c0-.54-.328-.9-.798-.9a.892.892 0 0 0-.87.913.894.894 0 0 0 .894.89c.252.008.497-.078.69-.242l-.176-.278a.786.786 0 0 1-.49.18.469.469 0 0 1-.504-.42h1.25c.005-.046.005-.09.005-.142zm-1.253-.15a.436.436 0 0 1 .442-.417.41.41 0 0 1 .298.12c.08.078.126.185.13.3l-.87-.003zm2.795-.27a1.063 1.063 0 0 0-.53-.15c-.2 0-.32.077-.32.203 0 .127.127.148.286.17l.176.025c.366.054.588.213.588.516 0 .303-.282.563-.767.563a1.195 1.195 0 0 1-.727-.224l.177-.293c.16.123.36.187.56.18.25 0 .384-.075.384-.208 0-.1-.095-.153-.296-.182l-.176-.025c-.377-.054-.582-.227-.582-.508 0-.342.275-.55.705-.55.24-.01.48.053.686.18l-.163.302zm1.762-.1h-.598v.778c0 .18.06.288.243.288a.666.666 0 0 0 .324-.097l.105.32a.85.85 0 0 1-.458.134c-.434 0-.585-.237-.585-.637v-.784h-.342v-.343h.342v-.523h.37v.523h.597v.342zm1.266-.384c.09 0 .177.016.26.047l-.112.36a.58.58 0 0 0-.23-.042c-.24 0-.35.158-.35.443v.965h-.368v-1.72h.363v.208a.49.49 0 0 1 .443-.252l-.007-.006zm2.534 1.513a.17.17 0 0 1 .159.236.194.194 0 0 1-.038.054.164.164 0 0 1-.055.036.153.153 0 0 1-.067.015.172.172 0 0 1-.121-.292.151.151 0 0 1 .053-.036.174.174 0 0 1 .058-.013h.01zm0 .305a.135.135 0 0 0 .05-.01.136.136 0 0 0 .077-.15.129.129 0 0 0-.126-.106.12.12 0 0 0-.05.01.116.116 0 0 0-.043.03.135.135 0 0 0 0 .18c.024.024.058.04.093.04v.006zm.01-.215c.017 0 .033.005.046.015a.05.05 0 0 1 .016.038.047.047 0 0 1-.012.032.057.057 0 0 1-.037.016l.05.06h-.04l-.047-.06h-.016v.06h-.033v-.166l.074.005zm-.038.03v.044h.04a.023.023 0 0 0 .02 0 .02.02 0 0 0 0-.015.022.022 0 0 0 0-.016.023.023 0 0 0-.02 0l-.04-.012z"/><g fill-rule="nonzero"><path fill="#7673C0" d="M8.234 2.1h5.55v9.95h-5.55z"/><path fill="#EB001B" d="M8.586 7.076a6.31 6.31 0 0 1 2.422-4.977 6.352 6.352 0 0 0-8.578.681 6.326 6.326 0 0 0 0 8.59 6.351 6.351 0 0 0 8.578.683 6.314 6.314 0 0 1-2.422-4.974z"/><path fill="#00A1DF" d="M20.664 11.066v-.253h.083v-.054h-.21v.053h.083v.262l.044-.01zm.407 0v-.316h-.063l-.074.226-.074-.226h-.066v.316h.046v-.237l.07.205h.046l.07-.206v.24l.045-.004zm.197-3.99a6.326 6.326 0 0 1-3.57 5.69 6.354 6.354 0 0 1-6.69-.715 6.322 6.322 0 0 0 2.424-4.975A6.324 6.324 0 0 0 11.008 2.1a6.35 6.35 0 0 1 6.69-.72 6.33 6.33 0 0 1 3.572 5.694l-.002.002z"/></g></g></svg>