<svg xmlns="http://www.w3.org/2000/svg" width="38" height="12"><defs><linearGradient id="a" x1=".008%" y1="50%" y2="50%"><stop stop-color="#00B4E6" offset="30%"/><stop stop-color="#088CCB" offset="100%"/></linearGradient></defs><g fill="none" fill-rule="evenodd"><path fill="#4DB45E" d="M10.163 0v.005C10.158.005 8.69 0 8.298 1.487 7.938 2.85 6.928 6.617 6.9 6.72h-.28s-1.035-3.85-1.4-5.24C4.83-.005 3.358 0 3.358 0H0v11.314h3.357v-6.72h.28l1.957 6.72h2.33L9.885 4.6h.28v6.714h3.355V0h-3.357zM21.86 0s-.985.094-1.446 1.186L18.036 6.72h-.28V0H14.4v11.314h3.17s1.03-.1 1.492-1.185l2.33-5.535h.28v6.72h3.357V0h-3.17zm5.74 4.8v6.176h3.357V7.37h3.636c1.585 0 2.927-1.073 3.426-2.57H27.6z"/><path fill="url(#a)" d="M7.506 0H.042c.373 2.154 1.897 3.883 3.87 4.447a5.09 5.09 0 0 0 1.402.197h5.753a4.11 4.11 0 0 0 .075-.79C11.142 1.724 9.515 0 7.506 0z" transform="translate(26.4)"/></g></svg>