<svg xmlns="http://www.w3.org/2000/svg" width="38" height="12"><defs><linearGradient id="a" x1="0%" y1="49.97%" y2="49.97%"><stop stop-color="#1A1E5A" offset="0%"/><stop stop-color="#122D98" offset="100%"/></linearGradient></defs><path fill="url(#a)" d="M14.173.206L9.28 11.776H6.1L3.7 2.555c-.14-.565-.278-.77-.71-1.01C2.247 1.148 1.054.77 0 .548L.07.205H5.2c.657 0 1.245.428 1.383 1.183l1.262 6.684L11.01.206h3.163zm12.496 7.8c.016-3.052-4.253-3.223-4.235-4.577.017-.413.414-.86 1.28-.98.43-.05 1.623-.1 2.97.516l.537-2.452C26.496.257 25.562 0 24.405 0c-2.973 0-5.082 1.577-5.1 3.823-.016 1.663 1.505 2.588 2.646 3.154 1.176.566 1.573.926 1.573 1.44-.017.772-.933 1.114-1.797 1.132-1.52.016-2.403-.413-3.094-.74l-.553 2.54c.708.324 2.004.6 3.352.616 3.163 0 5.22-1.56 5.237-3.96zm7.88 3.77h2.783L34.896.207H32.32c-.57 0-1.07.325-1.278.84L26.514 11.76h3.163l.622-1.73h3.87l.38 1.747zM31.18 7.68l1.59-4.337.916 4.337H31.18zM18.477.206l-2.49 11.57H12.98L15.47.207h3.007z"/></svg>