<svg width="14" height="10" xmlns="http://www.w3.org/2000/svg"><g fill="none" fill-rule="evenodd"><g fill="#333"><g><path d="M5.133 2.727c-.773 0-1.4-.61-1.4-1.363S4.36 0 5.133 0c.774 0 1.4.61 1.4 1.364 0 .753-.626 1.363-1.4 1.363zm3.734 0c-.774 0-1.4-.61-1.4-1.363S8.093 0 8.867 0c.773 0 1.4.61 1.4 1.364 0 .753-.627 1.363-1.4 1.363zm3.733 0c-.773 0-1.4-.61-1.4-1.363S11.827 0 12.6 0c.773 0 1.4.61 1.4 1.364 0 .753-.627 1.363-1.4 1.363zM8.867 6.364c-.774 0-1.4-.61-1.4-1.364 0-.753.626-1.364 1.4-1.364.773 0 1.4.61 1.4 1.364 0 .753-.627 1.364-1.4 1.364zm3.733 0c-.773 0-1.4-.61-1.4-1.364 0-.753.627-1.364 1.4-1.364.773 0 1.4.61 1.4 1.364 0 .753-.627 1.364-1.4 1.364zm-7.467 0c-.773 0-1.4-.61-1.4-1.364 0-.753.627-1.364 1.4-1.364.774 0 1.4.61 1.4 1.364 0 .753-.626 1.364-1.4 1.364zm-3.733 0C.627 6.364 0 5.754 0 5c0-.753.627-1.364 1.4-1.364.773 0 1.4.61 1.4 1.364 0 .753-.627 1.364-1.4 1.364zM5.133 10c-.773 0-1.4-.61-1.4-1.364 0-.753.627-1.363 1.4-1.363.774 0 1.4.61 1.4 1.363S5.907 10 5.133 10zm3.734 0c-.774 0-1.4-.61-1.4-1.364 0-.753.626-1.363 1.4-1.363.773 0 1.4.61 1.4 1.363S9.64 10 8.867 10zM1.4 10C.627 10 0 9.39 0 8.636c0-.753.627-1.363 1.4-1.363.773 0 1.4.61 1.4 1.363S2.173 10 1.4 10z"/></g></g></g></svg>