<svg width="136" height="106" xmlns="http://www.w3.org/2000/svg"><g fill="none" fill-rule="evenodd"><g><g transform="translate(1 1)"><path stroke="#AFB7C2" stroke-width="2" d="M0 0h134v82H0z"/><circle stroke="#AFB7C2" cx="5" cy="5" r="1"/><circle stroke="#AFB7C2" cx="129" cy="5" r="1"/><circle stroke="#AFB7C2" cx="128" cy="76" r="2"/><circle stroke="#AFB7C2" cx="6" cy="76" r="2"/><path d="M46 32a1 1 0 1 1 0-2 1 1 0 0 1 0 2zm-3 0a1 1 0 1 1 0-2 1 1 0 0 1 0 2zm-3 0a1 1 0 1 1 0-2 1 1 0 0 1 0 2zm-3 0a1 1 0 1 1 0-2 1 1 0 0 1 0 2zm9-3a1 1 0 1 1 0-2 1 1 0 0 1 0 2zm-9 0a1 1 0 1 1 0-2 1 1 0 0 1 0 2zm9-3a1 1 0 1 1 0-2 1 1 0 0 1 0 2zm-9 0a1 1 0 1 1 0-2 1 1 0 0 1 0 2zm9-3a1 1 0 1 1 0-2 1 1 0 0 1 0 2zm-3 0a1 1 0 1 1 0-2 1 1 0 0 1 0 2zm-3 0a1 1 0 1 1 0-2 1 1 0 0 1 0 2zm-3 0a1 1 0 1 1 0-2 1 1 0 0 1 0 2zm9-3a1 1 0 1 1 0-2 1 1 0 0 1 0 2zm-9 0a1 1 0 1 1 0-2 1 1 0 0 1 0 2zm9-3a1 1 0 1 1 0-2 1 1 0 0 1 0 2zm-9 0a1 1 0 1 1 0-2 1 1 0 0 1 0 2zm9-3a1 1 0 1 1 0-2 1 1 0 0 1 0 2zm-3 0a1 1 0 1 1 0-2 1 1 0 0 1 0 2zm-3 0a1 1 0 1 1 0-2 1 1 0 0 1 0 2zm-3 0a1 1 0 1 1 0-2 1 1 0 0 1 0 2z" fill="#AFB7C2" opacity=".6"/><path d="M36.5 69a1.5 1.5 0 1 1 0-3 1.5 1.5 0 0 1 0 3zm-4 0a1.5 1.5 0 1 1 0-3 1.5 1.5 0 0 1 0 3zm-4 0a1.5 1.5 0 1 1 0-3 1.5 1.5 0 0 1 0 3zm-4 0a1.5 1.5 0 1 1 0-3 1.5 1.5 0 0 1 0 3zm12-4a1.5 1.5 0 1 1 0-3 1.5 1.5 0 0 1 0 3zm-12 0a1.5 1.5 0 1 1 0-3 1.5 1.5 0 0 1 0 3zm12-4a1.5 1.5 0 1 1 0-3 1.5 1.5 0 0 1 0 3zm-12 0a1.5 1.5 0 1 1 0-3 1.5 1.5 0 0 1 0 3zm12-4a1.5 1.5 0 1 1 0-3 1.5 1.5 0 0 1 0 3zm-4 0a1.5 1.5 0 1 1 0-3 1.5 1.5 0 0 1 0 3zm-4 0a1.5 1.5 0 1 1 0-3 1.5 1.5 0 0 1 0 3zm-4 0a1.5 1.5 0 1 1 0-3 1.5 1.5 0 0 1 0 3zm12-4a1.5 1.5 0 1 1 0-3 1.5 1.5 0 0 1 0 3zm-12 0a1.5 1.5 0 1 1 0-3 1.5 1.5 0 0 1 0 3zm12-4a1.5 1.5 0 1 1 0-3 1.5 1.5 0 0 1 0 3zm-12 0a1.5 1.5 0 1 1 0-3 1.5 1.5 0 0 1 0 3zm12-4a1.5 1.5 0 1 1 0-3 1.5 1.5 0 0 1 0 3zm-4 0a1.5 1.5 0 1 1 0-3 1.5 1.5 0 0 1 0 3zm-4 0a1.5 1.5 0 1 1 0-3 1.5 1.5 0 0 1 0 3zm-4 0a1.5 1.5 0 1 1 0-3 1.5 1.5 0 0 1 0 3zm32 24a1.5 1.5 0 1 1 0-3 1.5 1.5 0 0 1 0 3zm-4 0a1.5 1.5 0 1 1 0-3 1.5 1.5 0 0 1 0 3zm-4 0a1.5 1.5 0 1 1 0-3 1.5 1.5 0 0 1 0 3zm-4 0a1.5 1.5 0 1 1 0-3 1.5 1.5 0 0 1 0 3zm12-4a1.5 1.5 0 1 1 0-3 1.5 1.5 0 0 1 0 3zm-12 0a1.5 1.5 0 1 1 0-3 1.5 1.5 0 0 1 0 3zm12-4a1.5 1.5 0 1 1 0-3 1.5 1.5 0 0 1 0 3zm-12 0a1.5 1.5 0 1 1 0-3 1.5 1.5 0 0 1 0 3zm12-4a1.5 1.5 0 1 1 0-3 1.5 1.5 0 0 1 0 3zm-4 0a1.5 1.5 0 1 1 0-3 1.5 1.5 0 0 1 0 3zm-4 0a1.5 1.5 0 1 1 0-3 1.5 1.5 0 0 1 0 3zm-4 0a1.5 1.5 0 1 1 0-3 1.5 1.5 0 0 1 0 3zm12-4a1.5 1.5 0 1 1 0-3 1.5 1.5 0 0 1 0 3zm-12 0a1.5 1.5 0 1 1 0-3 1.5 1.5 0 0 1 0 3zm12-4a1.5 1.5 0 1 1 0-3 1.5 1.5 0 0 1 0 3zm-12 0a1.5 1.5 0 1 1 0-3 1.5 1.5 0 0 1 0 3zm12-4a1.5 1.5 0 1 1 0-3 1.5 1.5 0 0 1 0 3zm-4 0a1.5 1.5 0 1 1 0-3 1.5 1.5 0 0 1 0 3zm-4 0a1.5 1.5 0 1 1 0-3 1.5 1.5 0 0 1 0 3zm-4 0a1.5 1.5 0 1 1 0-3 1.5 1.5 0 0 1 0 3zm20 12a1.5 1.5 0 1 1 0-3 1.5 1.5 0 0 1 0 3zm4 0a1.5 1.5 0 1 1 0-3 1.5 1.5 0 0 1 0 3zm20 12a1.5 1.5 0 1 1 0-3 1.5 1.5 0 0 1 0 3zm-4 0a1.5 1.5 0 1 1 0-3 1.5 1.5 0 0 1 0 3zm-4 0a1.5 1.5 0 1 1 0-3 1.5 1.5 0 0 1 0 3zm-4 0a1.5 1.5 0 1 1 0-3 1.5 1.5 0 0 1 0 3zm0-4a1.5 1.5 0 1 1 0-3 1.5 1.5 0 0 1 0 3zm12-4a1.5 1.5 0 1 1 0-3 1.5 1.5 0 0 1 0 3zm-12 0a1.5 1.5 0 1 1 0-3 1.5 1.5 0 0 1 0 3zm12-4a1.5 1.5 0 1 1 0-3 1.5 1.5 0 0 1 0 3zm-4 0a1.5 1.5 0 1 1 0-3 1.5 1.5 0 0 1 0 3zm-4 0a1.5 1.5 0 1 1 0-3 1.5 1.5 0 0 1 0 3zm-4 0a1.5 1.5 0 1 1 0-3 1.5 1.5 0 0 1 0 3zm0-4a1.5 1.5 0 1 1 0-3 1.5 1.5 0 0 1 0 3zm12-4a1.5 1.5 0 1 1 0-3 1.5 1.5 0 0 1 0 3zm-12 0a1.5 1.5 0 1 1 0-3 1.5 1.5 0 0 1 0 3zm12-4a1.5 1.5 0 1 1 0-3 1.5 1.5 0 0 1 0 3zm-4 0a1.5 1.5 0 1 1 0-3 1.5 1.5 0 0 1 0 3zm-4 0a1.5 1.5 0 1 1 0-3 1.5 1.5 0 0 1 0 3zm-4 0a1.5 1.5 0 1 1 0-3 1.5 1.5 0 0 1 0 3zm12 20a1.5 1.5 0 1 1 0-3 1.5 1.5 0 0 1 0 3zm0-12a1.5 1.5 0 1 1 0-3 1.5 1.5 0 0 1 0 3zm20 16a1.5 1.5 0 1 1 0-3 1.5 1.5 0 0 1 0 3zm-4 0a1.5 1.5 0 1 1 0-3 1.5 1.5 0 0 1 0 3zm-4 0a1.5 1.5 0 1 1 0-3 1.5 1.5 0 0 1 0 3zm-4 0a1.5 1.5 0 1 1 0-3 1.5 1.5 0 0 1 0 3zm12-4a1.5 1.5 0 1 1 0-3 1.5 1.5 0 0 1 0 3zm-12 0a1.5 1.5 0 1 1 0-3 1.5 1.5 0 0 1 0 3zm12-4a1.5 1.5 0 1 1 0-3 1.5 1.5 0 0 1 0 3zm-12 0a1.5 1.5 0 1 1 0-3 1.5 1.5 0 0 1 0 3zm12-4a1.5 1.5 0 1 1 0-3 1.5 1.5 0 0 1 0 3zm-4 0a1.5 1.5 0 1 1 0-3 1.5 1.5 0 0 1 0 3zm-4 0a1.5 1.5 0 1 1 0-3 1.5 1.5 0 0 1 0 3zm-4 0a1.5 1.5 0 1 1 0-3 1.5 1.5 0 0 1 0 3zm12-4a1.5 1.5 0 1 1 0-3 1.5 1.5 0 0 1 0 3zm-12 0a1.5 1.5 0 1 1 0-3 1.5 1.5 0 0 1 0 3zm12-4a1.5 1.5 0 1 1 0-3 1.5 1.5 0 0 1 0 3zm-12 0a1.5 1.5 0 1 1 0-3 1.5 1.5 0 0 1 0 3zm12-4a1.5 1.5 0 1 1 0-3 1.5 1.5 0 0 1 0 3zm-4 0a1.5 1.5 0 1 1 0-3 1.5 1.5 0 0 1 0 3zm-4 0a1.5 1.5 0 1 1 0-3 1.5 1.5 0 0 1 0 3zm-4 0a1.5 1.5 0 1 1 0-3 1.5 1.5 0 0 1 0 3z" fill="#AFB7C2" opacity=".4"/><path d="M61 32a1 1 0 1 1 0-2 1 1 0 0 1 0 2zm-3 0a1 1 0 1 1 0-2 1 1 0 0 1 0 2zm-3 0a1 1 0 1 1 0-2 1 1 0 0 1 0 2zm-3 0a1 1 0 1 1 0-2 1 1 0 0 1 0 2zm9-3a1 1 0 1 1 0-2 1 1 0 0 1 0 2zm-9 0a1 1 0 1 1 0-2 1 1 0 0 1 0 2zm9-3a1 1 0 1 1 0-2 1 1 0 0 1 0 2zm-9 0a1 1 0 1 1 0-2 1 1 0 0 1 0 2zm9-3a1 1 0 1 1 0-2 1 1 0 0 1 0 2zm-3 0a1 1 0 1 1 0-2 1 1 0 0 1 0 2zm-3 0a1 1 0 1 1 0-2 1 1 0 0 1 0 2zm-3 0a1 1 0 1 1 0-2 1 1 0 0 1 0 2zm9-3a1 1 0 1 1 0-2 1 1 0 0 1 0 2zm-9 0a1 1 0 1 1 0-2 1 1 0 0 1 0 2zm9-3a1 1 0 1 1 0-2 1 1 0 0 1 0 2zm-9 0a1 1 0 1 1 0-2 1 1 0 0 1 0 2zm9-3a1 1 0 1 1 0-2 1 1 0 0 1 0 2zm-3 0a1 1 0 1 1 0-2 1 1 0 0 1 0 2zm-3 0a1 1 0 1 1 0-2 1 1 0 0 1 0 2zm-3 0a1 1 0 1 1 0-2 1 1 0 0 1 0 2zm15 15a1 1 0 1 1 0-2 1 1 0 0 1 0 2zm0-12a1 1 0 1 1 0-2 1 1 0 0 1 0 2zm15 15a1 1 0 1 1 0-2 1 1 0 0 1 0 2zm-3 0a1 1 0 1 1 0-2 1 1 0 0 1 0 2zm-3 0a1 1 0 1 1 0-2 1 1 0 0 1 0 2zm-3 0a1 1 0 1 1 0-2 1 1 0 0 1 0 2zm9-3a1 1 0 1 1 0-2 1 1 0 0 1 0 2zm-9 0a1 1 0 1 1 0-2 1 1 0 0 1 0 2zm9-3a1 1 0 1 1 0-2 1 1 0 0 1 0 2zm-9 0a1 1 0 1 1 0-2 1 1 0 0 1 0 2zm9-3a1 1 0 1 1 0-2 1 1 0 0 1 0 2zm-3 0a1 1 0 1 1 0-2 1 1 0 0 1 0 2zm-3 0a1 1 0 1 1 0-2 1 1 0 0 1 0 2zm-3 0a1 1 0 1 1 0-2 1 1 0 0 1 0 2zm9-3a1 1 0 1 1 0-2 1 1 0 0 1 0 2zm-9 0a1 1 0 1 1 0-2 1 1 0 0 1 0 2zm9-3a1 1 0 1 1 0-2 1 1 0 0 1 0 2zm-9 0a1 1 0 1 1 0-2 1 1 0 0 1 0 2zm9-3a1 1 0 1 1 0-2 1 1 0 0 1 0 2zm-3 0a1 1 0 1 1 0-2 1 1 0 0 1 0 2zm-3 0a1 1 0 1 1 0-2 1 1 0 0 1 0 2zm-3 0a1 1 0 1 1 0-2 1 1 0 0 1 0 2zm24 18a1 1 0 1 1 0-2 1 1 0 0 1 0 2zm-3 0a1 1 0 1 1 0-2 1 1 0 0 1 0 2zm-3 0a1 1 0 1 1 0-2 1 1 0 0 1 0 2zm-3 0a1 1 0 1 1 0-2 1 1 0 0 1 0 2zm9-3a1 1 0 1 1 0-2 1 1 0 0 1 0 2zm-9 0a1 1 0 1 1 0-2 1 1 0 0 1 0 2zm9-3a1 1 0 1 1 0-2 1 1 0 0 1 0 2zm-9 0a1 1 0 1 1 0-2 1 1 0 0 1 0 2zm9-3a1 1 0 1 1 0-2 1 1 0 0 1 0 2zm-3 0a1 1 0 1 1 0-2 1 1 0 0 1 0 2zm-3 0a1 1 0 1 1 0-2 1 1 0 0 1 0 2zm-3 0a1 1 0 1 1 0-2 1 1 0 0 1 0 2zm9-3a1 1 0 1 1 0-2 1 1 0 0 1 0 2zm-9 0a1 1 0 1 1 0-2 1 1 0 0 1 0 2zm9-3a1 1 0 1 1 0-2 1 1 0 0 1 0 2zm-9 0a1 1 0 1 1 0-2 1 1 0 0 1 0 2zm9-3a1 1 0 1 1 0-2 1 1 0 0 1 0 2zm-3 0a1 1 0 1 1 0-2 1 1 0 0 1 0 2zm-3 0a1 1 0 1 1 0-2 1 1 0 0 1 0 2zm-3 0a1 1 0 1 1 0-2 1 1 0 0 1 0 2z" fill="#AFB7C2" opacity=".6"/><path d="M24 82h13v3a1 1 0 0 1-1 1H25a1 1 0 0 1-1-1v-3z" stroke="#AFB7C2" stroke-width="2"/><path d="M26.151 87.273v16.998m9-16.998v16.998" stroke="#AFB7C2" fill="#F8F9FA" stroke-linecap="round"/><path d="M96 82h13v3a1 1 0 0 1-1 1H97a1 1 0 0 1-1-1v-3z" stroke="#AFB7C2" stroke-width="2"/><path d="M98.151 87.273v16.998m9-16.998v16.998" stroke="#AFB7C2" fill="#F8F9FA" stroke-linecap="round"/></g></g></g></svg>