<svg width="20" height="20" xmlns="http://www.w3.org/2000/svg" xmlns:xlink="http://www.w3.org/1999/xlink"><use xlink:href="#a" fill="#062347"/><defs><path id="a" fill-rule="evenodd" d="M16.918 6.636l.34.824C20 8.458 20 8.574 20 8.904V11c0 .328 0 .442-2.73 1.53l-.338.822c1.226 2.638 1.146 2.72.916 2.956l-1.616 1.614h-.2c-.242 0-1.136-.34-2.666-1l-.834.344C11.53 20 11.416 20 11.094 20H9c-.326 0-.436 0-1.514-2.722l-.832-.346c-2.268 1.05-2.536 1.05-2.626 1.05h-.174l-.148-.13-1.49-1.488c-.226-.23-.304-.31.862-3l-.34-.82C0 11.542 0 11.426 0 11.096V9c0-.338 0-.442 2.728-1.518l.34-.822C1.836 4.016 1.92 3.93 2.165 3.68l1.6-1.6h.2c.243 0 1.14.34 2.67 1l.83-.344C8.466 0 8.586 0 8.903 0H11c.32 0 .43 0 1.508 2.726l.834.344c2.266-1.048 2.536-1.048 2.628-1.048h.172l.148.128 1.49 1.486c.228.23.304.31-.862 3zM6.76 11.342a3.501 3.501 0 1 0 6.463-2.69 3.501 3.501 0 0 0-6.462 2.69z"/></defs></svg>