<svg data-name="Слой 1" xmlns="http://www.w3.org/2000/svg" viewBox="0 0 88 21"><path d="M0 .18h4l1.55 6 1.54-6h4v9.88H8.65V2.52l-1.91 7.53H4.45L2.54 2.52v7.54H0zm19.16 8.27h-3.45l-.48 1.63h-3.15l3.74-9.9h3.33l3.74 9.88h-3.17zm-.64-2.14l-1.06-3.58-1.08 3.56zm5.34 3.77V.18H29a7.41 7.41 0 0 1 2.21.24 2.31 2.31 0 0 1 1.21.9 2.79 2.79 0 0 1-.7 3.86l-.17.11a3.71 3.71 0 0 1-1.07.39 3.06 3.06 0 0 1 .8.36 3.12 3.12 0 0 1 .49.52 3.88 3.88 0 0 1 .43.64l1.48 2.86h-3.51L28.54 7a2.3 2.3 0 0 0-.54-.72 1.27 1.27 0 0 0-.77-.28H27v4h-3.11zm3.08-5.88h1.27a4.61 4.61 0 0 0 .79-.14.81.81 0 0 0 .5-.31 1 1 0 0 0-.11-1.31 1.84 1.84 0 0 0-1.14-.25H27v2zm14.4 4.23h-3.45l-.48 1.63h-3.12L38 .18h3.34l3.72 9.88h-3.18zm-.64-2.14l-1.06-3.56-1.08 3.56zM43.88.18h9.32v2.45h-3.11v7.44H47V2.63h-3.12zm10.69 0h3.06v3.45H61V.18h3v9.88h-3v-4h-3.34v4h-3.05V.18zm11.12 4.95a5.09 5.09 0 0 1 1.38-3.77A5.09 5.09 0 0 1 70.83 0a5.18 5.18 0 0 1 3.82 1.32A5 5 0 0 1 76 5a6.08 6.08 0 0 1-.59 2.84 4.16 4.16 0 0 1-1.69 1.74 5.58 5.58 0 0 1-2.75.64 6.36 6.36 0 0 1-2.77-.53A4.17 4.17 0 0 1 66.4 8a5.58 5.58 0 0 1-.68-2.89m3.06 0a3.31 3.31 0 0 0 .56 2.15 2.11 2.11 0 0 0 3 .07l.06-.06A3.66 3.66 0 0 0 72.92 5a3.05 3.05 0 0 0-.57-2 1.91 1.91 0 0 0-1.53-.64 1.86 1.86 0 0 0-1.48.64 3.32 3.32 0 0 0-.56 2.16m8.87-5h2.85l3.73 5.47V.18h2.91v9.88h-2.89l-3.71-5.43v5.43h-2.87V.18zM33.35 14h3.35a1.83 1.83 0 0 1 1.27.41 1.34 1.34 0 0 1 .45 1 1.27 1.27 0 0 1-.32.88 1.42 1.42 0 0 1-.64.39 1.62 1.62 0 0 1 .92.52 1.41 1.41 0 0 1 .29.92 1.58 1.58 0 0 1-.21.81 1.55 1.55 0 0 1-.57.57 1.91 1.91 0 0 1-.68.19 7.84 7.84 0 0 1-.8.08h-3.06zm1.81 2.27h.78a.9.9 0 0 0 .59-.15.53.53 0 0 0 .17-.41.5.5 0 0 0-.17-.4.88.88 0 0 0-.57-.14h-.79v1.09zm0 2.27h.91a1 1 0 0 0 .64-.17.55.55 0 0 0 .19-.44.51.51 0 0 0-.19-.41 1 1 0 0 0-.64-.16h-.92v1.17zm6-4.54h4.8v1.23h-3v.92h2.79v1.18H42.9v1.16H46v1.31h-4.89zm7.24 0h5.44v1.42H52v4.38h-1.83v-4.33h-1.83zM21 15.24l2.7 1.35a4.18 4.18 0 0 0-4.09-2.14 4.06 4.06 0 0 0 3.82 2.3L21 15.24m-4.24-.57l2.33 1.86a4.08 4.08 0 0 0-3.52-2.91 4.14 4.14 0 0 0 3.33 3.11l-2.14-2.07m-4-.76l2.21 2a4 4 0 0 0-3.3-3.1 4.18 4.18 0 0 0 3.18 3.34l-2-2.23m8.8 6l2.17-2a3.82 3.82 0 0 1-3.27 3 3.82 3.82 0 0 1 3-3.24l-1.93 2.23m-5.41-.41l2.72-1.21a4 4 0 0 1-4.13 1.91 4.1 4.1 0 0 1 4-2.17l-2.58 1.46m-4.28-1.58l2.87-.54a4 4 0 0 1-4.35.94 4 4 0 0 1 4.27-1.22l-2.79.82m-3-3.7l2.8 1.09a4.24 4.24 0 0 0-4.29-1.76 4.34 4.34 0 0 0 4.16 2.07L8.9 14.19m17.17 2.21l.45.39s-2.3 1.46-8.27.74a16.49 16.49 0 0 1-6.42-2 21.73 21.73 0 0 0 8.5 1.79c3.42-.12 4.26-.24 5.72-.9m40.07-1.17l-2.72 1.39a4.18 4.18 0 0 1 4.09-2.14 4.06 4.06 0 0 1-3.82 2.3l2.45-1.52m4.24-.57L68 16.57a4.08 4.08 0 0 1 3.52-2.91 4.14 4.14 0 0 1-3.33 3.11l2.14-2.07m4-.77l-2.21 2a4 4 0 0 1 3.31-3.12 4.18 4.18 0 0 1-3.18 3.34l2-2.23m-8.79 6l-2.17-2a3.82 3.82 0 0 0 3.27 3 3.82 3.82 0 0 0-3-3.24l1.91 2.14m5.41-.41l-2.72-1.21a4 4 0 0 0 4.13 1.91 4.1 4.1 0 0 0-4-2.17l2.58 1.46m4.3-1.59l-2.87-.54a4 4 0 0 0 4.35.94 4 4 0 0 0-4.27-1.22l2.79.83m3-3.71l-2.77 1.18a4.24 4.24 0 0 1 4.29-1.76 4.34 4.34 0 0 1-4.16 2.07l2.7-1.4m-17.17 2.21l-.45.39s2.3 1.46 8.27.74a16.54 16.54 0 0 0 6.42-2 21.73 21.73 0 0 1-8.5 1.79c-3.42-.12-4.26-.24-5.72-.9" fill="#fff"/></svg>