<svg width="113" height="42" xmlns="http://www.w3.org/2000/svg"><g fill="none" fill-rule="evenodd"><path fill="#CB2129" d="M0 0h113v42H0z"/><path fill="#FFF" d="M.595.592h111.81V41.41H.596z"/><path d="M10.765 10.707h4.222l1.606 6.33 1.606-6.33h4.222v10.41h-2.617v-7.866l-1.963 7.868h-2.498l-2.022-7.808v7.808h-2.617v-10.41h.06zm20.042 8.696H27.18l-.595 1.715h-3.27l3.924-10.41h3.567l3.926 10.41h-3.33l-.596-1.715zm-.713-2.307l-1.13-3.727-1.13 3.726h2.26zM35.803 21V10.59h5.353c1.07 0 1.725.117 2.32.176.594.178.95.473 1.248.947.298.473.476 1.064.476 1.597 0 .59-.12 1.065-.357 1.538-.178.355-.595.77-1.07 1.065-.298.177-.655.295-1.13.355.356.118.654.177.892.355.12.118.297.177.594.59.178.297.356.474.475.652l1.547 3.076h-3.628L40.8 17.807c-.18-.355-.358-.65-.596-.77-.178-.177-.476-.177-.773-.177h-.296v4.2h-3.27V21h-.06zm3.212-6.093h1.368c.12 0 .356-.118.892-.118.178-.12.357-.18.594-.297.118-.178.178-.355.178-.592 0-.354-.12-.59-.297-.768-.178-.177-.594-.295-1.13-.295h-1.427l-.178 2.07zm15.105 4.496h-3.627l-.595 1.715h-3.27l3.925-10.41h3.568l3.926 10.41h-3.33l-.595-1.715zm-.713-2.307l-1.13-3.727-1.13 3.726h2.26zm3.39-6.389h9.814v2.603h-3.27v7.808h-3.153V13.25h-3.27v-2.6h-.12v.06zm11.241 0h3.152v3.608h3.568v-3.608h3.153v10.41H74.76v-4.2h-3.57v4.2h-3.152v-10.41zm24.146 0h2.974l3.925 5.738v-5.738h3.093v10.41h-3.093l-3.866-5.737v5.738h-3.033v-10.41z" fill="#CB2129"/><g fill="#0E2344"><path d="M45.676 25.2h3.568c.595 0 1.07.118 1.368.355.297.296.476.65.476 1.065 0 .414-.12.65-.357.946a1.165 1.165 0 0 1-.653.355c.357.12.773.297.95.593.18.177.3.59.3.946 0 .295-.12.59-.18.886-.12.178-.356.474-.594.592-.18.118-.357.177-.655.177-.356.12-.654.12-.892.12h-3.152l-.178-6.035zm1.903 2.366h.89c.298 0 .477-.118.596-.177.12-.06.178-.18.178-.356 0-.178-.12-.296-.178-.355-.12-.12-.298-.18-.595-.18h-.89v1.066zm0 2.426h.95c.298 0 .595-.12.655-.178.12-.118.178-.296.178-.473s-.12-.295-.178-.354c-.06-.06-.357-.178-.654-.178h-.892v1.243h-.06v-.058zm6.245-4.792h5.055v1.36h-3.153v.947h2.855v1.242h-2.855v1.123h3.152v1.36h-5.056V25.2zm7.672 0h5.77v1.538H65.36v4.555h-1.904v-4.555h-1.903V25.2h-.06z"/></g><g fill="#646469"><path d="M32.71 26.442l2.855 1.42c-.892-1.42-2.32-2.366-4.34-2.307.653 1.36 1.902 2.366 4.043 2.366.06.12-2.557-1.478-2.557-1.478zm-4.4-.592l2.378 1.894c-.475-1.538-1.605-2.78-3.627-3.076.357 1.538 1.547 2.84 3.57 3.253 0 .12-2.32-2.07-2.32-2.07zm-4.164-.768l2.32 2.13c-.357-1.598-1.547-2.84-3.57-3.254.18 1.538 1.37 2.957 3.332 3.55.06-.12-2.082-2.426-2.082-2.426zm9.219 6.211l2.32-2.13c-.358 1.598-1.428 2.78-3.45 3.136.178-1.54 1.13-2.84 3.152-3.314l-2.022 2.307zm-5.65-.355l2.854-1.242c-.893 1.42-2.32 2.19-4.342 2.01.654-1.36 2.08-2.365 4.104-2.306.06 0-2.617 1.538-2.617 1.538zm-4.52-1.656l3.092-.592c-1.07 1.124-2.616 1.538-4.58 1.065.893-1.124 2.5-1.834 4.52-1.36-.06-.06-3.032.887-3.032.887zm-3.271-3.905l2.973 1.124c-.95-1.36-2.498-2.128-4.52-1.832.774 1.36 2.32 2.307 4.342 2.188.118-.06-2.796-1.48-2.796-1.48z"/><path d="M38.063 27.685l.476.354s-2.38 1.537-8.744.768c-4.103-.473-6.84-2.13-6.72-2.13 2.022.77 5.352 2.012 8.92 1.894 3.57-.118 4.46-.237 6.067-.887zm42.047-1.243l-2.854 1.42c.892-1.42 2.32-2.366 4.342-2.307-.654 1.36-1.903 2.366-4.044 2.366-.06.12 2.557-1.478 2.557-1.478zm4.402-.592l-2.38 1.894c.477-1.538 1.607-2.78 3.63-3.076-.358 1.538-1.547 2.84-3.57 3.253.12.12 2.32-2.07 2.32-2.07zm4.223-.768l-2.32 2.13c.357-1.598 1.547-2.84 3.57-3.254-.18 1.538-1.37 2.957-3.332 3.55-.12-.12 2.082-2.426 2.082-2.426zm-9.338 6.211l-2.32-2.13c.358 1.598 1.428 2.78 3.45 3.136-.178-1.54-1.13-2.84-3.152-3.314l2.022 2.307zm5.71-.355l-2.855-1.242c.892 1.42 2.32 2.19 4.342 2.01-.655-1.36-2.082-2.365-4.104-2.306-.12 0 2.617 1.538 2.617 1.538zm4.46-1.656l-3.092-.592c1.07 1.124 2.617 1.538 4.58 1.065-.893-1.124-2.5-1.834-4.52-1.36l3.032.887zm3.213-3.905L89.804 26.5c.952-1.36 2.498-2.128 4.52-1.832-.773 1.36-2.32 2.307-4.34 2.188 0-.06 2.794-1.48 2.794-1.48z"/><path d="M74.7 27.685l-.477.354s2.38 1.537 8.743.768c4.103-.473 6.84-2.13 6.72-2.13-2.022.77-5.352 2.012-8.92 1.894-3.57-.118-4.402-.237-6.067-.887z"/></g><path d="M79.635 15.676c0-1.656.476-2.958 1.428-3.904.95-.947 2.26-1.42 3.925-1.42 1.784 0 3.093.473 4.044 1.42.952.946 1.427 2.248 1.427 3.904 0 1.183-.18 2.248-.655 2.958a3.693 3.693 0 0 1-1.784 1.774c-.772.355-1.783.65-2.913.65s-2.14-.176-2.914-.53c-.774-.356-1.428-1.007-1.844-1.776-.536-.828-.715-1.834-.715-3.076zm3.212 0c0 1.006.178 1.775.535 2.248.357.473.952.65 1.606.65.654 0 1.19-.177 1.606-.65.357-.473.535-1.3.535-2.307 0-1.006-.18-1.656-.536-2.13-.357-.473-.952-.65-1.606-.65-.654 0-1.13.177-1.606.65-.297.474-.535 1.183-.535 2.19z" fill="#CB2129"/></g></svg>