<svg width="105" height="42" xmlns="http://www.w3.org/2000/svg"><g fill="none" fill-rule="evenodd"><path fill="#CB2129" d="M0 0h105v42H0z"/><path fill="#FFF" d="M.593.592h103.814V41.41H.593z"/><path d="M29.958 26.146l2.788 1.36c-.77-1.36-2.077-2.306-4.093-2.13.652 1.362 1.898 2.31 3.796 2.31-.12 0-2.492-1.54-2.492-1.54zm-4.331-.591L28 27.448c-.475-1.538-1.602-2.603-3.56-2.84.357 1.42 1.424 2.78 3.323 3.136-.06-.06-2.136-2.19-2.136-2.19zm-4.034-.71l2.195 2.01c-.356-1.537-1.424-2.78-3.322-3.134.178 1.42 1.365 2.84 3.144 3.314l-2.017-2.19zm8.899 5.975l2.194-1.893c-.355 1.538-1.364 2.662-3.262 3.076.178-1.42 1.127-2.78 3.084-3.254-.118 0-2.016 2.07-2.016 2.07zm-5.458-.355l2.788-1.242c-.89 1.36-2.195 2.13-4.093 1.892.65-1.36 2.075-2.307 4.033-2.188-.12.118-2.73 1.538-2.73 1.538zm-4.271-1.657l2.847-.59c-1.068 1.123-2.49 1.537-4.39.945.89-1.064 2.373-1.597 4.33-1.242l-2.787.888zm-3.085-3.726l2.847 1.124c-.89-1.36-2.372-2.012-4.33-1.834.77 1.242 2.313 2.307 4.212 2.13l-2.73-1.42z" fill="#646469"/><path d="M34.88 27.39l.476.354s-2.314 1.538-8.305.77c-4.033-.475-6.525-2.013-6.525-2.013 1.9.77 5.16 1.894 8.483 1.835 3.5-.177 4.45-.296 5.873-.946zm40.28-1.244l-2.787 1.36c.77-1.36 2.076-2.306 4.093-2.13-.652 1.362-1.898 2.31-3.797 2.31.118 0 2.49-1.54 2.49-1.54zm4.332-.591l-2.373 1.893c.473-1.538 1.6-2.603 3.558-2.84-.356 1.42-1.424 2.78-3.322 3.136l2.136-2.19zm3.974-.71l-2.195 2.01c.357-1.537 1.425-2.78 3.323-3.134-.178 1.42-1.364 2.84-3.144 3.314l2.016-2.19zm-8.898 5.975l-2.195-1.893c.356 1.538 1.364 2.662 3.263 3.076-.178-1.42-1.128-2.78-3.085-3.254.12 0 2.018 2.07 2.018 2.07zm5.398-.355l-2.788-1.242c.89 1.36 2.195 2.13 4.093 1.892-.65-1.36-2.075-2.307-4.033-2.188.12.118 2.73 1.538 2.73 1.538zm4.39-1.657l-2.848-.59c1.068 1.123 2.492 1.537 4.39.945-.89-1.064-2.373-1.597-4.33-1.242l2.788.888zm3.024-3.726l-2.846 1.124c.89-1.36 2.373-2.012 4.33-1.834-.77 1.242-2.313 2.307-4.21 2.13l2.727-1.42z" fill="#646469"/><path d="M70.178 27.39l-.475.354s2.314 1.538 8.305.77c4.034-.475 6.526-2.013 6.526-2.013-1.898.77-5.16 1.894-8.483 1.835-3.558-.177-4.448-.296-5.872-.946z" fill="#646469"/><path d="M10.797 10.766h4.33l1.602 6.507 1.6-6.507h4.33v10.53h-2.61V13.25l-2.075 8.046h-2.373l-2.077-8.045v8.046h-2.67l-.058-10.53zm20.466 8.814h-3.738l-.593 1.716H23.61l4.034-10.53h3.56l3.974 10.53h-3.44l-.475-1.716zm-.594-2.307l-1.128-3.845-1.127 3.845h2.254zm5.577-6.507h5.457c1.128 0 2.077.296 2.67.888.593.59.89 1.36.89 2.366 0 1.065-.297 1.893-.95 2.484-.652.592-1.6.888-2.966.888h-1.84v3.904h-3.143l-.118-10.53zm3.322 4.496h.89c.652 0 1.067-.118 1.364-.355.178-.177.356-.473.356-.887 0-.414-.12-.592-.356-.888-.178-.177-.653-.355-1.246-.355h-.95v2.485h-.058zM52.62 19.58h-3.74l-.592 1.716h-3.322L49 10.766h3.56l3.974 10.53h-3.44l-.475-1.716zm-.713-2.307l-1.127-3.845-1.127 3.845h2.254zm12.933-5.619c3.143.354 4.804 1.833 4.804 4.318 0 2.603-1.602 4.022-4.805 4.318v1.006h-2.967v-1.183c-3.144-.296-4.805-1.716-4.805-4.32 0-2.6 1.6-4.02 4.805-4.317v-.887h2.966v1.064zm-2.967 6.388v-4.377c-.475.118-.89.355-1.127.887-.297.355-.475.887-.475 1.42 0 .473.12.946.357 1.36.237.414.653.533 1.246.71zm2.966 0c.592-.177.89-.355 1.126-.77.297-.354.356-.886.356-1.36 0-.473-.12-.946-.356-1.36-.237-.414-.652-.65-1.127-.887v4.377zm6.525-2.012c0-1.715.475-3.075 1.424-4.022.95-.946 2.314-1.42 4.034-1.42 1.84 0 3.144.474 4.093 1.42.95.947 1.424 2.307 1.424 4.023 0 1.243-.18 2.308-.654 3.077-.355.77-1.067 1.42-1.84 1.834a7.287 7.287 0 0 1-2.965.652c-1.126 0-2.194-.178-2.965-.592-.77-.355-1.423-1.065-1.898-1.834-.475-.828-.653-1.893-.653-3.135zm3.204 0c0 1.066.178 1.835.593 2.308.357.473.95.65 1.603.65.652 0 1.245-.177 1.6-.65.357-.473.595-1.36.595-2.366 0-1.065-.178-1.716-.594-2.19-.356-.472-.95-.65-1.6-.65-.654 0-1.128.178-1.603.65-.296.415-.592 1.184-.592 2.25zm9.669-5.264H87.5v3.61h3.56v-3.61h3.262v10.53H91.06v-4.32H87.5v4.32h-3.263v-10.53z" fill="#CB2129"/><path d="M43.898 27.21h.95c.89 0 1.542.18 1.898.475.356.295.652.77.652 1.42 0 .59-.178.946-.593 1.24-.356.297-.95.356-1.602.356H42.12v-5.796h4.863v1.124h-3.085v1.183zm0 2.367h.95c.593 0 .89-.177.89-.59 0-.356-.297-.593-.89-.593h-.95v1.183zm6.288-4.554h4.806v1.242h-3.085v.946h2.788v1.125h-2.788v1.124h3.085v1.36h-4.865l.06-5.797zm7.297 0h5.458v1.42h-1.838v4.377h-1.84v-4.378h-1.838v-1.42h.06z" fill="#0E2344"/></g></svg>