<svg viewBox="0 0 31 21" xmlns="http://www.w3.org/2000/svg"><g><g><g><path fill="#EAEDF1" d="M1 1h29v19H1z"/><path d="M2.487 1C1.666 1 1 1.666 1 2.487v16.026C1 19.334 1.666 20 2.487 20h26.026c.821 0 1.487-.666 1.487-1.487V2.487C30 1.666 29.334 1 28.513 1H2.487zm0-1h26.026A2.487 2.487 0 0 1 31 2.487v16.026A2.487 2.487 0 0 1 28.513 21H2.487A2.487 2.487 0 0 1 0 18.513V2.487A2.487 2.487 0 0 1 2.487 0z" fill="#D4DBE2"/><path fill="#333" d="M0 3h31v3H0z"/><path fill="#FFF" d="M1 9h25v6H1"/><path d="M15.25 14.75h10.5v-5.5h-10.5v5.5zm11-6v6.5h-11.5v-6.5h11.5z" fill="#EF4048"/><path d="M17.651 11c.167 0 .33.043.49.13.16.086.286.209.375.37.09.16.134.326.134.499a.965.965 0 0 1-.293.708.962.962 0 0 1-.706.293.965.965 0 0 1-.708-.293.965.965 0 0 1-.293-.708c0-.174.045-.341.134-.5a.92.92 0 0 1 .375-.37c.16-.086.324-.129.492-.129zm2.808 0c.167 0 .33.043.49.13a.91.91 0 0 1 .375.37c.09.16.134.326.134.499a.965.965 0 0 1-.293.708.962.962 0 0 1-.706.293.965.965 0 0 1-.708-.293.965.965 0 0 1-.293-.708c0-.174.045-.341.134-.5a.92.92 0 0 1 .375-.37c.16-.086.324-.129.492-.129zm2.808 0c.167 0 .33.043.49.13a.91.91 0 0 1 .375.37c.09.16.134.326.134.499a.965.965 0 0 1-.293.708.962.962 0 0 1-.706.293.965.965 0 0 1-.708-.293.965.965 0 0 1-.293-.708c0-.174.045-.341.134-.5a.92.92 0 0 1 .375-.37c.16-.086.324-.129.492-.129z"/></g></g></g></svg>