<svg xmlns="http://www.w3.org/2000/svg" width="24" height="24"><g fill="none"><ellipse cx="11.915" cy="12.02" fill="#DC4E41" rx="11.915" ry="11.81"/><path fill="#DC4E41" d="M4.148 12.128c-.042 2.032 1.37 3.97 3.312 4.604 1.83.61 4.08.153 5.297-1.4.888-1.088 1.09-2.54.994-3.894-1.566-.014-3.132-.01-4.697-.007-.002.554 0 1.105.002 1.658.94.026 1.877.014 2.815.033-.237.805-.776 1.554-1.595 1.845-1.58.69-3.598-.212-4.095-1.856-.6-1.575.382-3.474 2.005-3.932 1.006-.35 2.043.044 2.904.562.435-.404.844-.837 1.245-1.274-.98-.81-2.236-1.31-3.528-1.2-2.536.03-4.755 2.35-4.66 4.862zM16.8 10.035c-.004.463-.01.928-.01 1.39-.47.005-.937.008-1.404.01v1.386c.467.003.936.005 1.403.01.003.463.003.925.008 1.39.464 0 .93-.002 1.398 0 .002-.465.004-.927.01-1.392l1.402-.007v-1.385c-.467-.002-.936-.004-1.403-.01-.002-.462-.007-.927-.01-1.39H16.8z"/><g fill="#FFF"><path d="M4.148 12.128c-.096-2.51 2.123-4.83 4.66-4.86 1.29-.11 2.548.387 3.526 1.198a22 22 0 0 1-1.245 1.274c-.862-.518-1.9-.913-2.905-.563-1.623.46-2.606 2.358-2.006 3.932.497 1.643 2.514 2.545 4.095 1.854.818-.29 1.358-1.04 1.595-1.843-.938-.018-1.877-.006-2.815-.032-.002-.553-.004-1.104-.002-1.657 1.564-.002 3.13-.006 4.698.007.097 1.356-.105 2.807-.994 3.895-1.217 1.553-3.466 2.01-5.296 1.4-1.942-.633-3.354-2.572-3.312-4.604zM16.8 10.035h1.396c.002.463.007.928.01 1.39.466.005.935.008 1.402.01v1.386l-1.403.008-.01 1.392c-.466-.002-.933 0-1.397 0-.005-.465-.005-.927-.01-1.39-.466-.005-.935-.007-1.402-.01v-1.385c.467-.003.934-.005 1.403-.01 0-.462.006-.927.01-1.39z"/></g></g></svg>