<svg xmlns="http://www.w3.org/2000/svg" width="24" height="24"><g fill="none" fill-rule="evenodd"><circle cx="12" cy="12" r="12" fill="#1DA1F2"/><path fill="#FFF" fill-rule="nonzero" d="M10.425 18.08c4.83 0 7.472-4.185 7.472-7.815 0-.12-.002-.237-.007-.355.513-.388.958-.87 1.31-1.422-.47.22-.977.366-1.508.432.542-.34.958-.878 1.155-1.52a5.123 5.123 0 0 1-1.668.668 2.573 2.573 0 0 0-1.918-.868c-1.45 0-2.626 1.23-2.626 2.746 0 .216.023.425.068.627-2.183-.115-4.118-1.208-5.413-2.87a2.84 2.84 0 0 0-.355 1.38 2.78 2.78 0 0 0 1.17 2.287 2.517 2.517 0 0 1-1.19-.344v.035c0 1.33.904 2.442 2.106 2.694a2.509 2.509 0 0 1-1.185.046c.334 1.092 1.304 1.886 2.453 1.908a5.123 5.123 0 0 1-3.888 1.138 7.191 7.191 0 0 0 4.026 1.234"/></g></svg>